%TF.GenerationSoftware,KiCad,Pcbnew,8.0.4*%
%TF.CreationDate,2025-01-12T23:29:22+07:00*%
%TF.ProjectId,lcd-square-4inch,6c63642d-7371-4756-9172-652d34696e63,rev?*%
%TF.SameCoordinates,Original*%
%TF.FileFunction,Copper,L3,Inr*%
%TF.FilePolarity,Positive*%
%FSLAX46Y46*%
G04 Gerber Fmt 4.6, Leading zero omitted, Abs format (unit mm)*
G04 Created by KiCad (PCBNEW 8.0.4) date 2025-01-12 23:29:22*
%MOMM*%
%LPD*%
G01*
G04 APERTURE LIST*
%TA.AperFunction,ComponentPad*%
%ADD10C,6.200000*%
%TD*%
%TA.AperFunction,ComponentPad*%
%ADD11O,1.000000X2.100000*%
%TD*%
%TA.AperFunction,ComponentPad*%
%ADD12O,1.000000X1.800000*%
%TD*%
%TA.AperFunction,ViaPad*%
%ADD13C,0.600000*%
%TD*%
G04 APERTURE END LIST*
D10*
%TO.N,N/C*%
%TO.C,H1*%
X111107200Y-62190000D03*
%TD*%
%TO.N,N/C*%
%TO.C,H4*%
X111107200Y-123590000D03*
%TD*%
%TO.N,N/C*%
%TO.C,H2*%
X178007200Y-62190000D03*
%TD*%
D11*
%TO.N,GND*%
%TO.C,J6*%
X124093000Y-65821000D03*
D12*
X124093000Y-61621000D03*
D11*
X115453000Y-65821000D03*
D12*
X115453000Y-61621000D03*
%TD*%
D10*
%TO.N,N/C*%
%TO.C,H3*%
X178007200Y-123590000D03*
%TD*%
D13*
%TO.N,GND*%
X148082000Y-65252600D03*
X132791200Y-73279000D03*
X135936009Y-63292009D03*
X146075400Y-67199932D03*
X167360600Y-88188800D03*
X150088600Y-65252600D03*
X146075400Y-68173600D03*
X150088600Y-69037200D03*
X134493000Y-92456000D03*
X129844800Y-73279000D03*
X119278400Y-72263000D03*
X110591600Y-73279000D03*
X167360600Y-94691200D03*
X135483600Y-86715600D03*
X167360600Y-83185000D03*
X150088600Y-66198750D03*
X135458200Y-81749000D03*
X146075400Y-66226266D03*
X126441200Y-90474800D03*
X127381000Y-73050400D03*
X146075400Y-65252600D03*
X149085300Y-65252600D03*
X122021600Y-90474800D03*
X150088600Y-67144900D03*
X150088600Y-68091050D03*
X122986800Y-73050400D03*
X147078700Y-65252600D03*
X133756400Y-91186000D03*
%TO.N,+3V3*%
X132791200Y-74244200D03*
X110591600Y-74244200D03*
X136144000Y-93141800D03*
X122986800Y-90474800D03*
X167360600Y-82219800D03*
X122021600Y-73050400D03*
X167360600Y-87223600D03*
X135483600Y-87680800D03*
X127381000Y-90474800D03*
X167360600Y-93726000D03*
X129844800Y-74244200D03*
X135940800Y-65455800D03*
X126415800Y-73050400D03*
X135458200Y-82685800D03*
%TO.N,VBUS*%
X119278400Y-67919600D03*
%TO.N,/MCU/SDRAM_DQ6*%
X134721600Y-85598000D03*
%TO.N,/USB_POWER/D+*%
X118323000Y-72263000D03*
%TO.N,/USB_POWER/D-*%
X120223000Y-72263000D03*
%TD*%
M02*
