M48
; DRILL file {KiCad 8.0.4} date 2025-01-12T23:29:19+0700
; FORMAT={-:-/ absolute / inch / decimal}
; #@! TF.CreationDate,2025-01-12T23:29:19+07:00
; #@! TF.GenerationSoftware,Kicad,Pcbnew,8.0.4
; #@! TF.FileFunction,Plated,1,4,PTH
FMAT,2
INCH
; #@! TA.AperFunction,Plated,PTH,ViaDrill
T1C0.0118
; #@! TA.AperFunction,Plated,PTH,ComponentDrill
T2C0.0236
; #@! TA.AperFunction,Plated,PTH,ComponentDrill
T3C0.1661
%
G90
G05
T1
X4.354Y-2.885
X4.354Y-2.923
X4.6584Y-2.845
X4.696Y-2.674
X4.696Y-2.845
X4.7332Y-2.845
X4.804Y-2.876
X4.804Y-3.562
X4.842Y-2.876
X4.842Y-3.562
X4.977Y-2.876
X4.978Y-3.562
X5.015Y-2.876
X5.015Y-3.562
X5.112Y-2.885
X5.112Y-2.923
X5.228Y-2.885
X5.228Y-2.923
X5.266Y-3.59
X5.295Y-3.64
X5.304Y-3.37
X5.333Y-3.2185
X5.333Y-3.2553
X5.334Y-3.414
X5.334Y-3.452
X5.3518Y-2.4918
X5.352Y-2.577
X5.36Y-3.667
X5.751Y-2.569
X5.751Y-2.6073
X5.751Y-2.6457
X5.751Y-2.684
X5.7905Y-2.569
X5.83Y-2.569
X5.8695Y-2.569
X5.909Y-2.569
X5.909Y-2.6062
X5.909Y-2.6435
X5.909Y-2.6807
X5.909Y-2.718
X6.589Y-3.237
X6.589Y-3.275
X6.589Y-3.434
X6.589Y-3.472
X6.589Y-3.69
X6.589Y-3.728
T3
X4.3743Y-2.4484
X4.3743Y-4.8657
X7.0082Y-2.4484
X7.0082Y-4.8657
T2
G00X4.5454Y-2.4418
M15
G01X4.5454Y-2.4103
M16
G05
G00X4.5454Y-2.613
M15
G01X4.5454Y-2.5697
M16
G05
G00X4.8856Y-2.4418
M15
G01X4.8856Y-2.4103
M16
G05
G00X4.8856Y-2.613
M15
G01X4.8856Y-2.5697
M16
G05
M30
