%TF.GenerationSoftware,KiCad,Pcbnew,8.0.4*%
%TF.CreationDate,2025-01-12T23:29:23+07:00*%
%TF.ProjectId,lcd-square-4inch,6c63642d-7371-4756-9172-652d34696e63,rev?*%
%TF.SameCoordinates,Original*%
%TF.FileFunction,Soldermask,Top*%
%TF.FilePolarity,Negative*%
%FSLAX46Y46*%
G04 Gerber Fmt 4.6, Leading zero omitted, Abs format (unit mm)*
G04 Created by KiCad (PCBNEW 8.0.4) date 2025-01-12 23:29:23*
%MOMM*%
%LPD*%
G01*
G04 APERTURE LIST*
G04 Aperture macros list*
%AMRoundRect*
0 Rectangle with rounded corners*
0 $1 Rounding radius*
0 $2 $3 $4 $5 $6 $7 $8 $9 X,Y pos of 4 corners*
0 Add a 4 corners polygon primitive as box body*
4,1,4,$2,$3,$4,$5,$6,$7,$8,$9,$2,$3,0*
0 Add four circle primitives for the rounded corners*
1,1,$1+$1,$2,$3*
1,1,$1+$1,$4,$5*
1,1,$1+$1,$6,$7*
1,1,$1+$1,$8,$9*
0 Add four rect primitives between the rounded corners*
20,1,$1+$1,$2,$3,$4,$5,0*
20,1,$1+$1,$4,$5,$6,$7,0*
20,1,$1+$1,$6,$7,$8,$9,0*
20,1,$1+$1,$8,$9,$2,$3,0*%
G04 Aperture macros list end*
%ADD10RoundRect,0.150000X-0.587500X-0.150000X0.587500X-0.150000X0.587500X0.150000X-0.587500X0.150000X0*%
%ADD11RoundRect,0.225000X-0.250000X0.225000X-0.250000X-0.225000X0.250000X-0.225000X0.250000X0.225000X0*%
%ADD12RoundRect,0.140000X0.140000X0.170000X-0.140000X0.170000X-0.140000X-0.170000X0.140000X-0.170000X0*%
%ADD13C,6.200000*%
%ADD14RoundRect,0.140000X-0.140000X-0.170000X0.140000X-0.170000X0.140000X0.170000X-0.140000X0.170000X0*%
%ADD15RoundRect,0.150000X0.150000X-0.512500X0.150000X0.512500X-0.150000X0.512500X-0.150000X-0.512500X0*%
%ADD16RoundRect,0.140000X0.170000X-0.140000X0.170000X0.140000X-0.170000X0.140000X-0.170000X-0.140000X0*%
%ADD17RoundRect,0.135000X-0.185000X0.135000X-0.185000X-0.135000X0.185000X-0.135000X0.185000X0.135000X0*%
%ADD18R,0.650000X1.050000*%
%ADD19RoundRect,0.225000X0.250000X-0.225000X0.250000X0.225000X-0.250000X0.225000X-0.250000X-0.225000X0*%
%ADD20RoundRect,0.250000X-0.475000X0.250000X-0.475000X-0.250000X0.475000X-0.250000X0.475000X0.250000X0*%
%ADD21RoundRect,0.135000X0.185000X-0.135000X0.185000X0.135000X-0.185000X0.135000X-0.185000X-0.135000X0*%
%ADD22RoundRect,0.150000X-0.512500X-0.150000X0.512500X-0.150000X0.512500X0.150000X-0.512500X0.150000X0*%
%ADD23RoundRect,0.140000X-0.170000X0.140000X-0.170000X-0.140000X0.170000X-0.140000X0.170000X0.140000X0*%
%ADD24RoundRect,0.062500X-0.350000X-0.062500X0.350000X-0.062500X0.350000X0.062500X-0.350000X0.062500X0*%
%ADD25RoundRect,0.062500X-0.062500X-0.350000X0.062500X-0.350000X0.062500X0.350000X-0.062500X0.350000X0*%
%ADD26R,1.230000X1.230000*%
%ADD27RoundRect,0.135000X-0.135000X-0.185000X0.135000X-0.185000X0.135000X0.185000X-0.135000X0.185000X0*%
%ADD28RoundRect,0.135000X0.135000X0.185000X-0.135000X0.185000X-0.135000X-0.185000X0.135000X-0.185000X0*%
%ADD29RoundRect,0.110000X0.440000X1.590000X-0.440000X1.590000X-0.440000X-1.590000X0.440000X-1.590000X0*%
%ADD30RoundRect,0.250000X0.475000X-0.250000X0.475000X0.250000X-0.475000X0.250000X-0.475000X-0.250000X0*%
%ADD31RoundRect,0.250000X-0.250000X-0.475000X0.250000X-0.475000X0.250000X0.475000X-0.250000X0.475000X0*%
%ADD32RoundRect,0.225000X-0.225000X-0.250000X0.225000X-0.250000X0.225000X0.250000X-0.225000X0.250000X0*%
%ADD33RoundRect,0.150000X-0.825000X-0.150000X0.825000X-0.150000X0.825000X0.150000X-0.825000X0.150000X0*%
%ADD34RoundRect,0.075000X-0.075000X0.675000X-0.075000X-0.675000X0.075000X-0.675000X0.075000X0.675000X0*%
%ADD35RoundRect,0.075000X-0.675000X0.075000X-0.675000X-0.075000X0.675000X-0.075000X0.675000X0.075000X0*%
%ADD36R,2.400000X0.740000*%
%ADD37RoundRect,0.225000X-0.375000X0.225000X-0.375000X-0.225000X0.375000X-0.225000X0.375000X0.225000X0*%
%ADD38RoundRect,0.243750X-0.243750X-0.456250X0.243750X-0.456250X0.243750X0.456250X-0.243750X0.456250X0*%
%ADD39C,1.000000*%
%ADD40RoundRect,0.200000X0.275000X-0.200000X0.275000X0.200000X-0.275000X0.200000X-0.275000X-0.200000X0*%
%ADD41R,0.600000X1.100000*%
%ADD42R,1.800000X0.700000*%
%ADD43R,2.200000X1.600000*%
%ADD44RoundRect,0.225000X0.225000X0.250000X-0.225000X0.250000X-0.225000X-0.250000X0.225000X-0.250000X0*%
%ADD45R,1.150000X1.000000*%
%ADD46R,1.300000X0.300000*%
%ADD47R,2.200000X1.800000*%
%ADD48RoundRect,0.243750X-0.456250X0.243750X-0.456250X-0.243750X0.456250X-0.243750X0.456250X0.243750X0*%
%ADD49C,1.100000*%
%ADD50R,1.600000X0.700000*%
%ADD51RoundRect,0.050000X-0.750000X0.600000X-0.750000X-0.600000X0.750000X-0.600000X0.750000X0.600000X0*%
%ADD52RoundRect,0.050000X-1.100000X0.600000X-1.100000X-0.600000X1.100000X-0.600000X1.100000X0.600000X0*%
%ADD53RoundRect,0.050000X-0.750000X0.800000X-0.750000X-0.800000X0.750000X-0.800000X0.750000X0.800000X0*%
%ADD54R,0.250000X1.100000*%
%ADD55R,1.700000X1.500000*%
%ADD56C,0.650000*%
%ADD57R,0.600000X1.240000*%
%ADD58R,0.300000X1.240000*%
%ADD59O,1.000000X2.100000*%
%ADD60O,1.000000X1.800000*%
%ADD61RoundRect,0.125000X0.200000X0.125000X-0.200000X0.125000X-0.200000X-0.125000X0.200000X-0.125000X0*%
%ADD62R,3.400000X4.300000*%
%ADD63R,0.458000X1.510000*%
G04 APERTURE END LIST*
D10*
%TO.C,D6*%
X171325300Y-102834400D03*
X171325300Y-104734400D03*
X173200300Y-103784400D03*
%TD*%
D11*
%TO.C,C8*%
X160350200Y-102920800D03*
X160350200Y-104470800D03*
%TD*%
D12*
%TO.C,C15*%
X153313200Y-99771200D03*
X152353200Y-99771200D03*
%TD*%
D13*
%TO.C,H1*%
X111107200Y-62190000D03*
%TD*%
D11*
%TO.C,C7*%
X158724600Y-102920800D03*
X158724600Y-104470800D03*
%TD*%
D14*
%TO.C,C33*%
X148083200Y-69037200D03*
X149043200Y-69037200D03*
%TD*%
D15*
%TO.C,U4*%
X118323000Y-71185200D03*
X119273000Y-71185200D03*
X120223000Y-71185200D03*
X120223000Y-68910200D03*
X119273000Y-68910200D03*
X118323000Y-68910200D03*
%TD*%
D14*
%TO.C,C40*%
X170462000Y-120015000D03*
X171422000Y-120015000D03*
%TD*%
D16*
%TO.C,C35*%
X159689800Y-67655200D03*
X159689800Y-66695200D03*
%TD*%
D17*
%TO.C,R3*%
X117652800Y-91209400D03*
X117652800Y-92229400D03*
%TD*%
D14*
%TO.C,C21*%
X166674800Y-75959000D03*
X167634800Y-75959000D03*
%TD*%
D18*
%TO.C,SW4*%
X173160000Y-60053400D03*
X173160000Y-64203400D03*
X171010000Y-60053400D03*
X171010000Y-64203400D03*
%TD*%
D16*
%TO.C,C6*%
X171856400Y-100581400D03*
X171856400Y-99621400D03*
%TD*%
D19*
%TO.C,C2*%
X126111000Y-98260200D03*
X126111000Y-96710200D03*
%TD*%
D20*
%TO.C,C11*%
X126695200Y-61229200D03*
X126695200Y-63129200D03*
%TD*%
D21*
%TO.C,R18*%
X121488200Y-70557700D03*
X121488200Y-69537700D03*
%TD*%
D22*
%TO.C,U2*%
X165030700Y-107812800D03*
X165030700Y-108762800D03*
X165030700Y-109712800D03*
X167305700Y-109712800D03*
X167305700Y-107812800D03*
%TD*%
D23*
%TO.C,C22*%
X166674800Y-82229000D03*
X166674800Y-83189000D03*
%TD*%
%TO.C,C29*%
X166674800Y-93729000D03*
X166674800Y-94689000D03*
%TD*%
D22*
%TO.C,U3*%
X129647100Y-61229200D03*
X129647100Y-62179200D03*
X129647100Y-63129200D03*
X131922100Y-63129200D03*
X131922100Y-61229200D03*
%TD*%
D21*
%TO.C,R17*%
X129108200Y-70639400D03*
X129108200Y-69619400D03*
%TD*%
D24*
%TO.C,U1*%
X171533900Y-113316600D03*
X171533900Y-113816600D03*
X171533900Y-114316600D03*
X171533900Y-114816600D03*
D25*
X172221400Y-115504100D03*
X172721400Y-115504100D03*
X173221400Y-115504100D03*
X173721400Y-115504100D03*
D24*
X174408900Y-114816600D03*
X174408900Y-114316600D03*
X174408900Y-113816600D03*
X174408900Y-113316600D03*
D25*
X173721400Y-112629100D03*
X173221400Y-112629100D03*
X172721400Y-112629100D03*
X172221400Y-112629100D03*
D26*
X172971400Y-114066600D03*
%TD*%
D27*
%TO.C,R12*%
X129182400Y-102607533D03*
X130202400Y-102607533D03*
%TD*%
D12*
%TO.C,C10*%
X135305800Y-101142800D03*
X134345800Y-101142800D03*
%TD*%
%TO.C,C34*%
X147208200Y-69011800D03*
X146248200Y-69011800D03*
%TD*%
D23*
%TO.C,C50*%
X160985200Y-60559600D03*
X160985200Y-61519600D03*
%TD*%
D17*
%TO.C,R16*%
X128219200Y-61229200D03*
X128219200Y-62249200D03*
%TD*%
D12*
%TO.C,C48*%
X127385200Y-89789000D03*
X126425200Y-89789000D03*
%TD*%
D28*
%TO.C,R9*%
X113948400Y-67995600D03*
X112928400Y-67995600D03*
%TD*%
D16*
%TO.C,C32*%
X143789400Y-69418200D03*
X143789400Y-68458200D03*
%TD*%
D12*
%TO.C,C9*%
X153819800Y-101269800D03*
X152859800Y-101269800D03*
%TD*%
D27*
%TO.C,R15*%
X129182400Y-105333800D03*
X130202400Y-105333800D03*
%TD*%
D28*
%TO.C,R20*%
X167694800Y-76987400D03*
X166674800Y-76987400D03*
%TD*%
D27*
%TO.C,R11*%
X129182400Y-101244400D03*
X130202400Y-101244400D03*
%TD*%
D29*
%TO.C,L1*%
X167642800Y-104495600D03*
X164642800Y-104495600D03*
%TD*%
D30*
%TO.C,C5*%
X170063700Y-101051400D03*
X170063700Y-99151400D03*
%TD*%
D12*
%TO.C,C26*%
X136144000Y-92459000D03*
X135184000Y-92459000D03*
%TD*%
D16*
%TO.C,C19*%
X162458400Y-68552000D03*
X162458400Y-67592000D03*
%TD*%
%TO.C,C37*%
X142621000Y-69418200D03*
X142621000Y-68458200D03*
%TD*%
D28*
%TO.C,R27*%
X162612800Y-64369600D03*
X161592800Y-64369600D03*
%TD*%
D31*
%TO.C,C4*%
X169231400Y-107508800D03*
X171131400Y-107508800D03*
%TD*%
D32*
%TO.C,C16*%
X169633600Y-82296000D03*
X171183600Y-82296000D03*
%TD*%
D16*
%TO.C,C31*%
X136144000Y-76189000D03*
X136144000Y-75229000D03*
%TD*%
D18*
%TO.C,SW3*%
X168334000Y-60028000D03*
X168334000Y-64178000D03*
X166184000Y-60028000D03*
X166184000Y-64178000D03*
%TD*%
D12*
%TO.C,C49*%
X122985200Y-89789000D03*
X122025200Y-89789000D03*
%TD*%
D33*
%TO.C,U8*%
X154090600Y-60559600D03*
X154090600Y-61829600D03*
X154090600Y-63099600D03*
X154090600Y-64369600D03*
X159040600Y-64369600D03*
X159040600Y-63099600D03*
X159040600Y-61829600D03*
X159040600Y-60559600D03*
%TD*%
D27*
%TO.C,R21*%
X171625800Y-66421000D03*
X172645800Y-66421000D03*
%TD*%
D34*
%TO.C,U5*%
X162083200Y-72034000D03*
X161583200Y-72034000D03*
X161083200Y-72034000D03*
X160583200Y-72034000D03*
X160083200Y-72034000D03*
X159583200Y-72034000D03*
X159083200Y-72034000D03*
X158583200Y-72034000D03*
X158083200Y-72034000D03*
X157583200Y-72034000D03*
X157083200Y-72034000D03*
X156583200Y-72034000D03*
X156083200Y-72034000D03*
X155583200Y-72034000D03*
X155083200Y-72034000D03*
X154583200Y-72034000D03*
X154083200Y-72034000D03*
X153583200Y-72034000D03*
X153083200Y-72034000D03*
X152583200Y-72034000D03*
X152083200Y-72034000D03*
X151583200Y-72034000D03*
X151083200Y-72034000D03*
X150583200Y-72034000D03*
X150083200Y-72034000D03*
X149583200Y-72034000D03*
X149083200Y-72034000D03*
X148583200Y-72034000D03*
X148083200Y-72034000D03*
X147583200Y-72034000D03*
X147083200Y-72034000D03*
X146583200Y-72034000D03*
X146083200Y-72034000D03*
X145583200Y-72034000D03*
X145083200Y-72034000D03*
X144583200Y-72034000D03*
X144083200Y-72034000D03*
X143583200Y-72034000D03*
X143083200Y-72034000D03*
X142583200Y-72034000D03*
X142083200Y-72034000D03*
X141583200Y-72034000D03*
X141083200Y-72034000D03*
X140583200Y-72034000D03*
D35*
X138658200Y-73959000D03*
X138658200Y-74459000D03*
X138658200Y-74959000D03*
X138658200Y-75459000D03*
X138658200Y-75959000D03*
X138658200Y-76459000D03*
X138658200Y-76959000D03*
X138658200Y-77459000D03*
X138658200Y-77959000D03*
X138658200Y-78459000D03*
X138658200Y-78959000D03*
X138658200Y-79459000D03*
X138658200Y-79959000D03*
X138658200Y-80459000D03*
X138658200Y-80959000D03*
X138658200Y-81459000D03*
X138658200Y-81959000D03*
X138658200Y-82459000D03*
X138658200Y-82959000D03*
X138658200Y-83459000D03*
X138658200Y-83959000D03*
X138658200Y-84459000D03*
X138658200Y-84959000D03*
X138658200Y-85459000D03*
X138658200Y-85959000D03*
X138658200Y-86459000D03*
X138658200Y-86959000D03*
X138658200Y-87459000D03*
X138658200Y-87959000D03*
X138658200Y-88459000D03*
X138658200Y-88959000D03*
X138658200Y-89459000D03*
X138658200Y-89959000D03*
X138658200Y-90459000D03*
X138658200Y-90959000D03*
X138658200Y-91459000D03*
X138658200Y-91959000D03*
X138658200Y-92459000D03*
X138658200Y-92959000D03*
X138658200Y-93459000D03*
X138658200Y-93959000D03*
X138658200Y-94459000D03*
X138658200Y-94959000D03*
X138658200Y-95459000D03*
D34*
X140583200Y-97384000D03*
X141083200Y-97384000D03*
X141583200Y-97384000D03*
X142083200Y-97384000D03*
X142583200Y-97384000D03*
X143083200Y-97384000D03*
X143583200Y-97384000D03*
X144083200Y-97384000D03*
X144583200Y-97384000D03*
X145083200Y-97384000D03*
X145583200Y-97384000D03*
X146083200Y-97384000D03*
X146583200Y-97384000D03*
X147083200Y-97384000D03*
X147583200Y-97384000D03*
X148083200Y-97384000D03*
X148583200Y-97384000D03*
X149083200Y-97384000D03*
X149583200Y-97384000D03*
X150083200Y-97384000D03*
X150583200Y-97384000D03*
X151083200Y-97384000D03*
X151583200Y-97384000D03*
X152083200Y-97384000D03*
X152583200Y-97384000D03*
X153083200Y-97384000D03*
X153583200Y-97384000D03*
X154083200Y-97384000D03*
X154583200Y-97384000D03*
X155083200Y-97384000D03*
X155583200Y-97384000D03*
X156083200Y-97384000D03*
X156583200Y-97384000D03*
X157083200Y-97384000D03*
X157583200Y-97384000D03*
X158083200Y-97384000D03*
X158583200Y-97384000D03*
X159083200Y-97384000D03*
X159583200Y-97384000D03*
X160083200Y-97384000D03*
X160583200Y-97384000D03*
X161083200Y-97384000D03*
X161583200Y-97384000D03*
X162083200Y-97384000D03*
D35*
X164008200Y-95459000D03*
X164008200Y-94959000D03*
X164008200Y-94459000D03*
X164008200Y-93959000D03*
X164008200Y-93459000D03*
X164008200Y-92959000D03*
X164008200Y-92459000D03*
X164008200Y-91959000D03*
X164008200Y-91459000D03*
X164008200Y-90959000D03*
X164008200Y-90459000D03*
X164008200Y-89959000D03*
X164008200Y-89459000D03*
X164008200Y-88959000D03*
X164008200Y-88459000D03*
X164008200Y-87959000D03*
X164008200Y-87459000D03*
X164008200Y-86959000D03*
X164008200Y-86459000D03*
X164008200Y-85959000D03*
X164008200Y-85459000D03*
X164008200Y-84959000D03*
X164008200Y-84459000D03*
X164008200Y-83959000D03*
X164008200Y-83459000D03*
X164008200Y-82959000D03*
X164008200Y-82459000D03*
X164008200Y-81959000D03*
X164008200Y-81459000D03*
X164008200Y-80959000D03*
X164008200Y-80459000D03*
X164008200Y-79959000D03*
X164008200Y-79459000D03*
X164008200Y-78959000D03*
X164008200Y-78459000D03*
X164008200Y-77959000D03*
X164008200Y-77459000D03*
X164008200Y-76959000D03*
X164008200Y-76459000D03*
X164008200Y-75959000D03*
X164008200Y-75459000D03*
X164008200Y-74959000D03*
X164008200Y-74459000D03*
X164008200Y-73959000D03*
%TD*%
D36*
%TO.C,J4*%
X179191200Y-76225400D03*
X175291200Y-76225400D03*
X179191200Y-74955400D03*
X175291200Y-74955400D03*
X179191200Y-73685400D03*
X175291200Y-73685400D03*
X179191200Y-72415400D03*
X175291200Y-72415400D03*
X179191200Y-71145400D03*
X175291200Y-71145400D03*
X179191200Y-69875400D03*
X175291200Y-69875400D03*
X179191200Y-68605400D03*
X175291200Y-68605400D03*
%TD*%
D23*
%TO.C,C23*%
X166674800Y-87229000D03*
X166674800Y-88189000D03*
%TD*%
D12*
%TO.C,C24*%
X147813200Y-99771200D03*
X146853200Y-99771200D03*
%TD*%
D27*
%TO.C,R7*%
X169111200Y-109829600D03*
X170131200Y-109829600D03*
%TD*%
D20*
%TO.C,C12*%
X133832600Y-61229200D03*
X133832600Y-63129200D03*
%TD*%
D37*
%TO.C,D1*%
X171754800Y-73000600D03*
X171754800Y-76300600D03*
%TD*%
D16*
%TO.C,C36*%
X155943300Y-67655200D03*
X155943300Y-66695200D03*
%TD*%
D11*
%TO.C,C18*%
X158583200Y-99771200D03*
X158583200Y-101321200D03*
%TD*%
D18*
%TO.C,SW2*%
X169867000Y-125544400D03*
X169867000Y-121394400D03*
X172017000Y-125544400D03*
X172017000Y-121394400D03*
%TD*%
D16*
%TO.C,C42*%
X135940800Y-64784600D03*
X135940800Y-63824600D03*
%TD*%
D14*
%TO.C,C3*%
X125145800Y-99687200D03*
X126105800Y-99687200D03*
%TD*%
D19*
%TO.C,C20*%
X139827000Y-69418200D03*
X139827000Y-67868200D03*
%TD*%
D28*
%TO.C,R22*%
X167923400Y-66929000D03*
X166903400Y-66929000D03*
%TD*%
%TO.C,R5*%
X126135800Y-100787200D03*
X125115800Y-100787200D03*
%TD*%
D21*
%TO.C,R19*%
X115773200Y-70557700D03*
X115773200Y-69537700D03*
%TD*%
D38*
%TO.C,D3*%
X109171500Y-67995600D03*
X111046500Y-67995600D03*
%TD*%
D20*
%TO.C,C1*%
X173677800Y-117371200D03*
X173677800Y-119271200D03*
%TD*%
D39*
%TO.C,TP1*%
X131368800Y-65989200D03*
%TD*%
D28*
%TO.C,R23*%
X147296600Y-63830200D03*
X146276600Y-63830200D03*
%TD*%
%TO.C,R28*%
X162612800Y-63099600D03*
X161592800Y-63099600D03*
%TD*%
D14*
%TO.C,C46*%
X122025200Y-73764200D03*
X122985200Y-73764200D03*
%TD*%
D12*
%TO.C,C30*%
X141813200Y-99771200D03*
X140853200Y-99771200D03*
%TD*%
D17*
%TO.C,R1*%
X118795800Y-91209400D03*
X118795800Y-92229400D03*
%TD*%
D14*
%TO.C,C14*%
X123748800Y-68605400D03*
X124708800Y-68605400D03*
%TD*%
D20*
%TO.C,FB1*%
X168021000Y-99151400D03*
X168021000Y-101051400D03*
%TD*%
D38*
%TO.C,D2*%
X109196900Y-71247000D03*
X111071900Y-71247000D03*
%TD*%
D39*
%TO.C,TP2*%
X131368800Y-68173600D03*
%TD*%
D40*
%TO.C,R10*%
X156997400Y-101295200D03*
X156997400Y-99645200D03*
%TD*%
D27*
%TO.C,R2*%
X168463300Y-115154800D03*
X169483300Y-115154800D03*
%TD*%
D14*
%TO.C,C39*%
X165128000Y-120015000D03*
X166088000Y-120015000D03*
%TD*%
D16*
%TO.C,C27*%
X136144000Y-82689000D03*
X136144000Y-81729000D03*
%TD*%
D41*
%TO.C,Y2*%
X157133200Y-67655200D03*
X158533200Y-67655200D03*
%TD*%
D27*
%TO.C,R14*%
X150787200Y-101269800D03*
X151807200Y-101269800D03*
%TD*%
%TO.C,R13*%
X129182400Y-103970666D03*
X130202400Y-103970666D03*
%TD*%
D31*
%TO.C,C13*%
X123748800Y-70104000D03*
X125648800Y-70104000D03*
%TD*%
D42*
%TO.C,J1*%
X176405600Y-105552400D03*
X176405600Y-104302400D03*
D43*
X179105600Y-107802400D03*
X179105600Y-102052400D03*
%TD*%
D44*
%TO.C,C17*%
X136144000Y-91186000D03*
X134594000Y-91186000D03*
%TD*%
D23*
%TO.C,C25*%
X159833200Y-99771200D03*
X159833200Y-100731200D03*
%TD*%
D28*
%TO.C,R8*%
X113973800Y-71247000D03*
X112953800Y-71247000D03*
%TD*%
D16*
%TO.C,C38*%
X141325600Y-69418200D03*
X141325600Y-68458200D03*
%TD*%
D45*
%TO.C,Y1*%
X147208200Y-67705200D03*
X148958200Y-67705200D03*
X148958200Y-66305200D03*
X147208200Y-66305200D03*
%TD*%
D46*
%TO.C,J3*%
X174625000Y-97437200D03*
X174625000Y-96937200D03*
X174625000Y-96437200D03*
X174625000Y-95937200D03*
X174625000Y-95437200D03*
X174625000Y-94937200D03*
X174625000Y-94437200D03*
X174625000Y-93937200D03*
X174625000Y-93437200D03*
X174625000Y-92937200D03*
X174625000Y-92437200D03*
X174625000Y-91937200D03*
X174625000Y-91437200D03*
X174625000Y-90937200D03*
X174625000Y-90437200D03*
X174625000Y-89937200D03*
X174625000Y-89437200D03*
X174625000Y-88937200D03*
X174625000Y-88437200D03*
X174625000Y-87937200D03*
X174625000Y-87437200D03*
X174625000Y-86937200D03*
X174625000Y-86437200D03*
X174625000Y-85937200D03*
X174625000Y-85437200D03*
X174625000Y-84937200D03*
X174625000Y-84437200D03*
X174625000Y-83937200D03*
X174625000Y-83437200D03*
X174625000Y-82937200D03*
D47*
X177875000Y-99337200D03*
X177875000Y-81037200D03*
%TD*%
D16*
%TO.C,C28*%
X136144000Y-87689000D03*
X136144000Y-86729000D03*
%TD*%
%TO.C,C47*%
X111305200Y-74244200D03*
X111305200Y-73284200D03*
%TD*%
D48*
%TO.C,D5*%
X129133600Y-66220100D03*
X129133600Y-68095100D03*
%TD*%
D49*
%TO.C,J2*%
X111979000Y-95837200D03*
X111979000Y-103837200D03*
D50*
X122979000Y-102987200D03*
X122979000Y-101887200D03*
X122979000Y-100787200D03*
X122979000Y-99687200D03*
X122979000Y-98587200D03*
X122979000Y-97487200D03*
X122979000Y-96387200D03*
X122979000Y-95287200D03*
X122979000Y-94187200D03*
D51*
X121979000Y-93037200D03*
D52*
X112379000Y-93037200D03*
D53*
X121979000Y-107637200D03*
D52*
X112379000Y-108537200D03*
%TD*%
D18*
%TO.C,SW1*%
X164533000Y-125544400D03*
X164533000Y-121394400D03*
X166683000Y-125544400D03*
X166683000Y-121394400D03*
%TD*%
D16*
%TO.C,C43*%
X132105200Y-74244200D03*
X132105200Y-73284200D03*
%TD*%
D13*
%TO.C,H4*%
X111107200Y-123590000D03*
%TD*%
D14*
%TO.C,C41*%
X171221400Y-68630800D03*
X172181400Y-68630800D03*
%TD*%
D13*
%TO.C,H2*%
X178007200Y-62190000D03*
%TD*%
D37*
%TO.C,D4*%
X162509200Y-102921800D03*
X162509200Y-106221800D03*
%TD*%
D54*
%TO.C,J5*%
X134807200Y-102925400D03*
X135307200Y-102925400D03*
X135807200Y-102925400D03*
X136307200Y-102925400D03*
X136807200Y-102925400D03*
X137307200Y-102925400D03*
X137807200Y-102925400D03*
X138307200Y-102925400D03*
X138807200Y-102925400D03*
X139307200Y-102925400D03*
X139807200Y-102925400D03*
X140307200Y-102925400D03*
X140807200Y-102925400D03*
X141307200Y-102925400D03*
X141807200Y-102925400D03*
X142307200Y-102925400D03*
X142807200Y-102925400D03*
X143307200Y-102925400D03*
X143807200Y-102925400D03*
X144307200Y-102925400D03*
X144807200Y-102925400D03*
X145307200Y-102925400D03*
X145807200Y-102925400D03*
X146307200Y-102925400D03*
X146807200Y-102925400D03*
X147307200Y-102925400D03*
X147807200Y-102925400D03*
X148307200Y-102925400D03*
X148807200Y-102925400D03*
X149307200Y-102925400D03*
X149807200Y-102925400D03*
X150307200Y-102925400D03*
X150807200Y-102925400D03*
X151307200Y-102925400D03*
X151807200Y-102925400D03*
X152307200Y-102925400D03*
X152807200Y-102925400D03*
X153307200Y-102925400D03*
X153807200Y-102925400D03*
X154307200Y-102925400D03*
D55*
X133157200Y-106825400D03*
X155957200Y-106825400D03*
%TD*%
D28*
%TO.C,R4*%
X169483300Y-113808600D03*
X168463300Y-113808600D03*
%TD*%
D56*
%TO.C,J6*%
X122663000Y-65301000D03*
X116883000Y-65301000D03*
D57*
X122973000Y-66421000D03*
X122173000Y-66421000D03*
D58*
X121023000Y-66421000D03*
X120023000Y-66421000D03*
X119523000Y-66421000D03*
X118523000Y-66421000D03*
D57*
X117373000Y-66421000D03*
X116573000Y-66421000D03*
X116573000Y-66421000D03*
X117373000Y-66421000D03*
D58*
X118023000Y-66421000D03*
X119023000Y-66421000D03*
X120523000Y-66421000D03*
X121523000Y-66421000D03*
D57*
X122173000Y-66421000D03*
X122973000Y-66421000D03*
D59*
X124093000Y-65821000D03*
D60*
X124093000Y-61621000D03*
D59*
X115453000Y-65821000D03*
D60*
X115453000Y-61621000D03*
%TD*%
D61*
%TO.C,U6*%
X144759000Y-64304600D03*
X144759000Y-63034600D03*
X144759000Y-61764600D03*
X144759000Y-60494600D03*
X137259000Y-60494600D03*
X137259000Y-61764600D03*
X137259000Y-63034600D03*
X137259000Y-64304600D03*
D62*
X141009000Y-62399600D03*
%TD*%
D28*
%TO.C,R6*%
X126135800Y-101887200D03*
X125115800Y-101887200D03*
%TD*%
D63*
%TO.C,U7*%
X132105200Y-76060800D03*
X131305200Y-76060800D03*
X130505200Y-76060800D03*
X129705200Y-76060800D03*
X128905200Y-76060800D03*
X128105200Y-76060800D03*
X127305200Y-76060800D03*
X126505200Y-76060800D03*
X125705200Y-76060800D03*
X124905200Y-76060800D03*
X124105200Y-76060800D03*
X123305200Y-76060800D03*
X122505200Y-76060800D03*
X121705200Y-76060800D03*
X120905200Y-76060800D03*
X120105200Y-76060800D03*
X119305200Y-76060800D03*
X118505200Y-76060800D03*
X117705200Y-76060800D03*
X116905200Y-76060800D03*
X116105200Y-76060800D03*
X115305200Y-76060800D03*
X114505200Y-76060800D03*
X113705200Y-76060800D03*
X112905200Y-76060800D03*
X112105200Y-76060800D03*
X111305200Y-76060800D03*
X111305200Y-87560800D03*
X112105200Y-87560800D03*
X112905200Y-87560800D03*
X113705200Y-87560800D03*
X114505200Y-87560800D03*
X115305200Y-87560800D03*
X116105200Y-87560800D03*
X116905200Y-87560800D03*
X117705200Y-87560800D03*
X118505200Y-87560800D03*
X119305200Y-87560800D03*
X120105200Y-87560800D03*
X120905200Y-87560800D03*
X121705200Y-87560800D03*
X122505200Y-87560800D03*
X123305200Y-87560800D03*
X124105200Y-87560800D03*
X124905200Y-87560800D03*
X125705200Y-87560800D03*
X126505200Y-87560800D03*
X127305200Y-87560800D03*
X128105200Y-87560800D03*
X128905200Y-87560800D03*
X129705200Y-87560800D03*
X130505200Y-87560800D03*
X131305200Y-87560800D03*
X132105200Y-87560800D03*
%TD*%
D16*
%TO.C,C44*%
X130505200Y-74244200D03*
X130505200Y-73284200D03*
%TD*%
D14*
%TO.C,C45*%
X126425200Y-73764200D03*
X127385200Y-73764200D03*
%TD*%
D42*
%TO.C,J1*%
X176583400Y-114772600D03*
X176583400Y-113522600D03*
D43*
X179283400Y-117022600D03*
X179283400Y-111272600D03*
%TD*%
D13*
%TO.C,H3*%
X178007200Y-123590000D03*
%TD*%
M02*
