%TF.GenerationSoftware,KiCad,Pcbnew,8.0.4*%
%TF.CreationDate,2025-01-12T23:29:22+07:00*%
%TF.ProjectId,lcd-square-4inch,6c63642d-7371-4756-9172-652d34696e63,rev?*%
%TF.SameCoordinates,Original*%
%TF.FileFunction,Legend,Top*%
%TF.FilePolarity,Positive*%
%FSLAX46Y46*%
G04 Gerber Fmt 4.6, Leading zero omitted, Abs format (unit mm)*
G04 Created by KiCad (PCBNEW 8.0.4) date 2025-01-12 23:29:22*
%MOMM*%
%LPD*%
G01*
G04 APERTURE LIST*
%ADD10C,0.300000*%
%ADD11C,0.050000*%
%ADD12C,0.100000*%
%ADD13C,0.000000*%
%ADD14C,0.200000*%
%ADD15C,0.500000*%
%ADD16C,0.150000*%
%ADD17C,0.120000*%
G04 APERTURE END LIST*
D10*
X154307200Y-110515400D02*
X154307200Y-114515400D01*
X135307200Y-110515400D02*
X135307200Y-114515400D01*
X140807200Y-110515400D02*
X140807200Y-114515400D01*
X146307200Y-110515400D02*
X146307200Y-114515400D01*
X142807200Y-110515400D02*
X142807200Y-114515400D01*
X144307200Y-110515400D02*
X144307200Y-114515400D01*
X140307200Y-110515400D02*
X140307200Y-114515400D01*
D11*
X134807200Y-110210600D02*
X154307200Y-110210600D01*
X154307200Y-110210600D02*
G75*
G02*
X154807200Y-110710600I0J-500000D01*
G01*
D10*
X147807200Y-110515400D02*
X147807200Y-114515400D01*
D11*
X154807200Y-110710600D02*
X154807200Y-114210600D01*
D10*
X153807200Y-110515400D02*
X153807200Y-114515400D01*
X139807200Y-110515400D02*
X139807200Y-114515400D01*
X147307200Y-110515400D02*
X147307200Y-114515400D01*
X144807200Y-110515400D02*
X144807200Y-114515400D01*
X148807200Y-110515400D02*
X148807200Y-114515400D01*
X145307200Y-110515400D02*
X145307200Y-114515400D01*
X138807200Y-110515400D02*
X138807200Y-114515400D01*
X134807200Y-110515400D02*
X134807200Y-114515400D01*
D11*
X134307200Y-110710600D02*
G75*
G02*
X134807200Y-110210600I500000J0D01*
G01*
D10*
X139307200Y-110515400D02*
X139307200Y-114515400D01*
X141807200Y-110515400D02*
X141807200Y-114515400D01*
D12*
X125552200Y-102971600D02*
X125044200Y-103479600D01*
X125552200Y-102489000D02*
X125552200Y-102971600D01*
D11*
X134307200Y-110710600D02*
X134307200Y-114210600D01*
D10*
X145807200Y-110515400D02*
X145807200Y-114515400D01*
X151307200Y-110515400D02*
X151307200Y-114515400D01*
X150807200Y-110515400D02*
X150807200Y-114515400D01*
X138307200Y-110515400D02*
X138307200Y-114515400D01*
X136307200Y-110515400D02*
X136307200Y-114515400D01*
X136807200Y-110515400D02*
X136807200Y-114515400D01*
X146807200Y-110515400D02*
X146807200Y-114515400D01*
X137807200Y-110515400D02*
X137807200Y-114515400D01*
X141307200Y-110515400D02*
X141307200Y-114515400D01*
X135807200Y-110515400D02*
X135807200Y-114515400D01*
X148307200Y-110515400D02*
X148307200Y-114515400D01*
X152307200Y-110515400D02*
X152307200Y-114515400D01*
X151807200Y-110515400D02*
X151807200Y-114515400D01*
X149807200Y-110515400D02*
X149807200Y-114515400D01*
X153307200Y-110515400D02*
X153307200Y-114515400D01*
X137307200Y-110515400D02*
X137307200Y-114515400D01*
X150307200Y-110515400D02*
X150307200Y-114515400D01*
X152807200Y-110515400D02*
X152807200Y-114515400D01*
X142307200Y-110515400D02*
X142307200Y-114515400D01*
D13*
G36*
X179857400Y-77622400D02*
G01*
X179044600Y-77622400D01*
X179451000Y-77216000D01*
X179857400Y-77622400D01*
G37*
D10*
X149307200Y-110515400D02*
X149307200Y-114515400D01*
X143307200Y-110515400D02*
X143307200Y-114515400D01*
X143807200Y-110515400D02*
X143807200Y-114515400D01*
D14*
X133057200Y-104890000D02*
X156057200Y-104890000D01*
X109135606Y-69970295D02*
X108754654Y-69970295D01*
X108754654Y-69970295D02*
X108754654Y-69170295D01*
X109402273Y-69551247D02*
X109668939Y-69551247D01*
X109783225Y-69970295D02*
X109402273Y-69970295D01*
X109402273Y-69970295D02*
X109402273Y-69170295D01*
X109402273Y-69170295D02*
X109783225Y-69170295D01*
X110126083Y-69970295D02*
X110126083Y-69170295D01*
X110126083Y-69170295D02*
X110316559Y-69170295D01*
X110316559Y-69170295D02*
X110430845Y-69208390D01*
X110430845Y-69208390D02*
X110507035Y-69284580D01*
X110507035Y-69284580D02*
X110545130Y-69360771D01*
X110545130Y-69360771D02*
X110583226Y-69513152D01*
X110583226Y-69513152D02*
X110583226Y-69627438D01*
X110583226Y-69627438D02*
X110545130Y-69779819D01*
X110545130Y-69779819D02*
X110507035Y-69856009D01*
X110507035Y-69856009D02*
X110430845Y-69932200D01*
X110430845Y-69932200D02*
X110316559Y-69970295D01*
X110316559Y-69970295D02*
X110126083Y-69970295D01*
X111078464Y-69170295D02*
X111154654Y-69170295D01*
X111154654Y-69170295D02*
X111230845Y-69208390D01*
X111230845Y-69208390D02*
X111268940Y-69246485D01*
X111268940Y-69246485D02*
X111307035Y-69322676D01*
X111307035Y-69322676D02*
X111345130Y-69475057D01*
X111345130Y-69475057D02*
X111345130Y-69665533D01*
X111345130Y-69665533D02*
X111307035Y-69817914D01*
X111307035Y-69817914D02*
X111268940Y-69894104D01*
X111268940Y-69894104D02*
X111230845Y-69932200D01*
X111230845Y-69932200D02*
X111154654Y-69970295D01*
X111154654Y-69970295D02*
X111078464Y-69970295D01*
X111078464Y-69970295D02*
X111002273Y-69932200D01*
X111002273Y-69932200D02*
X110964178Y-69894104D01*
X110964178Y-69894104D02*
X110926083Y-69817914D01*
X110926083Y-69817914D02*
X110887987Y-69665533D01*
X110887987Y-69665533D02*
X110887987Y-69475057D01*
X110887987Y-69475057D02*
X110926083Y-69322676D01*
X110926083Y-69322676D02*
X110964178Y-69246485D01*
X110964178Y-69246485D02*
X111002273Y-69208390D01*
X111002273Y-69208390D02*
X111078464Y-69170295D01*
D15*
X138911204Y-116461419D02*
X138244537Y-116461419D01*
X138244537Y-117509038D02*
X138244537Y-115509038D01*
X138244537Y-115509038D02*
X139196918Y-115509038D01*
X139958823Y-117509038D02*
X139958823Y-115509038D01*
X139958823Y-115509038D02*
X140720728Y-115509038D01*
X140720728Y-115509038D02*
X140911204Y-115604276D01*
X140911204Y-115604276D02*
X141006442Y-115699514D01*
X141006442Y-115699514D02*
X141101680Y-115889990D01*
X141101680Y-115889990D02*
X141101680Y-116175704D01*
X141101680Y-116175704D02*
X141006442Y-116366180D01*
X141006442Y-116366180D02*
X140911204Y-116461419D01*
X140911204Y-116461419D02*
X140720728Y-116556657D01*
X140720728Y-116556657D02*
X139958823Y-116556657D01*
X143101680Y-117318561D02*
X143006442Y-117413800D01*
X143006442Y-117413800D02*
X142720728Y-117509038D01*
X142720728Y-117509038D02*
X142530252Y-117509038D01*
X142530252Y-117509038D02*
X142244537Y-117413800D01*
X142244537Y-117413800D02*
X142054061Y-117223323D01*
X142054061Y-117223323D02*
X141958823Y-117032847D01*
X141958823Y-117032847D02*
X141863585Y-116651895D01*
X141863585Y-116651895D02*
X141863585Y-116366180D01*
X141863585Y-116366180D02*
X141958823Y-115985228D01*
X141958823Y-115985228D02*
X142054061Y-115794752D01*
X142054061Y-115794752D02*
X142244537Y-115604276D01*
X142244537Y-115604276D02*
X142530252Y-115509038D01*
X142530252Y-115509038D02*
X142720728Y-115509038D01*
X142720728Y-115509038D02*
X143006442Y-115604276D01*
X143006442Y-115604276D02*
X143101680Y-115699514D01*
X146339776Y-116175704D02*
X146339776Y-117509038D01*
X145863585Y-115413800D02*
X145387395Y-116842371D01*
X145387395Y-116842371D02*
X146625490Y-116842371D01*
X147768347Y-115509038D02*
X147958824Y-115509038D01*
X147958824Y-115509038D02*
X148149300Y-115604276D01*
X148149300Y-115604276D02*
X148244538Y-115699514D01*
X148244538Y-115699514D02*
X148339776Y-115889990D01*
X148339776Y-115889990D02*
X148435014Y-116270942D01*
X148435014Y-116270942D02*
X148435014Y-116747133D01*
X148435014Y-116747133D02*
X148339776Y-117128085D01*
X148339776Y-117128085D02*
X148244538Y-117318561D01*
X148244538Y-117318561D02*
X148149300Y-117413800D01*
X148149300Y-117413800D02*
X147958824Y-117509038D01*
X147958824Y-117509038D02*
X147768347Y-117509038D01*
X147768347Y-117509038D02*
X147577871Y-117413800D01*
X147577871Y-117413800D02*
X147482633Y-117318561D01*
X147482633Y-117318561D02*
X147387395Y-117128085D01*
X147387395Y-117128085D02*
X147292157Y-116747133D01*
X147292157Y-116747133D02*
X147292157Y-116270942D01*
X147292157Y-116270942D02*
X147387395Y-115889990D01*
X147387395Y-115889990D02*
X147482633Y-115699514D01*
X147482633Y-115699514D02*
X147577871Y-115604276D01*
X147577871Y-115604276D02*
X147768347Y-115509038D01*
X149292157Y-117509038D02*
X149292157Y-115509038D01*
X149292157Y-115509038D02*
X150054062Y-115509038D01*
X150054062Y-115509038D02*
X150244538Y-115604276D01*
X150244538Y-115604276D02*
X150339776Y-115699514D01*
X150339776Y-115699514D02*
X150435014Y-115889990D01*
X150435014Y-115889990D02*
X150435014Y-116175704D01*
X150435014Y-116175704D02*
X150339776Y-116366180D01*
X150339776Y-116366180D02*
X150244538Y-116461419D01*
X150244538Y-116461419D02*
X150054062Y-116556657D01*
X150054062Y-116556657D02*
X149292157Y-116556657D01*
D14*
X109105339Y-66744295D02*
X108724387Y-66744295D01*
X108724387Y-66744295D02*
X108724387Y-65944295D01*
X109372006Y-66325247D02*
X109638672Y-66325247D01*
X109752958Y-66744295D02*
X109372006Y-66744295D01*
X109372006Y-66744295D02*
X109372006Y-65944295D01*
X109372006Y-65944295D02*
X109752958Y-65944295D01*
X110095816Y-66744295D02*
X110095816Y-65944295D01*
X110095816Y-65944295D02*
X110286292Y-65944295D01*
X110286292Y-65944295D02*
X110400578Y-65982390D01*
X110400578Y-65982390D02*
X110476768Y-66058580D01*
X110476768Y-66058580D02*
X110514863Y-66134771D01*
X110514863Y-66134771D02*
X110552959Y-66287152D01*
X110552959Y-66287152D02*
X110552959Y-66401438D01*
X110552959Y-66401438D02*
X110514863Y-66553819D01*
X110514863Y-66553819D02*
X110476768Y-66630009D01*
X110476768Y-66630009D02*
X110400578Y-66706200D01*
X110400578Y-66706200D02*
X110286292Y-66744295D01*
X110286292Y-66744295D02*
X110095816Y-66744295D01*
X111314863Y-66744295D02*
X110857720Y-66744295D01*
X111086292Y-66744295D02*
X111086292Y-65944295D01*
X111086292Y-65944295D02*
X111010101Y-66058580D01*
X111010101Y-66058580D02*
X110933911Y-66134771D01*
X110933911Y-66134771D02*
X110857720Y-66172866D01*
X133100511Y-111854961D02*
X133100511Y-112388295D01*
X132910035Y-111550200D02*
X132719558Y-112121628D01*
X132719558Y-112121628D02*
X133214797Y-112121628D01*
X133671940Y-111588295D02*
X133748130Y-111588295D01*
X133748130Y-111588295D02*
X133824321Y-111626390D01*
X133824321Y-111626390D02*
X133862416Y-111664485D01*
X133862416Y-111664485D02*
X133900511Y-111740676D01*
X133900511Y-111740676D02*
X133938606Y-111893057D01*
X133938606Y-111893057D02*
X133938606Y-112083533D01*
X133938606Y-112083533D02*
X133900511Y-112235914D01*
X133900511Y-112235914D02*
X133862416Y-112312104D01*
X133862416Y-112312104D02*
X133824321Y-112350200D01*
X133824321Y-112350200D02*
X133748130Y-112388295D01*
X133748130Y-112388295D02*
X133671940Y-112388295D01*
X133671940Y-112388295D02*
X133595749Y-112350200D01*
X133595749Y-112350200D02*
X133557654Y-112312104D01*
X133557654Y-112312104D02*
X133519559Y-112235914D01*
X133519559Y-112235914D02*
X133481463Y-112083533D01*
X133481463Y-112083533D02*
X133481463Y-111893057D01*
X133481463Y-111893057D02*
X133519559Y-111740676D01*
X133519559Y-111740676D02*
X133557654Y-111664485D01*
X133557654Y-111664485D02*
X133595749Y-111626390D01*
X133595749Y-111626390D02*
X133671940Y-111588295D01*
X127235304Y-65904854D02*
X128035304Y-65904854D01*
X128035304Y-65904854D02*
X128035304Y-66209616D01*
X128035304Y-66209616D02*
X127997209Y-66285806D01*
X127997209Y-66285806D02*
X127959114Y-66323901D01*
X127959114Y-66323901D02*
X127882923Y-66361997D01*
X127882923Y-66361997D02*
X127768638Y-66361997D01*
X127768638Y-66361997D02*
X127692447Y-66323901D01*
X127692447Y-66323901D02*
X127654352Y-66285806D01*
X127654352Y-66285806D02*
X127616257Y-66209616D01*
X127616257Y-66209616D02*
X127616257Y-65904854D01*
X128035304Y-66628663D02*
X127235304Y-66819139D01*
X127235304Y-66819139D02*
X127806733Y-66971520D01*
X127806733Y-66971520D02*
X127235304Y-67123901D01*
X127235304Y-67123901D02*
X128035304Y-67314378D01*
X127235304Y-68076283D02*
X127616257Y-67809616D01*
X127235304Y-67619140D02*
X128035304Y-67619140D01*
X128035304Y-67619140D02*
X128035304Y-67923902D01*
X128035304Y-67923902D02*
X127997209Y-68000092D01*
X127997209Y-68000092D02*
X127959114Y-68038187D01*
X127959114Y-68038187D02*
X127882923Y-68076283D01*
X127882923Y-68076283D02*
X127768638Y-68076283D01*
X127768638Y-68076283D02*
X127692447Y-68038187D01*
X127692447Y-68038187D02*
X127654352Y-68000092D01*
X127654352Y-68000092D02*
X127616257Y-67923902D01*
X127616257Y-67923902D02*
X127616257Y-67619140D01*
X155731901Y-112407095D02*
X155274758Y-112407095D01*
X155503330Y-112407095D02*
X155503330Y-111607095D01*
X155503330Y-111607095D02*
X155427139Y-111721380D01*
X155427139Y-111721380D02*
X155350949Y-111797571D01*
X155350949Y-111797571D02*
X155274758Y-111835666D01*
D16*
X171672324Y-101746695D02*
X171672324Y-100946695D01*
X171672324Y-100946695D02*
X171862800Y-100946695D01*
X171862800Y-100946695D02*
X171977086Y-100984790D01*
X171977086Y-100984790D02*
X172053276Y-101060980D01*
X172053276Y-101060980D02*
X172091371Y-101137171D01*
X172091371Y-101137171D02*
X172129467Y-101289552D01*
X172129467Y-101289552D02*
X172129467Y-101403838D01*
X172129467Y-101403838D02*
X172091371Y-101556219D01*
X172091371Y-101556219D02*
X172053276Y-101632409D01*
X172053276Y-101632409D02*
X171977086Y-101708600D01*
X171977086Y-101708600D02*
X171862800Y-101746695D01*
X171862800Y-101746695D02*
X171672324Y-101746695D01*
X172815181Y-100946695D02*
X172662800Y-100946695D01*
X172662800Y-100946695D02*
X172586609Y-100984790D01*
X172586609Y-100984790D02*
X172548514Y-101022885D01*
X172548514Y-101022885D02*
X172472324Y-101137171D01*
X172472324Y-101137171D02*
X172434228Y-101289552D01*
X172434228Y-101289552D02*
X172434228Y-101594314D01*
X172434228Y-101594314D02*
X172472324Y-101670504D01*
X172472324Y-101670504D02*
X172510419Y-101708600D01*
X172510419Y-101708600D02*
X172586609Y-101746695D01*
X172586609Y-101746695D02*
X172738990Y-101746695D01*
X172738990Y-101746695D02*
X172815181Y-101708600D01*
X172815181Y-101708600D02*
X172853276Y-101670504D01*
X172853276Y-101670504D02*
X172891371Y-101594314D01*
X172891371Y-101594314D02*
X172891371Y-101403838D01*
X172891371Y-101403838D02*
X172853276Y-101327647D01*
X172853276Y-101327647D02*
X172815181Y-101289552D01*
X172815181Y-101289552D02*
X172738990Y-101251457D01*
X172738990Y-101251457D02*
X172586609Y-101251457D01*
X172586609Y-101251457D02*
X172510419Y-101289552D01*
X172510419Y-101289552D02*
X172472324Y-101327647D01*
X172472324Y-101327647D02*
X172434228Y-101403838D01*
X160735180Y-106313266D02*
X160782800Y-106360885D01*
X160782800Y-106360885D02*
X160830419Y-106503742D01*
X160830419Y-106503742D02*
X160830419Y-106598980D01*
X160830419Y-106598980D02*
X160782800Y-106741837D01*
X160782800Y-106741837D02*
X160687561Y-106837075D01*
X160687561Y-106837075D02*
X160592323Y-106884694D01*
X160592323Y-106884694D02*
X160401847Y-106932313D01*
X160401847Y-106932313D02*
X160258990Y-106932313D01*
X160258990Y-106932313D02*
X160068514Y-106884694D01*
X160068514Y-106884694D02*
X159973276Y-106837075D01*
X159973276Y-106837075D02*
X159878038Y-106741837D01*
X159878038Y-106741837D02*
X159830419Y-106598980D01*
X159830419Y-106598980D02*
X159830419Y-106503742D01*
X159830419Y-106503742D02*
X159878038Y-106360885D01*
X159878038Y-106360885D02*
X159925657Y-106313266D01*
X160258990Y-105741837D02*
X160211371Y-105837075D01*
X160211371Y-105837075D02*
X160163752Y-105884694D01*
X160163752Y-105884694D02*
X160068514Y-105932313D01*
X160068514Y-105932313D02*
X160020895Y-105932313D01*
X160020895Y-105932313D02*
X159925657Y-105884694D01*
X159925657Y-105884694D02*
X159878038Y-105837075D01*
X159878038Y-105837075D02*
X159830419Y-105741837D01*
X159830419Y-105741837D02*
X159830419Y-105551361D01*
X159830419Y-105551361D02*
X159878038Y-105456123D01*
X159878038Y-105456123D02*
X159925657Y-105408504D01*
X159925657Y-105408504D02*
X160020895Y-105360885D01*
X160020895Y-105360885D02*
X160068514Y-105360885D01*
X160068514Y-105360885D02*
X160163752Y-105408504D01*
X160163752Y-105408504D02*
X160211371Y-105456123D01*
X160211371Y-105456123D02*
X160258990Y-105551361D01*
X160258990Y-105551361D02*
X160258990Y-105741837D01*
X160258990Y-105741837D02*
X160306609Y-105837075D01*
X160306609Y-105837075D02*
X160354228Y-105884694D01*
X160354228Y-105884694D02*
X160449466Y-105932313D01*
X160449466Y-105932313D02*
X160639942Y-105932313D01*
X160639942Y-105932313D02*
X160735180Y-105884694D01*
X160735180Y-105884694D02*
X160782800Y-105837075D01*
X160782800Y-105837075D02*
X160830419Y-105741837D01*
X160830419Y-105741837D02*
X160830419Y-105551361D01*
X160830419Y-105551361D02*
X160782800Y-105456123D01*
X160782800Y-105456123D02*
X160735180Y-105408504D01*
X160735180Y-105408504D02*
X160639942Y-105360885D01*
X160639942Y-105360885D02*
X160449466Y-105360885D01*
X160449466Y-105360885D02*
X160354228Y-105408504D01*
X160354228Y-105408504D02*
X160306609Y-105456123D01*
X160306609Y-105456123D02*
X160258990Y-105551361D01*
X150158514Y-100057304D02*
X150120418Y-100095400D01*
X150120418Y-100095400D02*
X150006133Y-100133495D01*
X150006133Y-100133495D02*
X149929942Y-100133495D01*
X149929942Y-100133495D02*
X149815656Y-100095400D01*
X149815656Y-100095400D02*
X149739466Y-100019209D01*
X149739466Y-100019209D02*
X149701371Y-99943019D01*
X149701371Y-99943019D02*
X149663275Y-99790638D01*
X149663275Y-99790638D02*
X149663275Y-99676352D01*
X149663275Y-99676352D02*
X149701371Y-99523971D01*
X149701371Y-99523971D02*
X149739466Y-99447780D01*
X149739466Y-99447780D02*
X149815656Y-99371590D01*
X149815656Y-99371590D02*
X149929942Y-99333495D01*
X149929942Y-99333495D02*
X150006133Y-99333495D01*
X150006133Y-99333495D02*
X150120418Y-99371590D01*
X150120418Y-99371590D02*
X150158514Y-99409685D01*
X150920418Y-100133495D02*
X150463275Y-100133495D01*
X150691847Y-100133495D02*
X150691847Y-99333495D01*
X150691847Y-99333495D02*
X150615656Y-99447780D01*
X150615656Y-99447780D02*
X150539466Y-99523971D01*
X150539466Y-99523971D02*
X150463275Y-99562066D01*
X151644228Y-99333495D02*
X151263276Y-99333495D01*
X151263276Y-99333495D02*
X151225180Y-99714447D01*
X151225180Y-99714447D02*
X151263276Y-99676352D01*
X151263276Y-99676352D02*
X151339466Y-99638257D01*
X151339466Y-99638257D02*
X151529942Y-99638257D01*
X151529942Y-99638257D02*
X151606133Y-99676352D01*
X151606133Y-99676352D02*
X151644228Y-99714447D01*
X151644228Y-99714447D02*
X151682323Y-99790638D01*
X151682323Y-99790638D02*
X151682323Y-99981114D01*
X151682323Y-99981114D02*
X151644228Y-100057304D01*
X151644228Y-100057304D02*
X151606133Y-100095400D01*
X151606133Y-100095400D02*
X151529942Y-100133495D01*
X151529942Y-100133495D02*
X151339466Y-100133495D01*
X151339466Y-100133495D02*
X151263276Y-100095400D01*
X151263276Y-100095400D02*
X151225180Y-100057304D01*
X159084180Y-106313266D02*
X159131800Y-106360885D01*
X159131800Y-106360885D02*
X159179419Y-106503742D01*
X159179419Y-106503742D02*
X159179419Y-106598980D01*
X159179419Y-106598980D02*
X159131800Y-106741837D01*
X159131800Y-106741837D02*
X159036561Y-106837075D01*
X159036561Y-106837075D02*
X158941323Y-106884694D01*
X158941323Y-106884694D02*
X158750847Y-106932313D01*
X158750847Y-106932313D02*
X158607990Y-106932313D01*
X158607990Y-106932313D02*
X158417514Y-106884694D01*
X158417514Y-106884694D02*
X158322276Y-106837075D01*
X158322276Y-106837075D02*
X158227038Y-106741837D01*
X158227038Y-106741837D02*
X158179419Y-106598980D01*
X158179419Y-106598980D02*
X158179419Y-106503742D01*
X158179419Y-106503742D02*
X158227038Y-106360885D01*
X158227038Y-106360885D02*
X158274657Y-106313266D01*
X158179419Y-105979932D02*
X158179419Y-105313266D01*
X158179419Y-105313266D02*
X159179419Y-105741837D01*
X148076914Y-70466304D02*
X148038818Y-70504400D01*
X148038818Y-70504400D02*
X147924533Y-70542495D01*
X147924533Y-70542495D02*
X147848342Y-70542495D01*
X147848342Y-70542495D02*
X147734056Y-70504400D01*
X147734056Y-70504400D02*
X147657866Y-70428209D01*
X147657866Y-70428209D02*
X147619771Y-70352019D01*
X147619771Y-70352019D02*
X147581675Y-70199638D01*
X147581675Y-70199638D02*
X147581675Y-70085352D01*
X147581675Y-70085352D02*
X147619771Y-69932971D01*
X147619771Y-69932971D02*
X147657866Y-69856780D01*
X147657866Y-69856780D02*
X147734056Y-69780590D01*
X147734056Y-69780590D02*
X147848342Y-69742495D01*
X147848342Y-69742495D02*
X147924533Y-69742495D01*
X147924533Y-69742495D02*
X148038818Y-69780590D01*
X148038818Y-69780590D02*
X148076914Y-69818685D01*
X148343580Y-69742495D02*
X148838818Y-69742495D01*
X148838818Y-69742495D02*
X148572152Y-70047257D01*
X148572152Y-70047257D02*
X148686437Y-70047257D01*
X148686437Y-70047257D02*
X148762628Y-70085352D01*
X148762628Y-70085352D02*
X148800723Y-70123447D01*
X148800723Y-70123447D02*
X148838818Y-70199638D01*
X148838818Y-70199638D02*
X148838818Y-70390114D01*
X148838818Y-70390114D02*
X148800723Y-70466304D01*
X148800723Y-70466304D02*
X148762628Y-70504400D01*
X148762628Y-70504400D02*
X148686437Y-70542495D01*
X148686437Y-70542495D02*
X148457866Y-70542495D01*
X148457866Y-70542495D02*
X148381675Y-70504400D01*
X148381675Y-70504400D02*
X148343580Y-70466304D01*
X149105485Y-69742495D02*
X149600723Y-69742495D01*
X149600723Y-69742495D02*
X149334057Y-70047257D01*
X149334057Y-70047257D02*
X149448342Y-70047257D01*
X149448342Y-70047257D02*
X149524533Y-70085352D01*
X149524533Y-70085352D02*
X149562628Y-70123447D01*
X149562628Y-70123447D02*
X149600723Y-70199638D01*
X149600723Y-70199638D02*
X149600723Y-70390114D01*
X149600723Y-70390114D02*
X149562628Y-70466304D01*
X149562628Y-70466304D02*
X149524533Y-70504400D01*
X149524533Y-70504400D02*
X149448342Y-70542495D01*
X149448342Y-70542495D02*
X149219771Y-70542495D01*
X149219771Y-70542495D02*
X149143580Y-70504400D01*
X149143580Y-70504400D02*
X149105485Y-70466304D01*
X116441819Y-70835004D02*
X117251342Y-70835004D01*
X117251342Y-70835004D02*
X117346580Y-70787385D01*
X117346580Y-70787385D02*
X117394200Y-70739766D01*
X117394200Y-70739766D02*
X117441819Y-70644528D01*
X117441819Y-70644528D02*
X117441819Y-70454052D01*
X117441819Y-70454052D02*
X117394200Y-70358814D01*
X117394200Y-70358814D02*
X117346580Y-70311195D01*
X117346580Y-70311195D02*
X117251342Y-70263576D01*
X117251342Y-70263576D02*
X116441819Y-70263576D01*
X116775152Y-69358814D02*
X117441819Y-69358814D01*
X116394200Y-69596909D02*
X117108485Y-69835004D01*
X117108485Y-69835004D02*
X117108485Y-69215957D01*
X170427714Y-119141104D02*
X170389618Y-119179200D01*
X170389618Y-119179200D02*
X170275333Y-119217295D01*
X170275333Y-119217295D02*
X170199142Y-119217295D01*
X170199142Y-119217295D02*
X170084856Y-119179200D01*
X170084856Y-119179200D02*
X170008666Y-119103009D01*
X170008666Y-119103009D02*
X169970571Y-119026819D01*
X169970571Y-119026819D02*
X169932475Y-118874438D01*
X169932475Y-118874438D02*
X169932475Y-118760152D01*
X169932475Y-118760152D02*
X169970571Y-118607771D01*
X169970571Y-118607771D02*
X170008666Y-118531580D01*
X170008666Y-118531580D02*
X170084856Y-118455390D01*
X170084856Y-118455390D02*
X170199142Y-118417295D01*
X170199142Y-118417295D02*
X170275333Y-118417295D01*
X170275333Y-118417295D02*
X170389618Y-118455390D01*
X170389618Y-118455390D02*
X170427714Y-118493485D01*
X171113428Y-118683961D02*
X171113428Y-119217295D01*
X170922952Y-118379200D02*
X170732475Y-118950628D01*
X170732475Y-118950628D02*
X171227714Y-118950628D01*
X171684857Y-118417295D02*
X171761047Y-118417295D01*
X171761047Y-118417295D02*
X171837238Y-118455390D01*
X171837238Y-118455390D02*
X171875333Y-118493485D01*
X171875333Y-118493485D02*
X171913428Y-118569676D01*
X171913428Y-118569676D02*
X171951523Y-118722057D01*
X171951523Y-118722057D02*
X171951523Y-118912533D01*
X171951523Y-118912533D02*
X171913428Y-119064914D01*
X171913428Y-119064914D02*
X171875333Y-119141104D01*
X171875333Y-119141104D02*
X171837238Y-119179200D01*
X171837238Y-119179200D02*
X171761047Y-119217295D01*
X171761047Y-119217295D02*
X171684857Y-119217295D01*
X171684857Y-119217295D02*
X171608666Y-119179200D01*
X171608666Y-119179200D02*
X171570571Y-119141104D01*
X171570571Y-119141104D02*
X171532476Y-119064914D01*
X171532476Y-119064914D02*
X171494380Y-118912533D01*
X171494380Y-118912533D02*
X171494380Y-118722057D01*
X171494380Y-118722057D02*
X171532476Y-118569676D01*
X171532476Y-118569676D02*
X171570571Y-118493485D01*
X171570571Y-118493485D02*
X171608666Y-118455390D01*
X171608666Y-118455390D02*
X171684857Y-118417295D01*
X161220504Y-67689485D02*
X161258600Y-67727581D01*
X161258600Y-67727581D02*
X161296695Y-67841866D01*
X161296695Y-67841866D02*
X161296695Y-67918057D01*
X161296695Y-67918057D02*
X161258600Y-68032343D01*
X161258600Y-68032343D02*
X161182409Y-68108533D01*
X161182409Y-68108533D02*
X161106219Y-68146628D01*
X161106219Y-68146628D02*
X160953838Y-68184724D01*
X160953838Y-68184724D02*
X160839552Y-68184724D01*
X160839552Y-68184724D02*
X160687171Y-68146628D01*
X160687171Y-68146628D02*
X160610980Y-68108533D01*
X160610980Y-68108533D02*
X160534790Y-68032343D01*
X160534790Y-68032343D02*
X160496695Y-67918057D01*
X160496695Y-67918057D02*
X160496695Y-67841866D01*
X160496695Y-67841866D02*
X160534790Y-67727581D01*
X160534790Y-67727581D02*
X160572885Y-67689485D01*
X160496695Y-67422819D02*
X160496695Y-66927581D01*
X160496695Y-66927581D02*
X160801457Y-67194247D01*
X160801457Y-67194247D02*
X160801457Y-67079962D01*
X160801457Y-67079962D02*
X160839552Y-67003771D01*
X160839552Y-67003771D02*
X160877647Y-66965676D01*
X160877647Y-66965676D02*
X160953838Y-66927581D01*
X160953838Y-66927581D02*
X161144314Y-66927581D01*
X161144314Y-66927581D02*
X161220504Y-66965676D01*
X161220504Y-66965676D02*
X161258600Y-67003771D01*
X161258600Y-67003771D02*
X161296695Y-67079962D01*
X161296695Y-67079962D02*
X161296695Y-67308533D01*
X161296695Y-67308533D02*
X161258600Y-67384724D01*
X161258600Y-67384724D02*
X161220504Y-67422819D01*
X160496695Y-66203771D02*
X160496695Y-66584723D01*
X160496695Y-66584723D02*
X160877647Y-66622819D01*
X160877647Y-66622819D02*
X160839552Y-66584723D01*
X160839552Y-66584723D02*
X160801457Y-66508533D01*
X160801457Y-66508533D02*
X160801457Y-66318057D01*
X160801457Y-66318057D02*
X160839552Y-66241866D01*
X160839552Y-66241866D02*
X160877647Y-66203771D01*
X160877647Y-66203771D02*
X160953838Y-66165676D01*
X160953838Y-66165676D02*
X161144314Y-66165676D01*
X161144314Y-66165676D02*
X161220504Y-66203771D01*
X161220504Y-66203771D02*
X161258600Y-66241866D01*
X161258600Y-66241866D02*
X161296695Y-66318057D01*
X161296695Y-66318057D02*
X161296695Y-66508533D01*
X161296695Y-66508533D02*
X161258600Y-66584723D01*
X161258600Y-66584723D02*
X161220504Y-66622819D01*
X116964619Y-91886066D02*
X116488428Y-92219399D01*
X116964619Y-92457494D02*
X115964619Y-92457494D01*
X115964619Y-92457494D02*
X115964619Y-92076542D01*
X115964619Y-92076542D02*
X116012238Y-91981304D01*
X116012238Y-91981304D02*
X116059857Y-91933685D01*
X116059857Y-91933685D02*
X116155095Y-91886066D01*
X116155095Y-91886066D02*
X116297952Y-91886066D01*
X116297952Y-91886066D02*
X116393190Y-91933685D01*
X116393190Y-91933685D02*
X116440809Y-91981304D01*
X116440809Y-91981304D02*
X116488428Y-92076542D01*
X116488428Y-92076542D02*
X116488428Y-92457494D01*
X115964619Y-91552732D02*
X115964619Y-90933685D01*
X115964619Y-90933685D02*
X116345571Y-91267018D01*
X116345571Y-91267018D02*
X116345571Y-91124161D01*
X116345571Y-91124161D02*
X116393190Y-91028923D01*
X116393190Y-91028923D02*
X116440809Y-90981304D01*
X116440809Y-90981304D02*
X116536047Y-90933685D01*
X116536047Y-90933685D02*
X116774142Y-90933685D01*
X116774142Y-90933685D02*
X116869380Y-90981304D01*
X116869380Y-90981304D02*
X116917000Y-91028923D01*
X116917000Y-91028923D02*
X116964619Y-91124161D01*
X116964619Y-91124161D02*
X116964619Y-91409875D01*
X116964619Y-91409875D02*
X116917000Y-91505113D01*
X116917000Y-91505113D02*
X116869380Y-91552732D01*
X166640514Y-75085104D02*
X166602418Y-75123200D01*
X166602418Y-75123200D02*
X166488133Y-75161295D01*
X166488133Y-75161295D02*
X166411942Y-75161295D01*
X166411942Y-75161295D02*
X166297656Y-75123200D01*
X166297656Y-75123200D02*
X166221466Y-75047009D01*
X166221466Y-75047009D02*
X166183371Y-74970819D01*
X166183371Y-74970819D02*
X166145275Y-74818438D01*
X166145275Y-74818438D02*
X166145275Y-74704152D01*
X166145275Y-74704152D02*
X166183371Y-74551771D01*
X166183371Y-74551771D02*
X166221466Y-74475580D01*
X166221466Y-74475580D02*
X166297656Y-74399390D01*
X166297656Y-74399390D02*
X166411942Y-74361295D01*
X166411942Y-74361295D02*
X166488133Y-74361295D01*
X166488133Y-74361295D02*
X166602418Y-74399390D01*
X166602418Y-74399390D02*
X166640514Y-74437485D01*
X166945275Y-74437485D02*
X166983371Y-74399390D01*
X166983371Y-74399390D02*
X167059561Y-74361295D01*
X167059561Y-74361295D02*
X167250037Y-74361295D01*
X167250037Y-74361295D02*
X167326228Y-74399390D01*
X167326228Y-74399390D02*
X167364323Y-74437485D01*
X167364323Y-74437485D02*
X167402418Y-74513676D01*
X167402418Y-74513676D02*
X167402418Y-74589866D01*
X167402418Y-74589866D02*
X167364323Y-74704152D01*
X167364323Y-74704152D02*
X166907180Y-75161295D01*
X166907180Y-75161295D02*
X167402418Y-75161295D01*
X168164323Y-75161295D02*
X167707180Y-75161295D01*
X167935752Y-75161295D02*
X167935752Y-74361295D01*
X167935752Y-74361295D02*
X167859561Y-74475580D01*
X167859561Y-74475580D02*
X167783371Y-74551771D01*
X167783371Y-74551771D02*
X167707180Y-74589866D01*
X175009200Y-63195067D02*
X175047295Y-63080781D01*
X175047295Y-63080781D02*
X175047295Y-62890305D01*
X175047295Y-62890305D02*
X175009200Y-62814114D01*
X175009200Y-62814114D02*
X174971104Y-62776019D01*
X174971104Y-62776019D02*
X174894914Y-62737924D01*
X174894914Y-62737924D02*
X174818723Y-62737924D01*
X174818723Y-62737924D02*
X174742533Y-62776019D01*
X174742533Y-62776019D02*
X174704438Y-62814114D01*
X174704438Y-62814114D02*
X174666342Y-62890305D01*
X174666342Y-62890305D02*
X174628247Y-63042686D01*
X174628247Y-63042686D02*
X174590152Y-63118876D01*
X174590152Y-63118876D02*
X174552057Y-63156971D01*
X174552057Y-63156971D02*
X174475866Y-63195067D01*
X174475866Y-63195067D02*
X174399676Y-63195067D01*
X174399676Y-63195067D02*
X174323485Y-63156971D01*
X174323485Y-63156971D02*
X174285390Y-63118876D01*
X174285390Y-63118876D02*
X174247295Y-63042686D01*
X174247295Y-63042686D02*
X174247295Y-62852209D01*
X174247295Y-62852209D02*
X174285390Y-62737924D01*
X174247295Y-62471257D02*
X175047295Y-62280781D01*
X175047295Y-62280781D02*
X174475866Y-62128400D01*
X174475866Y-62128400D02*
X175047295Y-61976019D01*
X175047295Y-61976019D02*
X174247295Y-61785543D01*
X174513961Y-61137923D02*
X175047295Y-61137923D01*
X174209200Y-61328399D02*
X174780628Y-61518876D01*
X174780628Y-61518876D02*
X174780628Y-61023637D01*
X172215980Y-98312266D02*
X172263600Y-98359885D01*
X172263600Y-98359885D02*
X172311219Y-98502742D01*
X172311219Y-98502742D02*
X172311219Y-98597980D01*
X172311219Y-98597980D02*
X172263600Y-98740837D01*
X172263600Y-98740837D02*
X172168361Y-98836075D01*
X172168361Y-98836075D02*
X172073123Y-98883694D01*
X172073123Y-98883694D02*
X171882647Y-98931313D01*
X171882647Y-98931313D02*
X171739790Y-98931313D01*
X171739790Y-98931313D02*
X171549314Y-98883694D01*
X171549314Y-98883694D02*
X171454076Y-98836075D01*
X171454076Y-98836075D02*
X171358838Y-98740837D01*
X171358838Y-98740837D02*
X171311219Y-98597980D01*
X171311219Y-98597980D02*
X171311219Y-98502742D01*
X171311219Y-98502742D02*
X171358838Y-98359885D01*
X171358838Y-98359885D02*
X171406457Y-98312266D01*
X171311219Y-97455123D02*
X171311219Y-97645599D01*
X171311219Y-97645599D02*
X171358838Y-97740837D01*
X171358838Y-97740837D02*
X171406457Y-97788456D01*
X171406457Y-97788456D02*
X171549314Y-97883694D01*
X171549314Y-97883694D02*
X171739790Y-97931313D01*
X171739790Y-97931313D02*
X172120742Y-97931313D01*
X172120742Y-97931313D02*
X172215980Y-97883694D01*
X172215980Y-97883694D02*
X172263600Y-97836075D01*
X172263600Y-97836075D02*
X172311219Y-97740837D01*
X172311219Y-97740837D02*
X172311219Y-97550361D01*
X172311219Y-97550361D02*
X172263600Y-97455123D01*
X172263600Y-97455123D02*
X172215980Y-97407504D01*
X172215980Y-97407504D02*
X172120742Y-97359885D01*
X172120742Y-97359885D02*
X171882647Y-97359885D01*
X171882647Y-97359885D02*
X171787409Y-97407504D01*
X171787409Y-97407504D02*
X171739790Y-97455123D01*
X171739790Y-97455123D02*
X171692171Y-97550361D01*
X171692171Y-97550361D02*
X171692171Y-97740837D01*
X171692171Y-97740837D02*
X171739790Y-97836075D01*
X171739790Y-97836075D02*
X171787409Y-97883694D01*
X171787409Y-97883694D02*
X171882647Y-97931313D01*
X127867580Y-97651866D02*
X127915200Y-97699485D01*
X127915200Y-97699485D02*
X127962819Y-97842342D01*
X127962819Y-97842342D02*
X127962819Y-97937580D01*
X127962819Y-97937580D02*
X127915200Y-98080437D01*
X127915200Y-98080437D02*
X127819961Y-98175675D01*
X127819961Y-98175675D02*
X127724723Y-98223294D01*
X127724723Y-98223294D02*
X127534247Y-98270913D01*
X127534247Y-98270913D02*
X127391390Y-98270913D01*
X127391390Y-98270913D02*
X127200914Y-98223294D01*
X127200914Y-98223294D02*
X127105676Y-98175675D01*
X127105676Y-98175675D02*
X127010438Y-98080437D01*
X127010438Y-98080437D02*
X126962819Y-97937580D01*
X126962819Y-97937580D02*
X126962819Y-97842342D01*
X126962819Y-97842342D02*
X127010438Y-97699485D01*
X127010438Y-97699485D02*
X127058057Y-97651866D01*
X127058057Y-97270913D02*
X127010438Y-97223294D01*
X127010438Y-97223294D02*
X126962819Y-97128056D01*
X126962819Y-97128056D02*
X126962819Y-96889961D01*
X126962819Y-96889961D02*
X127010438Y-96794723D01*
X127010438Y-96794723D02*
X127058057Y-96747104D01*
X127058057Y-96747104D02*
X127153295Y-96699485D01*
X127153295Y-96699485D02*
X127248533Y-96699485D01*
X127248533Y-96699485D02*
X127391390Y-96747104D01*
X127391390Y-96747104D02*
X127962819Y-97318532D01*
X127962819Y-97318532D02*
X127962819Y-96699485D01*
X126955904Y-65831785D02*
X126994000Y-65869881D01*
X126994000Y-65869881D02*
X127032095Y-65984166D01*
X127032095Y-65984166D02*
X127032095Y-66060357D01*
X127032095Y-66060357D02*
X126994000Y-66174643D01*
X126994000Y-66174643D02*
X126917809Y-66250833D01*
X126917809Y-66250833D02*
X126841619Y-66288928D01*
X126841619Y-66288928D02*
X126689238Y-66327024D01*
X126689238Y-66327024D02*
X126574952Y-66327024D01*
X126574952Y-66327024D02*
X126422571Y-66288928D01*
X126422571Y-66288928D02*
X126346380Y-66250833D01*
X126346380Y-66250833D02*
X126270190Y-66174643D01*
X126270190Y-66174643D02*
X126232095Y-66060357D01*
X126232095Y-66060357D02*
X126232095Y-65984166D01*
X126232095Y-65984166D02*
X126270190Y-65869881D01*
X126270190Y-65869881D02*
X126308285Y-65831785D01*
X127032095Y-65069881D02*
X127032095Y-65527024D01*
X127032095Y-65298452D02*
X126232095Y-65298452D01*
X126232095Y-65298452D02*
X126346380Y-65374643D01*
X126346380Y-65374643D02*
X126422571Y-65450833D01*
X126422571Y-65450833D02*
X126460666Y-65527024D01*
X127032095Y-64307976D02*
X127032095Y-64765119D01*
X127032095Y-64536547D02*
X126232095Y-64536547D01*
X126232095Y-64536547D02*
X126346380Y-64612738D01*
X126346380Y-64612738D02*
X126422571Y-64688928D01*
X126422571Y-64688928D02*
X126460666Y-64765119D01*
X122891895Y-70561985D02*
X122510942Y-70828652D01*
X122891895Y-71019128D02*
X122091895Y-71019128D01*
X122091895Y-71019128D02*
X122091895Y-70714366D01*
X122091895Y-70714366D02*
X122129990Y-70638176D01*
X122129990Y-70638176D02*
X122168085Y-70600081D01*
X122168085Y-70600081D02*
X122244276Y-70561985D01*
X122244276Y-70561985D02*
X122358561Y-70561985D01*
X122358561Y-70561985D02*
X122434752Y-70600081D01*
X122434752Y-70600081D02*
X122472847Y-70638176D01*
X122472847Y-70638176D02*
X122510942Y-70714366D01*
X122510942Y-70714366D02*
X122510942Y-71019128D01*
X122891895Y-69800081D02*
X122891895Y-70257224D01*
X122891895Y-70028652D02*
X122091895Y-70028652D01*
X122091895Y-70028652D02*
X122206180Y-70104843D01*
X122206180Y-70104843D02*
X122282371Y-70181033D01*
X122282371Y-70181033D02*
X122320466Y-70257224D01*
X122434752Y-69342938D02*
X122396657Y-69419128D01*
X122396657Y-69419128D02*
X122358561Y-69457223D01*
X122358561Y-69457223D02*
X122282371Y-69495319D01*
X122282371Y-69495319D02*
X122244276Y-69495319D01*
X122244276Y-69495319D02*
X122168085Y-69457223D01*
X122168085Y-69457223D02*
X122129990Y-69419128D01*
X122129990Y-69419128D02*
X122091895Y-69342938D01*
X122091895Y-69342938D02*
X122091895Y-69190557D01*
X122091895Y-69190557D02*
X122129990Y-69114366D01*
X122129990Y-69114366D02*
X122168085Y-69076271D01*
X122168085Y-69076271D02*
X122244276Y-69038176D01*
X122244276Y-69038176D02*
X122282371Y-69038176D01*
X122282371Y-69038176D02*
X122358561Y-69076271D01*
X122358561Y-69076271D02*
X122396657Y-69114366D01*
X122396657Y-69114366D02*
X122434752Y-69190557D01*
X122434752Y-69190557D02*
X122434752Y-69342938D01*
X122434752Y-69342938D02*
X122472847Y-69419128D01*
X122472847Y-69419128D02*
X122510942Y-69457223D01*
X122510942Y-69457223D02*
X122587133Y-69495319D01*
X122587133Y-69495319D02*
X122739514Y-69495319D01*
X122739514Y-69495319D02*
X122815704Y-69457223D01*
X122815704Y-69457223D02*
X122853800Y-69419128D01*
X122853800Y-69419128D02*
X122891895Y-69342938D01*
X122891895Y-69342938D02*
X122891895Y-69190557D01*
X122891895Y-69190557D02*
X122853800Y-69114366D01*
X122853800Y-69114366D02*
X122815704Y-69076271D01*
X122815704Y-69076271D02*
X122739514Y-69038176D01*
X122739514Y-69038176D02*
X122587133Y-69038176D01*
X122587133Y-69038176D02*
X122510942Y-69076271D01*
X122510942Y-69076271D02*
X122472847Y-69114366D01*
X122472847Y-69114366D02*
X122434752Y-69190557D01*
X165380895Y-110619319D02*
X165380895Y-111428842D01*
X165380895Y-111428842D02*
X165428514Y-111524080D01*
X165428514Y-111524080D02*
X165476133Y-111571700D01*
X165476133Y-111571700D02*
X165571371Y-111619319D01*
X165571371Y-111619319D02*
X165761847Y-111619319D01*
X165761847Y-111619319D02*
X165857085Y-111571700D01*
X165857085Y-111571700D02*
X165904704Y-111524080D01*
X165904704Y-111524080D02*
X165952323Y-111428842D01*
X165952323Y-111428842D02*
X165952323Y-110619319D01*
X166380895Y-110714557D02*
X166428514Y-110666938D01*
X166428514Y-110666938D02*
X166523752Y-110619319D01*
X166523752Y-110619319D02*
X166761847Y-110619319D01*
X166761847Y-110619319D02*
X166857085Y-110666938D01*
X166857085Y-110666938D02*
X166904704Y-110714557D01*
X166904704Y-110714557D02*
X166952323Y-110809795D01*
X166952323Y-110809795D02*
X166952323Y-110905033D01*
X166952323Y-110905033D02*
X166904704Y-111047890D01*
X166904704Y-111047890D02*
X166333276Y-111619319D01*
X166333276Y-111619319D02*
X166952323Y-111619319D01*
X168120904Y-83223285D02*
X168159000Y-83261381D01*
X168159000Y-83261381D02*
X168197095Y-83375666D01*
X168197095Y-83375666D02*
X168197095Y-83451857D01*
X168197095Y-83451857D02*
X168159000Y-83566143D01*
X168159000Y-83566143D02*
X168082809Y-83642333D01*
X168082809Y-83642333D02*
X168006619Y-83680428D01*
X168006619Y-83680428D02*
X167854238Y-83718524D01*
X167854238Y-83718524D02*
X167739952Y-83718524D01*
X167739952Y-83718524D02*
X167587571Y-83680428D01*
X167587571Y-83680428D02*
X167511380Y-83642333D01*
X167511380Y-83642333D02*
X167435190Y-83566143D01*
X167435190Y-83566143D02*
X167397095Y-83451857D01*
X167397095Y-83451857D02*
X167397095Y-83375666D01*
X167397095Y-83375666D02*
X167435190Y-83261381D01*
X167435190Y-83261381D02*
X167473285Y-83223285D01*
X167473285Y-82918524D02*
X167435190Y-82880428D01*
X167435190Y-82880428D02*
X167397095Y-82804238D01*
X167397095Y-82804238D02*
X167397095Y-82613762D01*
X167397095Y-82613762D02*
X167435190Y-82537571D01*
X167435190Y-82537571D02*
X167473285Y-82499476D01*
X167473285Y-82499476D02*
X167549476Y-82461381D01*
X167549476Y-82461381D02*
X167625666Y-82461381D01*
X167625666Y-82461381D02*
X167739952Y-82499476D01*
X167739952Y-82499476D02*
X168197095Y-82956619D01*
X168197095Y-82956619D02*
X168197095Y-82461381D01*
X167473285Y-82156619D02*
X167435190Y-82118523D01*
X167435190Y-82118523D02*
X167397095Y-82042333D01*
X167397095Y-82042333D02*
X167397095Y-81851857D01*
X167397095Y-81851857D02*
X167435190Y-81775666D01*
X167435190Y-81775666D02*
X167473285Y-81737571D01*
X167473285Y-81737571D02*
X167549476Y-81699476D01*
X167549476Y-81699476D02*
X167625666Y-81699476D01*
X167625666Y-81699476D02*
X167739952Y-81737571D01*
X167739952Y-81737571D02*
X168197095Y-82194714D01*
X168197095Y-82194714D02*
X168197095Y-81699476D01*
X168120904Y-94723285D02*
X168159000Y-94761381D01*
X168159000Y-94761381D02*
X168197095Y-94875666D01*
X168197095Y-94875666D02*
X168197095Y-94951857D01*
X168197095Y-94951857D02*
X168159000Y-95066143D01*
X168159000Y-95066143D02*
X168082809Y-95142333D01*
X168082809Y-95142333D02*
X168006619Y-95180428D01*
X168006619Y-95180428D02*
X167854238Y-95218524D01*
X167854238Y-95218524D02*
X167739952Y-95218524D01*
X167739952Y-95218524D02*
X167587571Y-95180428D01*
X167587571Y-95180428D02*
X167511380Y-95142333D01*
X167511380Y-95142333D02*
X167435190Y-95066143D01*
X167435190Y-95066143D02*
X167397095Y-94951857D01*
X167397095Y-94951857D02*
X167397095Y-94875666D01*
X167397095Y-94875666D02*
X167435190Y-94761381D01*
X167435190Y-94761381D02*
X167473285Y-94723285D01*
X167473285Y-94418524D02*
X167435190Y-94380428D01*
X167435190Y-94380428D02*
X167397095Y-94304238D01*
X167397095Y-94304238D02*
X167397095Y-94113762D01*
X167397095Y-94113762D02*
X167435190Y-94037571D01*
X167435190Y-94037571D02*
X167473285Y-93999476D01*
X167473285Y-93999476D02*
X167549476Y-93961381D01*
X167549476Y-93961381D02*
X167625666Y-93961381D01*
X167625666Y-93961381D02*
X167739952Y-93999476D01*
X167739952Y-93999476D02*
X168197095Y-94456619D01*
X168197095Y-94456619D02*
X168197095Y-93961381D01*
X168197095Y-93580428D02*
X168197095Y-93428047D01*
X168197095Y-93428047D02*
X168159000Y-93351857D01*
X168159000Y-93351857D02*
X168120904Y-93313761D01*
X168120904Y-93313761D02*
X168006619Y-93237571D01*
X168006619Y-93237571D02*
X167854238Y-93199476D01*
X167854238Y-93199476D02*
X167549476Y-93199476D01*
X167549476Y-93199476D02*
X167473285Y-93237571D01*
X167473285Y-93237571D02*
X167435190Y-93275666D01*
X167435190Y-93275666D02*
X167397095Y-93351857D01*
X167397095Y-93351857D02*
X167397095Y-93504238D01*
X167397095Y-93504238D02*
X167435190Y-93580428D01*
X167435190Y-93580428D02*
X167473285Y-93618523D01*
X167473285Y-93618523D02*
X167549476Y-93656619D01*
X167549476Y-93656619D02*
X167739952Y-93656619D01*
X167739952Y-93656619D02*
X167816142Y-93618523D01*
X167816142Y-93618523D02*
X167854238Y-93580428D01*
X167854238Y-93580428D02*
X167892333Y-93504238D01*
X167892333Y-93504238D02*
X167892333Y-93351857D01*
X167892333Y-93351857D02*
X167854238Y-93275666D01*
X167854238Y-93275666D02*
X167816142Y-93237571D01*
X167816142Y-93237571D02*
X167739952Y-93199476D01*
X130175076Y-64296695D02*
X130175076Y-64944314D01*
X130175076Y-64944314D02*
X130213171Y-65020504D01*
X130213171Y-65020504D02*
X130251266Y-65058600D01*
X130251266Y-65058600D02*
X130327457Y-65096695D01*
X130327457Y-65096695D02*
X130479838Y-65096695D01*
X130479838Y-65096695D02*
X130556028Y-65058600D01*
X130556028Y-65058600D02*
X130594123Y-65020504D01*
X130594123Y-65020504D02*
X130632219Y-64944314D01*
X130632219Y-64944314D02*
X130632219Y-64296695D01*
X130936980Y-64296695D02*
X131432218Y-64296695D01*
X131432218Y-64296695D02*
X131165552Y-64601457D01*
X131165552Y-64601457D02*
X131279837Y-64601457D01*
X131279837Y-64601457D02*
X131356028Y-64639552D01*
X131356028Y-64639552D02*
X131394123Y-64677647D01*
X131394123Y-64677647D02*
X131432218Y-64753838D01*
X131432218Y-64753838D02*
X131432218Y-64944314D01*
X131432218Y-64944314D02*
X131394123Y-65020504D01*
X131394123Y-65020504D02*
X131356028Y-65058600D01*
X131356028Y-65058600D02*
X131279837Y-65096695D01*
X131279837Y-65096695D02*
X131051266Y-65096695D01*
X131051266Y-65096695D02*
X130975075Y-65058600D01*
X130975075Y-65058600D02*
X130936980Y-65020504D01*
X130807619Y-70772257D02*
X130331428Y-71105590D01*
X130807619Y-71343685D02*
X129807619Y-71343685D01*
X129807619Y-71343685D02*
X129807619Y-70962733D01*
X129807619Y-70962733D02*
X129855238Y-70867495D01*
X129855238Y-70867495D02*
X129902857Y-70819876D01*
X129902857Y-70819876D02*
X129998095Y-70772257D01*
X129998095Y-70772257D02*
X130140952Y-70772257D01*
X130140952Y-70772257D02*
X130236190Y-70819876D01*
X130236190Y-70819876D02*
X130283809Y-70867495D01*
X130283809Y-70867495D02*
X130331428Y-70962733D01*
X130331428Y-70962733D02*
X130331428Y-71343685D01*
X130807619Y-69819876D02*
X130807619Y-70391304D01*
X130807619Y-70105590D02*
X129807619Y-70105590D01*
X129807619Y-70105590D02*
X129950476Y-70200828D01*
X129950476Y-70200828D02*
X130045714Y-70296066D01*
X130045714Y-70296066D02*
X130093333Y-70391304D01*
X129807619Y-69486542D02*
X129807619Y-68819876D01*
X129807619Y-68819876D02*
X130807619Y-69248447D01*
X172209495Y-110721419D02*
X172209495Y-111530942D01*
X172209495Y-111530942D02*
X172257114Y-111626180D01*
X172257114Y-111626180D02*
X172304733Y-111673800D01*
X172304733Y-111673800D02*
X172399971Y-111721419D01*
X172399971Y-111721419D02*
X172590447Y-111721419D01*
X172590447Y-111721419D02*
X172685685Y-111673800D01*
X172685685Y-111673800D02*
X172733304Y-111626180D01*
X172733304Y-111626180D02*
X172780923Y-111530942D01*
X172780923Y-111530942D02*
X172780923Y-110721419D01*
X173780923Y-111721419D02*
X173209495Y-111721419D01*
X173495209Y-111721419D02*
X173495209Y-110721419D01*
X173495209Y-110721419D02*
X173399971Y-110864276D01*
X173399971Y-110864276D02*
X173304733Y-110959514D01*
X173304733Y-110959514D02*
X173209495Y-111007133D01*
X127210914Y-102969828D02*
X126944247Y-102588875D01*
X126753771Y-102969828D02*
X126753771Y-102169828D01*
X126753771Y-102169828D02*
X127058533Y-102169828D01*
X127058533Y-102169828D02*
X127134723Y-102207923D01*
X127134723Y-102207923D02*
X127172818Y-102246018D01*
X127172818Y-102246018D02*
X127210914Y-102322209D01*
X127210914Y-102322209D02*
X127210914Y-102436494D01*
X127210914Y-102436494D02*
X127172818Y-102512685D01*
X127172818Y-102512685D02*
X127134723Y-102550780D01*
X127134723Y-102550780D02*
X127058533Y-102588875D01*
X127058533Y-102588875D02*
X126753771Y-102588875D01*
X127972818Y-102969828D02*
X127515675Y-102969828D01*
X127744247Y-102969828D02*
X127744247Y-102169828D01*
X127744247Y-102169828D02*
X127668056Y-102284113D01*
X127668056Y-102284113D02*
X127591866Y-102360304D01*
X127591866Y-102360304D02*
X127515675Y-102398399D01*
X128277580Y-102246018D02*
X128315676Y-102207923D01*
X128315676Y-102207923D02*
X128391866Y-102169828D01*
X128391866Y-102169828D02*
X128582342Y-102169828D01*
X128582342Y-102169828D02*
X128658533Y-102207923D01*
X128658533Y-102207923D02*
X128696628Y-102246018D01*
X128696628Y-102246018D02*
X128734723Y-102322209D01*
X128734723Y-102322209D02*
X128734723Y-102398399D01*
X128734723Y-102398399D02*
X128696628Y-102512685D01*
X128696628Y-102512685D02*
X128239485Y-102969828D01*
X128239485Y-102969828D02*
X128734723Y-102969828D01*
X134317914Y-100336704D02*
X134279818Y-100374800D01*
X134279818Y-100374800D02*
X134165533Y-100412895D01*
X134165533Y-100412895D02*
X134089342Y-100412895D01*
X134089342Y-100412895D02*
X133975056Y-100374800D01*
X133975056Y-100374800D02*
X133898866Y-100298609D01*
X133898866Y-100298609D02*
X133860771Y-100222419D01*
X133860771Y-100222419D02*
X133822675Y-100070038D01*
X133822675Y-100070038D02*
X133822675Y-99955752D01*
X133822675Y-99955752D02*
X133860771Y-99803371D01*
X133860771Y-99803371D02*
X133898866Y-99727180D01*
X133898866Y-99727180D02*
X133975056Y-99650990D01*
X133975056Y-99650990D02*
X134089342Y-99612895D01*
X134089342Y-99612895D02*
X134165533Y-99612895D01*
X134165533Y-99612895D02*
X134279818Y-99650990D01*
X134279818Y-99650990D02*
X134317914Y-99689085D01*
X135079818Y-100412895D02*
X134622675Y-100412895D01*
X134851247Y-100412895D02*
X134851247Y-99612895D01*
X134851247Y-99612895D02*
X134775056Y-99727180D01*
X134775056Y-99727180D02*
X134698866Y-99803371D01*
X134698866Y-99803371D02*
X134622675Y-99841466D01*
X135575057Y-99612895D02*
X135651247Y-99612895D01*
X135651247Y-99612895D02*
X135727438Y-99650990D01*
X135727438Y-99650990D02*
X135765533Y-99689085D01*
X135765533Y-99689085D02*
X135803628Y-99765276D01*
X135803628Y-99765276D02*
X135841723Y-99917657D01*
X135841723Y-99917657D02*
X135841723Y-100108133D01*
X135841723Y-100108133D02*
X135803628Y-100260514D01*
X135803628Y-100260514D02*
X135765533Y-100336704D01*
X135765533Y-100336704D02*
X135727438Y-100374800D01*
X135727438Y-100374800D02*
X135651247Y-100412895D01*
X135651247Y-100412895D02*
X135575057Y-100412895D01*
X135575057Y-100412895D02*
X135498866Y-100374800D01*
X135498866Y-100374800D02*
X135460771Y-100336704D01*
X135460771Y-100336704D02*
X135422676Y-100260514D01*
X135422676Y-100260514D02*
X135384580Y-100108133D01*
X135384580Y-100108133D02*
X135384580Y-99917657D01*
X135384580Y-99917657D02*
X135422676Y-99765276D01*
X135422676Y-99765276D02*
X135460771Y-99689085D01*
X135460771Y-99689085D02*
X135498866Y-99650990D01*
X135498866Y-99650990D02*
X135575057Y-99612895D01*
X145499104Y-69500685D02*
X145537200Y-69538781D01*
X145537200Y-69538781D02*
X145575295Y-69653066D01*
X145575295Y-69653066D02*
X145575295Y-69729257D01*
X145575295Y-69729257D02*
X145537200Y-69843543D01*
X145537200Y-69843543D02*
X145461009Y-69919733D01*
X145461009Y-69919733D02*
X145384819Y-69957828D01*
X145384819Y-69957828D02*
X145232438Y-69995924D01*
X145232438Y-69995924D02*
X145118152Y-69995924D01*
X145118152Y-69995924D02*
X144965771Y-69957828D01*
X144965771Y-69957828D02*
X144889580Y-69919733D01*
X144889580Y-69919733D02*
X144813390Y-69843543D01*
X144813390Y-69843543D02*
X144775295Y-69729257D01*
X144775295Y-69729257D02*
X144775295Y-69653066D01*
X144775295Y-69653066D02*
X144813390Y-69538781D01*
X144813390Y-69538781D02*
X144851485Y-69500685D01*
X144775295Y-69234019D02*
X144775295Y-68738781D01*
X144775295Y-68738781D02*
X145080057Y-69005447D01*
X145080057Y-69005447D02*
X145080057Y-68891162D01*
X145080057Y-68891162D02*
X145118152Y-68814971D01*
X145118152Y-68814971D02*
X145156247Y-68776876D01*
X145156247Y-68776876D02*
X145232438Y-68738781D01*
X145232438Y-68738781D02*
X145422914Y-68738781D01*
X145422914Y-68738781D02*
X145499104Y-68776876D01*
X145499104Y-68776876D02*
X145537200Y-68814971D01*
X145537200Y-68814971D02*
X145575295Y-68891162D01*
X145575295Y-68891162D02*
X145575295Y-69119733D01*
X145575295Y-69119733D02*
X145537200Y-69195924D01*
X145537200Y-69195924D02*
X145499104Y-69234019D01*
X145041961Y-68053066D02*
X145575295Y-68053066D01*
X144737200Y-68243542D02*
X145308628Y-68434019D01*
X145308628Y-68434019D02*
X145308628Y-67938780D01*
X162431304Y-61553885D02*
X162469400Y-61591981D01*
X162469400Y-61591981D02*
X162507495Y-61706266D01*
X162507495Y-61706266D02*
X162507495Y-61782457D01*
X162507495Y-61782457D02*
X162469400Y-61896743D01*
X162469400Y-61896743D02*
X162393209Y-61972933D01*
X162393209Y-61972933D02*
X162317019Y-62011028D01*
X162317019Y-62011028D02*
X162164638Y-62049124D01*
X162164638Y-62049124D02*
X162050352Y-62049124D01*
X162050352Y-62049124D02*
X161897971Y-62011028D01*
X161897971Y-62011028D02*
X161821780Y-61972933D01*
X161821780Y-61972933D02*
X161745590Y-61896743D01*
X161745590Y-61896743D02*
X161707495Y-61782457D01*
X161707495Y-61782457D02*
X161707495Y-61706266D01*
X161707495Y-61706266D02*
X161745590Y-61591981D01*
X161745590Y-61591981D02*
X161783685Y-61553885D01*
X161707495Y-60830076D02*
X161707495Y-61211028D01*
X161707495Y-61211028D02*
X162088447Y-61249124D01*
X162088447Y-61249124D02*
X162050352Y-61211028D01*
X162050352Y-61211028D02*
X162012257Y-61134838D01*
X162012257Y-61134838D02*
X162012257Y-60944362D01*
X162012257Y-60944362D02*
X162050352Y-60868171D01*
X162050352Y-60868171D02*
X162088447Y-60830076D01*
X162088447Y-60830076D02*
X162164638Y-60791981D01*
X162164638Y-60791981D02*
X162355114Y-60791981D01*
X162355114Y-60791981D02*
X162431304Y-60830076D01*
X162431304Y-60830076D02*
X162469400Y-60868171D01*
X162469400Y-60868171D02*
X162507495Y-60944362D01*
X162507495Y-60944362D02*
X162507495Y-61134838D01*
X162507495Y-61134838D02*
X162469400Y-61211028D01*
X162469400Y-61211028D02*
X162431304Y-61249124D01*
X161707495Y-60296742D02*
X161707495Y-60220552D01*
X161707495Y-60220552D02*
X161745590Y-60144361D01*
X161745590Y-60144361D02*
X161783685Y-60106266D01*
X161783685Y-60106266D02*
X161859876Y-60068171D01*
X161859876Y-60068171D02*
X162012257Y-60030076D01*
X162012257Y-60030076D02*
X162202733Y-60030076D01*
X162202733Y-60030076D02*
X162355114Y-60068171D01*
X162355114Y-60068171D02*
X162431304Y-60106266D01*
X162431304Y-60106266D02*
X162469400Y-60144361D01*
X162469400Y-60144361D02*
X162507495Y-60220552D01*
X162507495Y-60220552D02*
X162507495Y-60296742D01*
X162507495Y-60296742D02*
X162469400Y-60372933D01*
X162469400Y-60372933D02*
X162431304Y-60411028D01*
X162431304Y-60411028D02*
X162355114Y-60449123D01*
X162355114Y-60449123D02*
X162202733Y-60487219D01*
X162202733Y-60487219D02*
X162012257Y-60487219D01*
X162012257Y-60487219D02*
X161859876Y-60449123D01*
X161859876Y-60449123D02*
X161783685Y-60411028D01*
X161783685Y-60411028D02*
X161745590Y-60372933D01*
X161745590Y-60372933D02*
X161707495Y-60296742D01*
X128581495Y-64717285D02*
X128200542Y-64983952D01*
X128581495Y-65174428D02*
X127781495Y-65174428D01*
X127781495Y-65174428D02*
X127781495Y-64869666D01*
X127781495Y-64869666D02*
X127819590Y-64793476D01*
X127819590Y-64793476D02*
X127857685Y-64755381D01*
X127857685Y-64755381D02*
X127933876Y-64717285D01*
X127933876Y-64717285D02*
X128048161Y-64717285D01*
X128048161Y-64717285D02*
X128124352Y-64755381D01*
X128124352Y-64755381D02*
X128162447Y-64793476D01*
X128162447Y-64793476D02*
X128200542Y-64869666D01*
X128200542Y-64869666D02*
X128200542Y-65174428D01*
X128581495Y-63955381D02*
X128581495Y-64412524D01*
X128581495Y-64183952D02*
X127781495Y-64183952D01*
X127781495Y-64183952D02*
X127895780Y-64260143D01*
X127895780Y-64260143D02*
X127971971Y-64336333D01*
X127971971Y-64336333D02*
X128010066Y-64412524D01*
X127781495Y-63269666D02*
X127781495Y-63422047D01*
X127781495Y-63422047D02*
X127819590Y-63498238D01*
X127819590Y-63498238D02*
X127857685Y-63536333D01*
X127857685Y-63536333D02*
X127971971Y-63612523D01*
X127971971Y-63612523D02*
X128124352Y-63650619D01*
X128124352Y-63650619D02*
X128429114Y-63650619D01*
X128429114Y-63650619D02*
X128505304Y-63612523D01*
X128505304Y-63612523D02*
X128543400Y-63574428D01*
X128543400Y-63574428D02*
X128581495Y-63498238D01*
X128581495Y-63498238D02*
X128581495Y-63345857D01*
X128581495Y-63345857D02*
X128543400Y-63269666D01*
X128543400Y-63269666D02*
X128505304Y-63231571D01*
X128505304Y-63231571D02*
X128429114Y-63193476D01*
X128429114Y-63193476D02*
X128238638Y-63193476D01*
X128238638Y-63193476D02*
X128162447Y-63231571D01*
X128162447Y-63231571D02*
X128124352Y-63269666D01*
X128124352Y-63269666D02*
X128086257Y-63345857D01*
X128086257Y-63345857D02*
X128086257Y-63498238D01*
X128086257Y-63498238D02*
X128124352Y-63574428D01*
X128124352Y-63574428D02*
X128162447Y-63612523D01*
X128162447Y-63612523D02*
X128238638Y-63650619D01*
X126390914Y-91235104D02*
X126352818Y-91273200D01*
X126352818Y-91273200D02*
X126238533Y-91311295D01*
X126238533Y-91311295D02*
X126162342Y-91311295D01*
X126162342Y-91311295D02*
X126048056Y-91273200D01*
X126048056Y-91273200D02*
X125971866Y-91197009D01*
X125971866Y-91197009D02*
X125933771Y-91120819D01*
X125933771Y-91120819D02*
X125895675Y-90968438D01*
X125895675Y-90968438D02*
X125895675Y-90854152D01*
X125895675Y-90854152D02*
X125933771Y-90701771D01*
X125933771Y-90701771D02*
X125971866Y-90625580D01*
X125971866Y-90625580D02*
X126048056Y-90549390D01*
X126048056Y-90549390D02*
X126162342Y-90511295D01*
X126162342Y-90511295D02*
X126238533Y-90511295D01*
X126238533Y-90511295D02*
X126352818Y-90549390D01*
X126352818Y-90549390D02*
X126390914Y-90587485D01*
X127076628Y-90777961D02*
X127076628Y-91311295D01*
X126886152Y-90473200D02*
X126695675Y-91044628D01*
X126695675Y-91044628D02*
X127190914Y-91044628D01*
X127609961Y-90854152D02*
X127533771Y-90816057D01*
X127533771Y-90816057D02*
X127495676Y-90777961D01*
X127495676Y-90777961D02*
X127457580Y-90701771D01*
X127457580Y-90701771D02*
X127457580Y-90663676D01*
X127457580Y-90663676D02*
X127495676Y-90587485D01*
X127495676Y-90587485D02*
X127533771Y-90549390D01*
X127533771Y-90549390D02*
X127609961Y-90511295D01*
X127609961Y-90511295D02*
X127762342Y-90511295D01*
X127762342Y-90511295D02*
X127838533Y-90549390D01*
X127838533Y-90549390D02*
X127876628Y-90587485D01*
X127876628Y-90587485D02*
X127914723Y-90663676D01*
X127914723Y-90663676D02*
X127914723Y-90701771D01*
X127914723Y-90701771D02*
X127876628Y-90777961D01*
X127876628Y-90777961D02*
X127838533Y-90816057D01*
X127838533Y-90816057D02*
X127762342Y-90854152D01*
X127762342Y-90854152D02*
X127609961Y-90854152D01*
X127609961Y-90854152D02*
X127533771Y-90892247D01*
X127533771Y-90892247D02*
X127495676Y-90930342D01*
X127495676Y-90930342D02*
X127457580Y-91006533D01*
X127457580Y-91006533D02*
X127457580Y-91158914D01*
X127457580Y-91158914D02*
X127495676Y-91235104D01*
X127495676Y-91235104D02*
X127533771Y-91273200D01*
X127533771Y-91273200D02*
X127609961Y-91311295D01*
X127609961Y-91311295D02*
X127762342Y-91311295D01*
X127762342Y-91311295D02*
X127838533Y-91273200D01*
X127838533Y-91273200D02*
X127876628Y-91235104D01*
X127876628Y-91235104D02*
X127914723Y-91158914D01*
X127914723Y-91158914D02*
X127914723Y-91006533D01*
X127914723Y-91006533D02*
X127876628Y-90930342D01*
X127876628Y-90930342D02*
X127838533Y-90892247D01*
X127838533Y-90892247D02*
X127762342Y-90854152D01*
X113271733Y-67231219D02*
X112938400Y-66755028D01*
X112700305Y-67231219D02*
X112700305Y-66231219D01*
X112700305Y-66231219D02*
X113081257Y-66231219D01*
X113081257Y-66231219D02*
X113176495Y-66278838D01*
X113176495Y-66278838D02*
X113224114Y-66326457D01*
X113224114Y-66326457D02*
X113271733Y-66421695D01*
X113271733Y-66421695D02*
X113271733Y-66564552D01*
X113271733Y-66564552D02*
X113224114Y-66659790D01*
X113224114Y-66659790D02*
X113176495Y-66707409D01*
X113176495Y-66707409D02*
X113081257Y-66755028D01*
X113081257Y-66755028D02*
X112700305Y-66755028D01*
X113747924Y-67231219D02*
X113938400Y-67231219D01*
X113938400Y-67231219D02*
X114033638Y-67183600D01*
X114033638Y-67183600D02*
X114081257Y-67135980D01*
X114081257Y-67135980D02*
X114176495Y-66993123D01*
X114176495Y-66993123D02*
X114224114Y-66802647D01*
X114224114Y-66802647D02*
X114224114Y-66421695D01*
X114224114Y-66421695D02*
X114176495Y-66326457D01*
X114176495Y-66326457D02*
X114128876Y-66278838D01*
X114128876Y-66278838D02*
X114033638Y-66231219D01*
X114033638Y-66231219D02*
X113843162Y-66231219D01*
X113843162Y-66231219D02*
X113747924Y-66278838D01*
X113747924Y-66278838D02*
X113700305Y-66326457D01*
X113700305Y-66326457D02*
X113652686Y-66421695D01*
X113652686Y-66421695D02*
X113652686Y-66659790D01*
X113652686Y-66659790D02*
X113700305Y-66755028D01*
X113700305Y-66755028D02*
X113747924Y-66802647D01*
X113747924Y-66802647D02*
X113843162Y-66850266D01*
X113843162Y-66850266D02*
X114033638Y-66850266D01*
X114033638Y-66850266D02*
X114128876Y-66802647D01*
X114128876Y-66802647D02*
X114176495Y-66755028D01*
X114176495Y-66755028D02*
X114224114Y-66659790D01*
X144100904Y-67268085D02*
X144139000Y-67306181D01*
X144139000Y-67306181D02*
X144177095Y-67420466D01*
X144177095Y-67420466D02*
X144177095Y-67496657D01*
X144177095Y-67496657D02*
X144139000Y-67610943D01*
X144139000Y-67610943D02*
X144062809Y-67687133D01*
X144062809Y-67687133D02*
X143986619Y-67725228D01*
X143986619Y-67725228D02*
X143834238Y-67763324D01*
X143834238Y-67763324D02*
X143719952Y-67763324D01*
X143719952Y-67763324D02*
X143567571Y-67725228D01*
X143567571Y-67725228D02*
X143491380Y-67687133D01*
X143491380Y-67687133D02*
X143415190Y-67610943D01*
X143415190Y-67610943D02*
X143377095Y-67496657D01*
X143377095Y-67496657D02*
X143377095Y-67420466D01*
X143377095Y-67420466D02*
X143415190Y-67306181D01*
X143415190Y-67306181D02*
X143453285Y-67268085D01*
X143377095Y-67001419D02*
X143377095Y-66506181D01*
X143377095Y-66506181D02*
X143681857Y-66772847D01*
X143681857Y-66772847D02*
X143681857Y-66658562D01*
X143681857Y-66658562D02*
X143719952Y-66582371D01*
X143719952Y-66582371D02*
X143758047Y-66544276D01*
X143758047Y-66544276D02*
X143834238Y-66506181D01*
X143834238Y-66506181D02*
X144024714Y-66506181D01*
X144024714Y-66506181D02*
X144100904Y-66544276D01*
X144100904Y-66544276D02*
X144139000Y-66582371D01*
X144139000Y-66582371D02*
X144177095Y-66658562D01*
X144177095Y-66658562D02*
X144177095Y-66887133D01*
X144177095Y-66887133D02*
X144139000Y-66963324D01*
X144139000Y-66963324D02*
X144100904Y-67001419D01*
X143453285Y-66201419D02*
X143415190Y-66163323D01*
X143415190Y-66163323D02*
X143377095Y-66087133D01*
X143377095Y-66087133D02*
X143377095Y-65896657D01*
X143377095Y-65896657D02*
X143415190Y-65820466D01*
X143415190Y-65820466D02*
X143453285Y-65782371D01*
X143453285Y-65782371D02*
X143529476Y-65744276D01*
X143529476Y-65744276D02*
X143605666Y-65744276D01*
X143605666Y-65744276D02*
X143719952Y-65782371D01*
X143719952Y-65782371D02*
X144177095Y-66239514D01*
X144177095Y-66239514D02*
X144177095Y-65744276D01*
X155223380Y-101461866D02*
X155271000Y-101509485D01*
X155271000Y-101509485D02*
X155318619Y-101652342D01*
X155318619Y-101652342D02*
X155318619Y-101747580D01*
X155318619Y-101747580D02*
X155271000Y-101890437D01*
X155271000Y-101890437D02*
X155175761Y-101985675D01*
X155175761Y-101985675D02*
X155080523Y-102033294D01*
X155080523Y-102033294D02*
X154890047Y-102080913D01*
X154890047Y-102080913D02*
X154747190Y-102080913D01*
X154747190Y-102080913D02*
X154556714Y-102033294D01*
X154556714Y-102033294D02*
X154461476Y-101985675D01*
X154461476Y-101985675D02*
X154366238Y-101890437D01*
X154366238Y-101890437D02*
X154318619Y-101747580D01*
X154318619Y-101747580D02*
X154318619Y-101652342D01*
X154318619Y-101652342D02*
X154366238Y-101509485D01*
X154366238Y-101509485D02*
X154413857Y-101461866D01*
X155318619Y-100985675D02*
X155318619Y-100795199D01*
X155318619Y-100795199D02*
X155271000Y-100699961D01*
X155271000Y-100699961D02*
X155223380Y-100652342D01*
X155223380Y-100652342D02*
X155080523Y-100557104D01*
X155080523Y-100557104D02*
X154890047Y-100509485D01*
X154890047Y-100509485D02*
X154509095Y-100509485D01*
X154509095Y-100509485D02*
X154413857Y-100557104D01*
X154413857Y-100557104D02*
X154366238Y-100604723D01*
X154366238Y-100604723D02*
X154318619Y-100699961D01*
X154318619Y-100699961D02*
X154318619Y-100890437D01*
X154318619Y-100890437D02*
X154366238Y-100985675D01*
X154366238Y-100985675D02*
X154413857Y-101033294D01*
X154413857Y-101033294D02*
X154509095Y-101080913D01*
X154509095Y-101080913D02*
X154747190Y-101080913D01*
X154747190Y-101080913D02*
X154842428Y-101033294D01*
X154842428Y-101033294D02*
X154890047Y-100985675D01*
X154890047Y-100985675D02*
X154937666Y-100890437D01*
X154937666Y-100890437D02*
X154937666Y-100699961D01*
X154937666Y-100699961D02*
X154890047Y-100604723D01*
X154890047Y-100604723D02*
X154842428Y-100557104D01*
X154842428Y-100557104D02*
X154747190Y-100509485D01*
X127210914Y-105696095D02*
X126944247Y-105315142D01*
X126753771Y-105696095D02*
X126753771Y-104896095D01*
X126753771Y-104896095D02*
X127058533Y-104896095D01*
X127058533Y-104896095D02*
X127134723Y-104934190D01*
X127134723Y-104934190D02*
X127172818Y-104972285D01*
X127172818Y-104972285D02*
X127210914Y-105048476D01*
X127210914Y-105048476D02*
X127210914Y-105162761D01*
X127210914Y-105162761D02*
X127172818Y-105238952D01*
X127172818Y-105238952D02*
X127134723Y-105277047D01*
X127134723Y-105277047D02*
X127058533Y-105315142D01*
X127058533Y-105315142D02*
X126753771Y-105315142D01*
X127972818Y-105696095D02*
X127515675Y-105696095D01*
X127744247Y-105696095D02*
X127744247Y-104896095D01*
X127744247Y-104896095D02*
X127668056Y-105010380D01*
X127668056Y-105010380D02*
X127591866Y-105086571D01*
X127591866Y-105086571D02*
X127515675Y-105124666D01*
X128696628Y-104896095D02*
X128315676Y-104896095D01*
X128315676Y-104896095D02*
X128277580Y-105277047D01*
X128277580Y-105277047D02*
X128315676Y-105238952D01*
X128315676Y-105238952D02*
X128391866Y-105200857D01*
X128391866Y-105200857D02*
X128582342Y-105200857D01*
X128582342Y-105200857D02*
X128658533Y-105238952D01*
X128658533Y-105238952D02*
X128696628Y-105277047D01*
X128696628Y-105277047D02*
X128734723Y-105353238D01*
X128734723Y-105353238D02*
X128734723Y-105543714D01*
X128734723Y-105543714D02*
X128696628Y-105619904D01*
X128696628Y-105619904D02*
X128658533Y-105658000D01*
X128658533Y-105658000D02*
X128582342Y-105696095D01*
X128582342Y-105696095D02*
X128391866Y-105696095D01*
X128391866Y-105696095D02*
X128315676Y-105658000D01*
X128315676Y-105658000D02*
X128277580Y-105619904D01*
X166670514Y-78519695D02*
X166403847Y-78138742D01*
X166213371Y-78519695D02*
X166213371Y-77719695D01*
X166213371Y-77719695D02*
X166518133Y-77719695D01*
X166518133Y-77719695D02*
X166594323Y-77757790D01*
X166594323Y-77757790D02*
X166632418Y-77795885D01*
X166632418Y-77795885D02*
X166670514Y-77872076D01*
X166670514Y-77872076D02*
X166670514Y-77986361D01*
X166670514Y-77986361D02*
X166632418Y-78062552D01*
X166632418Y-78062552D02*
X166594323Y-78100647D01*
X166594323Y-78100647D02*
X166518133Y-78138742D01*
X166518133Y-78138742D02*
X166213371Y-78138742D01*
X166975275Y-77795885D02*
X167013371Y-77757790D01*
X167013371Y-77757790D02*
X167089561Y-77719695D01*
X167089561Y-77719695D02*
X167280037Y-77719695D01*
X167280037Y-77719695D02*
X167356228Y-77757790D01*
X167356228Y-77757790D02*
X167394323Y-77795885D01*
X167394323Y-77795885D02*
X167432418Y-77872076D01*
X167432418Y-77872076D02*
X167432418Y-77948266D01*
X167432418Y-77948266D02*
X167394323Y-78062552D01*
X167394323Y-78062552D02*
X166937180Y-78519695D01*
X166937180Y-78519695D02*
X167432418Y-78519695D01*
X167927657Y-77719695D02*
X168003847Y-77719695D01*
X168003847Y-77719695D02*
X168080038Y-77757790D01*
X168080038Y-77757790D02*
X168118133Y-77795885D01*
X168118133Y-77795885D02*
X168156228Y-77872076D01*
X168156228Y-77872076D02*
X168194323Y-78024457D01*
X168194323Y-78024457D02*
X168194323Y-78214933D01*
X168194323Y-78214933D02*
X168156228Y-78367314D01*
X168156228Y-78367314D02*
X168118133Y-78443504D01*
X168118133Y-78443504D02*
X168080038Y-78481600D01*
X168080038Y-78481600D02*
X168003847Y-78519695D01*
X168003847Y-78519695D02*
X167927657Y-78519695D01*
X167927657Y-78519695D02*
X167851466Y-78481600D01*
X167851466Y-78481600D02*
X167813371Y-78443504D01*
X167813371Y-78443504D02*
X167775276Y-78367314D01*
X167775276Y-78367314D02*
X167737180Y-78214933D01*
X167737180Y-78214933D02*
X167737180Y-78024457D01*
X167737180Y-78024457D02*
X167775276Y-77872076D01*
X167775276Y-77872076D02*
X167813371Y-77795885D01*
X167813371Y-77795885D02*
X167851466Y-77757790D01*
X167851466Y-77757790D02*
X167927657Y-77719695D01*
X127210914Y-101606695D02*
X126944247Y-101225742D01*
X126753771Y-101606695D02*
X126753771Y-100806695D01*
X126753771Y-100806695D02*
X127058533Y-100806695D01*
X127058533Y-100806695D02*
X127134723Y-100844790D01*
X127134723Y-100844790D02*
X127172818Y-100882885D01*
X127172818Y-100882885D02*
X127210914Y-100959076D01*
X127210914Y-100959076D02*
X127210914Y-101073361D01*
X127210914Y-101073361D02*
X127172818Y-101149552D01*
X127172818Y-101149552D02*
X127134723Y-101187647D01*
X127134723Y-101187647D02*
X127058533Y-101225742D01*
X127058533Y-101225742D02*
X126753771Y-101225742D01*
X127972818Y-101606695D02*
X127515675Y-101606695D01*
X127744247Y-101606695D02*
X127744247Y-100806695D01*
X127744247Y-100806695D02*
X127668056Y-100920980D01*
X127668056Y-100920980D02*
X127591866Y-100997171D01*
X127591866Y-100997171D02*
X127515675Y-101035266D01*
X128734723Y-101606695D02*
X128277580Y-101606695D01*
X128506152Y-101606695D02*
X128506152Y-100806695D01*
X128506152Y-100806695D02*
X128429961Y-100920980D01*
X128429961Y-100920980D02*
X128353771Y-100997171D01*
X128353771Y-100997171D02*
X128277580Y-101035266D01*
X169505333Y-105001219D02*
X169029143Y-105001219D01*
X169029143Y-105001219D02*
X169029143Y-104001219D01*
X170362476Y-105001219D02*
X169791048Y-105001219D01*
X170076762Y-105001219D02*
X170076762Y-104001219D01*
X170076762Y-104001219D02*
X169981524Y-104144076D01*
X169981524Y-104144076D02*
X169886286Y-104239314D01*
X169886286Y-104239314D02*
X169791048Y-104286933D01*
X170423280Y-97550266D02*
X170470900Y-97597885D01*
X170470900Y-97597885D02*
X170518519Y-97740742D01*
X170518519Y-97740742D02*
X170518519Y-97835980D01*
X170518519Y-97835980D02*
X170470900Y-97978837D01*
X170470900Y-97978837D02*
X170375661Y-98074075D01*
X170375661Y-98074075D02*
X170280423Y-98121694D01*
X170280423Y-98121694D02*
X170089947Y-98169313D01*
X170089947Y-98169313D02*
X169947090Y-98169313D01*
X169947090Y-98169313D02*
X169756614Y-98121694D01*
X169756614Y-98121694D02*
X169661376Y-98074075D01*
X169661376Y-98074075D02*
X169566138Y-97978837D01*
X169566138Y-97978837D02*
X169518519Y-97835980D01*
X169518519Y-97835980D02*
X169518519Y-97740742D01*
X169518519Y-97740742D02*
X169566138Y-97597885D01*
X169566138Y-97597885D02*
X169613757Y-97550266D01*
X169518519Y-96645504D02*
X169518519Y-97121694D01*
X169518519Y-97121694D02*
X169994709Y-97169313D01*
X169994709Y-97169313D02*
X169947090Y-97121694D01*
X169947090Y-97121694D02*
X169899471Y-97026456D01*
X169899471Y-97026456D02*
X169899471Y-96788361D01*
X169899471Y-96788361D02*
X169947090Y-96693123D01*
X169947090Y-96693123D02*
X169994709Y-96645504D01*
X169994709Y-96645504D02*
X170089947Y-96597885D01*
X170089947Y-96597885D02*
X170328042Y-96597885D01*
X170328042Y-96597885D02*
X170423280Y-96645504D01*
X170423280Y-96645504D02*
X170470900Y-96693123D01*
X170470900Y-96693123D02*
X170518519Y-96788361D01*
X170518519Y-96788361D02*
X170518519Y-97026456D01*
X170518519Y-97026456D02*
X170470900Y-97121694D01*
X170470900Y-97121694D02*
X170423280Y-97169313D01*
X135149714Y-93905104D02*
X135111618Y-93943200D01*
X135111618Y-93943200D02*
X134997333Y-93981295D01*
X134997333Y-93981295D02*
X134921142Y-93981295D01*
X134921142Y-93981295D02*
X134806856Y-93943200D01*
X134806856Y-93943200D02*
X134730666Y-93867009D01*
X134730666Y-93867009D02*
X134692571Y-93790819D01*
X134692571Y-93790819D02*
X134654475Y-93638438D01*
X134654475Y-93638438D02*
X134654475Y-93524152D01*
X134654475Y-93524152D02*
X134692571Y-93371771D01*
X134692571Y-93371771D02*
X134730666Y-93295580D01*
X134730666Y-93295580D02*
X134806856Y-93219390D01*
X134806856Y-93219390D02*
X134921142Y-93181295D01*
X134921142Y-93181295D02*
X134997333Y-93181295D01*
X134997333Y-93181295D02*
X135111618Y-93219390D01*
X135111618Y-93219390D02*
X135149714Y-93257485D01*
X135454475Y-93257485D02*
X135492571Y-93219390D01*
X135492571Y-93219390D02*
X135568761Y-93181295D01*
X135568761Y-93181295D02*
X135759237Y-93181295D01*
X135759237Y-93181295D02*
X135835428Y-93219390D01*
X135835428Y-93219390D02*
X135873523Y-93257485D01*
X135873523Y-93257485D02*
X135911618Y-93333676D01*
X135911618Y-93333676D02*
X135911618Y-93409866D01*
X135911618Y-93409866D02*
X135873523Y-93524152D01*
X135873523Y-93524152D02*
X135416380Y-93981295D01*
X135416380Y-93981295D02*
X135911618Y-93981295D01*
X136597333Y-93181295D02*
X136444952Y-93181295D01*
X136444952Y-93181295D02*
X136368761Y-93219390D01*
X136368761Y-93219390D02*
X136330666Y-93257485D01*
X136330666Y-93257485D02*
X136254476Y-93371771D01*
X136254476Y-93371771D02*
X136216380Y-93524152D01*
X136216380Y-93524152D02*
X136216380Y-93828914D01*
X136216380Y-93828914D02*
X136254476Y-93905104D01*
X136254476Y-93905104D02*
X136292571Y-93943200D01*
X136292571Y-93943200D02*
X136368761Y-93981295D01*
X136368761Y-93981295D02*
X136521142Y-93981295D01*
X136521142Y-93981295D02*
X136597333Y-93943200D01*
X136597333Y-93943200D02*
X136635428Y-93905104D01*
X136635428Y-93905104D02*
X136673523Y-93828914D01*
X136673523Y-93828914D02*
X136673523Y-93638438D01*
X136673523Y-93638438D02*
X136635428Y-93562247D01*
X136635428Y-93562247D02*
X136597333Y-93524152D01*
X136597333Y-93524152D02*
X136521142Y-93486057D01*
X136521142Y-93486057D02*
X136368761Y-93486057D01*
X136368761Y-93486057D02*
X136292571Y-93524152D01*
X136292571Y-93524152D02*
X136254476Y-93562247D01*
X136254476Y-93562247D02*
X136216380Y-93638438D01*
X163811304Y-68586285D02*
X163849400Y-68624381D01*
X163849400Y-68624381D02*
X163887495Y-68738666D01*
X163887495Y-68738666D02*
X163887495Y-68814857D01*
X163887495Y-68814857D02*
X163849400Y-68929143D01*
X163849400Y-68929143D02*
X163773209Y-69005333D01*
X163773209Y-69005333D02*
X163697019Y-69043428D01*
X163697019Y-69043428D02*
X163544638Y-69081524D01*
X163544638Y-69081524D02*
X163430352Y-69081524D01*
X163430352Y-69081524D02*
X163277971Y-69043428D01*
X163277971Y-69043428D02*
X163201780Y-69005333D01*
X163201780Y-69005333D02*
X163125590Y-68929143D01*
X163125590Y-68929143D02*
X163087495Y-68814857D01*
X163087495Y-68814857D02*
X163087495Y-68738666D01*
X163087495Y-68738666D02*
X163125590Y-68624381D01*
X163125590Y-68624381D02*
X163163685Y-68586285D01*
X163887495Y-67824381D02*
X163887495Y-68281524D01*
X163887495Y-68052952D02*
X163087495Y-68052952D01*
X163087495Y-68052952D02*
X163201780Y-68129143D01*
X163201780Y-68129143D02*
X163277971Y-68205333D01*
X163277971Y-68205333D02*
X163316066Y-68281524D01*
X163887495Y-67443428D02*
X163887495Y-67291047D01*
X163887495Y-67291047D02*
X163849400Y-67214857D01*
X163849400Y-67214857D02*
X163811304Y-67176761D01*
X163811304Y-67176761D02*
X163697019Y-67100571D01*
X163697019Y-67100571D02*
X163544638Y-67062476D01*
X163544638Y-67062476D02*
X163239876Y-67062476D01*
X163239876Y-67062476D02*
X163163685Y-67100571D01*
X163163685Y-67100571D02*
X163125590Y-67138666D01*
X163125590Y-67138666D02*
X163087495Y-67214857D01*
X163087495Y-67214857D02*
X163087495Y-67367238D01*
X163087495Y-67367238D02*
X163125590Y-67443428D01*
X163125590Y-67443428D02*
X163163685Y-67481523D01*
X163163685Y-67481523D02*
X163239876Y-67519619D01*
X163239876Y-67519619D02*
X163430352Y-67519619D01*
X163430352Y-67519619D02*
X163506542Y-67481523D01*
X163506542Y-67481523D02*
X163544638Y-67443428D01*
X163544638Y-67443428D02*
X163582733Y-67367238D01*
X163582733Y-67367238D02*
X163582733Y-67214857D01*
X163582733Y-67214857D02*
X163544638Y-67138666D01*
X163544638Y-67138666D02*
X163506542Y-67100571D01*
X163506542Y-67100571D02*
X163430352Y-67062476D01*
X142932504Y-67268085D02*
X142970600Y-67306181D01*
X142970600Y-67306181D02*
X143008695Y-67420466D01*
X143008695Y-67420466D02*
X143008695Y-67496657D01*
X143008695Y-67496657D02*
X142970600Y-67610943D01*
X142970600Y-67610943D02*
X142894409Y-67687133D01*
X142894409Y-67687133D02*
X142818219Y-67725228D01*
X142818219Y-67725228D02*
X142665838Y-67763324D01*
X142665838Y-67763324D02*
X142551552Y-67763324D01*
X142551552Y-67763324D02*
X142399171Y-67725228D01*
X142399171Y-67725228D02*
X142322980Y-67687133D01*
X142322980Y-67687133D02*
X142246790Y-67610943D01*
X142246790Y-67610943D02*
X142208695Y-67496657D01*
X142208695Y-67496657D02*
X142208695Y-67420466D01*
X142208695Y-67420466D02*
X142246790Y-67306181D01*
X142246790Y-67306181D02*
X142284885Y-67268085D01*
X142208695Y-67001419D02*
X142208695Y-66506181D01*
X142208695Y-66506181D02*
X142513457Y-66772847D01*
X142513457Y-66772847D02*
X142513457Y-66658562D01*
X142513457Y-66658562D02*
X142551552Y-66582371D01*
X142551552Y-66582371D02*
X142589647Y-66544276D01*
X142589647Y-66544276D02*
X142665838Y-66506181D01*
X142665838Y-66506181D02*
X142856314Y-66506181D01*
X142856314Y-66506181D02*
X142932504Y-66544276D01*
X142932504Y-66544276D02*
X142970600Y-66582371D01*
X142970600Y-66582371D02*
X143008695Y-66658562D01*
X143008695Y-66658562D02*
X143008695Y-66887133D01*
X143008695Y-66887133D02*
X142970600Y-66963324D01*
X142970600Y-66963324D02*
X142932504Y-67001419D01*
X142208695Y-66239514D02*
X142208695Y-65706180D01*
X142208695Y-65706180D02*
X143008695Y-66049038D01*
X163747514Y-64725895D02*
X163480847Y-64344942D01*
X163290371Y-64725895D02*
X163290371Y-63925895D01*
X163290371Y-63925895D02*
X163595133Y-63925895D01*
X163595133Y-63925895D02*
X163671323Y-63963990D01*
X163671323Y-63963990D02*
X163709418Y-64002085D01*
X163709418Y-64002085D02*
X163747514Y-64078276D01*
X163747514Y-64078276D02*
X163747514Y-64192561D01*
X163747514Y-64192561D02*
X163709418Y-64268752D01*
X163709418Y-64268752D02*
X163671323Y-64306847D01*
X163671323Y-64306847D02*
X163595133Y-64344942D01*
X163595133Y-64344942D02*
X163290371Y-64344942D01*
X164052275Y-64002085D02*
X164090371Y-63963990D01*
X164090371Y-63963990D02*
X164166561Y-63925895D01*
X164166561Y-63925895D02*
X164357037Y-63925895D01*
X164357037Y-63925895D02*
X164433228Y-63963990D01*
X164433228Y-63963990D02*
X164471323Y-64002085D01*
X164471323Y-64002085D02*
X164509418Y-64078276D01*
X164509418Y-64078276D02*
X164509418Y-64154466D01*
X164509418Y-64154466D02*
X164471323Y-64268752D01*
X164471323Y-64268752D02*
X164014180Y-64725895D01*
X164014180Y-64725895D02*
X164509418Y-64725895D01*
X164776085Y-63925895D02*
X165309419Y-63925895D01*
X165309419Y-63925895D02*
X164966561Y-64725895D01*
X169605080Y-102603466D02*
X169652700Y-102651085D01*
X169652700Y-102651085D02*
X169700319Y-102793942D01*
X169700319Y-102793942D02*
X169700319Y-102889180D01*
X169700319Y-102889180D02*
X169652700Y-103032037D01*
X169652700Y-103032037D02*
X169557461Y-103127275D01*
X169557461Y-103127275D02*
X169462223Y-103174894D01*
X169462223Y-103174894D02*
X169271747Y-103222513D01*
X169271747Y-103222513D02*
X169128890Y-103222513D01*
X169128890Y-103222513D02*
X168938414Y-103174894D01*
X168938414Y-103174894D02*
X168843176Y-103127275D01*
X168843176Y-103127275D02*
X168747938Y-103032037D01*
X168747938Y-103032037D02*
X168700319Y-102889180D01*
X168700319Y-102889180D02*
X168700319Y-102793942D01*
X168700319Y-102793942D02*
X168747938Y-102651085D01*
X168747938Y-102651085D02*
X168795557Y-102603466D01*
X169033652Y-101746323D02*
X169700319Y-101746323D01*
X168652700Y-101984418D02*
X169366985Y-102222513D01*
X169366985Y-102222513D02*
X169366985Y-101603466D01*
X169894914Y-81393104D02*
X169856818Y-81431200D01*
X169856818Y-81431200D02*
X169742533Y-81469295D01*
X169742533Y-81469295D02*
X169666342Y-81469295D01*
X169666342Y-81469295D02*
X169552056Y-81431200D01*
X169552056Y-81431200D02*
X169475866Y-81355009D01*
X169475866Y-81355009D02*
X169437771Y-81278819D01*
X169437771Y-81278819D02*
X169399675Y-81126438D01*
X169399675Y-81126438D02*
X169399675Y-81012152D01*
X169399675Y-81012152D02*
X169437771Y-80859771D01*
X169437771Y-80859771D02*
X169475866Y-80783580D01*
X169475866Y-80783580D02*
X169552056Y-80707390D01*
X169552056Y-80707390D02*
X169666342Y-80669295D01*
X169666342Y-80669295D02*
X169742533Y-80669295D01*
X169742533Y-80669295D02*
X169856818Y-80707390D01*
X169856818Y-80707390D02*
X169894914Y-80745485D01*
X170656818Y-81469295D02*
X170199675Y-81469295D01*
X170428247Y-81469295D02*
X170428247Y-80669295D01*
X170428247Y-80669295D02*
X170352056Y-80783580D01*
X170352056Y-80783580D02*
X170275866Y-80859771D01*
X170275866Y-80859771D02*
X170199675Y-80897866D01*
X171342533Y-80669295D02*
X171190152Y-80669295D01*
X171190152Y-80669295D02*
X171113961Y-80707390D01*
X171113961Y-80707390D02*
X171075866Y-80745485D01*
X171075866Y-80745485D02*
X170999676Y-80859771D01*
X170999676Y-80859771D02*
X170961580Y-81012152D01*
X170961580Y-81012152D02*
X170961580Y-81316914D01*
X170961580Y-81316914D02*
X170999676Y-81393104D01*
X170999676Y-81393104D02*
X171037771Y-81431200D01*
X171037771Y-81431200D02*
X171113961Y-81469295D01*
X171113961Y-81469295D02*
X171266342Y-81469295D01*
X171266342Y-81469295D02*
X171342533Y-81431200D01*
X171342533Y-81431200D02*
X171380628Y-81393104D01*
X171380628Y-81393104D02*
X171418723Y-81316914D01*
X171418723Y-81316914D02*
X171418723Y-81126438D01*
X171418723Y-81126438D02*
X171380628Y-81050247D01*
X171380628Y-81050247D02*
X171342533Y-81012152D01*
X171342533Y-81012152D02*
X171266342Y-80974057D01*
X171266342Y-80974057D02*
X171113961Y-80974057D01*
X171113961Y-80974057D02*
X171037771Y-81012152D01*
X171037771Y-81012152D02*
X170999676Y-81050247D01*
X170999676Y-81050247D02*
X170961580Y-81126438D01*
X135270104Y-76223285D02*
X135308200Y-76261381D01*
X135308200Y-76261381D02*
X135346295Y-76375666D01*
X135346295Y-76375666D02*
X135346295Y-76451857D01*
X135346295Y-76451857D02*
X135308200Y-76566143D01*
X135308200Y-76566143D02*
X135232009Y-76642333D01*
X135232009Y-76642333D02*
X135155819Y-76680428D01*
X135155819Y-76680428D02*
X135003438Y-76718524D01*
X135003438Y-76718524D02*
X134889152Y-76718524D01*
X134889152Y-76718524D02*
X134736771Y-76680428D01*
X134736771Y-76680428D02*
X134660580Y-76642333D01*
X134660580Y-76642333D02*
X134584390Y-76566143D01*
X134584390Y-76566143D02*
X134546295Y-76451857D01*
X134546295Y-76451857D02*
X134546295Y-76375666D01*
X134546295Y-76375666D02*
X134584390Y-76261381D01*
X134584390Y-76261381D02*
X134622485Y-76223285D01*
X134546295Y-75956619D02*
X134546295Y-75461381D01*
X134546295Y-75461381D02*
X134851057Y-75728047D01*
X134851057Y-75728047D02*
X134851057Y-75613762D01*
X134851057Y-75613762D02*
X134889152Y-75537571D01*
X134889152Y-75537571D02*
X134927247Y-75499476D01*
X134927247Y-75499476D02*
X135003438Y-75461381D01*
X135003438Y-75461381D02*
X135193914Y-75461381D01*
X135193914Y-75461381D02*
X135270104Y-75499476D01*
X135270104Y-75499476D02*
X135308200Y-75537571D01*
X135308200Y-75537571D02*
X135346295Y-75613762D01*
X135346295Y-75613762D02*
X135346295Y-75842333D01*
X135346295Y-75842333D02*
X135308200Y-75918524D01*
X135308200Y-75918524D02*
X135270104Y-75956619D01*
X135346295Y-74699476D02*
X135346295Y-75156619D01*
X135346295Y-74928047D02*
X134546295Y-74928047D01*
X134546295Y-74928047D02*
X134660580Y-75004238D01*
X134660580Y-75004238D02*
X134736771Y-75080428D01*
X134736771Y-75080428D02*
X134774866Y-75156619D01*
X170183200Y-63169667D02*
X170221295Y-63055381D01*
X170221295Y-63055381D02*
X170221295Y-62864905D01*
X170221295Y-62864905D02*
X170183200Y-62788714D01*
X170183200Y-62788714D02*
X170145104Y-62750619D01*
X170145104Y-62750619D02*
X170068914Y-62712524D01*
X170068914Y-62712524D02*
X169992723Y-62712524D01*
X169992723Y-62712524D02*
X169916533Y-62750619D01*
X169916533Y-62750619D02*
X169878438Y-62788714D01*
X169878438Y-62788714D02*
X169840342Y-62864905D01*
X169840342Y-62864905D02*
X169802247Y-63017286D01*
X169802247Y-63017286D02*
X169764152Y-63093476D01*
X169764152Y-63093476D02*
X169726057Y-63131571D01*
X169726057Y-63131571D02*
X169649866Y-63169667D01*
X169649866Y-63169667D02*
X169573676Y-63169667D01*
X169573676Y-63169667D02*
X169497485Y-63131571D01*
X169497485Y-63131571D02*
X169459390Y-63093476D01*
X169459390Y-63093476D02*
X169421295Y-63017286D01*
X169421295Y-63017286D02*
X169421295Y-62826809D01*
X169421295Y-62826809D02*
X169459390Y-62712524D01*
X169421295Y-62445857D02*
X170221295Y-62255381D01*
X170221295Y-62255381D02*
X169649866Y-62103000D01*
X169649866Y-62103000D02*
X170221295Y-61950619D01*
X170221295Y-61950619D02*
X169421295Y-61760143D01*
X169421295Y-61531571D02*
X169421295Y-61036333D01*
X169421295Y-61036333D02*
X169726057Y-61302999D01*
X169726057Y-61302999D02*
X169726057Y-61188714D01*
X169726057Y-61188714D02*
X169764152Y-61112523D01*
X169764152Y-61112523D02*
X169802247Y-61074428D01*
X169802247Y-61074428D02*
X169878438Y-61036333D01*
X169878438Y-61036333D02*
X170068914Y-61036333D01*
X170068914Y-61036333D02*
X170145104Y-61074428D01*
X170145104Y-61074428D02*
X170183200Y-61112523D01*
X170183200Y-61112523D02*
X170221295Y-61188714D01*
X170221295Y-61188714D02*
X170221295Y-61417285D01*
X170221295Y-61417285D02*
X170183200Y-61493476D01*
X170183200Y-61493476D02*
X170145104Y-61531571D01*
X121990914Y-91235104D02*
X121952818Y-91273200D01*
X121952818Y-91273200D02*
X121838533Y-91311295D01*
X121838533Y-91311295D02*
X121762342Y-91311295D01*
X121762342Y-91311295D02*
X121648056Y-91273200D01*
X121648056Y-91273200D02*
X121571866Y-91197009D01*
X121571866Y-91197009D02*
X121533771Y-91120819D01*
X121533771Y-91120819D02*
X121495675Y-90968438D01*
X121495675Y-90968438D02*
X121495675Y-90854152D01*
X121495675Y-90854152D02*
X121533771Y-90701771D01*
X121533771Y-90701771D02*
X121571866Y-90625580D01*
X121571866Y-90625580D02*
X121648056Y-90549390D01*
X121648056Y-90549390D02*
X121762342Y-90511295D01*
X121762342Y-90511295D02*
X121838533Y-90511295D01*
X121838533Y-90511295D02*
X121952818Y-90549390D01*
X121952818Y-90549390D02*
X121990914Y-90587485D01*
X122676628Y-90777961D02*
X122676628Y-91311295D01*
X122486152Y-90473200D02*
X122295675Y-91044628D01*
X122295675Y-91044628D02*
X122790914Y-91044628D01*
X123133771Y-91311295D02*
X123286152Y-91311295D01*
X123286152Y-91311295D02*
X123362342Y-91273200D01*
X123362342Y-91273200D02*
X123400438Y-91235104D01*
X123400438Y-91235104D02*
X123476628Y-91120819D01*
X123476628Y-91120819D02*
X123514723Y-90968438D01*
X123514723Y-90968438D02*
X123514723Y-90663676D01*
X123514723Y-90663676D02*
X123476628Y-90587485D01*
X123476628Y-90587485D02*
X123438533Y-90549390D01*
X123438533Y-90549390D02*
X123362342Y-90511295D01*
X123362342Y-90511295D02*
X123209961Y-90511295D01*
X123209961Y-90511295D02*
X123133771Y-90549390D01*
X123133771Y-90549390D02*
X123095676Y-90587485D01*
X123095676Y-90587485D02*
X123057580Y-90663676D01*
X123057580Y-90663676D02*
X123057580Y-90854152D01*
X123057580Y-90854152D02*
X123095676Y-90930342D01*
X123095676Y-90930342D02*
X123133771Y-90968438D01*
X123133771Y-90968438D02*
X123209961Y-91006533D01*
X123209961Y-91006533D02*
X123362342Y-91006533D01*
X123362342Y-91006533D02*
X123438533Y-90968438D01*
X123438533Y-90968438D02*
X123476628Y-90930342D01*
X123476628Y-90930342D02*
X123514723Y-90854152D01*
X151206276Y-60776295D02*
X151206276Y-61423914D01*
X151206276Y-61423914D02*
X151244371Y-61500104D01*
X151244371Y-61500104D02*
X151282466Y-61538200D01*
X151282466Y-61538200D02*
X151358657Y-61576295D01*
X151358657Y-61576295D02*
X151511038Y-61576295D01*
X151511038Y-61576295D02*
X151587228Y-61538200D01*
X151587228Y-61538200D02*
X151625323Y-61500104D01*
X151625323Y-61500104D02*
X151663419Y-61423914D01*
X151663419Y-61423914D02*
X151663419Y-60776295D01*
X152158656Y-61119152D02*
X152082466Y-61081057D01*
X152082466Y-61081057D02*
X152044371Y-61042961D01*
X152044371Y-61042961D02*
X152006275Y-60966771D01*
X152006275Y-60966771D02*
X152006275Y-60928676D01*
X152006275Y-60928676D02*
X152044371Y-60852485D01*
X152044371Y-60852485D02*
X152082466Y-60814390D01*
X152082466Y-60814390D02*
X152158656Y-60776295D01*
X152158656Y-60776295D02*
X152311037Y-60776295D01*
X152311037Y-60776295D02*
X152387228Y-60814390D01*
X152387228Y-60814390D02*
X152425323Y-60852485D01*
X152425323Y-60852485D02*
X152463418Y-60928676D01*
X152463418Y-60928676D02*
X152463418Y-60966771D01*
X152463418Y-60966771D02*
X152425323Y-61042961D01*
X152425323Y-61042961D02*
X152387228Y-61081057D01*
X152387228Y-61081057D02*
X152311037Y-61119152D01*
X152311037Y-61119152D02*
X152158656Y-61119152D01*
X152158656Y-61119152D02*
X152082466Y-61157247D01*
X152082466Y-61157247D02*
X152044371Y-61195342D01*
X152044371Y-61195342D02*
X152006275Y-61271533D01*
X152006275Y-61271533D02*
X152006275Y-61423914D01*
X152006275Y-61423914D02*
X152044371Y-61500104D01*
X152044371Y-61500104D02*
X152082466Y-61538200D01*
X152082466Y-61538200D02*
X152158656Y-61576295D01*
X152158656Y-61576295D02*
X152311037Y-61576295D01*
X152311037Y-61576295D02*
X152387228Y-61538200D01*
X152387228Y-61538200D02*
X152425323Y-61500104D01*
X152425323Y-61500104D02*
X152463418Y-61423914D01*
X152463418Y-61423914D02*
X152463418Y-61271533D01*
X152463418Y-61271533D02*
X152425323Y-61195342D01*
X152425323Y-61195342D02*
X152387228Y-61157247D01*
X152387228Y-61157247D02*
X152311037Y-61119152D01*
X171621514Y-65613295D02*
X171354847Y-65232342D01*
X171164371Y-65613295D02*
X171164371Y-64813295D01*
X171164371Y-64813295D02*
X171469133Y-64813295D01*
X171469133Y-64813295D02*
X171545323Y-64851390D01*
X171545323Y-64851390D02*
X171583418Y-64889485D01*
X171583418Y-64889485D02*
X171621514Y-64965676D01*
X171621514Y-64965676D02*
X171621514Y-65079961D01*
X171621514Y-65079961D02*
X171583418Y-65156152D01*
X171583418Y-65156152D02*
X171545323Y-65194247D01*
X171545323Y-65194247D02*
X171469133Y-65232342D01*
X171469133Y-65232342D02*
X171164371Y-65232342D01*
X171926275Y-64889485D02*
X171964371Y-64851390D01*
X171964371Y-64851390D02*
X172040561Y-64813295D01*
X172040561Y-64813295D02*
X172231037Y-64813295D01*
X172231037Y-64813295D02*
X172307228Y-64851390D01*
X172307228Y-64851390D02*
X172345323Y-64889485D01*
X172345323Y-64889485D02*
X172383418Y-64965676D01*
X172383418Y-64965676D02*
X172383418Y-65041866D01*
X172383418Y-65041866D02*
X172345323Y-65156152D01*
X172345323Y-65156152D02*
X171888180Y-65613295D01*
X171888180Y-65613295D02*
X172383418Y-65613295D01*
X173145323Y-65613295D02*
X172688180Y-65613295D01*
X172916752Y-65613295D02*
X172916752Y-64813295D01*
X172916752Y-64813295D02*
X172840561Y-64927580D01*
X172840561Y-64927580D02*
X172764371Y-65003771D01*
X172764371Y-65003771D02*
X172688180Y-65041866D01*
X165168019Y-85470904D02*
X165977542Y-85470904D01*
X165977542Y-85470904D02*
X166072780Y-85423285D01*
X166072780Y-85423285D02*
X166120400Y-85375666D01*
X166120400Y-85375666D02*
X166168019Y-85280428D01*
X166168019Y-85280428D02*
X166168019Y-85089952D01*
X166168019Y-85089952D02*
X166120400Y-84994714D01*
X166120400Y-84994714D02*
X166072780Y-84947095D01*
X166072780Y-84947095D02*
X165977542Y-84899476D01*
X165977542Y-84899476D02*
X165168019Y-84899476D01*
X165168019Y-83947095D02*
X165168019Y-84423285D01*
X165168019Y-84423285D02*
X165644209Y-84470904D01*
X165644209Y-84470904D02*
X165596590Y-84423285D01*
X165596590Y-84423285D02*
X165548971Y-84328047D01*
X165548971Y-84328047D02*
X165548971Y-84089952D01*
X165548971Y-84089952D02*
X165596590Y-83994714D01*
X165596590Y-83994714D02*
X165644209Y-83947095D01*
X165644209Y-83947095D02*
X165739447Y-83899476D01*
X165739447Y-83899476D02*
X165977542Y-83899476D01*
X165977542Y-83899476D02*
X166072780Y-83947095D01*
X166072780Y-83947095D02*
X166120400Y-83994714D01*
X166120400Y-83994714D02*
X166168019Y-84089952D01*
X166168019Y-84089952D02*
X166168019Y-84328047D01*
X166168019Y-84328047D02*
X166120400Y-84423285D01*
X166120400Y-84423285D02*
X166072780Y-84470904D01*
X174240866Y-77331219D02*
X174240866Y-78045504D01*
X174240866Y-78045504D02*
X174193247Y-78188361D01*
X174193247Y-78188361D02*
X174098009Y-78283600D01*
X174098009Y-78283600D02*
X173955152Y-78331219D01*
X173955152Y-78331219D02*
X173859914Y-78331219D01*
X175145628Y-77664552D02*
X175145628Y-78331219D01*
X174907533Y-77283600D02*
X174669438Y-77997885D01*
X174669438Y-77997885D02*
X175288485Y-77997885D01*
X168120904Y-88223285D02*
X168159000Y-88261381D01*
X168159000Y-88261381D02*
X168197095Y-88375666D01*
X168197095Y-88375666D02*
X168197095Y-88451857D01*
X168197095Y-88451857D02*
X168159000Y-88566143D01*
X168159000Y-88566143D02*
X168082809Y-88642333D01*
X168082809Y-88642333D02*
X168006619Y-88680428D01*
X168006619Y-88680428D02*
X167854238Y-88718524D01*
X167854238Y-88718524D02*
X167739952Y-88718524D01*
X167739952Y-88718524D02*
X167587571Y-88680428D01*
X167587571Y-88680428D02*
X167511380Y-88642333D01*
X167511380Y-88642333D02*
X167435190Y-88566143D01*
X167435190Y-88566143D02*
X167397095Y-88451857D01*
X167397095Y-88451857D02*
X167397095Y-88375666D01*
X167397095Y-88375666D02*
X167435190Y-88261381D01*
X167435190Y-88261381D02*
X167473285Y-88223285D01*
X167473285Y-87918524D02*
X167435190Y-87880428D01*
X167435190Y-87880428D02*
X167397095Y-87804238D01*
X167397095Y-87804238D02*
X167397095Y-87613762D01*
X167397095Y-87613762D02*
X167435190Y-87537571D01*
X167435190Y-87537571D02*
X167473285Y-87499476D01*
X167473285Y-87499476D02*
X167549476Y-87461381D01*
X167549476Y-87461381D02*
X167625666Y-87461381D01*
X167625666Y-87461381D02*
X167739952Y-87499476D01*
X167739952Y-87499476D02*
X168197095Y-87956619D01*
X168197095Y-87956619D02*
X168197095Y-87461381D01*
X167397095Y-87194714D02*
X167397095Y-86699476D01*
X167397095Y-86699476D02*
X167701857Y-86966142D01*
X167701857Y-86966142D02*
X167701857Y-86851857D01*
X167701857Y-86851857D02*
X167739952Y-86775666D01*
X167739952Y-86775666D02*
X167778047Y-86737571D01*
X167778047Y-86737571D02*
X167854238Y-86699476D01*
X167854238Y-86699476D02*
X168044714Y-86699476D01*
X168044714Y-86699476D02*
X168120904Y-86737571D01*
X168120904Y-86737571D02*
X168159000Y-86775666D01*
X168159000Y-86775666D02*
X168197095Y-86851857D01*
X168197095Y-86851857D02*
X168197095Y-87080428D01*
X168197095Y-87080428D02*
X168159000Y-87156619D01*
X168159000Y-87156619D02*
X168120904Y-87194714D01*
X144672114Y-100057304D02*
X144634018Y-100095400D01*
X144634018Y-100095400D02*
X144519733Y-100133495D01*
X144519733Y-100133495D02*
X144443542Y-100133495D01*
X144443542Y-100133495D02*
X144329256Y-100095400D01*
X144329256Y-100095400D02*
X144253066Y-100019209D01*
X144253066Y-100019209D02*
X144214971Y-99943019D01*
X144214971Y-99943019D02*
X144176875Y-99790638D01*
X144176875Y-99790638D02*
X144176875Y-99676352D01*
X144176875Y-99676352D02*
X144214971Y-99523971D01*
X144214971Y-99523971D02*
X144253066Y-99447780D01*
X144253066Y-99447780D02*
X144329256Y-99371590D01*
X144329256Y-99371590D02*
X144443542Y-99333495D01*
X144443542Y-99333495D02*
X144519733Y-99333495D01*
X144519733Y-99333495D02*
X144634018Y-99371590D01*
X144634018Y-99371590D02*
X144672114Y-99409685D01*
X144976875Y-99409685D02*
X145014971Y-99371590D01*
X145014971Y-99371590D02*
X145091161Y-99333495D01*
X145091161Y-99333495D02*
X145281637Y-99333495D01*
X145281637Y-99333495D02*
X145357828Y-99371590D01*
X145357828Y-99371590D02*
X145395923Y-99409685D01*
X145395923Y-99409685D02*
X145434018Y-99485876D01*
X145434018Y-99485876D02*
X145434018Y-99562066D01*
X145434018Y-99562066D02*
X145395923Y-99676352D01*
X145395923Y-99676352D02*
X144938780Y-100133495D01*
X144938780Y-100133495D02*
X145434018Y-100133495D01*
X146119733Y-99600161D02*
X146119733Y-100133495D01*
X145929257Y-99295400D02*
X145738780Y-99866828D01*
X145738780Y-99866828D02*
X146234019Y-99866828D01*
X171408333Y-110284419D02*
X171075000Y-109808228D01*
X170836905Y-110284419D02*
X170836905Y-109284419D01*
X170836905Y-109284419D02*
X171217857Y-109284419D01*
X171217857Y-109284419D02*
X171313095Y-109332038D01*
X171313095Y-109332038D02*
X171360714Y-109379657D01*
X171360714Y-109379657D02*
X171408333Y-109474895D01*
X171408333Y-109474895D02*
X171408333Y-109617752D01*
X171408333Y-109617752D02*
X171360714Y-109712990D01*
X171360714Y-109712990D02*
X171313095Y-109760609D01*
X171313095Y-109760609D02*
X171217857Y-109808228D01*
X171217857Y-109808228D02*
X170836905Y-109808228D01*
X171741667Y-109284419D02*
X172408333Y-109284419D01*
X172408333Y-109284419D02*
X171979762Y-110284419D01*
X133191314Y-64878304D02*
X133153218Y-64916400D01*
X133153218Y-64916400D02*
X133038933Y-64954495D01*
X133038933Y-64954495D02*
X132962742Y-64954495D01*
X132962742Y-64954495D02*
X132848456Y-64916400D01*
X132848456Y-64916400D02*
X132772266Y-64840209D01*
X132772266Y-64840209D02*
X132734171Y-64764019D01*
X132734171Y-64764019D02*
X132696075Y-64611638D01*
X132696075Y-64611638D02*
X132696075Y-64497352D01*
X132696075Y-64497352D02*
X132734171Y-64344971D01*
X132734171Y-64344971D02*
X132772266Y-64268780D01*
X132772266Y-64268780D02*
X132848456Y-64192590D01*
X132848456Y-64192590D02*
X132962742Y-64154495D01*
X132962742Y-64154495D02*
X133038933Y-64154495D01*
X133038933Y-64154495D02*
X133153218Y-64192590D01*
X133153218Y-64192590D02*
X133191314Y-64230685D01*
X133953218Y-64954495D02*
X133496075Y-64954495D01*
X133724647Y-64954495D02*
X133724647Y-64154495D01*
X133724647Y-64154495D02*
X133648456Y-64268780D01*
X133648456Y-64268780D02*
X133572266Y-64344971D01*
X133572266Y-64344971D02*
X133496075Y-64383066D01*
X134257980Y-64230685D02*
X134296076Y-64192590D01*
X134296076Y-64192590D02*
X134372266Y-64154495D01*
X134372266Y-64154495D02*
X134562742Y-64154495D01*
X134562742Y-64154495D02*
X134638933Y-64192590D01*
X134638933Y-64192590D02*
X134677028Y-64230685D01*
X134677028Y-64230685D02*
X134715123Y-64306876D01*
X134715123Y-64306876D02*
X134715123Y-64383066D01*
X134715123Y-64383066D02*
X134677028Y-64497352D01*
X134677028Y-64497352D02*
X134219885Y-64954495D01*
X134219885Y-64954495D02*
X134715123Y-64954495D01*
X169035505Y-75105419D02*
X169035505Y-74105419D01*
X169035505Y-74105419D02*
X169273600Y-74105419D01*
X169273600Y-74105419D02*
X169416457Y-74153038D01*
X169416457Y-74153038D02*
X169511695Y-74248276D01*
X169511695Y-74248276D02*
X169559314Y-74343514D01*
X169559314Y-74343514D02*
X169606933Y-74533990D01*
X169606933Y-74533990D02*
X169606933Y-74676847D01*
X169606933Y-74676847D02*
X169559314Y-74867323D01*
X169559314Y-74867323D02*
X169511695Y-74962561D01*
X169511695Y-74962561D02*
X169416457Y-75057800D01*
X169416457Y-75057800D02*
X169273600Y-75105419D01*
X169273600Y-75105419D02*
X169035505Y-75105419D01*
X170559314Y-75105419D02*
X169987886Y-75105419D01*
X170273600Y-75105419D02*
X170273600Y-74105419D01*
X170273600Y-74105419D02*
X170178362Y-74248276D01*
X170178362Y-74248276D02*
X170083124Y-74343514D01*
X170083124Y-74343514D02*
X169987886Y-74391133D01*
X155069404Y-67689485D02*
X155107500Y-67727581D01*
X155107500Y-67727581D02*
X155145595Y-67841866D01*
X155145595Y-67841866D02*
X155145595Y-67918057D01*
X155145595Y-67918057D02*
X155107500Y-68032343D01*
X155107500Y-68032343D02*
X155031309Y-68108533D01*
X155031309Y-68108533D02*
X154955119Y-68146628D01*
X154955119Y-68146628D02*
X154802738Y-68184724D01*
X154802738Y-68184724D02*
X154688452Y-68184724D01*
X154688452Y-68184724D02*
X154536071Y-68146628D01*
X154536071Y-68146628D02*
X154459880Y-68108533D01*
X154459880Y-68108533D02*
X154383690Y-68032343D01*
X154383690Y-68032343D02*
X154345595Y-67918057D01*
X154345595Y-67918057D02*
X154345595Y-67841866D01*
X154345595Y-67841866D02*
X154383690Y-67727581D01*
X154383690Y-67727581D02*
X154421785Y-67689485D01*
X154345595Y-67422819D02*
X154345595Y-66927581D01*
X154345595Y-66927581D02*
X154650357Y-67194247D01*
X154650357Y-67194247D02*
X154650357Y-67079962D01*
X154650357Y-67079962D02*
X154688452Y-67003771D01*
X154688452Y-67003771D02*
X154726547Y-66965676D01*
X154726547Y-66965676D02*
X154802738Y-66927581D01*
X154802738Y-66927581D02*
X154993214Y-66927581D01*
X154993214Y-66927581D02*
X155069404Y-66965676D01*
X155069404Y-66965676D02*
X155107500Y-67003771D01*
X155107500Y-67003771D02*
X155145595Y-67079962D01*
X155145595Y-67079962D02*
X155145595Y-67308533D01*
X155145595Y-67308533D02*
X155107500Y-67384724D01*
X155107500Y-67384724D02*
X155069404Y-67422819D01*
X154345595Y-66241866D02*
X154345595Y-66394247D01*
X154345595Y-66394247D02*
X154383690Y-66470438D01*
X154383690Y-66470438D02*
X154421785Y-66508533D01*
X154421785Y-66508533D02*
X154536071Y-66584723D01*
X154536071Y-66584723D02*
X154688452Y-66622819D01*
X154688452Y-66622819D02*
X154993214Y-66622819D01*
X154993214Y-66622819D02*
X155069404Y-66584723D01*
X155069404Y-66584723D02*
X155107500Y-66546628D01*
X155107500Y-66546628D02*
X155145595Y-66470438D01*
X155145595Y-66470438D02*
X155145595Y-66318057D01*
X155145595Y-66318057D02*
X155107500Y-66241866D01*
X155107500Y-66241866D02*
X155069404Y-66203771D01*
X155069404Y-66203771D02*
X154993214Y-66165676D01*
X154993214Y-66165676D02*
X154802738Y-66165676D01*
X154802738Y-66165676D02*
X154726547Y-66203771D01*
X154726547Y-66203771D02*
X154688452Y-66241866D01*
X154688452Y-66241866D02*
X154650357Y-66318057D01*
X154650357Y-66318057D02*
X154650357Y-66470438D01*
X154650357Y-66470438D02*
X154688452Y-66546628D01*
X154688452Y-66546628D02*
X154726547Y-66584723D01*
X154726547Y-66584723D02*
X154802738Y-66622819D01*
X158083314Y-98990504D02*
X158045218Y-99028600D01*
X158045218Y-99028600D02*
X157930933Y-99066695D01*
X157930933Y-99066695D02*
X157854742Y-99066695D01*
X157854742Y-99066695D02*
X157740456Y-99028600D01*
X157740456Y-99028600D02*
X157664266Y-98952409D01*
X157664266Y-98952409D02*
X157626171Y-98876219D01*
X157626171Y-98876219D02*
X157588075Y-98723838D01*
X157588075Y-98723838D02*
X157588075Y-98609552D01*
X157588075Y-98609552D02*
X157626171Y-98457171D01*
X157626171Y-98457171D02*
X157664266Y-98380980D01*
X157664266Y-98380980D02*
X157740456Y-98304790D01*
X157740456Y-98304790D02*
X157854742Y-98266695D01*
X157854742Y-98266695D02*
X157930933Y-98266695D01*
X157930933Y-98266695D02*
X158045218Y-98304790D01*
X158045218Y-98304790D02*
X158083314Y-98342885D01*
X158845218Y-99066695D02*
X158388075Y-99066695D01*
X158616647Y-99066695D02*
X158616647Y-98266695D01*
X158616647Y-98266695D02*
X158540456Y-98380980D01*
X158540456Y-98380980D02*
X158464266Y-98457171D01*
X158464266Y-98457171D02*
X158388075Y-98495266D01*
X159302361Y-98609552D02*
X159226171Y-98571457D01*
X159226171Y-98571457D02*
X159188076Y-98533361D01*
X159188076Y-98533361D02*
X159149980Y-98457171D01*
X159149980Y-98457171D02*
X159149980Y-98419076D01*
X159149980Y-98419076D02*
X159188076Y-98342885D01*
X159188076Y-98342885D02*
X159226171Y-98304790D01*
X159226171Y-98304790D02*
X159302361Y-98266695D01*
X159302361Y-98266695D02*
X159454742Y-98266695D01*
X159454742Y-98266695D02*
X159530933Y-98304790D01*
X159530933Y-98304790D02*
X159569028Y-98342885D01*
X159569028Y-98342885D02*
X159607123Y-98419076D01*
X159607123Y-98419076D02*
X159607123Y-98457171D01*
X159607123Y-98457171D02*
X159569028Y-98533361D01*
X159569028Y-98533361D02*
X159530933Y-98571457D01*
X159530933Y-98571457D02*
X159454742Y-98609552D01*
X159454742Y-98609552D02*
X159302361Y-98609552D01*
X159302361Y-98609552D02*
X159226171Y-98647647D01*
X159226171Y-98647647D02*
X159188076Y-98685742D01*
X159188076Y-98685742D02*
X159149980Y-98761933D01*
X159149980Y-98761933D02*
X159149980Y-98914314D01*
X159149980Y-98914314D02*
X159188076Y-98990504D01*
X159188076Y-98990504D02*
X159226171Y-99028600D01*
X159226171Y-99028600D02*
X159302361Y-99066695D01*
X159302361Y-99066695D02*
X159454742Y-99066695D01*
X159454742Y-99066695D02*
X159530933Y-99028600D01*
X159530933Y-99028600D02*
X159569028Y-98990504D01*
X159569028Y-98990504D02*
X159607123Y-98914314D01*
X159607123Y-98914314D02*
X159607123Y-98761933D01*
X159607123Y-98761933D02*
X159569028Y-98685742D01*
X159569028Y-98685742D02*
X159530933Y-98647647D01*
X159530933Y-98647647D02*
X159454742Y-98609552D01*
X168666200Y-124536067D02*
X168704295Y-124421781D01*
X168704295Y-124421781D02*
X168704295Y-124231305D01*
X168704295Y-124231305D02*
X168666200Y-124155114D01*
X168666200Y-124155114D02*
X168628104Y-124117019D01*
X168628104Y-124117019D02*
X168551914Y-124078924D01*
X168551914Y-124078924D02*
X168475723Y-124078924D01*
X168475723Y-124078924D02*
X168399533Y-124117019D01*
X168399533Y-124117019D02*
X168361438Y-124155114D01*
X168361438Y-124155114D02*
X168323342Y-124231305D01*
X168323342Y-124231305D02*
X168285247Y-124383686D01*
X168285247Y-124383686D02*
X168247152Y-124459876D01*
X168247152Y-124459876D02*
X168209057Y-124497971D01*
X168209057Y-124497971D02*
X168132866Y-124536067D01*
X168132866Y-124536067D02*
X168056676Y-124536067D01*
X168056676Y-124536067D02*
X167980485Y-124497971D01*
X167980485Y-124497971D02*
X167942390Y-124459876D01*
X167942390Y-124459876D02*
X167904295Y-124383686D01*
X167904295Y-124383686D02*
X167904295Y-124193209D01*
X167904295Y-124193209D02*
X167942390Y-124078924D01*
X167904295Y-123812257D02*
X168704295Y-123621781D01*
X168704295Y-123621781D02*
X168132866Y-123469400D01*
X168132866Y-123469400D02*
X168704295Y-123317019D01*
X168704295Y-123317019D02*
X167904295Y-123126543D01*
X167980485Y-122859876D02*
X167942390Y-122821780D01*
X167942390Y-122821780D02*
X167904295Y-122745590D01*
X167904295Y-122745590D02*
X167904295Y-122555114D01*
X167904295Y-122555114D02*
X167942390Y-122478923D01*
X167942390Y-122478923D02*
X167980485Y-122440828D01*
X167980485Y-122440828D02*
X168056676Y-122402733D01*
X168056676Y-122402733D02*
X168132866Y-122402733D01*
X168132866Y-122402733D02*
X168247152Y-122440828D01*
X168247152Y-122440828D02*
X168704295Y-122897971D01*
X168704295Y-122897971D02*
X168704295Y-122402733D01*
X136201504Y-67367085D02*
X136239600Y-67405181D01*
X136239600Y-67405181D02*
X136277695Y-67519466D01*
X136277695Y-67519466D02*
X136277695Y-67595657D01*
X136277695Y-67595657D02*
X136239600Y-67709943D01*
X136239600Y-67709943D02*
X136163409Y-67786133D01*
X136163409Y-67786133D02*
X136087219Y-67824228D01*
X136087219Y-67824228D02*
X135934838Y-67862324D01*
X135934838Y-67862324D02*
X135820552Y-67862324D01*
X135820552Y-67862324D02*
X135668171Y-67824228D01*
X135668171Y-67824228D02*
X135591980Y-67786133D01*
X135591980Y-67786133D02*
X135515790Y-67709943D01*
X135515790Y-67709943D02*
X135477695Y-67595657D01*
X135477695Y-67595657D02*
X135477695Y-67519466D01*
X135477695Y-67519466D02*
X135515790Y-67405181D01*
X135515790Y-67405181D02*
X135553885Y-67367085D01*
X135744361Y-66681371D02*
X136277695Y-66681371D01*
X135439600Y-66871847D02*
X136011028Y-67062324D01*
X136011028Y-67062324D02*
X136011028Y-66567085D01*
X135553885Y-66300419D02*
X135515790Y-66262323D01*
X135515790Y-66262323D02*
X135477695Y-66186133D01*
X135477695Y-66186133D02*
X135477695Y-65995657D01*
X135477695Y-65995657D02*
X135515790Y-65919466D01*
X135515790Y-65919466D02*
X135553885Y-65881371D01*
X135553885Y-65881371D02*
X135630076Y-65843276D01*
X135630076Y-65843276D02*
X135706266Y-65843276D01*
X135706266Y-65843276D02*
X135820552Y-65881371D01*
X135820552Y-65881371D02*
X136277695Y-66338514D01*
X136277695Y-66338514D02*
X136277695Y-65843276D01*
X124166333Y-104702780D02*
X124118714Y-104750400D01*
X124118714Y-104750400D02*
X123975857Y-104798019D01*
X123975857Y-104798019D02*
X123880619Y-104798019D01*
X123880619Y-104798019D02*
X123737762Y-104750400D01*
X123737762Y-104750400D02*
X123642524Y-104655161D01*
X123642524Y-104655161D02*
X123594905Y-104559923D01*
X123594905Y-104559923D02*
X123547286Y-104369447D01*
X123547286Y-104369447D02*
X123547286Y-104226590D01*
X123547286Y-104226590D02*
X123594905Y-104036114D01*
X123594905Y-104036114D02*
X123642524Y-103940876D01*
X123642524Y-103940876D02*
X123737762Y-103845638D01*
X123737762Y-103845638D02*
X123880619Y-103798019D01*
X123880619Y-103798019D02*
X123975857Y-103798019D01*
X123975857Y-103798019D02*
X124118714Y-103845638D01*
X124118714Y-103845638D02*
X124166333Y-103893257D01*
X124499667Y-103798019D02*
X125118714Y-103798019D01*
X125118714Y-103798019D02*
X124785381Y-104178971D01*
X124785381Y-104178971D02*
X124928238Y-104178971D01*
X124928238Y-104178971D02*
X125023476Y-104226590D01*
X125023476Y-104226590D02*
X125071095Y-104274209D01*
X125071095Y-104274209D02*
X125118714Y-104369447D01*
X125118714Y-104369447D02*
X125118714Y-104607542D01*
X125118714Y-104607542D02*
X125071095Y-104702780D01*
X125071095Y-104702780D02*
X125023476Y-104750400D01*
X125023476Y-104750400D02*
X124928238Y-104798019D01*
X124928238Y-104798019D02*
X124642524Y-104798019D01*
X124642524Y-104798019D02*
X124547286Y-104750400D01*
X124547286Y-104750400D02*
X124499667Y-104702780D01*
X138683104Y-69157485D02*
X138721200Y-69195581D01*
X138721200Y-69195581D02*
X138759295Y-69309866D01*
X138759295Y-69309866D02*
X138759295Y-69386057D01*
X138759295Y-69386057D02*
X138721200Y-69500343D01*
X138721200Y-69500343D02*
X138645009Y-69576533D01*
X138645009Y-69576533D02*
X138568819Y-69614628D01*
X138568819Y-69614628D02*
X138416438Y-69652724D01*
X138416438Y-69652724D02*
X138302152Y-69652724D01*
X138302152Y-69652724D02*
X138149771Y-69614628D01*
X138149771Y-69614628D02*
X138073580Y-69576533D01*
X138073580Y-69576533D02*
X137997390Y-69500343D01*
X137997390Y-69500343D02*
X137959295Y-69386057D01*
X137959295Y-69386057D02*
X137959295Y-69309866D01*
X137959295Y-69309866D02*
X137997390Y-69195581D01*
X137997390Y-69195581D02*
X138035485Y-69157485D01*
X138035485Y-68852724D02*
X137997390Y-68814628D01*
X137997390Y-68814628D02*
X137959295Y-68738438D01*
X137959295Y-68738438D02*
X137959295Y-68547962D01*
X137959295Y-68547962D02*
X137997390Y-68471771D01*
X137997390Y-68471771D02*
X138035485Y-68433676D01*
X138035485Y-68433676D02*
X138111676Y-68395581D01*
X138111676Y-68395581D02*
X138187866Y-68395581D01*
X138187866Y-68395581D02*
X138302152Y-68433676D01*
X138302152Y-68433676D02*
X138759295Y-68890819D01*
X138759295Y-68890819D02*
X138759295Y-68395581D01*
X137959295Y-67900342D02*
X137959295Y-67824152D01*
X137959295Y-67824152D02*
X137997390Y-67747961D01*
X137997390Y-67747961D02*
X138035485Y-67709866D01*
X138035485Y-67709866D02*
X138111676Y-67671771D01*
X138111676Y-67671771D02*
X138264057Y-67633676D01*
X138264057Y-67633676D02*
X138454533Y-67633676D01*
X138454533Y-67633676D02*
X138606914Y-67671771D01*
X138606914Y-67671771D02*
X138683104Y-67709866D01*
X138683104Y-67709866D02*
X138721200Y-67747961D01*
X138721200Y-67747961D02*
X138759295Y-67824152D01*
X138759295Y-67824152D02*
X138759295Y-67900342D01*
X138759295Y-67900342D02*
X138721200Y-67976533D01*
X138721200Y-67976533D02*
X138683104Y-68014628D01*
X138683104Y-68014628D02*
X138606914Y-68052723D01*
X138606914Y-68052723D02*
X138454533Y-68090819D01*
X138454533Y-68090819D02*
X138264057Y-68090819D01*
X138264057Y-68090819D02*
X138111676Y-68052723D01*
X138111676Y-68052723D02*
X138035485Y-68014628D01*
X138035485Y-68014628D02*
X137997390Y-67976533D01*
X137997390Y-67976533D02*
X137959295Y-67900342D01*
X166848314Y-65919695D02*
X166581647Y-65538742D01*
X166391171Y-65919695D02*
X166391171Y-65119695D01*
X166391171Y-65119695D02*
X166695933Y-65119695D01*
X166695933Y-65119695D02*
X166772123Y-65157790D01*
X166772123Y-65157790D02*
X166810218Y-65195885D01*
X166810218Y-65195885D02*
X166848314Y-65272076D01*
X166848314Y-65272076D02*
X166848314Y-65386361D01*
X166848314Y-65386361D02*
X166810218Y-65462552D01*
X166810218Y-65462552D02*
X166772123Y-65500647D01*
X166772123Y-65500647D02*
X166695933Y-65538742D01*
X166695933Y-65538742D02*
X166391171Y-65538742D01*
X167153075Y-65195885D02*
X167191171Y-65157790D01*
X167191171Y-65157790D02*
X167267361Y-65119695D01*
X167267361Y-65119695D02*
X167457837Y-65119695D01*
X167457837Y-65119695D02*
X167534028Y-65157790D01*
X167534028Y-65157790D02*
X167572123Y-65195885D01*
X167572123Y-65195885D02*
X167610218Y-65272076D01*
X167610218Y-65272076D02*
X167610218Y-65348266D01*
X167610218Y-65348266D02*
X167572123Y-65462552D01*
X167572123Y-65462552D02*
X167114980Y-65919695D01*
X167114980Y-65919695D02*
X167610218Y-65919695D01*
X167914980Y-65195885D02*
X167953076Y-65157790D01*
X167953076Y-65157790D02*
X168029266Y-65119695D01*
X168029266Y-65119695D02*
X168219742Y-65119695D01*
X168219742Y-65119695D02*
X168295933Y-65157790D01*
X168295933Y-65157790D02*
X168334028Y-65195885D01*
X168334028Y-65195885D02*
X168372123Y-65272076D01*
X168372123Y-65272076D02*
X168372123Y-65348266D01*
X168372123Y-65348266D02*
X168334028Y-65462552D01*
X168334028Y-65462552D02*
X167876885Y-65919695D01*
X167876885Y-65919695D02*
X168372123Y-65919695D01*
X124166333Y-106093419D02*
X123833000Y-105617228D01*
X123594905Y-106093419D02*
X123594905Y-105093419D01*
X123594905Y-105093419D02*
X123975857Y-105093419D01*
X123975857Y-105093419D02*
X124071095Y-105141038D01*
X124071095Y-105141038D02*
X124118714Y-105188657D01*
X124118714Y-105188657D02*
X124166333Y-105283895D01*
X124166333Y-105283895D02*
X124166333Y-105426752D01*
X124166333Y-105426752D02*
X124118714Y-105521990D01*
X124118714Y-105521990D02*
X124071095Y-105569609D01*
X124071095Y-105569609D02*
X123975857Y-105617228D01*
X123975857Y-105617228D02*
X123594905Y-105617228D01*
X125071095Y-105093419D02*
X124594905Y-105093419D01*
X124594905Y-105093419D02*
X124547286Y-105569609D01*
X124547286Y-105569609D02*
X124594905Y-105521990D01*
X124594905Y-105521990D02*
X124690143Y-105474371D01*
X124690143Y-105474371D02*
X124928238Y-105474371D01*
X124928238Y-105474371D02*
X125023476Y-105521990D01*
X125023476Y-105521990D02*
X125071095Y-105569609D01*
X125071095Y-105569609D02*
X125118714Y-105664847D01*
X125118714Y-105664847D02*
X125118714Y-105902942D01*
X125118714Y-105902942D02*
X125071095Y-105998180D01*
X125071095Y-105998180D02*
X125023476Y-106045800D01*
X125023476Y-106045800D02*
X124928238Y-106093419D01*
X124928238Y-106093419D02*
X124690143Y-106093419D01*
X124690143Y-106093419D02*
X124594905Y-106045800D01*
X124594905Y-106045800D02*
X124547286Y-105998180D01*
X116135495Y-72853485D02*
X115754542Y-73120152D01*
X116135495Y-73310628D02*
X115335495Y-73310628D01*
X115335495Y-73310628D02*
X115335495Y-73005866D01*
X115335495Y-73005866D02*
X115373590Y-72929676D01*
X115373590Y-72929676D02*
X115411685Y-72891581D01*
X115411685Y-72891581D02*
X115487876Y-72853485D01*
X115487876Y-72853485D02*
X115602161Y-72853485D01*
X115602161Y-72853485D02*
X115678352Y-72891581D01*
X115678352Y-72891581D02*
X115716447Y-72929676D01*
X115716447Y-72929676D02*
X115754542Y-73005866D01*
X115754542Y-73005866D02*
X115754542Y-73310628D01*
X116135495Y-72091581D02*
X116135495Y-72548724D01*
X116135495Y-72320152D02*
X115335495Y-72320152D01*
X115335495Y-72320152D02*
X115449780Y-72396343D01*
X115449780Y-72396343D02*
X115525971Y-72472533D01*
X115525971Y-72472533D02*
X115564066Y-72548724D01*
X116135495Y-71710628D02*
X116135495Y-71558247D01*
X116135495Y-71558247D02*
X116097400Y-71482057D01*
X116097400Y-71482057D02*
X116059304Y-71443961D01*
X116059304Y-71443961D02*
X115945019Y-71367771D01*
X115945019Y-71367771D02*
X115792638Y-71329676D01*
X115792638Y-71329676D02*
X115487876Y-71329676D01*
X115487876Y-71329676D02*
X115411685Y-71367771D01*
X115411685Y-71367771D02*
X115373590Y-71405866D01*
X115373590Y-71405866D02*
X115335495Y-71482057D01*
X115335495Y-71482057D02*
X115335495Y-71634438D01*
X115335495Y-71634438D02*
X115373590Y-71710628D01*
X115373590Y-71710628D02*
X115411685Y-71748723D01*
X115411685Y-71748723D02*
X115487876Y-71786819D01*
X115487876Y-71786819D02*
X115678352Y-71786819D01*
X115678352Y-71786819D02*
X115754542Y-71748723D01*
X115754542Y-71748723D02*
X115792638Y-71710628D01*
X115792638Y-71710628D02*
X115830733Y-71634438D01*
X115830733Y-71634438D02*
X115830733Y-71482057D01*
X115830733Y-71482057D02*
X115792638Y-71405866D01*
X115792638Y-71405866D02*
X115754542Y-71367771D01*
X115754542Y-71367771D02*
X115678352Y-71329676D01*
X175670380Y-118513266D02*
X175718000Y-118560885D01*
X175718000Y-118560885D02*
X175765619Y-118703742D01*
X175765619Y-118703742D02*
X175765619Y-118798980D01*
X175765619Y-118798980D02*
X175718000Y-118941837D01*
X175718000Y-118941837D02*
X175622761Y-119037075D01*
X175622761Y-119037075D02*
X175527523Y-119084694D01*
X175527523Y-119084694D02*
X175337047Y-119132313D01*
X175337047Y-119132313D02*
X175194190Y-119132313D01*
X175194190Y-119132313D02*
X175003714Y-119084694D01*
X175003714Y-119084694D02*
X174908476Y-119037075D01*
X174908476Y-119037075D02*
X174813238Y-118941837D01*
X174813238Y-118941837D02*
X174765619Y-118798980D01*
X174765619Y-118798980D02*
X174765619Y-118703742D01*
X174765619Y-118703742D02*
X174813238Y-118560885D01*
X174813238Y-118560885D02*
X174860857Y-118513266D01*
X175765619Y-117560885D02*
X175765619Y-118132313D01*
X175765619Y-117846599D02*
X174765619Y-117846599D01*
X174765619Y-117846599D02*
X174908476Y-117941837D01*
X174908476Y-117941837D02*
X175003714Y-118037075D01*
X175003714Y-118037075D02*
X175051333Y-118132313D01*
X132315076Y-65551495D02*
X132772219Y-65551495D01*
X132543647Y-66351495D02*
X132543647Y-65551495D01*
X133038886Y-66351495D02*
X133038886Y-65551495D01*
X133038886Y-65551495D02*
X133343648Y-65551495D01*
X133343648Y-65551495D02*
X133419838Y-65589590D01*
X133419838Y-65589590D02*
X133457933Y-65627685D01*
X133457933Y-65627685D02*
X133496029Y-65703876D01*
X133496029Y-65703876D02*
X133496029Y-65818161D01*
X133496029Y-65818161D02*
X133457933Y-65894352D01*
X133457933Y-65894352D02*
X133419838Y-65932447D01*
X133419838Y-65932447D02*
X133343648Y-65970542D01*
X133343648Y-65970542D02*
X133038886Y-65970542D01*
X134257933Y-66351495D02*
X133800790Y-66351495D01*
X134029362Y-66351495D02*
X134029362Y-65551495D01*
X134029362Y-65551495D02*
X133953171Y-65665780D01*
X133953171Y-65665780D02*
X133876981Y-65741971D01*
X133876981Y-65741971D02*
X133800790Y-65780066D01*
X148304314Y-64167095D02*
X148037647Y-63786142D01*
X147847171Y-64167095D02*
X147847171Y-63367095D01*
X147847171Y-63367095D02*
X148151933Y-63367095D01*
X148151933Y-63367095D02*
X148228123Y-63405190D01*
X148228123Y-63405190D02*
X148266218Y-63443285D01*
X148266218Y-63443285D02*
X148304314Y-63519476D01*
X148304314Y-63519476D02*
X148304314Y-63633761D01*
X148304314Y-63633761D02*
X148266218Y-63709952D01*
X148266218Y-63709952D02*
X148228123Y-63748047D01*
X148228123Y-63748047D02*
X148151933Y-63786142D01*
X148151933Y-63786142D02*
X147847171Y-63786142D01*
X148609075Y-63443285D02*
X148647171Y-63405190D01*
X148647171Y-63405190D02*
X148723361Y-63367095D01*
X148723361Y-63367095D02*
X148913837Y-63367095D01*
X148913837Y-63367095D02*
X148990028Y-63405190D01*
X148990028Y-63405190D02*
X149028123Y-63443285D01*
X149028123Y-63443285D02*
X149066218Y-63519476D01*
X149066218Y-63519476D02*
X149066218Y-63595666D01*
X149066218Y-63595666D02*
X149028123Y-63709952D01*
X149028123Y-63709952D02*
X148570980Y-64167095D01*
X148570980Y-64167095D02*
X149066218Y-64167095D01*
X149332885Y-63367095D02*
X149828123Y-63367095D01*
X149828123Y-63367095D02*
X149561457Y-63671857D01*
X149561457Y-63671857D02*
X149675742Y-63671857D01*
X149675742Y-63671857D02*
X149751933Y-63709952D01*
X149751933Y-63709952D02*
X149790028Y-63748047D01*
X149790028Y-63748047D02*
X149828123Y-63824238D01*
X149828123Y-63824238D02*
X149828123Y-64014714D01*
X149828123Y-64014714D02*
X149790028Y-64090904D01*
X149790028Y-64090904D02*
X149751933Y-64129000D01*
X149751933Y-64129000D02*
X149675742Y-64167095D01*
X149675742Y-64167095D02*
X149447171Y-64167095D01*
X149447171Y-64167095D02*
X149370980Y-64129000D01*
X149370980Y-64129000D02*
X149332885Y-64090904D01*
X163747514Y-63461895D02*
X163480847Y-63080942D01*
X163290371Y-63461895D02*
X163290371Y-62661895D01*
X163290371Y-62661895D02*
X163595133Y-62661895D01*
X163595133Y-62661895D02*
X163671323Y-62699990D01*
X163671323Y-62699990D02*
X163709418Y-62738085D01*
X163709418Y-62738085D02*
X163747514Y-62814276D01*
X163747514Y-62814276D02*
X163747514Y-62928561D01*
X163747514Y-62928561D02*
X163709418Y-63004752D01*
X163709418Y-63004752D02*
X163671323Y-63042847D01*
X163671323Y-63042847D02*
X163595133Y-63080942D01*
X163595133Y-63080942D02*
X163290371Y-63080942D01*
X164052275Y-62738085D02*
X164090371Y-62699990D01*
X164090371Y-62699990D02*
X164166561Y-62661895D01*
X164166561Y-62661895D02*
X164357037Y-62661895D01*
X164357037Y-62661895D02*
X164433228Y-62699990D01*
X164433228Y-62699990D02*
X164471323Y-62738085D01*
X164471323Y-62738085D02*
X164509418Y-62814276D01*
X164509418Y-62814276D02*
X164509418Y-62890466D01*
X164509418Y-62890466D02*
X164471323Y-63004752D01*
X164471323Y-63004752D02*
X164014180Y-63461895D01*
X164014180Y-63461895D02*
X164509418Y-63461895D01*
X164966561Y-63004752D02*
X164890371Y-62966657D01*
X164890371Y-62966657D02*
X164852276Y-62928561D01*
X164852276Y-62928561D02*
X164814180Y-62852371D01*
X164814180Y-62852371D02*
X164814180Y-62814276D01*
X164814180Y-62814276D02*
X164852276Y-62738085D01*
X164852276Y-62738085D02*
X164890371Y-62699990D01*
X164890371Y-62699990D02*
X164966561Y-62661895D01*
X164966561Y-62661895D02*
X165118942Y-62661895D01*
X165118942Y-62661895D02*
X165195133Y-62699990D01*
X165195133Y-62699990D02*
X165233228Y-62738085D01*
X165233228Y-62738085D02*
X165271323Y-62814276D01*
X165271323Y-62814276D02*
X165271323Y-62852371D01*
X165271323Y-62852371D02*
X165233228Y-62928561D01*
X165233228Y-62928561D02*
X165195133Y-62966657D01*
X165195133Y-62966657D02*
X165118942Y-63004752D01*
X165118942Y-63004752D02*
X164966561Y-63004752D01*
X164966561Y-63004752D02*
X164890371Y-63042847D01*
X164890371Y-63042847D02*
X164852276Y-63080942D01*
X164852276Y-63080942D02*
X164814180Y-63157133D01*
X164814180Y-63157133D02*
X164814180Y-63309514D01*
X164814180Y-63309514D02*
X164852276Y-63385704D01*
X164852276Y-63385704D02*
X164890371Y-63423800D01*
X164890371Y-63423800D02*
X164966561Y-63461895D01*
X164966561Y-63461895D02*
X165118942Y-63461895D01*
X165118942Y-63461895D02*
X165195133Y-63423800D01*
X165195133Y-63423800D02*
X165233228Y-63385704D01*
X165233228Y-63385704D02*
X165271323Y-63309514D01*
X165271323Y-63309514D02*
X165271323Y-63157133D01*
X165271323Y-63157133D02*
X165233228Y-63080942D01*
X165233228Y-63080942D02*
X165195133Y-63042847D01*
X165195133Y-63042847D02*
X165118942Y-63004752D01*
X121990914Y-72890304D02*
X121952818Y-72928400D01*
X121952818Y-72928400D02*
X121838533Y-72966495D01*
X121838533Y-72966495D02*
X121762342Y-72966495D01*
X121762342Y-72966495D02*
X121648056Y-72928400D01*
X121648056Y-72928400D02*
X121571866Y-72852209D01*
X121571866Y-72852209D02*
X121533771Y-72776019D01*
X121533771Y-72776019D02*
X121495675Y-72623638D01*
X121495675Y-72623638D02*
X121495675Y-72509352D01*
X121495675Y-72509352D02*
X121533771Y-72356971D01*
X121533771Y-72356971D02*
X121571866Y-72280780D01*
X121571866Y-72280780D02*
X121648056Y-72204590D01*
X121648056Y-72204590D02*
X121762342Y-72166495D01*
X121762342Y-72166495D02*
X121838533Y-72166495D01*
X121838533Y-72166495D02*
X121952818Y-72204590D01*
X121952818Y-72204590D02*
X121990914Y-72242685D01*
X122676628Y-72433161D02*
X122676628Y-72966495D01*
X122486152Y-72128400D02*
X122295675Y-72699828D01*
X122295675Y-72699828D02*
X122790914Y-72699828D01*
X123438533Y-72166495D02*
X123286152Y-72166495D01*
X123286152Y-72166495D02*
X123209961Y-72204590D01*
X123209961Y-72204590D02*
X123171866Y-72242685D01*
X123171866Y-72242685D02*
X123095676Y-72356971D01*
X123095676Y-72356971D02*
X123057580Y-72509352D01*
X123057580Y-72509352D02*
X123057580Y-72814114D01*
X123057580Y-72814114D02*
X123095676Y-72890304D01*
X123095676Y-72890304D02*
X123133771Y-72928400D01*
X123133771Y-72928400D02*
X123209961Y-72966495D01*
X123209961Y-72966495D02*
X123362342Y-72966495D01*
X123362342Y-72966495D02*
X123438533Y-72928400D01*
X123438533Y-72928400D02*
X123476628Y-72890304D01*
X123476628Y-72890304D02*
X123514723Y-72814114D01*
X123514723Y-72814114D02*
X123514723Y-72623638D01*
X123514723Y-72623638D02*
X123476628Y-72547447D01*
X123476628Y-72547447D02*
X123438533Y-72509352D01*
X123438533Y-72509352D02*
X123362342Y-72471257D01*
X123362342Y-72471257D02*
X123209961Y-72471257D01*
X123209961Y-72471257D02*
X123133771Y-72509352D01*
X123133771Y-72509352D02*
X123095676Y-72547447D01*
X123095676Y-72547447D02*
X123057580Y-72623638D01*
X140818914Y-101217304D02*
X140780818Y-101255400D01*
X140780818Y-101255400D02*
X140666533Y-101293495D01*
X140666533Y-101293495D02*
X140590342Y-101293495D01*
X140590342Y-101293495D02*
X140476056Y-101255400D01*
X140476056Y-101255400D02*
X140399866Y-101179209D01*
X140399866Y-101179209D02*
X140361771Y-101103019D01*
X140361771Y-101103019D02*
X140323675Y-100950638D01*
X140323675Y-100950638D02*
X140323675Y-100836352D01*
X140323675Y-100836352D02*
X140361771Y-100683971D01*
X140361771Y-100683971D02*
X140399866Y-100607780D01*
X140399866Y-100607780D02*
X140476056Y-100531590D01*
X140476056Y-100531590D02*
X140590342Y-100493495D01*
X140590342Y-100493495D02*
X140666533Y-100493495D01*
X140666533Y-100493495D02*
X140780818Y-100531590D01*
X140780818Y-100531590D02*
X140818914Y-100569685D01*
X141085580Y-100493495D02*
X141580818Y-100493495D01*
X141580818Y-100493495D02*
X141314152Y-100798257D01*
X141314152Y-100798257D02*
X141428437Y-100798257D01*
X141428437Y-100798257D02*
X141504628Y-100836352D01*
X141504628Y-100836352D02*
X141542723Y-100874447D01*
X141542723Y-100874447D02*
X141580818Y-100950638D01*
X141580818Y-100950638D02*
X141580818Y-101141114D01*
X141580818Y-101141114D02*
X141542723Y-101217304D01*
X141542723Y-101217304D02*
X141504628Y-101255400D01*
X141504628Y-101255400D02*
X141428437Y-101293495D01*
X141428437Y-101293495D02*
X141199866Y-101293495D01*
X141199866Y-101293495D02*
X141123675Y-101255400D01*
X141123675Y-101255400D02*
X141085580Y-101217304D01*
X142076057Y-100493495D02*
X142152247Y-100493495D01*
X142152247Y-100493495D02*
X142228438Y-100531590D01*
X142228438Y-100531590D02*
X142266533Y-100569685D01*
X142266533Y-100569685D02*
X142304628Y-100645876D01*
X142304628Y-100645876D02*
X142342723Y-100798257D01*
X142342723Y-100798257D02*
X142342723Y-100988733D01*
X142342723Y-100988733D02*
X142304628Y-101141114D01*
X142304628Y-101141114D02*
X142266533Y-101217304D01*
X142266533Y-101217304D02*
X142228438Y-101255400D01*
X142228438Y-101255400D02*
X142152247Y-101293495D01*
X142152247Y-101293495D02*
X142076057Y-101293495D01*
X142076057Y-101293495D02*
X141999866Y-101255400D01*
X141999866Y-101255400D02*
X141961771Y-101217304D01*
X141961771Y-101217304D02*
X141923676Y-101141114D01*
X141923676Y-101141114D02*
X141885580Y-100988733D01*
X141885580Y-100988733D02*
X141885580Y-100798257D01*
X141885580Y-100798257D02*
X141923676Y-100645876D01*
X141923676Y-100645876D02*
X141961771Y-100569685D01*
X141961771Y-100569685D02*
X141999866Y-100531590D01*
X141999866Y-100531590D02*
X142076057Y-100493495D01*
X120420619Y-91886066D02*
X119944428Y-92219399D01*
X120420619Y-92457494D02*
X119420619Y-92457494D01*
X119420619Y-92457494D02*
X119420619Y-92076542D01*
X119420619Y-92076542D02*
X119468238Y-91981304D01*
X119468238Y-91981304D02*
X119515857Y-91933685D01*
X119515857Y-91933685D02*
X119611095Y-91886066D01*
X119611095Y-91886066D02*
X119753952Y-91886066D01*
X119753952Y-91886066D02*
X119849190Y-91933685D01*
X119849190Y-91933685D02*
X119896809Y-91981304D01*
X119896809Y-91981304D02*
X119944428Y-92076542D01*
X119944428Y-92076542D02*
X119944428Y-92457494D01*
X120420619Y-90933685D02*
X120420619Y-91505113D01*
X120420619Y-91219399D02*
X119420619Y-91219399D01*
X119420619Y-91219399D02*
X119563476Y-91314637D01*
X119563476Y-91314637D02*
X119658714Y-91409875D01*
X119658714Y-91409875D02*
X119706333Y-91505113D01*
X125873514Y-68891504D02*
X125835418Y-68929600D01*
X125835418Y-68929600D02*
X125721133Y-68967695D01*
X125721133Y-68967695D02*
X125644942Y-68967695D01*
X125644942Y-68967695D02*
X125530656Y-68929600D01*
X125530656Y-68929600D02*
X125454466Y-68853409D01*
X125454466Y-68853409D02*
X125416371Y-68777219D01*
X125416371Y-68777219D02*
X125378275Y-68624838D01*
X125378275Y-68624838D02*
X125378275Y-68510552D01*
X125378275Y-68510552D02*
X125416371Y-68358171D01*
X125416371Y-68358171D02*
X125454466Y-68281980D01*
X125454466Y-68281980D02*
X125530656Y-68205790D01*
X125530656Y-68205790D02*
X125644942Y-68167695D01*
X125644942Y-68167695D02*
X125721133Y-68167695D01*
X125721133Y-68167695D02*
X125835418Y-68205790D01*
X125835418Y-68205790D02*
X125873514Y-68243885D01*
X126635418Y-68967695D02*
X126178275Y-68967695D01*
X126406847Y-68967695D02*
X126406847Y-68167695D01*
X126406847Y-68167695D02*
X126330656Y-68281980D01*
X126330656Y-68281980D02*
X126254466Y-68358171D01*
X126254466Y-68358171D02*
X126178275Y-68396266D01*
X127321133Y-68434361D02*
X127321133Y-68967695D01*
X127130657Y-68129600D02*
X126940180Y-68701028D01*
X126940180Y-68701028D02*
X127435419Y-68701028D01*
X166464109Y-100960133D02*
X166464109Y-101293466D01*
X166987919Y-101293466D02*
X165987919Y-101293466D01*
X165987919Y-101293466D02*
X165987919Y-100817276D01*
X166464109Y-100102990D02*
X166511728Y-99960133D01*
X166511728Y-99960133D02*
X166559347Y-99912514D01*
X166559347Y-99912514D02*
X166654585Y-99864895D01*
X166654585Y-99864895D02*
X166797442Y-99864895D01*
X166797442Y-99864895D02*
X166892680Y-99912514D01*
X166892680Y-99912514D02*
X166940300Y-99960133D01*
X166940300Y-99960133D02*
X166987919Y-100055371D01*
X166987919Y-100055371D02*
X166987919Y-100436323D01*
X166987919Y-100436323D02*
X165987919Y-100436323D01*
X165987919Y-100436323D02*
X165987919Y-100102990D01*
X165987919Y-100102990D02*
X166035538Y-100007752D01*
X166035538Y-100007752D02*
X166083157Y-99960133D01*
X166083157Y-99960133D02*
X166178395Y-99912514D01*
X166178395Y-99912514D02*
X166273633Y-99912514D01*
X166273633Y-99912514D02*
X166368871Y-99960133D01*
X166368871Y-99960133D02*
X166416490Y-100007752D01*
X166416490Y-100007752D02*
X166464109Y-100102990D01*
X166464109Y-100102990D02*
X166464109Y-100436323D01*
X166987919Y-98912514D02*
X166987919Y-99483942D01*
X166987919Y-99198228D02*
X165987919Y-99198228D01*
X165987919Y-99198228D02*
X166130776Y-99293466D01*
X166130776Y-99293466D02*
X166226014Y-99388704D01*
X166226014Y-99388704D02*
X166273633Y-99483942D01*
X132289676Y-67735895D02*
X132746819Y-67735895D01*
X132518247Y-68535895D02*
X132518247Y-67735895D01*
X133013486Y-68535895D02*
X133013486Y-67735895D01*
X133013486Y-67735895D02*
X133318248Y-67735895D01*
X133318248Y-67735895D02*
X133394438Y-67773990D01*
X133394438Y-67773990D02*
X133432533Y-67812085D01*
X133432533Y-67812085D02*
X133470629Y-67888276D01*
X133470629Y-67888276D02*
X133470629Y-68002561D01*
X133470629Y-68002561D02*
X133432533Y-68078752D01*
X133432533Y-68078752D02*
X133394438Y-68116847D01*
X133394438Y-68116847D02*
X133318248Y-68154942D01*
X133318248Y-68154942D02*
X133013486Y-68154942D01*
X133775390Y-67812085D02*
X133813486Y-67773990D01*
X133813486Y-67773990D02*
X133889676Y-67735895D01*
X133889676Y-67735895D02*
X134080152Y-67735895D01*
X134080152Y-67735895D02*
X134156343Y-67773990D01*
X134156343Y-67773990D02*
X134194438Y-67812085D01*
X134194438Y-67812085D02*
X134232533Y-67888276D01*
X134232533Y-67888276D02*
X134232533Y-67964466D01*
X134232533Y-67964466D02*
X134194438Y-68078752D01*
X134194438Y-68078752D02*
X133737295Y-68535895D01*
X133737295Y-68535895D02*
X134232533Y-68535895D01*
X156233019Y-101113057D02*
X155756828Y-101446390D01*
X156233019Y-101684485D02*
X155233019Y-101684485D01*
X155233019Y-101684485D02*
X155233019Y-101303533D01*
X155233019Y-101303533D02*
X155280638Y-101208295D01*
X155280638Y-101208295D02*
X155328257Y-101160676D01*
X155328257Y-101160676D02*
X155423495Y-101113057D01*
X155423495Y-101113057D02*
X155566352Y-101113057D01*
X155566352Y-101113057D02*
X155661590Y-101160676D01*
X155661590Y-101160676D02*
X155709209Y-101208295D01*
X155709209Y-101208295D02*
X155756828Y-101303533D01*
X155756828Y-101303533D02*
X155756828Y-101684485D01*
X156233019Y-100160676D02*
X156233019Y-100732104D01*
X156233019Y-100446390D02*
X155233019Y-100446390D01*
X155233019Y-100446390D02*
X155375876Y-100541628D01*
X155375876Y-100541628D02*
X155471114Y-100636866D01*
X155471114Y-100636866D02*
X155518733Y-100732104D01*
X155233019Y-99541628D02*
X155233019Y-99446390D01*
X155233019Y-99446390D02*
X155280638Y-99351152D01*
X155280638Y-99351152D02*
X155328257Y-99303533D01*
X155328257Y-99303533D02*
X155423495Y-99255914D01*
X155423495Y-99255914D02*
X155613971Y-99208295D01*
X155613971Y-99208295D02*
X155852066Y-99208295D01*
X155852066Y-99208295D02*
X156042542Y-99255914D01*
X156042542Y-99255914D02*
X156137780Y-99303533D01*
X156137780Y-99303533D02*
X156185400Y-99351152D01*
X156185400Y-99351152D02*
X156233019Y-99446390D01*
X156233019Y-99446390D02*
X156233019Y-99541628D01*
X156233019Y-99541628D02*
X156185400Y-99636866D01*
X156185400Y-99636866D02*
X156137780Y-99684485D01*
X156137780Y-99684485D02*
X156042542Y-99732104D01*
X156042542Y-99732104D02*
X155852066Y-99779723D01*
X155852066Y-99779723D02*
X155613971Y-99779723D01*
X155613971Y-99779723D02*
X155423495Y-99732104D01*
X155423495Y-99732104D02*
X155328257Y-99684485D01*
X155328257Y-99684485D02*
X155280638Y-99636866D01*
X155280638Y-99636866D02*
X155233019Y-99541628D01*
X166190433Y-115626219D02*
X165857100Y-115150028D01*
X165619005Y-115626219D02*
X165619005Y-114626219D01*
X165619005Y-114626219D02*
X165999957Y-114626219D01*
X165999957Y-114626219D02*
X166095195Y-114673838D01*
X166095195Y-114673838D02*
X166142814Y-114721457D01*
X166142814Y-114721457D02*
X166190433Y-114816695D01*
X166190433Y-114816695D02*
X166190433Y-114959552D01*
X166190433Y-114959552D02*
X166142814Y-115054790D01*
X166142814Y-115054790D02*
X166095195Y-115102409D01*
X166095195Y-115102409D02*
X165999957Y-115150028D01*
X165999957Y-115150028D02*
X165619005Y-115150028D01*
X166571386Y-114721457D02*
X166619005Y-114673838D01*
X166619005Y-114673838D02*
X166714243Y-114626219D01*
X166714243Y-114626219D02*
X166952338Y-114626219D01*
X166952338Y-114626219D02*
X167047576Y-114673838D01*
X167047576Y-114673838D02*
X167095195Y-114721457D01*
X167095195Y-114721457D02*
X167142814Y-114816695D01*
X167142814Y-114816695D02*
X167142814Y-114911933D01*
X167142814Y-114911933D02*
X167095195Y-115054790D01*
X167095195Y-115054790D02*
X166523767Y-115626219D01*
X166523767Y-115626219D02*
X167142814Y-115626219D01*
X165093714Y-119141104D02*
X165055618Y-119179200D01*
X165055618Y-119179200D02*
X164941333Y-119217295D01*
X164941333Y-119217295D02*
X164865142Y-119217295D01*
X164865142Y-119217295D02*
X164750856Y-119179200D01*
X164750856Y-119179200D02*
X164674666Y-119103009D01*
X164674666Y-119103009D02*
X164636571Y-119026819D01*
X164636571Y-119026819D02*
X164598475Y-118874438D01*
X164598475Y-118874438D02*
X164598475Y-118760152D01*
X164598475Y-118760152D02*
X164636571Y-118607771D01*
X164636571Y-118607771D02*
X164674666Y-118531580D01*
X164674666Y-118531580D02*
X164750856Y-118455390D01*
X164750856Y-118455390D02*
X164865142Y-118417295D01*
X164865142Y-118417295D02*
X164941333Y-118417295D01*
X164941333Y-118417295D02*
X165055618Y-118455390D01*
X165055618Y-118455390D02*
X165093714Y-118493485D01*
X165360380Y-118417295D02*
X165855618Y-118417295D01*
X165855618Y-118417295D02*
X165588952Y-118722057D01*
X165588952Y-118722057D02*
X165703237Y-118722057D01*
X165703237Y-118722057D02*
X165779428Y-118760152D01*
X165779428Y-118760152D02*
X165817523Y-118798247D01*
X165817523Y-118798247D02*
X165855618Y-118874438D01*
X165855618Y-118874438D02*
X165855618Y-119064914D01*
X165855618Y-119064914D02*
X165817523Y-119141104D01*
X165817523Y-119141104D02*
X165779428Y-119179200D01*
X165779428Y-119179200D02*
X165703237Y-119217295D01*
X165703237Y-119217295D02*
X165474666Y-119217295D01*
X165474666Y-119217295D02*
X165398475Y-119179200D01*
X165398475Y-119179200D02*
X165360380Y-119141104D01*
X166236571Y-119217295D02*
X166388952Y-119217295D01*
X166388952Y-119217295D02*
X166465142Y-119179200D01*
X166465142Y-119179200D02*
X166503238Y-119141104D01*
X166503238Y-119141104D02*
X166579428Y-119026819D01*
X166579428Y-119026819D02*
X166617523Y-118874438D01*
X166617523Y-118874438D02*
X166617523Y-118569676D01*
X166617523Y-118569676D02*
X166579428Y-118493485D01*
X166579428Y-118493485D02*
X166541333Y-118455390D01*
X166541333Y-118455390D02*
X166465142Y-118417295D01*
X166465142Y-118417295D02*
X166312761Y-118417295D01*
X166312761Y-118417295D02*
X166236571Y-118455390D01*
X166236571Y-118455390D02*
X166198476Y-118493485D01*
X166198476Y-118493485D02*
X166160380Y-118569676D01*
X166160380Y-118569676D02*
X166160380Y-118760152D01*
X166160380Y-118760152D02*
X166198476Y-118836342D01*
X166198476Y-118836342D02*
X166236571Y-118874438D01*
X166236571Y-118874438D02*
X166312761Y-118912533D01*
X166312761Y-118912533D02*
X166465142Y-118912533D01*
X166465142Y-118912533D02*
X166541333Y-118874438D01*
X166541333Y-118874438D02*
X166579428Y-118836342D01*
X166579428Y-118836342D02*
X166617523Y-118760152D01*
X135270104Y-82723285D02*
X135308200Y-82761381D01*
X135308200Y-82761381D02*
X135346295Y-82875666D01*
X135346295Y-82875666D02*
X135346295Y-82951857D01*
X135346295Y-82951857D02*
X135308200Y-83066143D01*
X135308200Y-83066143D02*
X135232009Y-83142333D01*
X135232009Y-83142333D02*
X135155819Y-83180428D01*
X135155819Y-83180428D02*
X135003438Y-83218524D01*
X135003438Y-83218524D02*
X134889152Y-83218524D01*
X134889152Y-83218524D02*
X134736771Y-83180428D01*
X134736771Y-83180428D02*
X134660580Y-83142333D01*
X134660580Y-83142333D02*
X134584390Y-83066143D01*
X134584390Y-83066143D02*
X134546295Y-82951857D01*
X134546295Y-82951857D02*
X134546295Y-82875666D01*
X134546295Y-82875666D02*
X134584390Y-82761381D01*
X134584390Y-82761381D02*
X134622485Y-82723285D01*
X134622485Y-82418524D02*
X134584390Y-82380428D01*
X134584390Y-82380428D02*
X134546295Y-82304238D01*
X134546295Y-82304238D02*
X134546295Y-82113762D01*
X134546295Y-82113762D02*
X134584390Y-82037571D01*
X134584390Y-82037571D02*
X134622485Y-81999476D01*
X134622485Y-81999476D02*
X134698676Y-81961381D01*
X134698676Y-81961381D02*
X134774866Y-81961381D01*
X134774866Y-81961381D02*
X134889152Y-81999476D01*
X134889152Y-81999476D02*
X135346295Y-82456619D01*
X135346295Y-82456619D02*
X135346295Y-81961381D01*
X134546295Y-81694714D02*
X134546295Y-81161380D01*
X134546295Y-81161380D02*
X135346295Y-81504238D01*
X157503048Y-69109742D02*
X157503048Y-69490695D01*
X157236381Y-68690695D02*
X157503048Y-69109742D01*
X157503048Y-69109742D02*
X157769714Y-68690695D01*
X157998285Y-68766885D02*
X158036381Y-68728790D01*
X158036381Y-68728790D02*
X158112571Y-68690695D01*
X158112571Y-68690695D02*
X158303047Y-68690695D01*
X158303047Y-68690695D02*
X158379238Y-68728790D01*
X158379238Y-68728790D02*
X158417333Y-68766885D01*
X158417333Y-68766885D02*
X158455428Y-68843076D01*
X158455428Y-68843076D02*
X158455428Y-68919266D01*
X158455428Y-68919266D02*
X158417333Y-69033552D01*
X158417333Y-69033552D02*
X157960190Y-69490695D01*
X157960190Y-69490695D02*
X158455428Y-69490695D01*
X148659914Y-101632095D02*
X148393247Y-101251142D01*
X148202771Y-101632095D02*
X148202771Y-100832095D01*
X148202771Y-100832095D02*
X148507533Y-100832095D01*
X148507533Y-100832095D02*
X148583723Y-100870190D01*
X148583723Y-100870190D02*
X148621818Y-100908285D01*
X148621818Y-100908285D02*
X148659914Y-100984476D01*
X148659914Y-100984476D02*
X148659914Y-101098761D01*
X148659914Y-101098761D02*
X148621818Y-101174952D01*
X148621818Y-101174952D02*
X148583723Y-101213047D01*
X148583723Y-101213047D02*
X148507533Y-101251142D01*
X148507533Y-101251142D02*
X148202771Y-101251142D01*
X149421818Y-101632095D02*
X148964675Y-101632095D01*
X149193247Y-101632095D02*
X149193247Y-100832095D01*
X149193247Y-100832095D02*
X149117056Y-100946380D01*
X149117056Y-100946380D02*
X149040866Y-101022571D01*
X149040866Y-101022571D02*
X148964675Y-101060666D01*
X150107533Y-101098761D02*
X150107533Y-101632095D01*
X149917057Y-100794000D02*
X149726580Y-101365428D01*
X149726580Y-101365428D02*
X150221819Y-101365428D01*
X127210914Y-104332961D02*
X126944247Y-103952008D01*
X126753771Y-104332961D02*
X126753771Y-103532961D01*
X126753771Y-103532961D02*
X127058533Y-103532961D01*
X127058533Y-103532961D02*
X127134723Y-103571056D01*
X127134723Y-103571056D02*
X127172818Y-103609151D01*
X127172818Y-103609151D02*
X127210914Y-103685342D01*
X127210914Y-103685342D02*
X127210914Y-103799627D01*
X127210914Y-103799627D02*
X127172818Y-103875818D01*
X127172818Y-103875818D02*
X127134723Y-103913913D01*
X127134723Y-103913913D02*
X127058533Y-103952008D01*
X127058533Y-103952008D02*
X126753771Y-103952008D01*
X127972818Y-104332961D02*
X127515675Y-104332961D01*
X127744247Y-104332961D02*
X127744247Y-103532961D01*
X127744247Y-103532961D02*
X127668056Y-103647246D01*
X127668056Y-103647246D02*
X127591866Y-103723437D01*
X127591866Y-103723437D02*
X127515675Y-103761532D01*
X128239485Y-103532961D02*
X128734723Y-103532961D01*
X128734723Y-103532961D02*
X128468057Y-103837723D01*
X128468057Y-103837723D02*
X128582342Y-103837723D01*
X128582342Y-103837723D02*
X128658533Y-103875818D01*
X128658533Y-103875818D02*
X128696628Y-103913913D01*
X128696628Y-103913913D02*
X128734723Y-103990104D01*
X128734723Y-103990104D02*
X128734723Y-104180580D01*
X128734723Y-104180580D02*
X128696628Y-104256770D01*
X128696628Y-104256770D02*
X128658533Y-104294866D01*
X128658533Y-104294866D02*
X128582342Y-104332961D01*
X128582342Y-104332961D02*
X128353771Y-104332961D01*
X128353771Y-104332961D02*
X128277580Y-104294866D01*
X128277580Y-104294866D02*
X128239485Y-104256770D01*
X127439504Y-70668485D02*
X127477600Y-70706581D01*
X127477600Y-70706581D02*
X127515695Y-70820866D01*
X127515695Y-70820866D02*
X127515695Y-70897057D01*
X127515695Y-70897057D02*
X127477600Y-71011343D01*
X127477600Y-71011343D02*
X127401409Y-71087533D01*
X127401409Y-71087533D02*
X127325219Y-71125628D01*
X127325219Y-71125628D02*
X127172838Y-71163724D01*
X127172838Y-71163724D02*
X127058552Y-71163724D01*
X127058552Y-71163724D02*
X126906171Y-71125628D01*
X126906171Y-71125628D02*
X126829980Y-71087533D01*
X126829980Y-71087533D02*
X126753790Y-71011343D01*
X126753790Y-71011343D02*
X126715695Y-70897057D01*
X126715695Y-70897057D02*
X126715695Y-70820866D01*
X126715695Y-70820866D02*
X126753790Y-70706581D01*
X126753790Y-70706581D02*
X126791885Y-70668485D01*
X127515695Y-69906581D02*
X127515695Y-70363724D01*
X127515695Y-70135152D02*
X126715695Y-70135152D01*
X126715695Y-70135152D02*
X126829980Y-70211343D01*
X126829980Y-70211343D02*
X126906171Y-70287533D01*
X126906171Y-70287533D02*
X126944266Y-70363724D01*
X126715695Y-69639914D02*
X126715695Y-69144676D01*
X126715695Y-69144676D02*
X127020457Y-69411342D01*
X127020457Y-69411342D02*
X127020457Y-69297057D01*
X127020457Y-69297057D02*
X127058552Y-69220866D01*
X127058552Y-69220866D02*
X127096647Y-69182771D01*
X127096647Y-69182771D02*
X127172838Y-69144676D01*
X127172838Y-69144676D02*
X127363314Y-69144676D01*
X127363314Y-69144676D02*
X127439504Y-69182771D01*
X127439504Y-69182771D02*
X127477600Y-69220866D01*
X127477600Y-69220866D02*
X127515695Y-69297057D01*
X127515695Y-69297057D02*
X127515695Y-69525628D01*
X127515695Y-69525628D02*
X127477600Y-69601819D01*
X127477600Y-69601819D02*
X127439504Y-69639914D01*
X134880114Y-90075104D02*
X134842018Y-90113200D01*
X134842018Y-90113200D02*
X134727733Y-90151295D01*
X134727733Y-90151295D02*
X134651542Y-90151295D01*
X134651542Y-90151295D02*
X134537256Y-90113200D01*
X134537256Y-90113200D02*
X134461066Y-90037009D01*
X134461066Y-90037009D02*
X134422971Y-89960819D01*
X134422971Y-89960819D02*
X134384875Y-89808438D01*
X134384875Y-89808438D02*
X134384875Y-89694152D01*
X134384875Y-89694152D02*
X134422971Y-89541771D01*
X134422971Y-89541771D02*
X134461066Y-89465580D01*
X134461066Y-89465580D02*
X134537256Y-89389390D01*
X134537256Y-89389390D02*
X134651542Y-89351295D01*
X134651542Y-89351295D02*
X134727733Y-89351295D01*
X134727733Y-89351295D02*
X134842018Y-89389390D01*
X134842018Y-89389390D02*
X134880114Y-89427485D01*
X135642018Y-90151295D02*
X135184875Y-90151295D01*
X135413447Y-90151295D02*
X135413447Y-89351295D01*
X135413447Y-89351295D02*
X135337256Y-89465580D01*
X135337256Y-89465580D02*
X135261066Y-89541771D01*
X135261066Y-89541771D02*
X135184875Y-89579866D01*
X135908685Y-89351295D02*
X136442019Y-89351295D01*
X136442019Y-89351295D02*
X136099161Y-90151295D01*
X161279304Y-100765485D02*
X161317400Y-100803581D01*
X161317400Y-100803581D02*
X161355495Y-100917866D01*
X161355495Y-100917866D02*
X161355495Y-100994057D01*
X161355495Y-100994057D02*
X161317400Y-101108343D01*
X161317400Y-101108343D02*
X161241209Y-101184533D01*
X161241209Y-101184533D02*
X161165019Y-101222628D01*
X161165019Y-101222628D02*
X161012638Y-101260724D01*
X161012638Y-101260724D02*
X160898352Y-101260724D01*
X160898352Y-101260724D02*
X160745971Y-101222628D01*
X160745971Y-101222628D02*
X160669780Y-101184533D01*
X160669780Y-101184533D02*
X160593590Y-101108343D01*
X160593590Y-101108343D02*
X160555495Y-100994057D01*
X160555495Y-100994057D02*
X160555495Y-100917866D01*
X160555495Y-100917866D02*
X160593590Y-100803581D01*
X160593590Y-100803581D02*
X160631685Y-100765485D01*
X160631685Y-100460724D02*
X160593590Y-100422628D01*
X160593590Y-100422628D02*
X160555495Y-100346438D01*
X160555495Y-100346438D02*
X160555495Y-100155962D01*
X160555495Y-100155962D02*
X160593590Y-100079771D01*
X160593590Y-100079771D02*
X160631685Y-100041676D01*
X160631685Y-100041676D02*
X160707876Y-100003581D01*
X160707876Y-100003581D02*
X160784066Y-100003581D01*
X160784066Y-100003581D02*
X160898352Y-100041676D01*
X160898352Y-100041676D02*
X161355495Y-100498819D01*
X161355495Y-100498819D02*
X161355495Y-100003581D01*
X160555495Y-99279771D02*
X160555495Y-99660723D01*
X160555495Y-99660723D02*
X160936447Y-99698819D01*
X160936447Y-99698819D02*
X160898352Y-99660723D01*
X160898352Y-99660723D02*
X160860257Y-99584533D01*
X160860257Y-99584533D02*
X160860257Y-99394057D01*
X160860257Y-99394057D02*
X160898352Y-99317866D01*
X160898352Y-99317866D02*
X160936447Y-99279771D01*
X160936447Y-99279771D02*
X161012638Y-99241676D01*
X161012638Y-99241676D02*
X161203114Y-99241676D01*
X161203114Y-99241676D02*
X161279304Y-99279771D01*
X161279304Y-99279771D02*
X161317400Y-99317866D01*
X161317400Y-99317866D02*
X161355495Y-99394057D01*
X161355495Y-99394057D02*
X161355495Y-99584533D01*
X161355495Y-99584533D02*
X161317400Y-99660723D01*
X161317400Y-99660723D02*
X161279304Y-99698819D01*
X113297133Y-70533419D02*
X112963800Y-70057228D01*
X112725705Y-70533419D02*
X112725705Y-69533419D01*
X112725705Y-69533419D02*
X113106657Y-69533419D01*
X113106657Y-69533419D02*
X113201895Y-69581038D01*
X113201895Y-69581038D02*
X113249514Y-69628657D01*
X113249514Y-69628657D02*
X113297133Y-69723895D01*
X113297133Y-69723895D02*
X113297133Y-69866752D01*
X113297133Y-69866752D02*
X113249514Y-69961990D01*
X113249514Y-69961990D02*
X113201895Y-70009609D01*
X113201895Y-70009609D02*
X113106657Y-70057228D01*
X113106657Y-70057228D02*
X112725705Y-70057228D01*
X113868562Y-69961990D02*
X113773324Y-69914371D01*
X113773324Y-69914371D02*
X113725705Y-69866752D01*
X113725705Y-69866752D02*
X113678086Y-69771514D01*
X113678086Y-69771514D02*
X113678086Y-69723895D01*
X113678086Y-69723895D02*
X113725705Y-69628657D01*
X113725705Y-69628657D02*
X113773324Y-69581038D01*
X113773324Y-69581038D02*
X113868562Y-69533419D01*
X113868562Y-69533419D02*
X114059038Y-69533419D01*
X114059038Y-69533419D02*
X114154276Y-69581038D01*
X114154276Y-69581038D02*
X114201895Y-69628657D01*
X114201895Y-69628657D02*
X114249514Y-69723895D01*
X114249514Y-69723895D02*
X114249514Y-69771514D01*
X114249514Y-69771514D02*
X114201895Y-69866752D01*
X114201895Y-69866752D02*
X114154276Y-69914371D01*
X114154276Y-69914371D02*
X114059038Y-69961990D01*
X114059038Y-69961990D02*
X113868562Y-69961990D01*
X113868562Y-69961990D02*
X113773324Y-70009609D01*
X113773324Y-70009609D02*
X113725705Y-70057228D01*
X113725705Y-70057228D02*
X113678086Y-70152466D01*
X113678086Y-70152466D02*
X113678086Y-70342942D01*
X113678086Y-70342942D02*
X113725705Y-70438180D01*
X113725705Y-70438180D02*
X113773324Y-70485800D01*
X113773324Y-70485800D02*
X113868562Y-70533419D01*
X113868562Y-70533419D02*
X114059038Y-70533419D01*
X114059038Y-70533419D02*
X114154276Y-70485800D01*
X114154276Y-70485800D02*
X114201895Y-70438180D01*
X114201895Y-70438180D02*
X114249514Y-70342942D01*
X114249514Y-70342942D02*
X114249514Y-70152466D01*
X114249514Y-70152466D02*
X114201895Y-70057228D01*
X114201895Y-70057228D02*
X114154276Y-70009609D01*
X114154276Y-70009609D02*
X114059038Y-69961990D01*
X141586304Y-67268085D02*
X141624400Y-67306181D01*
X141624400Y-67306181D02*
X141662495Y-67420466D01*
X141662495Y-67420466D02*
X141662495Y-67496657D01*
X141662495Y-67496657D02*
X141624400Y-67610943D01*
X141624400Y-67610943D02*
X141548209Y-67687133D01*
X141548209Y-67687133D02*
X141472019Y-67725228D01*
X141472019Y-67725228D02*
X141319638Y-67763324D01*
X141319638Y-67763324D02*
X141205352Y-67763324D01*
X141205352Y-67763324D02*
X141052971Y-67725228D01*
X141052971Y-67725228D02*
X140976780Y-67687133D01*
X140976780Y-67687133D02*
X140900590Y-67610943D01*
X140900590Y-67610943D02*
X140862495Y-67496657D01*
X140862495Y-67496657D02*
X140862495Y-67420466D01*
X140862495Y-67420466D02*
X140900590Y-67306181D01*
X140900590Y-67306181D02*
X140938685Y-67268085D01*
X140862495Y-67001419D02*
X140862495Y-66506181D01*
X140862495Y-66506181D02*
X141167257Y-66772847D01*
X141167257Y-66772847D02*
X141167257Y-66658562D01*
X141167257Y-66658562D02*
X141205352Y-66582371D01*
X141205352Y-66582371D02*
X141243447Y-66544276D01*
X141243447Y-66544276D02*
X141319638Y-66506181D01*
X141319638Y-66506181D02*
X141510114Y-66506181D01*
X141510114Y-66506181D02*
X141586304Y-66544276D01*
X141586304Y-66544276D02*
X141624400Y-66582371D01*
X141624400Y-66582371D02*
X141662495Y-66658562D01*
X141662495Y-66658562D02*
X141662495Y-66887133D01*
X141662495Y-66887133D02*
X141624400Y-66963324D01*
X141624400Y-66963324D02*
X141586304Y-67001419D01*
X141205352Y-66049038D02*
X141167257Y-66125228D01*
X141167257Y-66125228D02*
X141129161Y-66163323D01*
X141129161Y-66163323D02*
X141052971Y-66201419D01*
X141052971Y-66201419D02*
X141014876Y-66201419D01*
X141014876Y-66201419D02*
X140938685Y-66163323D01*
X140938685Y-66163323D02*
X140900590Y-66125228D01*
X140900590Y-66125228D02*
X140862495Y-66049038D01*
X140862495Y-66049038D02*
X140862495Y-65896657D01*
X140862495Y-65896657D02*
X140900590Y-65820466D01*
X140900590Y-65820466D02*
X140938685Y-65782371D01*
X140938685Y-65782371D02*
X141014876Y-65744276D01*
X141014876Y-65744276D02*
X141052971Y-65744276D01*
X141052971Y-65744276D02*
X141129161Y-65782371D01*
X141129161Y-65782371D02*
X141167257Y-65820466D01*
X141167257Y-65820466D02*
X141205352Y-65896657D01*
X141205352Y-65896657D02*
X141205352Y-66049038D01*
X141205352Y-66049038D02*
X141243447Y-66125228D01*
X141243447Y-66125228D02*
X141281542Y-66163323D01*
X141281542Y-66163323D02*
X141357733Y-66201419D01*
X141357733Y-66201419D02*
X141510114Y-66201419D01*
X141510114Y-66201419D02*
X141586304Y-66163323D01*
X141586304Y-66163323D02*
X141624400Y-66125228D01*
X141624400Y-66125228D02*
X141662495Y-66049038D01*
X141662495Y-66049038D02*
X141662495Y-65896657D01*
X141662495Y-65896657D02*
X141624400Y-65820466D01*
X141624400Y-65820466D02*
X141586304Y-65782371D01*
X141586304Y-65782371D02*
X141510114Y-65744276D01*
X141510114Y-65744276D02*
X141357733Y-65744276D01*
X141357733Y-65744276D02*
X141281542Y-65782371D01*
X141281542Y-65782371D02*
X141243447Y-65820466D01*
X141243447Y-65820466D02*
X141205352Y-65896657D01*
X147702248Y-64786542D02*
X147702248Y-65167495D01*
X147435581Y-64367495D02*
X147702248Y-64786542D01*
X147702248Y-64786542D02*
X147968914Y-64367495D01*
X148654628Y-65167495D02*
X148197485Y-65167495D01*
X148426057Y-65167495D02*
X148426057Y-64367495D01*
X148426057Y-64367495D02*
X148349866Y-64481780D01*
X148349866Y-64481780D02*
X148273676Y-64557971D01*
X148273676Y-64557971D02*
X148197485Y-64596066D01*
X172229819Y-90520533D02*
X172944104Y-90520533D01*
X172944104Y-90520533D02*
X173086961Y-90568152D01*
X173086961Y-90568152D02*
X173182200Y-90663390D01*
X173182200Y-90663390D02*
X173229819Y-90806247D01*
X173229819Y-90806247D02*
X173229819Y-90901485D01*
X172229819Y-90139580D02*
X172229819Y-89520533D01*
X172229819Y-89520533D02*
X172610771Y-89853866D01*
X172610771Y-89853866D02*
X172610771Y-89711009D01*
X172610771Y-89711009D02*
X172658390Y-89615771D01*
X172658390Y-89615771D02*
X172706009Y-89568152D01*
X172706009Y-89568152D02*
X172801247Y-89520533D01*
X172801247Y-89520533D02*
X173039342Y-89520533D01*
X173039342Y-89520533D02*
X173134580Y-89568152D01*
X173134580Y-89568152D02*
X173182200Y-89615771D01*
X173182200Y-89615771D02*
X173229819Y-89711009D01*
X173229819Y-89711009D02*
X173229819Y-89996723D01*
X173229819Y-89996723D02*
X173182200Y-90091961D01*
X173182200Y-90091961D02*
X173134580Y-90139580D01*
X135270104Y-87723285D02*
X135308200Y-87761381D01*
X135308200Y-87761381D02*
X135346295Y-87875666D01*
X135346295Y-87875666D02*
X135346295Y-87951857D01*
X135346295Y-87951857D02*
X135308200Y-88066143D01*
X135308200Y-88066143D02*
X135232009Y-88142333D01*
X135232009Y-88142333D02*
X135155819Y-88180428D01*
X135155819Y-88180428D02*
X135003438Y-88218524D01*
X135003438Y-88218524D02*
X134889152Y-88218524D01*
X134889152Y-88218524D02*
X134736771Y-88180428D01*
X134736771Y-88180428D02*
X134660580Y-88142333D01*
X134660580Y-88142333D02*
X134584390Y-88066143D01*
X134584390Y-88066143D02*
X134546295Y-87951857D01*
X134546295Y-87951857D02*
X134546295Y-87875666D01*
X134546295Y-87875666D02*
X134584390Y-87761381D01*
X134584390Y-87761381D02*
X134622485Y-87723285D01*
X134622485Y-87418524D02*
X134584390Y-87380428D01*
X134584390Y-87380428D02*
X134546295Y-87304238D01*
X134546295Y-87304238D02*
X134546295Y-87113762D01*
X134546295Y-87113762D02*
X134584390Y-87037571D01*
X134584390Y-87037571D02*
X134622485Y-86999476D01*
X134622485Y-86999476D02*
X134698676Y-86961381D01*
X134698676Y-86961381D02*
X134774866Y-86961381D01*
X134774866Y-86961381D02*
X134889152Y-86999476D01*
X134889152Y-86999476D02*
X135346295Y-87456619D01*
X135346295Y-87456619D02*
X135346295Y-86961381D01*
X134889152Y-86504238D02*
X134851057Y-86580428D01*
X134851057Y-86580428D02*
X134812961Y-86618523D01*
X134812961Y-86618523D02*
X134736771Y-86656619D01*
X134736771Y-86656619D02*
X134698676Y-86656619D01*
X134698676Y-86656619D02*
X134622485Y-86618523D01*
X134622485Y-86618523D02*
X134584390Y-86580428D01*
X134584390Y-86580428D02*
X134546295Y-86504238D01*
X134546295Y-86504238D02*
X134546295Y-86351857D01*
X134546295Y-86351857D02*
X134584390Y-86275666D01*
X134584390Y-86275666D02*
X134622485Y-86237571D01*
X134622485Y-86237571D02*
X134698676Y-86199476D01*
X134698676Y-86199476D02*
X134736771Y-86199476D01*
X134736771Y-86199476D02*
X134812961Y-86237571D01*
X134812961Y-86237571D02*
X134851057Y-86275666D01*
X134851057Y-86275666D02*
X134889152Y-86351857D01*
X134889152Y-86351857D02*
X134889152Y-86504238D01*
X134889152Y-86504238D02*
X134927247Y-86580428D01*
X134927247Y-86580428D02*
X134965342Y-86618523D01*
X134965342Y-86618523D02*
X135041533Y-86656619D01*
X135041533Y-86656619D02*
X135193914Y-86656619D01*
X135193914Y-86656619D02*
X135270104Y-86618523D01*
X135270104Y-86618523D02*
X135308200Y-86580428D01*
X135308200Y-86580428D02*
X135346295Y-86504238D01*
X135346295Y-86504238D02*
X135346295Y-86351857D01*
X135346295Y-86351857D02*
X135308200Y-86275666D01*
X135308200Y-86275666D02*
X135270104Y-86237571D01*
X135270104Y-86237571D02*
X135193914Y-86199476D01*
X135193914Y-86199476D02*
X135041533Y-86199476D01*
X135041533Y-86199476D02*
X134965342Y-86237571D01*
X134965342Y-86237571D02*
X134927247Y-86275666D01*
X134927247Y-86275666D02*
X134889152Y-86351857D01*
X112607304Y-74176885D02*
X112645400Y-74214981D01*
X112645400Y-74214981D02*
X112683495Y-74329266D01*
X112683495Y-74329266D02*
X112683495Y-74405457D01*
X112683495Y-74405457D02*
X112645400Y-74519743D01*
X112645400Y-74519743D02*
X112569209Y-74595933D01*
X112569209Y-74595933D02*
X112493019Y-74634028D01*
X112493019Y-74634028D02*
X112340638Y-74672124D01*
X112340638Y-74672124D02*
X112226352Y-74672124D01*
X112226352Y-74672124D02*
X112073971Y-74634028D01*
X112073971Y-74634028D02*
X111997780Y-74595933D01*
X111997780Y-74595933D02*
X111921590Y-74519743D01*
X111921590Y-74519743D02*
X111883495Y-74405457D01*
X111883495Y-74405457D02*
X111883495Y-74329266D01*
X111883495Y-74329266D02*
X111921590Y-74214981D01*
X111921590Y-74214981D02*
X111959685Y-74176885D01*
X112150161Y-73491171D02*
X112683495Y-73491171D01*
X111845400Y-73681647D02*
X112416828Y-73872124D01*
X112416828Y-73872124D02*
X112416828Y-73376885D01*
X111883495Y-73148314D02*
X111883495Y-72614980D01*
X111883495Y-72614980D02*
X112683495Y-72957838D01*
D12*
X111960066Y-91024419D02*
X111960066Y-91738704D01*
X111960066Y-91738704D02*
X111912447Y-91881561D01*
X111912447Y-91881561D02*
X111817209Y-91976800D01*
X111817209Y-91976800D02*
X111674352Y-92024419D01*
X111674352Y-92024419D02*
X111579114Y-92024419D01*
X112388638Y-91119657D02*
X112436257Y-91072038D01*
X112436257Y-91072038D02*
X112531495Y-91024419D01*
X112531495Y-91024419D02*
X112769590Y-91024419D01*
X112769590Y-91024419D02*
X112864828Y-91072038D01*
X112864828Y-91072038D02*
X112912447Y-91119657D01*
X112912447Y-91119657D02*
X112960066Y-91214895D01*
X112960066Y-91214895D02*
X112960066Y-91310133D01*
X112960066Y-91310133D02*
X112912447Y-91452990D01*
X112912447Y-91452990D02*
X112341019Y-92024419D01*
X112341019Y-92024419D02*
X112960066Y-92024419D01*
D16*
X163332200Y-124536067D02*
X163370295Y-124421781D01*
X163370295Y-124421781D02*
X163370295Y-124231305D01*
X163370295Y-124231305D02*
X163332200Y-124155114D01*
X163332200Y-124155114D02*
X163294104Y-124117019D01*
X163294104Y-124117019D02*
X163217914Y-124078924D01*
X163217914Y-124078924D02*
X163141723Y-124078924D01*
X163141723Y-124078924D02*
X163065533Y-124117019D01*
X163065533Y-124117019D02*
X163027438Y-124155114D01*
X163027438Y-124155114D02*
X162989342Y-124231305D01*
X162989342Y-124231305D02*
X162951247Y-124383686D01*
X162951247Y-124383686D02*
X162913152Y-124459876D01*
X162913152Y-124459876D02*
X162875057Y-124497971D01*
X162875057Y-124497971D02*
X162798866Y-124536067D01*
X162798866Y-124536067D02*
X162722676Y-124536067D01*
X162722676Y-124536067D02*
X162646485Y-124497971D01*
X162646485Y-124497971D02*
X162608390Y-124459876D01*
X162608390Y-124459876D02*
X162570295Y-124383686D01*
X162570295Y-124383686D02*
X162570295Y-124193209D01*
X162570295Y-124193209D02*
X162608390Y-124078924D01*
X162570295Y-123812257D02*
X163370295Y-123621781D01*
X163370295Y-123621781D02*
X162798866Y-123469400D01*
X162798866Y-123469400D02*
X163370295Y-123317019D01*
X163370295Y-123317019D02*
X162570295Y-123126543D01*
X163370295Y-122402733D02*
X163370295Y-122859876D01*
X163370295Y-122631304D02*
X162570295Y-122631304D01*
X162570295Y-122631304D02*
X162684580Y-122707495D01*
X162684580Y-122707495D02*
X162760771Y-122783685D01*
X162760771Y-122783685D02*
X162798866Y-122859876D01*
X133559704Y-74301285D02*
X133597800Y-74339381D01*
X133597800Y-74339381D02*
X133635895Y-74453666D01*
X133635895Y-74453666D02*
X133635895Y-74529857D01*
X133635895Y-74529857D02*
X133597800Y-74644143D01*
X133597800Y-74644143D02*
X133521609Y-74720333D01*
X133521609Y-74720333D02*
X133445419Y-74758428D01*
X133445419Y-74758428D02*
X133293038Y-74796524D01*
X133293038Y-74796524D02*
X133178752Y-74796524D01*
X133178752Y-74796524D02*
X133026371Y-74758428D01*
X133026371Y-74758428D02*
X132950180Y-74720333D01*
X132950180Y-74720333D02*
X132873990Y-74644143D01*
X132873990Y-74644143D02*
X132835895Y-74529857D01*
X132835895Y-74529857D02*
X132835895Y-74453666D01*
X132835895Y-74453666D02*
X132873990Y-74339381D01*
X132873990Y-74339381D02*
X132912085Y-74301285D01*
X133102561Y-73615571D02*
X133635895Y-73615571D01*
X132797800Y-73806047D02*
X133369228Y-73996524D01*
X133369228Y-73996524D02*
X133369228Y-73501285D01*
X132835895Y-73272714D02*
X132835895Y-72777476D01*
X132835895Y-72777476D02*
X133140657Y-73044142D01*
X133140657Y-73044142D02*
X133140657Y-72929857D01*
X133140657Y-72929857D02*
X133178752Y-72853666D01*
X133178752Y-72853666D02*
X133216847Y-72815571D01*
X133216847Y-72815571D02*
X133293038Y-72777476D01*
X133293038Y-72777476D02*
X133483514Y-72777476D01*
X133483514Y-72777476D02*
X133559704Y-72815571D01*
X133559704Y-72815571D02*
X133597800Y-72853666D01*
X133597800Y-72853666D02*
X133635895Y-72929857D01*
X133635895Y-72929857D02*
X133635895Y-73158428D01*
X133635895Y-73158428D02*
X133597800Y-73234619D01*
X133597800Y-73234619D02*
X133559704Y-73272714D01*
X171187114Y-67756904D02*
X171149018Y-67795000D01*
X171149018Y-67795000D02*
X171034733Y-67833095D01*
X171034733Y-67833095D02*
X170958542Y-67833095D01*
X170958542Y-67833095D02*
X170844256Y-67795000D01*
X170844256Y-67795000D02*
X170768066Y-67718809D01*
X170768066Y-67718809D02*
X170729971Y-67642619D01*
X170729971Y-67642619D02*
X170691875Y-67490238D01*
X170691875Y-67490238D02*
X170691875Y-67375952D01*
X170691875Y-67375952D02*
X170729971Y-67223571D01*
X170729971Y-67223571D02*
X170768066Y-67147380D01*
X170768066Y-67147380D02*
X170844256Y-67071190D01*
X170844256Y-67071190D02*
X170958542Y-67033095D01*
X170958542Y-67033095D02*
X171034733Y-67033095D01*
X171034733Y-67033095D02*
X171149018Y-67071190D01*
X171149018Y-67071190D02*
X171187114Y-67109285D01*
X171872828Y-67299761D02*
X171872828Y-67833095D01*
X171682352Y-66995000D02*
X171491875Y-67566428D01*
X171491875Y-67566428D02*
X171987114Y-67566428D01*
X172710923Y-67833095D02*
X172253780Y-67833095D01*
X172482352Y-67833095D02*
X172482352Y-67033095D01*
X172482352Y-67033095D02*
X172406161Y-67147380D01*
X172406161Y-67147380D02*
X172329971Y-67223571D01*
X172329971Y-67223571D02*
X172253780Y-67261666D01*
X161745705Y-108117019D02*
X161745705Y-107117019D01*
X161745705Y-107117019D02*
X161983800Y-107117019D01*
X161983800Y-107117019D02*
X162126657Y-107164638D01*
X162126657Y-107164638D02*
X162221895Y-107259876D01*
X162221895Y-107259876D02*
X162269514Y-107355114D01*
X162269514Y-107355114D02*
X162317133Y-107545590D01*
X162317133Y-107545590D02*
X162317133Y-107688447D01*
X162317133Y-107688447D02*
X162269514Y-107878923D01*
X162269514Y-107878923D02*
X162221895Y-107974161D01*
X162221895Y-107974161D02*
X162126657Y-108069400D01*
X162126657Y-108069400D02*
X161983800Y-108117019D01*
X161983800Y-108117019D02*
X161745705Y-108117019D01*
X163174276Y-107450352D02*
X163174276Y-108117019D01*
X162936181Y-107069400D02*
X162698086Y-107783685D01*
X162698086Y-107783685D02*
X163317133Y-107783685D01*
X157324466Y-107811219D02*
X157324466Y-108525504D01*
X157324466Y-108525504D02*
X157276847Y-108668361D01*
X157276847Y-108668361D02*
X157181609Y-108763600D01*
X157181609Y-108763600D02*
X157038752Y-108811219D01*
X157038752Y-108811219D02*
X156943514Y-108811219D01*
X158276847Y-107811219D02*
X157800657Y-107811219D01*
X157800657Y-107811219D02*
X157753038Y-108287409D01*
X157753038Y-108287409D02*
X157800657Y-108239790D01*
X157800657Y-108239790D02*
X157895895Y-108192171D01*
X157895895Y-108192171D02*
X158133990Y-108192171D01*
X158133990Y-108192171D02*
X158229228Y-108239790D01*
X158229228Y-108239790D02*
X158276847Y-108287409D01*
X158276847Y-108287409D02*
X158324466Y-108382647D01*
X158324466Y-108382647D02*
X158324466Y-108620742D01*
X158324466Y-108620742D02*
X158276847Y-108715980D01*
X158276847Y-108715980D02*
X158229228Y-108763600D01*
X158229228Y-108763600D02*
X158133990Y-108811219D01*
X158133990Y-108811219D02*
X157895895Y-108811219D01*
X157895895Y-108811219D02*
X157800657Y-108763600D01*
X157800657Y-108763600D02*
X157753038Y-108715980D01*
X166215833Y-114263419D02*
X165882500Y-113787228D01*
X165644405Y-114263419D02*
X165644405Y-113263419D01*
X165644405Y-113263419D02*
X166025357Y-113263419D01*
X166025357Y-113263419D02*
X166120595Y-113311038D01*
X166120595Y-113311038D02*
X166168214Y-113358657D01*
X166168214Y-113358657D02*
X166215833Y-113453895D01*
X166215833Y-113453895D02*
X166215833Y-113596752D01*
X166215833Y-113596752D02*
X166168214Y-113691990D01*
X166168214Y-113691990D02*
X166120595Y-113739609D01*
X166120595Y-113739609D02*
X166025357Y-113787228D01*
X166025357Y-113787228D02*
X165644405Y-113787228D01*
X167072976Y-113596752D02*
X167072976Y-114263419D01*
X166834881Y-113215800D02*
X166596786Y-113930085D01*
X166596786Y-113930085D02*
X167215833Y-113930085D01*
X114058733Y-63824295D02*
X114058733Y-64395723D01*
X114058733Y-64395723D02*
X114020638Y-64510009D01*
X114020638Y-64510009D02*
X113944447Y-64586200D01*
X113944447Y-64586200D02*
X113830162Y-64624295D01*
X113830162Y-64624295D02*
X113753971Y-64624295D01*
X114782543Y-63824295D02*
X114630162Y-63824295D01*
X114630162Y-63824295D02*
X114553971Y-63862390D01*
X114553971Y-63862390D02*
X114515876Y-63900485D01*
X114515876Y-63900485D02*
X114439686Y-64014771D01*
X114439686Y-64014771D02*
X114401590Y-64167152D01*
X114401590Y-64167152D02*
X114401590Y-64471914D01*
X114401590Y-64471914D02*
X114439686Y-64548104D01*
X114439686Y-64548104D02*
X114477781Y-64586200D01*
X114477781Y-64586200D02*
X114553971Y-64624295D01*
X114553971Y-64624295D02*
X114706352Y-64624295D01*
X114706352Y-64624295D02*
X114782543Y-64586200D01*
X114782543Y-64586200D02*
X114820638Y-64548104D01*
X114820638Y-64548104D02*
X114858733Y-64471914D01*
X114858733Y-64471914D02*
X114858733Y-64281438D01*
X114858733Y-64281438D02*
X114820638Y-64205247D01*
X114820638Y-64205247D02*
X114782543Y-64167152D01*
X114782543Y-64167152D02*
X114706352Y-64129057D01*
X114706352Y-64129057D02*
X114553971Y-64129057D01*
X114553971Y-64129057D02*
X114477781Y-64167152D01*
X114477781Y-64167152D02*
X114439686Y-64205247D01*
X114439686Y-64205247D02*
X114401590Y-64281438D01*
X137845876Y-65729295D02*
X137845876Y-66376914D01*
X137845876Y-66376914D02*
X137883971Y-66453104D01*
X137883971Y-66453104D02*
X137922066Y-66491200D01*
X137922066Y-66491200D02*
X137998257Y-66529295D01*
X137998257Y-66529295D02*
X138150638Y-66529295D01*
X138150638Y-66529295D02*
X138226828Y-66491200D01*
X138226828Y-66491200D02*
X138264923Y-66453104D01*
X138264923Y-66453104D02*
X138303019Y-66376914D01*
X138303019Y-66376914D02*
X138303019Y-65729295D01*
X139026828Y-65729295D02*
X138874447Y-65729295D01*
X138874447Y-65729295D02*
X138798256Y-65767390D01*
X138798256Y-65767390D02*
X138760161Y-65805485D01*
X138760161Y-65805485D02*
X138683971Y-65919771D01*
X138683971Y-65919771D02*
X138645875Y-66072152D01*
X138645875Y-66072152D02*
X138645875Y-66376914D01*
X138645875Y-66376914D02*
X138683971Y-66453104D01*
X138683971Y-66453104D02*
X138722066Y-66491200D01*
X138722066Y-66491200D02*
X138798256Y-66529295D01*
X138798256Y-66529295D02*
X138950637Y-66529295D01*
X138950637Y-66529295D02*
X139026828Y-66491200D01*
X139026828Y-66491200D02*
X139064923Y-66453104D01*
X139064923Y-66453104D02*
X139103018Y-66376914D01*
X139103018Y-66376914D02*
X139103018Y-66186438D01*
X139103018Y-66186438D02*
X139064923Y-66110247D01*
X139064923Y-66110247D02*
X139026828Y-66072152D01*
X139026828Y-66072152D02*
X138950637Y-66034057D01*
X138950637Y-66034057D02*
X138798256Y-66034057D01*
X138798256Y-66034057D02*
X138722066Y-66072152D01*
X138722066Y-66072152D02*
X138683971Y-66110247D01*
X138683971Y-66110247D02*
X138645875Y-66186438D01*
X124166333Y-107338019D02*
X123833000Y-106861828D01*
X123594905Y-107338019D02*
X123594905Y-106338019D01*
X123594905Y-106338019D02*
X123975857Y-106338019D01*
X123975857Y-106338019D02*
X124071095Y-106385638D01*
X124071095Y-106385638D02*
X124118714Y-106433257D01*
X124118714Y-106433257D02*
X124166333Y-106528495D01*
X124166333Y-106528495D02*
X124166333Y-106671352D01*
X124166333Y-106671352D02*
X124118714Y-106766590D01*
X124118714Y-106766590D02*
X124071095Y-106814209D01*
X124071095Y-106814209D02*
X123975857Y-106861828D01*
X123975857Y-106861828D02*
X123594905Y-106861828D01*
X125023476Y-106338019D02*
X124833000Y-106338019D01*
X124833000Y-106338019D02*
X124737762Y-106385638D01*
X124737762Y-106385638D02*
X124690143Y-106433257D01*
X124690143Y-106433257D02*
X124594905Y-106576114D01*
X124594905Y-106576114D02*
X124547286Y-106766590D01*
X124547286Y-106766590D02*
X124547286Y-107147542D01*
X124547286Y-107147542D02*
X124594905Y-107242780D01*
X124594905Y-107242780D02*
X124642524Y-107290400D01*
X124642524Y-107290400D02*
X124737762Y-107338019D01*
X124737762Y-107338019D02*
X124928238Y-107338019D01*
X124928238Y-107338019D02*
X125023476Y-107290400D01*
X125023476Y-107290400D02*
X125071095Y-107242780D01*
X125071095Y-107242780D02*
X125118714Y-107147542D01*
X125118714Y-107147542D02*
X125118714Y-106909447D01*
X125118714Y-106909447D02*
X125071095Y-106814209D01*
X125071095Y-106814209D02*
X125023476Y-106766590D01*
X125023476Y-106766590D02*
X124928238Y-106718971D01*
X124928238Y-106718971D02*
X124737762Y-106718971D01*
X124737762Y-106718971D02*
X124642524Y-106766590D01*
X124642524Y-106766590D02*
X124594905Y-106814209D01*
X124594905Y-106814209D02*
X124547286Y-106909447D01*
X133344095Y-78562123D02*
X133991714Y-78562123D01*
X133991714Y-78562123D02*
X134067904Y-78524028D01*
X134067904Y-78524028D02*
X134106000Y-78485933D01*
X134106000Y-78485933D02*
X134144095Y-78409742D01*
X134144095Y-78409742D02*
X134144095Y-78257361D01*
X134144095Y-78257361D02*
X134106000Y-78181171D01*
X134106000Y-78181171D02*
X134067904Y-78143076D01*
X134067904Y-78143076D02*
X133991714Y-78104980D01*
X133991714Y-78104980D02*
X133344095Y-78104980D01*
X133344095Y-77800219D02*
X133344095Y-77266885D01*
X133344095Y-77266885D02*
X134144095Y-77609743D01*
X129631304Y-74278485D02*
X129669400Y-74316581D01*
X129669400Y-74316581D02*
X129707495Y-74430866D01*
X129707495Y-74430866D02*
X129707495Y-74507057D01*
X129707495Y-74507057D02*
X129669400Y-74621343D01*
X129669400Y-74621343D02*
X129593209Y-74697533D01*
X129593209Y-74697533D02*
X129517019Y-74735628D01*
X129517019Y-74735628D02*
X129364638Y-74773724D01*
X129364638Y-74773724D02*
X129250352Y-74773724D01*
X129250352Y-74773724D02*
X129097971Y-74735628D01*
X129097971Y-74735628D02*
X129021780Y-74697533D01*
X129021780Y-74697533D02*
X128945590Y-74621343D01*
X128945590Y-74621343D02*
X128907495Y-74507057D01*
X128907495Y-74507057D02*
X128907495Y-74430866D01*
X128907495Y-74430866D02*
X128945590Y-74316581D01*
X128945590Y-74316581D02*
X128983685Y-74278485D01*
X129174161Y-73592771D02*
X129707495Y-73592771D01*
X128869400Y-73783247D02*
X129440828Y-73973724D01*
X129440828Y-73973724D02*
X129440828Y-73478485D01*
X129174161Y-72830866D02*
X129707495Y-72830866D01*
X128869400Y-73021342D02*
X129440828Y-73211819D01*
X129440828Y-73211819D02*
X129440828Y-72716580D01*
X126390914Y-72890304D02*
X126352818Y-72928400D01*
X126352818Y-72928400D02*
X126238533Y-72966495D01*
X126238533Y-72966495D02*
X126162342Y-72966495D01*
X126162342Y-72966495D02*
X126048056Y-72928400D01*
X126048056Y-72928400D02*
X125971866Y-72852209D01*
X125971866Y-72852209D02*
X125933771Y-72776019D01*
X125933771Y-72776019D02*
X125895675Y-72623638D01*
X125895675Y-72623638D02*
X125895675Y-72509352D01*
X125895675Y-72509352D02*
X125933771Y-72356971D01*
X125933771Y-72356971D02*
X125971866Y-72280780D01*
X125971866Y-72280780D02*
X126048056Y-72204590D01*
X126048056Y-72204590D02*
X126162342Y-72166495D01*
X126162342Y-72166495D02*
X126238533Y-72166495D01*
X126238533Y-72166495D02*
X126352818Y-72204590D01*
X126352818Y-72204590D02*
X126390914Y-72242685D01*
X127076628Y-72433161D02*
X127076628Y-72966495D01*
X126886152Y-72128400D02*
X126695675Y-72699828D01*
X126695675Y-72699828D02*
X127190914Y-72699828D01*
X127876628Y-72166495D02*
X127495676Y-72166495D01*
X127495676Y-72166495D02*
X127457580Y-72547447D01*
X127457580Y-72547447D02*
X127495676Y-72509352D01*
X127495676Y-72509352D02*
X127571866Y-72471257D01*
X127571866Y-72471257D02*
X127762342Y-72471257D01*
X127762342Y-72471257D02*
X127838533Y-72509352D01*
X127838533Y-72509352D02*
X127876628Y-72547447D01*
X127876628Y-72547447D02*
X127914723Y-72623638D01*
X127914723Y-72623638D02*
X127914723Y-72814114D01*
X127914723Y-72814114D02*
X127876628Y-72890304D01*
X127876628Y-72890304D02*
X127838533Y-72928400D01*
X127838533Y-72928400D02*
X127762342Y-72966495D01*
X127762342Y-72966495D02*
X127571866Y-72966495D01*
X127571866Y-72966495D02*
X127495676Y-72928400D01*
X127495676Y-72928400D02*
X127457580Y-72890304D01*
D17*
%TO.C,D6*%
X172262800Y-102224400D02*
X171612800Y-102224400D01*
X172262800Y-102224400D02*
X172912800Y-102224400D01*
X172262800Y-105344400D02*
X171612800Y-105344400D01*
X172262800Y-105344400D02*
X172912800Y-105344400D01*
X171100300Y-102274400D02*
X170860300Y-101944400D01*
X171340300Y-101944400D01*
X171100300Y-102274400D01*
G36*
X171100300Y-102274400D02*
G01*
X170860300Y-101944400D01*
X171340300Y-101944400D01*
X171100300Y-102274400D01*
G37*
%TO.C,C8*%
X159840200Y-103555220D02*
X159840200Y-103836380D01*
X160860200Y-103555220D02*
X160860200Y-103836380D01*
%TO.C,C15*%
X152941036Y-99411200D02*
X152725364Y-99411200D01*
X152941036Y-100131200D02*
X152725364Y-100131200D01*
%TO.C,C7*%
X158214600Y-103555220D02*
X158214600Y-103836380D01*
X159234600Y-103555220D02*
X159234600Y-103836380D01*
%TO.C,C33*%
X148455364Y-68677200D02*
X148671036Y-68677200D01*
X148455364Y-69397200D02*
X148671036Y-69397200D01*
%TO.C,U4*%
X117713000Y-70047700D02*
X117713000Y-69247700D01*
X117713000Y-70047700D02*
X117713000Y-70847700D01*
X120833000Y-70047700D02*
X120833000Y-69247700D01*
X120833000Y-70047700D02*
X120833000Y-70847700D01*
X117763000Y-71347700D02*
X117433000Y-71587700D01*
X117433000Y-71107700D01*
X117763000Y-71347700D01*
G36*
X117763000Y-71347700D02*
G01*
X117433000Y-71587700D01*
X117433000Y-71107700D01*
X117763000Y-71347700D01*
G37*
%TO.C,C40*%
X170834164Y-119655000D02*
X171049836Y-119655000D01*
X170834164Y-120375000D02*
X171049836Y-120375000D01*
%TO.C,C35*%
X159329800Y-67283036D02*
X159329800Y-67067364D01*
X160049800Y-67283036D02*
X160049800Y-67067364D01*
%TO.C,R3*%
X117272800Y-91565759D02*
X117272800Y-91873041D01*
X118032800Y-91565759D02*
X118032800Y-91873041D01*
%TO.C,C21*%
X167046964Y-75599000D02*
X167262636Y-75599000D01*
X167046964Y-76319000D02*
X167262636Y-76319000D01*
%TO.C,SW4*%
X170385000Y-59928400D02*
X170385000Y-64328400D01*
X170385000Y-64328400D02*
X170505000Y-64328400D01*
X170505000Y-59928400D02*
X170385000Y-59928400D01*
X171515000Y-64328400D02*
X172655000Y-64328400D01*
X172655000Y-59928400D02*
X171515000Y-59928400D01*
X173665000Y-64328400D02*
X173785000Y-64328400D01*
X173785000Y-59928400D02*
X173665000Y-59928400D01*
X173785000Y-64328400D02*
X173785000Y-59928400D01*
%TO.C,C6*%
X171496400Y-100209236D02*
X171496400Y-99993564D01*
X172216400Y-100209236D02*
X172216400Y-99993564D01*
%TO.C,C2*%
X125601000Y-97625780D02*
X125601000Y-97344620D01*
X126621000Y-97625780D02*
X126621000Y-97344620D01*
%TO.C,C11*%
X125960200Y-61917948D02*
X125960200Y-62440452D01*
X127430200Y-61917948D02*
X127430200Y-62440452D01*
%TO.C,R18*%
X121108200Y-70201341D02*
X121108200Y-69894059D01*
X121868200Y-70201341D02*
X121868200Y-69894059D01*
%TO.C,U2*%
X166168200Y-107202800D02*
X165368200Y-107202800D01*
X166168200Y-107202800D02*
X166968200Y-107202800D01*
X166168200Y-110322800D02*
X165368200Y-110322800D01*
X166168200Y-110322800D02*
X166968200Y-110322800D01*
X164868200Y-107252800D02*
X164628200Y-106922800D01*
X165108200Y-106922800D01*
X164868200Y-107252800D01*
G36*
X164868200Y-107252800D02*
G01*
X164628200Y-106922800D01*
X165108200Y-106922800D01*
X164868200Y-107252800D01*
G37*
%TO.C,C22*%
X166314800Y-82601164D02*
X166314800Y-82816836D01*
X167034800Y-82601164D02*
X167034800Y-82816836D01*
%TO.C,C29*%
X166314800Y-94101164D02*
X166314800Y-94316836D01*
X167034800Y-94101164D02*
X167034800Y-94316836D01*
%TO.C,U3*%
X130784600Y-60619200D02*
X129984600Y-60619200D01*
X130784600Y-60619200D02*
X131584600Y-60619200D01*
X130784600Y-63739200D02*
X129984600Y-63739200D01*
X130784600Y-63739200D02*
X131584600Y-63739200D01*
X129484600Y-60669200D02*
X129244600Y-60339200D01*
X129724600Y-60339200D01*
X129484600Y-60669200D01*
G36*
X129484600Y-60669200D02*
G01*
X129244600Y-60339200D01*
X129724600Y-60339200D01*
X129484600Y-60669200D01*
G37*
%TO.C,R17*%
X128728200Y-70283041D02*
X128728200Y-69975759D01*
X129488200Y-70283041D02*
X129488200Y-69975759D01*
%TO.C,U1*%
X171361400Y-112931600D02*
X171361400Y-112696600D01*
X171361400Y-115676600D02*
X171361400Y-115201600D01*
X171836400Y-112456600D02*
X171661400Y-112456600D01*
X171836400Y-115676600D02*
X171361400Y-115676600D01*
X174106400Y-112456600D02*
X174581400Y-112456600D01*
X174106400Y-115676600D02*
X174581400Y-115676600D01*
X174581400Y-112456600D02*
X174581400Y-112931600D01*
X174581400Y-115676600D02*
X174581400Y-115201600D01*
X171361400Y-112456600D02*
X171121400Y-112126600D01*
X171601400Y-112126600D01*
X171361400Y-112456600D01*
G36*
X171361400Y-112456600D02*
G01*
X171121400Y-112126600D01*
X171601400Y-112126600D01*
X171361400Y-112456600D01*
G37*
%TO.C,R12*%
X129538759Y-102227533D02*
X129846041Y-102227533D01*
X129538759Y-102987533D02*
X129846041Y-102987533D01*
%TO.C,C10*%
X134933636Y-100782800D02*
X134717964Y-100782800D01*
X134933636Y-101502800D02*
X134717964Y-101502800D01*
%TO.C,C34*%
X146836036Y-68651800D02*
X146620364Y-68651800D01*
X146836036Y-69371800D02*
X146620364Y-69371800D01*
%TO.C,C50*%
X160625200Y-60931764D02*
X160625200Y-61147436D01*
X161345200Y-60931764D02*
X161345200Y-61147436D01*
%TO.C,R16*%
X127839200Y-61585559D02*
X127839200Y-61892841D01*
X128599200Y-61585559D02*
X128599200Y-61892841D01*
%TO.C,C48*%
X127013036Y-89429000D02*
X126797364Y-89429000D01*
X127013036Y-90149000D02*
X126797364Y-90149000D01*
%TO.C,R9*%
X113592041Y-67615600D02*
X113284759Y-67615600D01*
X113592041Y-68375600D02*
X113284759Y-68375600D01*
%TO.C,C32*%
X143429400Y-69046036D02*
X143429400Y-68830364D01*
X144149400Y-69046036D02*
X144149400Y-68830364D01*
%TO.C,C9*%
X153447636Y-100909800D02*
X153231964Y-100909800D01*
X153447636Y-101629800D02*
X153231964Y-101629800D01*
%TO.C,R15*%
X129538759Y-104953800D02*
X129846041Y-104953800D01*
X129538759Y-105713800D02*
X129846041Y-105713800D01*
%TO.C,R20*%
X167338441Y-76607400D02*
X167031159Y-76607400D01*
X167338441Y-77367400D02*
X167031159Y-77367400D01*
%TO.C,R11*%
X129538759Y-100864400D02*
X129846041Y-100864400D01*
X129538759Y-101624400D02*
X129846041Y-101624400D01*
%TO.C,L1*%
X168132800Y-102375600D02*
X164152800Y-102375600D01*
X168132800Y-106615600D02*
X164152800Y-106615600D01*
%TO.C,C5*%
X169328700Y-100362652D02*
X169328700Y-99840148D01*
X170798700Y-100362652D02*
X170798700Y-99840148D01*
%TO.C,C26*%
X135771836Y-92099000D02*
X135556164Y-92099000D01*
X135771836Y-92819000D02*
X135556164Y-92819000D01*
%TO.C,C19*%
X162098400Y-68179836D02*
X162098400Y-67964164D01*
X162818400Y-68179836D02*
X162818400Y-67964164D01*
%TO.C,C37*%
X142261000Y-69046036D02*
X142261000Y-68830364D01*
X142981000Y-69046036D02*
X142981000Y-68830364D01*
%TO.C,R27*%
X162256441Y-63989600D02*
X161949159Y-63989600D01*
X162256441Y-64749600D02*
X161949159Y-64749600D01*
%TO.C,C4*%
X169920148Y-106773800D02*
X170442652Y-106773800D01*
X169920148Y-108243800D02*
X170442652Y-108243800D01*
%TO.C,C16*%
X170268020Y-81786000D02*
X170549180Y-81786000D01*
X170268020Y-82806000D02*
X170549180Y-82806000D01*
%TO.C,C31*%
X135784000Y-75816836D02*
X135784000Y-75601164D01*
X136504000Y-75816836D02*
X136504000Y-75601164D01*
%TO.C,SW3*%
X165559000Y-59903000D02*
X165559000Y-64303000D01*
X165559000Y-64303000D02*
X165679000Y-64303000D01*
X165679000Y-59903000D02*
X165559000Y-59903000D01*
X166689000Y-64303000D02*
X167829000Y-64303000D01*
X167829000Y-59903000D02*
X166689000Y-59903000D01*
X168839000Y-64303000D02*
X168959000Y-64303000D01*
X168959000Y-59903000D02*
X168839000Y-59903000D01*
X168959000Y-64303000D02*
X168959000Y-59903000D01*
%TO.C,C49*%
X122613036Y-89429000D02*
X122397364Y-89429000D01*
X122613036Y-90149000D02*
X122397364Y-90149000D01*
%TO.C,U8*%
X156565600Y-59904600D02*
X154615600Y-59904600D01*
X156565600Y-59904600D02*
X158515600Y-59904600D01*
X156565600Y-65024600D02*
X154615600Y-65024600D01*
X156565600Y-65024600D02*
X158515600Y-65024600D01*
X153865600Y-59999600D02*
X153625600Y-59669600D01*
X154105600Y-59669600D01*
X153865600Y-59999600D01*
G36*
X153865600Y-59999600D02*
G01*
X153625600Y-59669600D01*
X154105600Y-59669600D01*
X153865600Y-59999600D01*
G37*
%TO.C,R21*%
X171982159Y-66041000D02*
X172289441Y-66041000D01*
X171982159Y-66801000D02*
X172289441Y-66801000D01*
%TO.C,U5*%
X139223200Y-72599000D02*
X140173200Y-72599000D01*
X139223200Y-73549000D02*
X139223200Y-72599000D01*
X139223200Y-95869000D02*
X139223200Y-96819000D01*
X139223200Y-96819000D02*
X140173200Y-96819000D01*
X163443200Y-72599000D02*
X162493200Y-72599000D01*
X163443200Y-73549000D02*
X163443200Y-72599000D01*
X163443200Y-95869000D02*
X163443200Y-96819000D01*
X163443200Y-96819000D02*
X162493200Y-96819000D01*
X162963200Y-72336500D02*
X162493200Y-71996500D01*
X162963200Y-71656500D01*
X162963200Y-72336500D01*
G36*
X162963200Y-72336500D02*
G01*
X162493200Y-71996500D01*
X162963200Y-71656500D01*
X162963200Y-72336500D01*
G37*
%TO.C,J4*%
X175476200Y-67975400D02*
X175476200Y-67910400D01*
X175476200Y-76920400D02*
X175476200Y-76855400D01*
X179006200Y-67910400D02*
X175476200Y-67910400D01*
X179006200Y-67975400D02*
X179006200Y-67910400D01*
X179006200Y-76920400D02*
X175476200Y-76920400D01*
X179006200Y-76920400D02*
X179006200Y-76855400D01*
X180331200Y-76855400D02*
X179006200Y-76855400D01*
%TO.C,C23*%
X166314800Y-87601164D02*
X166314800Y-87816836D01*
X167034800Y-87601164D02*
X167034800Y-87816836D01*
%TO.C,C24*%
X147441036Y-99411200D02*
X147225364Y-99411200D01*
X147441036Y-100131200D02*
X147225364Y-100131200D01*
%TO.C,R7*%
X169467559Y-109449600D02*
X169774841Y-109449600D01*
X169467559Y-110209600D02*
X169774841Y-110209600D01*
%TO.C,C12*%
X133097600Y-61917948D02*
X133097600Y-62440452D01*
X134567600Y-61917948D02*
X134567600Y-62440452D01*
%TO.C,D1*%
X170754800Y-72290600D02*
X170754800Y-76300600D01*
X172754800Y-72290600D02*
X170754800Y-72290600D01*
X172754800Y-72290600D02*
X172754800Y-76300600D01*
%TO.C,C36*%
X155583300Y-67283036D02*
X155583300Y-67067364D01*
X156303300Y-67283036D02*
X156303300Y-67067364D01*
%TO.C,C18*%
X158073200Y-100405620D02*
X158073200Y-100686780D01*
X159093200Y-100405620D02*
X159093200Y-100686780D01*
%TO.C,SW2*%
X169242000Y-121269400D02*
X169242000Y-125669400D01*
X169242000Y-125669400D02*
X169362000Y-125669400D01*
X169362000Y-121269400D02*
X169242000Y-121269400D01*
X170372000Y-125669400D02*
X171512000Y-125669400D01*
X171512000Y-121269400D02*
X170372000Y-121269400D01*
X172522000Y-125669400D02*
X172642000Y-125669400D01*
X172642000Y-121269400D02*
X172522000Y-121269400D01*
X172642000Y-125669400D02*
X172642000Y-121269400D01*
%TO.C,C42*%
X135580800Y-64412436D02*
X135580800Y-64196764D01*
X136300800Y-64412436D02*
X136300800Y-64196764D01*
%TO.C,C3*%
X125517964Y-99327200D02*
X125733636Y-99327200D01*
X125517964Y-100047200D02*
X125733636Y-100047200D01*
%TO.C,C20*%
X139317000Y-68783780D02*
X139317000Y-68502620D01*
X140337000Y-68783780D02*
X140337000Y-68502620D01*
%TO.C,R22*%
X167567041Y-66549000D02*
X167259759Y-66549000D01*
X167567041Y-67309000D02*
X167259759Y-67309000D01*
%TO.C,R5*%
X125779441Y-100407200D02*
X125472159Y-100407200D01*
X125779441Y-101167200D02*
X125472159Y-101167200D01*
%TO.C,R19*%
X115393200Y-70201341D02*
X115393200Y-69894059D01*
X116153200Y-70201341D02*
X116153200Y-69894059D01*
%TO.C,D3*%
X108424000Y-67035600D02*
X108424000Y-68955600D01*
X108424000Y-68955600D02*
X111109000Y-68955600D01*
X111109000Y-67035600D02*
X108424000Y-67035600D01*
%TO.C,C1*%
X172942800Y-118059948D02*
X172942800Y-118582452D01*
X174412800Y-118059948D02*
X174412800Y-118582452D01*
%TO.C,TP1*%
X132068800Y-65989200D02*
G75*
G02*
X130668800Y-65989200I-700000J0D01*
G01*
X130668800Y-65989200D02*
G75*
G02*
X132068800Y-65989200I700000J0D01*
G01*
%TO.C,R23*%
X146940241Y-63450200D02*
X146632959Y-63450200D01*
X146940241Y-64210200D02*
X146632959Y-64210200D01*
%TO.C,R28*%
X162256441Y-62719600D02*
X161949159Y-62719600D01*
X162256441Y-63479600D02*
X161949159Y-63479600D01*
%TO.C,C46*%
X122397364Y-73404200D02*
X122613036Y-73404200D01*
X122397364Y-74124200D02*
X122613036Y-74124200D01*
%TO.C,C30*%
X141441036Y-99411200D02*
X141225364Y-99411200D01*
X141441036Y-100131200D02*
X141225364Y-100131200D01*
%TO.C,R1*%
X118415800Y-91565759D02*
X118415800Y-91873041D01*
X119175800Y-91565759D02*
X119175800Y-91873041D01*
%TO.C,C14*%
X124120964Y-68245400D02*
X124336636Y-68245400D01*
X124120964Y-68965400D02*
X124336636Y-68965400D01*
%TO.C,FB1*%
X167286000Y-99840148D02*
X167286000Y-100362652D01*
X168756000Y-99840148D02*
X168756000Y-100362652D01*
%TO.C,D2*%
X108449400Y-70287000D02*
X108449400Y-72207000D01*
X108449400Y-72207000D02*
X111134400Y-72207000D01*
X111134400Y-70287000D02*
X108449400Y-70287000D01*
%TO.C,TP2*%
X132068800Y-68173600D02*
G75*
G02*
X130668800Y-68173600I-700000J0D01*
G01*
X130668800Y-68173600D02*
G75*
G02*
X132068800Y-68173600I700000J0D01*
G01*
%TO.C,R10*%
X156474900Y-100707458D02*
X156474900Y-100232942D01*
X157519900Y-100707458D02*
X157519900Y-100232942D01*
%TO.C,R2*%
X168819659Y-114774800D02*
X169126941Y-114774800D01*
X168819659Y-115534800D02*
X169126941Y-115534800D01*
%TO.C,C39*%
X165500164Y-119655000D02*
X165715836Y-119655000D01*
X165500164Y-120375000D02*
X165715836Y-120375000D01*
%TO.C,C27*%
X135784000Y-82316836D02*
X135784000Y-82101164D01*
X136504000Y-82316836D02*
X136504000Y-82101164D01*
%TO.C,Y2*%
X156633200Y-66855200D02*
X156633200Y-68455200D01*
X156633200Y-68455200D02*
X159033200Y-68455200D01*
X159033200Y-66855200D02*
X156633200Y-66855200D01*
%TO.C,R14*%
X151143559Y-100889800D02*
X151450841Y-100889800D01*
X151143559Y-101649800D02*
X151450841Y-101649800D01*
%TO.C,R13*%
X129538759Y-103590666D02*
X129846041Y-103590666D01*
X129538759Y-104350666D02*
X129846041Y-104350666D01*
%TO.C,C13*%
X124437548Y-69369000D02*
X124960052Y-69369000D01*
X124437548Y-70839000D02*
X124960052Y-70839000D01*
%TO.C,J1*%
X177305600Y-102002400D02*
X177745600Y-102002400D01*
X177305600Y-103692400D02*
X177305600Y-102002400D01*
X177305600Y-106162400D02*
X175505600Y-106162400D01*
X177305600Y-106162400D02*
X177305600Y-107852400D01*
X177305600Y-107852400D02*
X177745600Y-107852400D01*
X180465600Y-107852400D02*
X180905600Y-107852400D01*
X180905600Y-102002400D02*
X180465600Y-102002400D01*
X180905600Y-107852400D02*
X180905600Y-102002400D01*
%TO.C,C17*%
X135509580Y-90676000D02*
X135228420Y-90676000D01*
X135509580Y-91696000D02*
X135228420Y-91696000D01*
%TO.C,C25*%
X159473200Y-100143364D02*
X159473200Y-100359036D01*
X160193200Y-100143364D02*
X160193200Y-100359036D01*
%TO.C,R8*%
X113617441Y-70867000D02*
X113310159Y-70867000D01*
X113617441Y-71627000D02*
X113310159Y-71627000D01*
%TO.C,C38*%
X140965600Y-69046036D02*
X140965600Y-68830364D01*
X141685600Y-69046036D02*
X141685600Y-68830364D01*
%TO.C,Y1*%
X146433200Y-65605200D02*
X146433200Y-68405200D01*
X146433200Y-68405200D02*
X149733200Y-68405200D01*
%TO.C,J3*%
X175175000Y-81037200D02*
X176515000Y-81037200D01*
X175175000Y-82527200D02*
X175175000Y-81037200D01*
X175175000Y-97847200D02*
X173975000Y-97847200D01*
X175175000Y-97847200D02*
X175175000Y-99337200D01*
X175175000Y-99337200D02*
X176515000Y-99337200D01*
X179235000Y-99337200D02*
X180975000Y-99337200D01*
X180975000Y-81037200D02*
X179235000Y-81037200D01*
X180975000Y-99337200D02*
X180975000Y-81037200D01*
%TO.C,C28*%
X135784000Y-87316836D02*
X135784000Y-87101164D01*
X136504000Y-87316836D02*
X136504000Y-87101164D01*
%TO.C,C47*%
X110945200Y-73872036D02*
X110945200Y-73656364D01*
X111665200Y-73872036D02*
X111665200Y-73656364D01*
%TO.C,D5*%
X128173600Y-65472600D02*
X128173600Y-68157600D01*
X130093600Y-65472600D02*
X128173600Y-65472600D01*
X130093600Y-68157600D02*
X130093600Y-65472600D01*
D12*
%TO.C,J2*%
X107979000Y-108162200D02*
X107979000Y-104662200D01*
X109134246Y-102062896D02*
X107979000Y-104662200D01*
X109479000Y-93412200D02*
X109479000Y-100438342D01*
X110979000Y-93412200D02*
X109479000Y-93412200D01*
X110979000Y-108162200D02*
X107979000Y-108162200D01*
X120979000Y-93412200D02*
X113679000Y-93412200D01*
X121029000Y-108162200D02*
X113729000Y-108162200D01*
X122479000Y-103537200D02*
X122479000Y-106637200D01*
X109479000Y-100438342D02*
G75*
G02*
X109134246Y-102062896I-4000016J4D01*
G01*
D17*
%TO.C,SW1*%
X163908000Y-121269400D02*
X163908000Y-125669400D01*
X163908000Y-125669400D02*
X164028000Y-125669400D01*
X164028000Y-121269400D02*
X163908000Y-121269400D01*
X165038000Y-125669400D02*
X166178000Y-125669400D01*
X166178000Y-121269400D02*
X165038000Y-121269400D01*
X167188000Y-125669400D02*
X167308000Y-125669400D01*
X167308000Y-121269400D02*
X167188000Y-121269400D01*
X167308000Y-125669400D02*
X167308000Y-121269400D01*
%TO.C,C43*%
X131745200Y-73872036D02*
X131745200Y-73656364D01*
X132465200Y-73872036D02*
X132465200Y-73656364D01*
%TO.C,C41*%
X171593564Y-68270800D02*
X171809236Y-68270800D01*
X171593564Y-68990800D02*
X171809236Y-68990800D01*
%TO.C,D4*%
X161509200Y-102211800D02*
X161509200Y-106221800D01*
X163509200Y-102211800D02*
X161509200Y-102211800D01*
X163509200Y-102211800D02*
X163509200Y-106221800D01*
%TO.C,J5*%
X132577200Y-103070400D02*
X132577200Y-105815400D01*
X132577200Y-107835400D02*
X132577200Y-108430400D01*
X132577200Y-108430400D02*
X156537200Y-108430400D01*
X133737200Y-103070400D02*
X132577200Y-103070400D01*
X133737200Y-103330400D02*
X133737200Y-103070400D01*
X134422200Y-103330400D02*
X133737200Y-103330400D01*
X134422200Y-103330400D02*
X134422200Y-102725400D01*
X155377200Y-103070400D02*
X155377200Y-103330400D01*
X155377200Y-103330400D02*
X154692200Y-103330400D01*
X156537200Y-103070400D02*
X155377200Y-103070400D01*
X156537200Y-105815400D02*
X156537200Y-103070400D01*
X156537200Y-108430400D02*
X156537200Y-107835400D01*
%TO.C,R4*%
X169126941Y-113428600D02*
X168819659Y-113428600D01*
X169126941Y-114188600D02*
X168819659Y-114188600D01*
%TO.C,J6*%
X115193000Y-58911000D02*
X124353000Y-58911000D01*
X115193000Y-60616000D02*
X115193000Y-58911000D01*
X115193000Y-62626000D02*
X115193000Y-64546000D01*
X124353000Y-58911000D02*
X124353000Y-60616000D01*
X124353000Y-64546000D02*
X124353000Y-62626000D01*
%TO.C,U6*%
X144999000Y-65509600D02*
X137009000Y-65509600D01*
X145009000Y-59289600D02*
X137009000Y-59289600D01*
X145239000Y-65189600D02*
X145239000Y-64709600D01*
X145719000Y-64709600D01*
X145239000Y-65189600D01*
G36*
X145239000Y-65189600D02*
G01*
X145239000Y-64709600D01*
X145719000Y-64709600D01*
X145239000Y-65189600D01*
G37*
%TO.C,R6*%
X125779441Y-101507200D02*
X125472159Y-101507200D01*
X125779441Y-102267200D02*
X125472159Y-102267200D01*
%TO.C,U7*%
X110405200Y-76510800D02*
X110405200Y-87110800D01*
X110805200Y-76510800D02*
X110405200Y-76510800D01*
X110805200Y-87110800D02*
X110405200Y-87110800D01*
X132605200Y-76510800D02*
X133005200Y-76510800D01*
X133005200Y-76510800D02*
X133005200Y-87110800D01*
X133005200Y-87110800D02*
X132605200Y-87110800D01*
X132935200Y-76350800D02*
X132605200Y-76110800D01*
X132935200Y-75870800D01*
X132935200Y-76350800D01*
G36*
X132935200Y-76350800D02*
G01*
X132605200Y-76110800D01*
X132935200Y-75870800D01*
X132935200Y-76350800D01*
G37*
%TO.C,C44*%
X130145200Y-73872036D02*
X130145200Y-73656364D01*
X130865200Y-73872036D02*
X130865200Y-73656364D01*
%TO.C,C45*%
X126797364Y-73404200D02*
X127013036Y-73404200D01*
X126797364Y-74124200D02*
X127013036Y-74124200D01*
%TO.C,J1*%
X177483400Y-111222600D02*
X177923400Y-111222600D01*
X177483400Y-112912600D02*
X177483400Y-111222600D01*
X177483400Y-115382600D02*
X175683400Y-115382600D01*
X177483400Y-115382600D02*
X177483400Y-117072600D01*
X177483400Y-117072600D02*
X177923400Y-117072600D01*
X180643400Y-117072600D02*
X181083400Y-117072600D01*
X181083400Y-111222600D02*
X180643400Y-111222600D01*
X181083400Y-117072600D02*
X181083400Y-111222600D01*
%TD*%
M02*
