%TF.GenerationSoftware,KiCad,Pcbnew,8.0.4*%
%TF.CreationDate,2024-10-13T10:09:02+07:00*%
%TF.ProjectId,lcd-standard-5R,6c63642d-7374-4616-9e64-6172642d3552,rev?*%
%TF.SameCoordinates,Original*%
%TF.FileFunction,Copper,L2,Bot*%
%TF.FilePolarity,Positive*%
%FSLAX46Y46*%
G04 Gerber Fmt 4.6, Leading zero omitted, Abs format (unit mm)*
G04 Created by KiCad (PCBNEW 8.0.4) date 2024-10-13 10:09:02*
%MOMM*%
%LPD*%
G01*
G04 APERTURE LIST*
%TA.AperFunction,ComponentPad*%
%ADD10C,0.800000*%
%TD*%
%TA.AperFunction,ComponentPad*%
%ADD11C,6.400000*%
%TD*%
%TA.AperFunction,ComponentPad*%
%ADD12O,2.100000X1.000000*%
%TD*%
%TA.AperFunction,ComponentPad*%
%ADD13O,1.800000X1.000000*%
%TD*%
%TA.AperFunction,ViaPad*%
%ADD14C,0.600000*%
%TD*%
%TA.AperFunction,Conductor*%
%ADD15C,0.200000*%
%TD*%
%TA.AperFunction,Conductor*%
%ADD16C,0.300000*%
%TD*%
%TA.AperFunction,Conductor*%
%ADD17C,0.600000*%
%TD*%
%TA.AperFunction,Conductor*%
%ADD18C,0.250000*%
%TD*%
G04 APERTURE END LIST*
D10*
%TO.P,H1,1,1*%
%TO.N,GND*%
X77624400Y-57513400D03*
X78327344Y-55816344D03*
X78327344Y-59210456D03*
X80024400Y-55113400D03*
D11*
X80024400Y-57513400D03*
D10*
X80024400Y-59913400D03*
X81721456Y-55816344D03*
X81721456Y-59210456D03*
X82424400Y-57513400D03*
%TD*%
%TO.P,H2,1,1*%
%TO.N,GND*%
X77624400Y-132913400D03*
X78327344Y-131216344D03*
X78327344Y-134610456D03*
X80024400Y-130513400D03*
D11*
X80024400Y-132913400D03*
D10*
X80024400Y-135313400D03*
X81721456Y-131216344D03*
X81721456Y-134610456D03*
X82424400Y-132913400D03*
%TD*%
%TO.P,H3,1,1*%
%TO.N,GND*%
X207824400Y-57513400D03*
X208527344Y-55816344D03*
X208527344Y-59210456D03*
X210224400Y-55113400D03*
D11*
X210224400Y-57513400D03*
D10*
X210224400Y-59913400D03*
X211921456Y-55816344D03*
X211921456Y-59210456D03*
X212624400Y-57513400D03*
%TD*%
%TO.P,H4,1,1*%
%TO.N,GND*%
X207824400Y-132913400D03*
X208527344Y-131216344D03*
X208527344Y-134610456D03*
X210224400Y-130513400D03*
D11*
X210224400Y-132913400D03*
D10*
X210224400Y-135313400D03*
X211921456Y-131216344D03*
X211921456Y-134610456D03*
X212624400Y-132913400D03*
%TD*%
D12*
%TO.P,J4,S1,SHIELD*%
%TO.N,GND*%
X206887000Y-126417800D03*
D13*
X211087000Y-126417800D03*
D12*
X206887000Y-117777800D03*
D13*
X211087000Y-117777800D03*
%TD*%
D14*
%TO.N,/LCD_BLK*%
X188518800Y-71501000D03*
%TO.N,*%
X113131600Y-70129400D03*
%TO.N,GND*%
X76962000Y-90151852D03*
X195808600Y-110871000D03*
X198983600Y-96850200D03*
X190550800Y-97256600D03*
X188645800Y-91871800D03*
X76962000Y-110442820D03*
X190017400Y-129311400D03*
X95224600Y-102209600D03*
X213283800Y-59715400D03*
X141909800Y-89001600D03*
X154914600Y-61798200D03*
X111302800Y-58089800D03*
X165023800Y-77597000D03*
X142657576Y-54432200D03*
X208076800Y-135966200D03*
X206806800Y-90017600D03*
X163042600Y-58369200D03*
X106248200Y-82270600D03*
X164088616Y-113614200D03*
X132593080Y-135966200D03*
X87553800Y-101015800D03*
X213283800Y-100297336D03*
X133172200Y-91668600D03*
X168884600Y-73660000D03*
X76962000Y-105370078D03*
X142443200Y-64973200D03*
X177901600Y-85166200D03*
X213283800Y-120588304D03*
X203044552Y-54432200D03*
X90627200Y-83083400D03*
X127560832Y-54432200D03*
X146456400Y-73812400D03*
X117496336Y-54432200D03*
X194360800Y-102260400D03*
X107431840Y-54432200D03*
X76962000Y-125661046D03*
X112464088Y-135966200D03*
X92075000Y-105384600D03*
X198012304Y-54432200D03*
X176631600Y-81127600D03*
X158264576Y-111760000D03*
X145719800Y-66497200D03*
X83718400Y-95072200D03*
X172851064Y-135966200D03*
X174015400Y-82524600D03*
X180625750Y-107213400D03*
X151688800Y-67894200D03*
X157754320Y-135966200D03*
X119380000Y-103022400D03*
X152722072Y-135966200D03*
X175945800Y-79451200D03*
X180848000Y-83515200D03*
X170244652Y-113614200D03*
X142657576Y-135966200D03*
X144949332Y-108254800D03*
X187242450Y-100609400D03*
X105968800Y-77292200D03*
X202184000Y-95148400D03*
X203044552Y-135966200D03*
X168910000Y-70713600D03*
X121081800Y-77419200D03*
X137625328Y-135966200D03*
X117805200Y-73863200D03*
X177883312Y-135966200D03*
X112801400Y-98221800D03*
X105892600Y-99542600D03*
X160655000Y-87807800D03*
X122021600Y-98450400D03*
X92456000Y-72339200D03*
X142773400Y-85496400D03*
X132593080Y-54432200D03*
X94488000Y-58420000D03*
X213283800Y-115515562D03*
X103327200Y-111734600D03*
X139192000Y-66344800D03*
X187096400Y-65506600D03*
X191084200Y-120091200D03*
X192980056Y-54432200D03*
X80721200Y-86588600D03*
X121056400Y-73075800D03*
X209829400Y-122275600D03*
X159080200Y-76250800D03*
X92875000Y-105384600D03*
X213283800Y-85079110D03*
X111404400Y-79756000D03*
X169646600Y-82042000D03*
X160731200Y-110007400D03*
X76962000Y-69860884D03*
X213283800Y-74933626D03*
X168859200Y-69316600D03*
X184302400Y-89814400D03*
X168910000Y-72161400D03*
X117496336Y-135966200D03*
X106172000Y-73609200D03*
X197561200Y-70053200D03*
X179635150Y-105765600D03*
X198374000Y-93573600D03*
X103886000Y-67589400D03*
X187947808Y-135966200D03*
X93446600Y-121996200D03*
X164287200Y-66624200D03*
X157932580Y-113614200D03*
X145620508Y-113614200D03*
X213283800Y-95224594D03*
X182915560Y-54432200D03*
X147523200Y-62306200D03*
X91871800Y-76301600D03*
X186309000Y-58572400D03*
X137109200Y-110007400D03*
X116408200Y-132130800D03*
X83591400Y-84886800D03*
X102997000Y-121335800D03*
X193090800Y-96951800D03*
X76962000Y-64788142D03*
X79832200Y-97942400D03*
X155727400Y-68249800D03*
X102399592Y-54432200D03*
X112801400Y-99491800D03*
X89382600Y-115443000D03*
X205054200Y-118719600D03*
X117576600Y-67716400D03*
X176400688Y-113614200D03*
X183934100Y-103911400D03*
X93345000Y-116941600D03*
X171094400Y-77343000D03*
X133308436Y-113614200D03*
X137397066Y-108254800D03*
X82448400Y-66344800D03*
X105410000Y-105994200D03*
X182638700Y-102768400D03*
X151776544Y-113614200D03*
X129844800Y-108254800D03*
X173609000Y-119176800D03*
X164465000Y-69088000D03*
X103886000Y-88544400D03*
X76962000Y-130733800D03*
X96799400Y-73507600D03*
X160680400Y-72872600D03*
X175488600Y-64897000D03*
X213283800Y-90151852D03*
X198012304Y-135966200D03*
X204063600Y-130048000D03*
X92335096Y-135966200D03*
X87302848Y-54432200D03*
X92075000Y-106184600D03*
X83870800Y-107848400D03*
X167818816Y-135966200D03*
X120827800Y-118872000D03*
X154711400Y-73812400D03*
X213283800Y-105370078D03*
X127025400Y-85572600D03*
X213283800Y-69860884D03*
X134518400Y-83464400D03*
X130835400Y-99085400D03*
X115697000Y-69646800D03*
X187947808Y-54432200D03*
X76962000Y-95224594D03*
X82270600Y-135966200D03*
X126034800Y-65100200D03*
X192980056Y-135966200D03*
X76962000Y-100297336D03*
X116027200Y-81000600D03*
X76962000Y-80006368D03*
X112464088Y-54432200D03*
X172851064Y-54432200D03*
X147689824Y-135966200D03*
X150444200Y-73355200D03*
X167606130Y-108254800D03*
X147689824Y-54432200D03*
X164896800Y-82804000D03*
X173312664Y-111760000D03*
X150469600Y-77927200D03*
X202895200Y-90068400D03*
X185642250Y-99745800D03*
X164693600Y-85623400D03*
X97367344Y-54432200D03*
X127152400Y-113614200D03*
X157754320Y-54432200D03*
X76962000Y-120588304D03*
X96215200Y-69037200D03*
X76962000Y-115515562D03*
X142163800Y-99187000D03*
X121996200Y-94843600D03*
X137625328Y-54432200D03*
X142773400Y-82981800D03*
X128244600Y-89230200D03*
X173964600Y-105587800D03*
X87302848Y-135966200D03*
X160053864Y-108254800D03*
X155117800Y-77520800D03*
X122528584Y-135966200D03*
X129159000Y-75133200D03*
X188645800Y-96723200D03*
X159029400Y-58470800D03*
X122528584Y-54432200D03*
X173355000Y-77292200D03*
X163906200Y-90347800D03*
X205105000Y-125399800D03*
X79781400Y-112420400D03*
X202844400Y-59867800D03*
X140131800Y-58674000D03*
X81000600Y-91871800D03*
X94792800Y-94208600D03*
X133553200Y-76073000D03*
X90017600Y-59309000D03*
X97510600Y-106045000D03*
X174675800Y-108254800D03*
X192887600Y-89789000D03*
X165788620Y-111760000D03*
X91389200Y-115925600D03*
X137388600Y-72542400D03*
X213283800Y-125661046D03*
X120294400Y-64897000D03*
X199618600Y-61849000D03*
X213283800Y-110442820D03*
X107975400Y-94411800D03*
X109474000Y-115341400D03*
X207213200Y-95199200D03*
X167818816Y-54432200D03*
X117779800Y-86385400D03*
X76962000Y-85079110D03*
X96748600Y-87858600D03*
X97367344Y-135966200D03*
X132080000Y-95605600D03*
X82270600Y-54432200D03*
X110185200Y-99872800D03*
X213283800Y-80006368D03*
X162786568Y-135966200D03*
X152857200Y-110007400D03*
X124104400Y-68072000D03*
X138277600Y-94538800D03*
X213283800Y-64788142D03*
X163677600Y-63373000D03*
X127560832Y-135966200D03*
X92875000Y-106184600D03*
X162786568Y-54432200D03*
X182915560Y-135966200D03*
X134899400Y-62407800D03*
X143216488Y-111760000D03*
X128168400Y-111760000D03*
X152501598Y-108254800D03*
X76962000Y-59715400D03*
X142798800Y-74091800D03*
X135692444Y-111760000D03*
X76962000Y-74933626D03*
X110109000Y-67868800D03*
X121158000Y-103022400D03*
X175158400Y-59182000D03*
X107431840Y-135966200D03*
X85902800Y-131978400D03*
X152722072Y-54432200D03*
X140919200Y-119583200D03*
X168605200Y-110007400D03*
X151866600Y-85242400D03*
X102399592Y-135966200D03*
X139464472Y-113614200D03*
X144983200Y-110007400D03*
X110337600Y-75285600D03*
X204876400Y-90043000D03*
X208076800Y-54432200D03*
X127584200Y-63728600D03*
X138150600Y-81229200D03*
X129235200Y-110007400D03*
X213283800Y-130733800D03*
X92335096Y-54432200D03*
X142214600Y-78765400D03*
X177883312Y-54432200D03*
X150740532Y-111760000D03*
X179197000Y-99009200D03*
%TO.N,+3V3*%
X205613000Y-76692000D03*
X206613000Y-75692000D03*
X205613000Y-74692000D03*
X204613000Y-76692000D03*
X204613000Y-75692000D03*
X206613000Y-76692000D03*
X205613000Y-75692000D03*
X204613000Y-74692000D03*
X206613000Y-74692000D03*
X191643000Y-83909200D03*
%TO.N,/LCD_RST*%
X142494000Y-72796400D03*
X165963600Y-80695800D03*
%TO.N,/SWO*%
X93192600Y-120726200D03*
X99390200Y-117586200D03*
X82245200Y-116001800D03*
%TO.N,/SWDIO*%
X93192600Y-118186200D03*
X82245200Y-121996200D03*
%TO.N,/SWCLK*%
X93192600Y-119456200D03*
X82245200Y-119456200D03*
%TO.N,/RESET*%
X119669400Y-96824800D03*
X82245200Y-125425200D03*
X93192600Y-123266200D03*
%TO.N,/LCD_BLK*%
X132320000Y-69824600D03*
%TO.N,VBAT*%
X145415000Y-75361800D03*
X162636200Y-61874400D03*
%TO.N,VBUS*%
X204012800Y-118262400D03*
X204012800Y-123215400D03*
X204012800Y-118948200D03*
X204012800Y-123926600D03*
%TO.N,/LED0*%
X90881200Y-78613000D03*
X108356400Y-65227200D03*
%TO.N,/LED1*%
X108356400Y-64185800D03*
X90932000Y-74244200D03*
%TO.N,/DAT1*%
X112649000Y-74091800D03*
X106109400Y-70358000D03*
%TO.N,/DAT0*%
X105009400Y-70358000D03*
X111379000Y-72821800D03*
%TO.N,/SD_DET*%
X107209400Y-70358000D03*
%TO.N,/DAT2*%
X111353600Y-93141800D03*
X98393800Y-70358000D03*
%TO.N,/CMD*%
X112649000Y-88061800D03*
X100609400Y-70358000D03*
%TO.N,/CLK*%
X102793800Y-70358000D03*
X112649000Y-86791800D03*
%TO.N,/DAT3*%
X99509400Y-70358000D03*
X112649000Y-94411800D03*
%TO.N,/YD*%
X161315400Y-81889600D03*
X165506400Y-72263000D03*
%TO.N,/XL*%
X165506400Y-70789800D03*
X159004000Y-81889600D03*
%TO.N,/XR*%
X165506400Y-73736200D03*
X163626800Y-81889600D03*
%TO.N,/YU*%
X165506400Y-69316600D03*
X156692600Y-81889600D03*
%TO.N,/TP_SCL*%
X141198600Y-72796400D03*
X125095000Y-105257600D03*
%TO.N,/TP_WAKE*%
X127787400Y-96199400D03*
X127381000Y-105283000D03*
%TO.N,/TP_SDA*%
X139928600Y-73812400D03*
X126238000Y-105283000D03*
%TO.N,/TP_INT*%
X128854200Y-96199400D03*
X128524000Y-105283000D03*
%TO.N,/SERIAL_RX*%
X117322600Y-79171800D03*
X123545600Y-105257600D03*
%TO.N,/SERIAL_TX*%
X115900200Y-77927200D03*
X122453400Y-105257600D03*
%TO.N,/TP_MISO*%
X127152400Y-68630800D03*
X154457400Y-69865800D03*
%TO.N,/TP_MOSI*%
X154457400Y-71065800D03*
X148183600Y-71065800D03*
%TO.N,/TP_IRQ*%
X123430000Y-69850000D03*
X153797000Y-69265800D03*
%TO.N,/TP_CLK*%
X124714000Y-69850000D03*
X154457400Y-72288400D03*
%TO.N,/TP_BUSY*%
X127240000Y-69850000D03*
X153797000Y-70465800D03*
%TO.N,/TP_CS*%
X128510000Y-69850000D03*
X153797000Y-71665800D03*
%TO.N,VDD*%
X193462400Y-80502000D03*
X193462400Y-79502000D03*
X195462400Y-79502000D03*
X152704800Y-58343800D03*
X194462400Y-80502000D03*
X194462400Y-79502000D03*
X195462400Y-80502000D03*
X116001800Y-95681800D03*
X115341400Y-95681800D03*
%TO.N,/DBG_TX*%
X120294400Y-92684600D03*
X93192600Y-124536200D03*
%TO.N,/DBG_RX*%
X121335800Y-92710000D03*
X89509600Y-125653800D03*
%TO.N,/IO_7*%
X111074200Y-76327000D03*
X113131600Y-68097400D03*
%TO.N,/I2S2_SDO*%
X107188000Y-97790000D03*
X112776000Y-89331800D03*
%TO.N,/I2S2_CLK*%
X106817142Y-106867942D03*
X120015000Y-90703400D03*
%TO.N,/I2S2_WS*%
X120802400Y-90043000D03*
X106756200Y-107848400D03*
%TO.N,/~{SD_MODE}*%
X106426000Y-104013000D03*
X121445600Y-88366600D03*
%TD*%
D15*
%TO.N,/LCD_BLK*%
X188518800Y-70942200D02*
X188518800Y-71501000D01*
D16*
%TO.N,+3V3*%
X205613000Y-81432400D02*
X203136200Y-83909200D01*
X205613000Y-76692000D02*
X205613000Y-81432400D01*
X203136200Y-83909200D02*
X191643000Y-83909200D01*
D15*
%TO.N,/LCD_RST*%
X151173914Y-83159600D02*
X163499800Y-83159600D01*
X163499800Y-83159600D02*
X165963600Y-80695800D01*
X143745000Y-74047400D02*
X143745000Y-75730686D01*
X143745000Y-75730686D02*
X151173914Y-83159600D01*
X142494000Y-72796400D02*
X143745000Y-74047400D01*
%TO.N,/SWO*%
X82702400Y-117703600D02*
X81178400Y-119227600D01*
X96250200Y-120726200D02*
X99390200Y-117586200D01*
X93192600Y-120726200D02*
X96250200Y-120726200D01*
X82245200Y-116001800D02*
X82702400Y-116459000D01*
X85764172Y-123088400D02*
X88126372Y-120726200D01*
X81178400Y-122384086D02*
X81882714Y-123088400D01*
X81178400Y-119227600D02*
X81178400Y-122384086D01*
X81882714Y-123088400D02*
X85764172Y-123088400D01*
X88126372Y-120726200D02*
X93192600Y-120726200D01*
X82702400Y-116459000D02*
X82702400Y-117703600D01*
%TO.N,/SWDIO*%
X89535000Y-118186200D02*
X93192600Y-118186200D01*
X82245200Y-121996200D02*
X85725000Y-121996200D01*
X85725000Y-121996200D02*
X89535000Y-118186200D01*
%TO.N,/SWCLK*%
X82702400Y-119913400D02*
X82702400Y-120472200D01*
X82245200Y-119456200D02*
X82702400Y-119913400D01*
X88830686Y-119456200D02*
X93192600Y-119456200D01*
X82702400Y-120472200D02*
X81645200Y-121529400D01*
X85690686Y-122596200D02*
X88830686Y-119456200D01*
X81956200Y-122596200D02*
X85690686Y-122596200D01*
X81645200Y-121529400D02*
X81645200Y-122285200D01*
X81645200Y-122285200D02*
X81956200Y-122596200D01*
%TO.N,/RESET*%
X86715600Y-123266200D02*
X84556600Y-125425200D01*
X112344200Y-118694200D02*
X107772200Y-123266200D01*
X112344200Y-104150000D02*
X112344200Y-118694200D01*
X84556600Y-125425200D02*
X82245200Y-125425200D01*
X93192600Y-123266200D02*
X86715600Y-123266200D01*
X107772200Y-123266200D02*
X93192600Y-123266200D01*
X119669400Y-96824800D02*
X112344200Y-104150000D01*
%TO.N,/LCD_BLK*%
X144145000Y-75565000D02*
X144145000Y-70154800D01*
X156057600Y-76174600D02*
X144754600Y-76174600D01*
X184556400Y-66979800D02*
X165252400Y-66979800D01*
X132853400Y-69291200D02*
X132320000Y-69824600D01*
X144145000Y-70154800D02*
X143281400Y-69291200D01*
X143281400Y-69291200D02*
X132853400Y-69291200D01*
X188518800Y-70942200D02*
X184556400Y-66979800D01*
X165252400Y-66979800D02*
X156057600Y-76174600D01*
X144754600Y-76174600D02*
X144145000Y-75565000D01*
D17*
%TO.N,VBAT*%
X155702000Y-75361800D02*
X145415000Y-75361800D01*
X162636200Y-61874400D02*
X157505400Y-67005200D01*
X157505400Y-73558400D02*
X155702000Y-75361800D01*
X157505400Y-67005200D02*
X157505400Y-73558400D01*
%TO.N,VBUS*%
X204012800Y-123926600D02*
X204012800Y-118262400D01*
D18*
%TO.N,/LED0*%
X94526798Y-76821602D02*
X92735400Y-78613000D01*
X92735400Y-78613000D02*
X90881200Y-78613000D01*
X108356400Y-65227200D02*
X96902396Y-65227200D01*
X94526798Y-67602798D02*
X94526798Y-76821602D01*
X96902396Y-65227200D02*
X94526798Y-67602798D01*
%TO.N,/LED1*%
X108356400Y-64185800D02*
X97307400Y-64185800D01*
X92456000Y-74244200D02*
X90932000Y-74244200D01*
X97307400Y-64185800D02*
X94076798Y-67416402D01*
X94076798Y-67416402D02*
X94076798Y-72623402D01*
X94076798Y-72623402D02*
X92456000Y-74244200D01*
D15*
%TO.N,/DAT1*%
X112090200Y-73533000D02*
X112090200Y-72593200D01*
X106109400Y-71235200D02*
X106109400Y-70358000D01*
X111607600Y-72110600D02*
X106984800Y-72110600D01*
X112090200Y-72593200D02*
X111607600Y-72110600D01*
X112649000Y-74091800D02*
X112090200Y-73533000D01*
X106984800Y-72110600D02*
X106109400Y-71235200D01*
%TO.N,/DAT0*%
X106502200Y-72821800D02*
X105009400Y-71329000D01*
X111379000Y-72821800D02*
X106502200Y-72821800D01*
X105009400Y-71329000D02*
X105009400Y-70358000D01*
%TO.N,/DAT2*%
X111353600Y-93141800D02*
X110261400Y-93141800D01*
X110261400Y-93141800D02*
X98393800Y-81274200D01*
X98393800Y-81274200D02*
X98393800Y-70358000D01*
%TO.N,/CMD*%
X112649000Y-88061800D02*
X109238514Y-88061800D01*
X109238514Y-88061800D02*
X100609400Y-79432686D01*
X100609400Y-79432686D02*
X100609400Y-70358000D01*
%TO.N,/CLK*%
X102793800Y-81051400D02*
X102793800Y-70358000D01*
X112649000Y-86791800D02*
X108534200Y-86791800D01*
X108534200Y-86791800D02*
X102793800Y-81051400D01*
%TO.N,/DAT3*%
X112166400Y-92964000D02*
X111582200Y-92379800D01*
X112649000Y-94411800D02*
X112166400Y-93929200D01*
X112166400Y-93929200D02*
X112166400Y-92964000D01*
X110065086Y-92379800D02*
X99509400Y-81824114D01*
X111582200Y-92379800D02*
X110065086Y-92379800D01*
X99509400Y-81824114D02*
X99509400Y-70358000D01*
%TO.N,/YD*%
X164744400Y-75057000D02*
X164744400Y-73533000D01*
X164744400Y-73533000D02*
X165506400Y-72771000D01*
X161315400Y-81889600D02*
X161315400Y-78486000D01*
X165506400Y-72771000D02*
X165506400Y-72263000D01*
X161315400Y-78486000D02*
X164744400Y-75057000D01*
%TO.N,/XL*%
X159004000Y-81889600D02*
X159004000Y-79883000D01*
X164160200Y-72644000D02*
X165506400Y-71297800D01*
X165506400Y-71297800D02*
X165506400Y-70789800D01*
X164160200Y-74726800D02*
X164160200Y-72644000D01*
X159004000Y-79883000D02*
X164160200Y-74726800D01*
%TO.N,/XR*%
X163626800Y-77190600D02*
X165506400Y-75311000D01*
X165506400Y-75311000D02*
X165506400Y-73736200D01*
X163626800Y-81889600D02*
X163626800Y-77190600D01*
%TO.N,/YU*%
X165506400Y-69875400D02*
X165506400Y-69316600D01*
X163601400Y-74218800D02*
X163601400Y-71780400D01*
X163601400Y-71780400D02*
X165506400Y-69875400D01*
X156692600Y-81127600D02*
X163601400Y-74218800D01*
X156692600Y-81889600D02*
X156692600Y-81127600D01*
%TO.N,/TP_SCL*%
X140817600Y-73177400D02*
X141198600Y-72796400D01*
X139217400Y-73609200D02*
X139649200Y-73177400D01*
X139649200Y-73177400D02*
X140817600Y-73177400D01*
X125095000Y-105257600D02*
X125425200Y-104927400D01*
X139217400Y-76040715D02*
X139217400Y-73609200D01*
X125425200Y-104927400D02*
X125425200Y-89832915D01*
X125425200Y-89832915D02*
X139217400Y-76040715D01*
%TO.N,/TP_WAKE*%
X127743000Y-96243800D02*
X127787400Y-96199400D01*
X127381000Y-105283000D02*
X127743000Y-104921000D01*
X127743000Y-104921000D02*
X127743000Y-96243800D01*
%TO.N,/TP_SDA*%
X125825200Y-104870200D02*
X125825200Y-89998600D01*
X139928600Y-75895200D02*
X139928600Y-73812400D01*
X125825200Y-89998600D02*
X139928600Y-75895200D01*
X126238000Y-105283000D02*
X125825200Y-104870200D01*
%TO.N,/TP_INT*%
X128143000Y-96910600D02*
X128854200Y-96199400D01*
X128524000Y-105283000D02*
X128143000Y-104902000D01*
X128143000Y-104902000D02*
X128143000Y-96910600D01*
D18*
%TO.N,/SERIAL_RX*%
X123266200Y-80543400D02*
X121894600Y-79171800D01*
X121894600Y-79171800D02*
X117322600Y-79171800D01*
X123266200Y-104978200D02*
X123266200Y-80543400D01*
X123545600Y-105257600D02*
X123266200Y-104978200D01*
%TO.N,/SERIAL_TX*%
X117017800Y-79832200D02*
X116509800Y-79324200D01*
X116509800Y-78536800D02*
X115900200Y-77927200D01*
X121918604Y-79832200D02*
X117017800Y-79832200D01*
X116509800Y-79324200D02*
X116509800Y-78536800D01*
X122453400Y-105257600D02*
X122783600Y-104927400D01*
X122783600Y-104927400D02*
X122783600Y-80697196D01*
X122783600Y-80697196D02*
X121918604Y-79832200D01*
D15*
%TO.N,/TP_MISO*%
X143944144Y-67691200D02*
X146118744Y-69865800D01*
X127152400Y-68630800D02*
X128092000Y-67691200D01*
X128092000Y-67691200D02*
X143944144Y-67691200D01*
X146118744Y-69865800D02*
X154457400Y-69865800D01*
%TO.N,/TP_MOSI*%
X154045529Y-71065800D02*
X154251464Y-70859864D01*
X148183600Y-71065800D02*
X154045529Y-71065800D01*
X154251464Y-70859864D02*
X154457400Y-71065800D01*
%TO.N,/TP_IRQ*%
X153797000Y-69265800D02*
X146084430Y-69265800D01*
X144109830Y-67291200D02*
X125988800Y-67291200D01*
X146084430Y-69265800D02*
X144109830Y-67291200D01*
X125988800Y-67291200D02*
X123430000Y-69850000D01*
%TO.N,/TP_CLK*%
X130524200Y-68891200D02*
X143447086Y-68891200D01*
X125171200Y-69392800D02*
X125704600Y-69392800D01*
X125704600Y-69392800D02*
X126873000Y-70561200D01*
X126873000Y-70561200D02*
X128854200Y-70561200D01*
X146844286Y-72288400D02*
X154457400Y-72288400D01*
X143447086Y-68891200D02*
X146844286Y-72288400D01*
X124714000Y-69850000D02*
X125171200Y-69392800D01*
X128854200Y-70561200D02*
X130524200Y-68891200D01*
%TO.N,/TP_BUSY*%
X153797000Y-70465800D02*
X146153058Y-70465800D01*
X143778458Y-68091200D02*
X128998800Y-68091200D01*
X128998800Y-68091200D02*
X127240000Y-69850000D01*
X146153058Y-70465800D02*
X143778458Y-68091200D01*
%TO.N,/TP_CS*%
X146787372Y-71665800D02*
X143612772Y-68491200D01*
X143612772Y-68491200D02*
X129868800Y-68491200D01*
X129868800Y-68491200D02*
X128510000Y-69850000D01*
X153797000Y-71665800D02*
X146787372Y-71665800D01*
D17*
%TO.N,VDD*%
X117246400Y-88265000D02*
X114147600Y-85166200D01*
X115341400Y-95681800D02*
X116586000Y-95681800D01*
X152603200Y-56921400D02*
X189179200Y-56921400D01*
X193903600Y-61645800D02*
X193903600Y-79857600D01*
D16*
X152704800Y-57023000D02*
X152603200Y-56921400D01*
D17*
X114147600Y-85166200D02*
X114147600Y-62814200D01*
D16*
X152704800Y-58343800D02*
X152704800Y-57023000D01*
D17*
X189179200Y-56921400D02*
X193903600Y-61645800D01*
X114147600Y-62814200D02*
X120040400Y-56921400D01*
X120040400Y-56921400D02*
X152603200Y-56921400D01*
X117246400Y-95021400D02*
X117246400Y-88265000D01*
X116586000Y-95681800D02*
X117246400Y-95021400D01*
D18*
%TO.N,/DBG_TX*%
X120294400Y-92684600D02*
X120294400Y-97155000D01*
X107103241Y-124536200D02*
X93192600Y-124536200D01*
X112769200Y-104680200D02*
X112769200Y-118870241D01*
X120294400Y-97155000D02*
X112769200Y-104680200D01*
X112769200Y-118870241D02*
X107103241Y-124536200D01*
%TO.N,/DBG_RX*%
X113219200Y-119089200D02*
X106654600Y-125653800D01*
X106654600Y-125653800D02*
X89509600Y-125653800D01*
X121335800Y-96749996D02*
X113219200Y-104866596D01*
X113219200Y-104866596D02*
X113219200Y-119089200D01*
X121335800Y-92710000D02*
X121335800Y-96749996D01*
D15*
%TO.N,/IO_7*%
X113131600Y-68097400D02*
X112191800Y-69037200D01*
X113249000Y-72990000D02*
X113249000Y-75574600D01*
X112191800Y-69037200D02*
X112191800Y-71932800D01*
X113249000Y-75574600D02*
X112496600Y-76327000D01*
X112191800Y-71932800D02*
X113249000Y-72990000D01*
X112496600Y-76327000D02*
X111074200Y-76327000D01*
D18*
%TO.N,/I2S2_SDO*%
X113274000Y-93309600D02*
X112344200Y-92379800D01*
X108966000Y-96012000D02*
X112547400Y-96012000D01*
X107188000Y-97790000D02*
X108966000Y-96012000D01*
X113274000Y-95285400D02*
X113274000Y-93309600D01*
X112344200Y-92379800D02*
X112344200Y-89763600D01*
X112547400Y-96012000D02*
X113274000Y-95285400D01*
X112344200Y-89763600D02*
X112776000Y-89331800D01*
%TO.N,/I2S2_CLK*%
X106817142Y-106867942D02*
X111758524Y-101926560D01*
X112854444Y-101926560D02*
X119133200Y-95647804D01*
X119133200Y-95647804D02*
X119133200Y-91585200D01*
X119133200Y-91585200D02*
X120015000Y-90703400D01*
X111758524Y-101926560D02*
X112854444Y-101926560D01*
%TO.N,/I2S2_WS*%
X119583200Y-92252800D02*
X120802400Y-91033600D01*
X120802400Y-91033600D02*
X120802400Y-90043000D01*
X119583200Y-95834200D02*
X119583200Y-92252800D01*
X112228040Y-102376560D02*
X113040840Y-102376560D01*
X113040840Y-102376560D02*
X119583200Y-95834200D01*
X106756200Y-107848400D02*
X112228040Y-102376560D01*
%TO.N,/~{SD_MODE}*%
X118683200Y-95461408D02*
X112668048Y-101476560D01*
X108962440Y-101476560D02*
X106426000Y-104013000D01*
X112668048Y-101476560D02*
X108962440Y-101476560D01*
X121445600Y-88388916D02*
X118683200Y-91151316D01*
X121445600Y-88366600D02*
X121445600Y-88388916D01*
X118683200Y-91151316D02*
X118683200Y-95461408D01*
%TD*%
%TA.AperFunction,Conductor*%
%TO.N,GND*%
G36*
X213723900Y-133110153D02*
G01*
X213723730Y-133116643D01*
X213706164Y-133451805D01*
X213704807Y-133464713D01*
X213652815Y-133792980D01*
X213650117Y-133805676D01*
X213564092Y-134126726D01*
X213560081Y-134139070D01*
X213440972Y-134449360D01*
X213435693Y-134461217D01*
X213284799Y-134757364D01*
X213278309Y-134768604D01*
X213097293Y-135047343D01*
X213089664Y-135057844D01*
X212880492Y-135316149D01*
X212871807Y-135325794D01*
X212636794Y-135560807D01*
X212627149Y-135569492D01*
X212368844Y-135778664D01*
X212358343Y-135786293D01*
X212079604Y-135967309D01*
X212068364Y-135973799D01*
X211772217Y-136124693D01*
X211760360Y-136129972D01*
X211450070Y-136249081D01*
X211437726Y-136253092D01*
X211116676Y-136339117D01*
X211103980Y-136341815D01*
X210775713Y-136393807D01*
X210762805Y-136395164D01*
X210427644Y-136412730D01*
X210421154Y-136412900D01*
X205824400Y-136412900D01*
X205824400Y-128513400D01*
X213723900Y-128513400D01*
X213723900Y-133110153D01*
G37*
%TD.AperFunction*%
%TD*%
%TA.AperFunction,Conductor*%
%TO.N,GND*%
G36*
X205824400Y-61913400D02*
G01*
X213723900Y-61913400D01*
X213723900Y-128513400D01*
X205824400Y-128513400D01*
X205824400Y-136412900D01*
X84424400Y-136412900D01*
X84424400Y-132513399D01*
X122519185Y-132513399D01*
X122519185Y-132513400D01*
X122538002Y-132716482D01*
X122593817Y-132912647D01*
X122593822Y-132912660D01*
X122684727Y-133095221D01*
X122807637Y-133257981D01*
X122958358Y-133395380D01*
X122958360Y-133395382D01*
X122986653Y-133412900D01*
X123131763Y-133502748D01*
X123321944Y-133576424D01*
X123522424Y-133613900D01*
X123522426Y-133613900D01*
X203726374Y-133613900D01*
X203726376Y-133613900D01*
X203926856Y-133576424D01*
X204117037Y-133502748D01*
X204290441Y-133395381D01*
X204418522Y-133278619D01*
X204441162Y-133257981D01*
X204523126Y-133149443D01*
X204564073Y-133095221D01*
X204654982Y-132912650D01*
X204710797Y-132716483D01*
X204729615Y-132513400D01*
X204710797Y-132310317D01*
X204654982Y-132114150D01*
X204564073Y-131931579D01*
X204504092Y-131852151D01*
X204441162Y-131768818D01*
X204290441Y-131631419D01*
X204290439Y-131631417D01*
X204117042Y-131524055D01*
X204117035Y-131524051D01*
X203958575Y-131462664D01*
X203926856Y-131450376D01*
X203726376Y-131412900D01*
X203644391Y-131412900D01*
X123651329Y-131412900D01*
X123624400Y-131412900D01*
X123522424Y-131412900D01*
X123321944Y-131450376D01*
X123321941Y-131450376D01*
X123321941Y-131450377D01*
X123131764Y-131524051D01*
X123131757Y-131524055D01*
X122958360Y-131631417D01*
X122958358Y-131631419D01*
X122807637Y-131768818D01*
X122684727Y-131931578D01*
X122593822Y-132114139D01*
X122593817Y-132114152D01*
X122538002Y-132310317D01*
X122519185Y-132513399D01*
X84424400Y-132513399D01*
X84424400Y-128513400D01*
X76524900Y-128513400D01*
X76524900Y-124462740D01*
X79340400Y-124462740D01*
X79340400Y-124609659D01*
X79369058Y-124753734D01*
X79369061Y-124753744D01*
X79425278Y-124889466D01*
X79425283Y-124889475D01*
X79506898Y-125011619D01*
X79506901Y-125011623D01*
X79610776Y-125115498D01*
X79610780Y-125115501D01*
X79732924Y-125197116D01*
X79732930Y-125197119D01*
X79732931Y-125197120D01*
X79868658Y-125253340D01*
X80010166Y-125281487D01*
X80012740Y-125281999D01*
X80012744Y-125282000D01*
X80012745Y-125282000D01*
X80159656Y-125282000D01*
X80159657Y-125281999D01*
X80303742Y-125253340D01*
X80439469Y-125197120D01*
X80561620Y-125115501D01*
X80665501Y-125011620D01*
X80747120Y-124889469D01*
X80803340Y-124753742D01*
X80832000Y-124609655D01*
X80832000Y-124462745D01*
X80803340Y-124318658D01*
X80747120Y-124182931D01*
X80747119Y-124182930D01*
X80747116Y-124182924D01*
X80665501Y-124060780D01*
X80665498Y-124060776D01*
X80561623Y-123956901D01*
X80561619Y-123956898D01*
X80439475Y-123875283D01*
X80439466Y-123875278D01*
X80326245Y-123828381D01*
X80303742Y-123819060D01*
X80303738Y-123819059D01*
X80303734Y-123819058D01*
X80159659Y-123790400D01*
X80159655Y-123790400D01*
X80012745Y-123790400D01*
X80012740Y-123790400D01*
X79868665Y-123819058D01*
X79868655Y-123819061D01*
X79732933Y-123875278D01*
X79732924Y-123875283D01*
X79610780Y-123956898D01*
X79610776Y-123956901D01*
X79506901Y-124060776D01*
X79506898Y-124060780D01*
X79425283Y-124182924D01*
X79425278Y-124182933D01*
X79369061Y-124318655D01*
X79369058Y-124318665D01*
X79340400Y-124462740D01*
X76524900Y-124462740D01*
X76524900Y-116842740D01*
X78324400Y-116842740D01*
X78324400Y-116989659D01*
X78353058Y-117133734D01*
X78353061Y-117133744D01*
X78409278Y-117269466D01*
X78409283Y-117269475D01*
X78490898Y-117391619D01*
X78490901Y-117391623D01*
X78594776Y-117495498D01*
X78594780Y-117495501D01*
X78716924Y-117577116D01*
X78716930Y-117577119D01*
X78716931Y-117577120D01*
X78852658Y-117633340D01*
X78996740Y-117661999D01*
X78996744Y-117662000D01*
X78996745Y-117662000D01*
X79143656Y-117662000D01*
X79143657Y-117661999D01*
X79287742Y-117633340D01*
X79423469Y-117577120D01*
X79545620Y-117495501D01*
X79649501Y-117391620D01*
X79731120Y-117269469D01*
X79787340Y-117133742D01*
X79816000Y-116989655D01*
X79816000Y-116842745D01*
X79815999Y-116842740D01*
X80356400Y-116842740D01*
X80356400Y-116989659D01*
X80385058Y-117133734D01*
X80385061Y-117133744D01*
X80441278Y-117269466D01*
X80441283Y-117269475D01*
X80522898Y-117391619D01*
X80522901Y-117391623D01*
X80626776Y-117495498D01*
X80626780Y-117495501D01*
X80748924Y-117577116D01*
X80748930Y-117577119D01*
X80748931Y-117577120D01*
X80884658Y-117633340D01*
X81028740Y-117661999D01*
X81028744Y-117662000D01*
X81028745Y-117662000D01*
X81175656Y-117662000D01*
X81175657Y-117661999D01*
X81319742Y-117633340D01*
X81455469Y-117577120D01*
X81577620Y-117495501D01*
X81681501Y-117391620D01*
X81763120Y-117269469D01*
X81819340Y-117133742D01*
X81848000Y-116989655D01*
X81848000Y-116842745D01*
X81819340Y-116698658D01*
X81794947Y-116639770D01*
X81787479Y-116570303D01*
X81818754Y-116507824D01*
X81878842Y-116472171D01*
X81948667Y-116474664D01*
X81959982Y-116479751D01*
X81960066Y-116479551D01*
X82024039Y-116506049D01*
X82101491Y-116538130D01*
X82244085Y-116556903D01*
X82307982Y-116585170D01*
X82346453Y-116643494D01*
X82351900Y-116679842D01*
X82351900Y-117507056D01*
X82332215Y-117574095D01*
X82315581Y-117594737D01*
X80897931Y-119012386D01*
X80897929Y-119012389D01*
X80868376Y-119063578D01*
X80868375Y-119063579D01*
X80851787Y-119092309D01*
X80851786Y-119092312D01*
X80827900Y-119181456D01*
X80827900Y-122430231D01*
X80846704Y-122500410D01*
X80851785Y-122519372D01*
X80851787Y-122519377D01*
X80897927Y-122599294D01*
X80897929Y-122599297D01*
X80897930Y-122599298D01*
X81602245Y-123303612D01*
X81667502Y-123368869D01*
X81667505Y-123368870D01*
X81667508Y-123368873D01*
X81747420Y-123415011D01*
X81747421Y-123415011D01*
X81747426Y-123415014D01*
X81836570Y-123438900D01*
X81836572Y-123438900D01*
X85747856Y-123438900D01*
X85814895Y-123458585D01*
X85860650Y-123511389D01*
X85870594Y-123580547D01*
X85841569Y-123644103D01*
X85835537Y-123650581D01*
X84447737Y-125038381D01*
X84386414Y-125071866D01*
X84360056Y-125074700D01*
X82731292Y-125074700D01*
X82664253Y-125055015D01*
X82644787Y-125037113D01*
X82643572Y-125038329D01*
X82637827Y-125032584D01*
X82637821Y-125032579D01*
X82522825Y-124944339D01*
X82522824Y-124944338D01*
X82522822Y-124944337D01*
X82388912Y-124888871D01*
X82388910Y-124888870D01*
X82388909Y-124888870D01*
X82317054Y-124879410D01*
X82245201Y-124869950D01*
X82245199Y-124869950D01*
X82101491Y-124888870D01*
X82101487Y-124888871D01*
X81967577Y-124944337D01*
X81852579Y-125032579D01*
X81764337Y-125147577D01*
X81708871Y-125281487D01*
X81708870Y-125281491D01*
X81689950Y-125425199D01*
X81689950Y-125425200D01*
X81708870Y-125568908D01*
X81708871Y-125568912D01*
X81764337Y-125702822D01*
X81764338Y-125702824D01*
X81764339Y-125702825D01*
X81852579Y-125817821D01*
X81967575Y-125906061D01*
X82101491Y-125961530D01*
X82228480Y-125978248D01*
X82245199Y-125980450D01*
X82245200Y-125980450D01*
X82245201Y-125980450D01*
X82260177Y-125978478D01*
X82388909Y-125961530D01*
X82522825Y-125906061D01*
X82637821Y-125817821D01*
X82637823Y-125817817D01*
X82637827Y-125817815D01*
X82643572Y-125812071D01*
X82646088Y-125814587D01*
X82689383Y-125782997D01*
X82731292Y-125775700D01*
X84602742Y-125775700D01*
X84602744Y-125775700D01*
X84691888Y-125751814D01*
X84771812Y-125705670D01*
X86824463Y-123653019D01*
X86885786Y-123619534D01*
X86912144Y-123616700D01*
X92706508Y-123616700D01*
X92773547Y-123636385D01*
X92793012Y-123654286D01*
X92794228Y-123653071D01*
X92799972Y-123658815D01*
X92799977Y-123658819D01*
X92799979Y-123658821D01*
X92914975Y-123747061D01*
X92942222Y-123758347D01*
X93010525Y-123786639D01*
X93064929Y-123830480D01*
X93086994Y-123896774D01*
X93069715Y-123964473D01*
X93018578Y-124012084D01*
X93010525Y-124015761D01*
X92914978Y-124055337D01*
X92914975Y-124055338D01*
X92914975Y-124055339D01*
X92861439Y-124096419D01*
X92799979Y-124143579D01*
X92711737Y-124258577D01*
X92656271Y-124392487D01*
X92656270Y-124392491D01*
X92637350Y-124536199D01*
X92637350Y-124536200D01*
X92656270Y-124679908D01*
X92656271Y-124679912D01*
X92711737Y-124813822D01*
X92711738Y-124813824D01*
X92711739Y-124813825D01*
X92799979Y-124928821D01*
X92914975Y-125017061D01*
X92914976Y-125017061D01*
X92914977Y-125017062D01*
X92969725Y-125039739D01*
X93024129Y-125083579D01*
X93046194Y-125149873D01*
X93028915Y-125217573D01*
X92977778Y-125265184D01*
X92922273Y-125278300D01*
X89966626Y-125278300D01*
X89899587Y-125258615D01*
X89891147Y-125252682D01*
X89787225Y-125172939D01*
X89787224Y-125172938D01*
X89787222Y-125172937D01*
X89653312Y-125117471D01*
X89653310Y-125117470D01*
X89653309Y-125117470D01*
X89581454Y-125108010D01*
X89509601Y-125098550D01*
X89509599Y-125098550D01*
X89365891Y-125117470D01*
X89365887Y-125117471D01*
X89231977Y-125172937D01*
X89116979Y-125261179D01*
X89028737Y-125376177D01*
X88973271Y-125510087D01*
X88973270Y-125510091D01*
X88954350Y-125653800D01*
X88971359Y-125782997D01*
X88973270Y-125797508D01*
X88973271Y-125797512D01*
X89028737Y-125931422D01*
X89028738Y-125931424D01*
X89028739Y-125931425D01*
X89116979Y-126046421D01*
X89231975Y-126134661D01*
X89365891Y-126190130D01*
X89492880Y-126206848D01*
X89509599Y-126209050D01*
X89509600Y-126209050D01*
X89509601Y-126209050D01*
X89524577Y-126207078D01*
X89653309Y-126190130D01*
X89707222Y-126167799D01*
X205628759Y-126167799D01*
X205628759Y-126167800D01*
X206170012Y-126167800D01*
X206152795Y-126177740D01*
X206096940Y-126233595D01*
X206057444Y-126302004D01*
X206037000Y-126378304D01*
X206037000Y-126457296D01*
X206057444Y-126533596D01*
X206096940Y-126602005D01*
X206152795Y-126657860D01*
X206170012Y-126667800D01*
X205628759Y-126667800D01*
X205672357Y-126773054D01*
X205672362Y-126773064D01*
X205754436Y-126895896D01*
X205754439Y-126895900D01*
X205858899Y-127000360D01*
X205858903Y-127000363D01*
X205981735Y-127082437D01*
X205981745Y-127082442D01*
X206118232Y-127138977D01*
X206118240Y-127138979D01*
X206263126Y-127167799D01*
X206263129Y-127167800D01*
X206637000Y-127167800D01*
X206637000Y-126717800D01*
X207137000Y-126717800D01*
X207137000Y-127167800D01*
X207510871Y-127167800D01*
X207510873Y-127167799D01*
X207655759Y-127138979D01*
X207655767Y-127138977D01*
X207792254Y-127082442D01*
X207792264Y-127082437D01*
X207915096Y-127000363D01*
X207915100Y-127000360D01*
X208019560Y-126895900D01*
X208019563Y-126895896D01*
X208101637Y-126773064D01*
X208101642Y-126773054D01*
X208145241Y-126667800D01*
X207603988Y-126667800D01*
X207621205Y-126657860D01*
X207677060Y-126602005D01*
X207716556Y-126533596D01*
X207737000Y-126457296D01*
X207737000Y-126378304D01*
X207716556Y-126302004D01*
X207677060Y-126233595D01*
X207621205Y-126177740D01*
X207603988Y-126167800D01*
X208145241Y-126167800D01*
X208145240Y-126167799D01*
X209978759Y-126167799D01*
X209978759Y-126167800D01*
X210520012Y-126167800D01*
X210502795Y-126177740D01*
X210446940Y-126233595D01*
X210407444Y-126302004D01*
X210387000Y-126378304D01*
X210387000Y-126457296D01*
X210407444Y-126533596D01*
X210446940Y-126602005D01*
X210502795Y-126657860D01*
X210520012Y-126667800D01*
X209978759Y-126667800D01*
X210022357Y-126773054D01*
X210022362Y-126773064D01*
X210104436Y-126895896D01*
X210104439Y-126895900D01*
X210208899Y-127000360D01*
X210208903Y-127000363D01*
X210331735Y-127082437D01*
X210331745Y-127082442D01*
X210468232Y-127138977D01*
X210468240Y-127138979D01*
X210613126Y-127167799D01*
X210613129Y-127167800D01*
X210837000Y-127167800D01*
X210837000Y-126717800D01*
X211337000Y-126717800D01*
X211337000Y-127167800D01*
X211560871Y-127167800D01*
X211560873Y-127167799D01*
X211705759Y-127138979D01*
X211705767Y-127138977D01*
X211842254Y-127082442D01*
X211842264Y-127082437D01*
X211965096Y-127000363D01*
X211965100Y-127000360D01*
X212069560Y-126895900D01*
X212069563Y-126895896D01*
X212151637Y-126773064D01*
X212151642Y-126773054D01*
X212195241Y-126667800D01*
X211653988Y-126667800D01*
X211671205Y-126657860D01*
X211727060Y-126602005D01*
X211766556Y-126533596D01*
X211787000Y-126457296D01*
X211787000Y-126378304D01*
X211766556Y-126302004D01*
X211727060Y-126233595D01*
X211671205Y-126177740D01*
X211653988Y-126167800D01*
X212195241Y-126167800D01*
X212195240Y-126167799D01*
X212151642Y-126062545D01*
X212151637Y-126062535D01*
X212069563Y-125939703D01*
X212069560Y-125939699D01*
X211965100Y-125835239D01*
X211965096Y-125835236D01*
X211842264Y-125753162D01*
X211842254Y-125753157D01*
X211705767Y-125696622D01*
X211705759Y-125696620D01*
X211560872Y-125667800D01*
X211337000Y-125667800D01*
X211337000Y-126117800D01*
X210837000Y-126117800D01*
X210837000Y-125667800D01*
X210613128Y-125667800D01*
X210468240Y-125696620D01*
X210468232Y-125696622D01*
X210331745Y-125753157D01*
X210331735Y-125753162D01*
X210208903Y-125835236D01*
X210208899Y-125835239D01*
X210104439Y-125939699D01*
X210104436Y-125939703D01*
X210022362Y-126062535D01*
X210022357Y-126062545D01*
X209978759Y-126167799D01*
X208145240Y-126167799D01*
X208101642Y-126062545D01*
X208101637Y-126062535D01*
X208019563Y-125939703D01*
X208019560Y-125939699D01*
X207915100Y-125835239D01*
X207915096Y-125835236D01*
X207792264Y-125753162D01*
X207792254Y-125753157D01*
X207698557Y-125714346D01*
X207644153Y-125670504D01*
X207622089Y-125604210D01*
X207639369Y-125536511D01*
X207684011Y-125492398D01*
X207708315Y-125478366D01*
X207760365Y-125448315D01*
X207867515Y-125341165D01*
X207943281Y-125209935D01*
X207982500Y-125063566D01*
X207982500Y-124912034D01*
X207943281Y-124765665D01*
X207867515Y-124634435D01*
X207760365Y-124527285D01*
X207675280Y-124478161D01*
X207629136Y-124451519D01*
X207531858Y-124425454D01*
X207482766Y-124412300D01*
X207331234Y-124412300D01*
X207184863Y-124451519D01*
X207053635Y-124527285D01*
X207053632Y-124527287D01*
X206946487Y-124634432D01*
X206946485Y-124634435D01*
X206870719Y-124765663D01*
X206842776Y-124869950D01*
X206831500Y-124912034D01*
X206831500Y-125063566D01*
X206845943Y-125117470D01*
X206870719Y-125209936D01*
X206900305Y-125261179D01*
X206946485Y-125341165D01*
X207053635Y-125448315D01*
X207105685Y-125478366D01*
X207153900Y-125528934D01*
X207167122Y-125597541D01*
X207141154Y-125662405D01*
X207137000Y-125667085D01*
X207137000Y-126117800D01*
X206637000Y-126117800D01*
X206637000Y-125667800D01*
X206263128Y-125667800D01*
X206118240Y-125696620D01*
X206118232Y-125696622D01*
X205981745Y-125753157D01*
X205981735Y-125753162D01*
X205858903Y-125835236D01*
X205858899Y-125835239D01*
X205754439Y-125939699D01*
X205754436Y-125939703D01*
X205672362Y-126062535D01*
X205672357Y-126062545D01*
X205628759Y-126167799D01*
X89707222Y-126167799D01*
X89787225Y-126134661D01*
X89891140Y-126054923D01*
X89956309Y-126029730D01*
X89966626Y-126029300D01*
X106704035Y-126029300D01*
X106704036Y-126029300D01*
X106751786Y-126016505D01*
X106799538Y-126003710D01*
X106885162Y-125954275D01*
X106955075Y-125884362D01*
X113519674Y-119319763D01*
X113519675Y-119319762D01*
X113569110Y-119234138D01*
X113594700Y-119138635D01*
X113594700Y-118262398D01*
X203457550Y-118262398D01*
X203457550Y-118262400D01*
X203461239Y-118290420D01*
X203462300Y-118306606D01*
X203462300Y-118903993D01*
X203461239Y-118920178D01*
X203457550Y-118948198D01*
X203457550Y-118948200D01*
X203461239Y-118976220D01*
X203462300Y-118992406D01*
X203462300Y-123171193D01*
X203461239Y-123187378D01*
X203457550Y-123215398D01*
X203457550Y-123215400D01*
X203461239Y-123243420D01*
X203462300Y-123259606D01*
X203462300Y-123882393D01*
X203461239Y-123898578D01*
X203457550Y-123926598D01*
X203457550Y-123926600D01*
X203461239Y-123954620D01*
X203462300Y-123970806D01*
X203462300Y-123999076D01*
X203469617Y-124026386D01*
X203472780Y-124042285D01*
X203476470Y-124070309D01*
X203487285Y-124096419D01*
X203492497Y-124111773D01*
X203499815Y-124139083D01*
X203499818Y-124139089D01*
X203513947Y-124163562D01*
X203521119Y-124178105D01*
X203531938Y-124204225D01*
X203549148Y-124226653D01*
X203558157Y-124240136D01*
X203568804Y-124258577D01*
X203572291Y-124264615D01*
X203592282Y-124284606D01*
X203602972Y-124296796D01*
X203619744Y-124318655D01*
X203620179Y-124319221D01*
X203642598Y-124336424D01*
X203642604Y-124336428D01*
X203654792Y-124347116D01*
X203674785Y-124367109D01*
X203699270Y-124381245D01*
X203712747Y-124390251D01*
X203735175Y-124407461D01*
X203760371Y-124417897D01*
X203761288Y-124418277D01*
X203775835Y-124425451D01*
X203800313Y-124439583D01*
X203800315Y-124439584D01*
X203827618Y-124446899D01*
X203842972Y-124452111D01*
X203869091Y-124462930D01*
X203897117Y-124466619D01*
X203913012Y-124469781D01*
X203940325Y-124477100D01*
X203968594Y-124477100D01*
X203984780Y-124478161D01*
X204012799Y-124481850D01*
X204012800Y-124481850D01*
X204012801Y-124481850D01*
X204040820Y-124478161D01*
X204057006Y-124477100D01*
X204085275Y-124477100D01*
X204112584Y-124469781D01*
X204128484Y-124466618D01*
X204156509Y-124462930D01*
X204182632Y-124452108D01*
X204197965Y-124446903D01*
X204225285Y-124439584D01*
X204249768Y-124425447D01*
X204264303Y-124418280D01*
X204290425Y-124407461D01*
X204312870Y-124390237D01*
X204326323Y-124381249D01*
X204350815Y-124367109D01*
X204370806Y-124347116D01*
X204382994Y-124336428D01*
X204405421Y-124319221D01*
X204422628Y-124296794D01*
X204433316Y-124284606D01*
X204453309Y-124264615D01*
X204467449Y-124240123D01*
X204476437Y-124226670D01*
X204493661Y-124204225D01*
X204504480Y-124178103D01*
X204511647Y-124163568D01*
X204525784Y-124139085D01*
X204533103Y-124111765D01*
X204538308Y-124096432D01*
X204549130Y-124070309D01*
X204552818Y-124042284D01*
X204555983Y-124026378D01*
X204563300Y-123999075D01*
X204563300Y-123970806D01*
X204564361Y-123954620D01*
X204568050Y-123926600D01*
X204568050Y-123926598D01*
X204564361Y-123898578D01*
X204563300Y-123882393D01*
X204563300Y-123259606D01*
X204564361Y-123243420D01*
X204568050Y-123215400D01*
X204568050Y-123215398D01*
X204564361Y-123187378D01*
X204563300Y-123171193D01*
X204563300Y-118992406D01*
X204564361Y-118976220D01*
X204568050Y-118948200D01*
X204568050Y-118948198D01*
X204564361Y-118920178D01*
X204563300Y-118903993D01*
X204563300Y-118306606D01*
X204564361Y-118290420D01*
X204568050Y-118262400D01*
X204568050Y-118262398D01*
X204564361Y-118234378D01*
X204563300Y-118218193D01*
X204563300Y-118189924D01*
X204560040Y-118177759D01*
X204555981Y-118162612D01*
X204552819Y-118146714D01*
X204549130Y-118118691D01*
X204538311Y-118092572D01*
X204533099Y-118077216D01*
X204525784Y-118049915D01*
X204521498Y-118042491D01*
X204511651Y-118025435D01*
X204504477Y-118010888D01*
X204504097Y-118009971D01*
X204493661Y-117984775D01*
X204476448Y-117962342D01*
X204467442Y-117948864D01*
X204453309Y-117924385D01*
X204433314Y-117904390D01*
X204422628Y-117892204D01*
X204422626Y-117892202D01*
X204405421Y-117869779D01*
X204382991Y-117852568D01*
X204370806Y-117841882D01*
X204350815Y-117821891D01*
X204350814Y-117821890D01*
X204326336Y-117807757D01*
X204312853Y-117798748D01*
X204290425Y-117781538D01*
X204264305Y-117770719D01*
X204249762Y-117763547D01*
X204225289Y-117749418D01*
X204225283Y-117749415D01*
X204197973Y-117742097D01*
X204182619Y-117736885D01*
X204156509Y-117726070D01*
X204128485Y-117722380D01*
X204112586Y-117719217D01*
X204085276Y-117711900D01*
X204085275Y-117711900D01*
X204057006Y-117711900D01*
X204040820Y-117710839D01*
X204012801Y-117707150D01*
X204012799Y-117707150D01*
X203984780Y-117710839D01*
X203968594Y-117711900D01*
X203940321Y-117711900D01*
X203913012Y-117719217D01*
X203897114Y-117722379D01*
X203869092Y-117726069D01*
X203869091Y-117726069D01*
X203842972Y-117736888D01*
X203827625Y-117742097D01*
X203808030Y-117747348D01*
X203800314Y-117749416D01*
X203775832Y-117763550D01*
X203761291Y-117770720D01*
X203735179Y-117781536D01*
X203735175Y-117781538D01*
X203712742Y-117798751D01*
X203699264Y-117807756D01*
X203674785Y-117821890D01*
X203654790Y-117841884D01*
X203642602Y-117852572D01*
X203620179Y-117869779D01*
X203602972Y-117892202D01*
X203592284Y-117904390D01*
X203572290Y-117924385D01*
X203558156Y-117948864D01*
X203549151Y-117962342D01*
X203531938Y-117984775D01*
X203531936Y-117984779D01*
X203521120Y-118010891D01*
X203513950Y-118025432D01*
X203499816Y-118049914D01*
X203499816Y-118049915D01*
X203492497Y-118077225D01*
X203487288Y-118092572D01*
X203476469Y-118118691D01*
X203476469Y-118118692D01*
X203472779Y-118146714D01*
X203469617Y-118162612D01*
X203462300Y-118189921D01*
X203462300Y-118218193D01*
X203461239Y-118234378D01*
X203457550Y-118262398D01*
X113594700Y-118262398D01*
X113594700Y-117527799D01*
X205628759Y-117527799D01*
X205628759Y-117527800D01*
X206170012Y-117527800D01*
X206152795Y-117537740D01*
X206096940Y-117593595D01*
X206057444Y-117662004D01*
X206037000Y-117738304D01*
X206037000Y-117817296D01*
X206057444Y-117893596D01*
X206096940Y-117962005D01*
X206152795Y-118017860D01*
X206170012Y-118027800D01*
X205628759Y-118027800D01*
X205672357Y-118133054D01*
X205672362Y-118133064D01*
X205754436Y-118255896D01*
X205754439Y-118255900D01*
X205858899Y-118360360D01*
X205858903Y-118360363D01*
X205981735Y-118442437D01*
X205981745Y-118442442D01*
X206118232Y-118498977D01*
X206118240Y-118498979D01*
X206263126Y-118527799D01*
X206263129Y-118527800D01*
X206637000Y-118527800D01*
X206637000Y-118077800D01*
X207137000Y-118077800D01*
X207137000Y-118532484D01*
X207164850Y-118583488D01*
X207159866Y-118653180D01*
X207117994Y-118709113D01*
X207105686Y-118717232D01*
X207053638Y-118747283D01*
X207053632Y-118747287D01*
X206946487Y-118854432D01*
X206946485Y-118854435D01*
X206870719Y-118985663D01*
X206842144Y-119092309D01*
X206831500Y-119132034D01*
X206831500Y-119283566D01*
X206841199Y-119319762D01*
X206870719Y-119429936D01*
X206885883Y-119456200D01*
X206946485Y-119561165D01*
X207053635Y-119668315D01*
X207184865Y-119744081D01*
X207331234Y-119783300D01*
X207331236Y-119783300D01*
X207482764Y-119783300D01*
X207482766Y-119783300D01*
X207629135Y-119744081D01*
X207760365Y-119668315D01*
X207867515Y-119561165D01*
X207943281Y-119429935D01*
X207982500Y-119283566D01*
X207982500Y-119132034D01*
X207943281Y-118985665D01*
X207867515Y-118854435D01*
X207760365Y-118747285D01*
X207760362Y-118747283D01*
X207760361Y-118747282D01*
X207684010Y-118703201D01*
X207635794Y-118652634D01*
X207622572Y-118584027D01*
X207648540Y-118519162D01*
X207698558Y-118481253D01*
X207792251Y-118442444D01*
X207792264Y-118442437D01*
X207915096Y-118360363D01*
X207915100Y-118360360D01*
X208019560Y-118255900D01*
X208019563Y-118255896D01*
X208101637Y-118133064D01*
X208101642Y-118133054D01*
X208145241Y-118027800D01*
X207603988Y-118027800D01*
X207621205Y-118017860D01*
X207677060Y-117962005D01*
X207716556Y-117893596D01*
X207737000Y-117817296D01*
X207737000Y-117738304D01*
X207716556Y-117662004D01*
X207677060Y-117593595D01*
X207621205Y-117537740D01*
X207603988Y-117527800D01*
X208145241Y-117527800D01*
X208145240Y-117527799D01*
X209978759Y-117527799D01*
X209978759Y-117527800D01*
X210520012Y-117527800D01*
X210502795Y-117537740D01*
X210446940Y-117593595D01*
X210407444Y-117662004D01*
X210387000Y-117738304D01*
X210387000Y-117817296D01*
X210407444Y-117893596D01*
X210446940Y-117962005D01*
X210502795Y-118017860D01*
X210520012Y-118027800D01*
X209978759Y-118027800D01*
X210022357Y-118133054D01*
X210022362Y-118133064D01*
X210104436Y-118255896D01*
X210104439Y-118255900D01*
X210208899Y-118360360D01*
X210208903Y-118360363D01*
X210331735Y-118442437D01*
X210331745Y-118442442D01*
X210468232Y-118498977D01*
X210468240Y-118498979D01*
X210613126Y-118527799D01*
X210613129Y-118527800D01*
X210837000Y-118527800D01*
X210837000Y-118077800D01*
X211337000Y-118077800D01*
X211337000Y-118527800D01*
X211560871Y-118527800D01*
X211560873Y-118527799D01*
X211705759Y-118498979D01*
X211705767Y-118498977D01*
X211842254Y-118442442D01*
X211842264Y-118442437D01*
X211965096Y-118360363D01*
X211965100Y-118360360D01*
X212069560Y-118255900D01*
X212069563Y-118255896D01*
X212151637Y-118133064D01*
X212151642Y-118133054D01*
X212195241Y-118027800D01*
X211653988Y-118027800D01*
X211671205Y-118017860D01*
X211727060Y-117962005D01*
X211766556Y-117893596D01*
X211787000Y-117817296D01*
X211787000Y-117738304D01*
X211766556Y-117662004D01*
X211727060Y-117593595D01*
X211671205Y-117537740D01*
X211653988Y-117527800D01*
X212195241Y-117527800D01*
X212195240Y-117527799D01*
X212151642Y-117422545D01*
X212151637Y-117422535D01*
X212069563Y-117299703D01*
X212069560Y-117299699D01*
X211965100Y-117195239D01*
X211965096Y-117195236D01*
X211842264Y-117113162D01*
X211842254Y-117113157D01*
X211705767Y-117056622D01*
X211705759Y-117056620D01*
X211560872Y-117027800D01*
X211337000Y-117027800D01*
X211337000Y-117477800D01*
X210837000Y-117477800D01*
X210837000Y-117027800D01*
X210613128Y-117027800D01*
X210468240Y-117056620D01*
X210468232Y-117056622D01*
X210331745Y-117113157D01*
X210331735Y-117113162D01*
X210208903Y-117195236D01*
X210208899Y-117195239D01*
X210104439Y-117299699D01*
X210104436Y-117299703D01*
X210022362Y-117422535D01*
X210022357Y-117422545D01*
X209978759Y-117527799D01*
X208145240Y-117527799D01*
X208101642Y-117422545D01*
X208101637Y-117422535D01*
X208019563Y-117299703D01*
X208019560Y-117299699D01*
X207915100Y-117195239D01*
X207915096Y-117195236D01*
X207792264Y-117113162D01*
X207792254Y-117113157D01*
X207655767Y-117056622D01*
X207655759Y-117056620D01*
X207510872Y-117027800D01*
X207137000Y-117027800D01*
X207137000Y-117477800D01*
X206637000Y-117477800D01*
X206637000Y-117027800D01*
X206263128Y-117027800D01*
X206118240Y-117056620D01*
X206118232Y-117056622D01*
X205981745Y-117113157D01*
X205981735Y-117113162D01*
X205858903Y-117195236D01*
X205858899Y-117195239D01*
X205754439Y-117299699D01*
X205754436Y-117299703D01*
X205672362Y-117422535D01*
X205672357Y-117422545D01*
X205628759Y-117527799D01*
X113594700Y-117527799D01*
X113594700Y-105073495D01*
X113614385Y-105006456D01*
X113631019Y-104985814D01*
X117552092Y-101064741D01*
X121636275Y-96980559D01*
X121685711Y-96894933D01*
X121711300Y-96799432D01*
X121711300Y-96700560D01*
X121711300Y-93167026D01*
X121730985Y-93099987D01*
X121736917Y-93091547D01*
X121816661Y-92987625D01*
X121872130Y-92853709D01*
X121891050Y-92710000D01*
X121872130Y-92566291D01*
X121816661Y-92432375D01*
X121728421Y-92317379D01*
X121613425Y-92229139D01*
X121613424Y-92229138D01*
X121613422Y-92229137D01*
X121479512Y-92173671D01*
X121479510Y-92173670D01*
X121479509Y-92173670D01*
X121338026Y-92155043D01*
X121335801Y-92154750D01*
X121335799Y-92154750D01*
X121192091Y-92173670D01*
X121192087Y-92173671D01*
X121058177Y-92229137D01*
X120943178Y-92317380D01*
X120923220Y-92343390D01*
X120866791Y-92384592D01*
X120797045Y-92388746D01*
X120736125Y-92354532D01*
X120726470Y-92343389D01*
X120706511Y-92317379D01*
X120687021Y-92291979D01*
X120572025Y-92203739D01*
X120561207Y-92199258D01*
X120454462Y-92155043D01*
X120400059Y-92111202D01*
X120377994Y-92044908D01*
X120395273Y-91977209D01*
X120414229Y-91952806D01*
X121102874Y-91264163D01*
X121106057Y-91258650D01*
X121107684Y-91255833D01*
X121152308Y-91178541D01*
X121152307Y-91178541D01*
X121152310Y-91178538D01*
X121172850Y-91101881D01*
X121172851Y-91101880D01*
X121177900Y-91083035D01*
X121177900Y-90500026D01*
X121197585Y-90432987D01*
X121203517Y-90424547D01*
X121283261Y-90320625D01*
X121338730Y-90186709D01*
X121357650Y-90043000D01*
X121338730Y-89899291D01*
X121283261Y-89765375D01*
X121195021Y-89650379D01*
X121080025Y-89562139D01*
X121080024Y-89562138D01*
X121080022Y-89562137D01*
X121055883Y-89552139D01*
X121001479Y-89508299D01*
X120979414Y-89442005D01*
X120996693Y-89374305D01*
X121015650Y-89349901D01*
X121413651Y-88951900D01*
X121474972Y-88918417D01*
X121485144Y-88916644D01*
X121497048Y-88915076D01*
X121589309Y-88902930D01*
X121723225Y-88847461D01*
X121838221Y-88759221D01*
X121926461Y-88644225D01*
X121981930Y-88510309D01*
X122000850Y-88366600D01*
X121981930Y-88222891D01*
X121926461Y-88088975D01*
X121838221Y-87973979D01*
X121723225Y-87885739D01*
X121723224Y-87885738D01*
X121723222Y-87885737D01*
X121589312Y-87830271D01*
X121589310Y-87830270D01*
X121589309Y-87830270D01*
X121517454Y-87820810D01*
X121445601Y-87811350D01*
X121445599Y-87811350D01*
X121301891Y-87830270D01*
X121301887Y-87830271D01*
X121167977Y-87885737D01*
X121052979Y-87973979D01*
X120964737Y-88088977D01*
X120909271Y-88222887D01*
X120909270Y-88222891D01*
X120889289Y-88374659D01*
X120886665Y-88374313D01*
X120870665Y-88428805D01*
X120854031Y-88449447D01*
X118452638Y-90850841D01*
X118382727Y-90920751D01*
X118333291Y-91006376D01*
X118333290Y-91006379D01*
X118312751Y-91083032D01*
X118312750Y-91083035D01*
X118307700Y-91101880D01*
X118307700Y-95254509D01*
X118288015Y-95321548D01*
X118271381Y-95342190D01*
X112548830Y-101064741D01*
X112487507Y-101098226D01*
X112461149Y-101101060D01*
X108913004Y-101101060D01*
X108865252Y-101113855D01*
X108865251Y-101113854D01*
X108817506Y-101126648D01*
X108817499Y-101126651D01*
X108793566Y-101140468D01*
X108774690Y-101151367D01*
X108763986Y-101157546D01*
X108731880Y-101176082D01*
X108731875Y-101176086D01*
X106483645Y-103424315D01*
X106422322Y-103457800D01*
X106412150Y-103459573D01*
X106313230Y-103472596D01*
X106282291Y-103476670D01*
X106282290Y-103476670D01*
X106282287Y-103476671D01*
X106148377Y-103532137D01*
X106033379Y-103620379D01*
X105945137Y-103735377D01*
X105889671Y-103869287D01*
X105889670Y-103869291D01*
X105870750Y-104012999D01*
X105870750Y-104013000D01*
X105889670Y-104156708D01*
X105889671Y-104156712D01*
X105945137Y-104290622D01*
X105945138Y-104290624D01*
X105945139Y-104290625D01*
X106033379Y-104405621D01*
X106148375Y-104493861D01*
X106282291Y-104549330D01*
X106409280Y-104566048D01*
X106425999Y-104568250D01*
X106426000Y-104568250D01*
X106426001Y-104568250D01*
X106440977Y-104566278D01*
X106569709Y-104549330D01*
X106703625Y-104493861D01*
X106818621Y-104405621D01*
X106906861Y-104290625D01*
X106962330Y-104156709D01*
X106979427Y-104026845D01*
X107007692Y-103962951D01*
X107014672Y-103955364D01*
X109081659Y-101888379D01*
X109142982Y-101854894D01*
X109169340Y-101852060D01*
X111002625Y-101852060D01*
X111069664Y-101871745D01*
X111115419Y-101924549D01*
X111125363Y-101993707D01*
X111096338Y-102057263D01*
X111090306Y-102063741D01*
X106874789Y-106279256D01*
X106813466Y-106312741D01*
X106803295Y-106314514D01*
X106673433Y-106331612D01*
X106673429Y-106331613D01*
X106539519Y-106387079D01*
X106424521Y-106475321D01*
X106336279Y-106590319D01*
X106280813Y-106724229D01*
X106280812Y-106724233D01*
X106261892Y-106867941D01*
X106261892Y-106867942D01*
X106280812Y-107011650D01*
X106280813Y-107011654D01*
X106336279Y-107145564D01*
X106336280Y-107145566D01*
X106336281Y-107145567D01*
X106420732Y-107255626D01*
X106445926Y-107320793D01*
X106431888Y-107389238D01*
X106397844Y-107429485D01*
X106363582Y-107455776D01*
X106363580Y-107455777D01*
X106363579Y-107455779D01*
X106310635Y-107524776D01*
X106275337Y-107570777D01*
X106219871Y-107704687D01*
X106219870Y-107704691D01*
X106200950Y-107848399D01*
X106200950Y-107848400D01*
X106219870Y-107992108D01*
X106219871Y-107992112D01*
X106275337Y-108126022D01*
X106275338Y-108126024D01*
X106275339Y-108126025D01*
X106363579Y-108241021D01*
X106478575Y-108329261D01*
X106612491Y-108384730D01*
X106739480Y-108401448D01*
X106756199Y-108403650D01*
X106756200Y-108403650D01*
X106756201Y-108403650D01*
X106771177Y-108401678D01*
X106899909Y-108384730D01*
X107033825Y-108329261D01*
X107148821Y-108241021D01*
X107237061Y-108126025D01*
X107292530Y-107992109D01*
X107309627Y-107862244D01*
X107337894Y-107798349D01*
X107344873Y-107790762D01*
X112347258Y-102788379D01*
X112408581Y-102754894D01*
X112434939Y-102752060D01*
X112947096Y-102752060D01*
X113014135Y-102771745D01*
X113059890Y-102824549D01*
X113069834Y-102893707D01*
X113040809Y-102957263D01*
X113034777Y-102963741D01*
X112063732Y-103934785D01*
X112063730Y-103934788D01*
X112018574Y-104013000D01*
X112018568Y-104013011D01*
X112018567Y-104013010D01*
X112017586Y-104014710D01*
X112017586Y-104014711D01*
X111993700Y-104103856D01*
X111993700Y-118497656D01*
X111974015Y-118564695D01*
X111957381Y-118585337D01*
X107663337Y-122879381D01*
X107602014Y-122912866D01*
X107575656Y-122915700D01*
X93678692Y-122915700D01*
X93611653Y-122896015D01*
X93592187Y-122878113D01*
X93590972Y-122879329D01*
X93585227Y-122873584D01*
X93585221Y-122873579D01*
X93470225Y-122785339D01*
X93470224Y-122785338D01*
X93470222Y-122785337D01*
X93336312Y-122729871D01*
X93336310Y-122729870D01*
X93336309Y-122729870D01*
X93264454Y-122720410D01*
X93192601Y-122710950D01*
X93192599Y-122710950D01*
X93048891Y-122729870D01*
X93048887Y-122729871D01*
X92914977Y-122785337D01*
X92799972Y-122873584D01*
X92794228Y-122879329D01*
X92791711Y-122876812D01*
X92748417Y-122908403D01*
X92706508Y-122915700D01*
X86731916Y-122915700D01*
X86664877Y-122896015D01*
X86619122Y-122843211D01*
X86609178Y-122774053D01*
X86638203Y-122710497D01*
X86644235Y-122704019D01*
X88235234Y-121113019D01*
X88296557Y-121079534D01*
X88322915Y-121076700D01*
X92706508Y-121076700D01*
X92773547Y-121096385D01*
X92793012Y-121114286D01*
X92794228Y-121113071D01*
X92799972Y-121118815D01*
X92799977Y-121118819D01*
X92799979Y-121118821D01*
X92914975Y-121207061D01*
X93048891Y-121262530D01*
X93175880Y-121279248D01*
X93192599Y-121281450D01*
X93192600Y-121281450D01*
X93192601Y-121281450D01*
X93207577Y-121279478D01*
X93336309Y-121262530D01*
X93470225Y-121207061D01*
X93585221Y-121118821D01*
X93585223Y-121118817D01*
X93585227Y-121118815D01*
X93590972Y-121113071D01*
X93593488Y-121115587D01*
X93636783Y-121083997D01*
X93678692Y-121076700D01*
X96296342Y-121076700D01*
X96296344Y-121076700D01*
X96385488Y-121052814D01*
X96465412Y-121006670D01*
X99294323Y-118177757D01*
X99355644Y-118144274D01*
X99382071Y-118143344D01*
X99382071Y-118141450D01*
X99390200Y-118141450D01*
X99533909Y-118122530D01*
X99667825Y-118067061D01*
X99782821Y-117978821D01*
X99871061Y-117863825D01*
X99926530Y-117729909D01*
X99945450Y-117586200D01*
X99926530Y-117442491D01*
X99871061Y-117308575D01*
X99782821Y-117193579D01*
X99667825Y-117105339D01*
X99667824Y-117105338D01*
X99667822Y-117105337D01*
X99533912Y-117049871D01*
X99533910Y-117049870D01*
X99533909Y-117049870D01*
X99462054Y-117040410D01*
X99390201Y-117030950D01*
X99390199Y-117030950D01*
X99246491Y-117049870D01*
X99246487Y-117049871D01*
X99112577Y-117105337D01*
X98997579Y-117193579D01*
X98909337Y-117308577D01*
X98853871Y-117442487D01*
X98853870Y-117442491D01*
X98834950Y-117586200D01*
X98834950Y-117594328D01*
X98831656Y-117594328D01*
X98822392Y-117648788D01*
X98798639Y-117682077D01*
X96141337Y-120339381D01*
X96080014Y-120372866D01*
X96053656Y-120375700D01*
X93678692Y-120375700D01*
X93611653Y-120356015D01*
X93592187Y-120338113D01*
X93590972Y-120339329D01*
X93585227Y-120333584D01*
X93585221Y-120333579D01*
X93470225Y-120245339D01*
X93470224Y-120245338D01*
X93470222Y-120245337D01*
X93374674Y-120205761D01*
X93320270Y-120161921D01*
X93298205Y-120095627D01*
X93315484Y-120027927D01*
X93366621Y-119980316D01*
X93374674Y-119976639D01*
X93395452Y-119968032D01*
X93470225Y-119937061D01*
X93585221Y-119848821D01*
X93673461Y-119733825D01*
X93728930Y-119599909D01*
X93747850Y-119456200D01*
X93728930Y-119312491D01*
X93673461Y-119178575D01*
X93585221Y-119063579D01*
X93470225Y-118975339D01*
X93470224Y-118975338D01*
X93470222Y-118975337D01*
X93374674Y-118935761D01*
X93320270Y-118891921D01*
X93298205Y-118825627D01*
X93315484Y-118757927D01*
X93366621Y-118710316D01*
X93374674Y-118706639D01*
X93459462Y-118671519D01*
X93470225Y-118667061D01*
X93585221Y-118578821D01*
X93673461Y-118463825D01*
X93728930Y-118329909D01*
X93747850Y-118186200D01*
X93728930Y-118042491D01*
X93680009Y-117924384D01*
X93673462Y-117908577D01*
X93673461Y-117908576D01*
X93673461Y-117908575D01*
X93585221Y-117793579D01*
X93470225Y-117705339D01*
X93470224Y-117705338D01*
X93470222Y-117705337D01*
X93336312Y-117649871D01*
X93336310Y-117649870D01*
X93336309Y-117649870D01*
X93252507Y-117638837D01*
X93192601Y-117630950D01*
X93192599Y-117630950D01*
X93048891Y-117649870D01*
X93048887Y-117649871D01*
X92914977Y-117705337D01*
X92799972Y-117793584D01*
X92794228Y-117799329D01*
X92791711Y-117796812D01*
X92748417Y-117828403D01*
X92706508Y-117835700D01*
X89488856Y-117835700D01*
X89405073Y-117858148D01*
X89405074Y-117858149D01*
X89399712Y-117859585D01*
X89399708Y-117859587D01*
X89319791Y-117905727D01*
X89319786Y-117905731D01*
X85616137Y-121609381D01*
X85554814Y-121642866D01*
X85528456Y-121645700D01*
X82731292Y-121645700D01*
X82664253Y-121626015D01*
X82644787Y-121608113D01*
X82643572Y-121609329D01*
X82637827Y-121603584D01*
X82637821Y-121603579D01*
X82522825Y-121515339D01*
X82522823Y-121515338D01*
X82434144Y-121478606D01*
X82379741Y-121434765D01*
X82357676Y-121368471D01*
X82374955Y-121300771D01*
X82393911Y-121276369D01*
X82982870Y-120687412D01*
X83029014Y-120607488D01*
X83030777Y-120600905D01*
X83030782Y-120600897D01*
X83030780Y-120600897D01*
X83034638Y-120586494D01*
X83052900Y-120518344D01*
X83052900Y-119867256D01*
X83029014Y-119778112D01*
X83029013Y-119778111D01*
X83029013Y-119778109D01*
X83009367Y-119744083D01*
X83009366Y-119744081D01*
X82996483Y-119721767D01*
X82982869Y-119698187D01*
X82836760Y-119552078D01*
X82803275Y-119490755D01*
X82802183Y-119464329D01*
X82800450Y-119464329D01*
X82800450Y-119456200D01*
X82796992Y-119429935D01*
X82781530Y-119312491D01*
X82726061Y-119178575D01*
X82637821Y-119063579D01*
X82522825Y-118975339D01*
X82522824Y-118975338D01*
X82522822Y-118975337D01*
X82388912Y-118919871D01*
X82388910Y-118919870D01*
X82388909Y-118919870D01*
X82369899Y-118917367D01*
X82278466Y-118905329D01*
X82214570Y-118877062D01*
X82176100Y-118818737D01*
X82175269Y-118748872D01*
X82206970Y-118694711D01*
X82982869Y-117918813D01*
X83029014Y-117838888D01*
X83033568Y-117821891D01*
X83052900Y-117749744D01*
X83052900Y-116412856D01*
X83029014Y-116323712D01*
X82982869Y-116243787D01*
X82836760Y-116097678D01*
X82803275Y-116036355D01*
X82802183Y-116009929D01*
X82800450Y-116009929D01*
X82800450Y-116001800D01*
X82800450Y-116001799D01*
X82781530Y-115858091D01*
X82726061Y-115724175D01*
X82637821Y-115609179D01*
X82522825Y-115520939D01*
X82522824Y-115520938D01*
X82522822Y-115520937D01*
X82388912Y-115465471D01*
X82388910Y-115465470D01*
X82388909Y-115465470D01*
X82317054Y-115456010D01*
X82245201Y-115446550D01*
X82245199Y-115446550D01*
X82101491Y-115465470D01*
X82101487Y-115465471D01*
X81967577Y-115520937D01*
X81852579Y-115609179D01*
X81764337Y-115724177D01*
X81708871Y-115858087D01*
X81708870Y-115858091D01*
X81689950Y-116001799D01*
X81689950Y-116001800D01*
X81708870Y-116145508D01*
X81708871Y-116145512D01*
X81712280Y-116153742D01*
X81719749Y-116223211D01*
X81688473Y-116285690D01*
X81628384Y-116321342D01*
X81558559Y-116318848D01*
X81528829Y-116304296D01*
X81455480Y-116255286D01*
X81455466Y-116255278D01*
X81319744Y-116199061D01*
X81319745Y-116199061D01*
X81319742Y-116199060D01*
X81319738Y-116199059D01*
X81319734Y-116199058D01*
X81175659Y-116170400D01*
X81175655Y-116170400D01*
X81028745Y-116170400D01*
X81028740Y-116170400D01*
X80884665Y-116199058D01*
X80884655Y-116199061D01*
X80748933Y-116255278D01*
X80748924Y-116255283D01*
X80626780Y-116336898D01*
X80626776Y-116336901D01*
X80522901Y-116440776D01*
X80522898Y-116440780D01*
X80441283Y-116562924D01*
X80441278Y-116562933D01*
X80385061Y-116698655D01*
X80385058Y-116698665D01*
X80356400Y-116842740D01*
X79815999Y-116842740D01*
X79787340Y-116698658D01*
X79731120Y-116562931D01*
X79731119Y-116562930D01*
X79731116Y-116562924D01*
X79649501Y-116440780D01*
X79649498Y-116440776D01*
X79545623Y-116336901D01*
X79545619Y-116336898D01*
X79423475Y-116255283D01*
X79423466Y-116255278D01*
X79287744Y-116199061D01*
X79287745Y-116199061D01*
X79287742Y-116199060D01*
X79287738Y-116199059D01*
X79287734Y-116199058D01*
X79143659Y-116170400D01*
X79143655Y-116170400D01*
X78996745Y-116170400D01*
X78996740Y-116170400D01*
X78852665Y-116199058D01*
X78852655Y-116199061D01*
X78716933Y-116255278D01*
X78716924Y-116255283D01*
X78594780Y-116336898D01*
X78594776Y-116336901D01*
X78490901Y-116440776D01*
X78490898Y-116440780D01*
X78409283Y-116562924D01*
X78409278Y-116562933D01*
X78353061Y-116698655D01*
X78353058Y-116698665D01*
X78324400Y-116842740D01*
X76524900Y-116842740D01*
X76524900Y-78612999D01*
X90325950Y-78612999D01*
X90325950Y-78613000D01*
X90344870Y-78756708D01*
X90344871Y-78756712D01*
X90400337Y-78890622D01*
X90400338Y-78890624D01*
X90400339Y-78890625D01*
X90488579Y-79005621D01*
X90603575Y-79093861D01*
X90737491Y-79149330D01*
X90864480Y-79166048D01*
X90881199Y-79168250D01*
X90881200Y-79168250D01*
X90881201Y-79168250D01*
X90896177Y-79166278D01*
X91024909Y-79149330D01*
X91158825Y-79093861D01*
X91262740Y-79014123D01*
X91327909Y-78988930D01*
X91338226Y-78988500D01*
X92784834Y-78988500D01*
X92784836Y-78988500D01*
X92837867Y-78974290D01*
X92880338Y-78962910D01*
X92965962Y-78913475D01*
X93035875Y-78843562D01*
X94827272Y-77052165D01*
X94845814Y-77020050D01*
X94876708Y-76966540D01*
X94897065Y-76890568D01*
X94902298Y-76871038D01*
X94902298Y-76772166D01*
X94902298Y-70358000D01*
X97838550Y-70358000D01*
X97852742Y-70465800D01*
X97857470Y-70501708D01*
X97857471Y-70501712D01*
X97912938Y-70635623D01*
X97912939Y-70635625D01*
X98001180Y-70750623D01*
X98006926Y-70756369D01*
X98004374Y-70758920D01*
X98035891Y-70801873D01*
X98043300Y-70844092D01*
X98043300Y-81320344D01*
X98058753Y-81378014D01*
X98058752Y-81378014D01*
X98058753Y-81378016D01*
X98067184Y-81409484D01*
X98067185Y-81409486D01*
X98113327Y-81489408D01*
X98113329Y-81489411D01*
X98113330Y-81489412D01*
X110046188Y-93422270D01*
X110046189Y-93422271D01*
X110046191Y-93422272D01*
X110083157Y-93443614D01*
X110126112Y-93468414D01*
X110215256Y-93492300D01*
X110867508Y-93492300D01*
X110934547Y-93511985D01*
X110954012Y-93529886D01*
X110955228Y-93528671D01*
X110960972Y-93534415D01*
X110960977Y-93534419D01*
X110960979Y-93534421D01*
X111075975Y-93622661D01*
X111209891Y-93678130D01*
X111336880Y-93694848D01*
X111353599Y-93697050D01*
X111353600Y-93697050D01*
X111353601Y-93697050D01*
X111368577Y-93695078D01*
X111497309Y-93678130D01*
X111631223Y-93622662D01*
X111638734Y-93619551D01*
X111639386Y-93621126D01*
X111697784Y-93606952D01*
X111763814Y-93629795D01*
X111807011Y-93684710D01*
X111815900Y-93730812D01*
X111815900Y-93975343D01*
X111839786Y-94064487D01*
X111839787Y-94064490D01*
X111885927Y-94144408D01*
X111885931Y-94144413D01*
X112057440Y-94315922D01*
X112090925Y-94377245D01*
X112092067Y-94403673D01*
X112093750Y-94403673D01*
X112093750Y-94411800D01*
X112112670Y-94555508D01*
X112112671Y-94555512D01*
X112168137Y-94689422D01*
X112168138Y-94689424D01*
X112168139Y-94689425D01*
X112256379Y-94804421D01*
X112371375Y-94892661D01*
X112371376Y-94892661D01*
X112371377Y-94892662D01*
X112416013Y-94911150D01*
X112505291Y-94948130D01*
X112621451Y-94963423D01*
X112648999Y-94967050D01*
X112649000Y-94967050D01*
X112649001Y-94967050D01*
X112684679Y-94962352D01*
X112758314Y-94952658D01*
X112827349Y-94963423D01*
X112879605Y-95009803D01*
X112898500Y-95075597D01*
X112898500Y-95078501D01*
X112878815Y-95145540D01*
X112862181Y-95166182D01*
X112428182Y-95600181D01*
X112366859Y-95633666D01*
X112340501Y-95636500D01*
X108916564Y-95636500D01*
X108821063Y-95662089D01*
X108821060Y-95662090D01*
X108735440Y-95711522D01*
X108735435Y-95711526D01*
X107245645Y-97201315D01*
X107184322Y-97234800D01*
X107174150Y-97236573D01*
X107075230Y-97249596D01*
X107044291Y-97253670D01*
X107044290Y-97253670D01*
X107044287Y-97253671D01*
X106910377Y-97309137D01*
X106795379Y-97397379D01*
X106707137Y-97512377D01*
X106651671Y-97646287D01*
X106651670Y-97646291D01*
X106632750Y-97789999D01*
X106632750Y-97790000D01*
X106651670Y-97933708D01*
X106651671Y-97933712D01*
X106707137Y-98067622D01*
X106707138Y-98067624D01*
X106707139Y-98067625D01*
X106795379Y-98182621D01*
X106910375Y-98270861D01*
X107044291Y-98326330D01*
X107171280Y-98343048D01*
X107187999Y-98345250D01*
X107188000Y-98345250D01*
X107188001Y-98345250D01*
X107202977Y-98343278D01*
X107331709Y-98326330D01*
X107465625Y-98270861D01*
X107580621Y-98182621D01*
X107668861Y-98067625D01*
X107724330Y-97933709D01*
X107741427Y-97803845D01*
X107769692Y-97739951D01*
X107776672Y-97732364D01*
X109085219Y-96423819D01*
X109146542Y-96390334D01*
X109172900Y-96387500D01*
X112596835Y-96387500D01*
X112596836Y-96387500D01*
X112645366Y-96374496D01*
X112692338Y-96361910D01*
X112777962Y-96312475D01*
X112847875Y-96242562D01*
X113574475Y-95515962D01*
X113623911Y-95430337D01*
X113649500Y-95334836D01*
X113649500Y-95235964D01*
X113649500Y-93260165D01*
X113638987Y-93220930D01*
X113623911Y-93164663D01*
X113588091Y-93102621D01*
X113574477Y-93079040D01*
X113574473Y-93079035D01*
X112756019Y-92260581D01*
X112722534Y-92199258D01*
X112719700Y-92172900D01*
X112719700Y-90003206D01*
X112739385Y-89936167D01*
X112792189Y-89890412D01*
X112827509Y-89880268D01*
X112919709Y-89868130D01*
X113053625Y-89812661D01*
X113168621Y-89724421D01*
X113256861Y-89609425D01*
X113312330Y-89475509D01*
X113331250Y-89331800D01*
X113312330Y-89188091D01*
X113256861Y-89054175D01*
X113168621Y-88939179D01*
X113053625Y-88850939D01*
X113053624Y-88850938D01*
X113053622Y-88850937D01*
X112919712Y-88795471D01*
X112919710Y-88795470D01*
X112919709Y-88795470D01*
X112919707Y-88795469D01*
X112911859Y-88793367D01*
X112912255Y-88791885D01*
X112856736Y-88767322D01*
X112818267Y-88708996D01*
X112817439Y-88639131D01*
X112854514Y-88579909D01*
X112889366Y-88558093D01*
X112926625Y-88542661D01*
X113041621Y-88454421D01*
X113129861Y-88339425D01*
X113185330Y-88205509D01*
X113204250Y-88061800D01*
X113185330Y-87918091D01*
X113129861Y-87784175D01*
X113041621Y-87669179D01*
X112926625Y-87580939D01*
X112926624Y-87580938D01*
X112926622Y-87580937D01*
X112831074Y-87541361D01*
X112776670Y-87497521D01*
X112754605Y-87431227D01*
X112771884Y-87363527D01*
X112823021Y-87315916D01*
X112831074Y-87312239D01*
X112878347Y-87292658D01*
X112926625Y-87272661D01*
X113041621Y-87184421D01*
X113129861Y-87069425D01*
X113185330Y-86935509D01*
X113204250Y-86791800D01*
X113185330Y-86648091D01*
X113129861Y-86514175D01*
X113041621Y-86399179D01*
X112926625Y-86310939D01*
X112926624Y-86310938D01*
X112926622Y-86310937D01*
X112792712Y-86255471D01*
X112792710Y-86255470D01*
X112792709Y-86255470D01*
X112720854Y-86246010D01*
X112649001Y-86236550D01*
X112648999Y-86236550D01*
X112505291Y-86255470D01*
X112505287Y-86255471D01*
X112371377Y-86310937D01*
X112256372Y-86399184D01*
X112250628Y-86404929D01*
X112248111Y-86402412D01*
X112204817Y-86434003D01*
X112162908Y-86441300D01*
X108730744Y-86441300D01*
X108663705Y-86421615D01*
X108643063Y-86404981D01*
X103180619Y-80942537D01*
X103147134Y-80881214D01*
X103144300Y-80854856D01*
X103144300Y-70844092D01*
X103163985Y-70777053D01*
X103181914Y-70757609D01*
X103180674Y-70756369D01*
X103186419Y-70750623D01*
X103186421Y-70750621D01*
X103274661Y-70635625D01*
X103330130Y-70501709D01*
X103349050Y-70358000D01*
X104454150Y-70358000D01*
X104468342Y-70465800D01*
X104473070Y-70501708D01*
X104473071Y-70501712D01*
X104528538Y-70635623D01*
X104528539Y-70635625D01*
X104616780Y-70750623D01*
X104622526Y-70756369D01*
X104619974Y-70758920D01*
X104651491Y-70801873D01*
X104658900Y-70844092D01*
X104658900Y-71375143D01*
X104673571Y-71429899D01*
X104682785Y-71464285D01*
X104682787Y-71464290D01*
X104728927Y-71544208D01*
X104728929Y-71544211D01*
X104728930Y-71544212D01*
X106286988Y-73102270D01*
X106366912Y-73148414D01*
X106456056Y-73172300D01*
X110892908Y-73172300D01*
X110959947Y-73191985D01*
X110979412Y-73209886D01*
X110980628Y-73208671D01*
X110986372Y-73214415D01*
X110986377Y-73214419D01*
X110986379Y-73214421D01*
X111101375Y-73302661D01*
X111235291Y-73358130D01*
X111362280Y-73374848D01*
X111378999Y-73377050D01*
X111379000Y-73377050D01*
X111379001Y-73377050D01*
X111393977Y-73375078D01*
X111522709Y-73358130D01*
X111568249Y-73339266D01*
X111637716Y-73331798D01*
X111700196Y-73363073D01*
X111735848Y-73423162D01*
X111739700Y-73453828D01*
X111739700Y-73579144D01*
X111745034Y-73599051D01*
X111760117Y-73655341D01*
X111763586Y-73668288D01*
X111809727Y-73748208D01*
X111809731Y-73748213D01*
X112057440Y-73995922D01*
X112090925Y-74057245D01*
X112092067Y-74083673D01*
X112093750Y-74083673D01*
X112093750Y-74091800D01*
X112107018Y-74192582D01*
X112112670Y-74235508D01*
X112112671Y-74235512D01*
X112168137Y-74369422D01*
X112168138Y-74369424D01*
X112168139Y-74369425D01*
X112256379Y-74484421D01*
X112371375Y-74572661D01*
X112371376Y-74572661D01*
X112371377Y-74572662D01*
X112416013Y-74591150D01*
X112505291Y-74628130D01*
X112621451Y-74643423D01*
X112648999Y-74647050D01*
X112649000Y-74647050D01*
X112649001Y-74647050D01*
X112684679Y-74642352D01*
X112758314Y-74632658D01*
X112827349Y-74643423D01*
X112879605Y-74689803D01*
X112898500Y-74755597D01*
X112898500Y-75378056D01*
X112878815Y-75445095D01*
X112862181Y-75465737D01*
X112387737Y-75940181D01*
X112326414Y-75973666D01*
X112300056Y-75976500D01*
X111560292Y-75976500D01*
X111493253Y-75956815D01*
X111473787Y-75938913D01*
X111472572Y-75940129D01*
X111466827Y-75934384D01*
X111466821Y-75934379D01*
X111351825Y-75846139D01*
X111351824Y-75846138D01*
X111351822Y-75846137D01*
X111217912Y-75790671D01*
X111217910Y-75790670D01*
X111217909Y-75790670D01*
X111112786Y-75776830D01*
X111074201Y-75771750D01*
X111074199Y-75771750D01*
X110930491Y-75790670D01*
X110930487Y-75790671D01*
X110796577Y-75846137D01*
X110681579Y-75934379D01*
X110593337Y-76049377D01*
X110537871Y-76183287D01*
X110537870Y-76183291D01*
X110518950Y-76326999D01*
X110518950Y-76327000D01*
X110537870Y-76470708D01*
X110537871Y-76470712D01*
X110593337Y-76604622D01*
X110593338Y-76604624D01*
X110593339Y-76604625D01*
X110681579Y-76719621D01*
X110796575Y-76807861D01*
X110796576Y-76807861D01*
X110796577Y-76807862D01*
X110808342Y-76812735D01*
X110930491Y-76863330D01*
X111057480Y-76880048D01*
X111074199Y-76882250D01*
X111074200Y-76882250D01*
X111074201Y-76882250D01*
X111089177Y-76880278D01*
X111217909Y-76863330D01*
X111351825Y-76807861D01*
X111466821Y-76719621D01*
X111466823Y-76719617D01*
X111466827Y-76719615D01*
X111472572Y-76713871D01*
X111475088Y-76716387D01*
X111518383Y-76684797D01*
X111560292Y-76677500D01*
X112542742Y-76677500D01*
X112542744Y-76677500D01*
X112631888Y-76653614D01*
X112656727Y-76639273D01*
X112711812Y-76607470D01*
X113385419Y-75933861D01*
X113446742Y-75900377D01*
X113516433Y-75905361D01*
X113572367Y-75947232D01*
X113596784Y-76012697D01*
X113597100Y-76021543D01*
X113597100Y-85093726D01*
X113597100Y-85238674D01*
X113634616Y-85378685D01*
X113707089Y-85504213D01*
X113707091Y-85504216D01*
X116659581Y-88456706D01*
X116693066Y-88518029D01*
X116695900Y-88544387D01*
X116695900Y-94742013D01*
X116676215Y-94809052D01*
X116659581Y-94829694D01*
X116394294Y-95094981D01*
X116332971Y-95128466D01*
X116306613Y-95131300D01*
X116046006Y-95131300D01*
X116029820Y-95130239D01*
X116001801Y-95126550D01*
X116001799Y-95126550D01*
X115973780Y-95130239D01*
X115957594Y-95131300D01*
X115385606Y-95131300D01*
X115369420Y-95130239D01*
X115341401Y-95126550D01*
X115341399Y-95126550D01*
X115313380Y-95130239D01*
X115297194Y-95131300D01*
X115268921Y-95131300D01*
X115241612Y-95138617D01*
X115225714Y-95141779D01*
X115197691Y-95145469D01*
X115171572Y-95156288D01*
X115156225Y-95161497D01*
X115138745Y-95166182D01*
X115128914Y-95168816D01*
X115104432Y-95182950D01*
X115089891Y-95190120D01*
X115063779Y-95200936D01*
X115063775Y-95200938D01*
X115041342Y-95218151D01*
X115027864Y-95227156D01*
X115003385Y-95241290D01*
X114983390Y-95261284D01*
X114971202Y-95271972D01*
X114948779Y-95289179D01*
X114931572Y-95311602D01*
X114920884Y-95323790D01*
X114900890Y-95343785D01*
X114886756Y-95368264D01*
X114877751Y-95381742D01*
X114860538Y-95404175D01*
X114860536Y-95404179D01*
X114849720Y-95430291D01*
X114842550Y-95444832D01*
X114828416Y-95469314D01*
X114828416Y-95469315D01*
X114821097Y-95496625D01*
X114815888Y-95511972D01*
X114805069Y-95538091D01*
X114805069Y-95538092D01*
X114801379Y-95566114D01*
X114798217Y-95582012D01*
X114790900Y-95609321D01*
X114790900Y-95637593D01*
X114789839Y-95653778D01*
X114786150Y-95681798D01*
X114786150Y-95681800D01*
X114789839Y-95709820D01*
X114790900Y-95726006D01*
X114790900Y-95754276D01*
X114798217Y-95781586D01*
X114801380Y-95797485D01*
X114805070Y-95825509D01*
X114815885Y-95851619D01*
X114821097Y-95866973D01*
X114828415Y-95894283D01*
X114828418Y-95894289D01*
X114842547Y-95918762D01*
X114849719Y-95933305D01*
X114860538Y-95959425D01*
X114877748Y-95981853D01*
X114886757Y-95995336D01*
X114900891Y-96019815D01*
X114920882Y-96039806D01*
X114931572Y-96051996D01*
X114948778Y-96074420D01*
X114971204Y-96091628D01*
X114983392Y-96102316D01*
X115003385Y-96122309D01*
X115027870Y-96136445D01*
X115041347Y-96145451D01*
X115063775Y-96162661D01*
X115088971Y-96173097D01*
X115089888Y-96173477D01*
X115104435Y-96180651D01*
X115128913Y-96194783D01*
X115128915Y-96194784D01*
X115156218Y-96202099D01*
X115171572Y-96207311D01*
X115197691Y-96218130D01*
X115225717Y-96221819D01*
X115241612Y-96224981D01*
X115268925Y-96232300D01*
X115297194Y-96232300D01*
X115313380Y-96233361D01*
X115341399Y-96237050D01*
X115341400Y-96237050D01*
X115341401Y-96237050D01*
X115369420Y-96233361D01*
X115385606Y-96232300D01*
X115957594Y-96232300D01*
X115973780Y-96233361D01*
X116001799Y-96237050D01*
X116001800Y-96237050D01*
X116001801Y-96237050D01*
X116029820Y-96233361D01*
X116046006Y-96232300D01*
X116658472Y-96232300D01*
X116658474Y-96232300D01*
X116658475Y-96232300D01*
X116798485Y-96194784D01*
X116816973Y-96184110D01*
X116924015Y-96122310D01*
X117686910Y-95359414D01*
X117759384Y-95233885D01*
X117783075Y-95145470D01*
X117796900Y-95093875D01*
X117796900Y-88192525D01*
X117759384Y-88052515D01*
X117759382Y-88052512D01*
X117759383Y-88052512D01*
X117751321Y-88038549D01*
X117751319Y-88038547D01*
X117686910Y-87926985D01*
X114734419Y-84974494D01*
X114700934Y-84913171D01*
X114698100Y-84886813D01*
X114698100Y-77927199D01*
X115344950Y-77927199D01*
X115344950Y-77927200D01*
X115363870Y-78070908D01*
X115363871Y-78070912D01*
X115419337Y-78204822D01*
X115419338Y-78204824D01*
X115419339Y-78204825D01*
X115507579Y-78319821D01*
X115622575Y-78408061D01*
X115622576Y-78408061D01*
X115622577Y-78408062D01*
X115667213Y-78426550D01*
X115756491Y-78463530D01*
X115886353Y-78480627D01*
X115950248Y-78508892D01*
X115957847Y-78515884D01*
X116097981Y-78656018D01*
X116131466Y-78717341D01*
X116134300Y-78743699D01*
X116134300Y-79373635D01*
X116159890Y-79469138D01*
X116205017Y-79547300D01*
X116209326Y-79554763D01*
X116209326Y-79554764D01*
X116491419Y-79836856D01*
X116717325Y-80062762D01*
X116787238Y-80132675D01*
X116872862Y-80182110D01*
X116915333Y-80193490D01*
X116968364Y-80207700D01*
X116968365Y-80207700D01*
X121711705Y-80207700D01*
X121778744Y-80227385D01*
X121799386Y-80244019D01*
X122371781Y-80816414D01*
X122405266Y-80877737D01*
X122408100Y-80904095D01*
X122408100Y-104599752D01*
X122388415Y-104666791D01*
X122335611Y-104712546D01*
X122316202Y-104719524D01*
X122309696Y-104721267D01*
X122175777Y-104776737D01*
X122060779Y-104864979D01*
X121972537Y-104979977D01*
X121917071Y-105113887D01*
X121917070Y-105113891D01*
X121898150Y-105257599D01*
X121898150Y-105257600D01*
X121917070Y-105401308D01*
X121917071Y-105401312D01*
X121972537Y-105535222D01*
X121972538Y-105535224D01*
X121972539Y-105535225D01*
X122060779Y-105650221D01*
X122175775Y-105738461D01*
X122309691Y-105793930D01*
X122436680Y-105810648D01*
X122453399Y-105812850D01*
X122453400Y-105812850D01*
X122453401Y-105812850D01*
X122468377Y-105810878D01*
X122597109Y-105793930D01*
X122731025Y-105738461D01*
X122846021Y-105650221D01*
X122901125Y-105578408D01*
X122957552Y-105537206D01*
X123027298Y-105533051D01*
X123088218Y-105567263D01*
X123097870Y-105578403D01*
X123152979Y-105650221D01*
X123267975Y-105738461D01*
X123401891Y-105793930D01*
X123528880Y-105810648D01*
X123545599Y-105812850D01*
X123545600Y-105812850D01*
X123545601Y-105812850D01*
X123560577Y-105810878D01*
X123689309Y-105793930D01*
X123823225Y-105738461D01*
X123938221Y-105650221D01*
X124026461Y-105535225D01*
X124081930Y-105401309D01*
X124100850Y-105257600D01*
X124081930Y-105113891D01*
X124026461Y-104979975D01*
X123938221Y-104864979D01*
X123823225Y-104776739D01*
X123823223Y-104776738D01*
X123718247Y-104733256D01*
X123663844Y-104689415D01*
X123641779Y-104623121D01*
X123641700Y-104618695D01*
X123641700Y-80493966D01*
X123641700Y-80493965D01*
X123634376Y-80466633D01*
X123616110Y-80398463D01*
X123616110Y-80398462D01*
X123566675Y-80312838D01*
X123496762Y-80242925D01*
X122125163Y-78871326D01*
X122125162Y-78871325D01*
X122039538Y-78821890D01*
X121991786Y-78809095D01*
X121991784Y-78809094D01*
X121991782Y-78809093D01*
X121944036Y-78796300D01*
X121944035Y-78796300D01*
X117779626Y-78796300D01*
X117712587Y-78776615D01*
X117704147Y-78770682D01*
X117600225Y-78690939D01*
X117600224Y-78690938D01*
X117600222Y-78690937D01*
X117466312Y-78635471D01*
X117466310Y-78635470D01*
X117466309Y-78635470D01*
X117394454Y-78626010D01*
X117322601Y-78616550D01*
X117322599Y-78616550D01*
X117178893Y-78635469D01*
X117056752Y-78686061D01*
X116987282Y-78693529D01*
X116924803Y-78662253D01*
X116889151Y-78602164D01*
X116885300Y-78571499D01*
X116885300Y-78487365D01*
X116880128Y-78468062D01*
X116859711Y-78391863D01*
X116810275Y-78306238D01*
X116488884Y-77984847D01*
X116455399Y-77923524D01*
X116453628Y-77913367D01*
X116436530Y-77783491D01*
X116381061Y-77649575D01*
X116292821Y-77534579D01*
X116177825Y-77446339D01*
X116177824Y-77446338D01*
X116177822Y-77446337D01*
X116043912Y-77390871D01*
X116043910Y-77390870D01*
X116043909Y-77390870D01*
X115972054Y-77381410D01*
X115900201Y-77371950D01*
X115900199Y-77371950D01*
X115756491Y-77390870D01*
X115756487Y-77390871D01*
X115622577Y-77446337D01*
X115507579Y-77534579D01*
X115419337Y-77649577D01*
X115363871Y-77783487D01*
X115363870Y-77783491D01*
X115344950Y-77927199D01*
X114698100Y-77927199D01*
X114698100Y-69850000D01*
X122874750Y-69850000D01*
X122892614Y-69985691D01*
X122893670Y-69993708D01*
X122893671Y-69993712D01*
X122949137Y-70127622D01*
X122949138Y-70127624D01*
X122949139Y-70127625D01*
X123037379Y-70242621D01*
X123152375Y-70330861D01*
X123286291Y-70386330D01*
X123406302Y-70402130D01*
X123429999Y-70405250D01*
X123430000Y-70405250D01*
X123430001Y-70405250D01*
X123453698Y-70402130D01*
X123573709Y-70386330D01*
X123707625Y-70330861D01*
X123822621Y-70242621D01*
X123910861Y-70127625D01*
X123957439Y-70015173D01*
X124001279Y-69960770D01*
X124067573Y-69938705D01*
X124135273Y-69955984D01*
X124182884Y-70007121D01*
X124186561Y-70015174D01*
X124233137Y-70127622D01*
X124233138Y-70127624D01*
X124233139Y-70127625D01*
X124321379Y-70242621D01*
X124436375Y-70330861D01*
X124570291Y-70386330D01*
X124690302Y-70402130D01*
X124713999Y-70405250D01*
X124714000Y-70405250D01*
X124714001Y-70405250D01*
X124737698Y-70402130D01*
X124857709Y-70386330D01*
X124991625Y-70330861D01*
X125106621Y-70242621D01*
X125194861Y-70127625D01*
X125250330Y-69993709D01*
X125269103Y-69851114D01*
X125297370Y-69787218D01*
X125355694Y-69748747D01*
X125392042Y-69743300D01*
X125508056Y-69743300D01*
X125575095Y-69762985D01*
X125595737Y-69779619D01*
X126657788Y-70841670D01*
X126732320Y-70884701D01*
X126737712Y-70887814D01*
X126826856Y-70911700D01*
X126826858Y-70911700D01*
X128900342Y-70911700D01*
X128900344Y-70911700D01*
X128989488Y-70887814D01*
X128994880Y-70884701D01*
X129069412Y-70841670D01*
X130633063Y-69278019D01*
X130694386Y-69244534D01*
X130720744Y-69241700D01*
X131821938Y-69241700D01*
X131888977Y-69261385D01*
X131934732Y-69314189D01*
X131944676Y-69383347D01*
X131920314Y-69441185D01*
X131895765Y-69473179D01*
X131839137Y-69546977D01*
X131783671Y-69680887D01*
X131783670Y-69680891D01*
X131765136Y-69821671D01*
X131764750Y-69824600D01*
X131782677Y-69960770D01*
X131783670Y-69968308D01*
X131783671Y-69968312D01*
X131839137Y-70102222D01*
X131839138Y-70102224D01*
X131839139Y-70102225D01*
X131927379Y-70217221D01*
X132042375Y-70305461D01*
X132042376Y-70305461D01*
X132042377Y-70305462D01*
X132072944Y-70318123D01*
X132176291Y-70360930D01*
X132303280Y-70377648D01*
X132319999Y-70379850D01*
X132320000Y-70379850D01*
X132320001Y-70379850D01*
X132334977Y-70377878D01*
X132463709Y-70360930D01*
X132597625Y-70305461D01*
X132712621Y-70217221D01*
X132800861Y-70102225D01*
X132856330Y-69968309D01*
X132875250Y-69824600D01*
X132875250Y-69824599D01*
X132875250Y-69816471D01*
X132878828Y-69816471D01*
X132887031Y-69763630D01*
X132911561Y-69728721D01*
X132962265Y-69678018D01*
X133023588Y-69644534D01*
X133049945Y-69641700D01*
X143084856Y-69641700D01*
X143151895Y-69661385D01*
X143172537Y-69678019D01*
X143758181Y-70263663D01*
X143791666Y-70324986D01*
X143794500Y-70351344D01*
X143794500Y-73301856D01*
X143774815Y-73368895D01*
X143722011Y-73414650D01*
X143652853Y-73424594D01*
X143589297Y-73395569D01*
X143582819Y-73389537D01*
X143085560Y-72892278D01*
X143052075Y-72830955D01*
X143050983Y-72804529D01*
X143049250Y-72804529D01*
X143049250Y-72796400D01*
X143043518Y-72752861D01*
X143030330Y-72652691D01*
X142984918Y-72543056D01*
X142974862Y-72518777D01*
X142974861Y-72518776D01*
X142974861Y-72518775D01*
X142886621Y-72403779D01*
X142771625Y-72315539D01*
X142771624Y-72315538D01*
X142771622Y-72315537D01*
X142637712Y-72260071D01*
X142637710Y-72260070D01*
X142637709Y-72260070D01*
X142565854Y-72250610D01*
X142494001Y-72241150D01*
X142493999Y-72241150D01*
X142350291Y-72260070D01*
X142350287Y-72260071D01*
X142216377Y-72315537D01*
X142101379Y-72403779D01*
X142013137Y-72518777D01*
X141960861Y-72644986D01*
X141917020Y-72699390D01*
X141850726Y-72721455D01*
X141783027Y-72704176D01*
X141735416Y-72653039D01*
X141731739Y-72644986D01*
X141679462Y-72518777D01*
X141679461Y-72518776D01*
X141679461Y-72518775D01*
X141591221Y-72403779D01*
X141476225Y-72315539D01*
X141476224Y-72315538D01*
X141476222Y-72315537D01*
X141342312Y-72260071D01*
X141342310Y-72260070D01*
X141342309Y-72260070D01*
X141270454Y-72250610D01*
X141198601Y-72241150D01*
X141198599Y-72241150D01*
X141054891Y-72260070D01*
X141054887Y-72260071D01*
X140920977Y-72315537D01*
X140805979Y-72403779D01*
X140717737Y-72518777D01*
X140662271Y-72652687D01*
X140662270Y-72652691D01*
X140661128Y-72661369D01*
X140653529Y-72719086D01*
X140625262Y-72782982D01*
X140566938Y-72821453D01*
X140530590Y-72826900D01*
X139603056Y-72826900D01*
X139513912Y-72850786D01*
X139513911Y-72850786D01*
X139513909Y-72850787D01*
X139513906Y-72850788D01*
X139433994Y-72896926D01*
X139433985Y-72896933D01*
X138936931Y-73393986D01*
X138936927Y-73393991D01*
X138900048Y-73457869D01*
X138900048Y-73457870D01*
X138890786Y-73473910D01*
X138866900Y-73563056D01*
X138866900Y-75844171D01*
X138847215Y-75911210D01*
X138830581Y-75931852D01*
X125144731Y-89617701D01*
X125144729Y-89617703D01*
X125115981Y-89667499D01*
X125115979Y-89667502D01*
X125098586Y-89697624D01*
X125074700Y-89786771D01*
X125074700Y-104596277D01*
X125055015Y-104663316D01*
X125002211Y-104709071D01*
X124966890Y-104719215D01*
X124951294Y-104721268D01*
X124951291Y-104721269D01*
X124817377Y-104776737D01*
X124702379Y-104864979D01*
X124614137Y-104979977D01*
X124558671Y-105113887D01*
X124558670Y-105113891D01*
X124539750Y-105257599D01*
X124539750Y-105257600D01*
X124558670Y-105401308D01*
X124558671Y-105401312D01*
X124614137Y-105535222D01*
X124614138Y-105535224D01*
X124614139Y-105535225D01*
X124702379Y-105650221D01*
X124817375Y-105738461D01*
X124951291Y-105793930D01*
X125078280Y-105810648D01*
X125094999Y-105812850D01*
X125095000Y-105812850D01*
X125095001Y-105812850D01*
X125109977Y-105810878D01*
X125238709Y-105793930D01*
X125372625Y-105738461D01*
X125487621Y-105650221D01*
X125558381Y-105558004D01*
X125614805Y-105516804D01*
X125684551Y-105512649D01*
X125745472Y-105546861D01*
X125755129Y-105558006D01*
X125764875Y-105570707D01*
X125845379Y-105675621D01*
X125960375Y-105763861D01*
X126094291Y-105819330D01*
X126221280Y-105836048D01*
X126237999Y-105838250D01*
X126238000Y-105838250D01*
X126238001Y-105838250D01*
X126252977Y-105836278D01*
X126381709Y-105819330D01*
X126515625Y-105763861D01*
X126630621Y-105675621D01*
X126711125Y-105570705D01*
X126767552Y-105529504D01*
X126837298Y-105525349D01*
X126898218Y-105559561D01*
X126907869Y-105570699D01*
X126958015Y-105636051D01*
X126988376Y-105675618D01*
X126988379Y-105675621D01*
X127103375Y-105763861D01*
X127237291Y-105819330D01*
X127364280Y-105836048D01*
X127380999Y-105838250D01*
X127381000Y-105838250D01*
X127381001Y-105838250D01*
X127395977Y-105836278D01*
X127524709Y-105819330D01*
X127658625Y-105763861D01*
X127773621Y-105675621D01*
X127854125Y-105570705D01*
X127910552Y-105529504D01*
X127980298Y-105525349D01*
X128041218Y-105559561D01*
X128050869Y-105570699D01*
X128101015Y-105636051D01*
X128131376Y-105675618D01*
X128131379Y-105675621D01*
X128246375Y-105763861D01*
X128380291Y-105819330D01*
X128507280Y-105836048D01*
X128523999Y-105838250D01*
X128524000Y-105838250D01*
X128524001Y-105838250D01*
X128538977Y-105836278D01*
X128667709Y-105819330D01*
X128801625Y-105763861D01*
X128916621Y-105675621D01*
X129004861Y-105560625D01*
X129060330Y-105426709D01*
X129079250Y-105283000D01*
X129060330Y-105139291D01*
X129004861Y-105005375D01*
X128916621Y-104890379D01*
X128801625Y-104802139D01*
X128801624Y-104802138D01*
X128801622Y-104802137D01*
X128667712Y-104746671D01*
X128667710Y-104746670D01*
X128667709Y-104746670D01*
X128656358Y-104745175D01*
X128601313Y-104737928D01*
X128537417Y-104709660D01*
X128498946Y-104651335D01*
X128493500Y-104614989D01*
X128493500Y-97107143D01*
X128513185Y-97040104D01*
X128529815Y-97019466D01*
X128758323Y-96790957D01*
X128819644Y-96757474D01*
X128846071Y-96756544D01*
X128846071Y-96754650D01*
X128854200Y-96754650D01*
X128997909Y-96735730D01*
X129131825Y-96680261D01*
X129246821Y-96592021D01*
X129335061Y-96477025D01*
X129390530Y-96343109D01*
X129409450Y-96199400D01*
X129390530Y-96055691D01*
X129335061Y-95921775D01*
X129246821Y-95806779D01*
X129131825Y-95718539D01*
X129131824Y-95718538D01*
X129131822Y-95718537D01*
X128997912Y-95663071D01*
X128997910Y-95663070D01*
X128997909Y-95663070D01*
X128926054Y-95653610D01*
X128854201Y-95644150D01*
X128854199Y-95644150D01*
X128710491Y-95663070D01*
X128710487Y-95663071D01*
X128576577Y-95718537D01*
X128530003Y-95754275D01*
X128461579Y-95806779D01*
X128461578Y-95806780D01*
X128461577Y-95806781D01*
X128419175Y-95862040D01*
X128362747Y-95903243D01*
X128293001Y-95907397D01*
X128232081Y-95873184D01*
X128222425Y-95862040D01*
X128194393Y-95825509D01*
X128180021Y-95806779D01*
X128065025Y-95718539D01*
X128065024Y-95718538D01*
X128065022Y-95718537D01*
X127931112Y-95663071D01*
X127931110Y-95663070D01*
X127931109Y-95663070D01*
X127859254Y-95653610D01*
X127787401Y-95644150D01*
X127787399Y-95644150D01*
X127643691Y-95663070D01*
X127643687Y-95663071D01*
X127509777Y-95718537D01*
X127394779Y-95806779D01*
X127306537Y-95921777D01*
X127251071Y-96055687D01*
X127251070Y-96055691D01*
X127242300Y-96122308D01*
X127232150Y-96199400D01*
X127249645Y-96332289D01*
X127251070Y-96343108D01*
X127251071Y-96343112D01*
X127306538Y-96477023D01*
X127306539Y-96477025D01*
X127366875Y-96555655D01*
X127392070Y-96620824D01*
X127392500Y-96631142D01*
X127392500Y-104617491D01*
X127372815Y-104684530D01*
X127320011Y-104730285D01*
X127284687Y-104740430D01*
X127237291Y-104746670D01*
X127237287Y-104746671D01*
X127103377Y-104802137D01*
X127021481Y-104864979D01*
X126988379Y-104890379D01*
X126907874Y-104995294D01*
X126851448Y-105036495D01*
X126781701Y-105040650D01*
X126720781Y-105006437D01*
X126711130Y-104995300D01*
X126630621Y-104890379D01*
X126515625Y-104802139D01*
X126515624Y-104802138D01*
X126515622Y-104802137D01*
X126381712Y-104746671D01*
X126381710Y-104746670D01*
X126381709Y-104746670D01*
X126290638Y-104734680D01*
X126283514Y-104733742D01*
X126219618Y-104705475D01*
X126181147Y-104647150D01*
X126175700Y-104610803D01*
X126175700Y-90195144D01*
X126195385Y-90128105D01*
X126212019Y-90107463D01*
X132965532Y-83353950D01*
X140209070Y-76110412D01*
X140255214Y-76030488D01*
X140257611Y-76021543D01*
X140263281Y-76000385D01*
X140271190Y-75970865D01*
X140279100Y-75941344D01*
X140279100Y-74298492D01*
X140298785Y-74231453D01*
X140316714Y-74212009D01*
X140315474Y-74210769D01*
X140321219Y-74205023D01*
X140321221Y-74205021D01*
X140409461Y-74090025D01*
X140464930Y-73956109D01*
X140483850Y-73812400D01*
X140464930Y-73668691D01*
X140464929Y-73668689D01*
X140464850Y-73668086D01*
X140475615Y-73599051D01*
X140521995Y-73546795D01*
X140587789Y-73527900D01*
X140863742Y-73527900D01*
X140863744Y-73527900D01*
X140952888Y-73504014D01*
X141032812Y-73457870D01*
X141102722Y-73387957D01*
X141164042Y-73354474D01*
X141190471Y-73353544D01*
X141190471Y-73351650D01*
X141198600Y-73351650D01*
X141342309Y-73332730D01*
X141476225Y-73277261D01*
X141591221Y-73189021D01*
X141679461Y-73074025D01*
X141731739Y-72947813D01*
X141775579Y-72893409D01*
X141841873Y-72871344D01*
X141909573Y-72888623D01*
X141957184Y-72939760D01*
X141960861Y-72947813D01*
X142013137Y-73074022D01*
X142013138Y-73074024D01*
X142013139Y-73074025D01*
X142101379Y-73189021D01*
X142216375Y-73277261D01*
X142216376Y-73277261D01*
X142216377Y-73277262D01*
X142251041Y-73291620D01*
X142350291Y-73332730D01*
X142494000Y-73351650D01*
X142502129Y-73351650D01*
X142502129Y-73355228D01*
X142554970Y-73363431D01*
X142589878Y-73387960D01*
X143358181Y-74156263D01*
X143391666Y-74217586D01*
X143394500Y-74243944D01*
X143394500Y-75776830D01*
X143398209Y-75790671D01*
X143412877Y-75845414D01*
X143412893Y-75845471D01*
X143418386Y-75865975D01*
X143464527Y-75945894D01*
X143464529Y-75945897D01*
X143464530Y-75945898D01*
X150958702Y-83440070D01*
X151038626Y-83486214D01*
X151127770Y-83510100D01*
X151127772Y-83510100D01*
X163545942Y-83510100D01*
X163545944Y-83510100D01*
X163635088Y-83486214D01*
X163715012Y-83440070D01*
X165867722Y-81287357D01*
X165929043Y-81253874D01*
X165955471Y-81252917D01*
X165955471Y-81251050D01*
X165963600Y-81251050D01*
X166107309Y-81232130D01*
X166241225Y-81176661D01*
X166356221Y-81088421D01*
X166444461Y-80973425D01*
X166499930Y-80839509D01*
X166518850Y-80695800D01*
X166499930Y-80552091D01*
X166444461Y-80418175D01*
X166356221Y-80303179D01*
X166241225Y-80214939D01*
X166241224Y-80214938D01*
X166241222Y-80214937D01*
X166107312Y-80159471D01*
X166107310Y-80159470D01*
X166107309Y-80159470D01*
X166035454Y-80150010D01*
X165963601Y-80140550D01*
X165963599Y-80140550D01*
X165819891Y-80159470D01*
X165819887Y-80159471D01*
X165685977Y-80214937D01*
X165570979Y-80303179D01*
X165482737Y-80418177D01*
X165427271Y-80552087D01*
X165427270Y-80552091D01*
X165408350Y-80695799D01*
X165408350Y-80703927D01*
X165404807Y-80703927D01*
X165396469Y-80756980D01*
X165372040Y-80791677D01*
X164368821Y-81794895D01*
X164307498Y-81828380D01*
X164237806Y-81823396D01*
X164181873Y-81781524D01*
X164167886Y-81752717D01*
X164166240Y-81753399D01*
X164107662Y-81611977D01*
X164107661Y-81611976D01*
X164107661Y-81611975D01*
X164019421Y-81496979D01*
X164019419Y-81496977D01*
X164019415Y-81496972D01*
X164013671Y-81491228D01*
X164016187Y-81488711D01*
X163984597Y-81445417D01*
X163977300Y-81403508D01*
X163977300Y-77387144D01*
X163996985Y-77320105D01*
X164013619Y-77299463D01*
X164858014Y-76455068D01*
X165786870Y-75526212D01*
X165833014Y-75446288D01*
X165856900Y-75357144D01*
X165856900Y-75264856D01*
X165856900Y-74222292D01*
X165876585Y-74155253D01*
X165894514Y-74135809D01*
X165893274Y-74134569D01*
X165899019Y-74128823D01*
X165920759Y-74100491D01*
X165987261Y-74013825D01*
X166042730Y-73879909D01*
X166061650Y-73736200D01*
X166042730Y-73592491D01*
X166003358Y-73497437D01*
X165987262Y-73458577D01*
X165987261Y-73458576D01*
X165987261Y-73458575D01*
X165899021Y-73343579D01*
X165784025Y-73255339D01*
X165767186Y-73248364D01*
X165712782Y-73204522D01*
X165690718Y-73138228D01*
X165707998Y-73070529D01*
X165726949Y-73046132D01*
X165786870Y-72986212D01*
X165833014Y-72906288D01*
X165850094Y-72842544D01*
X165856900Y-72817144D01*
X165856900Y-72749092D01*
X165876585Y-72682053D01*
X165894514Y-72662609D01*
X165893274Y-72661369D01*
X165899019Y-72655623D01*
X165901272Y-72652687D01*
X165987261Y-72540625D01*
X166042730Y-72406709D01*
X166061650Y-72263000D01*
X166042730Y-72119291D01*
X165987824Y-71986734D01*
X165987262Y-71985377D01*
X165987261Y-71985376D01*
X165987261Y-71985375D01*
X165899021Y-71870379D01*
X165784025Y-71782139D01*
X165767186Y-71775164D01*
X165712782Y-71731322D01*
X165690718Y-71665028D01*
X165707998Y-71597329D01*
X165726953Y-71572927D01*
X165786869Y-71513012D01*
X165833014Y-71433088D01*
X165833868Y-71429900D01*
X165833869Y-71429899D01*
X165840220Y-71406194D01*
X165856900Y-71343944D01*
X165856900Y-71275892D01*
X165876585Y-71208853D01*
X165894514Y-71189409D01*
X165893274Y-71188169D01*
X165899019Y-71182423D01*
X165899021Y-71182421D01*
X165987261Y-71067425D01*
X166042730Y-70933509D01*
X166061650Y-70789800D01*
X166042730Y-70646091D01*
X165992269Y-70524265D01*
X165987262Y-70512177D01*
X165987261Y-70512176D01*
X165987261Y-70512175D01*
X165899021Y-70397179D01*
X165784025Y-70308939D01*
X165784022Y-70308938D01*
X165777577Y-70303992D01*
X165779018Y-70302113D01*
X165739151Y-70260304D01*
X165725925Y-70191698D01*
X165751890Y-70126832D01*
X165761677Y-70115804D01*
X165786870Y-70090612D01*
X165833014Y-70010688D01*
X165856900Y-69921544D01*
X165856900Y-69829256D01*
X165856900Y-69802692D01*
X165876585Y-69735653D01*
X165894514Y-69716209D01*
X165893274Y-69714969D01*
X165899019Y-69709223D01*
X165901272Y-69706287D01*
X165987261Y-69594225D01*
X166042730Y-69460309D01*
X166061650Y-69316600D01*
X166060853Y-69310550D01*
X166057016Y-69281403D01*
X166042730Y-69172891D01*
X165987261Y-69038975D01*
X165899021Y-68923979D01*
X165784025Y-68835739D01*
X165784024Y-68835738D01*
X165784022Y-68835737D01*
X165650112Y-68780271D01*
X165650110Y-68780270D01*
X165650109Y-68780270D01*
X165578254Y-68770810D01*
X165506401Y-68761350D01*
X165506399Y-68761350D01*
X165362691Y-68780270D01*
X165362687Y-68780271D01*
X165228777Y-68835737D01*
X165113779Y-68923979D01*
X165025537Y-69038977D01*
X164970071Y-69172887D01*
X164970070Y-69172891D01*
X164951536Y-69313671D01*
X164951150Y-69316600D01*
X164967552Y-69441187D01*
X164970070Y-69460308D01*
X164970071Y-69460312D01*
X165025538Y-69594223D01*
X165025539Y-69594226D01*
X165074982Y-69658660D01*
X165100177Y-69723829D01*
X165086139Y-69792274D01*
X165064288Y-69821828D01*
X163320931Y-71565186D01*
X163320930Y-71565188D01*
X163292849Y-71613827D01*
X163289484Y-71619655D01*
X163289483Y-71619656D01*
X163274787Y-71645109D01*
X163274786Y-71645112D01*
X163250900Y-71734256D01*
X163250900Y-74022256D01*
X163231215Y-74089295D01*
X163214581Y-74109937D01*
X156412131Y-80912386D01*
X156412129Y-80912389D01*
X156371446Y-80982856D01*
X156371444Y-80982859D01*
X156365987Y-80992309D01*
X156365985Y-80992314D01*
X156342100Y-81081456D01*
X156342100Y-81403508D01*
X156322415Y-81470547D01*
X156304513Y-81490012D01*
X156305729Y-81491228D01*
X156299984Y-81496972D01*
X156211737Y-81611977D01*
X156156271Y-81745887D01*
X156156270Y-81745891D01*
X156137350Y-81889599D01*
X156137350Y-81889600D01*
X156156270Y-82033308D01*
X156156271Y-82033312D01*
X156211737Y-82167222D01*
X156211738Y-82167224D01*
X156211739Y-82167225D01*
X156299979Y-82282221D01*
X156414975Y-82370461D01*
X156548891Y-82425930D01*
X156675880Y-82442648D01*
X156692599Y-82444850D01*
X156692600Y-82444850D01*
X156692601Y-82444850D01*
X156707577Y-82442878D01*
X156836309Y-82425930D01*
X156970225Y-82370461D01*
X157085221Y-82282221D01*
X157173461Y-82167225D01*
X157228930Y-82033309D01*
X157247850Y-81889600D01*
X157228930Y-81745891D01*
X157173461Y-81611975D01*
X157085221Y-81496979D01*
X157085219Y-81496977D01*
X157085215Y-81496972D01*
X157079471Y-81491228D01*
X157081987Y-81488711D01*
X157050397Y-81445417D01*
X157043100Y-81403508D01*
X157043100Y-81324144D01*
X157062785Y-81257105D01*
X157079419Y-81236463D01*
X158441819Y-79874063D01*
X158503142Y-79840578D01*
X158572834Y-79845562D01*
X158628767Y-79887434D01*
X158653184Y-79952898D01*
X158653500Y-79961744D01*
X158653500Y-81403508D01*
X158633815Y-81470547D01*
X158615913Y-81490012D01*
X158617129Y-81491228D01*
X158611384Y-81496972D01*
X158523137Y-81611977D01*
X158467671Y-81745887D01*
X158467670Y-81745891D01*
X158448750Y-81889599D01*
X158448750Y-81889600D01*
X158467670Y-82033308D01*
X158467671Y-82033312D01*
X158523137Y-82167222D01*
X158523138Y-82167224D01*
X158523139Y-82167225D01*
X158611379Y-82282221D01*
X158726375Y-82370461D01*
X158860291Y-82425930D01*
X158987280Y-82442648D01*
X159003999Y-82444850D01*
X159004000Y-82444850D01*
X159004001Y-82444850D01*
X159018977Y-82442878D01*
X159147709Y-82425930D01*
X159281625Y-82370461D01*
X159396621Y-82282221D01*
X159484861Y-82167225D01*
X159540330Y-82033309D01*
X159559250Y-81889600D01*
X159540330Y-81745891D01*
X159484861Y-81611975D01*
X159396621Y-81496979D01*
X159396619Y-81496977D01*
X159396615Y-81496972D01*
X159390871Y-81491228D01*
X159393387Y-81488711D01*
X159361797Y-81445417D01*
X159354500Y-81403508D01*
X159354500Y-80079543D01*
X159374185Y-80012504D01*
X159390814Y-79991867D01*
X160753219Y-78629461D01*
X160814542Y-78595977D01*
X160884234Y-78600961D01*
X160940167Y-78642833D01*
X160964584Y-78708297D01*
X160964900Y-78717143D01*
X160964900Y-81403508D01*
X160945215Y-81470547D01*
X160927313Y-81490012D01*
X160928529Y-81491228D01*
X160922784Y-81496972D01*
X160834537Y-81611977D01*
X160779071Y-81745887D01*
X160779070Y-81745891D01*
X160760150Y-81889599D01*
X160760150Y-81889600D01*
X160779070Y-82033308D01*
X160779071Y-82033312D01*
X160834537Y-82167222D01*
X160834538Y-82167224D01*
X160834539Y-82167225D01*
X160922779Y-82282221D01*
X161037775Y-82370461D01*
X161171691Y-82425930D01*
X161298680Y-82442648D01*
X161315399Y-82444850D01*
X161315400Y-82444850D01*
X161315401Y-82444850D01*
X161330377Y-82442878D01*
X161459109Y-82425930D01*
X161593025Y-82370461D01*
X161708021Y-82282221D01*
X161796261Y-82167225D01*
X161851730Y-82033309D01*
X161870650Y-81889600D01*
X161851730Y-81745891D01*
X161796261Y-81611975D01*
X161708021Y-81496979D01*
X161708019Y-81496977D01*
X161708015Y-81496972D01*
X161702271Y-81491228D01*
X161704787Y-81488711D01*
X161673197Y-81445417D01*
X161665900Y-81403508D01*
X161665900Y-78682543D01*
X161685585Y-78615504D01*
X161702219Y-78594862D01*
X163064619Y-77232462D01*
X163125942Y-77198977D01*
X163195634Y-77203961D01*
X163251567Y-77245833D01*
X163275984Y-77311297D01*
X163276300Y-77320143D01*
X163276300Y-81403508D01*
X163256615Y-81470547D01*
X163238713Y-81490012D01*
X163239929Y-81491228D01*
X163234184Y-81496972D01*
X163145937Y-81611977D01*
X163090471Y-81745887D01*
X163090470Y-81745891D01*
X163071550Y-81889599D01*
X163071550Y-81889600D01*
X163090470Y-82033308D01*
X163090471Y-82033312D01*
X163145937Y-82167222D01*
X163145938Y-82167224D01*
X163145939Y-82167225D01*
X163234179Y-82282221D01*
X163349175Y-82370461D01*
X163349176Y-82370461D01*
X163349177Y-82370462D01*
X163490599Y-82429040D01*
X163489367Y-82432012D01*
X163536138Y-82460497D01*
X163566690Y-82523333D01*
X163558420Y-82592711D01*
X163532096Y-82631621D01*
X163486042Y-82677675D01*
X163390935Y-82772782D01*
X163329615Y-82806266D01*
X163303256Y-82809100D01*
X151370458Y-82809100D01*
X151303419Y-82789415D01*
X151282777Y-82772781D01*
X145246777Y-76736781D01*
X145213292Y-76675458D01*
X145218276Y-76605766D01*
X145260148Y-76549833D01*
X145325612Y-76525416D01*
X145334458Y-76525100D01*
X156103742Y-76525100D01*
X156103744Y-76525100D01*
X156192888Y-76501214D01*
X156272812Y-76455070D01*
X165361263Y-67366619D01*
X165422586Y-67333134D01*
X165448944Y-67330300D01*
X184359856Y-67330300D01*
X184426895Y-67349985D01*
X184447537Y-67366619D01*
X188076688Y-70995770D01*
X188110173Y-71057093D01*
X188105189Y-71126785D01*
X188087383Y-71158937D01*
X188037939Y-71223374D01*
X188037938Y-71223376D01*
X187982471Y-71357287D01*
X187982470Y-71357291D01*
X187972491Y-71433091D01*
X187963550Y-71501000D01*
X187977396Y-71606172D01*
X187982470Y-71644708D01*
X187982471Y-71644712D01*
X188037937Y-71778622D01*
X188037938Y-71778624D01*
X188037939Y-71778625D01*
X188126179Y-71893621D01*
X188241175Y-71981861D01*
X188241176Y-71981861D01*
X188241177Y-71981862D01*
X188252942Y-71986735D01*
X188375091Y-72037330D01*
X188502080Y-72054048D01*
X188518799Y-72056250D01*
X188518800Y-72056250D01*
X188518801Y-72056250D01*
X188533777Y-72054278D01*
X188662509Y-72037330D01*
X188796425Y-71981861D01*
X188911421Y-71893621D01*
X188999661Y-71778625D01*
X189055130Y-71644709D01*
X189074050Y-71501000D01*
X189055130Y-71357291D01*
X188999661Y-71223375D01*
X188911421Y-71108379D01*
X188911419Y-71108377D01*
X188911415Y-71108372D01*
X188905671Y-71102628D01*
X188908187Y-71100111D01*
X188876597Y-71056817D01*
X188869300Y-71014908D01*
X188869300Y-70896058D01*
X188869300Y-70896056D01*
X188845414Y-70806912D01*
X188837873Y-70793850D01*
X188799270Y-70726988D01*
X184771612Y-66699330D01*
X184771611Y-66699329D01*
X184771608Y-66699327D01*
X184691690Y-66653187D01*
X184691689Y-66653186D01*
X184691688Y-66653186D01*
X184602544Y-66629300D01*
X165206256Y-66629300D01*
X165117112Y-66653186D01*
X165117109Y-66653187D01*
X165037191Y-66699327D01*
X165037186Y-66699331D01*
X158267581Y-73468936D01*
X158206258Y-73502421D01*
X158136566Y-73497437D01*
X158080633Y-73455565D01*
X158056216Y-73390101D01*
X158055900Y-73381255D01*
X158055900Y-67284586D01*
X158075585Y-67217547D01*
X158092214Y-67196910D01*
X162994208Y-62294915D01*
X163006387Y-62284234D01*
X163028821Y-62267021D01*
X163046025Y-62244598D01*
X163056711Y-62232412D01*
X163076710Y-62212415D01*
X163090848Y-62187926D01*
X163099850Y-62174453D01*
X163117061Y-62152025D01*
X163127879Y-62125906D01*
X163135048Y-62111368D01*
X163149184Y-62086885D01*
X163156499Y-62059579D01*
X163161710Y-62044227D01*
X163172530Y-62018109D01*
X163176219Y-61990084D01*
X163179383Y-61974179D01*
X163182353Y-61963095D01*
X163186700Y-61946874D01*
X163186700Y-61918606D01*
X163187761Y-61902420D01*
X163191450Y-61874400D01*
X163191450Y-61874398D01*
X163187761Y-61846378D01*
X163186700Y-61830193D01*
X163186700Y-61801928D01*
X163186700Y-61801926D01*
X163182353Y-61785704D01*
X189887700Y-61785704D01*
X189887700Y-61963095D01*
X189922303Y-62137058D01*
X189922306Y-62137067D01*
X189990183Y-62300940D01*
X189990190Y-62300953D01*
X190088735Y-62448434D01*
X190088738Y-62448438D01*
X190214161Y-62573861D01*
X190214165Y-62573864D01*
X190361646Y-62672409D01*
X190361659Y-62672416D01*
X190484563Y-62723323D01*
X190525534Y-62740294D01*
X190525536Y-62740294D01*
X190525541Y-62740296D01*
X190699504Y-62774899D01*
X190699507Y-62774900D01*
X190699509Y-62774900D01*
X190876893Y-62774900D01*
X190876894Y-62774899D01*
X190934882Y-62763364D01*
X191050858Y-62740296D01*
X191050861Y-62740294D01*
X191050866Y-62740294D01*
X191214747Y-62672413D01*
X191362235Y-62573864D01*
X191487664Y-62448435D01*
X191586213Y-62300947D01*
X191654094Y-62137066D01*
X191656313Y-62125913D01*
X191688699Y-61963095D01*
X191688700Y-61963093D01*
X191688700Y-61785706D01*
X191688699Y-61785704D01*
X191654096Y-61611741D01*
X191654093Y-61611732D01*
X191586216Y-61447859D01*
X191586209Y-61447846D01*
X191487664Y-61300365D01*
X191487661Y-61300361D01*
X191362238Y-61174938D01*
X191362234Y-61174935D01*
X191214753Y-61076390D01*
X191214740Y-61076383D01*
X191050867Y-61008506D01*
X191050858Y-61008503D01*
X190876894Y-60973900D01*
X190876891Y-60973900D01*
X190699509Y-60973900D01*
X190699506Y-60973900D01*
X190525541Y-61008503D01*
X190525532Y-61008506D01*
X190361659Y-61076383D01*
X190361646Y-61076390D01*
X190214165Y-61174935D01*
X190214161Y-61174938D01*
X190088738Y-61300361D01*
X190088735Y-61300365D01*
X189990190Y-61447846D01*
X189990183Y-61447859D01*
X189922306Y-61611732D01*
X189922303Y-61611741D01*
X189887700Y-61785704D01*
X163182353Y-61785704D01*
X163179382Y-61774617D01*
X163176219Y-61758712D01*
X163172530Y-61730691D01*
X163161712Y-61704574D01*
X163156499Y-61689218D01*
X163149184Y-61661915D01*
X163135048Y-61637431D01*
X163127878Y-61622891D01*
X163117061Y-61596775D01*
X163099854Y-61574350D01*
X163090843Y-61560864D01*
X163076710Y-61536385D01*
X163056720Y-61516395D01*
X163046025Y-61504200D01*
X163028820Y-61481778D01*
X163021156Y-61475897D01*
X163006395Y-61464571D01*
X162994209Y-61453884D01*
X162974215Y-61433890D01*
X162974214Y-61433889D01*
X162949735Y-61419756D01*
X162936252Y-61410747D01*
X162913829Y-61393542D01*
X162913828Y-61393541D01*
X162913825Y-61393539D01*
X162887709Y-61382721D01*
X162873177Y-61375556D01*
X162848685Y-61361416D01*
X162848682Y-61361415D01*
X162848680Y-61361414D01*
X162821373Y-61354097D01*
X162806019Y-61348885D01*
X162779909Y-61338070D01*
X162751876Y-61334378D01*
X162735985Y-61331217D01*
X162708674Y-61323900D01*
X162680406Y-61323900D01*
X162664220Y-61322839D01*
X162636201Y-61319150D01*
X162636199Y-61319150D01*
X162608180Y-61322839D01*
X162591994Y-61323900D01*
X162563720Y-61323900D01*
X162536416Y-61331216D01*
X162520518Y-61334378D01*
X162492495Y-61338068D01*
X162492494Y-61338068D01*
X162466368Y-61348889D01*
X162451020Y-61354099D01*
X162435770Y-61358185D01*
X162423715Y-61361416D01*
X162423714Y-61361416D01*
X162423712Y-61361417D01*
X162399228Y-61375551D01*
X162384693Y-61382719D01*
X162358576Y-61393538D01*
X162358575Y-61393538D01*
X162336145Y-61410748D01*
X162322672Y-61419750D01*
X162298186Y-61433888D01*
X162278190Y-61453884D01*
X162266002Y-61464572D01*
X162243580Y-61481778D01*
X162226368Y-61504207D01*
X162215677Y-61516396D01*
X157064891Y-66667183D01*
X157064887Y-66667188D01*
X157046332Y-66699329D01*
X157046331Y-66699331D01*
X156992417Y-66792712D01*
X156992416Y-66792713D01*
X156973658Y-66862720D01*
X156954900Y-66932725D01*
X156954900Y-66932727D01*
X156954900Y-73279013D01*
X156935215Y-73346052D01*
X156918581Y-73366694D01*
X155510294Y-74774981D01*
X155448971Y-74808466D01*
X155422613Y-74811300D01*
X145459206Y-74811300D01*
X145443020Y-74810239D01*
X145415001Y-74806550D01*
X145414999Y-74806550D01*
X145386980Y-74810239D01*
X145370794Y-74811300D01*
X145342521Y-74811300D01*
X145315212Y-74818617D01*
X145299314Y-74821779D01*
X145271292Y-74825469D01*
X145271291Y-74825469D01*
X145245172Y-74836288D01*
X145229825Y-74841497D01*
X145210230Y-74846748D01*
X145202514Y-74848816D01*
X145178032Y-74862950D01*
X145163491Y-74870120D01*
X145137379Y-74880936D01*
X145137375Y-74880938D01*
X145114942Y-74898151D01*
X145101464Y-74907156D01*
X145076985Y-74921290D01*
X145056990Y-74941284D01*
X145044802Y-74951972D01*
X145022379Y-74969179D01*
X145005172Y-74991602D01*
X144994484Y-75003790D01*
X144974490Y-75023785D01*
X144960356Y-75048264D01*
X144951351Y-75061742D01*
X144934138Y-75084175D01*
X144934136Y-75084179D01*
X144923320Y-75110291D01*
X144916150Y-75124832D01*
X144902016Y-75149314D01*
X144902016Y-75149315D01*
X144894697Y-75176625D01*
X144889488Y-75191972D01*
X144878669Y-75218091D01*
X144878669Y-75218092D01*
X144874979Y-75246114D01*
X144871817Y-75262012D01*
X144864500Y-75289321D01*
X144864500Y-75317593D01*
X144863439Y-75333778D01*
X144859750Y-75361798D01*
X144859750Y-75361800D01*
X144863439Y-75389820D01*
X144864500Y-75406006D01*
X144864500Y-75434276D01*
X144871817Y-75461586D01*
X144874979Y-75477479D01*
X144876090Y-75485912D01*
X144865330Y-75554948D01*
X144818955Y-75607208D01*
X144751688Y-75626099D01*
X144684885Y-75605624D01*
X144665471Y-75589789D01*
X144531819Y-75456137D01*
X144498334Y-75394814D01*
X144495500Y-75368456D01*
X144495500Y-70734657D01*
X144515185Y-70667618D01*
X144567989Y-70621863D01*
X144637147Y-70611919D01*
X144700703Y-70640944D01*
X144707181Y-70646976D01*
X146563817Y-72503612D01*
X146629074Y-72568869D01*
X146629077Y-72568870D01*
X146629080Y-72568873D01*
X146708992Y-72615011D01*
X146708993Y-72615011D01*
X146708998Y-72615014D01*
X146798142Y-72638900D01*
X153971308Y-72638900D01*
X154038347Y-72658585D01*
X154057812Y-72676486D01*
X154059028Y-72675271D01*
X154064772Y-72681015D01*
X154064777Y-72681019D01*
X154064779Y-72681021D01*
X154179775Y-72769261D01*
X154179776Y-72769261D01*
X154179777Y-72769262D01*
X154212901Y-72782982D01*
X154313691Y-72824730D01*
X154433793Y-72840542D01*
X154457399Y-72843650D01*
X154457400Y-72843650D01*
X154457401Y-72843650D01*
X154481007Y-72840542D01*
X154601109Y-72824730D01*
X154735025Y-72769261D01*
X154850021Y-72681021D01*
X154938261Y-72566025D01*
X154993730Y-72432109D01*
X155012650Y-72288400D01*
X154993730Y-72144691D01*
X154949260Y-72037329D01*
X154938262Y-72010777D01*
X154938261Y-72010776D01*
X154938261Y-72010775D01*
X154850021Y-71895779D01*
X154735025Y-71807539D01*
X154735024Y-71807538D01*
X154735022Y-71807537D01*
X154696692Y-71791661D01*
X154642288Y-71747821D01*
X154620223Y-71681527D01*
X154637502Y-71613827D01*
X154688639Y-71566216D01*
X154696692Y-71562539D01*
X154713386Y-71555623D01*
X154735025Y-71546661D01*
X154850021Y-71458421D01*
X154938261Y-71343425D01*
X154993730Y-71209509D01*
X155012650Y-71065800D01*
X154993730Y-70922091D01*
X154956750Y-70832813D01*
X154938262Y-70788177D01*
X154938261Y-70788176D01*
X154938261Y-70788175D01*
X154850021Y-70673179D01*
X154735025Y-70584939D01*
X154723970Y-70580360D01*
X154669570Y-70536521D01*
X154647504Y-70470227D01*
X154664783Y-70402528D01*
X154715919Y-70354917D01*
X154723953Y-70351246D01*
X154735025Y-70346661D01*
X154850021Y-70258421D01*
X154938261Y-70143425D01*
X154993730Y-70009509D01*
X155012650Y-69865800D01*
X154993730Y-69722091D01*
X154947000Y-69609273D01*
X154938262Y-69588177D01*
X154938261Y-69588176D01*
X154938261Y-69588175D01*
X154850021Y-69473179D01*
X154735025Y-69384939D01*
X154735024Y-69384938D01*
X154735022Y-69384937D01*
X154601112Y-69329471D01*
X154601110Y-69329470D01*
X154601109Y-69329470D01*
X154582632Y-69327037D01*
X154450723Y-69309670D01*
X154386827Y-69281403D01*
X154348357Y-69223078D01*
X154343971Y-69202917D01*
X154342002Y-69187961D01*
X154333330Y-69122091D01*
X154277861Y-68988175D01*
X154189621Y-68873179D01*
X154074625Y-68784939D01*
X154074624Y-68784938D01*
X154074622Y-68784937D01*
X153940712Y-68729471D01*
X153940710Y-68729470D01*
X153940709Y-68729470D01*
X153868854Y-68720010D01*
X153797001Y-68710550D01*
X153796999Y-68710550D01*
X153653291Y-68729470D01*
X153653287Y-68729471D01*
X153519377Y-68784937D01*
X153404372Y-68873184D01*
X153398628Y-68878929D01*
X153396111Y-68876412D01*
X153352817Y-68908003D01*
X153310908Y-68915300D01*
X146280974Y-68915300D01*
X146213935Y-68895615D01*
X146193293Y-68878981D01*
X144325043Y-67010731D01*
X144325038Y-67010727D01*
X144245120Y-66964587D01*
X144245119Y-66964586D01*
X144245118Y-66964586D01*
X144155974Y-66940700D01*
X125942656Y-66940700D01*
X125853512Y-66964586D01*
X125853509Y-66964587D01*
X125773591Y-67010727D01*
X125773586Y-67010731D01*
X123525877Y-69258439D01*
X123464554Y-69291924D01*
X123438128Y-69293208D01*
X123438128Y-69294750D01*
X123430000Y-69294750D01*
X123286291Y-69313670D01*
X123286287Y-69313671D01*
X123152377Y-69369137D01*
X123037379Y-69457379D01*
X122949137Y-69572377D01*
X122893671Y-69706287D01*
X122893670Y-69706291D01*
X122883016Y-69787218D01*
X122874750Y-69850000D01*
X114698100Y-69850000D01*
X114698100Y-63093586D01*
X114717785Y-63026547D01*
X114734419Y-63005905D01*
X120232105Y-57508219D01*
X120293428Y-57474734D01*
X120319786Y-57471900D01*
X152180300Y-57471900D01*
X152247339Y-57491585D01*
X152293094Y-57544389D01*
X152304300Y-57595900D01*
X152304300Y-57919353D01*
X152284615Y-57986392D01*
X152278676Y-57994839D01*
X152223939Y-58066174D01*
X152223938Y-58066176D01*
X152168471Y-58200087D01*
X152168470Y-58200091D01*
X152149550Y-58343799D01*
X152149550Y-58343800D01*
X152168470Y-58487508D01*
X152168471Y-58487512D01*
X152223937Y-58621422D01*
X152223938Y-58621424D01*
X152223939Y-58621425D01*
X152312179Y-58736421D01*
X152427175Y-58824661D01*
X152561091Y-58880130D01*
X152688080Y-58896848D01*
X152704799Y-58899050D01*
X152704800Y-58899050D01*
X152704801Y-58899050D01*
X152719777Y-58897078D01*
X152848509Y-58880130D01*
X152982425Y-58824661D01*
X153097421Y-58736421D01*
X153185661Y-58621425D01*
X153241130Y-58487509D01*
X153260050Y-58343800D01*
X153241130Y-58200091D01*
X153185661Y-58066175D01*
X153177330Y-58055318D01*
X153130924Y-57994839D01*
X153105730Y-57929669D01*
X153105300Y-57919353D01*
X153105300Y-57595900D01*
X153124985Y-57528861D01*
X153177789Y-57483106D01*
X153229300Y-57471900D01*
X188899813Y-57471900D01*
X188966852Y-57491585D01*
X188987494Y-57508219D01*
X193316781Y-61837505D01*
X193350266Y-61898828D01*
X193353100Y-61925186D01*
X193353100Y-76658700D01*
X193333415Y-76725739D01*
X193280611Y-76771494D01*
X193229100Y-76782700D01*
X192452797Y-76782700D01*
X192398487Y-76788538D01*
X192346981Y-76799743D01*
X192346972Y-76799746D01*
X192320607Y-76806979D01*
X192320596Y-76806983D01*
X192233981Y-76856305D01*
X192233973Y-76856311D01*
X192181171Y-76902063D01*
X192149543Y-76934840D01*
X192103334Y-77023177D01*
X192103333Y-77023177D01*
X192083651Y-77090209D01*
X192083648Y-77090221D01*
X192073300Y-77162198D01*
X192073300Y-80952802D01*
X192079138Y-81007112D01*
X192090343Y-81058618D01*
X192090346Y-81058627D01*
X192097579Y-81084992D01*
X192097583Y-81085003D01*
X192146905Y-81171618D01*
X192146910Y-81171625D01*
X192146912Y-81171628D01*
X192173380Y-81202174D01*
X192192663Y-81224428D01*
X192192666Y-81224431D01*
X192192667Y-81224432D01*
X192225441Y-81256057D01*
X192313776Y-81302265D01*
X192313777Y-81302265D01*
X192313777Y-81302266D01*
X192358018Y-81315256D01*
X192380815Y-81321950D01*
X192380819Y-81321950D01*
X192380821Y-81321951D01*
X192392452Y-81323623D01*
X192452800Y-81332300D01*
X192452801Y-81332300D01*
X196548200Y-81332300D01*
X196602513Y-81326461D01*
X196654024Y-81315255D01*
X196680398Y-81308019D01*
X196753297Y-81266507D01*
X196767018Y-81258694D01*
X196767019Y-81258692D01*
X196767028Y-81258688D01*
X196819832Y-81212933D01*
X196851457Y-81180159D01*
X196897665Y-81091824D01*
X196898665Y-81088421D01*
X196907415Y-81058618D01*
X196917350Y-81024785D01*
X196927700Y-80952800D01*
X196927700Y-79296772D01*
X196947385Y-79229733D01*
X197000189Y-79183978D01*
X197069347Y-79174034D01*
X197124228Y-79196196D01*
X197127637Y-79198654D01*
X197127638Y-79198655D01*
X197127641Y-79198657D01*
X197215976Y-79244865D01*
X197215977Y-79244865D01*
X197215977Y-79244866D01*
X197260218Y-79257856D01*
X197283015Y-79264550D01*
X197283019Y-79264550D01*
X197283021Y-79264551D01*
X197294652Y-79266223D01*
X197355000Y-79274900D01*
X205088500Y-79274900D01*
X205155539Y-79294585D01*
X205201294Y-79347389D01*
X205212500Y-79398900D01*
X205212500Y-81215145D01*
X205192815Y-81282184D01*
X205176181Y-81302826D01*
X203006626Y-83472381D01*
X202945303Y-83505866D01*
X202918945Y-83508700D01*
X192067446Y-83508700D01*
X192000407Y-83489015D01*
X191991960Y-83483076D01*
X191920625Y-83428339D01*
X191920623Y-83428338D01*
X191786712Y-83372871D01*
X191786710Y-83372870D01*
X191786709Y-83372870D01*
X191714854Y-83363410D01*
X191643001Y-83353950D01*
X191642999Y-83353950D01*
X191499291Y-83372870D01*
X191499287Y-83372871D01*
X191365377Y-83428337D01*
X191250379Y-83516579D01*
X191162137Y-83631577D01*
X191106671Y-83765487D01*
X191106670Y-83765491D01*
X191087750Y-83909199D01*
X191087750Y-83909200D01*
X191106670Y-84052908D01*
X191106671Y-84052912D01*
X191162137Y-84186822D01*
X191162138Y-84186824D01*
X191162139Y-84186825D01*
X191250379Y-84301821D01*
X191365375Y-84390061D01*
X191499291Y-84445530D01*
X191626280Y-84462248D01*
X191642999Y-84464450D01*
X191643000Y-84464450D01*
X191643001Y-84464450D01*
X191657977Y-84462478D01*
X191786709Y-84445530D01*
X191920625Y-84390061D01*
X191967280Y-84354260D01*
X191991960Y-84335324D01*
X192057129Y-84310130D01*
X192067446Y-84309700D01*
X203188925Y-84309700D01*
X203188927Y-84309700D01*
X203290788Y-84282407D01*
X203382113Y-84229680D01*
X205933480Y-81678313D01*
X205986207Y-81586988D01*
X206013500Y-81485127D01*
X206013500Y-81379673D01*
X206013500Y-79398900D01*
X206033185Y-79331861D01*
X206085989Y-79286106D01*
X206137500Y-79274900D01*
X208257600Y-79274900D01*
X208311913Y-79269061D01*
X208363424Y-79257855D01*
X208389798Y-79250619D01*
X208426476Y-79229733D01*
X208476418Y-79201294D01*
X208476419Y-79201292D01*
X208476428Y-79201288D01*
X208529232Y-79155533D01*
X208560857Y-79122759D01*
X208607065Y-79034424D01*
X208609070Y-79027598D01*
X208616814Y-79001224D01*
X208626750Y-78967385D01*
X208637100Y-78895400D01*
X208637100Y-72336200D01*
X208631261Y-72281887D01*
X208620055Y-72230376D01*
X208612819Y-72204002D01*
X208598253Y-72178422D01*
X208563494Y-72117381D01*
X208563490Y-72117376D01*
X208563488Y-72117372D01*
X208527697Y-72076067D01*
X208517736Y-72064571D01*
X208484959Y-72032943D01*
X208396622Y-71986734D01*
X208396622Y-71986733D01*
X208329590Y-71967051D01*
X208329578Y-71967048D01*
X208257601Y-71956700D01*
X208257600Y-71956700D01*
X197355000Y-71956700D01*
X197354997Y-71956700D01*
X197300687Y-71962538D01*
X197249181Y-71973743D01*
X197249172Y-71973746D01*
X197222807Y-71980979D01*
X197222796Y-71980983D01*
X197136181Y-72030305D01*
X197136173Y-72030311D01*
X197083371Y-72076063D01*
X197051743Y-72108840D01*
X197005534Y-72197177D01*
X197005533Y-72197177D01*
X196985851Y-72264209D01*
X196985848Y-72264221D01*
X196975500Y-72336198D01*
X196975500Y-76760827D01*
X196955815Y-76827866D01*
X196903011Y-76873621D01*
X196833853Y-76883565D01*
X196778978Y-76861408D01*
X196775562Y-76858945D01*
X196775559Y-76858943D01*
X196687224Y-76812735D01*
X196687223Y-76812734D01*
X196687222Y-76812734D01*
X196687222Y-76812733D01*
X196620190Y-76793051D01*
X196620178Y-76793048D01*
X196548201Y-76782700D01*
X196548200Y-76782700D01*
X194578100Y-76782700D01*
X194511061Y-76763015D01*
X194465306Y-76710211D01*
X194454100Y-76658700D01*
X194454100Y-61798015D01*
X197462700Y-61798015D01*
X197462700Y-61950784D01*
X197492500Y-62100597D01*
X197492502Y-62100605D01*
X197550959Y-62241734D01*
X197550964Y-62241743D01*
X197635829Y-62368751D01*
X197635832Y-62368755D01*
X197743844Y-62476767D01*
X197743848Y-62476770D01*
X197870856Y-62561635D01*
X197870862Y-62561638D01*
X197870863Y-62561639D01*
X198011995Y-62620098D01*
X198161815Y-62649899D01*
X198161819Y-62649900D01*
X198161820Y-62649900D01*
X198314581Y-62649900D01*
X198314582Y-62649899D01*
X198464405Y-62620098D01*
X198605537Y-62561639D01*
X198732552Y-62476770D01*
X198840570Y-62368752D01*
X198925439Y-62241737D01*
X198983898Y-62100605D01*
X199013700Y-61950780D01*
X199013700Y-61798020D01*
X198983898Y-61648195D01*
X198929305Y-61516396D01*
X198925440Y-61507065D01*
X198925435Y-61507056D01*
X198840570Y-61380048D01*
X198840567Y-61380044D01*
X198732555Y-61272032D01*
X198732551Y-61272029D01*
X198605543Y-61187164D01*
X198605534Y-61187159D01*
X198464405Y-61128702D01*
X198464397Y-61128700D01*
X198314584Y-61098900D01*
X198314580Y-61098900D01*
X198161820Y-61098900D01*
X198161815Y-61098900D01*
X198012002Y-61128700D01*
X198011994Y-61128702D01*
X197870865Y-61187159D01*
X197870856Y-61187164D01*
X197743848Y-61272029D01*
X197743844Y-61272032D01*
X197635832Y-61380044D01*
X197635829Y-61380048D01*
X197550964Y-61507056D01*
X197550959Y-61507065D01*
X197492502Y-61648194D01*
X197492500Y-61648202D01*
X197462700Y-61798015D01*
X194454100Y-61798015D01*
X194454100Y-61573327D01*
X194454100Y-61573325D01*
X194416584Y-61433315D01*
X194408752Y-61419750D01*
X194344111Y-61307788D01*
X194344106Y-61307782D01*
X194241615Y-61205291D01*
X189517216Y-56480891D01*
X189517215Y-56480890D01*
X189391685Y-56408416D01*
X189391686Y-56408416D01*
X189356682Y-56399037D01*
X189251675Y-56370900D01*
X152675675Y-56370900D01*
X119967925Y-56370900D01*
X119883919Y-56393409D01*
X119827913Y-56408416D01*
X119827912Y-56408417D01*
X119702389Y-56480887D01*
X119702384Y-56480891D01*
X113707091Y-62476183D01*
X113707089Y-62476185D01*
X113672411Y-62536250D01*
X113657757Y-62561635D01*
X113657755Y-62561638D01*
X113657753Y-62561640D01*
X113634618Y-62601709D01*
X113634617Y-62601710D01*
X113629690Y-62620098D01*
X113597100Y-62741725D01*
X113597100Y-62741727D01*
X113597100Y-67510234D01*
X113577415Y-67577273D01*
X113524611Y-67623028D01*
X113455453Y-67632972D01*
X113416761Y-67619581D01*
X113416734Y-67619649D01*
X113415605Y-67619181D01*
X113411105Y-67617624D01*
X113409225Y-67616538D01*
X113275312Y-67561071D01*
X113275310Y-67561070D01*
X113275309Y-67561070D01*
X113203454Y-67551610D01*
X113131601Y-67542150D01*
X113131599Y-67542150D01*
X112987891Y-67561070D01*
X112987887Y-67561071D01*
X112853977Y-67616537D01*
X112738979Y-67704779D01*
X112650737Y-67819777D01*
X112595271Y-67953687D01*
X112595270Y-67953691D01*
X112576350Y-68097400D01*
X112576350Y-68105528D01*
X112573056Y-68105528D01*
X112563792Y-68159988D01*
X112540039Y-68193277D01*
X111911331Y-68821986D01*
X111911327Y-68821991D01*
X111884106Y-68869141D01*
X111884106Y-68869142D01*
X111865186Y-68901910D01*
X111841300Y-68991056D01*
X111841300Y-71648755D01*
X111821615Y-71715794D01*
X111768811Y-71761549D01*
X111699653Y-71771493D01*
X111685209Y-71768530D01*
X111653748Y-71760100D01*
X111653744Y-71760100D01*
X107181344Y-71760100D01*
X107114305Y-71740415D01*
X107093663Y-71723781D01*
X106496219Y-71126337D01*
X106462734Y-71065014D01*
X106459900Y-71038656D01*
X106459900Y-70844092D01*
X106479585Y-70777053D01*
X106497514Y-70757609D01*
X106496274Y-70756369D01*
X106502019Y-70750623D01*
X106502022Y-70750620D01*
X106561024Y-70673726D01*
X106617452Y-70632524D01*
X106687198Y-70628369D01*
X106748118Y-70662581D01*
X106757767Y-70673716D01*
X106816779Y-70750621D01*
X106931775Y-70838861D01*
X106931776Y-70838861D01*
X106931777Y-70838862D01*
X106944404Y-70844092D01*
X107065691Y-70894330D01*
X107188117Y-70910448D01*
X107209399Y-70913250D01*
X107209400Y-70913250D01*
X107209401Y-70913250D01*
X107224377Y-70911278D01*
X107353109Y-70894330D01*
X107487025Y-70838861D01*
X107602021Y-70750621D01*
X107690261Y-70635625D01*
X107745730Y-70501709D01*
X107764650Y-70358000D01*
X107745730Y-70214291D01*
X107704933Y-70115797D01*
X107690262Y-70080377D01*
X107690261Y-70080376D01*
X107690261Y-70080375D01*
X107602021Y-69965379D01*
X107487025Y-69877139D01*
X107487024Y-69877138D01*
X107487022Y-69877137D01*
X107353112Y-69821671D01*
X107353110Y-69821670D01*
X107353109Y-69821670D01*
X107281254Y-69812210D01*
X107209401Y-69802750D01*
X107209399Y-69802750D01*
X107065691Y-69821670D01*
X107065687Y-69821671D01*
X106931777Y-69877137D01*
X106926219Y-69881402D01*
X106816779Y-69965379D01*
X106816778Y-69965380D01*
X106816777Y-69965381D01*
X106757775Y-70042273D01*
X106701347Y-70083476D01*
X106631601Y-70087630D01*
X106570681Y-70053417D01*
X106561025Y-70042273D01*
X106517607Y-69985691D01*
X106502021Y-69965379D01*
X106387025Y-69877139D01*
X106387024Y-69877138D01*
X106387022Y-69877137D01*
X106253112Y-69821671D01*
X106253110Y-69821670D01*
X106253109Y-69821670D01*
X106181254Y-69812210D01*
X106109401Y-69802750D01*
X106109399Y-69802750D01*
X105965691Y-69821670D01*
X105965687Y-69821671D01*
X105831777Y-69877137D01*
X105826219Y-69881402D01*
X105716779Y-69965379D01*
X105716778Y-69965380D01*
X105716777Y-69965381D01*
X105657775Y-70042273D01*
X105601347Y-70083476D01*
X105531601Y-70087630D01*
X105470681Y-70053417D01*
X105461025Y-70042273D01*
X105417607Y-69985691D01*
X105402021Y-69965379D01*
X105287025Y-69877139D01*
X105287024Y-69877138D01*
X105287022Y-69877137D01*
X105153112Y-69821671D01*
X105153110Y-69821670D01*
X105153109Y-69821670D01*
X105081254Y-69812210D01*
X105009401Y-69802750D01*
X105009399Y-69802750D01*
X104865691Y-69821670D01*
X104865687Y-69821671D01*
X104731777Y-69877137D01*
X104616779Y-69965379D01*
X104528537Y-70080377D01*
X104473071Y-70214287D01*
X104473070Y-70214291D01*
X104454150Y-70358000D01*
X103349050Y-70358000D01*
X103330130Y-70214291D01*
X103289333Y-70115797D01*
X103274662Y-70080377D01*
X103274661Y-70080376D01*
X103274661Y-70080375D01*
X103186421Y-69965379D01*
X103071425Y-69877139D01*
X103071424Y-69877138D01*
X103071422Y-69877137D01*
X102937512Y-69821671D01*
X102937510Y-69821670D01*
X102937509Y-69821670D01*
X102865654Y-69812210D01*
X102793801Y-69802750D01*
X102793799Y-69802750D01*
X102650091Y-69821670D01*
X102650087Y-69821671D01*
X102516177Y-69877137D01*
X102401179Y-69965379D01*
X102312937Y-70080377D01*
X102257471Y-70214287D01*
X102257470Y-70214291D01*
X102238550Y-70358000D01*
X102252742Y-70465800D01*
X102257470Y-70501708D01*
X102257471Y-70501712D01*
X102312938Y-70635623D01*
X102312939Y-70635625D01*
X102401180Y-70750623D01*
X102406926Y-70756369D01*
X102404374Y-70758920D01*
X102435891Y-70801873D01*
X102443300Y-70844092D01*
X102443300Y-80471542D01*
X102423615Y-80538581D01*
X102370811Y-80584336D01*
X102301653Y-80594280D01*
X102238097Y-80565255D01*
X102231619Y-80559223D01*
X100996219Y-79323823D01*
X100962734Y-79262500D01*
X100959900Y-79236142D01*
X100959900Y-70844092D01*
X100979585Y-70777053D01*
X100997514Y-70757609D01*
X100996274Y-70756369D01*
X101002019Y-70750623D01*
X101002021Y-70750621D01*
X101090261Y-70635625D01*
X101145730Y-70501709D01*
X101164650Y-70358000D01*
X101145730Y-70214291D01*
X101104933Y-70115797D01*
X101090262Y-70080377D01*
X101090261Y-70080376D01*
X101090261Y-70080375D01*
X101002021Y-69965379D01*
X100887025Y-69877139D01*
X100887024Y-69877138D01*
X100887022Y-69877137D01*
X100753112Y-69821671D01*
X100753110Y-69821670D01*
X100753109Y-69821670D01*
X100681254Y-69812210D01*
X100609401Y-69802750D01*
X100609399Y-69802750D01*
X100465691Y-69821670D01*
X100465687Y-69821671D01*
X100331777Y-69877137D01*
X100326219Y-69881402D01*
X100216779Y-69965379D01*
X100216778Y-69965380D01*
X100216777Y-69965381D01*
X100157775Y-70042273D01*
X100101347Y-70083476D01*
X100031601Y-70087630D01*
X99970681Y-70053417D01*
X99961025Y-70042273D01*
X99917607Y-69985691D01*
X99902021Y-69965379D01*
X99787025Y-69877139D01*
X99787024Y-69877138D01*
X99787022Y-69877137D01*
X99653112Y-69821671D01*
X99653110Y-69821670D01*
X99653109Y-69821670D01*
X99581254Y-69812210D01*
X99509401Y-69802750D01*
X99509399Y-69802750D01*
X99365691Y-69821670D01*
X99365687Y-69821671D01*
X99231777Y-69877137D01*
X99226219Y-69881402D01*
X99116779Y-69965379D01*
X99116778Y-69965380D01*
X99116777Y-69965381D01*
X99049975Y-70052438D01*
X98993547Y-70093641D01*
X98923801Y-70097795D01*
X98862881Y-70063582D01*
X98853225Y-70052438D01*
X98802007Y-69985691D01*
X98786421Y-69965379D01*
X98671425Y-69877139D01*
X98671424Y-69877138D01*
X98671422Y-69877137D01*
X98537512Y-69821671D01*
X98537510Y-69821670D01*
X98537509Y-69821670D01*
X98465654Y-69812210D01*
X98393801Y-69802750D01*
X98393799Y-69802750D01*
X98250091Y-69821670D01*
X98250087Y-69821671D01*
X98116177Y-69877137D01*
X98001179Y-69965379D01*
X97912937Y-70080377D01*
X97857471Y-70214287D01*
X97857470Y-70214291D01*
X97838550Y-70358000D01*
X94902298Y-70358000D01*
X94902298Y-67809697D01*
X94921983Y-67742658D01*
X94938617Y-67722016D01*
X97021614Y-65639019D01*
X97082937Y-65605534D01*
X97109295Y-65602700D01*
X107899374Y-65602700D01*
X107966413Y-65622385D01*
X107974852Y-65628317D01*
X108078775Y-65708061D01*
X108212691Y-65763530D01*
X108339680Y-65780248D01*
X108356399Y-65782450D01*
X108356400Y-65782450D01*
X108356401Y-65782450D01*
X108371377Y-65780478D01*
X108500109Y-65763530D01*
X108634025Y-65708061D01*
X108749021Y-65619821D01*
X108837261Y-65504825D01*
X108892730Y-65370909D01*
X108911650Y-65227200D01*
X108892730Y-65083491D01*
X108837261Y-64949575D01*
X108749021Y-64834579D01*
X108749019Y-64834578D01*
X108749019Y-64834577D01*
X108727823Y-64818313D01*
X108710310Y-64804875D01*
X108669108Y-64748448D01*
X108664953Y-64678702D01*
X108699165Y-64617782D01*
X108710310Y-64608125D01*
X108749021Y-64578421D01*
X108837261Y-64463425D01*
X108892730Y-64329509D01*
X108911650Y-64185800D01*
X108892730Y-64042091D01*
X108837261Y-63908175D01*
X108749021Y-63793179D01*
X108634025Y-63704939D01*
X108634024Y-63704938D01*
X108634022Y-63704937D01*
X108500112Y-63649471D01*
X108500110Y-63649470D01*
X108500109Y-63649470D01*
X108428254Y-63640010D01*
X108356401Y-63630550D01*
X108356399Y-63630550D01*
X108212691Y-63649470D01*
X108212687Y-63649471D01*
X108078777Y-63704937D01*
X108031733Y-63741035D01*
X107974859Y-63784676D01*
X107909691Y-63809870D01*
X107899374Y-63810300D01*
X97257964Y-63810300D01*
X97210212Y-63823095D01*
X97210211Y-63823094D01*
X97162463Y-63835889D01*
X97162462Y-63835889D01*
X97076835Y-63885327D01*
X93776324Y-67185838D01*
X93726889Y-67271461D01*
X93726889Y-67271462D01*
X93726888Y-67271464D01*
X93701298Y-67366967D01*
X93701298Y-67366969D01*
X93701298Y-72416503D01*
X93681613Y-72483542D01*
X93664979Y-72504184D01*
X92336782Y-73832381D01*
X92275459Y-73865866D01*
X92249101Y-73868700D01*
X91389026Y-73868700D01*
X91321987Y-73849015D01*
X91313547Y-73843082D01*
X91209625Y-73763339D01*
X91209624Y-73763338D01*
X91209622Y-73763337D01*
X91075712Y-73707871D01*
X91075710Y-73707870D01*
X91075709Y-73707870D01*
X91003854Y-73698410D01*
X90932001Y-73688950D01*
X90931999Y-73688950D01*
X90788291Y-73707870D01*
X90788287Y-73707871D01*
X90654377Y-73763337D01*
X90539379Y-73851579D01*
X90451137Y-73966577D01*
X90395671Y-74100487D01*
X90395670Y-74100491D01*
X90376750Y-74244200D01*
X90393236Y-74369425D01*
X90395670Y-74387908D01*
X90395671Y-74387912D01*
X90451137Y-74521822D01*
X90451138Y-74521824D01*
X90451139Y-74521825D01*
X90539379Y-74636821D01*
X90654375Y-74725061D01*
X90788291Y-74780530D01*
X90915280Y-74797248D01*
X90931999Y-74799450D01*
X90932000Y-74799450D01*
X90932001Y-74799450D01*
X90946977Y-74797478D01*
X91075709Y-74780530D01*
X91209625Y-74725061D01*
X91313540Y-74645323D01*
X91378709Y-74620130D01*
X91389026Y-74619700D01*
X92505435Y-74619700D01*
X92505436Y-74619700D01*
X92553186Y-74606905D01*
X92600938Y-74594110D01*
X92686562Y-74544675D01*
X92756475Y-74474762D01*
X93939617Y-73291620D01*
X94000940Y-73258135D01*
X94070632Y-73263119D01*
X94126565Y-73304991D01*
X94150982Y-73370455D01*
X94151298Y-73379301D01*
X94151298Y-76614703D01*
X94131613Y-76681742D01*
X94114979Y-76702384D01*
X92616182Y-78201181D01*
X92554859Y-78234666D01*
X92528501Y-78237500D01*
X91338226Y-78237500D01*
X91271187Y-78217815D01*
X91262747Y-78211882D01*
X91158825Y-78132139D01*
X91158824Y-78132138D01*
X91158822Y-78132137D01*
X91024912Y-78076671D01*
X91024910Y-78076670D01*
X91024909Y-78076670D01*
X90953054Y-78067210D01*
X90881201Y-78057750D01*
X90881199Y-78057750D01*
X90737491Y-78076670D01*
X90737487Y-78076671D01*
X90603577Y-78132137D01*
X90488579Y-78220379D01*
X90400337Y-78335377D01*
X90344871Y-78469287D01*
X90344870Y-78469291D01*
X90325950Y-78612999D01*
X76524900Y-78612999D01*
X76524900Y-61961475D01*
X84443534Y-61959594D01*
X84457064Y-61946064D01*
X84458967Y-61936497D01*
X84458032Y-58001720D01*
X96793299Y-58001720D01*
X96822140Y-58146707D01*
X96822143Y-58146717D01*
X96878712Y-58283288D01*
X96878719Y-58283301D01*
X96960848Y-58406215D01*
X96960851Y-58406219D01*
X97065380Y-58510748D01*
X97065384Y-58510751D01*
X97188298Y-58592880D01*
X97188311Y-58592887D01*
X97324882Y-58649456D01*
X97324887Y-58649458D01*
X97324891Y-58649458D01*
X97324892Y-58649459D01*
X97469879Y-58678300D01*
X97469882Y-58678300D01*
X97617720Y-58678300D01*
X97715262Y-58658896D01*
X97762713Y-58649458D01*
X97873248Y-58603673D01*
X97899288Y-58592887D01*
X97899288Y-58592886D01*
X97899295Y-58592884D01*
X98022216Y-58510751D01*
X98126751Y-58406216D01*
X98208884Y-58283295D01*
X98265458Y-58146713D01*
X98281478Y-58066176D01*
X98294300Y-58001720D01*
X104793299Y-58001720D01*
X104822140Y-58146707D01*
X104822143Y-58146717D01*
X104878712Y-58283288D01*
X104878719Y-58283301D01*
X104960848Y-58406215D01*
X104960851Y-58406219D01*
X105065380Y-58510748D01*
X105065384Y-58510751D01*
X105188298Y-58592880D01*
X105188311Y-58592887D01*
X105324882Y-58649456D01*
X105324887Y-58649458D01*
X105324891Y-58649458D01*
X105324892Y-58649459D01*
X105469879Y-58678300D01*
X105469882Y-58678300D01*
X105617720Y-58678300D01*
X105715262Y-58658896D01*
X105762713Y-58649458D01*
X105873248Y-58603673D01*
X105899288Y-58592887D01*
X105899288Y-58592886D01*
X105899295Y-58592884D01*
X106022216Y-58510751D01*
X106126751Y-58406216D01*
X106208884Y-58283295D01*
X106265458Y-58146713D01*
X106281478Y-58066176D01*
X106294300Y-58001720D01*
X106294300Y-57853879D01*
X106265459Y-57708892D01*
X106265458Y-57708891D01*
X106265458Y-57708887D01*
X106236644Y-57639323D01*
X106208887Y-57572311D01*
X106208880Y-57572298D01*
X106126751Y-57449384D01*
X106126748Y-57449380D01*
X106022219Y-57344851D01*
X106022215Y-57344848D01*
X105899301Y-57262719D01*
X105899288Y-57262712D01*
X105762717Y-57206143D01*
X105762707Y-57206140D01*
X105617720Y-57177300D01*
X105617718Y-57177300D01*
X105469882Y-57177300D01*
X105469880Y-57177300D01*
X105324892Y-57206140D01*
X105324882Y-57206143D01*
X105188311Y-57262712D01*
X105188298Y-57262719D01*
X105065384Y-57344848D01*
X105065380Y-57344851D01*
X104960851Y-57449380D01*
X104960848Y-57449384D01*
X104878719Y-57572298D01*
X104878712Y-57572311D01*
X104822143Y-57708882D01*
X104822140Y-57708892D01*
X104793300Y-57853879D01*
X104793300Y-57853882D01*
X104793300Y-58001718D01*
X104793300Y-58001720D01*
X104793299Y-58001720D01*
X98294300Y-58001720D01*
X98294300Y-57853879D01*
X98265459Y-57708892D01*
X98265458Y-57708891D01*
X98265458Y-57708887D01*
X98236644Y-57639323D01*
X98208887Y-57572311D01*
X98208880Y-57572298D01*
X98126751Y-57449384D01*
X98126748Y-57449380D01*
X98022219Y-57344851D01*
X98022215Y-57344848D01*
X97899301Y-57262719D01*
X97899288Y-57262712D01*
X97762717Y-57206143D01*
X97762707Y-57206140D01*
X97617720Y-57177300D01*
X97617718Y-57177300D01*
X97469882Y-57177300D01*
X97469880Y-57177300D01*
X97324892Y-57206140D01*
X97324882Y-57206143D01*
X97188311Y-57262712D01*
X97188298Y-57262719D01*
X97065384Y-57344848D01*
X97065380Y-57344851D01*
X96960851Y-57449380D01*
X96960848Y-57449384D01*
X96878719Y-57572298D01*
X96878712Y-57572311D01*
X96822143Y-57708882D01*
X96822140Y-57708892D01*
X96793300Y-57853879D01*
X96793300Y-57853882D01*
X96793300Y-58001718D01*
X96793300Y-58001720D01*
X96793299Y-58001720D01*
X84458032Y-58001720D01*
X84457085Y-54013900D01*
X205824400Y-54013900D01*
X205824400Y-61913400D01*
G37*
%TD.AperFunction*%
%TD*%
%TA.AperFunction,Conductor*%
%TO.N,GND*%
G36*
X84458967Y-61936497D02*
G01*
X84457064Y-61946064D01*
X84443534Y-61959594D01*
X76524900Y-61961475D01*
X76524900Y-57316646D01*
X76525070Y-57310156D01*
X76525948Y-57293409D01*
X76542635Y-56974992D01*
X76543992Y-56962086D01*
X76595986Y-56633809D01*
X76598679Y-56621133D01*
X76684710Y-56300062D01*
X76688714Y-56287740D01*
X76807834Y-55977421D01*
X76813098Y-55965599D01*
X76964011Y-55669414D01*
X76970477Y-55658216D01*
X77151513Y-55379445D01*
X77159127Y-55368964D01*
X77368315Y-55110641D01*
X77376982Y-55101015D01*
X77612015Y-54865982D01*
X77621641Y-54857315D01*
X77879964Y-54648127D01*
X77890445Y-54640513D01*
X78169216Y-54459477D01*
X78180414Y-54453011D01*
X78476599Y-54302098D01*
X78488421Y-54296834D01*
X78798740Y-54177714D01*
X78811062Y-54173710D01*
X79132133Y-54087679D01*
X79144809Y-54084986D01*
X79473088Y-54032991D01*
X79485992Y-54031635D01*
X79821156Y-54014069D01*
X79827646Y-54013900D01*
X84457085Y-54013900D01*
X84458967Y-61936497D01*
G37*
%TD.AperFunction*%
%TD*%
%TA.AperFunction,Conductor*%
%TO.N,GND*%
G36*
X84424400Y-136412900D02*
G01*
X79827646Y-136412900D01*
X79821156Y-136412730D01*
X79485994Y-136395164D01*
X79473086Y-136393807D01*
X79144819Y-136341815D01*
X79132123Y-136339117D01*
X78811073Y-136253092D01*
X78798729Y-136249081D01*
X78488439Y-136129972D01*
X78476582Y-136124693D01*
X78466390Y-136119500D01*
X78180429Y-135973795D01*
X78169202Y-135967313D01*
X77890456Y-135786293D01*
X77879955Y-135778664D01*
X77621650Y-135569492D01*
X77612005Y-135560807D01*
X77376992Y-135325794D01*
X77368307Y-135316149D01*
X77159135Y-135057844D01*
X77151506Y-135047343D01*
X77065683Y-134915187D01*
X76970483Y-134768591D01*
X76964007Y-134757377D01*
X76813101Y-134461207D01*
X76807832Y-134449371D01*
X76688716Y-134139065D01*
X76684707Y-134126726D01*
X76598682Y-133805676D01*
X76595984Y-133792980D01*
X76569798Y-133627650D01*
X76543992Y-133464713D01*
X76542635Y-133451805D01*
X76525070Y-133116643D01*
X76524900Y-133110153D01*
X76524900Y-128513400D01*
X84424400Y-128513400D01*
X84424400Y-136412900D01*
G37*
%TD.AperFunction*%
%TD*%
%TA.AperFunction,Conductor*%
%TO.N,GND*%
G36*
X210427643Y-54014069D02*
G01*
X210762805Y-54031635D01*
X210775713Y-54032992D01*
X211103987Y-54084985D01*
X211116670Y-54087680D01*
X211437732Y-54173709D01*
X211450065Y-54177716D01*
X211760371Y-54296832D01*
X211772207Y-54302101D01*
X212068377Y-54453007D01*
X212079591Y-54459483D01*
X212358343Y-54640506D01*
X212368844Y-54648135D01*
X212627149Y-54857307D01*
X212636794Y-54865992D01*
X212871807Y-55101005D01*
X212880492Y-55110650D01*
X213089664Y-55368955D01*
X213097293Y-55379456D01*
X213278313Y-55658202D01*
X213284799Y-55669435D01*
X213435693Y-55965582D01*
X213440972Y-55977439D01*
X213560081Y-56287729D01*
X213564092Y-56300073D01*
X213650117Y-56621123D01*
X213652815Y-56633819D01*
X213704807Y-56962086D01*
X213706164Y-56974994D01*
X213723730Y-57310156D01*
X213723900Y-57316646D01*
X213723900Y-61913400D01*
X205824400Y-61913400D01*
X205824400Y-54013900D01*
X210397471Y-54013900D01*
X210421154Y-54013900D01*
X210427643Y-54014069D01*
G37*
%TD.AperFunction*%
%TD*%
%TA.AperFunction,Conductor*%
%TO.N,VDD*%
G36*
X196615239Y-77057885D02*
G01*
X196660994Y-77110689D01*
X196672200Y-77162200D01*
X196672200Y-80952800D01*
X196652515Y-81019839D01*
X196599711Y-81065594D01*
X196548200Y-81076800D01*
X192452800Y-81076800D01*
X192385761Y-81057115D01*
X192340006Y-81004311D01*
X192328800Y-80952800D01*
X192328800Y-77162200D01*
X192348485Y-77095161D01*
X192401289Y-77049406D01*
X192452800Y-77038200D01*
X196548200Y-77038200D01*
X196615239Y-77057885D01*
G37*
%TD.AperFunction*%
%TD*%
%TA.AperFunction,Conductor*%
%TO.N,+3V3*%
G36*
X208324639Y-72231885D02*
G01*
X208370394Y-72284689D01*
X208381600Y-72336200D01*
X208381600Y-78895400D01*
X208361915Y-78962439D01*
X208309111Y-79008194D01*
X208257600Y-79019400D01*
X197355000Y-79019400D01*
X197287961Y-78999715D01*
X197242206Y-78946911D01*
X197231000Y-78895400D01*
X197231000Y-72336200D01*
X197250685Y-72269161D01*
X197303489Y-72223406D01*
X197355000Y-72212200D01*
X208257600Y-72212200D01*
X208324639Y-72231885D01*
G37*
%TD.AperFunction*%
%TD*%
M02*
