M48
; DRILL file {KiCad 8.0.4} date 2024-10-13T10:08:58+0700
; FORMAT={-:-/ absolute / inch / decimal}
; #@! TF.CreationDate,2024-10-13T10:08:58+07:00
; #@! TF.GenerationSoftware,Kicad,Pcbnew,8.0.4
; #@! TF.FileFunction,Plated,1,2,PTH
FMAT,2
INCH
; #@! TA.AperFunction,Plated,PTH,ViaDrill
T1C0.0118
; #@! TA.AperFunction,Plated,PTH,ComponentDrill
T2C0.0197
; #@! TA.AperFunction,Plated,PTH,ComponentDrill
T3C0.0236
; #@! TA.AperFunction,Plated,PTH,ComponentDrill
T4C0.1260
%
G90
G05
T1
X3.03Y-2.351
X3.03Y-2.5507
X3.03Y-2.7504
X3.03Y-2.9501
X3.03Y-3.1499
X3.03Y-3.3496
X3.03Y-3.5493
X3.03Y-3.749
X3.03Y-3.9487
X3.03Y-4.1484
X3.03Y-4.3481
X3.03Y-4.5479
X3.03Y-4.7476
X3.03Y-4.9473
X3.03Y-5.147
X3.141Y-4.426
X3.143Y-3.856
X3.178Y-3.409
X3.189Y-3.617
X3.238Y-4.567
X3.238Y-4.703
X3.238Y-4.803
X3.238Y-4.938
X3.239Y-2.143
X3.239Y-5.353
X3.246Y-2.612
X3.291Y-3.342
X3.296Y-3.743
X3.302Y-4.246
X3.382Y-5.196
X3.4371Y-2.143
X3.4371Y-5.353
X3.447Y-3.977
X3.519Y-4.545
X3.524Y-4.947
X3.544Y-2.335
X3.568Y-3.271
X3.578Y-3.095
X3.58Y-2.923
X3.598Y-4.564
X3.617Y-3.004
X3.625Y-4.149
X3.625Y-4.1805
X3.6352Y-2.143
X3.6352Y-5.353
X3.64Y-2.848
X3.6565Y-4.149
X3.6565Y-4.1805
X3.669Y-4.653
X3.669Y-4.703
X3.669Y-4.753
X3.669Y-4.853
X3.669Y-4.903
X3.675Y-4.604
X3.679Y-4.803
X3.72Y-2.3
X3.732Y-3.709
X3.749Y-4.024
X3.788Y-2.718
X3.809Y-3.459
X3.811Y-2.894
X3.8334Y-2.143
X3.8334Y-5.353
X3.839Y-4.175
X3.8738Y-2.77
X3.913Y-4.6294
X3.9177Y-2.77
X3.961Y-2.77
X4.0315Y-2.143
X4.0315Y-5.353
X4.047Y-2.77
X4.055Y-4.777
X4.068Y-4.399
X4.09Y-2.661
X4.09Y-3.486
X4.1342Y-2.77
X4.15Y-4.173
X4.169Y-3.919
X4.172Y-3.043
X4.1775Y-2.77
X4.18Y-2.898
X4.183Y-3.239
X4.19Y-4.095
X4.203Y-4.246
X4.2054Y-4.2074
X4.22Y-3.85
X4.2208Y-2.77
X4.2296Y-2.143
X4.2296Y-5.353
X4.251Y-3.717
X4.266Y-2.527
X4.266Y-2.568
X4.31Y-4.541
X4.335Y-2.672
X4.338Y-3.932
X4.344Y-2.964
X4.373Y-3.005
X4.382Y-2.287
X4.384Y-3.667
X4.385Y-2.867
X4.386Y-3.14
X4.4277Y-2.143
X4.4277Y-5.353
X4.435Y-2.917
X4.435Y-3.417
X4.435Y-3.467
X4.435Y-3.717
X4.44Y-3.517
X4.441Y-3.867
X4.441Y-3.917
X4.454Y-2.681
X4.454Y-2.761
X4.541Y-3.767
X4.555Y-2.742
X4.563Y-3.068
X4.567Y-3.767
X4.568Y-3.189
X4.583Y-5.202
X4.619Y-3.117
X4.6258Y-2.143
X4.6258Y-5.353
X4.629Y-2.666
X4.637Y-3.401
X4.638Y-2.908
X4.7Y-4.056
X4.7114Y-3.812
X4.725Y-3.571
X4.736Y-2.555
X4.736Y-3.649
X4.756Y-3.545
X4.757Y-4.68
X4.766Y-2.877
X4.767Y-3.048
X4.77Y-4.056
X4.777Y-3.65
X4.7813Y-3.479
X4.803Y-3.734
X4.804Y-3.876
X4.821Y-4.144
X4.824Y-2.143
X4.824Y-5.353
X4.8594Y-2.75
X4.864Y-4.144
X4.886Y-2.68
X4.91Y-2.75
X4.925Y-4.144
X4.962Y-2.563
X4.97Y-4.145
X5.001Y-3.369
X5.006Y-2.702
X5.006Y-4.473
X5.0094Y-2.75
X5.015Y-4.145
X5.0221Y-2.143
X5.0221Y-5.353
X5.023Y-2.509
X5.031Y-3.7874
X5.046Y-4.4
X5.049Y-3.513
X5.0594Y-2.75
X5.06Y-4.145
X5.073Y-3.7874
X5.085Y-2.958
X5.088Y-4.331
X5.112Y-4.262
X5.151Y-3.901
X5.2Y-3.764
X5.2094Y-2.749
X5.2202Y-2.143
X5.2202Y-5.353
X5.243Y-3.609
X5.2484Y-4.473
X5.258Y-2.995
X5.296Y-3.286
X5.311Y-2.457
X5.3422Y-4.4
X5.398Y-4.331
X5.409Y-2.856
X5.4093Y-4.262
X5.4183Y-2.143
X5.4183Y-5.353
X5.439Y-3.198
X5.444Y-3.722
X5.48Y-2.612
X5.4907Y-4.473
X5.509Y-2.906
X5.517Y-2.31
X5.548Y-4.708
X5.559Y-2.866
X5.587Y-3.504
X5.597Y-3.905
X5.599Y-3.101
X5.608Y-2.558
X5.61Y-2.866
X5.6164Y-2.143
X5.6164Y-5.353
X5.621Y-3.267
X5.621Y-3.366
X5.622Y-2.917
X5.6384Y-4.4
X5.7067Y-4.262
X5.708Y-4.331
X5.725Y-2.967
X5.7331Y-4.473
X5.737Y-2.618
X5.766Y-2.906
X5.808Y-2.453
X5.8146Y-2.143
X5.8146Y-5.353
X5.834Y-2.7979
X5.923Y-2.888
X5.924Y-3.068
X5.9347Y-4.4
X5.972Y-2.673
X5.9755Y-4.473
X5.979Y-3.356
X6.004Y-4.262
X6.012Y-2.297
X6.0127Y-2.143
X6.0127Y-5.353
X6.018Y-4.331
X6.055Y-2.727
X6.055Y-2.7742
X6.055Y-2.8215
X6.081Y-2.7506
X6.081Y-2.7979
X6.081Y-2.846
X6.091Y-2.906
X6.099Y-2.433
X6.107Y-3.052
X6.131Y-2.687
X6.169Y-3.224
X6.2108Y-2.143
X6.2108Y-5.353
X6.2178Y-4.473
X6.2309Y-4.4
X6.26Y-3.224
X6.261Y-2.302
X6.263Y-3.002
X6.3013Y-4.262
X6.325Y-3.457
X6.326Y-2.869
X6.328Y-4.331
X6.351Y-3.224
X6.403Y-2.436
X6.4089Y-2.143
X6.4089Y-5.353
X6.419Y-2.298
X6.442Y-3.224
X6.444Y-2.495
X6.453Y-3.557
X6.4602Y-4.473
X6.468Y-2.623
X6.475Y-2.72
X6.484Y-3.371
X6.492Y-3.26
X6.497Y-3.055
X6.516Y-2.729
X6.516Y-2.787
X6.516Y-2.845
X6.516Y-2.903
X6.5271Y-4.4
X6.534Y-3.177
X6.5987Y-4.262
X6.607Y-2.143
X6.607Y-5.353
X6.638Y-4.331
X6.648Y-2.729
X6.649Y-2.9
X6.65Y-2.784
X6.65Y-2.841
X6.679Y-3.23
X6.7025Y-4.473
X6.736Y-3.045
X6.8052Y-2.143
X6.8052Y-5.353
X6.8233Y-4.4
X6.825Y-3.043
X6.835Y-4.692
X6.849Y-4.157
X6.851Y-3.249
X6.877Y-4.262
X6.896Y-2.33
X6.909Y-2.555
X6.927Y-3.128
X6.9449Y-4.473
X6.954Y-3.194
X7.0033Y-2.143
X7.0033Y-5.353
X7.004Y-3.353
X7.055Y-3.898
X7.0722Y-4.164
X7.1113Y-4.221
X7.12Y-3.288
X7.1905Y-4.046
X7.2014Y-2.143
X7.2014Y-5.353
X7.2415Y-4.091
X7.256Y-3.536
X7.3087Y-3.927
X7.335Y-2.306
X7.366Y-2.579
X7.3717Y-3.961
X7.3995Y-2.143
X7.3995Y-5.353
X7.422Y-2.815
X7.427Y-3.617
X7.427Y-3.808
X7.481Y-5.091
X7.502Y-3.829
X7.523Y-4.728
X7.545Y-3.3035
X7.594Y-3.535
X7.5976Y-2.143
X7.5976Y-5.353
X7.602Y-3.817
X7.6166Y-3.13
X7.6166Y-3.1694
X7.652Y-4.026
X7.656Y-3.13
X7.656Y-3.1694
X7.6954Y-3.13
X7.6954Y-3.1694
X7.709Y-4.365
X7.778Y-2.758
X7.7958Y-2.143
X7.7958Y-5.353
X7.81Y-3.684
X7.834Y-3.813
X7.859Y-2.435
X7.96Y-3.746
X7.986Y-2.357
X7.988Y-3.546
X7.9939Y-2.143
X7.9939Y-5.353
X8.032Y-4.656
X8.032Y-4.683
X8.032Y-4.851
X8.032Y-4.879
X8.034Y-5.12
X8.0556Y-2.9406
X8.0556Y-2.98
X8.0556Y-3.0194
X8.066Y-3.545
X8.073Y-4.674
X8.075Y-4.937
X8.095Y-2.9406
X8.095Y-2.98
X8.095Y-3.0194
X8.1344Y-2.9406
X8.1344Y-2.98
X8.1344Y-3.0194
X8.142Y-3.544
X8.158Y-3.748
X8.192Y-2.143
X8.192Y-5.353
X8.261Y-4.814
X8.397Y-2.351
X8.397Y-2.5507
X8.397Y-2.7504
X8.397Y-2.9501
X8.397Y-3.1499
X8.397Y-3.3496
X8.397Y-3.5493
X8.397Y-3.749
X8.397Y-3.9487
X8.397Y-4.1484
X8.397Y-4.3481
X8.397Y-4.5479
X8.397Y-4.7476
X8.397Y-4.9473
X8.397Y-5.147
T2
X3.0561Y-2.2643
X3.0561Y-5.2328
X3.0838Y-2.1975
X3.0838Y-2.3311
X3.0838Y-5.166
X3.0838Y-5.2996
X3.1506Y-2.1698
X3.1506Y-2.3588
X3.1506Y-5.1383
X3.1506Y-5.3273
X3.2174Y-2.1975
X3.2174Y-2.3311
X3.2174Y-5.166
X3.2174Y-5.2996
X3.2451Y-2.2643
X3.2451Y-5.2328
X8.1821Y-2.2643
X8.1821Y-5.2328
X8.2097Y-2.1975
X8.2097Y-2.3311
X8.2097Y-5.166
X8.2097Y-5.2996
X8.2766Y-2.1698
X8.2766Y-2.3588
X8.2766Y-5.1383
X8.2766Y-5.3273
X8.3434Y-2.1975
X8.3434Y-2.3311
X8.3434Y-5.166
X8.3434Y-5.2996
X8.371Y-2.2643
X8.371Y-5.2328
T4
X3.1506Y-2.2643
X3.1506Y-5.2328
X8.2766Y-2.2643
X8.2766Y-5.2328
T3
G00X8.1235Y-4.6369
M15
G01X8.1668Y-4.6369
M16
G05
G00X8.1235Y-4.9771
M15
G01X8.1668Y-4.9771
M16
G05
G00X8.2948Y-4.6369
M15
G01X8.3263Y-4.6369
M16
G05
G00X8.2948Y-4.9771
M15
G01X8.3263Y-4.9771
M16
G05
M30
