%TF.GenerationSoftware,KiCad,Pcbnew,8.0.4*%
%TF.CreationDate,2024-10-13T10:09:03+07:00*%
%TF.ProjectId,lcd-standard-5R,6c63642d-7374-4616-9e64-6172642d3552,rev?*%
%TF.SameCoordinates,Original*%
%TF.FileFunction,Soldermask,Bot*%
%TF.FilePolarity,Negative*%
%FSLAX46Y46*%
G04 Gerber Fmt 4.6, Leading zero omitted, Abs format (unit mm)*
G04 Created by KiCad (PCBNEW 8.0.4) date 2024-10-13 10:09:03*
%MOMM*%
%LPD*%
G01*
G04 APERTURE LIST*
%ADD10C,0.800000*%
%ADD11C,6.400000*%
%ADD12C,0.990600*%
%ADD13C,1.100000*%
%ADD14C,0.650000*%
%ADD15O,2.100000X1.000000*%
%ADD16O,1.800000X1.000000*%
%ADD17C,1.050000*%
%ADD18C,1.300000*%
G04 APERTURE END LIST*
D10*
%TO.C,H1*%
X77624400Y-57513400D03*
X78327344Y-55816344D03*
X78327344Y-59210456D03*
X80024400Y-55113400D03*
D11*
X80024400Y-57513400D03*
D10*
X80024400Y-59913400D03*
X81721456Y-55816344D03*
X81721456Y-59210456D03*
X82424400Y-57513400D03*
%TD*%
%TO.C,H2*%
X77624400Y-132913400D03*
X78327344Y-131216344D03*
X78327344Y-134610456D03*
X80024400Y-130513400D03*
D11*
X80024400Y-132913400D03*
D10*
X80024400Y-135313400D03*
X81721456Y-131216344D03*
X81721456Y-134610456D03*
X82424400Y-132913400D03*
%TD*%
%TO.C,H3*%
X207824400Y-57513400D03*
X208527344Y-55816344D03*
X208527344Y-59210456D03*
X210224400Y-55113400D03*
D11*
X210224400Y-57513400D03*
D10*
X210224400Y-59913400D03*
X211921456Y-55816344D03*
X211921456Y-59210456D03*
X212624400Y-57513400D03*
%TD*%
D12*
%TO.C,J7*%
X80086200Y-124536200D03*
X79070200Y-116916200D03*
X81102200Y-116916200D03*
%TD*%
D10*
%TO.C,H4*%
X207824400Y-132913400D03*
X208527344Y-131216344D03*
X208527344Y-134610456D03*
X210224400Y-130513400D03*
D11*
X210224400Y-132913400D03*
D10*
X210224400Y-135313400D03*
X211921456Y-131216344D03*
X211921456Y-134610456D03*
X212624400Y-132913400D03*
%TD*%
D13*
%TO.C,J3*%
X105543800Y-57927800D03*
X97543800Y-57927800D03*
%TD*%
D14*
%TO.C,J4*%
X207407000Y-124987800D03*
X207407000Y-119207800D03*
D15*
X206887000Y-126417800D03*
D16*
X211087000Y-126417800D03*
D15*
X206887000Y-117777800D03*
D16*
X211087000Y-117777800D03*
%TD*%
D17*
%TO.C,BT2*%
X198238200Y-61874400D03*
D18*
X190788200Y-61874400D03*
%TD*%
G36*
X177844639Y-123133485D02*
G01*
X177890394Y-123186289D01*
X177901600Y-123237800D01*
X177901600Y-130330400D01*
X177881915Y-130397439D01*
X177829111Y-130443194D01*
X177777600Y-130454400D01*
X128902000Y-130454400D01*
X128834961Y-130434715D01*
X128789206Y-130381911D01*
X128778000Y-130330400D01*
X128778000Y-123237800D01*
X128797685Y-123170761D01*
X128850489Y-123125006D01*
X128902000Y-123113800D01*
X177777600Y-123113800D01*
X177844639Y-123133485D01*
G37*
G36*
X210425256Y-53913412D02*
G01*
X210609103Y-53915989D01*
X210621249Y-53916757D01*
X210987449Y-53958018D01*
X211001157Y-53960347D01*
X211359585Y-54042155D01*
X211372948Y-54046004D01*
X211719980Y-54167436D01*
X211732827Y-54172758D01*
X212064065Y-54332274D01*
X212076235Y-54339000D01*
X212387536Y-54534604D01*
X212398877Y-54542651D01*
X212686321Y-54771879D01*
X212696689Y-54781145D01*
X212956654Y-55041110D01*
X212965920Y-55051478D01*
X213195148Y-55338922D01*
X213203195Y-55350263D01*
X213398799Y-55661564D01*
X213405525Y-55673734D01*
X213565041Y-56004972D01*
X213570363Y-56017819D01*
X213691795Y-56364851D01*
X213695644Y-56378214D01*
X213777452Y-56736642D01*
X213779781Y-56750350D01*
X213821042Y-57116550D01*
X213821810Y-57128695D01*
X213824388Y-57312543D01*
X213824400Y-57314282D01*
X213824400Y-133112517D01*
X213824388Y-133114256D01*
X213821810Y-133298104D01*
X213821042Y-133310249D01*
X213779781Y-133676449D01*
X213777452Y-133690157D01*
X213695644Y-134048585D01*
X213691795Y-134061948D01*
X213570363Y-134408980D01*
X213565041Y-134421827D01*
X213405525Y-134753065D01*
X213398799Y-134765235D01*
X213203195Y-135076536D01*
X213195148Y-135087877D01*
X212965920Y-135375321D01*
X212956654Y-135385689D01*
X212696689Y-135645654D01*
X212686321Y-135654920D01*
X212398877Y-135884148D01*
X212387536Y-135892195D01*
X212076235Y-136087799D01*
X212064065Y-136094525D01*
X211732827Y-136254041D01*
X211719980Y-136259363D01*
X211372948Y-136380795D01*
X211359585Y-136384644D01*
X211001157Y-136466452D01*
X210987449Y-136468781D01*
X210621249Y-136510042D01*
X210609104Y-136510810D01*
X210425257Y-136513388D01*
X210423518Y-136513400D01*
X79825282Y-136513400D01*
X79823543Y-136513388D01*
X79639695Y-136510810D01*
X79627550Y-136510042D01*
X79261350Y-136468781D01*
X79247642Y-136466452D01*
X78889214Y-136384644D01*
X78875851Y-136380795D01*
X78528819Y-136259363D01*
X78515972Y-136254041D01*
X78184734Y-136094525D01*
X78172564Y-136087799D01*
X77861263Y-135892195D01*
X77849922Y-135884148D01*
X77562478Y-135654920D01*
X77552110Y-135645654D01*
X77292145Y-135385689D01*
X77282879Y-135375321D01*
X77053651Y-135087877D01*
X77045604Y-135076536D01*
X76850000Y-134765235D01*
X76843274Y-134753065D01*
X76683758Y-134421827D01*
X76678436Y-134408980D01*
X76557004Y-134061948D01*
X76553155Y-134048585D01*
X76471347Y-133690157D01*
X76469018Y-133676449D01*
X76427757Y-133310249D01*
X76426989Y-133298103D01*
X76424412Y-133114255D01*
X76424400Y-133112517D01*
X76424400Y-57314282D01*
X76424412Y-57312544D01*
X76426435Y-57168224D01*
X77424400Y-57168224D01*
X77424400Y-133258575D01*
X77459397Y-133546800D01*
X77528883Y-133828717D01*
X77631843Y-134100197D01*
X77631843Y-134100198D01*
X77766769Y-134357277D01*
X77766775Y-134357286D01*
X77931703Y-134596228D01*
X77931708Y-134596234D01*
X78124240Y-134813557D01*
X78124242Y-134813559D01*
X78341565Y-135006091D01*
X78341571Y-135006096D01*
X78580513Y-135171024D01*
X78580522Y-135171030D01*
X78837601Y-135305956D01*
X79109082Y-135408916D01*
X79390999Y-135478402D01*
X79679224Y-135513400D01*
X210569576Y-135513400D01*
X210857800Y-135478402D01*
X211139717Y-135408916D01*
X211411197Y-135305956D01*
X211411198Y-135305956D01*
X211668277Y-135171030D01*
X211668286Y-135171024D01*
X211907228Y-135006096D01*
X211907234Y-135006091D01*
X212124557Y-134813559D01*
X212124559Y-134813557D01*
X212317091Y-134596234D01*
X212317096Y-134596228D01*
X212482024Y-134357286D01*
X212482030Y-134357277D01*
X212616956Y-134100198D01*
X212616956Y-134100197D01*
X212719916Y-133828717D01*
X212789402Y-133546800D01*
X212824400Y-133258575D01*
X212824400Y-57168224D01*
X212789402Y-56879999D01*
X212719916Y-56598082D01*
X212616956Y-56326602D01*
X212616956Y-56326601D01*
X212482030Y-56069522D01*
X212482024Y-56069513D01*
X212317096Y-55830571D01*
X212317091Y-55830565D01*
X212124559Y-55613242D01*
X212124557Y-55613240D01*
X211907234Y-55420708D01*
X211907228Y-55420703D01*
X211668286Y-55255775D01*
X211668277Y-55255769D01*
X211411198Y-55120843D01*
X211139717Y-55017883D01*
X210857800Y-54948397D01*
X210569576Y-54913400D01*
X79679224Y-54913400D01*
X79390999Y-54948397D01*
X79109082Y-55017883D01*
X78837602Y-55120843D01*
X78837601Y-55120843D01*
X78580522Y-55255769D01*
X78580513Y-55255775D01*
X78341571Y-55420703D01*
X78341565Y-55420708D01*
X78124242Y-55613240D01*
X78124240Y-55613242D01*
X77931708Y-55830565D01*
X77931703Y-55830571D01*
X77766775Y-56069513D01*
X77766769Y-56069522D01*
X77631843Y-56326601D01*
X77631843Y-56326602D01*
X77528883Y-56598082D01*
X77459397Y-56879999D01*
X77424400Y-57168224D01*
X76426435Y-57168224D01*
X76426989Y-57128696D01*
X76427757Y-57116550D01*
X76469018Y-56750350D01*
X76471347Y-56736642D01*
X76553155Y-56378214D01*
X76557004Y-56364851D01*
X76678436Y-56017819D01*
X76683758Y-56004972D01*
X76843274Y-55673734D01*
X76850000Y-55661564D01*
X77045604Y-55350263D01*
X77053651Y-55338922D01*
X77282879Y-55051478D01*
X77292145Y-55041110D01*
X77552110Y-54781145D01*
X77562478Y-54771879D01*
X77849922Y-54542651D01*
X77861263Y-54534604D01*
X78172564Y-54339000D01*
X78184734Y-54332274D01*
X78515972Y-54172758D01*
X78528819Y-54167436D01*
X78875851Y-54046004D01*
X78889214Y-54042155D01*
X79247642Y-53960347D01*
X79261350Y-53958018D01*
X79627550Y-53916757D01*
X79639696Y-53915989D01*
X79823544Y-53913412D01*
X79825282Y-53913400D01*
X210423518Y-53913400D01*
X210425256Y-53913412D01*
G37*
M02*
