%TF.GenerationSoftware,KiCad,Pcbnew,8.0.4*%
%TF.CreationDate,2024-10-13T10:09:03+07:00*%
%TF.ProjectId,lcd-standard-5R,6c63642d-7374-4616-9e64-6172642d3552,rev?*%
%TF.SameCoordinates,Original*%
%TF.FileFunction,Legend,Bot*%
%TF.FilePolarity,Positive*%
%FSLAX46Y46*%
G04 Gerber Fmt 4.6, Leading zero omitted, Abs format (unit mm)*
G04 Created by KiCad (PCBNEW 8.0.4) date 2024-10-13 10:09:03*
%MOMM*%
%LPD*%
G01*
G04 APERTURE LIST*
%ADD10C,0.200000*%
%ADD11C,0.250000*%
G04 APERTURE END LIST*
D10*
X84624400Y-132513400D02*
X205624400Y-132513400D01*
X84624400Y-56513400D02*
X205624400Y-56513400D01*
X84624400Y-56513400D02*
X84624400Y-132513400D01*
X205624400Y-56513400D02*
X205624400Y-132513400D01*
D11*
X212387180Y-123470231D02*
X211577657Y-123470231D01*
X211577657Y-123470231D02*
X211482419Y-123422612D01*
X211482419Y-123422612D02*
X211434800Y-123374993D01*
X211434800Y-123374993D02*
X211387180Y-123279755D01*
X211387180Y-123279755D02*
X211387180Y-123089279D01*
X211387180Y-123089279D02*
X211434800Y-122994041D01*
X211434800Y-122994041D02*
X211482419Y-122946422D01*
X211482419Y-122946422D02*
X211577657Y-122898803D01*
X211577657Y-122898803D02*
X212387180Y-122898803D01*
X211434800Y-122470231D02*
X211387180Y-122327374D01*
X211387180Y-122327374D02*
X211387180Y-122089279D01*
X211387180Y-122089279D02*
X211434800Y-121994041D01*
X211434800Y-121994041D02*
X211482419Y-121946422D01*
X211482419Y-121946422D02*
X211577657Y-121898803D01*
X211577657Y-121898803D02*
X211672895Y-121898803D01*
X211672895Y-121898803D02*
X211768133Y-121946422D01*
X211768133Y-121946422D02*
X211815752Y-121994041D01*
X211815752Y-121994041D02*
X211863371Y-122089279D01*
X211863371Y-122089279D02*
X211910990Y-122279755D01*
X211910990Y-122279755D02*
X211958609Y-122374993D01*
X211958609Y-122374993D02*
X212006228Y-122422612D01*
X212006228Y-122422612D02*
X212101466Y-122470231D01*
X212101466Y-122470231D02*
X212196704Y-122470231D01*
X212196704Y-122470231D02*
X212291942Y-122422612D01*
X212291942Y-122422612D02*
X212339561Y-122374993D01*
X212339561Y-122374993D02*
X212387180Y-122279755D01*
X212387180Y-122279755D02*
X212387180Y-122041660D01*
X212387180Y-122041660D02*
X212339561Y-121898803D01*
X211910990Y-121136898D02*
X211863371Y-120994041D01*
X211863371Y-120994041D02*
X211815752Y-120946422D01*
X211815752Y-120946422D02*
X211720514Y-120898803D01*
X211720514Y-120898803D02*
X211577657Y-120898803D01*
X211577657Y-120898803D02*
X211482419Y-120946422D01*
X211482419Y-120946422D02*
X211434800Y-120994041D01*
X211434800Y-120994041D02*
X211387180Y-121089279D01*
X211387180Y-121089279D02*
X211387180Y-121470231D01*
X211387180Y-121470231D02*
X212387180Y-121470231D01*
X212387180Y-121470231D02*
X212387180Y-121136898D01*
X212387180Y-121136898D02*
X212339561Y-121041660D01*
X212339561Y-121041660D02*
X212291942Y-120994041D01*
X212291942Y-120994041D02*
X212196704Y-120946422D01*
X212196704Y-120946422D02*
X212101466Y-120946422D01*
X212101466Y-120946422D02*
X212006228Y-120994041D01*
X212006228Y-120994041D02*
X211958609Y-121041660D01*
X211958609Y-121041660D02*
X211910990Y-121136898D01*
X211910990Y-121136898D02*
X211910990Y-121470231D01*
X78576895Y-92946523D02*
X78576895Y-92470333D01*
X78291180Y-93041761D02*
X79291180Y-92708428D01*
X79291180Y-92708428D02*
X78291180Y-92375095D01*
X79291180Y-92041761D02*
X78481657Y-92041761D01*
X78481657Y-92041761D02*
X78386419Y-91994142D01*
X78386419Y-91994142D02*
X78338800Y-91946523D01*
X78338800Y-91946523D02*
X78291180Y-91851285D01*
X78291180Y-91851285D02*
X78291180Y-91660809D01*
X78291180Y-91660809D02*
X78338800Y-91565571D01*
X78338800Y-91565571D02*
X78386419Y-91517952D01*
X78386419Y-91517952D02*
X78481657Y-91470333D01*
X78481657Y-91470333D02*
X79291180Y-91470333D01*
X79291180Y-91089380D02*
X78291180Y-90422714D01*
X79291180Y-90422714D02*
X78291180Y-91089380D01*
X78672133Y-89279856D02*
X78672133Y-88517952D01*
X78291180Y-87279856D02*
X79291180Y-87279856D01*
X79291180Y-86613190D02*
X79291180Y-86422714D01*
X79291180Y-86422714D02*
X79243561Y-86327476D01*
X79243561Y-86327476D02*
X79148323Y-86232238D01*
X79148323Y-86232238D02*
X78957847Y-86184619D01*
X78957847Y-86184619D02*
X78624514Y-86184619D01*
X78624514Y-86184619D02*
X78434038Y-86232238D01*
X78434038Y-86232238D02*
X78338800Y-86327476D01*
X78338800Y-86327476D02*
X78291180Y-86422714D01*
X78291180Y-86422714D02*
X78291180Y-86613190D01*
X78291180Y-86613190D02*
X78338800Y-86708428D01*
X78338800Y-86708428D02*
X78434038Y-86803666D01*
X78434038Y-86803666D02*
X78624514Y-86851285D01*
X78624514Y-86851285D02*
X78957847Y-86851285D01*
X78957847Y-86851285D02*
X79148323Y-86803666D01*
X79148323Y-86803666D02*
X79243561Y-86708428D01*
X79243561Y-86708428D02*
X79291180Y-86613190D01*
X78338800Y-123789107D02*
X78291180Y-123646250D01*
X78291180Y-123646250D02*
X78291180Y-123408155D01*
X78291180Y-123408155D02*
X78338800Y-123312917D01*
X78338800Y-123312917D02*
X78386419Y-123265298D01*
X78386419Y-123265298D02*
X78481657Y-123217679D01*
X78481657Y-123217679D02*
X78576895Y-123217679D01*
X78576895Y-123217679D02*
X78672133Y-123265298D01*
X78672133Y-123265298D02*
X78719752Y-123312917D01*
X78719752Y-123312917D02*
X78767371Y-123408155D01*
X78767371Y-123408155D02*
X78814990Y-123598631D01*
X78814990Y-123598631D02*
X78862609Y-123693869D01*
X78862609Y-123693869D02*
X78910228Y-123741488D01*
X78910228Y-123741488D02*
X79005466Y-123789107D01*
X79005466Y-123789107D02*
X79100704Y-123789107D01*
X79100704Y-123789107D02*
X79195942Y-123741488D01*
X79195942Y-123741488D02*
X79243561Y-123693869D01*
X79243561Y-123693869D02*
X79291180Y-123598631D01*
X79291180Y-123598631D02*
X79291180Y-123360536D01*
X79291180Y-123360536D02*
X79243561Y-123217679D01*
X79291180Y-122931964D02*
X79291180Y-122360536D01*
X78291180Y-122646250D02*
X79291180Y-122646250D01*
X78672133Y-122027202D02*
X78672133Y-121265298D01*
X78291180Y-120312917D02*
X78291180Y-120789107D01*
X78291180Y-120789107D02*
X79291180Y-120789107D01*
X78291180Y-119979583D02*
X79291180Y-119979583D01*
X78291180Y-119503393D02*
X79291180Y-119503393D01*
X79291180Y-119503393D02*
X78291180Y-118931965D01*
X78291180Y-118931965D02*
X79291180Y-118931965D01*
X78291180Y-118455774D02*
X79291180Y-118455774D01*
X78291180Y-117884346D02*
X78862609Y-118312917D01*
X79291180Y-117884346D02*
X78719752Y-118455774D01*
X211434800Y-97633450D02*
X211387180Y-97490593D01*
X211387180Y-97490593D02*
X211387180Y-97252498D01*
X211387180Y-97252498D02*
X211434800Y-97157260D01*
X211434800Y-97157260D02*
X211482419Y-97109641D01*
X211482419Y-97109641D02*
X211577657Y-97062022D01*
X211577657Y-97062022D02*
X211672895Y-97062022D01*
X211672895Y-97062022D02*
X211768133Y-97109641D01*
X211768133Y-97109641D02*
X211815752Y-97157260D01*
X211815752Y-97157260D02*
X211863371Y-97252498D01*
X211863371Y-97252498D02*
X211910990Y-97442974D01*
X211910990Y-97442974D02*
X211958609Y-97538212D01*
X211958609Y-97538212D02*
X212006228Y-97585831D01*
X212006228Y-97585831D02*
X212101466Y-97633450D01*
X212101466Y-97633450D02*
X212196704Y-97633450D01*
X212196704Y-97633450D02*
X212291942Y-97585831D01*
X212291942Y-97585831D02*
X212339561Y-97538212D01*
X212339561Y-97538212D02*
X212387180Y-97442974D01*
X212387180Y-97442974D02*
X212387180Y-97204879D01*
X212387180Y-97204879D02*
X212339561Y-97062022D01*
X211910990Y-96633450D02*
X211910990Y-96300117D01*
X211387180Y-96157260D02*
X211387180Y-96633450D01*
X211387180Y-96633450D02*
X212387180Y-96633450D01*
X212387180Y-96633450D02*
X212387180Y-96157260D01*
X211387180Y-95157260D02*
X211863371Y-95490593D01*
X211387180Y-95728688D02*
X212387180Y-95728688D01*
X212387180Y-95728688D02*
X212387180Y-95347736D01*
X212387180Y-95347736D02*
X212339561Y-95252498D01*
X212339561Y-95252498D02*
X212291942Y-95204879D01*
X212291942Y-95204879D02*
X212196704Y-95157260D01*
X212196704Y-95157260D02*
X212053847Y-95157260D01*
X212053847Y-95157260D02*
X211958609Y-95204879D01*
X211958609Y-95204879D02*
X211910990Y-95252498D01*
X211910990Y-95252498D02*
X211863371Y-95347736D01*
X211863371Y-95347736D02*
X211863371Y-95728688D01*
X211387180Y-94728688D02*
X212387180Y-94728688D01*
X211672895Y-94300117D02*
X211672895Y-93823927D01*
X211387180Y-94395355D02*
X212387180Y-94062022D01*
X212387180Y-94062022D02*
X211387180Y-93728689D01*
X211387180Y-92919165D02*
X211387180Y-93395355D01*
X211387180Y-93395355D02*
X212387180Y-93395355D01*
X78338800Y-108512574D02*
X78291180Y-108369717D01*
X78291180Y-108369717D02*
X78291180Y-108131622D01*
X78291180Y-108131622D02*
X78338800Y-108036384D01*
X78338800Y-108036384D02*
X78386419Y-107988765D01*
X78386419Y-107988765D02*
X78481657Y-107941146D01*
X78481657Y-107941146D02*
X78576895Y-107941146D01*
X78576895Y-107941146D02*
X78672133Y-107988765D01*
X78672133Y-107988765D02*
X78719752Y-108036384D01*
X78719752Y-108036384D02*
X78767371Y-108131622D01*
X78767371Y-108131622D02*
X78814990Y-108322098D01*
X78814990Y-108322098D02*
X78862609Y-108417336D01*
X78862609Y-108417336D02*
X78910228Y-108464955D01*
X78910228Y-108464955D02*
X79005466Y-108512574D01*
X79005466Y-108512574D02*
X79100704Y-108512574D01*
X79100704Y-108512574D02*
X79195942Y-108464955D01*
X79195942Y-108464955D02*
X79243561Y-108417336D01*
X79243561Y-108417336D02*
X79291180Y-108322098D01*
X79291180Y-108322098D02*
X79291180Y-108084003D01*
X79291180Y-108084003D02*
X79243561Y-107941146D01*
X78291180Y-107512574D02*
X79291180Y-107512574D01*
X79291180Y-107512574D02*
X79291180Y-107131622D01*
X79291180Y-107131622D02*
X79243561Y-107036384D01*
X79243561Y-107036384D02*
X79195942Y-106988765D01*
X79195942Y-106988765D02*
X79100704Y-106941146D01*
X79100704Y-106941146D02*
X78957847Y-106941146D01*
X78957847Y-106941146D02*
X78862609Y-106988765D01*
X78862609Y-106988765D02*
X78814990Y-107036384D01*
X78814990Y-107036384D02*
X78767371Y-107131622D01*
X78767371Y-107131622D02*
X78767371Y-107512574D01*
X78814990Y-106512574D02*
X78814990Y-106179241D01*
X78291180Y-106036384D02*
X78291180Y-106512574D01*
X78291180Y-106512574D02*
X79291180Y-106512574D01*
X79291180Y-106512574D02*
X79291180Y-106036384D01*
X78576895Y-105655431D02*
X78576895Y-105179241D01*
X78291180Y-105750669D02*
X79291180Y-105417336D01*
X79291180Y-105417336D02*
X78291180Y-105084003D01*
X78291180Y-104750669D02*
X79291180Y-104750669D01*
X78291180Y-104179241D02*
X78862609Y-104607812D01*
X79291180Y-104179241D02*
X78719752Y-104750669D01*
X78814990Y-103750669D02*
X78814990Y-103417336D01*
X78291180Y-103274479D02*
X78291180Y-103750669D01*
X78291180Y-103750669D02*
X79291180Y-103750669D01*
X79291180Y-103750669D02*
X79291180Y-103274479D01*
X78291180Y-102274479D02*
X78767371Y-102607812D01*
X78291180Y-102845907D02*
X79291180Y-102845907D01*
X79291180Y-102845907D02*
X79291180Y-102464955D01*
X79291180Y-102464955D02*
X79243561Y-102369717D01*
X79243561Y-102369717D02*
X79195942Y-102322098D01*
X79195942Y-102322098D02*
X79100704Y-102274479D01*
X79100704Y-102274479D02*
X78957847Y-102274479D01*
X78957847Y-102274479D02*
X78862609Y-102322098D01*
X78862609Y-102322098D02*
X78814990Y-102369717D01*
X78814990Y-102369717D02*
X78767371Y-102464955D01*
X78767371Y-102464955D02*
X78767371Y-102845907D01*
X102431831Y-55509752D02*
X102431831Y-56176419D01*
X102860402Y-55509752D02*
X102860402Y-56033561D01*
X102860402Y-56033561D02*
X102812783Y-56128800D01*
X102812783Y-56128800D02*
X102717545Y-56176419D01*
X102717545Y-56176419D02*
X102574688Y-56176419D01*
X102574688Y-56176419D02*
X102479450Y-56128800D01*
X102479450Y-56128800D02*
X102431831Y-56081180D01*
X102003259Y-56128800D02*
X101860402Y-56176419D01*
X101860402Y-56176419D02*
X101622307Y-56176419D01*
X101622307Y-56176419D02*
X101527069Y-56128800D01*
X101527069Y-56128800D02*
X101479450Y-56081180D01*
X101479450Y-56081180D02*
X101431831Y-55985942D01*
X101431831Y-55985942D02*
X101431831Y-55890704D01*
X101431831Y-55890704D02*
X101479450Y-55795466D01*
X101479450Y-55795466D02*
X101527069Y-55747847D01*
X101527069Y-55747847D02*
X101622307Y-55700228D01*
X101622307Y-55700228D02*
X101812783Y-55652609D01*
X101812783Y-55652609D02*
X101908021Y-55604990D01*
X101908021Y-55604990D02*
X101955640Y-55557371D01*
X101955640Y-55557371D02*
X102003259Y-55462133D01*
X102003259Y-55462133D02*
X102003259Y-55366895D01*
X102003259Y-55366895D02*
X101955640Y-55271657D01*
X101955640Y-55271657D02*
X101908021Y-55224038D01*
X101908021Y-55224038D02*
X101812783Y-55176419D01*
X101812783Y-55176419D02*
X101574688Y-55176419D01*
X101574688Y-55176419D02*
X101431831Y-55224038D01*
X101003259Y-56176419D02*
X101003259Y-55176419D01*
X101003259Y-55176419D02*
X100765164Y-55176419D01*
X100765164Y-55176419D02*
X100622307Y-55224038D01*
X100622307Y-55224038D02*
X100527069Y-55319276D01*
X100527069Y-55319276D02*
X100479450Y-55414514D01*
X100479450Y-55414514D02*
X100431831Y-55604990D01*
X100431831Y-55604990D02*
X100431831Y-55747847D01*
X100431831Y-55747847D02*
X100479450Y-55938323D01*
X100479450Y-55938323D02*
X100527069Y-56033561D01*
X100527069Y-56033561D02*
X100622307Y-56128800D01*
X100622307Y-56128800D02*
X100765164Y-56176419D01*
X100765164Y-56176419D02*
X101003259Y-56176419D01*
M02*
