999
dxfrw 0.6.3
  0
SECTION
  2
HEADER
  9
$ACADVER
  1
AC1021
  9
$DWGCODEPAGE
  3
ANSI_1252
  9
$INSBASE
 10
0
 20
0
 30
0
  9
$EXTMIN
 10
-464.375531866782
 20
-616.3394296718403
 30
0
  9
$EXTMAX
 10
876.2547481559147
 20
59.86889991297126
 30
0
  9
$LIMMIN
 10
0
 20
0
  9
$LIMMAX
 10
420
 20
297
  9
$ORTHOMODE
 70
    0
  9
$REGENMODE
 70
    1
  9
$FILLMODE
 70
    1
  9
$QTEXTMODE
 70
    0
  9
$MIRRTEXT
 70
    0
  9
$LTSCALE
 40
1
  9
$ATTMODE
 70
    0
  9
$TEXTSIZE
 40
2.5
  9
$TRACEWID
 40
15.68
  9
$TEXTSTYLE
  7
STANDARD
  9
$CLAYER
  8
0
  9
$CELTYPE
  6
BYLAYER
  9
$CECOLOR
 62
  256
  9
$CELTSCALE
 40
1
  9
$DISPSILH
 70
    0
  9
$DIMSCALE
 40
2.5
  9
$DIMASZ
 40
2.5
  9
$DIMEXO
 40
0.625
  9
$DIMDLI
 40
3.75
  9
$DIMRND
 40
0
  9
$DIMDLE
 40
0
  9
$DIMEXE
 40
1.25
  9
$DIMTP
 40
0
  9
$DIMTM
 40
0
  9
$DIMTXT
 40
2.5
  9
$DIMCEN
 40
2.5
  9
$DIMTSZ
 40
0
  9
$DIMTOL
 70
    0
  9
$DIMLIM
 70
    0
  9
$DIMTIH
 70
    0
  9
$DIMTOH
 70
    0
  9
$DIMSE1
 70
    0
  9
$DIMSE2
 70
    0
  9
$DIMTAD
 70
    1
  9
$DIMZIN
 70
    8
  9
$DIMBLK
  1

  9
$DIMASO
 70
    1
  9
$DIMSHO
 70
    1
  9
$DIMPOST
  1

  9
$DIMAPOST
  1

  9
$DIMALT
 70
    0
  9
$DIMALTD
 70
    3
  9
$DIMALTF
 40
0.03937
  9
$DIMLFAC
 40
1
  9
$DIMTOFL
 70
    1
  9
$DIMTVP
 40
0
  9
$DIMTIX
 70
    0
  9
$DIMSOXD
 70
    0
  9
$DIMSAH
 70
    0
  9
$DIMBLK1
  1

  9
$DIMBLK2
  1

  9
$DIMSTYLE
  2
STANDARD
  9
$DIMCLRD
 70
    0
  9
$DIMCLRE
 70
    0
  9
$DIMCLRT
 70
    0
  9
$DIMTFAC
 40
1
  9
$DIMGAP
 40
0.625
  9
$DIMJUST
 70
    0
  9
$DIMSD1
 70
    0
  9
$DIMSD2
 70
    0
  9
$DIMTOLJ
 70
    0
  9
$DIMTZIN
 70
    8
  9
$DIMALTZ
 70
    0
  9
$DIMALTTZ
 70
    0
  9
$DIMUPT
 70
    0
  9
$DIMDEC
 70
    2
  9
$DIMTDEC
 70
    2
  9
$DIMALTU
 70
    2
  9
$DIMALTTD
 70
    3
  9
$DIMTXSTY
  7
STANDARD
  9
$DIMAUNIT
 70
    0
  9
$DIMADEC
 70
    0
  9
$DIMALTRND
 40
0
  9
$DIMAZIN
 70
    0
  9
$DIMDSEP
 70
   44
  9
$DIMATFIT
 70
    3
  9
$DIMFRAC
 70
    0
  9
$DIMLDRBLK
  1
STANDARD
  9
$DIMLUNIT
 70
    2
  9
$DIMLWD
 70
   -2
  9
$DIMLWE
 70
   -2
  9
$DIMTMOVE
 70
    0
  9
$DIMFXL
 40
1
  9
$DIMFXLON
 70
    0
  9
$DIMJOGANG
 40
0.7854
  9
$DIMTFILL
 70
    0
  9
$DIMTFILLCLR
 70
    0
  9
$DIMARCSYM
 70
    0
  9
$DIMLTYPE
  6

  9
$DIMLTEX1
  6

  9
$DIMLTEX2
  6

  9
$LUNITS
 70
    2
  9
$LUPREC
 70
    4
  9
$SKETCHINC
 40
1
  9
$FILLETRAD
 40
0
  9
$AUNITS
 70
    0
  9
$AUPREC
 70
    2
  9
$MENU
  1
.
  9
$ELEVATION
 40
0
  9
$PELEVATION
 40
0
  9
$THICKNESS
 40
0
  9
$LIMCHECK
 70
    0
  9
$CHAMFERA
 40
0
  9
$CHAMFERB
 40
0
  9
$CHAMFERC
 40
0
  9
$CHAMFERD
 40
0
  9
$SKPOLY
 70
    0
  9
$USRTIMER
 70
    1
  9
$ANGBASE
 50
0
  9
$ANGDIR
 70
    0
  9
$PDMODE
 70
   34
  9
$PDSIZE
 40
0
  9
$PLINEWID
 40
0
  9
$SPLFRAME
 70
    0
  9
$SPLINETYPE
 70
    2
  9
$SPLINESEGS
 70
    8
  9
$HANDSEED
  5
20000
  9
$SURFTAB1
 70
    6
  9
$SURFTAB2
 70
    6
  9
$SURFTYPE
 70
    6
  9
$SURFU
 70
    6
  9
$SURFV
 70
    6
  9
$UCSBASE
  2

  9
$UCSNAME
  2

  9
$UCSORG
 10
0
 20
0
 30
0
  9
$UCSXDIR
 10
1
 20
0
 30
0
  9
$UCSYDIR
 10
0
 20
1
 30
0
  9
$UCSORTHOREF
  2

  9
$UCSORTHOVIEW
 70
    0
  9
$UCSORGTOP
 10
0
 20
0
 30
0
  9
$UCSORGBOTTOM
 10
0
 20
0
 30
0
  9
$UCSORGLEFT
 10
0
 20
0
 30
0
  9
$UCSORGRIGHT
 10
0
 20
0
 30
0
  9
$UCSORGFRONT
 10
0
 20
0
 30
0
  9
$UCSORGBACK
 10
0
 20
0
 30
0
  9
$PUCSBASE
  2

  9
$PUCSNAME
  2

  9
$PUCSORG
 10
0
 20
0
 30
0
  9
$PUCSXDIR
 10
1
 20
0
 30
0
  9
$PUCSYDIR
 10
0
 20
1
 30
0
  9
$PUCSORTHOREF
  2

  9
$PUCSORTHOVIEW
 70
    0
  9
$PUCSORGTOP
 10
0
 20
0
 30
0
  9
$PUCSORGBOTTOM
 10
0
 20
0
 30
0
  9
$PUCSORGLEFT
 10
0
 20
0
 30
0
  9
$PUCSORGRIGHT
 10
0
 20
0
 30
0
  9
$PUCSORGFRONT
 10
0
 20
0
 30
0
  9
$PUCSORGBACK
 10
0
 20
0
 30
0
  9
$USERI1
 70
    0
  9
$USERI2
 70
    0
  9
$USERI3
 70
    0
  9
$USERI4
 70
    0
  9
$USERI5
 70
    0
  9
$USERR1
 40
0
  9
$USERR2
 40
0
  9
$USERR3
 40
0
  9
$USERR4
 40
0
  9
$USERR5
 40
0
  9
$WORLDVIEW
 70
    1
  9
$SHADEDGE
 70
    3
  9
$SHADEDIF
 70
   70
  9
$TILEMODE
 70
    1
  9
$MAXACTVP
 70
   64
  9
$PINSBASE
 10
0
 20
0
 30
0
  9
$PLIMCHECK
 70
    0
  9
$PEXTMIN
 10
0
 20
0
 30
0
  9
$PEXTMAX
 10
0
 20
0
 30
0
  9
$GRIDMODE
 70
    1
  9
$SNAPSTYLE
 70
    0
  9
$PLIMMIN
 10
0
 20
0
  9
$PLIMMAX
 10
210
 20
297
  9
$UNITMODE
 70
    0
  9
$VISRETAIN
 70
    1
  9
$PLINEGEN
 70
    0
  9
$PSLTSCALE
 70
    1
  9
$TREEDEPTH
 70
 3020
  9
$CMLSTYLE
  2
Standard
  9
$CMLJUST
 70
    0
  9
$CMLSCALE
 40
20
  9
$PROXYGRAPHICS
 70
    1
  9
$MEASUREMENT
 70
    1
  9
$CELWEIGHT
370
   -1
  9
$ENDCAPS
280
    0
  9
$JOINSTYLE
280
    0
  9
$LWDISPLAY
290
    0
  9
$INSUNITS
 70
    4
  9
$HYPERLINKBASE
  1

  9
$STYLESHEET
  1

  9
$XEDIT
290
    1
  9
$CEPSNTYPE
380
    0
  9
$PSTYLEMODE
290
    1
  9
$EXTNAMES
290
    1
  9
$PSVPSCALE
 40
1
  9
$OLESTARTUP
290
    0
  9
$SORTENTS
280
  127
  9
$INDEXCTL
280
    0
  9
$HIDETEXT
280
    1
  9
$XCLIPFRAME
290
    0
  9
$HALOGAP
280
    0
  9
$OBSCOLOR
 70
  257
  9
$OBSLTYPE
280
    0
  9
$INTERSECTIONDISPLAY
280
    0
  9
$INTERSECTIONCOLOR
 70
  257
  9
$DIMASSOC
280
    1
  9
$PROJECTNAME
  1

  9
$CAMERADISPLAY
290
    0
  9
$LENSLENGTH
 40
50
  9
$CAMERAHEIGHT
 40
0
  9
$STEPSPERSEC
 40
2
  9
$STEPSIZE
 40
50
  9
$3DDWFPREC
 40
2
  9
$PSOLWIDTH
 40
5
  9
$PSOLHEIGHT
 40
80
  9
$LOFTANG1
 40
1.570796326794897
  9
$LOFTANG2
 40
1.570796326794897
  9
$LOFTMAG1
 40
0
  9
$LOFTMAG2
 40
0
  9
$LOFTPARAM
 70
    7
  9
$LOFTNORMALS
280
    1
  9
$LATITUDE
 40
1
  9
$LONGITUDE
 40
1
  9
$NORTHDIRECTION
 40
0
  9
$TIMEZONE
 70
-8000
  9
$LIGHTGLYPHDISPLAY
280
    1
  9
$TILEMODELIGHTSYNCH
280
    1
  9
$SOLIDHIST
280
    1
  9
$SHOWHIST
280
    1
  9
$DWFFRAME
280
    2
  9
$DGNFRAME
280
    0
  9
$REALWORLDSCALE
290
    1
  9
$INTERFERECOLOR
 62
    1
  9
$CSHADOW
280
    0
  9
$SHADOWPLANELOCATION
 40
0
  0
ENDSEC
  0
SECTION
  2
CLASSES
  0
ENDSEC
  0
SECTION
  2
TABLES
  0
TABLE
  2
VPORT
  5
8
330
0
100
AcDbSymbolTable
 70
    1
  0
VPORT
  5
31
330
2
100
AcDbSymbolTableRecord
100
AcDbViewportTableRecord
  2
*ACTIVE
 70
    0
 10
0
 20
0
 11
1
 21
1
 12
48.41599218840762
 22
26.35663480078995
 13
0
 23
0
 14
10
 24
10
 15
10
 25
10
 16
0
 26
0
 36
1
 17
0
 27
0
 37
0
 40
393.3441258857022
 41
1.914785142024763
 42
50
 43
0
 44
0
 50
0
 51
0
 71
    0
 72
  100
 73
    1
 74
    3
 75
    0
 76
    1
 77
    0
 78
    0
281
    0
 65
    1
110
0
120
0
130
0
111
1
121
0
131
0
112
0
122
1
132
0
 79
    0
146
0
348
10020
 60
    7
 61
    5
292
1
282
    1
141
0
142
0
 63
  250
421
3358443
  0
ENDTAB
  0
TABLE
  2
LTYPE
  5
5
330
0
100
AcDbSymbolTable
 70
    4
  0
LTYPE
  5
14
330
5
100
AcDbSymbolTableRecord
100
AcDbLinetypeTableRecord
  2
ByBlock
 70
    0
  3

 72
   65
 73
    0
 40
0
  0
LTYPE
  5
15
330
5
100
AcDbSymbolTableRecord
100
AcDbLinetypeTableRecord
  2
ByLayer
 70
    0
  3

 72
   65
 73
    0
 40
0
  0
LTYPE
  5
16
330
5
100
AcDbSymbolTableRecord
100
AcDbLinetypeTableRecord
  2
Continuous
 70
    0
  3
Solid line
 72
   65
 73
    0
 40
0
  0
LTYPE
  5
32
330
5
100
AcDbSymbolTableRecord
100
AcDbLinetypeTableRecord
  2
DOT
 70
    0
  3
Dot . . . . . . . . . . . . . . . . . . . . . .
 72
   65
 73
    2
 40
6.35
 49
0
 74
    0
 49
-6.35
 74
    0
  0
LTYPE
  5
33
330
5
100
AcDbSymbolTableRecord
100
AcDbLinetypeTableRecord
  2
DOTTINY
 70
    0
  3
Dot (.15x) .....................................
 72
   65
 73
    2
 40
0.9525
 49
0
 74
    0
 49
-0.9525
 74
    0
  0
LTYPE
  5
34
330
5
100
AcDbSymbolTableRecord
100
AcDbLinetypeTableRecord
  2
DOT2
 70
    0
  3
Dot (.5x) .....................................
 72
   65
 73
    2
 40
3.175
 49
0
 74
    0
 49
-3.175
 74
    0
  0
LTYPE
  5
35
330
5
100
AcDbSymbolTableRecord
100
AcDbLinetypeTableRecord
  2
DOTX2
 70
    0
  3
Dot (2x) .  .  .  .  .  .  .  .  .  .  .  .  .
 72
   65
 73
    2
 40
12.7
 49
0
 74
    0
 49
-12.7
 74
    0
  0
LTYPE
  5
36
330
5
100
AcDbSymbolTableRecord
100
AcDbLinetypeTableRecord
  2
DASHED
 70
    0
  3
Dashed _ _ _ _ _ _ _ _ _ _ _ _ _ _ _ _ _
 72
   65
 73
    2
 40
19.05
 49
12.7
 74
    0
 49
-6.35
 74
    0
  0
LTYPE
  5
37
330
5
100
AcDbSymbolTableRecord
100
AcDbLinetypeTableRecord
  2
DASHEDTINY
 70
    0
  3
Dashed (.15x) _ _ _ _ _ _ _ _ _ _ _ _ _ _ _ _ _
 72
   65
 73
    2
 40
2.8575
 49
1.905
 74
    0
 49
-0.9525
 74
    0
  0
LTYPE
  5
38
330
5
100
AcDbSymbolTableRecord
100
AcDbLinetypeTableRecord
  2
DASHED2
 70
    0
  3
Dashed (.5x) _ _ _ _ _ _ _ _ _ _ _ _ _ _ _ _ _
 72
   65
 73
    2
 40
9.524999999999999
 49
6.35
 74
    0
 49
-3.175
 74
    0
  0
LTYPE
  5
39
330
5
100
AcDbSymbolTableRecord
100
AcDbLinetypeTableRecord
  2
DASHEDX2
 70
    0
  3
Dashed (2x) ____  ____  ____  ____  ____  ___
 72
   65
 73
    2
 40
38.09999999999999
 49
25.4
 74
    0
 49
-12.7
 74
    0
  0
LTYPE
  5
3A
330
5
100
AcDbSymbolTableRecord
100
AcDbLinetypeTableRecord
  2
DASHDOT
 70
    0
  3
Dash dot __ . __ . __ . __ . __ . __ . __ . __
 72
   65
 73
    4
 40
25.4
 49
12.7
 74
    0
 49
-6.35
 74
    0
 49
0
 74
    0
 49
-6.35
 74
    0
  0
LTYPE
  5
3B
330
5
100
AcDbSymbolTableRecord
100
AcDbLinetypeTableRecord
  2
DASHDOTTINY
 70
    0
  3
Dash dot (.15x) _._._._._._._._._._._._._._._.
 72
   65
 73
    4
 40
3.81
 49
1.905
 74
    0
 49
-0.9525
 74
    0
 49
0
 74
    0
 49
-0.9525
 74
    0
  0
LTYPE
  5
3C
330
5
100
AcDbSymbolTableRecord
100
AcDbLinetypeTableRecord
  2
DASHDOT2
 70
    0
  3
Dash dot (.5x) _._._._._._._._._._._._._._._.
 72
   65
 73
    4
 40
12.7
 49
6.35
 74
    0
 49
-3.175
 74
    0
 49
0
 74
    0
 49
-3.175
 74
    0
  0
LTYPE
  5
3D
330
5
100
AcDbSymbolTableRecord
100
AcDbLinetypeTableRecord
  2
DASHDOTX2
 70
    0
  3
Dash dot (2x) ____  .  ____  .  ____  .  ___
 72
   65
 73
    4
 40
50.8
 49
25.4
 74
    0
 49
-12.7
 74
    0
 49
0
 74
    0
 49
-12.7
 74
    0
  0
LTYPE
  5
3E
330
5
100
AcDbSymbolTableRecord
100
AcDbLinetypeTableRecord
  2
DIVIDE
 70
    0
  3
Divide ____ . . ____ . . ____ . . ____ . . ____
 72
   65
 73
    6
 40
31.75
 49
12.7
 74
    0
 49
-6.35
 74
    0
 49
0
 74
    0
 49
-6.35
 74
    0
 49
0
 74
    0
 49
-6.35
 74
    0
  0
LTYPE
  5
3F
330
5
100
AcDbSymbolTableRecord
100
AcDbLinetypeTableRecord
  2
DIVIDETINY
 70
    0
  3
Divide (.15x) __..__..__..__..__..__..__..__.._
 72
   65
 73
    6
 40
4.7625
 49
1.905
 74
    0
 49
-0.9525
 74
    0
 49
0
 74
    0
 49
-0.9525
 74
    0
 49
0
 74
    0
 49
-0.9525
 74
    0
  0
LTYPE
  5
40
330
5
100
AcDbSymbolTableRecord
100
AcDbLinetypeTableRecord
  2
DIVIDE2
 70
    0
  3
Divide (.5x) __..__..__..__..__..__..__..__.._
 72
   65
 73
    6
 40
15.875
 49
6.35
 74
    0
 49
-3.175
 74
    0
 49
0
 74
    0
 49
-3.175
 74
    0
 49
0
 74
    0
 49
-3.175
 74
    0
  0
LTYPE
  5
41
330
5
100
AcDbSymbolTableRecord
100
AcDbLinetypeTableRecord
  2
DIVIDEX2
 70
    0
  3
Divide (2x) ________  .  .  ________  .  .  _
 72
   65
 73
    6
 40
63.5
 49
25.4
 74
    0
 49
-12.7
 74
    0
 49
0
 74
    0
 49
-12.7
 74
    0
 49
0
 74
    0
 49
-12.7
 74
    0
  0
LTYPE
  5
42
330
5
100
AcDbSymbolTableRecord
100
AcDbLinetypeTableRecord
  2
BORDER
 70
    0
  3
Border __ __ . __ __ . __ __ . __ __ . __ __ .
 72
   65
 73
    6
 40
44.45
 49
12.7
 74
    0
 49
-6.35
 74
    0
 49
12.7
 74
    0
 49
-6.35
 74
    0
 49
0
 74
    0
 49
-6.35
 74
    0
  0
LTYPE
  5
43
330
5
100
AcDbSymbolTableRecord
100
AcDbLinetypeTableRecord
  2
BORDERTINY
 70
    0
  3
Border (.15x) __.__.__.__.__.__.__.__.__.__.__.
 72
   65
 73
    6
 40
6.6675
 49
1.905
 74
    0
 49
-0.9525
 74
    0
 49
1.905
 74
    0
 49
-0.9525
 74
    0
 49
0
 74
    0
 49
-0.9525
 74
    0
  0
LTYPE
  5
44
330
5
100
AcDbSymbolTableRecord
100
AcDbLinetypeTableRecord
  2
BORDER2
 70
    0
  3
Border (.5x) __.__.__.__.__.__.__.__.__.__.__.
 72
   65
 73
    6
 40
22.225
 49
6.35
 74
    0
 49
-3.175
 74
    0
 49
6.35
 74
    0
 49
-3.175
 74
    0
 49
0
 74
    0
 49
-3.175
 74
    0
  0
LTYPE
  5
45
330
5
100
AcDbSymbolTableRecord
100
AcDbLinetypeTableRecord
  2
BORDERX2
 70
    0
  3
Border (2x) ____  ____  .  ____  ____  .  ___
 72
   65
 73
    6
 40
88.89999999999999
 49
25.4
 74
    0
 49
-12.7
 74
    0
 49
25.4
 74
    0
 49
-12.7
 74
    0
 49
0
 74
    0
 49
-12.7
 74
    0
  0
LTYPE
  5
46
330
5
100
AcDbSymbolTableRecord
100
AcDbLinetypeTableRecord
  2
CENTER
 70
    0
  3
Center ____ _ ____ _ ____ _ ____ _ ____ _ ____
 72
   65
 73
    4
 40
50.8
 49
31.75
 74
    0
 49
-6.35
 74
    0
 49
6.35
 74
    0
 49
-6.35
 74
    0
  0
LTYPE
  5
47
330
5
100
AcDbSymbolTableRecord
100
AcDbLinetypeTableRecord
  2
CENTERTINY
 70
    0
  3
Center (.15x) ___ _ ___ _ ___ _ ___ _ ___ _ ___
 72
   65
 73
    4
 40
7.62
 49
4.7625
 74
    0
 49
-0.9525
 74
    0
 49
0.9525
 74
    0
 49
-0.9525
 74
    0
  0
LTYPE
  5
48
330
5
100
AcDbSymbolTableRecord
100
AcDbLinetypeTableRecord
  2
CENTER2
 70
    0
  3
Center (.5x) ___ _ ___ _ ___ _ ___ _ ___ _ ___
 72
   65
 73
    4
 40
28.575
 49
19.05
 74
    0
 49
-3.175
 74
    0
 49
3.175
 74
    0
 49
-3.175
 74
    0
  0
LTYPE
  5
49
330
5
100
AcDbSymbolTableRecord
100
AcDbLinetypeTableRecord
  2
CENTERX2
 70
    0
  3
Center (2x) ________  __  ________  __  _____
 72
   65
 73
    4
 40
101.6
 49
63.5
 74
    0
 49
-12.7
 74
    0
 49
12.7
 74
    0
 49
-12.7
 74
    0
  0
ENDTAB
  0
TABLE
  2
LAYER
  5
2
330
0
100
AcDbSymbolTable
 70
    1
  0
LAYER
  5
10
330
2
100
AcDbSymbolTableRecord
100
AcDbLayerTableRecord
  2
0
 70
    0
 62
    7
  6
CONTINUOUS
370
    0
390
F
  0
LAYER
  5
4A
330
2
100
AcDbSymbolTableRecord
100
AcDbLayerTableRecord
  2
Dimension
 70
    0
 62
    2
  6
CONTINUOUS
370
    0
390
F
  0
LAYER
  5
4B
330
2
100
AcDbSymbolTableRecord
100
AcDbLayerTableRecord
  2
helper
 70
    0
 62
    1
  6
CONTINUOUS
370
    0
390
F
  0
ENDTAB
  0
TABLE
  2
STYLE
  5
3
330
0
100
AcDbSymbolTable
 70
    3
  0
STYLE
  5
4C
330
2
100
AcDbSymbolTableRecord
100
AcDbTextStyleTableRecord
  2
STANDARD
 70
    0
 40
0
 41
1
 50
0
 71
    0
 42
1
  3
STANDARD
  4

  0
ENDTAB
  0
TABLE
  2
VIEW
  5
6
330
0
100
AcDbSymbolTable
 70
    0
  0
ENDTAB
  0
TABLE
  2
UCS
  5
7
330
0
100
AcDbSymbolTable
 70
    0
  0
ENDTAB
  0
TABLE
  2
APPID
  5
9
330
0
100
AcDbSymbolTable
 70
    1
  0
APPID
  5
12
330
9
100
AcDbSymbolTableRecord
100
AcDbRegAppTableRecord
  2
ACAD
 70
    0
  0
APPID
  5
4D
330
9
100
AcDbSymbolTableRecord
100
AcDbRegAppTableRecord
  2
LibreCad
 70
    0
  0
ENDTAB
  0
TABLE
  2
DIMSTYLE
  5
A
330
0
100
AcDbSymbolTable
 70
    1
100
AcDbDimStyleTable
 71
    1
  0
DIMSTYLE
105
4E
330
A
100
AcDbSymbolTableRecord
100
AcDbDimStyleTableRecord
  2
Standard
 70
    0
 40
2.5
 41
2.5
 42
0.625
 43
0.38
 44
1.25
 45
0
 46
0
 47
0
 48
0
 49
1
140
2.5
141
0.09
142
0
143
25.4
144
1
145
0
146
1
147
0.625
148
0
 71
    0
 72
    0
 73
    0
 74
    1
 75
    0
 76
    0
 77
    0
 78
    8
 79
    0
170
    0
171
    2
172
    0
173
    0
174
    0
175
    0
176
    0
177
    0
178
    0
179
    0
271
    2
272
    4
273
    2
274
    2
275
    0
276
    0
277
    2
278
   44
279
    0
280
    0
281
    0
282
    0
283
    1
284
    0
285
    0
286
    0
288
    0
289
    3
340
STANDARD
341

371
   -2
372
   -2
  0
ENDTAB
  0
TABLE
  2
BLOCK_RECORD
  5
1
330
0
100
AcDbSymbolTable
 70
    2
  0
BLOCK_RECORD
  5
1F
330
1
100
AcDbSymbolTableRecord
100
AcDbBlockTableRecord
  2
*Model_Space
 70
    0
280
    1
281
    0
  0
BLOCK_RECORD
  5
1E
330
1
100
AcDbSymbolTableRecord
100
AcDbBlockTableRecord
  2
*Paper_Space
 70
    0
280
    1
281
    0
  0
BLOCK_RECORD
  5
4F
330
1
100
AcDbSymbolTableRecord
100
AcDbBlockTableRecord
  2
*D5
 70
    0
280
    1
281
    0
  0
BLOCK_RECORD
  5
52
330
1
100
AcDbSymbolTableRecord
100
AcDbBlockTableRecord
  2
*D3
 70
    0
280
    1
281
    0
  0
BLOCK_RECORD
  5
55
330
1
100
AcDbSymbolTableRecord
100
AcDbBlockTableRecord
  2
*D7
 70
    0
280
    1
281
    0
  0
BLOCK_RECORD
  5
58
330
1
100
AcDbSymbolTableRecord
100
AcDbBlockTableRecord
  2
*D4
 70
    0
280
    1
281
    0
  0
BLOCK_RECORD
  5
5B
330
1
100
AcDbSymbolTableRecord
100
AcDbBlockTableRecord
  2
*D1
 70
    0
280
    1
281
    0
  0
BLOCK_RECORD
  5
5E
330
1
100
AcDbSymbolTableRecord
100
AcDbBlockTableRecord
  2
*D2
 70
    0
280
    1
281
    0
  0
BLOCK_RECORD
  5
61
330
1
100
AcDbSymbolTableRecord
100
AcDbBlockTableRecord
  2
*D12
 70
    0
280
    1
281
    0
  0
BLOCK_RECORD
  5
64
330
1
100
AcDbSymbolTableRecord
100
AcDbBlockTableRecord
  2
*D9
 70
    0
280
    1
281
    0
  0
BLOCK_RECORD
  5
67
330
1
100
AcDbSymbolTableRecord
100
AcDbBlockTableRecord
  2
*D10
 70
    0
280
    1
281
    0
  0
BLOCK_RECORD
  5
6A
330
1
100
AcDbSymbolTableRecord
100
AcDbBlockTableRecord
  2
*D6
 70
    0
280
    1
281
    0
  0
BLOCK_RECORD
  5
6D
330
1
100
AcDbSymbolTableRecord
100
AcDbBlockTableRecord
  2
*D8
 70
    0
280
    1
281
    0
  0
BLOCK_RECORD
  5
70
330
1
100
AcDbSymbolTableRecord
100
AcDbBlockTableRecord
  2
*D11
 70
    0
280
    1
281
    0
  0
ENDTAB
  0
ENDSEC
  0
SECTION
  2
BLOCKS
  0
BLOCK
  5
20
330
1F
100
AcDbEntity
  8
0
100
AcDbBlockBegin
  2
*Model_Space
 70
    0
 10
0
 20
0
 30
0
  3
*Model_Space
  1

  0
ENDBLK
  5
21
330
1F
100
AcDbEntity
  8
0
100
AcDbBlockEnd
  0
BLOCK
  5
1C
330
1B
100
AcDbEntity
  8
0
100
AcDbBlockBegin
  2
*Paper_Space
 70
    0
 10
0
 20
0
 30
0
  3
*Paper_Space
  1

  0
ENDBLK
  5
1D
330
1F
100
AcDbEntity
  8
0
100
AcDbBlockEnd
  0
BLOCK
  5
50
330
4F
100
AcDbEntity
  8
0
100
AcDbBlockBegin
  2
*D5
 70
    1
 10
0
 20
0
  3
*D5
  1

  0
LINE
  5
73
100
AcDbEntity
  8
Dimension
  6
ByBlock
 62
    0
370
   -2
100
AcDbLine
 10
54.49807539678954
 20
-67.5897813668287
 11
54.49807539678953
 21
-143.8897813668287
  0
MTEXT
  5
74
100
AcDbEntity
  8
Dimension
  6
CONTINUOUS
 62
    0
370
   -2
100
AcDbMText
 10
49.81057539678953
 20
-105.7397813668287
 30
0
 40
6.25
 41
14.93055555555633
 71
    5
 72
    1
  1
76,3
  7
STANDARD
210
0
220
0
230
1
 50
90
 73
    2
 44
1
  0
SOLID
  5
75
100
AcDbEntity
  8
Dimension
  6
ByBlock
 62
    0
370
   -2
100
AcDbTrace
 10
54.49807539678954
 20
-67.5897813668287
 30
0
 11
55.53878704122164
 21
-73.8397813668287
 31
0
 12
53.45736375235744
 22
-73.8397813668287
 32
0
 13
53.45736375235744
 23
-73.8397813668287
 33
0
  0
SOLID
  5
76
100
AcDbEntity
  8
Dimension
  6
ByBlock
 62
    0
370
   -2
100
AcDbTrace
 10
54.49807539678953
 20
-143.8897813668287
 30
0
 11
53.45736375235743
 21
-137.6397813668287
 31
0
 12
55.53878704122163
 22
-137.6397813668287
 32
0
 13
55.53878704122163
 23
-137.6397813668287
 33
0
  0
LINE
  5
77
100
AcDbEntity
  8
Dimension
  6
ByBlock
 62
    0
370
   -2
100
AcDbLine
 10
65.14085800464079
 20
-67.5897813668287
 11
51.37307539678954
 21
-67.5897813668287
  0
LINE
  5
78
100
AcDbEntity
  8
Dimension
  6
ByBlock
 62
    0
370
   -2
100
AcDbLine
 10
65.14085800464079
 20
-143.8897813668287
 11
51.37307539678953
 21
-143.8897813668287
  0
ENDBLK
  5
51
330
4F
100
AcDbEntity
  8
0
100
AcDbBlockEnd
  0
BLOCK
  5
53
330
52
100
AcDbEntity
  8
0
100
AcDbBlockBegin
  2
*D3
 70
    1
 10
0
 20
0
  3
*D3
  1

  0
LINE
  5
79
100
AcDbEntity
  8
Dimension
  6
ByBlock
 62
    0
370
   -2
100
AcDbLine
 10
313.4902634202115
 20
-60.79824823699455
 11
339.4902634202116
 21
-60.79824823699455
  0
MTEXT
  5
7A
100
AcDbEntity
  8
Dimension
  6
CONTINUOUS
 62
    0
370
   -2
100
AcDbMText
 10
326.4902634202116
 20
-56.11074823699455
 30
0
 40
6.25
 41
7.638888888889277
 71
    5
 72
    1
  1
26
  7
STANDARD
210
0
220
0
230
1
 50
0
 73
    2
 44
1
  0
SOLID
  5
7B
100
AcDbEntity
  8
Dimension
  6
ByBlock
 62
    0
370
   -2
100
AcDbTrace
 10
313.4902634202115
 20
-60.79824823699455
 30
0
 11
319.7402634202115
 21
-59.75753659256245
 31
0
 12
319.7402634202115
 22
-61.83895988142665
 32
0
 13
319.7402634202115
 23
-61.83895988142665
 33
0
  0
SOLID
  5
7C
100
AcDbEntity
  8
Dimension
  6
ByBlock
 62
    0
370
   -2
100
AcDbTrace
 10
339.4902634202116
 20
-60.79824823699455
 30
0
 11
333.2402634202116
 21
-61.83895988142665
 31
0
 12
333.2402634202116
 22
-59.75753659256245
 32
0
 13
333.2402634202116
 23
-59.75753659256245
 33
0
  0
LINE
  5
7D
100
AcDbEntity
  8
Dimension
  6
ByBlock
 62
    0
370
   -2
100
AcDbLine
 10
313.4902634202115
 20
-66.38437498303813
 11
313.4902634202115
 21
-57.67324823699455
  0
LINE
  5
7E
100
AcDbEntity
  8
Dimension
  6
ByBlock
 62
    0
370
   -2
100
AcDbLine
 10
339.4902634202116
 20
-66.38437498303813
 11
339.4902634202116
 21
-57.67324823699455
  0
ENDBLK
  5
54
330
52
100
AcDbEntity
  8
0
100
AcDbBlockEnd
  0
BLOCK
  5
56
330
55
100
AcDbEntity
  8
0
100
AcDbBlockBegin
  2
*D7
 70
    1
 10
0
 20
0
  3
*D7
  1

  0
LINE
  5
7F
100
AcDbEntity
  8
Dimension
  6
ByBlock
 62
    0
370
   -2
100
AcDbLine
 10
54.76327284397642
 20
-197.3038667152308
 11
54.76327284397642
 21
-273.3038667152308
  0
MTEXT
  5
80
100
AcDbEntity
  8
Dimension
  6
CONTINUOUS
 62
    0
370
   -2
100
AcDbMText
 10
50.07577284397642
 20
-235.3038667152308
 30
0
 40
6.25
 41
7.638888888889277
 71
    5
 72
    1
  1
76
  7
STANDARD
210
0
220
0
230
1
 50
90
 73
    2
 44
1
  0
SOLID
  5
81
100
AcDbEntity
  8
Dimension
  6
ByBlock
 62
    0
370
   -2
100
AcDbTrace
 10
54.76327284397642
 20
-197.3038667152308
 30
0
 11
55.80398448840852
 21
-203.5538667152308
 31
0
 12
53.72256119954432
 22
-203.5538667152308
 32
0
 13
53.72256119954432
 23
-203.5538667152308
 33
0
  0
SOLID
  5
82
100
AcDbEntity
  8
Dimension
  6
ByBlock
 62
    0
370
   -2
100
AcDbTrace
 10
54.76327284397642
 20
-273.3038667152308
 30
0
 11
53.72256119954432
 21
-267.0538667152308
 31
0
 12
55.80398448840852
 22
-267.0538667152308
 32
0
 13
55.80398448840852
 23
-267.0538667152308
 33
0
  0
LINE
  5
83
100
AcDbEntity
  8
Dimension
  6
ByBlock
 62
    0
370
   -2
100
AcDbLine
 10
65.29111252731539
 20
-197.3038667152308
 11
51.63827284397642
 21
-197.3038667152308
  0
LINE
  5
84
100
AcDbEntity
  8
Dimension
  6
ByBlock
 62
    0
370
   -2
100
AcDbLine
 10
65.29111252731539
 20
-273.3038667152308
 11
51.63827284397642
 21
-273.3038667152308
  0
ENDBLK
  5
57
330
55
100
AcDbEntity
  8
0
100
AcDbBlockEnd
  0
BLOCK
  5
59
330
58
100
AcDbEntity
  8
0
100
AcDbBlockBegin
  2
*D4
 70
    1
 10
0
 20
0
  3
*D4
  1

  0
LINE
  5
85
100
AcDbEntity
  8
Dimension
  6
ByBlock
 62
    0
370
   -2
100
AcDbLine
 10
66.70335800464079
 20
-156.466493839931
 11
187.7033580046408
 21
-156.466493839931
  0
MTEXT
  5
86
100
AcDbEntity
  8
Dimension
  6
CONTINUOUS
 62
    0
370
   -2
100
AcDbMText
 10
127.2033580046408
 20
-151.778993839931
 30
0
 40
6.25
 41
9.722222222222221
 71
    5
 72
    1
  1
121
  7
STANDARD
210
0
220
0
230
1
 50
0
 73
    2
 44
1
  0
SOLID
  5
87
100
AcDbEntity
  8
Dimension
  6
ByBlock
 62
    0
370
   -2
100
AcDbTrace
 10
66.70335800464079
 20
-156.466493839931
 30
0
 11
72.95335800464079
 21
-155.4257821954989
 31
0
 12
72.95335800464079
 22
-157.5072054843631
 32
0
 13
72.95335800464079
 23
-157.5072054843631
 33
0
  0
SOLID
  5
88
100
AcDbEntity
  8
Dimension
  6
ByBlock
 62
    0
370
   -2
100
AcDbTrace
 10
187.7033580046408
 20
-156.466493839931
 30
0
 11
181.4533580046408
 21
-157.5072054843631
 31
0
 12
181.4533580046408
 22
-155.4257821954989
 32
0
 13
181.4533580046408
 23
-155.4257821954989
 33
0
  0
LINE
  5
89
100
AcDbEntity
  8
Dimension
  6
ByBlock
 62
    0
370
   -2
100
AcDbLine
 10
66.70335800464079
 20
-145.4522813668287
 11
66.70335800464079
 21
-159.591493839931
  0
LINE
  5
8A
100
AcDbEntity
  8
Dimension
  6
ByBlock
 62
    0
370
   -2
100
AcDbLine
 10
187.7033580046408
 20
-145.4522813668287
 11
187.7033580046408
 21
-159.591493839931
  0
ENDBLK
  5
5A
330
58
100
AcDbEntity
  8
0
100
AcDbBlockEnd
  0
BLOCK
  5
5C
330
5B
100
AcDbEntity
  8
0
100
AcDbBlockBegin
  2
*D1
 70
    1
 10
0
 20
0
  3
*D1
  1

  0
LINE
  5
8B
100
AcDbEntity
  8
Dimension
  6
ByBlock
 62
    0
370
   -2
100
AcDbLine
 10
161.7033580046408
 20
-60.44115462078513
 11
187.7033580046408
 21
-60.44115462078513
  0
MTEXT
  5
8C
100
AcDbEntity
  8
Dimension
  6
CONTINUOUS
 62
    0
370
   -2
100
AcDbMText
 10
174.7033580046408
 20
-55.75365462078513
 30
0
 40
6.25
 41
7.638888888889277
 71
    5
 72
    1
  1
26
  7
STANDARD
210
0
220
0
230
1
 50
0
 73
    2
 44
1
  0
SOLID
  5
8D
100
AcDbEntity
  8
Dimension
  6
ByBlock
 62
    0
370
   -2
100
AcDbTrace
 10
161.7033580046408
 20
-60.44115462078513
 30
0
 11
167.9533580046408
 21
-59.40044297635303
 31
0
 12
167.9533580046408
 22
-61.48186626521723
 32
0
 13
167.9533580046408
 23
-61.48186626521723
 33
0
  0
SOLID
  5
8E
100
AcDbEntity
  8
Dimension
  6
ByBlock
 62
    0
370
   -2
100
AcDbTrace
 10
187.7033580046408
 20
-60.44115462078513
 30
0
 11
181.4533580046408
 21
-61.48186626521723
 31
0
 12
181.4533580046408
 22
-59.40044297635303
 32
0
 13
181.4533580046408
 23
-59.40044297635303
 33
0
  0
LINE
  5
8F
100
AcDbEntity
  8
Dimension
  6
ByBlock
 62
    0
370
   -2
100
AcDbLine
 10
161.7033580046408
 20
-66.0272813668287
 11
161.7033580046408
 21
-57.31615462078513
  0
LINE
  5
90
100
AcDbEntity
  8
Dimension
  6
ByBlock
 62
    0
370
   -2
100
AcDbLine
 10
187.7033580046408
 20
-66.0272813668287
 11
187.7033580046408
 21
-57.31615462078513
  0
ENDBLK
  5
5D
330
5B
100
AcDbEntity
  8
0
100
AcDbBlockEnd
  0
BLOCK
  5
5F
330
5E
100
AcDbEntity
  8
0
100
AcDbBlockBegin
  2
*D2
 70
    1
 10
0
 20
0
  3
*D2
  1

  0
LINE
  5
91
100
AcDbEntity
  8
Dimension
  6
ByBlock
 62
    0
370
   -2
100
AcDbLine
 10
197.8661887322023
 20
-67.5897813668287
 11
197.8661887322023
 21
-94.4697813668287
  0
MTEXT
  5
92
100
AcDbEntity
  8
Dimension
  6
CONTINUOUS
 62
    0
370
   -2
100
AcDbMText
 10
193.1786887322023
 20
-81.0297813668287
 30
0
 40
6.25
 41
19.79166666666706
 71
    5
 72
    1
  1
26,88
  7
STANDARD
210
0
220
0
230
1
 50
90
 73
    2
 44
1
  0
SOLID
  5
93
100
AcDbEntity
  8
Dimension
  6
ByBlock
 62
    0
370
   -2
100
AcDbTrace
 10
197.8661887322023
 20
-67.5897813668287
 30
0
 11
198.9069003766344
 21
-73.8397813668287
 31
0
 12
196.8254770877702
 22
-73.8397813668287
 32
0
 13
196.8254770877702
 23
-73.8397813668287
 33
0
  0
SOLID
  5
94
100
AcDbEntity
  8
Dimension
  6
ByBlock
 62
    0
370
   -2
100
AcDbTrace
 10
197.8661887322023
 20
-94.4697813668287
 30
0
 11
196.8254770877702
 21
-88.2197813668287
 31
0
 12
198.9069003766344
 22
-88.2197813668287
 32
0
 13
198.9069003766344
 23
-88.2197813668287
 33
0
  0
LINE
  5
95
100
AcDbEntity
  8
Dimension
  6
ByBlock
 62
    0
370
   -2
100
AcDbLine
 10
163.2658580046408
 20
-67.5897813668287
 11
200.9911887322023
 21
-67.5897813668287
  0
LINE
  5
96
100
AcDbEntity
  8
Dimension
  6
ByBlock
 62
    0
370
   -2
100
AcDbLine
 10
163.2658580046408
 20
-94.4697813668287
 11
200.9911887322023
 21
-94.4697813668287
  0
ENDBLK
  5
60
330
5E
100
AcDbEntity
  8
0
100
AcDbBlockEnd
  0
BLOCK
  5
62
330
61
100
AcDbEntity
  8
0
100
AcDbBlockBegin
  2
*D12
 70
    1
 10
0
 20
0
  3
*D12
  1

  0
LINE
  5
97
100
AcDbEntity
  8
Dimension
  6
ByBlock
 62
    0
370
   -2
100
AcDbLine
 10
-316.8503505640072
 20
-203.1132176427241
 11
-316.8503505640072
 21
-231.4732176427241
  0
MTEXT
  5
98
100
AcDbEntity
  8
Dimension
  6
CONTINUOUS
 62
    0
370
   -2
100
AcDbMText
 10
-321.5378505640072
 20
-206.5854398649457
 30
0
 40
6.25
 41
14.93055555555672
 71
    5
 72
    1
  1
3,36
  7
STANDARD
210
0
220
0
230
1
 50
90
 73
    2
 44
1
  0
SOLID
  5
99
100
AcDbEntity
  8
Dimension
  6
ByBlock
 62
    0
370
   -2
100
AcDbTrace
 10
-316.8503505640072
 20
-215.6132176427241
 30
0
 11
-317.8910622084393
 21
-209.3632176427241
 31
0
 12
-315.809638919575
 22
-209.3632176427241
 32
0
 13
-315.809638919575
 23
-209.3632176427241
 33
0
  0
SOLID
  5
9A
100
AcDbEntity
  8
Dimension
  6
ByBlock
 62
    0
370
   -2
100
AcDbTrace
 10
-316.8503505640072
 20
-218.9732176427241
 30
0
 11
-315.809638919575
 21
-225.2232176427241
 31
0
 12
-317.8910622084393
 22
-225.2232176427241
 32
0
 13
-317.8910622084393
 23
-225.2232176427241
 33
0
  0
LINE
  5
9B
100
AcDbEntity
  8
Dimension
  6
ByBlock
 62
    0
370
   -2
100
AcDbLine
 10
-348.163031866782
 20
-215.6132176427241
 11
-313.7253505640072
 21
-215.6132176427241
  0
LINE
  5
9C
100
AcDbEntity
  8
Dimension
  6
ByBlock
 62
    0
370
   -2
100
AcDbLine
 10
-348.163031866782
 20
-218.9732176427241
 11
-313.7253505640072
 21
-218.9732176427241
  0
ENDBLK
  5
63
330
61
100
AcDbEntity
  8
0
100
AcDbBlockEnd
  0
BLOCK
  5
65
330
64
100
AcDbEntity
  8
0
100
AcDbBlockBegin
  2
*D9
 70
    1
 10
0
 20
0
  3
*D9
  1

  0
LINE
  5
9D
100
AcDbEntity
  8
Dimension
  6
ByBlock
 62
    0
370
   -2
100
AcDbLine
 10
161.8536125273154
 20
-190.4976597809207
 11
187.8536125273154
 21
-190.4976597809207
  0
MTEXT
  5
9E
100
AcDbEntity
  8
Dimension
  6
CONTINUOUS
 62
    0
370
   -2
100
AcDbMText
 10
174.8536125273154
 20
-185.8101597809207
 30
0
 40
6.25
 41
7.638888888889277
 71
    5
 72
    1
  1
26
  7
STANDARD
210
0
220
0
230
1
 50
0
 73
    2
 44
1
  0
SOLID
  5
9F
100
AcDbEntity
  8
Dimension
  6
ByBlock
 62
    0
370
   -2
100
AcDbTrace
 10
161.8536125273154
 20
-190.4976597809207
 30
0
 11
168.1036125273154
 21
-189.4569481364886
 31
0
 12
168.1036125273154
 22
-191.5383714253528
 32
0
 13
168.1036125273154
 23
-191.5383714253528
 33
0
  0
SOLID
  5
A0
100
AcDbEntity
  8
Dimension
  6
ByBlock
 62
    0
370
   -2
100
AcDbTrace
 10
187.8536125273154
 20
-190.4976597809207
 30
0
 11
181.6036125273154
 21
-191.5383714253528
 31
0
 12
181.6036125273154
 22
-189.4569481364886
 32
0
 13
181.6036125273154
 23
-189.4569481364886
 33
0
  0
LINE
  5
A1
100
AcDbEntity
  8
Dimension
  6
ByBlock
 62
    0
370
   -2
100
AcDbLine
 10
161.8536125273154
 20
-195.7413667152308
 11
161.8536125273154
 21
-187.3726597809207
  0
LINE
  5
A2
100
AcDbEntity
  8
Dimension
  6
ByBlock
 62
    0
370
   -2
100
AcDbLine
 10
187.8536125273154
 20
-195.7413667152308
 11
187.8536125273154
 21
-187.3726597809207
  0
ENDBLK
  5
66
330
64
100
AcDbEntity
  8
0
100
AcDbBlockEnd
  0
BLOCK
  5
68
330
67
100
AcDbEntity
  8
0
100
AcDbBlockBegin
  2
*D10
 70
    1
 10
0
 20
0
  3
*D10
  1

  0
LINE
  5
A3
100
AcDbEntity
  8
Dimension
  6
ByBlock
 62
    0
370
   -2
100
AcDbLine
 10
199.3045070261028
 20
-197.3038667152308
 11
199.3045070261028
 21
-226.8038667152308
  0
MTEXT
  5
A4
100
AcDbEntity
  8
Dimension
  6
CONTINUOUS
 62
    0
370
   -2
100
AcDbMText
 10
194.6170070261028
 20
-212.0538667152308
 30
0
 40
6.25
 41
14.93055555555594
 71
    5
 72
    1
  1
29,5
  7
STANDARD
210
0
220
0
230
1
 50
90
 73
    2
 44
1
  0
SOLID
  5
A5
100
AcDbEntity
  8
Dimension
  6
ByBlock
 62
    0
370
   -2
100
AcDbTrace
 10
199.3045070261028
 20
-197.3038667152308
 30
0
 11
200.3452186705349
 21
-203.5538667152308
 31
0
 12
198.2637953816707
 22
-203.5538667152308
 32
0
 13
198.2637953816707
 23
-203.5538667152308
 33
0
  0
SOLID
  5
A6
100
AcDbEntity
  8
Dimension
  6
ByBlock
 62
    0
370
   -2
100
AcDbTrace
 10
199.3045070261028
 20
-226.8038667152308
 30
0
 11
198.2637953816707
 21
-220.5538667152308
 31
0
 12
200.3452186705349
 22
-220.5538667152308
 32
0
 13
200.3452186705349
 23
-220.5538667152308
 33
0
  0
LINE
  5
A7
100
AcDbEntity
  8
Dimension
  6
ByBlock
 62
    0
370
   -2
100
AcDbLine
 10
163.4161125273154
 20
-197.3038667152308
 11
202.4295070261028
 21
-197.3038667152308
  0
LINE
  5
A8
100
AcDbEntity
  8
Dimension
  6
ByBlock
 62
    0
370
   -2
100
AcDbLine
 10
163.4161125273154
 20
-226.8038667152308
 11
202.4295070261028
 21
-226.8038667152308
  0
ENDBLK
  5
69
330
67
100
AcDbEntity
  8
0
100
AcDbBlockEnd
  0
BLOCK
  5
6B
330
6A
100
AcDbEntity
  8
0
100
AcDbBlockBegin
  2
*D6
 70
    1
 10
0
 20
0
  3
*D6
  1

  0
LINE
  5
A9
100
AcDbEntity
  8
Dimension
  6
ByBlock
 62
    0
370
   -2
100
AcDbLine
 10
459.6464898811952
 20
-60.42098835253709
 11
485.6464898811952
 21
-60.42098835253709
  0
MTEXT
  5
AA
100
AcDbEntity
  8
Dimension
  6
CONTINUOUS
 62
    0
370
   -2
100
AcDbMText
 10
472.6464898811952
 20
-55.73348835253709
 30
0
 40
6.25
 41
7.638888888889277
 71
    5
 72
    1
  1
26
  7
STANDARD
210
0
220
0
230
1
 50
0
 73
    2
 44
1
  0
SOLID
  5
AB
100
AcDbEntity
  8
Dimension
  6
ByBlock
 62
    0
370
   -2
100
AcDbTrace
 10
459.6464898811952
 20
-60.42098835253709
 30
0
 11
465.8964898811952
 21
-59.38027670810499
 31
0
 12
465.8964898811952
 22
-61.46169999696919
 32
0
 13
465.8964898811952
 23
-61.46169999696919
 33
0
  0
SOLID
  5
AC
100
AcDbEntity
  8
Dimension
  6
ByBlock
 62
    0
370
   -2
100
AcDbTrace
 10
485.6464898811952
 20
-60.42098835253709
 30
0
 11
479.3964898811952
 21
-61.46169999696919
 31
0
 12
479.3964898811952
 22
-59.38027670810499
 32
0
 13
479.3964898811952
 23
-59.38027670810499
 33
0
  0
LINE
  5
AD
100
AcDbEntity
  8
Dimension
  6
ByBlock
 62
    0
370
   -2
100
AcDbLine
 10
459.6464898811952
 20
-66.00711509858067
 11
459.6464898811952
 21
-57.29598835253709
  0
LINE
  5
AE
100
AcDbEntity
  8
Dimension
  6
ByBlock
 62
    0
370
   -2
100
AcDbLine
 10
485.6464898811952
 20
-66.00711509858067
 11
485.6464898811952
 21
-57.29598835253709
  0
ENDBLK
  5
6C
330
6A
100
AcDbEntity
  8
0
100
AcDbBlockEnd
  0
BLOCK
  5
6E
330
6D
100
AcDbEntity
  8
0
100
AcDbBlockBegin
  2
*D8
 70
    1
 10
0
 20
0
  3
*D8
  1

  0
LINE
  5
AF
100
AcDbEntity
  8
Dimension
  6
ByBlock
 62
    0
370
   -2
100
AcDbLine
 10
66.85361252731539
 20
-286.0154467904531
 11
187.8536125273154
 21
-286.0154467904531
  0
MTEXT
  5
B0
100
AcDbEntity
  8
Dimension
  6
CONTINUOUS
 62
    0
370
   -2
100
AcDbMText
 10
127.3536125273154
 20
-281.3279467904531
 30
0
 40
6.25
 41
9.722222222222221
 71
    5
 72
    1
  1
121
  7
STANDARD
210
0
220
0
230
1
 50
0
 73
    2
 44
1
  0
SOLID
  5
B1
100
AcDbEntity
  8
Dimension
  6
ByBlock
 62
    0
370
   -2
100
AcDbTrace
 10
66.85361252731539
 20
-286.0154467904531
 30
0
 11
73.10361252731539
 21
-284.974735146021
 31
0
 12
73.10361252731539
 22
-287.0561584348852
 32
0
 13
73.10361252731539
 23
-287.0561584348852
 33
0
  0
SOLID
  5
B2
100
AcDbEntity
  8
Dimension
  6
ByBlock
 62
    0
370
   -2
100
AcDbTrace
 10
187.8536125273154
 20
-286.0154467904531
 30
0
 11
181.6036125273154
 21
-287.0561584348852
 31
0
 12
181.6036125273154
 22
-284.974735146021
 32
0
 13
181.6036125273154
 23
-284.974735146021
 33
0
  0
LINE
  5
B3
100
AcDbEntity
  8
Dimension
  6
ByBlock
 62
    0
370
   -2
100
AcDbLine
 10
66.85361252731539
 20
-274.8663667152308
 11
66.85361252731539
 21
-289.1404467904531
  0
LINE
  5
B4
100
AcDbEntity
  8
Dimension
  6
ByBlock
 62
    0
370
   -2
100
AcDbLine
 10
187.8536125273154
 20
-274.8663667152308
 11
187.8536125273154
 21
-289.1404467904531
  0
ENDBLK
  5
6F
330
6D
100
AcDbEntity
  8
0
100
AcDbBlockEnd
  0
BLOCK
  5
71
330
70
100
AcDbEntity
  8
0
100
AcDbBlockBegin
  2
*D11
 70
    1
 10
0
 20
0
  3
*D11
  1

  0
LINE
  5
B5
100
AcDbEntity
  8
Dimension
  6
ByBlock
 62
    0
370
   -2
100
AcDbLine
 10
-362.225531866782
 20
-204.7922027325116
 11
-330.875531866782
 21
-204.7922027325116
  0
MTEXT
  5
B6
100
AcDbEntity
  8
Dimension
  6
CONTINUOUS
 62
    0
370
   -2
100
AcDbMText
 10
-334.3477540890037
 20
-200.1047027325116
 30
0
 40
6.25
 41
14.93055555555672
 71
    5
 72
    1
  1
6,35
  7
STANDARD
210
0
220
0
230
1
 50
0
 73
    2
 44
1
  0
SOLID
  5
B7
100
AcDbEntity
  8
Dimension
  6
ByBlock
 62
    0
370
   -2
100
AcDbTrace
 10
-349.725531866782
 20
-204.7922027325116
 30
0
 11
-355.975531866782
 21
-205.8329143769437
 31
0
 12
-355.975531866782
 22
-203.7514910880795
 32
0
 13
-355.975531866782
 23
-203.7514910880795
 33
0
  0
SOLID
  5
B8
100
AcDbEntity
  8
Dimension
  6
ByBlock
 62
    0
370
   -2
100
AcDbTrace
 10
-343.375531866782
 20
-204.7922027325116
 30
0
 11
-337.125531866782
 21
-203.7514910880795
 31
0
 12
-337.125531866782
 22
-205.8329143769437
 32
0
 13
-337.125531866782
 23
-205.8329143769437
 33
0
  0
LINE
  5
B9
100
AcDbEntity
  8
Dimension
  6
ByBlock
 62
    0
370
   -2
100
AcDbLine
 10
-349.725531866782
 20
-214.0507176427241
 11
-349.725531866782
 21
-201.6672027325116
  0
LINE
  5
BA
100
AcDbEntity
  8
Dimension
  6
ByBlock
 62
    0
370
   -2
100
AcDbLine
 10
-343.375531866782
 20
-214.0507176427241
 11
-343.375531866782
 21
-201.6672027325116
  0
ENDBLK
  5
72
330
70
100
AcDbEntity
  8
0
100
AcDbBlockEnd
  0
ENDSEC
  0
SECTION
  2
ENTITIES
  0
LINE
  5
BB
100
AcDbEntity
  8
0
  6
ByLayer
 62
  256
370
   -1
100
AcDbLine
 10
289.1395734433271
 20
59.86889991297126
 11
212.1395734433271
 21
59.86889991297126
  0
LINE
  5
BC
100
AcDbEntity
  8
0
  6
ByLayer
 62
  256
370
   -1
100
AcDbLine
 10
289.1395734433271
 20
59.86889991297126
 11
289.1395734433271
 21
-17.13110008702874
  0
LINE
  5
BD
100
AcDbEntity
  8
0
  6
ByLayer
 62
  256
370
   -1
100
AcDbLine
 10
212.1395734433271
 20
59.86889991297126
 11
212.1395734433271
 21
-17.13110008702874
  0
LINE
  5
BE
100
AcDbEntity
  8
0
  6
ByLayer
 62
  256
370
   -1
100
AcDbLine
 10
289.1395734433271
 20
-17.13110008702874
 11
212.1395734433271
 21
-17.13110008702874
  0
LINE
  5
BF
100
AcDbEntity
  8
0
  6
ByLayer
 62
  256
370
   -1
100
AcDbLine
 10
180.0000000000001
 20
59.75000000000004
 11
106.5000000000001
 21
59.75000000000004
  0
LINE
  5
C0
100
AcDbEntity
  8
0
  6
ByLayer
 62
  256
370
   -1
100
AcDbLine
 10
180.0000000000001
 20
59.75000000000004
 11
180.0000000000001
 21
-15.74999999999996
  0
LINE
  5
C1
100
AcDbEntity
  8
0
  6
ByLayer
 62
  256
370
   -1
100
AcDbLine
 10
106.5000000000001
 20
59.75000000000004
 11
106.5000000000001
 21
-15.74999999999996
  0
LINE
  5
C2
100
AcDbEntity
  8
0
  6
ByLayer
 62
  256
370
   -1
100
AcDbLine
 10
180.0000000000001
 20
-15.74999999999996
 11
106.5000000000001
 21
-15.74999999999996
  0
LINE
  5
C3
100
AcDbEntity
  8
0
  6
ByLayer
 62
  256
370
   -1
100
AcDbLine
 10
143.2500000000001
 20
-15.74999999999996
 11
143.2500000000001
 21
6.250000000000043
  0
LINE
  5
C4
100
AcDbEntity
  8
0
  6
ByLayer
 62
  256
370
   -1
100
AcDbLine
 10
131.7500000000001
 20
6.250000000000043
 11
154.7500000000001
 21
6.250000000000043
  0
LINE
  5
C5
100
AcDbEntity
  8
0
  6
ByLayer
 62
  256
370
   -1
100
AcDbLine
 10
250.6395734433271
 20
-17.13110008702874
 11
250.6395734433271
 21
13.86889991297126
  0
LINE
  5
C6
100
AcDbEntity
  8
0
  6
ByLayer
 62
  256
370
   -1
100
AcDbLine
 10
239.1395734433271
 20
13.86889991297126
 11
262.1395734433271
 21
13.86889991297126
  0
LINE
  5
C7
100
AcDbEntity
  8
0
  6
ByLayer
 62
  256
370
   -1
100
AcDbLine
 10
66.70335800464079
 20
-67.5897813668287
 11
187.7033580046408
 21
-67.5897813668287
  0
LINE
  5
C8
100
AcDbEntity
  8
0
  6
ByLayer
 62
  256
370
   -1
100
AcDbLine
 10
66.70335800464079
 20
-67.5897813668287
 11
66.70335800464079
 21
-143.8897813668287
  0
LINE
  5
C9
100
AcDbEntity
  8
0
  6
ByLayer
 62
  256
370
   -1
100
AcDbLine
 10
187.7033580046408
 20
-67.5897813668287
 11
187.7033580046408
 21
-143.8897813668287
  0
LINE
  5
CA
100
AcDbEntity
  8
0
  6
ByLayer
 62
  256
370
   -1
100
AcDbLine
 10
66.70335800464079
 20
-143.8897813668287
 11
187.7033580046408
 21
-143.8897813668287
  0
MTEXT
  5
CB
100
AcDbEntity
  8
0
  6
ByLayer
 62
  256
370
   -1
100
AcDbMText
 10
240.1588921742232
 20
16.65864368344575
 30
0
 40
2
 41
20.7777777777779
 71
    1
 72
    1
  1
FPC CONN EDGE
  7
STANDARD
210
0
220
0
230
1
 50
0
 73
    2
 44
1
  0
MTEXT
  5
CC
100
AcDbEntity
  8
0
  6
ByLayer
 62
  256
370
   -1
100
AcDbMText
 10
132.7873095044827
 20
9.118977981022798
 30
0
 40
2
 41
20.7777777777779
 71
    1
 72
    1
  1
FPC CONN EDGE
  7
STANDARD
210
0
220
0
230
1
 50
0
 73
    2
 44
1
  0
LINE
  5
CD
100
AcDbEntity
  8
helper
  6
ByLayer
 62
  256
370
   -1
100
AcDbLine
 10
187.7033580046408
 20
-67.5897813668287
 11
161.7033580046408
 21
-67.5897813668287
  0
LINE
  5
CE
100
AcDbEntity
  8
helper
  6
ByLayer
 62
  256
370
   -1
100
AcDbLine
 10
161.7033580046408
 20
-67.5897813668287
 11
161.7033580046408
 21
-94.4697813668287
  0
LINE
  5
CF
100
AcDbEntity
  8
helper
  6
ByLayer
 62
  256
370
   -1
100
AcDbLine
 10
66.70335800464079
 20
-67.5897813668287
 11
98.70335800464079
 21
-67.5897813668287
  0
LINE
  5
D0
100
AcDbEntity
  8
helper
  6
ByLayer
 62
  256
370
   -1
100
AcDbLine
 10
98.70335800464079
 20
-67.5897813668287
 11
98.70335800464079
 21
-112.5897813668287
  0
LINE
  5
D1
100
AcDbEntity
  8
0
  6
ByLayer
 62
  256
370
   -1
100
AcDbLine
 10
98.70335800464079
 20
-112.5897813668287
 11
104.2033580046408
 21
-112.5897813668287
  0
LINE
  5
D2
100
AcDbEntity
  8
0
  6
ByLayer
 62
  256
370
   -1
100
AcDbLine
 10
161.7033580046408
 20
-94.4697813668287
 11
161.7033580046408
 21
-143.8897813668287
  0
DIMENSION
  5
D3
100
AcDbEntity
  8
Dimension
  6
ByLayer
 62
  256
370
   -1
100
AcDbDimension
  2
*D1
 10
187.7033580046408
 20
-60.44115462078513
 30
0
 11
174.7033580046408
 21
-55.75365462078513
 31
0
 70
   32
 71
    5
 72
    0
  3
Standard
 53
0
210
0
220
0
230
1
100
AcDbAlignedDimension
 13
161.7033580046408
 23
-67.5897813668287
 33
0
 14
187.7033580046408
 24
-67.5897813668287
 34
0
100
AcDbRotatedDimension
  0
DIMENSION
  5
D4
100
AcDbEntity
  8
Dimension
  6
ByLayer
 62
  256
370
   -1
100
AcDbDimension
  2
*D2
 10
197.8661887322023
 20
-94.4697813668287
 30
0
 11
193.1786887322023
 21
-81.0297813668287
 31
0
 70
   32
 71
    5
 72
    0
  3
Standard
 53
0
210
0
220
0
230
1
100
AcDbAlignedDimension
 13
161.7033580046408
 23
-67.5897813668287
 33
0
 14
161.7033580046408
 24
-94.4697813668287
 34
0
 50
90
100
AcDbRotatedDimension
  0
LINE
  5
D5
100
AcDbEntity
  8
0
  6
ByLayer
 62
  256
370
   -1
100
AcDbLine
 10
218.4902634202116
 20
-67.94687498303813
 11
339.4902634202116
 21
-67.94687498303813
  0
LINE
  5
D6
100
AcDbEntity
  8
0
  6
ByLayer
 62
  256
370
   -1
100
AcDbLine
 10
218.4902634202116
 20
-67.94687498303813
 11
218.4902634202116
 21
-144.2468749830381
  0
LINE
  5
D7
100
AcDbEntity
  8
0
  6
ByLayer
 62
  256
370
   -1
100
AcDbLine
 10
339.4902634202116
 20
-67.94687498303813
 11
339.4902634202116
 21
-144.2468749830381
  0
LINE
  5
D8
100
AcDbEntity
  8
0
  6
ByLayer
 62
  256
370
   -1
100
AcDbLine
 10
218.4902634202116
 20
-144.2468749830381
 11
339.4902634202116
 21
-144.2468749830381
  0
LINE
  5
D9
100
AcDbEntity
  8
helper
  6
ByLayer
 62
  256
370
   -1
100
AcDbLine
 10
339.4902634202116
 20
-67.94687498303813
 11
313.4902634202116
 21
-67.94687498303813
  0
LINE
  5
DA
100
AcDbEntity
  8
helper
  6
ByLayer
 62
  256
370
   -1
100
AcDbLine
 10
313.4902634202116
 20
-67.94687498303813
 11
313.4902634202116
 21
-94.82687498303812
  0
LINE
  5
DB
100
AcDbEntity
  8
0
  6
ByLayer
 62
  256
370
   -1
100
AcDbLine
 10
313.4902634202115
 20
-94.82687498303812
 11
313.4902634202115
 21
-144.2468749830381
  0
DIMENSION
  5
DC
100
AcDbEntity
  8
Dimension
  6
ByLayer
 62
  256
370
   -1
100
AcDbDimension
  2
*D3
 10
339.4902634202116
 20
-60.79824823699455
 30
0
 11
326.4902634202116
 21
-56.11074823699455
 31
0
 70
   32
 71
    5
 72
    0
  3
Standard
 53
0
210
0
220
0
230
1
100
AcDbAlignedDimension
 13
313.4902634202115
 23
-67.94687498303813
 33
0
 14
339.4902634202116
 24
-67.94687498303813
 34
0
100
AcDbRotatedDimension
  0
MTEXT
  5
DD
100
AcDbEntity
  8
0
  6
ByLayer
 62
  256
370
   -1
100
AcDbMText
 10
117.9549727229969
 20
-69.64471867731731
 30
0
 40
2
 41
20.88888846488471
 71
    1
 72
    1
  1
TTX050QHS-01C\PCAPACITIVE
  7
STANDARD
210
0
220
0
230
1
 50
0
 73
    2
 44
1
  0
MTEXT
  5
DE
100
AcDbEntity
  8
0
  6
ByLayer
 62
  256
370
   -1
100
AcDbMText
 10
263.8714599503921
 20
-70.40992222796896
 30
0
 40
2
 41
21.11111068710694
 71
    1
 72
    1
  1
TTX050QHS-01R\PRESISTIVE
  7
STANDARD
210
0
220
0
230
1
 50
0
 73
    2
 44
1
  0
DIMENSION
  5
DF
100
AcDbEntity
  8
Dimension
  6
ByLayer
 62
  256
370
   -1
100
AcDbDimension
  2
*D4
 10
187.7033580046408
 20
-156.466493839931
 30
0
 11
127.2033580046408
 21
-151.778993839931
 31
0
 70
   32
 71
    5
 72
    0
  3
Standard
 53
0
210
0
220
0
230
1
100
AcDbAlignedDimension
 13
66.70335800464079
 23
-143.8897813668287
 33
0
 14
187.7033580046408
 24
-143.8897813668287
 34
0
100
AcDbRotatedDimension
  0
DIMENSION
  5
E0
100
AcDbEntity
  8
Dimension
  6
ByLayer
 62
  256
370
   -1
100
AcDbDimension
  2
*D5
 10
54.49807539678953
 20
-143.8897813668287
 30
0
 11
49.81057539678953
 21
-105.7397813668287
 31
0
 70
   32
 71
    5
 72
    0
  3
Standard
 53
0
210
0
220
0
230
1
100
AcDbAlignedDimension
 13
66.70335800464079
 23
-67.5897813668287
 33
0
 14
66.70335800464079
 24
-143.8897813668287
 34
0
 50
90
100
AcDbRotatedDimension
  0
LINE
  5
E1
100
AcDbEntity
  8
0
  6
ByLayer
 62
  256
370
   -1
100
AcDbLine
 10
364.6464898811952
 20
-67.56961509858067
 11
485.6464898811952
 21
-67.56961509858067
  0
LINE
  5
E2
100
AcDbEntity
  8
0
  6
ByLayer
 62
  256
370
   -1
100
AcDbLine
 10
364.6464898811952
 20
-67.56961509858067
 11
364.6464898811952
 21
-143.8696150985807
  0
LINE
  5
E3
100
AcDbEntity
  8
0
  6
ByLayer
 62
  256
370
   -1
100
AcDbLine
 10
485.6464898811952
 20
-67.56961509858067
 11
485.6464898811952
 21
-143.8696150985807
  0
LINE
  5
E4
100
AcDbEntity
  8
0
  6
ByLayer
 62
  256
370
   -1
100
AcDbLine
 10
364.6464898811952
 20
-143.8696150985807
 11
485.6464898811952
 21
-143.8696150985807
  0
LINE
  5
E5
100
AcDbEntity
  8
helper
  6
ByLayer
 62
  256
370
   -1
100
AcDbLine
 10
485.6464898811952
 20
-67.56961509858067
 11
459.6464898811952
 21
-67.56961509858067
  0
LINE
  5
E6
100
AcDbEntity
  8
helper
  6
ByLayer
 62
  256
370
   -1
100
AcDbLine
 10
459.6464898811952
 20
-67.56961509858067
 11
459.6464898811952
 21
-94.44961509858067
  0
LINE
  5
E7
100
AcDbEntity
  8
0
  6
ByLayer
 62
  256
370
   -1
100
AcDbLine
 10
459.6464898811952
 20
-94.44961509858067
 11
459.6464898811952
 21
-143.8696150985807
  0
DIMENSION
  5
E8
100
AcDbEntity
  8
Dimension
  6
ByLayer
 62
  256
370
   -1
100
AcDbDimension
  2
*D6
 10
485.6464898811952
 20
-60.42098835253709
 30
0
 11
472.6464898811952
 21
-55.73348835253709
 31
0
 70
   32
 71
    5
 72
    0
  3
Standard
 53
0
210
0
220
0
230
1
100
AcDbAlignedDimension
 13
459.6464898811952
 23
-67.56961509858067
 33
0
 14
485.6464898811952
 24
-67.56961509858067
 34
0
100
AcDbRotatedDimension
  0
MTEXT
  5
E9
100
AcDbEntity
  8
0
  6
ByLayer
 62
  256
370
   -1
100
AcDbMText
 10
418.4403457742441
 20
-70.82431197176264
 30
0
 40
2
 41
20.6666666666668
 71
    1
 72
    1
  1
TTX050QHI-04R\PRESISTIVE
  7
STANDARD
210
0
220
0
230
1
 50
0
 73
    2
 44
1
  0
LINE
  5
EA
100
AcDbEntity
  8
0
  6
ByLayer
 62
  256
370
   -1
100
AcDbLine
 10
66.85361252731539
 20
-197.3038667152308
 11
66.85361252731539
 21
-273.3038667152308
  0
LINE
  5
EB
100
AcDbEntity
  8
0
  6
ByLayer
 62
  256
370
   -1
100
AcDbLine
 10
66.85361252731539
 20
-197.3038667152308
 11
187.8536125273154
 21
-197.3038667152308
  0
LINE
  5
EC
100
AcDbEntity
  8
0
  6
ByLayer
 62
  256
370
   -1
100
AcDbLine
 10
66.85361252731539
 20
-273.3038667152308
 11
187.8536125273154
 21
-273.3038667152308
  0
LINE
  5
ED
100
AcDbEntity
  8
0
  6
ByLayer
 62
  256
370
   -1
100
AcDbLine
 10
187.8536125273154
 20
-197.3038667152308
 11
187.8536125273154
 21
-273.3038667152308
  0
LINE
  5
EE
100
AcDbEntity
  8
helper
  6
ByLayer
 62
  256
370
   -1
100
AcDbLine
 10
187.8536125273154
 20
-197.3038667152308
 11
161.8536125273154
 21
-197.3038667152308
  0
LINE
  5
EF
100
AcDbEntity
  8
helper
  6
ByLayer
 62
  256
370
   -1
100
AcDbLine
 10
161.8536125273154
 20
-197.3038667152308
 11
161.8536125273154
 21
-226.8038667152308
  0
LINE
  5
F0
100
AcDbEntity
  8
0
  6
ByLayer
 62
  256
370
   -1
100
AcDbLine
 10
161.8536125273154
 20
-226.8038667152308
 11
140.8536125273154
 21
-226.8038667152308
  0
LINE
  5
F1
100
AcDbEntity
  8
0
  6
ByLayer
 62
  256
370
   -1
100
AcDbLine
 10
161.8536125273154
 20
-226.8038667152308
 11
161.8536125273154
 21
-273.3038667152308
  0
LINE
  5
F2
100
AcDbEntity
  8
0
  6
ByLayer
 62
  256
370
   -1
100
AcDbLine
 10
140.8536125273154
 20
-226.8038667152308
 11
140.8536125273154
 21
-251.1038667152308
  0
LINE
  5
F3
100
AcDbEntity
  8
0
  6
ByLayer
 62
  256
370
   -1
100
AcDbLine
 10
109.8536125273154
 20
-273.3038667152308
 11
109.8536125273154
 21
-251.1038667152308
  0
LINE
  5
F4
100
AcDbEntity
  8
0
  6
ByLayer
 62
  256
370
   -1
100
AcDbLine
 10
109.8536125273154
 20
-251.1038667152308
 11
140.8536125273154
 21
-251.1038667152308
  0
MTEXT
  5
F5
100
AcDbEntity
  8
0
  6
ByLayer
 62
  256
370
   -1
100
AcDbMText
 10
116.7899022063784
 20
-200.65330345104
 30
0
 40
2
 41
17.11111111111136
 71
    1
 72
    1
  1
ER-TFT050-6\PRESSITIVE
  7
STANDARD
210
0
220
0
230
1
 50
0
 73
    2
 44
1
  0
DIMENSION
  5
F6
100
AcDbEntity
  8
Dimension
  6
ByLayer
 62
  256
370
   -1
100
AcDbDimension
  2
*D7
 10
54.76327284397642
 20
-273.3038667152308
 30
0
 11
50.07577284397642
 21
-235.3038667152308
 31
0
 70
   32
 71
    5
 72
    0
  3
Standard
 53
0
210
0
220
0
230
1
100
AcDbAlignedDimension
 13
66.85361252731539
 23
-197.3038667152308
 33
0
 14
66.85361252731539
 24
-273.3038667152308
 34
0
 50
90
100
AcDbRotatedDimension
  0
DIMENSION
  5
F7
100
AcDbEntity
  8
Dimension
  6
ByLayer
 62
  256
370
   -1
100
AcDbDimension
  2
*D8
 10
187.8536125273154
 20
-286.0154467904531
 30
0
 11
127.3536125273154
 21
-281.3279467904531
 31
0
 70
   32
 71
    5
 72
    0
  3
Standard
 53
0
210
0
220
0
230
1
100
AcDbAlignedDimension
 13
66.85361252731539
 23
-273.3038667152308
 33
0
 14
187.8536125273154
 24
-273.3038667152308
 34
0
100
AcDbRotatedDimension
  0
LINE
  5
F8
100
AcDbEntity
  8
0
  6
ByLayer
 62
  256
370
   -1
100
AcDbLine
 10
218.7313066278338
 20
-197.585552804093
 11
218.7313066278338
 21
-273.585552804093
  0
LINE
  5
F9
100
AcDbEntity
  8
0
  6
ByLayer
 62
  256
370
   -1
100
AcDbLine
 10
218.7313066278338
 20
-197.585552804093
 11
339.7313066278338
 21
-197.585552804093
  0
LINE
  5
FA
100
AcDbEntity
  8
0
  6
ByLayer
 62
  256
370
   -1
100
AcDbLine
 10
218.7313066278338
 20
-273.585552804093
 11
339.7313066278338
 21
-273.585552804093
  0
LINE
  5
FB
100
AcDbEntity
  8
0
  6
ByLayer
 62
  256
370
   -1
100
AcDbLine
 10
339.7313066278338
 20
-197.585552804093
 11
339.7313066278338
 21
-273.585552804093
  0
LINE
  5
FC
100
AcDbEntity
  8
0
  6
ByLayer
 62
  256
370
   -1
100
AcDbLine
 10
313.7313066278338
 20
-227.085552804093
 11
292.7313066278338
 21
-227.085552804093
  0
LINE
  5
FD
100
AcDbEntity
  8
0
  6
ByLayer
 62
  256
370
   -1
100
AcDbLine
 10
313.7313066278338
 20
-227.085552804093
 11
313.7313066278338
 21
-273.585552804093
  0
LINE
  5
FE
100
AcDbEntity
  8
0
  6
ByLayer
 62
  256
370
   -1
100
AcDbLine
 10
292.7313066278338
 20
-227.085552804093
 11
292.7313066278338
 21
-251.385552804093
  0
LINE
  5
FF
100
AcDbEntity
  8
0
  6
ByLayer
 62
  256
370
   -1
100
AcDbLine
 10
261.7313066278338
 20
-273.585552804093
 11
261.7313066278338
 21
-251.385552804093
  0
LINE
  5
100
100
AcDbEntity
  8
0
  6
ByLayer
 62
  256
370
   -1
100
AcDbLine
 10
261.7313066278338
 20
-251.385552804093
 11
292.7313066278338
 21
-251.385552804093
  0
DIMENSION
  5
101
100
AcDbEntity
  8
Dimension
  6
ByLayer
 62
  256
370
   -1
100
AcDbDimension
  2
*D9
 10
187.8536125273154
 20
-190.4976597809207
 30
0
 11
174.8536125273154
 21
-185.8101597809207
 31
0
 70
   32
 71
    5
 72
    0
  3
Standard
 53
0
210
0
220
0
230
1
100
AcDbAlignedDimension
 13
161.8536125273154
 23
-197.3038667152308
 33
0
 14
187.8536125273154
 24
-197.3038667152308
 34
0
100
AcDbRotatedDimension
  0
DIMENSION
  5
102
100
AcDbEntity
  8
Dimension
  6
ByLayer
 62
  256
370
   -1
100
AcDbDimension
  2
*D10
 10
199.3045070261028
 20
-226.8038667152308
 30
0
 11
194.6170070261028
 21
-212.0538667152308
 31
0
 70
   32
 71
    5
 72
    0
  3
Standard
 53
0
210
0
220
0
230
1
100
AcDbAlignedDimension
 13
161.8536125273154
 23
-197.3038667152308
 33
0
 14
161.8536125273154
 24
-226.8038667152308
 34
0
 50
90
100
AcDbRotatedDimension
  0
LINE
  5
103
100
AcDbEntity
  8
helper
  6
ByLayer
 62
  256
370
   -1
100
AcDbLine
 10
339.7313066278338
 20
-197.585552804093
 11
324.4313066278337
 21
-197.585552804093
  0
LINE
  5
104
100
AcDbEntity
  8
helper
  6
ByLayer
 62
  256
370
   -1
100
AcDbLine
 10
324.4313066278337
 20
-197.585552804093
 11
324.4313066278337
 21
-229.585552804093
  0
LINE
  5
105
100
AcDbEntity
  8
0
  6
ByLayer
 62
  256
370
   -1
100
AcDbLine
 10
324.4313066278337
 20
-229.585552804093
 11
320.9313066278337
 21
-229.585552804093
  0
LINE
  5
106
100
AcDbEntity
  8
0
  6
ByLayer
 62
  256
370
   -1
100
AcDbLine
 10
320.9313066278337
 20
-229.585552804093
 11
320.9313066278337
 21
-273.585552804093
  0
LINE
  5
107
100
AcDbEntity
  8
0
  6
ByLayer
 62
  256
370
   -1
100
AcDbLine
 10
324.4313066278337
 20
-229.5855528040931
 11
324.4313066278337
 21
-247.0855528040931
  0
LINE
  5
108
100
AcDbEntity
  8
0
  6
ByLayer
 62
  256
370
   -1
100
AcDbLine
 10
324.4313066278337
 20
-247.0855528040931
 11
335.9313066278337
 21
-247.0855528040931
  0
LINE
  5
109
100
AcDbEntity
  8
0
  6
ByLayer
 62
  256
370
   -1
100
AcDbLine
 10
335.9313066278337
 20
-247.0855528040931
 11
335.9313066278337
 21
-273.585552804093
  0
MTEXT
  5
10A
100
AcDbEntity
  8
0
  6
ByLayer
 62
  256
370
   -1
100
AcDbMText
 10
271.6243530793885
 20
-199.4558102485978
 30
0
 40
2
 41
17.11111111111136
 71
    1
 72
    1
  1
ER-TFT050-6\PCAPACITIVE
  7
STANDARD
210
0
220
0
230
1
 50
0
 73
    2
 44
1
  0
LINE
  5
10B
100
AcDbEntity
  8
0
  6
ByLayer
 62
  256
370
   -1
100
AcDbLine
 10
459.6464898811952
 20
-94.44961509858067
 11
438.6464898811952
 21
-94.44961509858067
  0
LINE
  5
10C
100
AcDbEntity
  8
0
  6
ByLayer
 62
  256
370
   -1
100
AcDbLine
 10
438.6464898811952
 20
-94.44961509858067
 11
438.6464898811952
 21
-128.4496150985807
  0
LINE
  5
10D
100
AcDbEntity
  8
0
  6
ByLayer
 62
  256
370
   -1
100
AcDbLine
 10
438.6464898811952
 20
-128.4496150985807
 11
411.6464898811952
 21
-128.4496150985807
  0
LINE
  5
10E
100
AcDbEntity
  8
0
  6
ByLayer
 62
  256
370
   -1
100
AcDbLine
 10
411.6464898811952
 20
-128.4496150985807
 11
411.6464898811952
 21
-143.8696150985807
  0
LINE
  5
10F
100
AcDbEntity
  8
0
  6
ByLayer
 62
  256
370
   -1
100
AcDbLine
 10
313.4902634202115
 20
-94.82687498303812
 11
292.4902634202115
 21
-94.82687498303812
  0
LINE
  5
110
100
AcDbEntity
  8
0
  6
ByLayer
 62
  256
370
   -1
100
AcDbLine
 10
292.4902634202115
 20
-94.82687498303812
 11
292.4902634202115
 21
-128.8268749830381
  0
LINE
  5
111
100
AcDbEntity
  8
0
  6
ByLayer
 62
  256
370
   -1
100
AcDbLine
 10
292.4902634202115
 20
-128.8268749830381
 11
265.4902634202115
 21
-128.8268749830381
  0
LINE
  5
112
100
AcDbEntity
  8
0
  6
ByLayer
 62
  256
370
   -1
100
AcDbLine
 10
265.4902634202115
 20
-128.8268749830381
 11
265.4902634202115
 21
-144.2468749830381
  0
LINE
  5
113
100
AcDbEntity
  8
0
  6
ByLayer
 62
  256
370
   -1
100
AcDbLine
 10
161.7033580046408
 20
-94.4697813668287
 11
140.7033580046408
 21
-94.4697813668287
  0
LINE
  5
114
100
AcDbEntity
  8
0
  6
ByLayer
 62
  256
370
   -1
100
AcDbLine
 10
140.7033580046408
 20
-94.4697813668287
 11
140.7033580046408
 21
-128.4697813668287
  0
LINE
  5
115
100
AcDbEntity
  8
0
  6
ByLayer
 62
  256
370
   -1
100
AcDbLine
 10
140.7033580046408
 20
-128.4697813668287
 11
113.7033580046408
 21
-128.4697813668287
  0
LINE
  5
116
100
AcDbEntity
  8
0
  6
ByLayer
 62
  256
370
   -1
100
AcDbLine
 10
113.7033580046408
 20
-128.4697813668287
 11
113.7033580046408
 21
-143.8897813668287
  0
LINE
  5
117
100
AcDbEntity
  8
0
  6
ByLayer
 62
  256
370
   -1
100
AcDbLine
 10
104.2033580046408
 20
-112.5897813668287
 11
104.2033580046408
 21
-122.5897813668287
  0
LINE
  5
118
100
AcDbEntity
  8
0
  6
ByLayer
 62
  256
370
   -1
100
AcDbLine
 10
104.2033580046408
 20
-122.5897813668287
 11
106.2033580046408
 21
-122.5897813668287
  0
LINE
  5
119
100
AcDbEntity
  8
0
  6
ByLayer
 62
  256
370
   -1
100
AcDbLine
 10
98.70335800464079
 20
-112.5897813668287
 11
98.70335800464079
 21
-122.5897813668287
  0
LINE
  5
11A
100
AcDbEntity
  8
0
  6
ByLayer
 62
  256
370
   -1
100
AcDbLine
 10
98.70335800464079
 20
-122.5897813668287
 11
89.70335800464079
 21
-122.5897813668287
  0
LINE
  5
11B
100
AcDbEntity
  8
0
  6
ByLayer
 62
  256
370
   -1
100
AcDbLine
 10
89.70335800464079
 20
-122.5897813668287
 11
89.70335800464079
 21
-143.8897813668287
  0
LINE
  5
11C
100
AcDbEntity
  8
0
  6
ByLayer
 62
  256
370
   -1
100
AcDbLine
 10
106.2033580046408
 20
-122.5897813668287
 11
106.2033580046408
 21
-143.8897813668287
  0
LINE
  5
11D
100
AcDbEntity
  8
0
  6
ByLayer
 62
  256
370
   -1
100
AcDbLine
 10
-343.3755318667815
 20
-67.18775294046605
 11
-464.3755318667815
 21
-67.18775294046605
  0
LINE
  5
11E
100
AcDbEntity
  8
0
  6
ByLayer
 62
  256
370
   -1
100
AcDbLine
 10
-343.3755318667815
 20
-67.18775294046605
 11
-343.3755318667815
 21
-143.487752940466
  0
LINE
  5
11F
100
AcDbEntity
  8
0
  6
ByLayer
 62
  256
370
   -1
100
AcDbLine
 10
-464.3755318667815
 20
-67.18775294046605
 11
-464.3755318667815
 21
-143.487752940466
  0
LINE
  5
120
100
AcDbEntity
  8
0
  6
ByLayer
 62
  256
370
   -1
100
AcDbLine
 10
-343.3755318667815
 20
-143.487752940466
 11
-464.3755318667815
 21
-143.487752940466
  0
LINE
  5
121
100
AcDbEntity
  8
helper
  6
ByLayer
 62
  256
370
   -1
100
AcDbLine
 10
-464.3755318667815
 20
-67.18775294046605
 11
-438.3755318667815
 21
-67.18775294046605
  0
LINE
  5
122
100
AcDbEntity
  8
helper
  6
ByLayer
 62
  256
370
   -1
100
AcDbLine
 10
-438.3755318667815
 20
-67.18775294046605
 11
-438.3755318667815
 21
-94.06775294046605
  0
LINE
  5
123
100
AcDbEntity
  8
helper
  6
ByLayer
 62
  256
370
   -1
100
AcDbLine
 10
-343.3755318667815
 20
-67.18775294046605
 11
-375.3755318667815
 21
-67.18775294046605
  0
LINE
  5
124
100
AcDbEntity
  8
helper
  6
ByLayer
 62
  256
370
   -1
100
AcDbLine
 10
-375.3755318667815
 20
-67.18775294046605
 11
-375.3755318667815
 21
-112.1877529404661
  0
LINE
  5
125
100
AcDbEntity
  8
0
  6
ByLayer
 62
  256
370
   -1
100
AcDbLine
 10
-375.3755318667815
 20
-112.1877529404661
 11
-380.8755318667815
 21
-112.1877529404661
  0
LINE
  5
126
100
AcDbEntity
  8
0
  6
ByLayer
 62
  256
370
   -1
100
AcDbLine
 10
-438.3755318667814
 20
-94.06775294046605
 11
-438.3755318667814
 21
-143.487752940466
  0
MTEXT
  5
127
100
AcDbEntity
  8
0
  6
ByLayer
 62
  256
370
   -1
100
AcDbMText
 10
-394.6271465851377
 20
-69.24269025095467
 30
0
 40
2
 41
20.88888846488471
 71
    3
 72
    1
  1
TTX050QHS-01C\PCAPACITIVE
  7
STANDARD
210
0
220
0
230
1
 50
0
 73
    2
 44
1
  0
LINE
  5
128
100
AcDbEntity
  8
0
  6
ByLayer
 62
  256
370
   -1
100
AcDbLine
 10
-438.3755318667815
 20
-94.06775294046605
 11
-417.3755318667815
 21
-94.06775294046605
  0
LINE
  5
129
100
AcDbEntity
  8
0
  6
ByLayer
 62
  256
370
   -1
100
AcDbLine
 10
-417.3755318667815
 20
-94.06775294046605
 11
-417.3755318667815
 21
-128.0677529404661
  0
LINE
  5
12A
100
AcDbEntity
  8
0
  6
ByLayer
 62
  256
370
   -1
100
AcDbLine
 10
-417.3755318667815
 20
-128.0677529404661
 11
-390.3755318667815
 21
-128.0677529404661
  0
LINE
  5
12B
100
AcDbEntity
  8
0
  6
ByLayer
 62
  256
370
   -1
100
AcDbLine
 10
-390.3755318667815
 20
-128.0677529404661
 11
-390.3755318667815
 21
-143.487752940466
  0
LINE
  5
12C
100
AcDbEntity
  8
0
  6
ByLayer
 62
  256
370
   -1
100
AcDbLine
 10
-380.8755318667815
 20
-112.1877529404661
 11
-380.8755318667815
 21
-122.1877529404661
  0
LINE
  5
12D
100
AcDbEntity
  8
0
  6
ByLayer
 62
  256
370
   -1
100
AcDbLine
 10
-380.8755318667815
 20
-122.1877529404661
 11
-382.8755318667815
 21
-122.1877529404661
  0
LINE
  5
12E
100
AcDbEntity
  8
0
  6
ByLayer
 62
  256
370
   -1
100
AcDbLine
 10
-375.3755318667815
 20
-112.1877529404661
 11
-375.3755318667815
 21
-122.1877529404661
  0
LINE
  5
12F
100
AcDbEntity
  8
0
  6
ByLayer
 62
  256
370
   -1
100
AcDbLine
 10
-375.3755318667815
 20
-122.1877529404661
 11
-366.3755318667815
 21
-122.1877529404661
  0
LINE
  5
130
100
AcDbEntity
  8
0
  6
ByLayer
 62
  256
370
   -1
100
AcDbLine
 10
-366.3755318667815
 20
-122.1877529404661
 11
-366.3755318667815
 21
-143.4877529404661
  0
LINE
  5
131
100
AcDbEntity
  8
0
  6
ByLayer
 62
  256
370
   -1
100
AcDbLine
 10
-382.8755318667815
 20
-122.1877529404661
 11
-382.8755318667815
 21
-143.4877529404661
  0
LINE
  5
132
100
AcDbEntity
  8
0
  6
ByLayer
 62
  256
370
   -1
100
AcDbLine
 10
-180.1337733533264
 20
-66.79269959006618
 11
-301.1337733533264
 21
-66.79269959006618
  0
LINE
  5
133
100
AcDbEntity
  8
0
  6
ByLayer
 62
  256
370
   -1
100
AcDbLine
 10
-180.1337733533264
 20
-66.79269959006618
 11
-180.1337733533264
 21
-143.0926995900662
  0
LINE
  5
134
100
AcDbEntity
  8
0
  6
ByLayer
 62
  256
370
   -1
100
AcDbLine
 10
-301.1337733533264
 20
-66.79269959006618
 11
-301.1337733533264
 21
-143.0926995900662
  0
LINE
  5
135
100
AcDbEntity
  8
0
  6
ByLayer
 62
  256
370
   -1
100
AcDbLine
 10
-180.1337733533264
 20
-143.0926995900662
 11
-301.1337733533264
 21
-143.0926995900662
  0
LINE
  5
136
100
AcDbEntity
  8
helper
  6
ByLayer
 62
  256
370
   -1
100
AcDbLine
 10
-301.1337733533264
 20
-66.79269959006618
 11
-275.1337733533264
 21
-66.79269959006618
  0
LINE
  5
137
100
AcDbEntity
  8
helper
  6
ByLayer
 62
  256
370
   -1
100
AcDbLine
 10
-275.1337733533264
 20
-66.79269959006618
 11
-275.1337733533264
 21
-93.6726995900662
  0
LINE
  5
138
100
AcDbEntity
  8
0
  6
ByLayer
 62
  256
370
   -1
100
AcDbLine
 10
-275.1337733533263
 20
-93.6726995900662
 11
-275.1337733533263
 21
-143.0926995900662
  0
MTEXT
  5
139
100
AcDbEntity
  8
0
  6
ByLayer
 62
  256
370
   -1
100
AcDbMText
 10
-225.5149698835069
 20
-69.25574683499701
 30
0
 40
2
 41
21.11111068710693
 71
    3
 72
    1
  1
TTX050QHS-01R\PRESISTIVE
  7
STANDARD
210
0
220
0
230
1
 50
0
 73
    2
 44
1
  0
LINE
  5
13A
100
AcDbEntity
  8
0
  6
ByLayer
 62
  256
370
   -1
100
AcDbLine
 10
-275.1337733533263
 20
-93.6726995900662
 11
-254.1337733533263
 21
-93.6726995900662
  0
LINE
  5
13B
100
AcDbEntity
  8
0
  6
ByLayer
 62
  256
370
   -1
100
AcDbLine
 10
-254.1337733533263
 20
-93.6726995900662
 11
-254.1337733533263
 21
-127.6726995900662
  0
LINE
  5
13C
100
AcDbEntity
  8
0
  6
ByLayer
 62
  256
370
   -1
100
AcDbLine
 10
-254.1337733533263
 20
-127.6726995900662
 11
-227.1337733533263
 21
-127.6726995900662
  0
LINE
  5
13D
100
AcDbEntity
  8
0
  6
ByLayer
 62
  256
370
   -1
100
AcDbLine
 10
-227.1337733533263
 20
-127.6726995900662
 11
-227.1337733533263
 21
-143.0926995900662
  0
LINE
  5
13E
100
AcDbEntity
  8
0
  6
ByLayer
 62
  256
370
   -1
100
AcDbLine
 10
-27.68735837306446
 20
-67.34852991201674
 11
-148.6873583730645
 21
-67.34852991201674
  0
LINE
  5
13F
100
AcDbEntity
  8
0
  6
ByLayer
 62
  256
370
   -1
100
AcDbLine
 10
-27.68735837306446
 20
-67.34852991201674
 11
-27.68735837306446
 21
-143.6485299120167
  0
LINE
  5
140
100
AcDbEntity
  8
0
  6
ByLayer
 62
  256
370
   -1
100
AcDbLine
 10
-148.6873583730645
 20
-67.34852991201674
 11
-148.6873583730645
 21
-143.6485299120167
  0
LINE
  5
141
100
AcDbEntity
  8
0
  6
ByLayer
 62
  256
370
   -1
100
AcDbLine
 10
-27.68735837306446
 20
-143.6485299120167
 11
-148.6873583730645
 21
-143.6485299120167
  0
LINE
  5
142
100
AcDbEntity
  8
helper
  6
ByLayer
 62
  256
370
   -1
100
AcDbLine
 10
-148.6873583730645
 20
-67.34852991201674
 11
-122.6873583730645
 21
-67.34852991201674
  0
LINE
  5
143
100
AcDbEntity
  8
helper
  6
ByLayer
 62
  256
370
   -1
100
AcDbLine
 10
-122.6873583730645
 20
-67.34852991201674
 11
-122.6873583730645
 21
-94.22852991201674
  0
LINE
  5
144
100
AcDbEntity
  8
0
  6
ByLayer
 62
  256
370
   -1
100
AcDbLine
 10
-122.6873583730645
 20
-94.22852991201674
 11
-122.6873583730645
 21
-143.6485299120167
  0
MTEXT
  5
145
100
AcDbEntity
  8
0
  6
ByLayer
 62
  256
370
   -1
100
AcDbMText
 10
-81.48121426611334
 20
-70.60322678519873
 30
0
 40
2
 41
20.66666666666679
 71
    3
 72
    1
  1
TTX050QHI-04R\PRESISTIVE
  7
STANDARD
210
0
220
0
230
1
 50
0
 73
    2
 44
1
  0
LINE
  5
146
100
AcDbEntity
  8
0
  6
ByLayer
 62
  256
370
   -1
100
AcDbLine
 10
-122.6873583730645
 20
-94.22852991201674
 11
-101.6873583730645
 21
-94.22852991201674
  0
LINE
  5
147
100
AcDbEntity
  8
0
  6
ByLayer
 62
  256
370
   -1
100
AcDbLine
 10
-101.6873583730645
 20
-94.22852991201674
 11
-101.6873583730645
 21
-128.2285299120167
  0
LINE
  5
148
100
AcDbEntity
  8
0
  6
ByLayer
 62
  256
370
   -1
100
AcDbLine
 10
-101.6873583730645
 20
-128.2285299120167
 11
-74.68735837306446
 21
-128.2285299120167
  0
LINE
  5
149
100
AcDbEntity
  8
0
  6
ByLayer
 62
  256
370
   -1
100
AcDbLine
 10
-74.68735837306446
 20
-128.2285299120167
 11
-74.68735837306446
 21
-143.6485299120167
  0
LINE
  5
14A
100
AcDbEntity
  8
0
  6
ByLayer
 62
  256
370
   -1
100
AcDbLine
 10
-343.375531866782
 20
-215.6132176427241
 11
-343.375531866782
 21
-291.6132176427241
  0
LINE
  5
14B
100
AcDbEntity
  8
0
  6
ByLayer
 62
  256
370
   -1
100
AcDbLine
 10
-343.375531866782
 20
-215.6132176427241
 11
-464.375531866782
 21
-215.6132176427241
  0
LINE
  5
14C
100
AcDbEntity
  8
0
  6
ByLayer
 62
  256
370
   -1
100
AcDbLine
 10
-343.375531866782
 20
-291.6132176427241
 11
-464.375531866782
 21
-291.6132176427241
  0
LINE
  5
14D
100
AcDbEntity
  8
0
  6
ByLayer
 62
  256
370
   -1
100
AcDbLine
 10
-464.375531866782
 20
-215.6132176427241
 11
-464.375531866782
 21
-291.6132176427241
  0
LINE
  5
14E
100
AcDbEntity
  8
helper
  6
ByLayer
 62
  256
370
   -1
100
AcDbLine
 10
-464.375531866782
 20
-215.6132176427241
 11
-438.375531866782
 21
-215.6132176427241
  0
LINE
  5
14F
100
AcDbEntity
  8
helper
  6
ByLayer
 62
  256
370
   -1
100
AcDbLine
 10
-438.375531866782
 20
-215.6132176427241
 11
-438.375531866782
 21
-245.1132176427241
  0
LINE
  5
150
100
AcDbEntity
  8
0
  6
ByLayer
 62
  256
370
   -1
100
AcDbLine
 10
-438.375531866782
 20
-245.1132176427241
 11
-417.375531866782
 21
-245.1132176427241
  0
LINE
  5
151
100
AcDbEntity
  8
0
  6
ByLayer
 62
  256
370
   -1
100
AcDbLine
 10
-438.375531866782
 20
-245.1132176427241
 11
-438.375531866782
 21
-291.6132176427241
  0
LINE
  5
152
100
AcDbEntity
  8
0
  6
ByLayer
 62
  256
370
   -1
100
AcDbLine
 10
-417.375531866782
 20
-245.1132176427241
 11
-417.375531866782
 21
-269.4132176427241
  0
LINE
  5
153
100
AcDbEntity
  8
0
  6
ByLayer
 62
  256
370
   -1
100
AcDbLine
 10
-386.375531866782
 20
-291.6132176427241
 11
-386.375531866782
 21
-269.4132176427241
  0
LINE
  5
154
100
AcDbEntity
  8
0
  6
ByLayer
 62
  256
370
   -1
100
AcDbLine
 10
-386.375531866782
 20
-269.4132176427241
 11
-417.375531866782
 21
-269.4132176427241
  0
MTEXT
  5
155
100
AcDbEntity
  8
0
  6
ByLayer
 62
  256
370
   -1
100
AcDbMText
 10
-393.311821545845
 20
-218.9626543785333
 30
0
 40
2
 41
17.11111111111136
 71
    3
 72
    1
  1
ER-TFT050-6\PRESSITIVE
  7
STANDARD
210
0
220
0
230
1
 50
0
 73
    2
 44
1
  0
LINE
  5
156
100
AcDbEntity
  8
0
  6
ByLayer
 62
  256
370
   -1
100
AcDbLine
 10
-180.5385912000207
 20
-215.604539296747
 11
-180.5385912000207
 21
-291.604539296747
  0
LINE
  5
157
100
AcDbEntity
  8
0
  6
ByLayer
 62
  256
370
   -1
100
AcDbLine
 10
-180.5385912000207
 20
-215.604539296747
 11
-301.5385912000207
 21
-215.604539296747
  0
LINE
  5
158
100
AcDbEntity
  8
0
  6
ByLayer
 62
  256
370
   -1
100
AcDbLine
 10
-180.5385912000207
 20
-291.604539296747
 11
-301.5385912000207
 21
-291.604539296747
  0
LINE
  5
159
100
AcDbEntity
  8
0
  6
ByLayer
 62
  256
370
   -1
100
AcDbLine
 10
-301.5385912000207
 20
-215.604539296747
 11
-301.5385912000207
 21
-291.604539296747
  0
LINE
  5
15A
100
AcDbEntity
  8
0
  6
ByLayer
 62
  256
370
   -1
100
AcDbLine
 10
-275.5385912000207
 20
-245.104539296747
 11
-254.5385912000207
 21
-245.104539296747
  0
LINE
  5
15B
100
AcDbEntity
  8
0
  6
ByLayer
 62
  256
370
   -1
100
AcDbLine
 10
-275.5385912000207
 20
-245.104539296747
 11
-275.5385912000207
 21
-291.604539296747
  0
LINE
  5
15C
100
AcDbEntity
  8
0
  6
ByLayer
 62
  256
370
   -1
100
AcDbLine
 10
-254.5385912000207
 20
-245.104539296747
 11
-254.5385912000207
 21
-269.404539296747
  0
LINE
  5
15D
100
AcDbEntity
  8
0
  6
ByLayer
 62
  256
370
   -1
100
AcDbLine
 10
-223.5385912000207
 20
-291.604539296747
 11
-223.5385912000207
 21
-269.404539296747
  0
LINE
  5
15E
100
AcDbEntity
  8
0
  6
ByLayer
 62
  256
370
   -1
100
AcDbLine
 10
-223.5385912000207
 20
-269.404539296747
 11
-254.5385912000207
 21
-269.404539296747
  0
LINE
  5
15F
100
AcDbEntity
  8
helper
  6
ByLayer
 62
  256
370
   -1
100
AcDbLine
 10
-301.5385912000207
 20
-215.604539296747
 11
-286.2385912000207
 21
-215.604539296747
  0
LINE
  5
160
100
AcDbEntity
  8
helper
  6
ByLayer
 62
  256
370
   -1
100
AcDbLine
 10
-286.2385912000207
 20
-215.604539296747
 11
-286.2385912000207
 21
-247.604539296747
  0
LINE
  5
161
100
AcDbEntity
  8
0
  6
ByLayer
 62
  256
370
   -1
100
AcDbLine
 10
-286.2385912000207
 20
-247.604539296747
 11
-282.7385912000207
 21
-247.604539296747
  0
LINE
  5
162
100
AcDbEntity
  8
0
  6
ByLayer
 62
  256
370
   -1
100
AcDbLine
 10
-282.7385912000207
 20
-247.604539296747
 11
-282.7385912000207
 21
-291.604539296747
  0
LINE
  5
163
100
AcDbEntity
  8
0
  6
ByLayer
 62
  256
370
   -1
100
AcDbLine
 10
-286.2385912000207
 20
-247.604539296747
 11
-286.2385912000207
 21
-265.104539296747
  0
LINE
  5
164
100
AcDbEntity
  8
0
  6
ByLayer
 62
  256
370
   -1
100
AcDbLine
 10
-286.2385912000207
 20
-265.104539296747
 11
-297.7385912000207
 21
-265.104539296747
  0
LINE
  5
165
100
AcDbEntity
  8
0
  6
ByLayer
 62
  256
370
   -1
100
AcDbLine
 10
-297.7385912000207
 20
-265.104539296747
 11
-297.7385912000207
 21
-291.604539296747
  0
MTEXT
  5
166
100
AcDbEntity
  8
0
  6
ByLayer
 62
  256
370
   -1
100
AcDbMText
 10
-233.4316376515754
 20
-217.4747967412518
 30
0
 40
2
 41
17.11111111111136
 71
    3
 72
    1
  1
ER-TFT050-6\PCAPACITIVE
  7
STANDARD
210
0
220
0
230
1
 50
0
 73
    2
 44
1
  0
LINE
  5
167
100
AcDbEntity
  8
0
  6
ByLayer
 62
  256
370
   -1
100
AcDbLine
 10
69.04292377162334
 20
-462.3870496572616
 11
69.04292377162334
 21
-389.3870496572616
  0
LINE
  5
168
100
AcDbEntity
  8
0
  6
ByLayer
 62
  256
370
   -1
100
AcDbLine
 10
69.04292377162334
 20
-462.3870496572616
 11
234.0429237716234
 21
-462.3870496572616
  0
LINE
  5
169
100
AcDbEntity
  8
0
  6
ByLayer
 62
  256
370
   -1
100
AcDbLine
 10
69.04292377162334
 20
-389.3870496572616
 11
234.0429237716234
 21
-389.3870496572616
  0
LINE
  5
16A
100
AcDbEntity
  8
0
  6
ByLayer
 62
  256
370
   -1
100
AcDbLine
 10
234.0429237716234
 20
-462.3870496572616
 11
234.0429237716234
 21
-389.3870496572616
  0
LINE
  5
16B
100
AcDbEntity
  8
helper
  6
ByLayer
 62
  256
370
   -1
100
AcDbLine
 10
69.04292377162334
 20
-389.3870496572616
 11
96.54292377162334
 21
-389.3870496572616
  0
LINE
  5
16C
100
AcDbEntity
  8
helper
  6
ByLayer
 62
  256
370
   -1
100
AcDbLine
 10
96.54292377162334
 20
-389.3870496572616
 11
96.54292377162334
 21
-417.8870496572616
  0
LINE
  5
16D
100
AcDbEntity
  8
0
  6
ByLayer
 62
  256
370
   -1
100
AcDbLine
 10
96.54292377162334
 20
-417.8870496572616
 11
100.0429237716233
 21
-417.8870496572616
  0
LINE
  5
16E
100
AcDbEntity
  8
0
  6
ByLayer
 62
  256
370
   -1
100
AcDbLine
 10
100.0429237716233
 20
-417.8870496572616
 11
100.0429237716233
 21
-440.8870496572616
  0
LINE
  5
16F
100
AcDbEntity
  8
0
  6
ByLayer
 62
  256
370
   -1
100
AcDbLine
 10
96.54292377162334
 20
-417.8870496572616
 11
96.54292377162334
 21
-440.8870496572616
  0
LINE
  5
170
100
AcDbEntity
  8
0
  6
ByLayer
 62
  256
370
   -1
100
AcDbLine
 10
100.0429237716233
 20
-440.8870496572616
 11
108.0429237716233
 21
-440.8870496572616
  0
LINE
  5
171
100
AcDbEntity
  8
0
  6
ByLayer
 62
  256
370
   -1
100
AcDbLine
 10
96.54292377162334
 20
-440.8870496572616
 11
91.54292377162334
 21
-440.8870496572616
  0
LINE
  5
172
100
AcDbEntity
  8
0
  6
ByLayer
 62
  256
370
   -1
100
AcDbLine
 10
91.54292377162334
 20
-440.8870496572616
 11
91.54292377162334
 21
-462.3870496572616
  0
LINE
  5
173
100
AcDbEntity
  8
0
  6
ByLayer
 62
  256
370
   -1
100
AcDbLine
 10
108.0429237716233
 20
-440.8870496572616
 11
108.0429237716233
 21
-462.3870496572616
  0
LINE
  5
174
100
AcDbEntity
  8
helper
  6
ByLayer
 62
  256
370
   -1
100
AcDbLine
 10
69.04292377162334
 20
-389.3870496572616
 11
140.5429237716234
 21
-389.3870496572616
  0
LINE
  5
175
100
AcDbEntity
  8
helper
  6
ByLayer
 62
  256
370
   -1
100
AcDbLine
 10
140.5429237716234
 20
-389.3870496572616
 11
140.5429237716234
 21
-420.3870496572616
  0
LINE
  5
176
100
AcDbEntity
  8
0
  6
ByLayer
 62
  256
370
   -1
100
AcDbLine
 10
140.5429237716234
 20
-420.3870496572616
 11
166.0429237716234
 21
-420.3870496572616
  0
LINE
  5
177
100
AcDbEntity
  8
0
  6
ByLayer
 62
  256
370
   -1
100
AcDbLine
 10
166.0429237716234
 20
-420.3870496572616
 11
166.0429237716234
 21
-432.8870496572616
  0
LINE
  5
178
100
AcDbEntity
  8
0
  6
ByLayer
 62
  256
370
   -1
100
AcDbLine
 10
140.5429237716234
 20
-420.3870496572616
 11
140.5429237716234
 21
-444.8870496572616
  0
LINE
  5
179
100
AcDbEntity
  8
helper
  6
ByLayer
 62
  256
370
   -1
100
AcDbLine
 10
173.0429237716234
 20
-462.3870496572616
 11
133.0429237716234
 21
-462.3870496572616
  0
LINE
  5
17A
100
AcDbEntity
  8
0
  6
ByLayer
 62
  256
370
   -1
100
AcDbLine
 10
173.0429237716234
 20
-440.3870496572616
 11
173.0429237716234
 21
-462.3870496572616
  0
LINE
  5
17B
100
AcDbEntity
  8
0
  6
ByLayer
 62
  256
370
   -1
100
AcDbLine
 10
166.0429237716234
 20
-432.8870496572616
 11
173.0429237716234
 21
-440.3870496572616
  0
LINE
  5
17C
100
AcDbEntity
  8
0
  6
ByLayer
 62
  256
370
   -1
100
AcDbLine
 10
133.0429237716234
 20
-462.3870496572616
 11
133.0429237716234
 21
-459.3870496572616
  0
LINE
  5
17D
100
AcDbEntity
  8
0
  6
ByLayer
 62
  256
370
   -1
100
AcDbLine
 10
140.5429237716234
 20
-444.8870496572616
 11
133.0429237716234
 21
-459.3870496572616
  0
LINE
  5
17E
100
AcDbEntity
  8
0
  6
ByLayer
 62
  256
370
   -1
100
AcDbLine
 10
291.3814702003274
 20
-463.6766004057384
 11
291.3814702003274
 21
-363.6766004057384
  0
LINE
  5
17F
100
AcDbEntity
  8
0
  6
ByLayer
 62
  256
370
   -1
100
AcDbLine
 10
291.3814702003274
 20
-463.6766004057384
 11
456.2814702003275
 21
-463.6766004057384
  0
LINE
  5
180
100
AcDbEntity
  8
0
  6
ByLayer
 62
  256
370
   -1
100
AcDbLine
 10
291.3814702003274
 20
-363.6766004057384
 11
456.2814702003275
 21
-363.6766004057384
  0
LINE
  5
181
100
AcDbEntity
  8
0
  6
ByLayer
 62
  256
370
   -1
100
AcDbLine
 10
456.2814702003275
 20
-463.6766004057384
 11
456.2814702003275
 21
-363.6766004057384
  0
LINE
  5
182
100
AcDbEntity
  8
helper
  6
ByLayer
 62
  256
370
   -1
100
AcDbLine
 10
291.3814702003274
 20
-363.6766004057384
 11
329.8814702003274
 21
-363.6766004057384
  0
LINE
  5
183
100
AcDbEntity
  8
helper
  6
ByLayer
 62
  256
370
   -1
100
AcDbLine
 10
329.8814702003274
 20
-363.6766004057384
 11
329.8814702003274
 21
-413.6766004057384
  0
LINE
  5
184
100
AcDbEntity
  8
0
  6
ByLayer
 62
  256
370
   -1
100
AcDbLine
 10
329.8814702003274
 20
-413.6766004057384
 11
333.3814702003274
 21
-413.6766004057384
  0
LINE
  5
185
100
AcDbEntity
  8
0
  6
ByLayer
 62
  256
370
   -1
100
AcDbLine
 10
329.8814702003274
 20
-413.6766004057384
 11
329.8814702003274
 21
-442.1766004057384
  0
LINE
  5
186
100
AcDbEntity
  8
0
  6
ByLayer
 62
  256
370
   -1
100
AcDbLine
 10
333.3814702003274
 20
-413.6766004057384
 11
333.3814702003274
 21
-442.1766004057384
  0
LINE
  5
187
100
AcDbEntity
  8
0
  6
ByLayer
 62
  256
370
   -1
100
AcDbLine
 10
329.8814702003274
 20
-442.1766004057384
 11
324.3814702003274
 21
-442.1766004057384
  0
LINE
  5
188
100
AcDbEntity
  8
0
  6
ByLayer
 62
  256
370
   -1
100
AcDbLine
 10
333.3814702003274
 20
-442.1766004057384
 11
338.8814702003274
 21
-442.1766004057384
  0
LINE
  5
189
100
AcDbEntity
  8
0
  6
ByLayer
 62
  256
370
   -1
100
AcDbLine
 10
324.3814702003274
 20
-442.1766004057384
 11
324.3814702003274
 21
-463.6766004057384
  0
LINE
  5
18A
100
AcDbEntity
  8
0
  6
ByLayer
 62
  256
370
   -1
100
AcDbLine
 10
338.8814702003274
 20
-442.1766004057384
 11
338.8814702003274
 21
-463.6766004057384
  0
LINE
  5
18B
100
AcDbEntity
  8
helper
  6
ByLayer
 62
  256
370
   -1
100
AcDbLine
 10
291.3814702003274
 20
-363.6766004057384
 11
361.8814702003274
 21
-363.6766004057384
  0
LINE
  5
18C
100
AcDbEntity
  8
helper
  6
ByLayer
 62
  256
370
   -1
100
AcDbLine
 10
361.8814702003274
 20
-363.6766004057384
 11
361.8814702003274
 21
-423.6766004057384
  0
LINE
  5
18D
100
AcDbEntity
  8
0
  6
ByLayer
 62
  256
370
   -1
100
AcDbLine
 10
361.8814702003274
 20
-423.6766004057384
 11
387.3814702003274
 21
-423.6766004057384
  0
LINE
  5
18E
100
AcDbEntity
  8
0
  6
ByLayer
 62
  256
370
   -1
100
AcDbLine
 10
361.8814702003274
 20
-423.6766004057384
 11
361.8814702003274
 21
-437.6766004057384
  0
LINE
  5
18F
100
AcDbEntity
  8
0
  6
ByLayer
 62
  256
370
   -1
100
AcDbLine
 10
387.3814702003274
 20
-423.6766004057384
 11
387.3814702003274
 21
-437.6766004057384
  0
LINE
  5
190
100
AcDbEntity
  8
0
  6
ByLayer
 62
  256
370
   -1
100
AcDbLine
 10
359.1314702003274
 20
-463.6766004057384
 11
359.1314702003274
 21
-442.6766004057384
  0
LINE
  5
191
100
AcDbEntity
  8
0
  6
ByLayer
 62
  256
370
   -1
100
AcDbLine
 10
390.1314702003274
 20
-463.6766004057384
 11
390.1314702003274
 21
-442.6766004057384
  0
LINE
  5
192
100
AcDbEntity
  8
0
  6
ByLayer
 62
  256
370
   -1
100
AcDbLine
 10
361.8814702003274
 20
-437.6766004057384
 11
359.1314702003274
 21
-442.6766004057384
  0
LINE
  5
193
100
AcDbEntity
  8
0
  6
ByLayer
 62
  256
370
   -1
100
AcDbLine
 10
387.3814702003274
 20
-437.6766004057384
 11
390.1314702003274
 21
-442.6766004057384
  0
MTEXT
  5
194
100
AcDbEntity
  8
0
  6
ByLayer
 62
  256
370
   -1
100
AcDbMText
 10
365.8043298257959
 20
-366.8899265128717
 30
0
 40
2
 41
20.66666666666666
 71
    1
 72
    1
  1
TTX070KHT-01C\PCAPACITIVE
  7
STANDARD
210
0
220
0
230
1
 50
0
 73
    2
 44
1
  0
LINE
  5
195
100
AcDbEntity
  8
0
  6
ByLayer
 62
  256
370
   -1
100
AcDbLine
 10
499.9287431865296
 20
-464.0664083926421
 11
499.9287431865296
 21
-364.0664083926421
  0
LINE
  5
196
100
AcDbEntity
  8
0
  6
ByLayer
 62
  256
370
   -1
100
AcDbLine
 10
499.9287431865296
 20
-464.0664083926421
 11
664.8287431865297
 21
-464.0664083926421
  0
LINE
  5
197
100
AcDbEntity
  8
0
  6
ByLayer
 62
  256
370
   -1
100
AcDbLine
 10
499.9287431865296
 20
-364.0664083926421
 11
664.8287431865297
 21
-364.0664083926421
  0
LINE
  5
198
100
AcDbEntity
  8
0
  6
ByLayer
 62
  256
370
   -1
100
AcDbLine
 10
664.8287431865297
 20
-464.0664083926421
 11
664.8287431865297
 21
-364.0664083926421
  0
LINE
  5
199
100
AcDbEntity
  8
helper
  6
ByLayer
 62
  256
370
   -1
100
AcDbLine
 10
570.4287431865296
 20
-364.0664083926421
 11
570.4287431865296
 21
-424.0664083926421
  0
LINE
  5
19A
100
AcDbEntity
  8
0
  6
ByLayer
 62
  256
370
   -1
100
AcDbLine
 10
570.4287431865296
 20
-424.0664083926421
 11
595.9287431865296
 21
-424.0664083926421
  0
LINE
  5
19B
100
AcDbEntity
  8
0
  6
ByLayer
 62
  256
370
   -1
100
AcDbLine
 10
570.4287431865296
 20
-424.0664083926421
 11
570.4287431865296
 21
-438.0664083926421
  0
LINE
  5
19C
100
AcDbEntity
  8
0
  6
ByLayer
 62
  256
370
   -1
100
AcDbLine
 10
595.9287431865296
 20
-424.0664083926421
 11
595.9287431865296
 21
-438.0664083926421
  0
LINE
  5
19D
100
AcDbEntity
  8
0
  6
ByLayer
 62
  256
370
   -1
100
AcDbLine
 10
567.6787431865296
 20
-464.0664083926421
 11
567.6787431865296
 21
-443.0664083926421
  0
LINE
  5
19E
100
AcDbEntity
  8
0
  6
ByLayer
 62
  256
370
   -1
100
AcDbLine
 10
598.6787431865296
 20
-464.0664083926421
 11
598.6787431865296
 21
-443.0664083926421
  0
LINE
  5
19F
100
AcDbEntity
  8
0
  6
ByLayer
 62
  256
370
   -1
100
AcDbLine
 10
570.4287431865296
 20
-438.0664083926421
 11
567.6787431865296
 21
-443.0664083926421
  0
LINE
  5
1A0
100
AcDbEntity
  8
0
  6
ByLayer
 62
  256
370
   -1
100
AcDbLine
 10
595.9287431865296
 20
-438.0664083926421
 11
598.6787431865296
 21
-443.0664083926421
  0
LINE
  5
1A1
100
AcDbEntity
  8
helper
  6
ByLayer
 62
  256
370
   -1
100
AcDbLine
 10
664.8287431865297
 20
-364.0664083926421
 11
607.3287431865297
 21
-364.0664083926421
  0
LINE
  5
1A2
100
AcDbEntity
  8
helper
  6
ByLayer
 62
  256
370
   -1
100
AcDbLine
 10
607.3287431865297
 20
-364.0664083926421
 11
607.3287431865297
 21
-392.5664083926421
  0
LINE
  5
1A3
100
AcDbEntity
  8
0
  6
ByLayer
 62
  256
370
   -1
100
AcDbLine
 10
607.3287431865297
 20
-392.5664083926421
 11
612.3287431865297
 21
-392.5664083926421
  0
LINE
  5
1A4
100
AcDbEntity
  8
0
  6
ByLayer
 62
  256
370
   -1
100
AcDbLine
 10
607.3287431865297
 20
-392.5664083926421
 11
607.3287431865297
 21
-464.0664083926421
  0
LINE
  5
1A5
100
AcDbEntity
  8
0
  6
ByLayer
 62
  256
370
   -1
100
AcDbLine
 10
612.3287431865297
 20
-392.5664083926421
 11
612.3287431865297
 21
-464.0664083926421
  0
MTEXT
  5
1A6
100
AcDbEntity
  8
0
  6
ByLayer
 62
  256
370
   -1
100
AcDbMText
 10
575.6232453470493
 20
-366.9083554412396
 30
0
 40
2
 41
20.88888888888889
 71
    1
 72
    1
  1
TTX070KHT-01R\PRESISTIVE
  7
STANDARD
210
0
220
0
230
1
 50
0
 73
    2
 44
1
  0
LINE
  5
1A7
100
AcDbEntity
  8
0
  6
ByLayer
 62
  256
370
   -1
100
AcDbLine
 10
711.3547481559148
 20
-463.5994184243532
 11
711.3547481559148
 21
-363.5994184243532
  0
LINE
  5
1A8
100
AcDbEntity
  8
0
  6
ByLayer
 62
  256
370
   -1
100
AcDbLine
 10
711.3547481559148
 20
-363.5994184243532
 11
876.2547481559147
 21
-363.5994184243532
  0
LINE
  5
1A9
100
AcDbEntity
  8
0
  6
ByLayer
 62
  256
370
   -1
100
AcDbLine
 10
711.3547481559148
 20
-463.5994184243532
 11
876.2547481559147
 21
-463.5994184243532
  0
LINE
  5
1AA
100
AcDbEntity
  8
0
  6
ByLayer
 62
  256
370
   -1
100
AcDbLine
 10
876.2547481559147
 20
-463.5994184243532
 11
876.2547481559147
 21
-363.5994184243532
  0
LINE
  5
1AB
100
AcDbEntity
  8
helper
  6
ByLayer
 62
  256
370
   -1
100
AcDbLine
 10
876.2547481559147
 20
-363.5994184243532
 11
854.2547481559147
 21
-363.5994184243532
  0
LINE
  5
1AC
100
AcDbEntity
  8
helper
  6
ByLayer
 62
  256
370
   -1
100
AcDbLine
 10
854.2547481559147
 20
-363.5994184243532
 11
854.2547481559147
 21
-396.5994184243532
  0
LINE
  5
1AD
100
AcDbEntity
  8
0
  6
ByLayer
 62
  256
370
   -1
100
AcDbLine
 10
854.2547481559147
 20
-396.5994184243532
 11
833.2547481559147
 21
-396.5994184243532
  0
LINE
  5
1AE
100
AcDbEntity
  8
0
  6
ByLayer
 62
  256
370
   -1
100
AcDbLine
 10
854.2547481559147
 20
-396.5994184243532
 11
854.2547481559147
 21
-463.5994184243532
  0
LINE
  5
1AF
100
AcDbEntity
  8
0
  6
ByLayer
 62
  256
370
   -1
100
AcDbLine
 10
833.2547481559147
 20
-396.5994184243532
 11
833.2547481559147
 21
-437.5994184243532
  0
LINE
  5
1B0
100
AcDbEntity
  8
0
  6
ByLayer
 62
  256
370
   -1
100
AcDbLine
 10
833.2547481559147
 20
-437.5994184243532
 11
775.2547481559147
 21
-437.5994184243532
  0
LINE
  5
1B1
100
AcDbEntity
  8
0
  6
ByLayer
 62
  256
370
   -1
100
AcDbLine
 10
775.2547481559147
 20
-437.5994184243532
 11
775.2547481559147
 21
-463.5994184243532
  0
MTEXT
  5
1B2
100
AcDbEntity
  8
0
  6
ByLayer
 62
  256
370
   -1
100
AcDbMText
 10
786.3664848200825
 20
-368.4204111512237
 30
0
 40
2
 41
20.66666666666667
 71
    1
 72
    1
  1
TTX070BHE-01R\PRESISTIVE
  7
STANDARD
210
0
220
0
230
1
 50
0
 73
    2
 44
1
  0
LINE
  5
1B3
100
AcDbEntity
  8
0
  6
ByLayer
 62
  256
370
   -1
100
AcDbLine
 10
68.68613882126689
 20
-516.3394296718403
 11
68.68613882126689
 21
-616.3394296718403
  0
LINE
  5
1B4
100
AcDbEntity
  8
0
  6
ByLayer
 62
  256
370
   -1
100
AcDbLine
 10
68.68613882126689
 20
-516.3394296718403
 11
233.6861388212669
 21
-516.3394296718403
  0
LINE
  5
1B5
100
AcDbEntity
  8
0
  6
ByLayer
 62
  256
370
   -1
100
AcDbLine
 10
68.68613882126689
 20
-616.3394296718403
 11
233.6861388212669
 21
-616.3394296718403
  0
LINE
  5
1B6
100
AcDbEntity
  8
0
  6
ByLayer
 62
  256
370
   -1
100
AcDbLine
 10
233.6861388212669
 20
-516.3394296718403
 11
233.6861388212669
 21
-616.3394296718403
  0
LINE
  5
1B7
100
AcDbEntity
  8
helper
  6
ByLayer
 62
  256
370
   -1
100
AcDbLine
 10
233.6861388212669
 20
-516.3394296718403
 11
214.1861388212669
 21
-516.3394296718403
  0
LINE
  5
1B8
100
AcDbEntity
  8
helper
  6
ByLayer
 62
  256
370
   -1
100
AcDbLine
 10
214.1861388212669
 20
-516.3394296718403
 11
214.1861388212669
 21
-549.3394296718403
  0
LINE
  5
1B9
100
AcDbEntity
  8
0
  6
ByLayer
 62
  256
370
   -1
100
AcDbLine
 10
214.1861388212669
 20
-549.3394296718403
 11
193.1861388212669
 21
-549.3394296718403
  0
LINE
  5
1BA
100
AcDbEntity
  8
0
  6
ByLayer
 62
  256
370
   -1
100
AcDbLine
 10
214.1861388212669
 20
-549.3394296718403
 11
214.1861388212669
 21
-616.3394296718403
  0
LINE
  5
1BB
100
AcDbEntity
  8
0
  6
ByLayer
 62
  256
370
   -1
100
AcDbLine
 10
193.1861388212669
 20
-549.3394296718403
 11
193.1861388212669
 21
-585.8394296718403
  0
LINE
  5
1BC
100
AcDbEntity
  8
0
  6
ByLayer
 62
  256
370
   -1
100
AcDbLine
 10
138.1861388212669
 20
-616.3394296718403
 11
138.1861388212669
 21
-585.8394296718403
  0
LINE
  5
1BD
100
AcDbEntity
  8
0
  6
ByLayer
 62
  256
370
   -1
100
AcDbLine
 10
138.1861388212669
 20
-585.8394296718403
 11
193.1861388212669
 21
-585.8394296718403
  0
MTEXT
  5
1BE
100
AcDbEntity
  8
0
  6
ByLayer
 62
  256
370
   -1
100
AcDbMText
 10
141.0331195601247
 20
-522.0789662262069
 30
0
 40
2
 41
21.55555513155126
 71
    1
 72
    1
  1
ER-TFT070IPS-4\PRESISTIVE
  7
STANDARD
210
0
220
0
230
1
 50
0
 73
    2
 44
1
  0
LINE
  5
1BF
100
AcDbEntity
  8
0
  6
ByLayer
 62
  256
370
   -1
100
AcDbLine
 10
292.5197095220632
 20
-515.3994191990679
 11
292.5197095220632
 21
-615.3994191990679
  0
LINE
  5
1C0
100
AcDbEntity
  8
0
  6
ByLayer
 62
  256
370
   -1
100
AcDbLine
 10
292.5197095220632
 20
-515.3994191990679
 11
457.5197095220632
 21
-515.3994191990679
  0
LINE
  5
1C1
100
AcDbEntity
  8
0
  6
ByLayer
 62
  256
370
   -1
100
AcDbLine
 10
292.5197095220632
 20
-615.3994191990679
 11
457.5197095220632
 21
-615.3994191990679
  0
LINE
  5
1C2
100
AcDbEntity
  8
0
  6
ByLayer
 62
  256
370
   -1
100
AcDbLine
 10
457.5197095220632
 20
-515.3994191990679
 11
457.5197095220632
 21
-615.3994191990679
  0
LINE
  5
1C3
100
AcDbEntity
  8
helper
  6
ByLayer
 62
  256
370
   -1
100
AcDbLine
 10
457.5197095220632
 20
-515.3994191990679
 11
438.0197095220632
 21
-515.3994191990679
  0
LINE
  5
1C4
100
AcDbEntity
  8
helper
  6
ByLayer
 62
  256
370
   -1
100
AcDbLine
 10
438.0197095220632
 20
-515.3994191990679
 11
438.0197095220632
 21
-548.3994191990679
  0
LINE
  5
1C5
100
AcDbEntity
  8
0
  6
ByLayer
 62
  256
370
   -1
100
AcDbLine
 10
438.0197095220632
 20
-548.3994191990679
 11
417.0197095220632
 21
-548.3994191990679
  0
LINE
  5
1C6
100
AcDbEntity
  8
0
  6
ByLayer
 62
  256
370
   -1
100
AcDbLine
 10
438.0197095220632
 20
-548.3994191990679
 11
438.0197095220632
 21
-615.3994191990679
  0
LINE
  5
1C7
100
AcDbEntity
  8
0
  6
ByLayer
 62
  256
370
   -1
100
AcDbLine
 10
417.0197095220632
 20
-548.3994191990679
 11
417.0197095220632
 21
-584.8994191990679
  0
LINE
  5
1C8
100
AcDbEntity
  8
0
  6
ByLayer
 62
  256
370
   -1
100
AcDbLine
 10
362.0197095220632
 20
-615.3994191990679
 11
362.0197095220632
 21
-584.8994191990679
  0
LINE
  5
1C9
100
AcDbEntity
  8
0
  6
ByLayer
 62
  256
370
   -1
100
AcDbLine
 10
362.0197095220632
 20
-584.8994191990679
 11
417.0197095220632
 21
-584.8994191990679
  0
MTEXT
  5
1CA
100
AcDbEntity
  8
0
  6
ByLayer
 62
  256
370
   -1
100
AcDbMText
 10
364.866690260921
 20
-521.1389557534345
 30
0
 40
2
 41
21.55555513155126
 71
    1
 72
    1
  1
ER-TFT070IPS-4\PRESISTIVE
  7
STANDARD
210
0
220
0
230
1
 50
0
 73
    2
 44
1
  0
LINE
  5
1CB
100
AcDbEntity
  8
helper
  6
ByLayer
 62
  256
370
   -1
100
AcDbLine
 10
292.5197095220632
 20
-515.3994191990679
 11
301.0197095220632
 21
-515.3994191990679
  0
LINE
  5
1CC
100
AcDbEntity
  8
helper
  6
ByLayer
 62
  256
370
   -1
100
AcDbLine
 10
301.0197095220632
 20
-515.3994191990679
 11
301.0197095220632
 21
-550.3994191990679
  0
LINE
  5
1CD
100
AcDbEntity
  8
0
  6
ByLayer
 62
  256
370
   -1
100
AcDbLine
 10
301.0197095220632
 20
-550.3994191990679
 11
306.5197095220632
 21
-550.3994191990679
  0
LINE
  5
1CE
100
AcDbEntity
  8
0
  6
ByLayer
 62
  256
370
   -1
100
AcDbLine
 10
306.5197095220632
 20
-550.3994191990679
 11
306.5197095220632
 21
-593.3994191990679
  0
LINE
  5
1CF
100
AcDbEntity
  8
0
  6
ByLayer
 62
  256
370
   -1
100
AcDbLine
 10
301.0197095220632
 20
-550.3994191990679
 11
301.0197095220632
 21
-593.3994191990679
  0
LINE
  5
1D0
100
AcDbEntity
  8
0
  6
ByLayer
 62
  256
370
   -1
100
AcDbLine
 10
301.0197095220632
 20
-593.3994191990679
 11
296.0197095220632
 21
-593.3994191990679
  0
LINE
  5
1D1
100
AcDbEntity
  8
0
  6
ByLayer
 62
  256
370
   -1
100
AcDbLine
 10
306.5197095220632
 20
-593.3994191990679
 11
311.5197095220632
 21
-593.3994191990679
  0
LINE
  5
1D2
100
AcDbEntity
  8
0
  6
ByLayer
 62
  256
370
   -1
100
AcDbLine
 10
311.5197095220632
 20
-593.3994191990679
 11
311.5197095220632
 21
-615.3994191990679
  0
LINE
  5
1D3
100
AcDbEntity
  8
0
  6
ByLayer
 62
  256
370
   -1
100
AcDbLine
 10
296.0197095220632
 20
-593.3994191990679
 11
296.0197095220632
 21
-615.3994191990679
  0
LINE
  5
1D4
100
AcDbEntity
  8
0
  6
ByLayer
 62
  256
370
   -1
100
AcDbLine
 10
499.9359067735861
 20
-515.7232337947303
 11
499.9359067735861
 21
-615.7232337947303
  0
LINE
  5
1D5
100
AcDbEntity
  8
0
  6
ByLayer
 62
  256
370
   -1
100
AcDbLine
 10
499.9359067735861
 20
-515.7232337947303
 11
664.9359067735861
 21
-515.7232337947303
  0
LINE
  5
1D6
100
AcDbEntity
  8
0
  6
ByLayer
 62
  256
370
   -1
100
AcDbLine
 10
499.9359067735861
 20
-615.7232337947303
 11
664.9359067735861
 21
-615.7232337947303
  0
LINE
  5
1D7
100
AcDbEntity
  8
0
  6
ByLayer
 62
  256
370
   -1
100
AcDbLine
 10
664.9359067735861
 20
-515.7232337947303
 11
664.9359067735861
 21
-615.7232337947303
  0
LINE
  5
1D8
100
AcDbEntity
  8
helper
  6
ByLayer
 62
  256
370
   -1
100
AcDbLine
 10
499.9359067735861
 20
-515.7232337947303
 11
508.4359067735861
 21
-515.7232337947303
  0
LINE
  5
1D9
100
AcDbEntity
  8
helper
  6
ByLayer
 62
  256
370
   -1
100
AcDbLine
 10
508.4359067735861
 20
-515.7232337947303
 11
508.4359067735861
 21
-550.7232337947303
  0
LINE
  5
1DA
100
AcDbEntity
  8
0
  6
ByLayer
 62
  256
370
   -1
100
AcDbLine
 10
508.4359067735861
 20
-550.7232337947303
 11
513.9359067735861
 21
-550.7232337947303
  0
LINE
  5
1DB
100
AcDbEntity
  8
0
  6
ByLayer
 62
  256
370
   -1
100
AcDbLine
 10
513.9359067735861
 20
-550.7232337947303
 11
513.9359067735861
 21
-593.7232337947303
  0
LINE
  5
1DC
100
AcDbEntity
  8
0
  6
ByLayer
 62
  256
370
   -1
100
AcDbLine
 10
508.4359067735861
 20
-550.7232337947303
 11
508.4359067735861
 21
-593.7232337947303
  0
LINE
  5
1DD
100
AcDbEntity
  8
0
  6
ByLayer
 62
  256
370
   -1
100
AcDbLine
 10
508.4359067735861
 20
-593.7232337947303
 11
503.4359067735861
 21
-593.7232337947303
  0
LINE
  5
1DE
100
AcDbEntity
  8
0
  6
ByLayer
 62
  256
370
   -1
100
AcDbLine
 10
513.9359067735861
 20
-593.7232337947303
 11
518.9359067735861
 21
-593.7232337947303
  0
LINE
  5
1DF
100
AcDbEntity
  8
0
  6
ByLayer
 62
  256
370
   -1
100
AcDbLine
 10
518.9359067735861
 20
-593.7232337947303
 11
518.9359067735861
 21
-615.7232337947303
  0
LINE
  5
1E0
100
AcDbEntity
  8
0
  6
ByLayer
 62
  256
370
   -1
100
AcDbLine
 10
503.4359067735861
 20
-593.7232337947303
 11
503.4359067735861
 21
-615.7232337947303
  0
LINE
  5
1E1
100
AcDbEntity
  8
helper
  6
ByLayer
 62
  256
370
   -1
100
AcDbLine
 10
499.9359067735861
 20
-515.7232337947303
 11
569.9359067735861
 21
-515.7232337947303
  0
LINE
  5
1E2
100
AcDbEntity
  8
0
  6
ByLayer
 62
  256
370
   -1
100
AcDbLine
 10
569.9359067735861
 20
-574.2232337947303
 11
595.4359067735861
 21
-574.2232337947303
  0
LINE
  5
1E3
100
AcDbEntity
  8
0
  6
ByLayer
 62
  256
370
   -1
100
AcDbLine
 10
595.4359067735861
 20
-574.2232337947303
 11
595.4359067735861
 21
-591.2232337947303
  0
LINE
  5
1E4
100
AcDbEntity
  8
0
  6
ByLayer
 62
  256
370
   -1
100
AcDbLine
 10
569.9359067735861
 20
-574.2232337947303
 11
569.9359067735861
 21
-591.2232337947303
  0
LINE
  5
1E5
100
AcDbEntity
  8
0
  6
ByLayer
 62
  256
370
   -1
100
AcDbLine
 10
597.9359067735861
 20
-595.7232337947303
 11
597.9359067735861
 21
-615.7232337947303
  0
LINE
  5
1E6
100
AcDbEntity
  8
0
  6
ByLayer
 62
  256
370
   -1
100
AcDbLine
 10
567.4359067735861
 20
-595.7232337947303
 11
567.4359067735861
 21
-615.7232337947303
  0
LINE
  5
1E7
100
AcDbEntity
  8
0
  6
ByLayer
 62
  256
370
   -1
100
AcDbLine
 10
567.4359067735861
 20
-595.7232337947303
 11
569.9359067735861
 21
-591.2232337947303
  0
LINE
  5
1E8
100
AcDbEntity
  8
0
  6
ByLayer
 62
  256
370
   -1
100
AcDbLine
 10
595.4359067735861
 20
-591.2232337947303
 11
597.9359067735861
 21
-595.7232337947303
  0
MTEXT
  5
1E9
100
AcDbEntity
  8
0
  6
ByLayer
 62
  256
370
   -1
100
AcDbMText
 10
572.5671766838775
 20
-519.0722443105453
 30
0
 40
2
 41
24.22222179821817
 71
    1
 72
    1
  1
JSYX-ER-070A2-6\PCAPACITIVE
  7
STANDARD
210
0
220
0
230
1
 50
0
 73
    2
 44
1
  0
LINE
  5
1EA
100
AcDbEntity
  8
0
  6
ByLayer
 62
  256
370
   -1
100
AcDbLine
 10
-136.8569593399145
 20
-218.1780820813001
 11
-28.85695933991451
 21
-218.1780820813001
  0
LINE
  5
1EB
100
AcDbEntity
  8
0
  6
ByLayer
 62
  256
370
   -1
100
AcDbLine
 10
-136.8569593399145
 20
-218.1780820813001
 11
-136.8569593399145
 21
-282.9780820813001
  0
LINE
  5
1EC
100
AcDbEntity
  8
0
  6
ByLayer
 62
  256
370
   -1
100
AcDbLine
 10
-28.85695933991451
 20
-218.1780820813001
 11
-28.85695933991451
 21
-282.9780820813001
  0
LINE
  5
1ED
100
AcDbEntity
  8
0
  6
ByLayer
 62
  256
370
   -1
100
AcDbLine
 10
-136.8569593399145
 20
-282.9780820813001
 11
-28.85695933991451
 21
-282.9780820813001
  0
LINE
  5
1EE
100
AcDbEntity
  8
helper
  6
ByLayer
 62
  256
370
   -1
100
AcDbLine
 10
-343.375531866782
 20
-215.6132176427241
 11
-349.725531866782
 21
-215.6132176427241
  0
LINE
  5
1EF
100
AcDbEntity
  8
helper
  6
ByLayer
 62
  256
370
   -1
100
AcDbLine
 10
-349.725531866782
 20
-215.6132176427241
 11
-349.725531866782
 21
-218.9732176427241
  0
LINE
  5
1F0
100
AcDbEntity
  8
0
  6
ByLayer
 62
  256
370
   -1
100
AcDbLine
 10
-457.725531866782
 20
-218.9732176427241
 11
-349.725531866782
 21
-218.9732176427241
  0
LINE
  5
1F1
100
AcDbEntity
  8
0
  6
ByLayer
 62
  256
370
   -1
100
AcDbLine
 10
-457.725531866782
 20
-218.9732176427241
 11
-457.725531866782
 21
-283.7732176427241
  0
LINE
  5
1F2
100
AcDbEntity
  8
0
  6
ByLayer
 62
  256
370
   -1
100
AcDbLine
 10
-349.725531866782
 20
-218.9732176427241
 11
-349.725531866782
 21
-283.7732176427241
  0
LINE
  5
1F3
100
AcDbEntity
  8
0
  6
ByLayer
 62
  256
370
   -1
100
AcDbLine
 10
-457.725531866782
 20
-283.7732176427241
 11
-349.725531866782
 21
-283.7732176427241
  0
LINE
  5
1F4
100
AcDbEntity
  8
helper
  6
ByLayer
 62
  256
370
   -1
100
AcDbLine
 10
-180.5385912000207
 20
-215.604539296747
 11
-186.8885912000207
 21
-215.604539296747
  0
LINE
  5
1F5
100
AcDbEntity
  8
helper
  6
ByLayer
 62
  256
370
   -1
100
AcDbLine
 10
-186.8885912000207
 20
-215.604539296747
 11
-186.8885912000207
 21
-218.964539296747
  0
LINE
  5
1F6
100
AcDbEntity
  8
0
  6
ByLayer
 62
  256
370
   -1
100
AcDbLine
 10
-294.8885912000208
 20
-218.964539296747
 11
-186.8885912000207
 21
-218.964539296747
  0
LINE
  5
1F7
100
AcDbEntity
  8
0
  6
ByLayer
 62
  256
370
   -1
100
AcDbLine
 10
-294.8885912000208
 20
-218.964539296747
 11
-294.8885912000208
 21
-283.764539296747
  0
LINE
  5
1F8
100
AcDbEntity
  8
0
  6
ByLayer
 62
  256
370
   -1
100
AcDbLine
 10
-186.8885912000207
 20
-218.964539296747
 11
-186.8885912000207
 21
-283.764539296747
  0
LINE
  5
1F9
100
AcDbEntity
  8
0
  6
ByLayer
 62
  256
370
   -1
100
AcDbLine
 10
-294.8885912000208
 20
-283.764539296747
 11
-186.8885912000207
 21
-283.764539296747
  0
DIMENSION
  5
1FA
100
AcDbEntity
  8
Dimension
  6
ByLayer
 62
  256
370
   -1
100
AcDbDimension
  2
*D11
 10
-343.375531866782
 20
-204.7922027325116
 30
0
 11
-346.550531866782
 21
-200.1047027325116
 31
0
 70
   32
 71
    5
  3
Standard
 53
0
210
0
220
0
230
1
100
AcDbAlignedDimension
 13
-349.725531866782
 23
-215.6132176427241
 33
0
 14
-343.375531866782
 24
-215.6132176427241
 34
0
100
AcDbRotatedDimension
  0
DIMENSION
  5
1FB
100
AcDbEntity
  8
Dimension
  6
ByLayer
 62
  256
370
   -1
100
AcDbDimension
  2
*D12
 10
-316.8503505640072
 20
-218.9732176427241
 30
0
 11
-321.5378505640072
 21
-217.2932176427241
 31
0
 70
   32
 71
    5
  3
Standard
 53
0
210
0
220
0
230
1
100
AcDbAlignedDimension
 13
-349.725531866782
 23
-215.6132176427241
 33
0
 14
-349.725531866782
 24
-218.9732176427241
 34
0
 50
90
100
AcDbRotatedDimension
  0
LINE
  5
1FC
100
AcDbEntity
  8
0
  6
ByLayer
 62
  256
370
   -1
100
AcDbLine
 10
-403.725531866782
 20
-283.7732176427241
 11
-403.725531866782
 21
-218.9732176427241
  0
LINE
  5
1FD
100
AcDbEntity
  8
0
  6
ByLayer
 62
  256
370
   -1
100
AcDbLine
 10
-349.725531866782
 20
-251.3732176427241
 11
-457.725531866782
 21
-251.3732176427241
  0
LINE
  5
1FE
100
AcDbEntity
  8
0
  6
ByLayer
 62
  256
370
   -1
100
AcDbLine
 10
-240.8885912000208
 20
-283.764539296747
 11
-240.8885912000208
 21
-218.964539296747
  0
LINE
  5
1FF
100
AcDbEntity
  8
0
  6
ByLayer
 62
  256
370
   -1
100
AcDbLine
 10
-186.8885912000207
 20
-251.364539296747
 11
-294.8885912000208
 21
-251.364539296747
  0
ENDSEC
  0
SECTION
  2
OBJECTS
  0
DICTIONARY
  5
C
330
0
100
AcDbDictionary
281
    1
  3
ACAD_GROUP
350
D
  0
DICTIONARY
  5
D
330
C
100
AcDbDictionary
281
    1
  0
PLOTSETTINGS
  5
200
100
AcDbPlotSettings
  6
1x1
 40
0
 41
0
 42
0
 43
0
  0
ENDSEC
  0
EOF
