%TF.GenerationSoftware,KiCad,Pcbnew,9.0.1*%
%TF.CreationDate,2025-06-27T17:41:07+07:00*%
%TF.ProjectId,lcd-standard-5R,6c63642d-7374-4616-9e64-6172642d3552,rev?*%
%TF.SameCoordinates,Original*%
%TF.FileFunction,Legend,Bot*%
%TF.FilePolarity,Positive*%
%FSLAX45Y45*%
G04 Gerber Fmt 4.5, Leading zero omitted, Abs format (unit mm)*
G04 Created by KiCad (PCBNEW 9.0.1) date 2025-06-27 17:41:07*
%MOMM*%
%LPD*%
G01*
G04 APERTURE LIST*
%ADD10C,0.200000*%
%ADD11C,0.250000*%
G04 APERTURE END LIST*
D10*
X8462440Y-13251340D02*
X20562440Y-13251340D01*
X8462440Y-5651340D02*
X20562440Y-5651340D01*
X8462440Y-5651340D02*
X8462440Y-13251340D01*
X20562440Y-5651340D02*
X20562440Y-13251340D01*
D11*
X21238718Y-12347023D02*
X21157766Y-12347023D01*
X21157766Y-12347023D02*
X21148242Y-12342261D01*
X21148242Y-12342261D02*
X21143480Y-12337499D01*
X21143480Y-12337499D02*
X21138718Y-12327975D01*
X21138718Y-12327975D02*
X21138718Y-12308928D01*
X21138718Y-12308928D02*
X21143480Y-12299404D01*
X21143480Y-12299404D02*
X21148242Y-12294642D01*
X21148242Y-12294642D02*
X21157766Y-12289880D01*
X21157766Y-12289880D02*
X21238718Y-12289880D01*
X21143480Y-12247023D02*
X21138718Y-12232737D01*
X21138718Y-12232737D02*
X21138718Y-12208928D01*
X21138718Y-12208928D02*
X21143480Y-12199404D01*
X21143480Y-12199404D02*
X21148242Y-12194642D01*
X21148242Y-12194642D02*
X21157766Y-12189880D01*
X21157766Y-12189880D02*
X21167290Y-12189880D01*
X21167290Y-12189880D02*
X21176813Y-12194642D01*
X21176813Y-12194642D02*
X21181575Y-12199404D01*
X21181575Y-12199404D02*
X21186337Y-12208928D01*
X21186337Y-12208928D02*
X21191099Y-12227975D01*
X21191099Y-12227975D02*
X21195861Y-12237499D01*
X21195861Y-12237499D02*
X21200623Y-12242261D01*
X21200623Y-12242261D02*
X21210147Y-12247023D01*
X21210147Y-12247023D02*
X21219670Y-12247023D01*
X21219670Y-12247023D02*
X21229194Y-12242261D01*
X21229194Y-12242261D02*
X21233956Y-12237499D01*
X21233956Y-12237499D02*
X21238718Y-12227975D01*
X21238718Y-12227975D02*
X21238718Y-12204166D01*
X21238718Y-12204166D02*
X21233956Y-12189880D01*
X21191099Y-12113690D02*
X21186337Y-12099404D01*
X21186337Y-12099404D02*
X21181575Y-12094642D01*
X21181575Y-12094642D02*
X21172051Y-12089880D01*
X21172051Y-12089880D02*
X21157766Y-12089880D01*
X21157766Y-12089880D02*
X21148242Y-12094642D01*
X21148242Y-12094642D02*
X21143480Y-12099404D01*
X21143480Y-12099404D02*
X21138718Y-12108928D01*
X21138718Y-12108928D02*
X21138718Y-12147023D01*
X21138718Y-12147023D02*
X21238718Y-12147023D01*
X21238718Y-12147023D02*
X21238718Y-12113690D01*
X21238718Y-12113690D02*
X21233956Y-12104166D01*
X21233956Y-12104166D02*
X21229194Y-12099404D01*
X21229194Y-12099404D02*
X21219670Y-12094642D01*
X21219670Y-12094642D02*
X21210147Y-12094642D01*
X21210147Y-12094642D02*
X21200623Y-12099404D01*
X21200623Y-12099404D02*
X21195861Y-12104166D01*
X21195861Y-12104166D02*
X21191099Y-12113690D01*
X21191099Y-12113690D02*
X21191099Y-12147023D01*
X7857689Y-9294652D02*
X7857689Y-9247033D01*
X7829118Y-9304176D02*
X7929118Y-9270843D01*
X7929118Y-9270843D02*
X7829118Y-9237510D01*
X7929118Y-9204176D02*
X7848166Y-9204176D01*
X7848166Y-9204176D02*
X7838642Y-9199414D01*
X7838642Y-9199414D02*
X7833880Y-9194652D01*
X7833880Y-9194652D02*
X7829118Y-9185129D01*
X7829118Y-9185129D02*
X7829118Y-9166081D01*
X7829118Y-9166081D02*
X7833880Y-9156557D01*
X7833880Y-9156557D02*
X7838642Y-9151795D01*
X7838642Y-9151795D02*
X7848166Y-9147033D01*
X7848166Y-9147033D02*
X7929118Y-9147033D01*
X7929118Y-9108938D02*
X7829118Y-9042271D01*
X7929118Y-9042271D02*
X7829118Y-9108938D01*
X7867213Y-8927986D02*
X7867213Y-8851795D01*
X7829118Y-8727986D02*
X7929118Y-8727986D01*
X7929118Y-8661319D02*
X7929118Y-8642271D01*
X7929118Y-8642271D02*
X7924356Y-8632748D01*
X7924356Y-8632748D02*
X7914832Y-8623224D01*
X7914832Y-8623224D02*
X7895785Y-8618462D01*
X7895785Y-8618462D02*
X7862451Y-8618462D01*
X7862451Y-8618462D02*
X7843404Y-8623224D01*
X7843404Y-8623224D02*
X7833880Y-8632748D01*
X7833880Y-8632748D02*
X7829118Y-8642271D01*
X7829118Y-8642271D02*
X7829118Y-8661319D01*
X7829118Y-8661319D02*
X7833880Y-8670843D01*
X7833880Y-8670843D02*
X7843404Y-8680367D01*
X7843404Y-8680367D02*
X7862451Y-8685129D01*
X7862451Y-8685129D02*
X7895785Y-8685129D01*
X7895785Y-8685129D02*
X7914832Y-8680367D01*
X7914832Y-8680367D02*
X7924356Y-8670843D01*
X7924356Y-8670843D02*
X7929118Y-8661319D01*
X7833880Y-12378911D02*
X7829118Y-12364625D01*
X7829118Y-12364625D02*
X7829118Y-12340815D01*
X7829118Y-12340815D02*
X7833880Y-12331292D01*
X7833880Y-12331292D02*
X7838642Y-12326530D01*
X7838642Y-12326530D02*
X7848166Y-12321768D01*
X7848166Y-12321768D02*
X7857689Y-12321768D01*
X7857689Y-12321768D02*
X7867213Y-12326530D01*
X7867213Y-12326530D02*
X7871975Y-12331292D01*
X7871975Y-12331292D02*
X7876737Y-12340815D01*
X7876737Y-12340815D02*
X7881499Y-12359863D01*
X7881499Y-12359863D02*
X7886261Y-12369387D01*
X7886261Y-12369387D02*
X7891023Y-12374149D01*
X7891023Y-12374149D02*
X7900547Y-12378911D01*
X7900547Y-12378911D02*
X7910070Y-12378911D01*
X7910070Y-12378911D02*
X7919594Y-12374149D01*
X7919594Y-12374149D02*
X7924356Y-12369387D01*
X7924356Y-12369387D02*
X7929118Y-12359863D01*
X7929118Y-12359863D02*
X7929118Y-12336054D01*
X7929118Y-12336054D02*
X7924356Y-12321768D01*
X7929118Y-12293196D02*
X7929118Y-12236054D01*
X7829118Y-12264625D02*
X7929118Y-12264625D01*
X7867213Y-12202720D02*
X7867213Y-12126530D01*
X7829118Y-12031292D02*
X7829118Y-12078911D01*
X7829118Y-12078911D02*
X7929118Y-12078911D01*
X7829118Y-11997958D02*
X7929118Y-11997958D01*
X7829118Y-11950339D02*
X7929118Y-11950339D01*
X7929118Y-11950339D02*
X7829118Y-11893196D01*
X7829118Y-11893196D02*
X7929118Y-11893196D01*
X7829118Y-11845577D02*
X7929118Y-11845577D01*
X7829118Y-11788435D02*
X7886261Y-11831292D01*
X7929118Y-11788435D02*
X7871975Y-11845577D01*
X21143480Y-9763345D02*
X21138718Y-9749059D01*
X21138718Y-9749059D02*
X21138718Y-9725250D01*
X21138718Y-9725250D02*
X21143480Y-9715726D01*
X21143480Y-9715726D02*
X21148242Y-9710964D01*
X21148242Y-9710964D02*
X21157766Y-9706202D01*
X21157766Y-9706202D02*
X21167290Y-9706202D01*
X21167290Y-9706202D02*
X21176813Y-9710964D01*
X21176813Y-9710964D02*
X21181575Y-9715726D01*
X21181575Y-9715726D02*
X21186337Y-9725250D01*
X21186337Y-9725250D02*
X21191099Y-9744297D01*
X21191099Y-9744297D02*
X21195861Y-9753821D01*
X21195861Y-9753821D02*
X21200623Y-9758583D01*
X21200623Y-9758583D02*
X21210147Y-9763345D01*
X21210147Y-9763345D02*
X21219670Y-9763345D01*
X21219670Y-9763345D02*
X21229194Y-9758583D01*
X21229194Y-9758583D02*
X21233956Y-9753821D01*
X21233956Y-9753821D02*
X21238718Y-9744297D01*
X21238718Y-9744297D02*
X21238718Y-9720488D01*
X21238718Y-9720488D02*
X21233956Y-9706202D01*
X21191099Y-9663345D02*
X21191099Y-9630012D01*
X21138718Y-9615726D02*
X21138718Y-9663345D01*
X21138718Y-9663345D02*
X21238718Y-9663345D01*
X21238718Y-9663345D02*
X21238718Y-9615726D01*
X21138718Y-9515726D02*
X21186337Y-9549059D01*
X21138718Y-9572869D02*
X21238718Y-9572869D01*
X21238718Y-9572869D02*
X21238718Y-9534774D01*
X21238718Y-9534774D02*
X21233956Y-9525250D01*
X21233956Y-9525250D02*
X21229194Y-9520488D01*
X21229194Y-9520488D02*
X21219670Y-9515726D01*
X21219670Y-9515726D02*
X21205385Y-9515726D01*
X21205385Y-9515726D02*
X21195861Y-9520488D01*
X21195861Y-9520488D02*
X21191099Y-9525250D01*
X21191099Y-9525250D02*
X21186337Y-9534774D01*
X21186337Y-9534774D02*
X21186337Y-9572869D01*
X21138718Y-9472869D02*
X21238718Y-9472869D01*
X21167290Y-9430012D02*
X21167290Y-9382393D01*
X21138718Y-9439536D02*
X21238718Y-9406202D01*
X21238718Y-9406202D02*
X21138718Y-9372869D01*
X21138718Y-9291917D02*
X21138718Y-9339536D01*
X21138718Y-9339536D02*
X21238718Y-9339536D01*
X7833880Y-10851257D02*
X7829118Y-10836972D01*
X7829118Y-10836972D02*
X7829118Y-10813162D01*
X7829118Y-10813162D02*
X7833880Y-10803638D01*
X7833880Y-10803638D02*
X7838642Y-10798877D01*
X7838642Y-10798877D02*
X7848166Y-10794115D01*
X7848166Y-10794115D02*
X7857689Y-10794115D01*
X7857689Y-10794115D02*
X7867213Y-10798877D01*
X7867213Y-10798877D02*
X7871975Y-10803638D01*
X7871975Y-10803638D02*
X7876737Y-10813162D01*
X7876737Y-10813162D02*
X7881499Y-10832210D01*
X7881499Y-10832210D02*
X7886261Y-10841734D01*
X7886261Y-10841734D02*
X7891023Y-10846496D01*
X7891023Y-10846496D02*
X7900547Y-10851257D01*
X7900547Y-10851257D02*
X7910070Y-10851257D01*
X7910070Y-10851257D02*
X7919594Y-10846496D01*
X7919594Y-10846496D02*
X7924356Y-10841734D01*
X7924356Y-10841734D02*
X7929118Y-10832210D01*
X7929118Y-10832210D02*
X7929118Y-10808400D01*
X7929118Y-10808400D02*
X7924356Y-10794115D01*
X7829118Y-10751257D02*
X7929118Y-10751257D01*
X7929118Y-10751257D02*
X7929118Y-10713162D01*
X7929118Y-10713162D02*
X7924356Y-10703638D01*
X7924356Y-10703638D02*
X7919594Y-10698877D01*
X7919594Y-10698877D02*
X7910070Y-10694115D01*
X7910070Y-10694115D02*
X7895785Y-10694115D01*
X7895785Y-10694115D02*
X7886261Y-10698877D01*
X7886261Y-10698877D02*
X7881499Y-10703638D01*
X7881499Y-10703638D02*
X7876737Y-10713162D01*
X7876737Y-10713162D02*
X7876737Y-10751257D01*
X7881499Y-10651257D02*
X7881499Y-10617924D01*
X7829118Y-10603638D02*
X7829118Y-10651257D01*
X7829118Y-10651257D02*
X7929118Y-10651257D01*
X7929118Y-10651257D02*
X7929118Y-10603638D01*
X7857689Y-10565543D02*
X7857689Y-10517924D01*
X7829118Y-10575067D02*
X7929118Y-10541734D01*
X7929118Y-10541734D02*
X7829118Y-10508400D01*
X7829118Y-10475067D02*
X7929118Y-10475067D01*
X7829118Y-10417924D02*
X7886261Y-10460781D01*
X7929118Y-10417924D02*
X7871975Y-10475067D01*
X7881499Y-10375067D02*
X7881499Y-10341734D01*
X7829118Y-10327448D02*
X7829118Y-10375067D01*
X7829118Y-10375067D02*
X7929118Y-10375067D01*
X7929118Y-10375067D02*
X7929118Y-10327448D01*
X7829118Y-10227448D02*
X7876737Y-10260781D01*
X7829118Y-10284591D02*
X7929118Y-10284591D01*
X7929118Y-10284591D02*
X7929118Y-10246496D01*
X7929118Y-10246496D02*
X7924356Y-10236972D01*
X7924356Y-10236972D02*
X7919594Y-10232210D01*
X7919594Y-10232210D02*
X7910070Y-10227448D01*
X7910070Y-10227448D02*
X7895785Y-10227448D01*
X7895785Y-10227448D02*
X7886261Y-10232210D01*
X7886261Y-10232210D02*
X7881499Y-10236972D01*
X7881499Y-10236972D02*
X7876737Y-10246496D01*
X7876737Y-10246496D02*
X7876737Y-10284591D01*
X10243183Y-5550975D02*
X10243183Y-5617642D01*
X10286040Y-5550975D02*
X10286040Y-5603356D01*
X10286040Y-5603356D02*
X10281278Y-5612880D01*
X10281278Y-5612880D02*
X10271755Y-5617642D01*
X10271755Y-5617642D02*
X10257469Y-5617642D01*
X10257469Y-5617642D02*
X10247945Y-5612880D01*
X10247945Y-5612880D02*
X10243183Y-5608118D01*
X10200326Y-5612880D02*
X10186040Y-5617642D01*
X10186040Y-5617642D02*
X10162231Y-5617642D01*
X10162231Y-5617642D02*
X10152707Y-5612880D01*
X10152707Y-5612880D02*
X10147945Y-5608118D01*
X10147945Y-5608118D02*
X10143183Y-5598594D01*
X10143183Y-5598594D02*
X10143183Y-5589070D01*
X10143183Y-5589070D02*
X10147945Y-5579547D01*
X10147945Y-5579547D02*
X10152707Y-5574785D01*
X10152707Y-5574785D02*
X10162231Y-5570023D01*
X10162231Y-5570023D02*
X10181278Y-5565261D01*
X10181278Y-5565261D02*
X10190802Y-5560499D01*
X10190802Y-5560499D02*
X10195564Y-5555737D01*
X10195564Y-5555737D02*
X10200326Y-5546213D01*
X10200326Y-5546213D02*
X10200326Y-5536690D01*
X10200326Y-5536690D02*
X10195564Y-5527166D01*
X10195564Y-5527166D02*
X10190802Y-5522404D01*
X10190802Y-5522404D02*
X10181278Y-5517642D01*
X10181278Y-5517642D02*
X10157469Y-5517642D01*
X10157469Y-5517642D02*
X10143183Y-5522404D01*
X10100326Y-5617642D02*
X10100326Y-5517642D01*
X10100326Y-5517642D02*
X10076516Y-5517642D01*
X10076516Y-5517642D02*
X10062231Y-5522404D01*
X10062231Y-5522404D02*
X10052707Y-5531928D01*
X10052707Y-5531928D02*
X10047945Y-5541451D01*
X10047945Y-5541451D02*
X10043183Y-5560499D01*
X10043183Y-5560499D02*
X10043183Y-5574785D01*
X10043183Y-5574785D02*
X10047945Y-5593832D01*
X10047945Y-5593832D02*
X10052707Y-5603356D01*
X10052707Y-5603356D02*
X10062231Y-5612880D01*
X10062231Y-5612880D02*
X10076516Y-5617642D01*
X10076516Y-5617642D02*
X10100326Y-5617642D01*
M02*
