M48
; DRILL file {KiCad 9.0.1} date 2025-06-27T17:41:07+0700
; FORMAT={-:-/ absolute / inch / decimal}
; #@! TF.CreationDate,2025-06-27T17:41:07+07:00
; #@! TF.GenerationSoftware,Kicad,Pcbnew,9.0.1
; #@! TF.FileFunction,Plated,1,6,PTH
FMAT,2
INCH
; #@! TA.AperFunction,Plated,PTH,ViaDrill
T1C0.0118
; #@! TA.AperFunction,Plated,PTH,ComponentDrill
T2C0.0197
; #@! TA.AperFunction,Plated,PTH,ComponentDrill
T3C0.0236
; #@! TA.AperFunction,Plated,PTH,ComponentDrill
T4C0.1260
%
G90
G05
T1
X3.09Y-4.703
X3.129Y-4.083
X3.129Y-4.208
X3.153Y-3.353
X3.153Y-3.769
X3.204Y-4.727
X3.216Y-2.654
X3.216Y-2.837
X3.217Y-3.02
X3.232Y-4.653
X3.244Y-4.587
X3.261Y-2.719
X3.305Y-3.382
X3.305Y-3.4224
X3.305Y-3.4618
X3.305Y-3.5012
X3.305Y-3.5405
X3.305Y-3.5799
X3.305Y-3.6193
X3.305Y-3.6586
X3.305Y-3.698
X3.305Y-3.7374
X3.324Y-4.653
X3.342Y-3.973
X3.342Y-4.313
X3.364Y-4.616
X3.387Y-4.728
X3.442Y-2.836
X3.443Y-3.02
X3.512Y-2.857
X3.512Y-3.046
X3.578Y-4.434
X3.588Y-2.884
X3.615Y-2.253
X3.645Y-2.631
X3.665Y-2.948
X3.6676Y-4.1536
X3.6676Y-4.1851
X3.669Y-4.603
X3.669Y-4.653
X3.669Y-4.703
X3.669Y-4.853
X3.673Y-3.956
X3.693Y-4.277
X3.6991Y-4.1536
X3.6991Y-4.1851
X3.729Y-3.209
X3.743Y-4.0616
X3.76Y-3.141
X3.7601Y-3.797
X3.79Y-4.0006
X3.7916Y-3.241
X3.7916Y-3.815
X3.8231Y-3.218
X3.8231Y-3.801
X3.853Y-4.102
X3.8546Y-3.241
X3.8738Y-2.721
X3.886Y-4.1886
X3.8861Y-3.22
X3.9171Y-2.721
X3.9176Y-3.241
X3.9491Y-3.364
X3.9604Y-2.721
X3.9806Y-3.349
X4.01Y-2.849
X4.0121Y-3.801
X4.0436Y-3.349
X4.0436Y-3.648
X4.047Y-2.721
X4.072Y-2.771
X4.0751Y-3.364
X4.0751Y-3.801
X4.0903Y-2.722
X4.1066Y-3.694
X4.1336Y-2.622
X4.1336Y-2.722
X4.1381Y-3.242
X4.17Y-3.173
X4.1769Y-2.621
X4.1769Y-2.722
X4.1822Y-3.862
X4.2011Y-3.349
X4.207Y-3.173
X4.2202Y-2.722
X4.2205Y-3.862
X4.2326Y-3.249
X4.249Y-3.957
X4.253Y-2.79
X4.2661Y-3.342
X4.2956Y-3.695
X4.2961Y-3.369
X4.304Y-2.253
X4.304Y-2.631
X4.315Y-4.29
X4.327Y-3.173
X4.3271Y-3.797
X4.3586Y-3.4004
X4.3586Y-3.6946
X4.365Y-3.174
X4.38Y-3.971
X4.39Y-3.801
X4.3901Y-3.241
X4.4216Y-3.346
X4.4216Y-3.862
X4.453Y-3.241
X4.4593Y-3.862
X4.4845Y-3.349
X4.505Y-4.01
X4.507Y-4.335
X4.516Y-3.797
X4.5459Y-4.118
X4.547Y-3.205
X4.5475Y-3.349
X4.548Y-3.168
X4.573Y-2.497
X4.573Y-2.547
X4.573Y-2.597
X4.573Y-2.647
X4.579Y-3.797
X4.595Y-2.235
X4.596Y-2.15
X4.601Y-3.944
X4.627Y-4.119
X4.662Y-4.002
X4.6896Y-4.1064
X4.718Y-4.002
X4.752Y-3.4025
X4.768Y-2.597
X4.768Y-2.647
X4.828Y-3.3579
X4.851Y-3.576
X4.853Y-4.118
X4.8702Y-3.8508
X4.88Y-3.8829
X4.882Y-2.55
X4.885Y-3.5959
X4.894Y-3.298
X4.907Y-2.463
X4.9074Y-3.4753
X4.919Y-3.721
X4.921Y-4.541
X4.9336Y-3.88
X4.934Y-3.533
X4.944Y-3.75
X4.947Y-4.581
X4.954Y-2.1507
X4.973Y-4.521
X4.975Y-4.0437
X4.978Y-3.144
X4.9898Y-4.1665
X5.0Y-4.6894
X5.016Y-3.051
X5.0357Y-2.284
X5.04Y-3.5851
X5.0407Y-3.8213
X5.048Y-4.023
X5.05Y-3.6835
X5.061Y-3.791
X5.061Y-4.2197
X5.072Y-4.125
X5.079Y-4.158
X5.086Y-3.079
X5.098Y-2.149
X5.107Y-4.875
X5.107Y-4.9905
X5.107Y-5.106
X5.1081Y-3.7097
X5.112Y-4.199
X5.126Y-2.859
X5.126Y-2.8878
X5.126Y-2.9165
X5.126Y-2.9453
X5.126Y-2.974
X5.13Y-2.647
X5.1442Y-3.7112
X5.147Y-3.081
X5.154Y-2.547
X5.1572Y-2.859
X5.171Y-3.282
X5.1757Y-3.6917
X5.1884Y-2.859
X5.2053Y-3.8154
X5.2106Y-4.9905
X5.2106Y-5.106
X5.2107Y-4.875
X5.2116Y-4.0251
X5.212Y-2.712
X5.2196Y-2.859
X5.221Y-2.497
X5.221Y-2.597
X5.227Y-3.183
X5.23Y-3.3354
X5.24Y-2.264
X5.2414Y-3.7739
X5.243Y-4.023
X5.2508Y-2.859
X5.251Y-3.8421
X5.261Y-4.198
X5.262Y-3.511
X5.263Y-3.5474
X5.271Y-3.342
X5.276Y-3.172
X5.282Y-2.859
X5.282Y-2.8876
X5.282Y-2.9162
X5.282Y-2.9448
X5.282Y-2.9734
X5.282Y-3.002
X5.294Y-2.148
X5.2965Y-3.732
X5.298Y-4.199
X5.3029Y-3.8622
X5.303Y-3.51
X5.3104Y-3.646
X5.3142Y-4.9905
X5.3142Y-5.106
X5.3144Y-4.875
X5.3208Y-3.9852
X5.329Y-3.294
X5.3398Y-3.8615
X5.355Y-3.068
X5.358Y-3.619
X5.389Y-3.5434
X5.4046Y-3.93
X5.417Y-2.572
X5.4178Y-4.9905
X5.4178Y-5.106
X5.4182Y-4.875
X5.4247Y-3.5434
X5.4345Y-2.1504
X5.438Y-4.3415
X5.441Y-3.07
X5.4545Y-2.9765
X5.4557Y-3.0128
X5.468Y-3.521
X5.477Y-4.198
X5.492Y-3.7664
X5.492Y-3.85
X5.4991Y-3.1262
X5.5Y-2.717
X5.5026Y-4.3641
X5.514Y-4.293
X5.515Y-4.199
X5.5151Y-3.3241
X5.5158Y-3.7457
X5.5159Y-3.828
X5.5214Y-4.9905
X5.5214Y-5.106
X5.5219Y-4.875
X5.524Y-3.4563
X5.532Y-3.158
X5.5377Y-3.4871
X5.5385Y-3.8944
X5.545Y-3.343
X5.5476Y-3.026
X5.5594Y-4.3868
X5.5617Y-3.828
X5.5736Y-3.323
X5.578Y-4.561
X5.5785Y-4.6055
X5.5909Y-3.5013
X5.5934Y-3.3697
X5.5993Y-3.466
X5.6011Y-4.41
X5.603Y-3.5903
X5.606Y-2.497
X5.613Y-2.547
X5.613Y-2.597
X5.6207Y-3.8001
X5.624Y-3.6961
X5.6251Y-4.9905
X5.6251Y-5.106
X5.6256Y-4.875
X5.6438Y-3.3556
X5.6475Y-3.6305
X5.6484Y-3.5818
X5.6484Y-3.7414
X5.6656Y-3.4624
X5.675Y-3.3252
X5.6753Y-2.647
X5.678Y-4.637
X5.6784Y-3.027
X5.68Y-3.893
X5.701Y-3.857
X5.701Y-3.958
X5.7014Y-3.9196
X5.706Y-3.314
X5.719Y-4.467
X5.721Y-3.476
X5.7269Y-3.9921
X5.728Y-2.272
X5.7287Y-4.9905
X5.7287Y-5.106
X5.7293Y-4.875
X5.737Y-3.8577
X5.742Y-4.025
X5.743Y-4.265
X5.753Y-4.511
X5.753Y-4.581
X5.7596Y-3.8287
X5.765Y-3.701
X5.7698Y-3.8585
X5.778Y-3.296
X5.78Y-2.147
X5.785Y-3.136
X5.785Y-3.169
X5.785Y-3.9794
X5.788Y-2.999
X5.8001Y-4.1875
X5.807Y-4.117
X5.8323Y-4.9905
X5.8323Y-5.106
X5.8331Y-4.875
X5.837Y-2.937
X5.8935Y-3.6865
X5.894Y-3.4276
X5.8955Y-3.8859
X5.9151Y-2.1504
X5.916Y-3.28
X5.927Y-3.887
X5.929Y-3.467
X5.929Y-3.6046
X5.9359Y-4.9905
X5.9359Y-5.106
X5.9368Y-4.875
X5.942Y-4.002
X5.944Y-3.556
X5.944Y-3.753
X5.944Y-3.791
X5.946Y-4.3784
X5.946Y-4.4325
X5.9498Y-3.6752
X5.9588Y-3.8882
X5.969Y-4.293
X5.977Y-4.3558
X5.978Y-4.401
X5.979Y-3.428
X5.981Y-3.31
X5.9911Y-3.8879
X5.9964Y-2.6221
X5.9968Y-2.268
X6.012Y-4.156
X6.012Y-4.225
X6.012Y-4.2704
X6.014Y-3.941
X6.014Y-4.002
X6.014Y-4.0474
X6.015Y-3.698
X6.0208Y-3.8009
X6.022Y-2.913
X6.0235Y-3.8875
X6.0395Y-4.9905
X6.0395Y-5.106
X6.0405Y-4.875
X6.0452Y-2.8612
X6.047Y-4.2477
X6.048Y-3.9184
X6.048Y-3.964
X6.048Y-4.0247
X6.048Y-4.07
X6.048Y-4.1334
X6.048Y-4.179
X6.05Y-3.723
X6.0507Y-3.7913
X6.0549Y-3.546
X6.055Y-3.5855
X6.055Y-3.617
X6.056Y-3.5145
X6.075Y-4.3331
X6.0808Y-2.8614
X6.0873Y-4.511
X6.0873Y-4.581
X6.1403Y-2.8973
X6.1431Y-4.9905
X6.1431Y-5.106
X6.1442Y-4.875
X6.148Y-2.777
X6.16Y-4.309
X6.164Y-2.638
X6.189Y-3.854
X6.197Y-2.575
X6.2096Y-3.412
X6.214Y-3.163
X6.215Y-3.055
X6.24Y-3.254
X6.2467Y-4.9905
X6.2467Y-5.106
X6.2479Y-4.875
X6.2529Y-2.7381
X6.26Y-3.017
X6.267Y-2.938
X6.305Y-3.159
X6.339Y-2.915
X6.347Y-2.74
X6.3503Y-4.9905
X6.3503Y-5.106
X6.351Y-3.019
X6.3517Y-4.875
X6.353Y-3.351
X6.395Y-3.153
X6.401Y-3.255
X6.405Y-2.307
X6.4215Y-4.511
X6.4215Y-4.581
X6.442Y-3.017
X6.448Y-2.556
X6.4539Y-4.9905
X6.4539Y-5.106
X6.4554Y-4.875
X6.4704Y-2.7516
X6.477Y-2.311
X6.482Y-3.404
X6.491Y-3.261
X6.511Y-2.968
X6.5576Y-4.9905
X6.5576Y-5.106
X6.5591Y-4.875
X6.561Y-3.011
X6.593Y-3.1
X6.596Y-3.203
X6.63Y-2.729
X6.63Y-2.787
X6.63Y-2.845
X6.63Y-2.903
X6.6612Y-4.9905
X6.6612Y-5.106
X6.6628Y-4.875
X6.675Y-2.964
X6.708Y-3.253
X6.7557Y-4.511
X6.7557Y-4.581
X6.764Y-2.964
X6.764Y-3.0114
X6.7648Y-4.9905
X6.7648Y-5.106
X6.7666Y-4.875
X6.805Y-2.839
X6.852Y-3.257
X6.8684Y-4.9905
X6.8684Y-5.106
X6.8703Y-4.875
X6.875Y-3.167
X6.972Y-4.875
X6.972Y-4.9905
X6.972Y-5.106
X6.98Y-2.752
X6.982Y-2.595
X7.003Y-3.351
X7.0453Y-2.752
X7.09Y-4.511
X7.09Y-4.581
X7.097Y-2.274
X7.107Y-3.413
X7.1107Y-2.752
X7.1111Y-3.066
X7.126Y-4.546
X7.161Y-2.974
X7.176Y-2.752
X7.1764Y-3.066
X7.216Y-4.471
X7.216Y-4.618
X7.256Y-3.095
X7.266Y-3.535
X7.293Y-2.857
X7.306Y-4.546
X7.31Y-3.067
X7.349Y-4.511
X7.349Y-4.581
X7.36Y-3.244
X7.364Y-3.37
X7.369Y-2.885
X7.4001Y-2.8417
X7.406Y-3.243
X7.453Y-3.214
X7.479Y-3.018
X7.484Y-3.071
X7.517Y-3.133
X7.517Y-4.511
X7.52Y-4.581
X7.584Y-3.535
X7.625Y-3.116
X7.625Y-3.1475
X7.6565Y-3.116
X7.6565Y-3.1475
X7.681Y-3.613
X7.681Y-3.8096
X7.681Y-3.8844
X7.682Y-3.6875
X7.695Y-2.843
X7.707Y-4.511
X7.707Y-4.581
X7.753Y-3.32
X7.82Y-4.694
X7.84Y-4.619
X7.933Y-4.122
X7.936Y-4.808
X7.954Y-3.695
X7.956Y-3.802
X7.965Y-3.601
X7.974Y-4.752
X7.986Y-2.357
X7.988Y-3.546
X8.013Y-4.664
X8.013Y-4.691
X8.013Y-4.851
X8.013Y-4.878
X8.02Y-2.76
X8.0556Y-2.9406
X8.0556Y-2.98
X8.0556Y-3.0194
X8.064Y-4.753
X8.066Y-3.545
X8.067Y-3.748
X8.073Y-4.674
X8.075Y-4.937
X8.095Y-2.9406
X8.095Y-2.98
X8.095Y-3.0194
X8.102Y-3.208
X8.1344Y-2.9406
X8.1344Y-2.98
X8.1344Y-3.0194
X8.142Y-3.544
X8.145Y-4.558
X8.192Y-4.489
X8.195Y-4.302
X8.195Y-4.3525
X8.195Y-4.403
X8.244Y-4.302
X8.244Y-4.3525
X8.244Y-4.403
X8.305Y-4.574
X8.305Y-5.04
X8.3346Y-3.426
X8.3346Y-4.071
T2
X3.0502Y-2.221
X3.0502Y-5.2761
X3.0778Y-2.1542
X3.0778Y-2.2878
X3.0778Y-5.2093
X3.0778Y-5.3429
X3.1447Y-2.1265
X3.1447Y-2.3155
X3.1447Y-5.1816
X3.1447Y-5.3706
X3.2115Y-2.1542
X3.2115Y-2.2878
X3.2115Y-5.2093
X3.2115Y-5.3429
X3.2391Y-2.221
X3.2391Y-5.2761
X8.188Y-2.221
X8.188Y-5.2761
X8.2156Y-2.1542
X8.2156Y-2.2878
X8.2156Y-5.2093
X8.2156Y-5.3429
X8.2825Y-2.1265
X8.2825Y-2.3155
X8.2825Y-5.1816
X8.2825Y-5.3706
X8.3493Y-2.1542
X8.3493Y-2.2878
X8.3493Y-5.2093
X8.3493Y-5.3429
X8.3769Y-2.221
X8.3769Y-5.2761
T4
X3.1447Y-2.221
X3.1447Y-5.2761
X8.2825Y-2.221
X8.2825Y-5.2761
T3
X8.1235Y-4.6369G85X8.1668Y-4.6369
G05
X8.1235Y-4.9771G85X8.1668Y-4.9771
G05
X8.2948Y-4.6369G85X8.3263Y-4.6369
G05
X8.2948Y-4.9771G85X8.3263Y-4.9771
G05
M30
