%TF.GenerationSoftware,KiCad,Pcbnew,9.0.1*%
%TF.CreationDate,2025-06-27T17:41:06+07:00*%
%TF.ProjectId,lcd-standard-5R,6c63642d-7374-4616-9e64-6172642d3552,rev?*%
%TF.SameCoordinates,Original*%
%TF.FileFunction,Copper,L6,Bot*%
%TF.FilePolarity,Positive*%
%FSLAX45Y45*%
G04 Gerber Fmt 4.5, Leading zero omitted, Abs format (unit mm)*
G04 Created by KiCad (PCBNEW 9.0.1) date 2025-06-27 17:41:06*
%MOMM*%
%LPD*%
G01*
G04 APERTURE LIST*
%TA.AperFunction,ComponentPad*%
%ADD10C,0.800000*%
%TD*%
%TA.AperFunction,ComponentPad*%
%ADD11C,6.400000*%
%TD*%
%TA.AperFunction,ComponentPad*%
%ADD12O,2.100000X1.000000*%
%TD*%
%TA.AperFunction,ComponentPad*%
%ADD13O,1.800000X1.000000*%
%TD*%
%TA.AperFunction,ViaPad*%
%ADD14C,0.600000*%
%TD*%
%TA.AperFunction,ViaPad*%
%ADD15C,0.500000*%
%TD*%
%TA.AperFunction,Conductor*%
%ADD16C,0.150000*%
%TD*%
%TA.AperFunction,Conductor*%
%ADD17C,0.600000*%
%TD*%
%TA.AperFunction,Conductor*%
%ADD18C,0.200000*%
%TD*%
G04 APERTURE END LIST*
D10*
%TO.P,H1,1,1*%
%TO.N,GND*%
X7747440Y-5641340D03*
X7817734Y-5471634D03*
X7817734Y-5811046D03*
X7987440Y-5401340D03*
D11*
X7987440Y-5641340D03*
D10*
X7987440Y-5881340D03*
X8157146Y-5471634D03*
X8157146Y-5811046D03*
X8227440Y-5641340D03*
%TD*%
%TO.P,H2,1,1*%
%TO.N,GND*%
X7747440Y-13401340D03*
X7817734Y-13231634D03*
X7817734Y-13571046D03*
X7987440Y-13161340D03*
D11*
X7987440Y-13401340D03*
D10*
X7987440Y-13641340D03*
X8157146Y-13231634D03*
X8157146Y-13571046D03*
X8227440Y-13401340D03*
%TD*%
%TO.P,H3,1,1*%
%TO.N,GND*%
X20797440Y-5641340D03*
X20867734Y-5471634D03*
X20867734Y-5811046D03*
X21037440Y-5401340D03*
D11*
X21037440Y-5641340D03*
D10*
X21037440Y-5881340D03*
X21207146Y-5471634D03*
X21207146Y-5811046D03*
X21277440Y-5641340D03*
%TD*%
%TO.P,H4,1,1*%
%TO.N,GND*%
X20797440Y-13401340D03*
X20867734Y-13231634D03*
X20867734Y-13571046D03*
X21037440Y-13161340D03*
D11*
X21037440Y-13401340D03*
D10*
X21037440Y-13641340D03*
X21207146Y-13231634D03*
X21207146Y-13571046D03*
X21277440Y-13401340D03*
%TD*%
D12*
%TO.P,J1,S1,SHIELD*%
%TO.N,GND*%
X20688700Y-12641780D03*
D13*
X21108700Y-12641780D03*
D12*
X20688700Y-11777780D03*
D13*
X21108700Y-11777780D03*
%TD*%
D14*
%TO.N,+3V3*%
X13030200Y-6723380D03*
%TO.N,GND*%
X16129846Y-12675870D03*
X13020040Y-7261860D03*
X20579080Y-8148320D03*
X15461615Y-11635740D03*
X19913600Y-11732260D03*
X17450505Y-12382500D03*
X15603502Y-12969240D03*
X10990740Y-9644460D03*
X13762143Y-12382500D03*
X20807680Y-11402060D03*
X14289052Y-12382500D03*
X16434780Y-6989100D03*
X9182100Y-5722620D03*
X11841480Y-10165080D03*
X17187050Y-12382500D03*
X13803727Y-5461940D03*
X14287641Y-12675870D03*
X18228167Y-7787640D03*
X15866674Y-12969240D03*
X18051780Y-8669020D03*
X20680680Y-9001760D03*
X15097760Y-9629160D03*
X16014700Y-8023860D03*
X16919363Y-12675870D03*
X16656191Y-12675870D03*
X15340330Y-12675870D03*
X20208240Y-9657080D03*
X13337032Y-7261860D03*
X8008620Y-8516620D03*
X21169760Y-8702040D03*
X12674000Y-10583000D03*
X13416280Y-7407148D03*
X16753840Y-8135620D03*
X10932160Y-6682740D03*
X16840200Y-6931660D03*
X18328640Y-11356340D03*
X13235234Y-12382500D03*
X10750740Y-8252460D03*
X17180560Y-7528560D03*
X8920480Y-7256780D03*
X14550813Y-12969240D03*
X18717260Y-7327900D03*
X9870440Y-10638950D03*
X13234952Y-12675870D03*
X17462500Y-8044180D03*
X21094700Y-11617960D03*
X14612620Y-11457940D03*
X8394700Y-8590280D03*
X8138160Y-12006580D03*
X19545300Y-7221220D03*
X11615420Y-6469380D03*
X13238480Y-6888480D03*
X20157440Y-12212320D03*
X15786100Y-7759800D03*
X13761297Y-12969240D03*
X19263360Y-8978900D03*
X12971780Y-12382500D03*
X12326620Y-10459720D03*
X16362680Y-7663180D03*
X16393019Y-12969240D03*
X15461615Y-11457940D03*
X19509740Y-9676340D03*
X9315610Y-10550050D03*
X9315610Y-10630050D03*
X13416280Y-7479792D03*
X12400280Y-6477000D03*
X9550740Y-9644460D03*
X14584680Y-10223500D03*
X18996660Y-7665720D03*
X17708880Y-12969240D03*
X11470740Y-9644460D03*
X17734280Y-6591300D03*
X16923596Y-12382500D03*
X14612620Y-11635740D03*
X12971780Y-12675870D03*
X13178536Y-7261860D03*
X15606324Y-12382500D03*
X14552506Y-12382500D03*
X9258300Y-6682780D03*
X15900400Y-7663180D03*
X9380220Y-10863580D03*
X19100800Y-11635740D03*
X13498124Y-12969240D03*
X18567400Y-7790180D03*
X12948920Y-5458460D03*
X10389380Y-6913880D03*
X13498124Y-12675870D03*
X8745220Y-7670800D03*
X12918440Y-7820660D03*
X16101060Y-7404100D03*
X13362940Y-10662920D03*
X16487140Y-8282940D03*
X17159605Y-11635740D03*
X15646400Y-10944860D03*
X17182535Y-12969240D03*
X13416280Y-7261860D03*
X18704560Y-8559800D03*
X21169760Y-10340340D03*
X16131540Y-7668260D03*
X17404080Y-8272780D03*
X14676120Y-8371840D03*
X9550400Y-7978140D03*
X16310610Y-11457940D03*
X13416280Y-7625080D03*
X14024469Y-12969240D03*
X19093180Y-7957820D03*
X12321540Y-9083040D03*
X19009360Y-7800340D03*
X20505420Y-11871960D03*
X14815961Y-12382500D03*
X15191740Y-8407400D03*
X20203160Y-9385300D03*
X16840200Y-7373620D03*
X17708880Y-12382500D03*
X8742680Y-7203440D03*
X15772440Y-8666480D03*
X11615420Y-6342380D03*
X15059660Y-9155780D03*
X18930620Y-8163560D03*
X16840200Y-7078980D03*
X16954500Y-7528560D03*
X18524220Y-7256780D03*
X14024469Y-12675870D03*
X10685780Y-8059420D03*
X11442700Y-10185400D03*
X11551920Y-8046720D03*
X12801600Y-9106160D03*
X15918180Y-7462520D03*
X15866674Y-12675870D03*
X16537940Y-7538720D03*
X14051280Y-8021320D03*
X18008600Y-11457940D03*
X7947660Y-10688320D03*
X14239240Y-6342380D03*
X16310610Y-11635740D03*
X18188940Y-7553960D03*
X19093180Y-11457940D03*
X9626600Y-10161430D03*
X10792460Y-10050780D03*
X17708880Y-12675870D03*
X16258540Y-8267700D03*
X21094700Y-12801600D03*
X13416280Y-7552436D03*
X12430760Y-8376920D03*
X15740380Y-6540500D03*
X9395610Y-10630050D03*
X13073380Y-7825740D03*
X16464280Y-8646160D03*
X18328640Y-11729720D03*
X17787620Y-8511540D03*
X16393019Y-12675870D03*
X13257784Y-7261860D03*
X10342880Y-7038340D03*
X17180560Y-7648980D03*
X11230740Y-8498840D03*
X17445707Y-12675870D03*
X14813985Y-12969240D03*
X13234952Y-12969240D03*
X8008620Y-9573260D03*
X16377920Y-6492240D03*
X20289520Y-9006840D03*
X7947660Y-10370820D03*
X15869778Y-12382500D03*
X16243300Y-8008620D03*
X18811240Y-8237220D03*
X13020040Y-7553960D03*
X16133233Y-12382500D03*
X9395610Y-10550050D03*
X16451580Y-5869940D03*
X13134340Y-8336280D03*
X15077158Y-12969240D03*
X13759180Y-6532880D03*
X20231100Y-9146540D03*
X12583160Y-5462760D03*
X16840200Y-7226300D03*
X11326740Y-9809480D03*
X16268700Y-5859780D03*
X18008600Y-11635740D03*
X13020040Y-7334885D03*
X15342870Y-12382500D03*
X13911580Y-10662920D03*
X15603502Y-12675870D03*
X20510500Y-12539980D03*
X20370800Y-7010400D03*
X8282940Y-6906260D03*
X20284440Y-5986780D03*
X13761297Y-12675870D03*
X14091020Y-7686040D03*
X13020040Y-7480935D03*
X14587220Y-10833100D03*
X8920480Y-7736840D03*
X8488680Y-10091420D03*
X15186660Y-8707120D03*
X20482560Y-12072620D03*
X12854940Y-9629140D03*
X12740640Y-7749540D03*
X11615420Y-6723380D03*
X16660142Y-12382500D03*
X17445707Y-12969240D03*
X13446760Y-5455920D03*
X18430240Y-7861300D03*
X16129846Y-12969240D03*
X13020040Y-7407910D03*
X14025598Y-12382500D03*
X18455640Y-8978900D03*
X19862800Y-11922760D03*
X20688300Y-11577320D03*
X13498689Y-12382500D03*
X11630740Y-9644460D03*
X15077158Y-12675870D03*
X14480540Y-10053320D03*
X17159605Y-11457940D03*
X18666460Y-11635740D03*
X17182535Y-12675870D03*
X19575780Y-11457940D03*
X20253960Y-12070080D03*
X14701520Y-7617460D03*
X10932160Y-5722620D03*
X8602980Y-12009120D03*
X11686540Y-10017760D03*
X19509740Y-9177020D03*
X9507220Y-10316370D03*
X15079415Y-12382500D03*
X8488680Y-10955020D03*
X20490180Y-9519920D03*
X18100040Y-11546840D03*
X14813985Y-12675870D03*
X15783560Y-8034020D03*
X11615420Y-6596380D03*
X17038320Y-8262620D03*
X16121380Y-6959600D03*
X16656191Y-12969240D03*
X20149820Y-10469880D03*
X15024293Y-5461940D03*
X16136620Y-8511540D03*
X8394700Y-9492960D03*
X11983720Y-10165080D03*
X14423020Y-7688580D03*
X13416280Y-7334504D03*
X12971780Y-12969240D03*
X11546620Y-10459720D03*
X16919363Y-12969240D03*
X12494260Y-9451340D03*
X14287641Y-12969240D03*
X18062220Y-7787640D03*
X14550813Y-12675870D03*
X10622740Y-9809560D03*
X20487640Y-9004300D03*
X18666460Y-11457940D03*
X14681200Y-5453380D03*
X9319260Y-11691620D03*
X13099288Y-7261860D03*
X16396687Y-12382500D03*
X11087100Y-8061960D03*
X19575780Y-11635740D03*
X15849600Y-8265160D03*
X15340330Y-12969240D03*
D15*
%TO.N,/MEMORY_SD_CARD/SD_CLK*%
X10279380Y-6911340D03*
D14*
X13388340Y-8488662D03*
D15*
%TO.N,/MEMORY_SD_CARD/SD_CMD*%
X10059380Y-6911340D03*
D14*
%TO.N,/DISPLAY/CTP_WAKE*%
X15102840Y-11121152D03*
X13976557Y-11084928D03*
%TO.N,/DISPLAY/CTP_SDA*%
X14120780Y-11142384D03*
X15184120Y-11178652D03*
X11911620Y-10430220D03*
%TO.N,/DISPLAY/CTP_SCL*%
X11752580Y-10462260D03*
X15102840Y-11258653D03*
X14226680Y-11201400D03*
%TO.N,/DISPLAY/CTP_INT*%
X15181580Y-11063652D03*
X13812520Y-11027429D03*
%TO.N,+3V3*%
X14749780Y-10457180D03*
X8168640Y-7205980D03*
X15026640Y-8331200D03*
X12644120Y-7985760D03*
X10990580Y-8059420D03*
X19692620Y-8432800D03*
X14825980Y-7459980D03*
X13970000Y-6901180D03*
X10185400Y-7236460D03*
X12263120Y-8529160D03*
X12463780Y-6256020D03*
X10960100Y-10896600D03*
X8544560Y-11724640D03*
X15656560Y-6700520D03*
X16664940Y-7647940D03*
X20661300Y-7569200D03*
X20561300Y-7569200D03*
X10802620Y-7086600D03*
X17284700Y-7211060D03*
X20561300Y-7469200D03*
X15097760Y-9032240D03*
X10720180Y-9809560D03*
X20461300Y-7669200D03*
X19509740Y-9866340D03*
X11230740Y-9809480D03*
X12557760Y-9525000D03*
X18694400Y-8239760D03*
X14549120Y-5770880D03*
X11447780Y-11010900D03*
X8168640Y-6741160D03*
X20461300Y-7569200D03*
X9471660Y-8150860D03*
X13456920Y-10665460D03*
X11673840Y-5461000D03*
X12636500Y-10271000D03*
X8171180Y-7670800D03*
X20661300Y-7669200D03*
X13309600Y-5750560D03*
X20461300Y-7469200D03*
X7848600Y-11945620D03*
X20561300Y-7669200D03*
X19512280Y-9366340D03*
X20661300Y-7469200D03*
X13967701Y-7940495D03*
X14008100Y-10665460D03*
X16746220Y-7874000D03*
X11125200Y-10086340D03*
X12407900Y-9133660D03*
X15097760Y-9532620D03*
X11549380Y-8140700D03*
X10591800Y-8059420D03*
%TO.N,/IO/IO_3*%
X8394700Y-9092960D03*
%TO.N,/IO/IO_6*%
X8394700Y-8792960D03*
%TO.N,/IO/IO_0*%
X8394700Y-9392960D03*
%TO.N,/IO/IO_5*%
X8394700Y-8892960D03*
%TO.N,/IO/IO_7*%
X8394700Y-8692960D03*
%TO.N,/IO/IO_4*%
X8394700Y-8992960D03*
%TO.N,/IO/IO_2*%
X8394700Y-9192960D03*
%TO.N,/IO/IO_1*%
X8394700Y-9292960D03*
%TO.N,/DISPLAY/RTP_CS*%
X15295880Y-7399020D03*
X14643100Y-9400577D03*
%TO.N,/DISPLAY/RTP_IRQ*%
X15882400Y-6954740D03*
X15720060Y-9789160D03*
%TO.N,/MCU/NRST*%
X12700000Y-11911120D03*
X9319260Y-12326620D03*
X8209280Y-11818620D03*
X13401040Y-8056880D03*
X12790660Y-5801360D03*
%TO.N,VBUS*%
X20353020Y-11846560D03*
X20353020Y-12321540D03*
X18557240Y-11546840D03*
X20353020Y-12390120D03*
X20353020Y-11915140D03*
D15*
%TO.N,/MEMORY_FMC/~{SDRAM_RAS}*%
X12532360Y-8973820D03*
X10270740Y-8506540D03*
%TO.N,/MEMORY_FMC/SDRAM_CKE*%
X10270740Y-9265920D03*
X12464860Y-8827260D03*
%TO.N,/MCU/SD_D3*%
X14222314Y-8803640D03*
X9949380Y-6911340D03*
D14*
%TO.N,/IO/BTN_1*%
X14969568Y-9363660D03*
X15231793Y-5760720D03*
D15*
%TO.N,/MEMORY_FMC/SDRAM_BA1*%
X13563168Y-9808334D03*
X10030740Y-8544640D03*
D14*
%TO.N,/DISPLAY/RTP_BUSY*%
X15354782Y-7267385D03*
X14974627Y-9870223D03*
%TO.N,/DISPLAY/RTP_CLK*%
X15217471Y-9875151D03*
X15596410Y-7359190D03*
%TO.N,/DISPLAY/RTP_MISO*%
X15135272Y-9876033D03*
X15615920Y-7053580D03*
%TO.N,/DISPLAY/RTP_MOSI*%
X15054580Y-9872980D03*
X15445180Y-7267860D03*
%TO.N,VDD*%
X20815300Y-10927080D03*
X17729200Y-6990080D03*
X18026380Y-5775960D03*
X20815300Y-11055350D03*
X17895147Y-6990080D03*
X20939760Y-11055350D03*
X9088120Y-11262360D03*
X19447500Y-7914640D03*
X20939760Y-11183620D03*
X19367500Y-7914640D03*
X19447500Y-7994640D03*
X18061093Y-6990080D03*
X9329420Y-10048240D03*
X20939760Y-10927080D03*
X18227040Y-6990080D03*
X20815300Y-11183620D03*
X19367500Y-7994640D03*
%TO.N,/MCU/BOOT0*%
X11671300Y-5676900D03*
X14970760Y-8706160D03*
D15*
%TO.N,/MEMORY_FLASH/~{NOR_CS}*%
X14415260Y-6723380D03*
X14390606Y-8794514D03*
%TO.N,/MCU/SDRAM_ADD12*%
X13514810Y-10122430D03*
X10190740Y-9654620D03*
%TO.N,/MEMORY_FMC/SDRAM_LDQM*%
X14030960Y-8778962D03*
X10510740Y-8234680D03*
D14*
%TO.N,/MCU/SWDIO*%
X14526260Y-11346180D03*
X8442960Y-11818620D03*
X9319260Y-11818620D03*
X14168120Y-11584940D03*
D15*
%TO.N,/MCU/SDRAM_DQ2*%
X11310740Y-8232220D03*
X14481620Y-9955720D03*
%TO.N,/MCU/SD_D2*%
X9839380Y-6911340D03*
X14200845Y-8893410D03*
%TO.N,/MCU/SDRAM_DQ4*%
X12974574Y-9422727D03*
X11070740Y-8636980D03*
%TO.N,/MCU/SDRAM_ADD5*%
X13688060Y-9000300D03*
X9710740Y-9654620D03*
%TO.N,/MCU/SDRAM_ADD10*%
X9950740Y-8232140D03*
X12827000Y-9356160D03*
%TO.N,/MCU/SDRAM_ADD4*%
X9630740Y-9690180D03*
X13778766Y-9000300D03*
%TO.N,/MCU/SDRAM_DQ7*%
X12803320Y-9706160D03*
X10670740Y-8506540D03*
%TO.N,/MEMORY_FMC/SDRAM_BA0*%
X10110740Y-8506540D03*
X13469435Y-9810060D03*
%TO.N,/MCU/SDRAM_ADD1*%
X9790740Y-8232140D03*
X14156997Y-8440420D03*
%TO.N,/MCU/SDRAM_DQ1*%
X11390740Y-8506540D03*
X13337540Y-9758833D03*
%TO.N,/MEMORY_FMC/SDRAM_UDQM*%
X10430740Y-9382840D03*
X13888720Y-8943340D03*
%TO.N,/MCU/SDRAM_DQ10*%
X12531280Y-9855200D03*
X10910740Y-9385300D03*
%TO.N,/MCU/SDRAM_DQ3*%
X11150740Y-8232220D03*
X14427200Y-9888220D03*
%TO.N,/MCU/SDRAM_DQ12*%
X12395200Y-9862500D03*
X11150600Y-9654540D03*
%TO.N,/MCU/SDRAM_ADD0*%
X9870740Y-8178800D03*
X14207314Y-8559118D03*
%TO.N,/MEMORY_FMC/~{SDRAM_CAS}*%
X10350740Y-8544640D03*
X14065845Y-8857360D03*
D14*
%TO.N,/MCU/SWCLK*%
X9319260Y-11945620D03*
X15430500Y-11006152D03*
X14169390Y-11697970D03*
X8239760Y-11650980D03*
D15*
%TO.N,/MEMORY_FMC/SDRAM_CLK*%
X13727620Y-9982200D03*
X10350740Y-9654620D03*
%TO.N,/MCU/SD_D1*%
X10609380Y-6913880D03*
X10609380Y-6657340D03*
X12984500Y-10665440D03*
%TO.N,/MCU/SDRAM_DQ5*%
X13066290Y-9426470D03*
X10912020Y-8557340D03*
%TO.N,/MCU/SDRAM_DQ11*%
X12370272Y-9781068D03*
X11070740Y-9384220D03*
D14*
%TO.N,/MCU/ST_LINK_RX*%
X14531340Y-8829040D03*
X14422120Y-11777980D03*
D15*
%TO.N,/MCU/SD_D0*%
X12854940Y-10718040D03*
X10499380Y-6913880D03*
X10499380Y-6659880D03*
%TO.N,/MCU/SDRAM_ADD3*%
X14008439Y-8443299D03*
X9630740Y-8232140D03*
%TO.N,/MCU/SDRAM_DQ0*%
X11550740Y-8506540D03*
X13221482Y-9691233D03*
%TO.N,/MCU/SDRAM_ADD2*%
X14084300Y-8491220D03*
X9710740Y-8173720D03*
%TO.N,/MCU/SDRAM_DQ6*%
X13146300Y-9376940D03*
X10835820Y-8488760D03*
D14*
%TO.N,Net-(C10-Pad1)*%
X14732140Y-10636320D03*
X12821920Y-10218440D03*
%TO.N,/IO/SERIAL_TX*%
X14655237Y-9800599D03*
X14693900Y-10107580D03*
%TO.N,/IO/SERIAL_RX*%
X14480540Y-9796780D03*
X14546239Y-10140021D03*
%TO.N,/MEMORY_SD_CARD/SD_DET*%
X13284200Y-8471820D03*
D15*
X10719380Y-6913880D03*
D14*
%TO.N,/DISPLAY/LCD_R5*%
X15270480Y-10556240D03*
X13469620Y-8915400D03*
%TO.N,/DISPLAY/LCD_G5*%
X13453096Y-9479280D03*
X15275560Y-10010140D03*
%TO.N,/DISPLAY/LCD_HSYNC*%
X15379700Y-9107180D03*
X14344589Y-9221410D03*
%TO.N,/DISPLAY/LCD_G0*%
X15361920Y-10337800D03*
X13949680Y-9566560D03*
X14414500Y-8446035D03*
X13949680Y-9779000D03*
%TO.N,/DISPLAY/LCD_R4*%
X15361920Y-10614660D03*
X13609301Y-9192279D03*
%TO.N,/DISPLAY/LCD_R3*%
X15270480Y-10731500D03*
X13488320Y-9260840D03*
%TO.N,/DISPLAY/LCD_R6*%
X14067804Y-9891820D03*
X15361920Y-10498740D03*
%TO.N,/DISPLAY/LCD_B5*%
X15278100Y-9392920D03*
X14231620Y-9119428D03*
%TO.N,/DISPLAY/LCD_B1*%
X15368902Y-9629777D03*
X15112386Y-9335114D03*
%TO.N,/DISPLAY/LCD_G2*%
X14126680Y-9723120D03*
X15361920Y-10222800D03*
%TO.N,/DISPLAY/LCD_R0*%
X15092680Y-10165080D03*
X14571980Y-9798660D03*
%TO.N,/DISPLAY/LCD_R2*%
X13365480Y-8917940D03*
X15359380Y-10789220D03*
%TO.N,/DISPLAY/LCD_R1*%
X13368020Y-9010300D03*
X15270480Y-10846720D03*
%TO.N,/DISPLAY/LCD_B0*%
X15292737Y-9654250D03*
X14493221Y-8417579D03*
%TO.N,/DISPLAY/LCD_G1*%
X14010304Y-9723120D03*
X14335326Y-8523320D03*
X14010068Y-9514088D03*
X15275560Y-10280300D03*
%TO.N,/DISPLAY/LCD_VSYNC*%
X15379525Y-9006834D03*
X14346896Y-9097774D03*
%TO.N,/DISPLAY/LCD_CLK*%
X15379700Y-9187180D03*
X14284941Y-9388060D03*
%TO.N,/DISPLAY/LCD_DE*%
X13535660Y-8366760D03*
X15382279Y-8926881D03*
%TO.N,/DISPLAY/LCD_G3*%
X15275560Y-10165080D03*
X14629480Y-9724859D03*
%TO.N,/DISPLAY/LCD_R7*%
X14005560Y-10904220D03*
X15161297Y-10904220D03*
%TO.N,/DISPLAY/LCD_G4*%
X13313060Y-9585740D03*
X15361920Y-10068560D03*
%TO.N,/DISPLAY/LCD_B4*%
X14346896Y-9503060D03*
X15367000Y-9456420D03*
%TO.N,/DISPLAY/LCD_G6*%
X15361920Y-9952640D03*
X14276680Y-9652380D03*
%TO.N,/MEMORY_EEPROM/EE_SDA*%
X13317220Y-10218440D03*
X12110720Y-6723380D03*
%TO.N,/MEMORY_EEPROM/EE_SCL*%
X13237390Y-10223660D03*
X12110720Y-6596380D03*
%TO.N,/DISPLAY/LCD_BLK*%
X18796160Y-7218009D03*
X15299690Y-9874250D03*
%TO.N,/OUTPUT_SPEAKER/~{SD_MODE}*%
X9786620Y-10419080D03*
X14693900Y-7965440D03*
X9309100Y-7487920D03*
%TO.N,/IO/LED0*%
X14693900Y-8049260D03*
X9113520Y-7325360D03*
%TO.N,/IO/BUZZER*%
X15059660Y-8806180D03*
X15230760Y-6660123D03*
%TO.N,/OUTPUT_SPEAKER/I2S2_CLK*%
X12900660Y-10561320D03*
X12631420Y-11483340D03*
%TO.N,/OUTPUT_SPEAKER/I2S2_SDO*%
X12499321Y-11534121D03*
X13276580Y-8084820D03*
%TO.N,/OUTPUT_SPEAKER/I2S2_WS*%
X12882880Y-10477500D03*
X12565380Y-11635740D03*
D15*
%TO.N,Net-(U5-CLK)*%
X13091160Y-6469380D03*
X12070080Y-8642420D03*
%TO.N,Net-(U5-DI(IO0))*%
X13261340Y-6342380D03*
X13601700Y-7792720D03*
%TO.N,Net-(U5-DO(IO1))*%
X13854430Y-7560310D03*
X14257020Y-6596380D03*
%TO.N,Net-(U5-IO2)*%
X14257020Y-6469380D03*
X13857596Y-7652603D03*
%TO.N,Net-(U5-IO3)*%
X13820140Y-7797800D03*
X13261340Y-6596380D03*
%TD*%
D16*
%TO.N,/OUTPUT_SPEAKER/~{SD_MODE}*%
X9842960Y-6423200D02*
X9309100Y-6957060D01*
X11283140Y-6423200D02*
X9842960Y-6423200D01*
X12656820Y-6169660D02*
X11536680Y-6169660D01*
X12794900Y-6823360D02*
X12794900Y-6307740D01*
X13037820Y-7066280D02*
X12794900Y-6823360D01*
X12794900Y-6307740D02*
X12656820Y-6169660D01*
X13891260Y-7066280D02*
X13037820Y-7066280D01*
X14693900Y-7868920D02*
X13891260Y-7066280D01*
X14693900Y-7965440D02*
X14693900Y-7868920D01*
%TO.N,/IO/LED0*%
X9828421Y-6388100D02*
X9113520Y-7103001D01*
X11525141Y-6131560D02*
X11268601Y-6388100D01*
X11268601Y-6388100D02*
X9828421Y-6388100D01*
X12668359Y-6131560D02*
X11525141Y-6131560D01*
%TO.N,/OUTPUT_SPEAKER/~{SD_MODE}*%
X11536680Y-6169660D02*
X11283140Y-6423200D01*
%TO.N,/IO/LED0*%
X12830000Y-6293201D02*
X12668359Y-6131560D01*
X12830000Y-6808821D02*
X12830000Y-6293201D01*
X9113520Y-7103001D02*
X9113520Y-7325360D01*
X13052359Y-7031180D02*
X12830000Y-6808821D01*
X14751400Y-7876781D02*
X13905799Y-7031180D01*
X14751400Y-7941481D02*
X14751400Y-7876781D01*
X14751500Y-7941581D02*
X14751400Y-7941481D01*
X14751500Y-7989299D02*
X14751500Y-7941581D01*
X14751400Y-7989399D02*
X14751500Y-7989299D01*
X13905799Y-7031180D02*
X13052359Y-7031180D01*
X14751400Y-7991760D02*
X14751400Y-7989399D01*
X14693900Y-8049260D02*
X14751400Y-7991760D01*
%TO.N,/MCU/NRST*%
X12865100Y-6268720D02*
X12790660Y-6194280D01*
X13068300Y-6990080D02*
X12865100Y-6786880D01*
X12790660Y-6194280D02*
X12790660Y-5801360D01*
X13924280Y-6990080D02*
X13068300Y-6990080D01*
X14836140Y-8214360D02*
X14836140Y-7901940D01*
%TO.N,/OUTPUT_SPEAKER/~{SD_MODE}*%
X9309100Y-6957060D02*
X9309100Y-7487920D01*
%TO.N,/MCU/NRST*%
X14762480Y-8288020D02*
X14836140Y-8214360D01*
X13632180Y-8288020D02*
X14762480Y-8288020D01*
X12865100Y-6786880D02*
X12865100Y-6268720D01*
X13401040Y-8056880D02*
X13632180Y-8288020D01*
X14836140Y-7901940D02*
X13924280Y-6990080D01*
%TO.N,/DISPLAY/LCD_G2*%
X15157340Y-10290920D02*
X15225460Y-10222800D01*
X15225460Y-10222800D02*
X15361920Y-10222800D01*
X14553900Y-10290920D02*
X15157340Y-10290920D01*
X14195604Y-9838884D02*
X14195604Y-9932624D01*
X14167780Y-9811060D02*
X14195604Y-9838884D01*
X14167780Y-9764220D02*
X14167780Y-9811060D01*
X14126680Y-9723120D02*
X14167780Y-9764220D01*
X14195604Y-9932624D02*
X14553900Y-10290920D01*
%TO.N,/DISPLAY/LCD_G1*%
X14309914Y-8908226D02*
X14309914Y-8727886D01*
X14111740Y-9106400D02*
X14309914Y-8908226D01*
X14335326Y-8701606D02*
X14335326Y-8523320D01*
X14111740Y-9412416D02*
X14111740Y-9106400D01*
X14309914Y-8727886D02*
X14335760Y-8702040D01*
X14335760Y-8702040D02*
X14335326Y-8701606D01*
X14010068Y-9514088D02*
X14111740Y-9412416D01*
%TO.N,/DISPLAY/LCD_B0*%
X14493221Y-8776368D02*
X14493221Y-8417579D01*
X14465300Y-8804289D02*
X14493221Y-8776368D01*
X14465300Y-8865761D02*
X14465300Y-8804289D01*
X14311796Y-9019265D02*
X14465300Y-8865761D01*
X14311796Y-9019865D02*
X14311796Y-9019265D01*
X14249725Y-9019865D02*
X14311796Y-9019865D01*
X14146740Y-9122849D02*
X14249725Y-9019865D01*
X14146740Y-9384221D02*
X14146740Y-9122849D01*
X14160960Y-9398441D02*
X14146740Y-9384221D01*
X14160960Y-9398583D02*
X14160960Y-9398441D01*
X14243179Y-9480660D02*
X14243038Y-9480660D01*
X14243038Y-9480660D02*
X14160960Y-9398583D01*
X14323079Y-9560560D02*
X14243179Y-9480660D01*
X15217285Y-9462920D02*
X15050620Y-9462920D01*
X15050620Y-9462920D02*
X14952980Y-9560560D01*
X14952980Y-9560560D02*
X14323079Y-9560560D01*
X15292737Y-9538372D02*
X15217285Y-9462920D01*
X15292737Y-9654250D02*
X15292737Y-9538372D01*
%TO.N,/DISPLAY/CTP_SCL*%
X14114820Y-11313260D02*
X14226680Y-11201400D01*
X11876520Y-11449800D02*
X12194540Y-11767820D01*
X13291820Y-11313160D02*
X13291920Y-11313260D01*
X11876520Y-10835120D02*
X11876520Y-11449800D01*
X12194540Y-11767820D02*
X12837160Y-11767820D01*
X12837160Y-11767820D02*
X13291820Y-11313160D01*
X11752580Y-10711180D02*
X11876520Y-10835120D01*
X13291920Y-11313260D02*
X14114820Y-11313260D01*
X11752580Y-10462260D02*
X11752580Y-10711180D01*
%TO.N,/MEMORY_FMC/~{SDRAM_RAS}*%
X10518551Y-8700720D02*
X10506051Y-8688220D01*
X10468551Y-8847720D02*
X10456051Y-8860220D01*
X9815260Y-8860220D02*
X9781540Y-8826500D01*
X10281051Y-8688220D02*
X10268551Y-8700720D01*
X10368551Y-8847720D02*
X10356051Y-8860220D01*
X10418551Y-8847720D02*
X10418551Y-8700720D01*
X10056051Y-8860220D02*
X10031051Y-8860220D01*
X9781540Y-8826500D02*
X9781540Y-8661400D01*
X10181051Y-8688220D02*
X10168551Y-8700720D01*
X10218551Y-8700720D02*
X10206051Y-8688220D01*
X10168551Y-8700720D02*
X10168551Y-8847720D01*
X10268551Y-8700720D02*
X10268551Y-8847720D01*
X10270740Y-8559800D02*
X10270740Y-8506540D01*
X10214860Y-8615680D02*
X10270740Y-8559800D01*
X9856051Y-8860220D02*
X9829800Y-8860220D01*
X10218551Y-8847720D02*
X10218551Y-8700720D01*
X10481051Y-8688220D02*
X10468551Y-8700720D01*
X10418551Y-8700720D02*
X10406051Y-8688220D01*
X10068551Y-8847720D02*
X10056051Y-8860220D01*
X10256051Y-8860220D02*
X10231051Y-8860220D01*
X9918551Y-8847720D02*
X9918551Y-8700720D01*
X10118551Y-8700720D02*
X10106051Y-8688220D01*
X10118551Y-8847720D02*
X10118551Y-8700720D01*
X10531051Y-8860220D02*
X10518551Y-8847720D01*
X10406051Y-8688220D02*
X10381051Y-8688220D01*
X10356051Y-8860220D02*
X10331051Y-8860220D01*
X10506051Y-8688220D02*
X10481051Y-8688220D01*
X10368551Y-8700720D02*
X10368551Y-8847720D01*
X9829800Y-8860220D02*
X9815260Y-8860220D01*
X10381051Y-8688220D02*
X10368551Y-8700720D01*
X9868551Y-8847720D02*
X9856051Y-8860220D01*
X9931051Y-8860220D02*
X9918551Y-8847720D01*
X9906051Y-8688220D02*
X9881051Y-8688220D01*
X9827260Y-8615680D02*
X10214860Y-8615680D01*
X9781540Y-8661400D02*
X9827260Y-8615680D01*
X9881051Y-8688220D02*
X9868551Y-8700720D01*
X10031051Y-8860220D02*
X10018551Y-8847720D01*
X10068551Y-8700720D02*
X10068551Y-8847720D01*
X10156051Y-8860220D02*
X10131051Y-8860220D01*
X10468551Y-8700720D02*
X10468551Y-8847720D01*
X10081051Y-8688220D02*
X10068551Y-8700720D01*
X10106051Y-8688220D02*
X10081051Y-8688220D01*
X9968551Y-8700720D02*
X9968551Y-8847720D01*
X10331051Y-8860220D02*
X10318551Y-8847720D01*
X10318551Y-8847720D02*
X10318551Y-8700720D01*
X9981051Y-8688220D02*
X9968551Y-8700720D01*
X10431051Y-8860220D02*
X10418551Y-8847720D01*
X9968551Y-8847720D02*
X9956051Y-8860220D01*
X9868551Y-8700720D02*
X9868551Y-8847720D01*
X10231051Y-8860220D02*
X10218551Y-8847720D01*
X10518551Y-8847720D02*
X10518551Y-8700720D01*
X10018551Y-8700720D02*
X10006051Y-8688220D01*
X10456051Y-8860220D02*
X10431051Y-8860220D01*
X9956051Y-8860220D02*
X9931051Y-8860220D01*
X10131051Y-8860220D02*
X10118551Y-8847720D01*
X10268551Y-8847720D02*
X10256051Y-8860220D01*
X9918551Y-8700720D02*
X9906051Y-8688220D01*
X10606051Y-8688220D02*
X10581051Y-8688220D01*
X10556051Y-8860220D02*
X10531051Y-8860220D01*
X10568551Y-8847720D02*
X10556051Y-8860220D01*
X10206051Y-8688220D02*
X10181051Y-8688220D01*
X10568551Y-8700720D02*
X10568551Y-8847720D01*
X12532360Y-8973820D02*
X12532360Y-8778240D01*
X10318551Y-8700720D02*
X10306051Y-8688220D01*
X10306051Y-8688220D02*
X10281051Y-8688220D01*
X10581051Y-8688220D02*
X10568551Y-8700720D01*
X10618551Y-8700720D02*
X10606051Y-8688220D01*
X10018551Y-8847720D02*
X10018551Y-8700720D01*
X12328460Y-8860220D02*
X10631051Y-8860220D01*
X12532360Y-8778240D02*
X12513880Y-8759760D01*
X10631051Y-8860220D02*
X10618551Y-8847720D01*
X10618551Y-8847720D02*
X10618551Y-8700720D01*
X10168551Y-8847720D02*
X10156051Y-8860220D01*
X12513880Y-8759760D02*
X12428920Y-8759760D01*
X12428920Y-8759760D02*
X12328460Y-8860220D01*
X10006051Y-8688220D02*
X9981051Y-8688220D01*
%TO.N,/MEMORY_FMC/~{SDRAM_CAS}*%
X13692567Y-8869860D02*
X13680067Y-8857360D01*
X14065845Y-8857360D02*
X13855067Y-8857360D01*
X13792567Y-8891860D02*
X13792567Y-8842860D01*
X13692567Y-8896860D02*
X13692567Y-8869860D01*
X13591920Y-8857360D02*
X13546222Y-8811662D01*
X12698360Y-8559360D02*
X12674976Y-8559360D01*
X13680067Y-8857360D02*
X13634517Y-8857360D01*
X13780067Y-8830360D02*
X13755067Y-8830360D01*
X12950662Y-8811662D02*
X12698360Y-8559360D01*
X13792567Y-8842860D02*
X13780067Y-8830360D01*
X13805067Y-8904360D02*
X13792567Y-8891860D01*
X13842567Y-8869860D02*
X13842567Y-8891860D01*
X13842567Y-8891860D02*
X13830067Y-8904360D01*
X13705067Y-8909360D02*
X13692567Y-8896860D01*
X13546222Y-8811662D02*
X12950662Y-8811662D01*
X13742567Y-8896860D02*
X13730067Y-8909360D01*
X13742567Y-8842860D02*
X13742567Y-8896860D01*
X13830067Y-8904360D02*
X13805067Y-8904360D01*
X13755067Y-8830360D02*
X13742567Y-8842860D01*
X13634517Y-8857360D02*
X13591920Y-8857360D01*
X13855067Y-8857360D02*
X13842567Y-8869860D01*
X13730067Y-8909360D02*
X13705067Y-8909360D01*
%TO.N,/MEMORY_FMC/SDRAM_LDQM*%
X11153889Y-8358320D02*
X11153889Y-8312320D01*
X11291389Y-8299820D02*
X11266389Y-8299820D01*
X11353889Y-8358320D02*
X11341389Y-8370820D01*
X11041389Y-8213820D02*
X11016389Y-8213820D01*
X11003889Y-8226320D02*
X11003889Y-8287320D01*
X11153889Y-8312320D02*
X11141389Y-8299820D01*
X11166389Y-8370820D02*
X11153889Y-8358320D01*
X11303889Y-8312320D02*
X11291389Y-8299820D01*
X11003889Y-8287320D02*
X10991389Y-8299820D01*
X11403889Y-8358320D02*
X11403889Y-8286320D01*
X11403889Y-8286320D02*
X11391389Y-8273820D01*
X10589480Y-8155940D02*
X10510740Y-8234680D01*
X11416389Y-8370820D02*
X11403889Y-8358320D01*
X11391389Y-8273820D02*
X11366389Y-8273820D01*
X10910940Y-8299820D02*
X10767060Y-8155940D01*
X11216389Y-8263820D02*
X11203889Y-8276320D01*
X11453889Y-8358320D02*
X11441389Y-8370820D01*
X11203889Y-8358320D02*
X11191389Y-8370820D01*
X10934700Y-8299820D02*
X10910940Y-8299820D01*
X10991389Y-8299820D02*
X10934700Y-8299820D01*
X11253889Y-8287320D02*
X11253889Y-8276320D01*
X11366389Y-8273820D02*
X11353889Y-8286320D01*
X11103889Y-8358320D02*
X11091389Y-8370820D01*
X11241389Y-8263820D02*
X11216389Y-8263820D01*
X11141389Y-8299820D02*
X11116389Y-8299820D01*
X11191389Y-8370820D02*
X11166389Y-8370820D01*
X11016389Y-8213820D02*
X11003889Y-8226320D01*
X11053889Y-8358320D02*
X11053889Y-8226320D01*
X11116389Y-8299820D02*
X11103889Y-8312320D01*
X11103889Y-8312320D02*
X11103889Y-8358320D01*
X11066389Y-8370820D02*
X11053889Y-8358320D01*
X11091389Y-8370820D02*
X11066389Y-8370820D01*
X11203889Y-8276320D02*
X11203889Y-8358320D01*
X11266389Y-8299820D02*
X11253889Y-8287320D01*
X10767060Y-8155940D02*
X10589480Y-8155940D01*
X11316389Y-8370820D02*
X11303889Y-8358320D01*
X12253889Y-8358320D02*
X12241389Y-8370820D01*
X12016389Y-8370820D02*
X12003889Y-8358320D01*
X11591389Y-8299820D02*
X11566389Y-8299820D01*
X11616389Y-8370820D02*
X11603889Y-8358320D01*
X11666389Y-8299820D02*
X11653889Y-8312320D01*
X11716389Y-8370820D02*
X11703889Y-8358320D01*
X12053889Y-8312320D02*
X12053889Y-8358320D01*
X11766389Y-8299820D02*
X11753889Y-8312320D01*
X11966389Y-8299820D02*
X11953889Y-8312320D01*
X11803889Y-8312320D02*
X11791389Y-8299820D01*
X11803889Y-8358320D02*
X11803889Y-8312320D01*
X11853889Y-8312320D02*
X11853889Y-8358320D01*
X11953889Y-8312320D02*
X11953889Y-8358320D01*
X11253889Y-8276320D02*
X11241389Y-8263820D01*
X11341389Y-8370820D02*
X11316389Y-8370820D01*
X11353889Y-8286320D02*
X11353889Y-8358320D01*
X11853889Y-8358320D02*
X11841389Y-8370820D01*
X12191389Y-8299820D02*
X12166389Y-8299820D01*
X11941389Y-8370820D02*
X11916389Y-8370820D01*
X11303889Y-8358320D02*
X11303889Y-8312320D01*
X12053889Y-8358320D02*
X12041389Y-8370820D01*
X12103889Y-8358320D02*
X12103889Y-8312320D01*
X12103889Y-8312320D02*
X12091389Y-8299820D01*
X11816389Y-8370820D02*
X11803889Y-8358320D01*
X11866389Y-8299820D02*
X11853889Y-8312320D01*
X11641389Y-8370820D02*
X11616389Y-8370820D01*
X11653889Y-8358320D02*
X11641389Y-8370820D01*
X11691389Y-8299820D02*
X11666389Y-8299820D01*
X12241389Y-8370820D02*
X12216389Y-8370820D01*
X12066389Y-8299820D02*
X12053889Y-8312320D01*
X11703889Y-8358320D02*
X11703889Y-8312320D01*
X11791389Y-8299820D02*
X11766389Y-8299820D01*
X12153889Y-8358320D02*
X12141389Y-8370820D01*
X11603889Y-8312320D02*
X11591389Y-8299820D01*
X11903889Y-8358320D02*
X11903889Y-8312320D01*
X11916389Y-8370820D02*
X11903889Y-8358320D01*
X12166389Y-8299820D02*
X12153889Y-8312320D01*
X11991389Y-8299820D02*
X11966389Y-8299820D01*
X11953889Y-8358320D02*
X11941389Y-8370820D01*
X11603889Y-8358320D02*
X11603889Y-8312320D01*
X12153889Y-8312320D02*
X12153889Y-8358320D01*
X11441389Y-8370820D02*
X11416389Y-8370820D01*
X11053889Y-8226320D02*
X11041389Y-8213820D01*
X11903889Y-8312320D02*
X11891389Y-8299820D01*
X11503889Y-8312320D02*
X11491389Y-8299820D01*
X11753889Y-8358320D02*
X11741389Y-8370820D01*
X11703889Y-8312320D02*
X11691389Y-8299820D01*
X12216389Y-8370820D02*
X12203889Y-8358320D01*
X12003889Y-8312320D02*
X11991389Y-8299820D01*
X11553889Y-8312320D02*
X11553889Y-8358320D01*
X11453889Y-8312320D02*
X11453889Y-8358320D01*
X11466389Y-8299820D02*
X11453889Y-8312320D01*
X11491389Y-8299820D02*
X11466389Y-8299820D01*
X11503889Y-8358320D02*
X11503889Y-8312320D01*
X12203889Y-8312320D02*
X12191389Y-8299820D01*
X11516389Y-8370820D02*
X11503889Y-8358320D01*
X11541389Y-8370820D02*
X11516389Y-8370820D01*
X11841389Y-8370820D02*
X11816389Y-8370820D01*
X12041389Y-8370820D02*
X12016389Y-8370820D01*
X12141389Y-8370820D02*
X12116389Y-8370820D01*
X12091389Y-8299820D02*
X12066389Y-8299820D01*
X11553889Y-8358320D02*
X11541389Y-8370820D01*
X11566389Y-8299820D02*
X11553889Y-8312320D01*
X11753889Y-8312320D02*
X11753889Y-8358320D01*
X12253889Y-8312320D02*
X12253889Y-8358320D01*
X12291389Y-8299820D02*
X12266389Y-8299820D01*
X11741389Y-8370820D02*
X11716389Y-8370820D01*
X12366389Y-8299820D02*
X12353889Y-8312320D01*
X14030960Y-8778962D02*
X13584374Y-8778962D01*
X11891389Y-8299820D02*
X11866389Y-8299820D01*
X12116389Y-8370820D02*
X12103889Y-8358320D01*
X12353889Y-8312320D02*
X12353889Y-8373320D01*
X12203889Y-8358320D02*
X12203889Y-8312320D01*
X12303889Y-8312320D02*
X12291389Y-8299820D01*
X12303889Y-8373320D02*
X12303889Y-8312320D01*
X12316389Y-8385820D02*
X12303889Y-8373320D01*
X12341389Y-8385820D02*
X12316389Y-8385820D01*
X12266389Y-8299820D02*
X12253889Y-8312320D01*
X12353889Y-8373320D02*
X12341389Y-8385820D01*
X12421389Y-8299820D02*
X12366389Y-8299820D01*
X12003889Y-8358320D02*
X12003889Y-8312320D01*
X11653889Y-8312320D02*
X11653889Y-8358320D01*
X12971414Y-8761562D02*
X12509672Y-8299820D01*
X12509672Y-8299820D02*
X12421389Y-8299820D01*
X13566974Y-8761562D02*
X12971414Y-8761562D01*
X13584374Y-8778962D02*
X13566974Y-8761562D01*
%TO.N,/MEMORY_FMC/SDRAM_CKE*%
X10049838Y-8922820D02*
X10049838Y-9093820D01*
X10299838Y-9093820D02*
X10299838Y-8922820D01*
X10387338Y-9106320D02*
X10399838Y-9093820D01*
X10287338Y-9106320D02*
X10299838Y-9093820D01*
X9999838Y-8922820D02*
X10012338Y-8910320D01*
X10112338Y-8910320D02*
X10137338Y-8910320D01*
X12381800Y-8910320D02*
X12464860Y-8827260D01*
X10487338Y-9106320D02*
X10499838Y-9093820D01*
X10087338Y-9106320D02*
X10099838Y-9093820D01*
X10249838Y-9093820D02*
X10262338Y-9106320D01*
X10349838Y-9093820D02*
X10362338Y-9106320D01*
X10499838Y-9093820D02*
X10499838Y-8922820D01*
X10237338Y-8910320D02*
X10249838Y-8922820D01*
X10499838Y-8922820D02*
X10512338Y-8910320D01*
X10049838Y-9093820D02*
X10062338Y-9106320D01*
X10137338Y-8910320D02*
X10149838Y-8922820D01*
X10512338Y-8910320D02*
X10571480Y-8910320D01*
X10162338Y-9106320D02*
X10187338Y-9106320D01*
X9987338Y-9106320D02*
X9999838Y-9093820D01*
X10437338Y-8910320D02*
X10449838Y-8922820D01*
X10349838Y-8922820D02*
X10349838Y-9093820D01*
X10149838Y-8922820D02*
X10149838Y-9093820D01*
X10212338Y-8910320D02*
X10237338Y-8910320D01*
X10099838Y-8922820D02*
X10112338Y-8910320D01*
X10262338Y-9106320D02*
X10287338Y-9106320D01*
X10062338Y-9106320D02*
X10087338Y-9106320D01*
X10037338Y-8910320D02*
X10049838Y-8922820D01*
X10399838Y-8922820D02*
X10412338Y-8910320D01*
X10399838Y-9093820D02*
X10399838Y-8922820D01*
X10337338Y-8910320D02*
X10349838Y-8922820D01*
X10299838Y-8922820D02*
X10312338Y-8910320D01*
X10199838Y-9093820D02*
X10199838Y-8922820D01*
X9999838Y-9093820D02*
X9999838Y-8922820D01*
X10099838Y-9093820D02*
X10099838Y-8922820D01*
X10012338Y-8910320D02*
X10037338Y-8910320D01*
X10462338Y-9106320D02*
X10487338Y-9106320D01*
X9949838Y-9093820D02*
X9962338Y-9106320D01*
X9751060Y-8940800D02*
X9781540Y-8910320D01*
X9751060Y-9189720D02*
X9751060Y-8940800D01*
X10449838Y-9093820D02*
X10462338Y-9106320D01*
X10149838Y-9093820D02*
X10162338Y-9106320D01*
X10449838Y-8922820D02*
X10449838Y-9093820D01*
X9862338Y-9106320D02*
X9887338Y-9106320D01*
X9781540Y-9220200D02*
X9751060Y-9189720D01*
X10270740Y-9265920D02*
X10225020Y-9220200D01*
X10571480Y-8910320D02*
X12381800Y-8910320D01*
X9849838Y-9093820D02*
X9862338Y-9106320D01*
X9781540Y-8910320D02*
X9837338Y-8910320D01*
X10225020Y-9220200D02*
X9781540Y-9220200D01*
X9949838Y-8922820D02*
X9949838Y-9093820D01*
X10187338Y-9106320D02*
X10199838Y-9093820D01*
X9899838Y-8922820D02*
X9912338Y-8910320D01*
X9899838Y-9093820D02*
X9899838Y-8922820D01*
X9887338Y-9106320D02*
X9899838Y-9093820D01*
X10312338Y-8910320D02*
X10337338Y-8910320D01*
X9837338Y-8910320D02*
X9849838Y-8922820D01*
X10249838Y-8922820D02*
X10249838Y-9093820D01*
X10362338Y-9106320D02*
X10387338Y-9106320D01*
X10199838Y-8922820D02*
X10212338Y-8910320D01*
X9849838Y-8922820D02*
X9849838Y-9093820D01*
X9962338Y-9106320D02*
X9987338Y-9106320D01*
X10412338Y-8910320D02*
X10437338Y-8910320D01*
X9937338Y-8910320D02*
X9949838Y-8922820D01*
X9912338Y-8910320D02*
X9937338Y-8910320D01*
%TO.N,/MCU/SDRAM_DQ12*%
X11805991Y-9588420D02*
X11818491Y-9575920D01*
X11668491Y-9575920D02*
X11680991Y-9588420D01*
X11680991Y-9588420D02*
X11705991Y-9588420D01*
X11922760Y-9329420D02*
X11939586Y-9346246D01*
X11830991Y-9329420D02*
X11922760Y-9329420D01*
X11630991Y-9240420D02*
X11655991Y-9240420D01*
X11705991Y-9588420D02*
X11718491Y-9575920D01*
X11780991Y-9588420D02*
X11805991Y-9588420D01*
X11718491Y-9252920D02*
X11730991Y-9240420D01*
X11768491Y-9252920D02*
X11768491Y-9575920D01*
X11768491Y-9575920D02*
X11780991Y-9588420D01*
X11755991Y-9240420D02*
X11768491Y-9252920D01*
X11718491Y-9575920D02*
X11718491Y-9252920D01*
X11818491Y-9341920D02*
X11830991Y-9329420D01*
X11939586Y-9346246D02*
X11966730Y-9373391D01*
X11655991Y-9240420D02*
X11668491Y-9252920D01*
X11818491Y-9575920D02*
X11818491Y-9341920D01*
X11405991Y-9588420D02*
X11418491Y-9575920D01*
X11368491Y-9575920D02*
X11380991Y-9588420D01*
X11468491Y-9252920D02*
X11468491Y-9555920D01*
X11292840Y-9359900D02*
X11323320Y-9329420D01*
X11730991Y-9240420D02*
X11755991Y-9240420D01*
X11618491Y-9252920D02*
X11630991Y-9240420D01*
X11150600Y-9654540D02*
X11181080Y-9685020D01*
X11618491Y-9560920D02*
X11618491Y-9252920D01*
X11580991Y-9573420D02*
X11605991Y-9573420D01*
X11568491Y-9252920D02*
X11568491Y-9560920D01*
X11530991Y-9240420D02*
X11555991Y-9240420D01*
X11568491Y-9560920D02*
X11580991Y-9573420D01*
X11518491Y-9555920D02*
X11518491Y-9252920D01*
X11181080Y-9685020D02*
X11262360Y-9685020D01*
X11292840Y-9654540D02*
X11292840Y-9359900D01*
X11555991Y-9240420D02*
X11568491Y-9252920D01*
X11323320Y-9329420D02*
X11355991Y-9329420D01*
X11518491Y-9252920D02*
X11530991Y-9240420D01*
X11355991Y-9329420D02*
X11368491Y-9341920D01*
X11505991Y-9568420D02*
X11518491Y-9555920D01*
X11430991Y-9240420D02*
X11455991Y-9240420D01*
X11368491Y-9341920D02*
X11368491Y-9575920D01*
X11480991Y-9568420D02*
X11505991Y-9568420D01*
X11418491Y-9252920D02*
X11430991Y-9240420D01*
X11380991Y-9588420D02*
X11405991Y-9588420D01*
X11668491Y-9252920D02*
X11668491Y-9575920D01*
X11455991Y-9240420D02*
X11468491Y-9252920D01*
X11605991Y-9573420D02*
X11618491Y-9560920D01*
X11468491Y-9555920D02*
X11480991Y-9568420D01*
X11262360Y-9685020D02*
X11292840Y-9654540D01*
X11418491Y-9575920D02*
X11418491Y-9252920D01*
%TO.N,/MCU/SDRAM_DQ11*%
X12051140Y-9190832D02*
X12051140Y-9208510D01*
X11875777Y-9260128D02*
X11893455Y-9277806D01*
X12298627Y-9455997D02*
X12316305Y-9455997D01*
X12227916Y-9385286D02*
X12245594Y-9385286D01*
X12176298Y-9507616D02*
X12176298Y-9525293D01*
X12015785Y-9173154D02*
X12033462Y-9173154D01*
X12370272Y-9532620D02*
X12370272Y-9781068D01*
X11795544Y-9188520D02*
X11808044Y-9176020D01*
X12112658Y-9447512D02*
X12130336Y-9465189D01*
X11758044Y-9176020D02*
X11770544Y-9188520D01*
X11858100Y-9136385D02*
X11875778Y-9154062D01*
X12051140Y-9208510D02*
X11971237Y-9288413D01*
X12059625Y-9394479D02*
X12077303Y-9394479D01*
X12112658Y-9429834D02*
X12112658Y-9447512D01*
X11658044Y-9176020D02*
X11670544Y-9188520D01*
X12130336Y-9465189D02*
X12148013Y-9465189D01*
X12174883Y-9314575D02*
X12192561Y-9332253D01*
X11971237Y-9288413D02*
X11971237Y-9306090D01*
X12077303Y-9394479D02*
X12157206Y-9314575D01*
X12006592Y-9323768D02*
X12086495Y-9243865D01*
X11745544Y-9010520D02*
X11758044Y-9023020D01*
X12316305Y-9455997D02*
X12370272Y-9509964D01*
X12193975Y-9542971D02*
X12211653Y-9542971D01*
X12192561Y-9332253D02*
X12192561Y-9349931D01*
X12157206Y-9314575D02*
X12174883Y-9314575D01*
X11808044Y-9023020D02*
X11820544Y-9010520D01*
X12148013Y-9465189D02*
X12227916Y-9385286D01*
X12041947Y-9359123D02*
X12041947Y-9376801D01*
X12104173Y-9243865D02*
X12121851Y-9261543D01*
X11971237Y-9306090D02*
X11988914Y-9323768D01*
X11893455Y-9154062D02*
X11945074Y-9102444D01*
X11808044Y-9176020D02*
X11808044Y-9023020D01*
X11911133Y-9277806D02*
X12015785Y-9173154D01*
X11875777Y-9242451D02*
X11875777Y-9260128D01*
X11980429Y-9120121D02*
X11980429Y-9137799D01*
X11988914Y-9323768D02*
X12006592Y-9323768D01*
X12211653Y-9542971D02*
X12298627Y-9455997D01*
X11695544Y-9188520D02*
X11708044Y-9176020D01*
X12121851Y-9261543D02*
X12121851Y-9279220D01*
X12263272Y-9420641D02*
X12176298Y-9507616D01*
X11980429Y-9137799D02*
X11875777Y-9242451D01*
X12121851Y-9279220D02*
X12041947Y-9359123D01*
X11870828Y-9010520D02*
X11909719Y-9049411D01*
X12041947Y-9376801D02*
X12059625Y-9394479D01*
X12176298Y-9525293D02*
X12193975Y-9542971D01*
X12263272Y-9402964D02*
X12263272Y-9420641D01*
X12245594Y-9385286D02*
X12263272Y-9402964D01*
X12086495Y-9243865D02*
X12104173Y-9243865D01*
X12033462Y-9173154D02*
X12051140Y-9190832D01*
X11893455Y-9277806D02*
X11911133Y-9277806D01*
X11962752Y-9102444D02*
X11980429Y-9120121D01*
X11909719Y-9067088D02*
X11858100Y-9118707D01*
X11875778Y-9154062D02*
X11893455Y-9154062D01*
X12192561Y-9349931D02*
X12112658Y-9429834D01*
X11720544Y-9010520D02*
X11745544Y-9010520D01*
X11909719Y-9049411D02*
X11909719Y-9067088D01*
X11708044Y-9176020D02*
X11708044Y-9023020D01*
X12370272Y-9509964D02*
X12370272Y-9532620D01*
X11508044Y-9023020D02*
X11520544Y-9010520D01*
X11358044Y-9023020D02*
X11358044Y-9186020D01*
X11758044Y-9023020D02*
X11758044Y-9176020D01*
X11770544Y-9188520D02*
X11795544Y-9188520D01*
X11220544Y-9010520D02*
X11245544Y-9010520D01*
X11270544Y-9198520D02*
X11295544Y-9198520D01*
X11101200Y-9010520D02*
X11145544Y-9010520D01*
X11145544Y-9010520D02*
X11158044Y-9023020D01*
X11070740Y-9384220D02*
X11070740Y-9040980D01*
X11370544Y-9198520D02*
X11395544Y-9198520D01*
X11670544Y-9188520D02*
X11695544Y-9188520D01*
X11708044Y-9023020D02*
X11720544Y-9010520D01*
X11658044Y-9023020D02*
X11658044Y-9176020D01*
X11395544Y-9198520D02*
X11408044Y-9186020D01*
X11170544Y-9198520D02*
X11195544Y-9198520D01*
X11345544Y-9010520D02*
X11358044Y-9023020D01*
X11295544Y-9198520D02*
X11308044Y-9186020D01*
X11258044Y-9023020D02*
X11258044Y-9186020D01*
X11308044Y-9023020D02*
X11320544Y-9010520D01*
X11308044Y-9186020D02*
X11308044Y-9023020D01*
X11258044Y-9186020D02*
X11270544Y-9198520D01*
X11158044Y-9186020D02*
X11170544Y-9198520D01*
X11208044Y-9186020D02*
X11208044Y-9023020D01*
X11470544Y-9188520D02*
X11495544Y-9188520D01*
X11945074Y-9102444D02*
X11962752Y-9102444D01*
X11420544Y-9010520D02*
X11445544Y-9010520D01*
X11645544Y-9010520D02*
X11658044Y-9023020D01*
X11520544Y-9010520D02*
X11545544Y-9010520D01*
X11608044Y-9023020D02*
X11620544Y-9010520D01*
X11608044Y-9176020D02*
X11608044Y-9023020D01*
X11595544Y-9188520D02*
X11608044Y-9176020D01*
X11570544Y-9188520D02*
X11595544Y-9188520D01*
X11208044Y-9023020D02*
X11220544Y-9010520D01*
X11558044Y-9176020D02*
X11570544Y-9188520D01*
X11558044Y-9023020D02*
X11558044Y-9176020D01*
X11545544Y-9010520D02*
X11558044Y-9023020D01*
X11458044Y-9023020D02*
X11458044Y-9176020D01*
X11508044Y-9176020D02*
X11508044Y-9023020D01*
X11495544Y-9188520D02*
X11508044Y-9176020D01*
X11620544Y-9010520D02*
X11645544Y-9010520D01*
X11458044Y-9176020D02*
X11470544Y-9188520D01*
X11820544Y-9010520D02*
X11870828Y-9010520D01*
X11445544Y-9010520D02*
X11458044Y-9023020D01*
X11408044Y-9023020D02*
X11420544Y-9010520D01*
X11858100Y-9118707D02*
X11858100Y-9136385D01*
X11358044Y-9186020D02*
X11370544Y-9198520D01*
X11070740Y-9040980D02*
X11101200Y-9010520D01*
X11320544Y-9010520D02*
X11345544Y-9010520D01*
X11245544Y-9010520D02*
X11258044Y-9023020D01*
X11158044Y-9023020D02*
X11158044Y-9186020D01*
X11408044Y-9186020D02*
X11408044Y-9023020D01*
X11195544Y-9198520D02*
X11208044Y-9186020D01*
%TO.N,/MCU/SDRAM_DQ10*%
X11891580Y-8960420D02*
X10993120Y-8960420D01*
X12485160Y-9554000D02*
X11891580Y-8960420D01*
X10980620Y-8972920D02*
X10980620Y-9213920D01*
X10880620Y-8972920D02*
X10880620Y-9213920D01*
X12531280Y-9855200D02*
X12485160Y-9809080D01*
X10893120Y-8960420D02*
X10880620Y-8972920D01*
X10930620Y-8972920D02*
X10918120Y-8960420D01*
X10918120Y-8960420D02*
X10893120Y-8960420D01*
X10930620Y-9213920D02*
X10930620Y-8972920D01*
X10943120Y-9226420D02*
X10930620Y-9213920D01*
X12485160Y-9809080D02*
X12485160Y-9554000D01*
X10980620Y-9213920D02*
X10968120Y-9226420D01*
X10993120Y-8960420D02*
X10980620Y-8972920D01*
X10668120Y-9506420D02*
X10643120Y-9506420D01*
X10780620Y-8972920D02*
X10780620Y-9228920D01*
X10968120Y-9226420D02*
X10943120Y-9226420D01*
X10830620Y-9213920D02*
X10830620Y-8972920D01*
X10586720Y-8960420D02*
X10577260Y-8960420D01*
X10643120Y-9506420D02*
X10630620Y-9493920D01*
X10680620Y-8972920D02*
X10680620Y-9493920D01*
X10630620Y-8972920D02*
X10618120Y-8960420D01*
X10780620Y-9228920D02*
X10768120Y-9241420D01*
X10868120Y-9226420D02*
X10843120Y-9226420D01*
X10772140Y-9588500D02*
X10789920Y-9570720D01*
X10768120Y-9241420D02*
X10743120Y-9241420D01*
X10789920Y-9570720D02*
X10789920Y-9364980D01*
X10549938Y-8987742D02*
X10549938Y-9549178D01*
X10859940Y-9334500D02*
X10910740Y-9385300D01*
X10589260Y-9588500D02*
X10772140Y-9588500D01*
X10693120Y-8960420D02*
X10680620Y-8972920D01*
X10618120Y-8960420D02*
X10586720Y-8960420D01*
X10718120Y-8960420D02*
X10693120Y-8960420D01*
X10730620Y-8972920D02*
X10718120Y-8960420D01*
X10789920Y-9364980D02*
X10820400Y-9334500D01*
X10830620Y-8972920D02*
X10818120Y-8960420D01*
X10843120Y-9226420D02*
X10830620Y-9213920D01*
X10549938Y-9549178D02*
X10589260Y-9588500D01*
X10730620Y-9228920D02*
X10730620Y-8972920D01*
X10818120Y-8960420D02*
X10793120Y-8960420D01*
X10630620Y-9493920D02*
X10630620Y-8972920D01*
X10680620Y-9493920D02*
X10668120Y-9506420D01*
X10577260Y-8960420D02*
X10549938Y-8987742D01*
X10743120Y-9241420D02*
X10730620Y-9228920D01*
X10880620Y-9213920D02*
X10868120Y-9226420D01*
X10793120Y-8960420D02*
X10780620Y-8972920D01*
X10820400Y-9334500D02*
X10859940Y-9334500D01*
%TO.N,/MCU/SDRAM_DQ6*%
X13274040Y-9249200D02*
X13146300Y-9376940D01*
X13094540Y-9125360D02*
X13082040Y-9137860D01*
X13274040Y-9187860D02*
X13274040Y-9237980D01*
X13082040Y-9137860D02*
X13082040Y-9162860D01*
X13082040Y-9162860D02*
X13094540Y-9175360D01*
X13261540Y-9175360D02*
X13274040Y-9187860D01*
X13094540Y-9175360D02*
X13261540Y-9175360D01*
X13082040Y-8962860D02*
X13094540Y-8975360D01*
X13274040Y-8912860D02*
X13261540Y-8925360D01*
X13082040Y-8937860D02*
X13082040Y-8962860D01*
X12013623Y-8574820D02*
X12206108Y-8574820D01*
X13094540Y-8925360D02*
X13082040Y-8937860D01*
X12928302Y-8861762D02*
X13253422Y-8861762D01*
X12676000Y-8609460D02*
X12928302Y-8861762D01*
X13316040Y-9112860D02*
X13303540Y-9125360D01*
X12240748Y-8609460D02*
X12676000Y-8609460D01*
X13261540Y-8975360D02*
X13274040Y-8987860D01*
X12206108Y-8574820D02*
X12240748Y-8609460D01*
X13253422Y-8861762D02*
X13274040Y-8882380D01*
X13303540Y-9125360D02*
X13094540Y-9125360D01*
X13316040Y-9087860D02*
X13316040Y-9112860D01*
X13303540Y-9075360D02*
X13316040Y-9087860D01*
X13094540Y-9075360D02*
X13303540Y-9075360D01*
X13261540Y-8925360D02*
X13094540Y-8925360D01*
X13082040Y-9062860D02*
X13094540Y-9075360D01*
X13082040Y-9037860D02*
X13082040Y-9062860D01*
X13274040Y-9237980D02*
X13274040Y-9249200D01*
X13094540Y-9025360D02*
X13082040Y-9037860D01*
X13261540Y-9025360D02*
X13094540Y-9025360D01*
X13274040Y-9012860D02*
X13261540Y-9025360D01*
X13274040Y-8987860D02*
X13274040Y-9012860D01*
X13274040Y-8882380D02*
X13274040Y-8912860D01*
X13094540Y-8975360D02*
X13261540Y-8975360D01*
%TO.N,/DISPLAY/CTP_WAKE*%
X13976557Y-11084929D02*
X14338669Y-11084929D01*
X13976557Y-11084928D02*
X13976557Y-11084929D01*
X14374892Y-11121152D02*
X15102840Y-11121152D01*
X14338669Y-11084929D02*
X14374892Y-11121152D01*
%TO.N,/DISPLAY/CTP_SDA*%
X12209079Y-11732720D02*
X11911620Y-11435261D01*
X12822621Y-11732720D02*
X12209079Y-11732720D01*
X13277281Y-11278060D02*
X12822621Y-11732720D01*
X14040560Y-11278160D02*
X13306459Y-11278160D01*
X15184120Y-11178652D02*
X14371432Y-11178652D01*
X14371432Y-11178652D02*
X14335164Y-11142384D01*
X11911620Y-11435261D02*
X11911620Y-10430220D01*
X14120780Y-11142384D02*
X14120780Y-11197940D01*
X14120780Y-11197940D02*
X14040560Y-11278160D01*
X13306359Y-11278060D02*
X13277281Y-11278060D01*
X13306459Y-11278160D02*
X13306359Y-11278060D01*
X14335164Y-11142384D02*
X14120780Y-11142384D01*
%TO.N,/DISPLAY/CTP_SCL*%
X14330680Y-11201400D02*
X14226680Y-11201400D01*
X15102840Y-11258653D02*
X14387933Y-11258653D01*
X14387933Y-11258653D02*
X14330680Y-11201400D01*
%TO.N,/DISPLAY/CTP_INT*%
X14373272Y-11063652D02*
X15181580Y-11063652D01*
X14337049Y-11027429D02*
X14373272Y-11063652D01*
X13812520Y-11027429D02*
X14337049Y-11027429D01*
%TO.N,/DISPLAY/RTP_CS*%
X15342020Y-9244680D02*
X15416180Y-9244680D01*
X15448280Y-7660640D02*
X15295880Y-7508240D01*
X15195620Y-9098280D02*
X15342020Y-9244680D01*
X14643100Y-9400577D02*
X14643100Y-9400577D01*
X15448280Y-9212580D02*
X15448280Y-7660640D01*
X15295880Y-7508240D02*
X15295880Y-7399020D01*
X15416180Y-9244680D02*
X15448280Y-9212580D01*
X14643100Y-9400577D02*
X14643100Y-9217660D01*
X14762480Y-9098280D02*
X15195620Y-9098280D01*
X14643100Y-9217660D02*
X14762480Y-9098280D01*
%TO.N,/DISPLAY/RTP_IRQ*%
X15720060Y-9789160D02*
X15783560Y-9725660D01*
X15781020Y-9624060D02*
X15658280Y-9501320D01*
X15658280Y-7432860D02*
X15882400Y-7208740D01*
X15783560Y-9725660D02*
X15783560Y-9624060D01*
X15882400Y-7208740D02*
X15882400Y-6954740D01*
X15783560Y-9624060D02*
X15781020Y-9624060D01*
X15658280Y-9501320D02*
X15658280Y-7432860D01*
%TO.N,/MCU/NRST*%
X8676640Y-12573000D02*
X8359140Y-12573000D01*
X9319260Y-12326620D02*
X8923020Y-12326620D01*
X8923020Y-12326620D02*
X8676640Y-12573000D01*
X8359140Y-12573000D02*
X8262620Y-12476480D01*
X8262620Y-12476480D02*
X8262620Y-11871960D01*
X8262620Y-11871960D02*
X8209280Y-11818620D01*
D17*
%TO.N,VBUS*%
X20353020Y-11846560D02*
X20053300Y-11546840D01*
X20353020Y-12390120D02*
X20353020Y-11846560D01*
X20053300Y-11546840D02*
X18557240Y-11546840D01*
D16*
%TO.N,/IO/BTN_1*%
X15067308Y-9265920D02*
X15151100Y-9265920D01*
X15151100Y-9265920D02*
X15184120Y-9298940D01*
X15311120Y-7156137D02*
X15311120Y-5840047D01*
X15483280Y-7646143D02*
X15367000Y-7529863D01*
X15367000Y-7360920D02*
X15278100Y-7272020D01*
X15311120Y-5840047D02*
X15231793Y-5760720D01*
X15367000Y-7529863D02*
X15367000Y-7360920D01*
X15483280Y-9227078D02*
X15483280Y-7646143D01*
X15278100Y-7189157D02*
X15311120Y-7156137D01*
X15184120Y-9298940D02*
X15411417Y-9298940D01*
X15411417Y-9298940D02*
X15483280Y-9227078D01*
X15278100Y-7272020D02*
X15278100Y-7189157D01*
X14969568Y-9363660D02*
X15067308Y-9265920D01*
%TO.N,/DISPLAY/RTP_BUSY*%
X15410180Y-7322783D02*
X15410180Y-7509543D01*
X15410180Y-7509543D02*
X15518280Y-7617643D01*
X15434250Y-9711750D02*
X15134493Y-9711750D01*
X14976020Y-9870223D02*
X14974627Y-9870223D01*
X15354782Y-7267385D02*
X15410180Y-7322783D01*
X15518280Y-9627720D02*
X15434250Y-9711750D01*
X15518280Y-7617643D02*
X15518280Y-9627720D01*
X15134493Y-9711750D02*
X14976020Y-9870223D01*
%TO.N,/DISPLAY/RTP_CLK*%
X15275873Y-9816750D02*
X15217471Y-9875151D01*
X15549880Y-7500750D02*
X15623280Y-7574150D01*
X15596410Y-7359190D02*
X15549880Y-7405720D01*
X15623280Y-7574150D02*
X15623280Y-9671212D01*
X15623280Y-9671212D02*
X15477742Y-9816750D01*
X15549880Y-7405720D02*
X15549880Y-7500750D01*
X15477742Y-9816750D02*
X15275873Y-9816750D01*
%TO.N,/DISPLAY/RTP_MISO*%
X15229555Y-9781750D02*
X15463245Y-9781750D01*
X15135272Y-9876033D02*
X15229555Y-9781750D01*
X15588280Y-7588648D02*
X15506700Y-7507068D01*
X15463245Y-9781750D02*
X15588280Y-9656715D01*
X15506700Y-7507068D02*
X15506700Y-7162800D01*
X15588280Y-9656715D02*
X15588280Y-7588648D01*
X15506700Y-7162800D02*
X15615920Y-7053580D01*
%TO.N,/DISPLAY/RTP_MOSI*%
X15445180Y-7267860D02*
X15445180Y-7495045D01*
X15448747Y-9746750D02*
X15180810Y-9746750D01*
X15445180Y-7495045D02*
X15553280Y-7603145D01*
X15553280Y-7603145D02*
X15553280Y-9642218D01*
X15180810Y-9746750D02*
X15054580Y-9872980D01*
X15553280Y-9642218D02*
X15448747Y-9746750D01*
%TO.N,/MCU/BOOT0*%
X15378280Y-8396120D02*
X15068240Y-8706160D01*
X11671300Y-5676900D02*
X14305280Y-5676900D01*
X15173260Y-6544880D02*
X15173260Y-7484615D01*
X14305280Y-5676900D02*
X15173260Y-6544880D01*
X15378280Y-7689635D02*
X15378280Y-8396120D01*
X15173260Y-7484615D02*
X15378280Y-7689635D01*
X15068240Y-8706160D02*
X14970760Y-8706160D01*
%TO.N,/MCU/SWDIO*%
X14168120Y-11584940D02*
X14333220Y-11419840D01*
X14333220Y-11419840D02*
X14452600Y-11419840D01*
X8442960Y-11818620D02*
X9319260Y-11818620D01*
X14452600Y-11419840D02*
X14526260Y-11346180D01*
%TO.N,/MCU/SDRAM_DQ4*%
X12974574Y-9422727D02*
X12974574Y-9347454D01*
X11149060Y-8727620D02*
X11149060Y-8797620D01*
X12394922Y-9239468D02*
X12327039Y-9307350D01*
X12617980Y-9074600D02*
X12617980Y-9169600D01*
X12617980Y-9169600D02*
X12605480Y-9182100D01*
X12571440Y-9041420D02*
X12600940Y-9011920D01*
X11199060Y-8797620D02*
X11199060Y-8727620D01*
X12306533Y-9186435D02*
X12256329Y-9236639D01*
X12327039Y-9307350D02*
X12327039Y-9325028D01*
X12717980Y-9194600D02*
X12717980Y-9809600D01*
X11199060Y-8727620D02*
X11186560Y-8715120D01*
X12166600Y-9145659D02*
X12166600Y-9164588D01*
X12655480Y-9062100D02*
X12630480Y-9062100D01*
X12423140Y-8963660D02*
X12500900Y-9041420D01*
X12288856Y-9151079D02*
X12306533Y-9168757D01*
X12509500Y-9354820D02*
X12486640Y-9377680D01*
X12509500Y-9202420D02*
X12509500Y-9354820D01*
X12166600Y-9027160D02*
X12179100Y-9039660D01*
X12600940Y-9011920D02*
X12600940Y-8765540D01*
X12809220Y-9182100D02*
X12730480Y-9182100D01*
X12247600Y-9077160D02*
X12235100Y-9089660D01*
X12667980Y-9074600D02*
X12655480Y-9062100D01*
X12974574Y-9347454D02*
X12809220Y-9182100D01*
X12680480Y-9822100D02*
X12667980Y-9809600D01*
X12327039Y-9325028D02*
X12370831Y-9368819D01*
X12247600Y-9052160D02*
X12247600Y-9077160D01*
X12717980Y-9809600D02*
X12705480Y-9822100D01*
X12605480Y-9182100D02*
X12575540Y-9182100D01*
X12600940Y-8765540D02*
X12545060Y-8709660D01*
X11161560Y-8715120D02*
X11149060Y-8727620D01*
X12377244Y-9204112D02*
X12394922Y-9221790D01*
X12256329Y-9254317D02*
X12274007Y-9271995D01*
X12408168Y-8709660D02*
X12307708Y-8810120D01*
X12166600Y-9027160D02*
X12166600Y-8978900D01*
X12359566Y-9204112D02*
X12377244Y-9204112D01*
X11088974Y-8808054D02*
X11070740Y-8789820D01*
X12166600Y-9102160D02*
X12166600Y-9145659D01*
X12220974Y-9201284D02*
X12271178Y-9151080D01*
X12667980Y-9809600D02*
X12667980Y-9074600D01*
X12179100Y-9089660D02*
X12166600Y-9102160D01*
X11070740Y-8789820D02*
X11070740Y-8636980D01*
X12274007Y-9271995D02*
X12291684Y-9271995D01*
X12166600Y-8978900D02*
X12181840Y-8963660D01*
X12379692Y-9377680D02*
X12370831Y-9368819D01*
X12575540Y-9182100D02*
X12529820Y-9182100D01*
X12306533Y-9168757D02*
X12306533Y-9186435D01*
X12630480Y-9062100D02*
X12617980Y-9074600D01*
X11091040Y-8810120D02*
X11088974Y-8808054D01*
X12271178Y-9151080D02*
X12288856Y-9151079D01*
X12256329Y-9236639D02*
X12256329Y-9254317D01*
X12486640Y-9377680D02*
X12379692Y-9377680D01*
X12179100Y-9039660D02*
X12235100Y-9039660D01*
X12181840Y-8963660D02*
X12423140Y-8963660D01*
X11211560Y-8810120D02*
X11199060Y-8797620D01*
X11136560Y-8810120D02*
X11091040Y-8810120D01*
X12529820Y-9182100D02*
X12509500Y-9202420D01*
X12545060Y-8709660D02*
X12408168Y-8709660D01*
X12235100Y-9089660D02*
X12179100Y-9089660D01*
X12730480Y-9182100D02*
X12717980Y-9194600D01*
X12705480Y-9822100D02*
X12680480Y-9822100D01*
X12235100Y-9039660D02*
X12247600Y-9052160D01*
X12203296Y-9201284D02*
X12220974Y-9201284D01*
X11186560Y-8715120D02*
X11161560Y-8715120D01*
X12166600Y-9164588D02*
X12203296Y-9201284D01*
X12394922Y-9221790D02*
X12394922Y-9239468D01*
X12307708Y-8810120D02*
X11211560Y-8810120D01*
X11149060Y-8797620D02*
X11136560Y-8810120D01*
X12291684Y-9271995D02*
X12359566Y-9204112D01*
X12500900Y-9041420D02*
X12571440Y-9041420D01*
%TO.N,/MCU/SDRAM_ADD1*%
X14139714Y-8531117D02*
X14139714Y-8531407D01*
X10524897Y-7892480D02*
X10512397Y-7904980D01*
X10374897Y-8005480D02*
X10362397Y-7992980D01*
X11733200Y-8108620D02*
X11517060Y-7892480D01*
X14156997Y-8513834D02*
X14139714Y-8531117D01*
X10462397Y-7962980D02*
X10462397Y-7904980D01*
X10262397Y-7992980D02*
X10262397Y-7904980D01*
X10299897Y-8005480D02*
X10274897Y-8005480D01*
X10112397Y-7904980D02*
X10112397Y-7992980D01*
X10012397Y-7904980D02*
X10012397Y-7992980D01*
X10412397Y-7992980D02*
X10399897Y-8005480D01*
X10249897Y-7892480D02*
X10224897Y-7892480D01*
X10149897Y-7892480D02*
X10124897Y-7892480D01*
X14156997Y-8440420D02*
X14156997Y-8513834D01*
X10362397Y-7992980D02*
X10362397Y-7904980D01*
X10274897Y-8005480D02*
X10262397Y-7992980D01*
X12460176Y-8108620D02*
X11733200Y-8108620D01*
X9962397Y-7992980D02*
X9962397Y-7904980D01*
X14139714Y-8531407D02*
X14009759Y-8661362D01*
X11517060Y-7892480D02*
X10524897Y-7892480D01*
X10099897Y-8005480D02*
X10074897Y-8005480D01*
X10112397Y-7992980D02*
X10099897Y-8005480D01*
X10412397Y-7904980D02*
X10412397Y-7992980D01*
X10349897Y-7892480D02*
X10324897Y-7892480D01*
X10324897Y-7892480D02*
X10312397Y-7904980D01*
X10212397Y-7904980D02*
X10212397Y-7992980D01*
X10049897Y-7892480D02*
X10024897Y-7892480D01*
X10199897Y-8005480D02*
X10174897Y-8005480D01*
X10062397Y-7904980D02*
X10049897Y-7892480D01*
X10174897Y-8005480D02*
X10162397Y-7992980D01*
X10424897Y-7892480D02*
X10412397Y-7904980D01*
X10124897Y-7892480D02*
X10112397Y-7904980D01*
X10449897Y-7892480D02*
X10424897Y-7892480D01*
X10362397Y-7904980D02*
X10349897Y-7892480D01*
X10062397Y-7992980D02*
X10062397Y-7904980D01*
X9892600Y-7892480D02*
X9790740Y-7994340D01*
X9999897Y-8005480D02*
X9974897Y-8005480D01*
X14009759Y-8661362D02*
X13012918Y-8661362D01*
X10312397Y-7992980D02*
X10299897Y-8005480D01*
X9962397Y-7904980D02*
X9949897Y-7892480D01*
X10499897Y-7975480D02*
X10474897Y-7975480D01*
X13012918Y-8661362D02*
X12460176Y-8108620D01*
X10474897Y-7975480D02*
X10462397Y-7962980D01*
X9949897Y-7892480D02*
X9913620Y-7892480D01*
X10462397Y-7904980D02*
X10449897Y-7892480D01*
X9913620Y-7892480D02*
X9892600Y-7892480D01*
X9974897Y-8005480D02*
X9962397Y-7992980D01*
X10212397Y-7992980D02*
X10199897Y-8005480D01*
X10512397Y-7904980D02*
X10512397Y-7962980D01*
X10012397Y-7992980D02*
X9999897Y-8005480D01*
X10512397Y-7962980D02*
X10499897Y-7975480D01*
X10024897Y-7892480D02*
X10012397Y-7904980D01*
X10162397Y-7904980D02*
X10149897Y-7892480D01*
X10224897Y-7892480D02*
X10212397Y-7904980D01*
X10074897Y-8005480D02*
X10062397Y-7992980D01*
X10399897Y-8005480D02*
X10374897Y-8005480D01*
X10312397Y-7904980D02*
X10312397Y-7992980D01*
X10162397Y-7992980D02*
X10162397Y-7904980D01*
X10262397Y-7904980D02*
X10249897Y-7892480D01*
X9790740Y-7994340D02*
X9790740Y-8232140D01*
%TO.N,/MCU/SDRAM_DQ12*%
X12010460Y-9744180D02*
X12113460Y-9744180D01*
X12138460Y-9644180D02*
X12241460Y-9644180D01*
X12125960Y-9756680D02*
X12125960Y-9792421D01*
X12241460Y-9694180D02*
X12010460Y-9694180D01*
X11990772Y-9579158D02*
X12072796Y-9497134D01*
X12253960Y-9681680D02*
X12241460Y-9694180D01*
X12253960Y-9656680D02*
X12253960Y-9681680D01*
X12125960Y-9792421D02*
X12125960Y-9807028D01*
X12072796Y-9497134D02*
X12090474Y-9497134D01*
X12002086Y-9426423D02*
X12019763Y-9426423D01*
X12037441Y-9444101D02*
X12037441Y-9461779D01*
X11966730Y-9391068D02*
X11884706Y-9473092D01*
X11884706Y-9490770D02*
X11902384Y-9508448D01*
X12181432Y-9862500D02*
X12395200Y-9862500D01*
X12121116Y-9527776D02*
X12125960Y-9532620D01*
X12090474Y-9497134D02*
X12121116Y-9527776D01*
X12125960Y-9631680D02*
X12138460Y-9644180D01*
X11884706Y-9473092D02*
X11884706Y-9490770D01*
X12113460Y-9744180D02*
X12125960Y-9756680D01*
X12010460Y-9694180D02*
X11997960Y-9706680D01*
X11997960Y-9706680D02*
X11997960Y-9731680D01*
X12019763Y-9426423D02*
X12037441Y-9444101D01*
X12125960Y-9807028D02*
X12181432Y-9862500D01*
X11920061Y-9508448D02*
X12002086Y-9426423D01*
X11902384Y-9508448D02*
X11920061Y-9508448D01*
X12241460Y-9644180D02*
X12253960Y-9656680D01*
X11966730Y-9373391D02*
X11966730Y-9391068D01*
X11973094Y-9579158D02*
X11990772Y-9579158D01*
X11997960Y-9731680D02*
X12010460Y-9744180D01*
X11955417Y-9543803D02*
X11955417Y-9561481D01*
X12037441Y-9461779D02*
X11955417Y-9543803D01*
X12125960Y-9532620D02*
X12125960Y-9631680D01*
X11955417Y-9561481D02*
X11973094Y-9579158D01*
%TO.N,/MCU/SDRAM_ADD0*%
X11934980Y-8237220D02*
X11922480Y-8249720D01*
X11984980Y-8177220D02*
X11972480Y-8164720D01*
X11897480Y-8249720D02*
X11884980Y-8237220D01*
X12197480Y-8249720D02*
X12184980Y-8237220D01*
X12334980Y-8237220D02*
X12322480Y-8249720D01*
X12992166Y-8711462D02*
X12530424Y-8249720D01*
X12434980Y-8207220D02*
X12434980Y-8237220D01*
X11722480Y-8249720D02*
X11697480Y-8249720D01*
X12497480Y-8249720D02*
X12484980Y-8237220D01*
X11684980Y-8237220D02*
X11684980Y-8177220D01*
X10605968Y-7942580D02*
X10481508Y-8067040D01*
X12084980Y-8177220D02*
X12072480Y-8164720D01*
X12384980Y-8237220D02*
X12384980Y-8177220D01*
X11166040Y-7942580D02*
X10605968Y-7942580D01*
X12322480Y-8249720D02*
X12297480Y-8249720D01*
X11872480Y-8164720D02*
X11847480Y-8164720D01*
X11834980Y-8177220D02*
X11834980Y-8237220D01*
X11947480Y-8164720D02*
X11934980Y-8177220D01*
X12097480Y-8249720D02*
X12084980Y-8237220D01*
X12034980Y-8177220D02*
X12034980Y-8237220D01*
X11797480Y-8249720D02*
X11784980Y-8237220D01*
X12484980Y-8207220D02*
X12472480Y-8194720D01*
X9982500Y-8067040D02*
X9870740Y-8178800D01*
X12184980Y-8237220D02*
X12184980Y-8177220D01*
X11622480Y-8249720D02*
X11564620Y-8249720D01*
X11922480Y-8249720D02*
X11897480Y-8249720D01*
X11997480Y-8249720D02*
X11984980Y-8237220D01*
X12234980Y-8177220D02*
X12234980Y-8237220D01*
X12134980Y-8237220D02*
X12122480Y-8249720D01*
X11772480Y-8164720D02*
X11747480Y-8164720D01*
X11697480Y-8249720D02*
X11684980Y-8237220D01*
X12272480Y-8164720D02*
X12247480Y-8164720D01*
X12447480Y-8194720D02*
X12434980Y-8207220D01*
X11784980Y-8237220D02*
X11784980Y-8177220D01*
X11847480Y-8164720D02*
X11834980Y-8177220D01*
X11647480Y-8164720D02*
X11634980Y-8177220D01*
X12284980Y-8237220D02*
X12284980Y-8177220D01*
X12384980Y-8177220D02*
X12372480Y-8164720D01*
X12372480Y-8164720D02*
X12347480Y-8164720D01*
X10481508Y-8067040D02*
X9982500Y-8067040D01*
X12184980Y-8177220D02*
X12172480Y-8164720D01*
X12434980Y-8237220D02*
X12422480Y-8249720D01*
X14207314Y-8559118D02*
X14054970Y-8711462D01*
X11672480Y-8164720D02*
X11647480Y-8164720D01*
X11972480Y-8164720D02*
X11947480Y-8164720D01*
X11984980Y-8237220D02*
X11984980Y-8177220D01*
X12072480Y-8164720D02*
X12047480Y-8164720D01*
X11934980Y-8177220D02*
X11934980Y-8237220D01*
X11747480Y-8164720D02*
X11734980Y-8177220D01*
X12422480Y-8249720D02*
X12397480Y-8249720D01*
X12234980Y-8237220D02*
X12222480Y-8249720D01*
X11684980Y-8177220D02*
X11672480Y-8164720D01*
X12284980Y-8177220D02*
X12272480Y-8164720D01*
X11884980Y-8177220D02*
X11872480Y-8164720D01*
X12530424Y-8249720D02*
X12497480Y-8249720D01*
X11634980Y-8237220D02*
X11622480Y-8249720D01*
X11784980Y-8177220D02*
X11772480Y-8164720D01*
X11734980Y-8237220D02*
X11722480Y-8249720D01*
X12122480Y-8249720D02*
X12097480Y-8249720D01*
X12134980Y-8177220D02*
X12134980Y-8237220D01*
X14054970Y-8711462D02*
X12992166Y-8711462D01*
X12247480Y-8164720D02*
X12234980Y-8177220D01*
X11884980Y-8237220D02*
X11884980Y-8177220D01*
X12084980Y-8237220D02*
X12084980Y-8177220D01*
X12484980Y-8237220D02*
X12484980Y-8207220D01*
X12347480Y-8164720D02*
X12334980Y-8177220D01*
X12297480Y-8249720D02*
X12284980Y-8237220D01*
X12172480Y-8164720D02*
X12147480Y-8164720D01*
X12397480Y-8249720D02*
X12384980Y-8237220D01*
X12222480Y-8249720D02*
X12197480Y-8249720D01*
X12472480Y-8194720D02*
X12447480Y-8194720D01*
X12047480Y-8164720D02*
X12034980Y-8177220D01*
X11634980Y-8177220D02*
X11634980Y-8237220D01*
X11473180Y-8249720D02*
X11166040Y-7942580D01*
X11834980Y-8237220D02*
X11822480Y-8249720D01*
X11564620Y-8249720D02*
X11473180Y-8249720D01*
X11734980Y-8177220D02*
X11734980Y-8237220D01*
X12022480Y-8249720D02*
X11997480Y-8249720D01*
X12034980Y-8237220D02*
X12022480Y-8249720D01*
X12147480Y-8164720D02*
X12134980Y-8177220D01*
X11822480Y-8249720D02*
X11797480Y-8249720D01*
X12334980Y-8177220D02*
X12334980Y-8237220D01*
%TO.N,/MEMORY_FMC/~{SDRAM_CAS}*%
X11673780Y-8433660D02*
X11661280Y-8421160D01*
X12383158Y-8432081D02*
X12365480Y-8432081D01*
X12223780Y-8433660D02*
X12223780Y-8462660D01*
X11661280Y-8421160D02*
X11636280Y-8421160D01*
X12361945Y-8559360D02*
X12344267Y-8541682D01*
X11861280Y-8421160D02*
X11836280Y-8421160D01*
X12344267Y-8524005D02*
X12353106Y-8515166D01*
X11586280Y-8445160D02*
X11562280Y-8421160D01*
X12173780Y-8462660D02*
X12173780Y-8433660D01*
X12400835Y-8449758D02*
X12383158Y-8432081D01*
X12379622Y-8559360D02*
X12361945Y-8559360D01*
X12061280Y-8421160D02*
X12036280Y-8421160D01*
X12236280Y-8421160D02*
X12223780Y-8433660D01*
X11636280Y-8421160D02*
X11612280Y-8445160D01*
X12344267Y-8541682D02*
X12344267Y-8524005D01*
X12612476Y-8546860D02*
X12599976Y-8559360D01*
X12365480Y-8432081D02*
X12326589Y-8470971D01*
X11711280Y-8520160D02*
X11686280Y-8520160D01*
X12562476Y-8426860D02*
X12549976Y-8414360D01*
X11986280Y-8520160D02*
X11973780Y-8507660D01*
X11562280Y-8421160D02*
X11531600Y-8421160D01*
X12662476Y-8526860D02*
X12649976Y-8514360D01*
X11886280Y-8520160D02*
X11873780Y-8507660D01*
X10660519Y-8421160D02*
X10542199Y-8539480D01*
X11923780Y-8433660D02*
X11923780Y-8507660D01*
X12662476Y-8546860D02*
X12662476Y-8526860D01*
X12161280Y-8421160D02*
X12136280Y-8421160D01*
X11686280Y-8520160D02*
X11673780Y-8507660D01*
X12173780Y-8433660D02*
X12161280Y-8421160D01*
X12211280Y-8475160D02*
X12186280Y-8475160D01*
X12036280Y-8421160D02*
X12023780Y-8433660D01*
X11961280Y-8421160D02*
X11936280Y-8421160D01*
X12624976Y-8514360D02*
X12612476Y-8526860D01*
X12562476Y-8546860D02*
X12562476Y-8426860D01*
X12674976Y-8559360D02*
X12662476Y-8546860D01*
X11873780Y-8507660D02*
X11873780Y-8433660D01*
X11531600Y-8421160D02*
X10660519Y-8421160D01*
X12111280Y-8520160D02*
X12086280Y-8520160D01*
X12073780Y-8433660D02*
X12061280Y-8421160D01*
X11823780Y-8433660D02*
X11823780Y-8507660D01*
X12123780Y-8433660D02*
X12123780Y-8507660D01*
X11873780Y-8433660D02*
X11861280Y-8421160D01*
X10355900Y-8539480D02*
X10350740Y-8544640D01*
X12023780Y-8433660D02*
X12023780Y-8507660D01*
X12073780Y-8507660D02*
X12073780Y-8433660D01*
X12612476Y-8526860D02*
X12612476Y-8546860D01*
X12326589Y-8470971D02*
X12308911Y-8470971D01*
X12397300Y-8559360D02*
X12379622Y-8559360D01*
X11773780Y-8433660D02*
X11761280Y-8421160D01*
X11811280Y-8520160D02*
X11786280Y-8520160D01*
X11823780Y-8507660D02*
X11811280Y-8520160D01*
X12186280Y-8475160D02*
X12173780Y-8462660D01*
X11973780Y-8433660D02*
X11961280Y-8421160D01*
X11723780Y-8507660D02*
X11711280Y-8520160D01*
X11773780Y-8507660D02*
X11773780Y-8433660D01*
X12259100Y-8421160D02*
X12236280Y-8421160D01*
X12123780Y-8507660D02*
X12111280Y-8520160D01*
X11786280Y-8520160D02*
X11773780Y-8507660D01*
X11612280Y-8445160D02*
X11586280Y-8445160D01*
X12512476Y-8546860D02*
X12499976Y-8559360D01*
X11673780Y-8507660D02*
X11673780Y-8433660D01*
X10542199Y-8539480D02*
X10355900Y-8539480D01*
X12574976Y-8559360D02*
X12562476Y-8546860D01*
X12599976Y-8559360D02*
X12574976Y-8559360D01*
X12011280Y-8520160D02*
X11986280Y-8520160D01*
X12400835Y-8467436D02*
X12400835Y-8449758D01*
X12499976Y-8559360D02*
X12397300Y-8559360D01*
X11923780Y-8507660D02*
X11911280Y-8520160D01*
X12353106Y-8515166D02*
X12400835Y-8467436D01*
X11761280Y-8421160D02*
X11736280Y-8421160D01*
X12086280Y-8520160D02*
X12073780Y-8507660D01*
X12524976Y-8414360D02*
X12512476Y-8426860D01*
X11911280Y-8520160D02*
X11886280Y-8520160D01*
X12549976Y-8414360D02*
X12524976Y-8414360D01*
X12223780Y-8462660D02*
X12211280Y-8475160D01*
X11836280Y-8421160D02*
X11823780Y-8433660D01*
X11936280Y-8421160D02*
X11923780Y-8433660D01*
X12136280Y-8421160D02*
X12123780Y-8433660D01*
X12023780Y-8507660D02*
X12011280Y-8520160D01*
X12288520Y-8450580D02*
X12259100Y-8421160D01*
X12649976Y-8514360D02*
X12624976Y-8514360D01*
X11736280Y-8421160D02*
X11723780Y-8433660D01*
X11973780Y-8507660D02*
X11973780Y-8433660D01*
X12308911Y-8470971D02*
X12288520Y-8450580D01*
X11723780Y-8433660D02*
X11723780Y-8507660D01*
X12512476Y-8426860D02*
X12512476Y-8546860D01*
%TO.N,/MCU/SWCLK*%
X14169390Y-11697970D02*
X14401800Y-11465560D01*
X8239760Y-11650980D02*
X8308340Y-11719560D01*
X14401800Y-11465560D02*
X14503400Y-11465560D01*
X15483840Y-11292840D02*
X15483840Y-11059492D01*
X15483840Y-11059492D02*
X15430500Y-11006152D01*
X8308340Y-11719560D02*
X8308340Y-11868041D01*
X14503400Y-11465560D02*
X14602460Y-11366500D01*
X15410180Y-11366500D02*
X15483840Y-11292840D01*
X14602460Y-11366500D02*
X15410180Y-11366500D01*
X8385919Y-11945620D02*
X9319260Y-11945620D01*
X8308340Y-11868041D02*
X8385919Y-11945620D01*
%TO.N,/MCU/SDRAM_DQ5*%
X10824740Y-8797620D02*
X10824740Y-8701620D01*
X12274392Y-8760020D02*
X12261892Y-8747520D01*
X12918540Y-8922852D02*
X12909701Y-8931691D01*
X12980412Y-9002402D02*
X12901216Y-9081598D01*
X10787240Y-8689120D02*
X10774740Y-8701620D01*
X12964149Y-8930277D02*
X12946471Y-8912599D01*
X13024674Y-9068208D02*
X13024674Y-9028986D01*
X12149392Y-8685020D02*
X12124392Y-8685020D01*
X12998090Y-9002402D02*
X12980412Y-9002402D01*
X12909701Y-8931691D02*
X12809292Y-9032100D01*
X12174392Y-8760020D02*
X12161892Y-8747520D01*
X12249392Y-8660020D02*
X12224392Y-8660020D01*
X10837240Y-8810120D02*
X10824740Y-8797620D01*
X12099392Y-8760020D02*
X12000683Y-8760020D01*
X13066290Y-9426470D02*
X13066290Y-9370590D01*
X12964149Y-8947955D02*
X12964149Y-8930277D01*
X12803635Y-8825625D02*
X12803635Y-8807947D01*
X12124392Y-8685020D02*
X12111892Y-8697520D01*
X12901216Y-9081598D02*
X12883539Y-9081598D01*
X11003140Y-8608979D02*
X11003140Y-8760600D01*
X12653729Y-8993209D02*
X12653728Y-8975531D01*
X13066290Y-9370590D02*
X13024674Y-9328974D01*
X10887240Y-8689120D02*
X10874740Y-8701620D01*
X13124674Y-9279215D02*
X13124674Y-9254215D01*
X13024674Y-9304215D02*
X13037174Y-9291715D01*
X10937240Y-8810120D02*
X10924740Y-8797620D01*
X12286956Y-8760020D02*
X12274392Y-8760020D01*
X10874740Y-8701620D02*
X10874740Y-8797620D01*
X12224392Y-8660020D02*
X12211892Y-8672520D01*
X13024674Y-9179215D02*
X13024674Y-9068208D01*
X12874346Y-8896336D02*
X12874346Y-8878658D01*
X10863840Y-8605520D02*
X10912020Y-8557340D01*
X10685780Y-8628380D02*
X10708640Y-8605520D01*
X10774740Y-8701620D02*
X10774740Y-8797620D01*
X12671406Y-8869465D02*
X12653728Y-8851788D01*
X12928793Y-8912599D02*
X12918540Y-8922852D01*
X10862240Y-8810120D02*
X10837240Y-8810120D01*
X12874346Y-8878658D02*
X12856668Y-8860980D01*
X12929674Y-9229215D02*
X12929674Y-9204215D01*
X12773937Y-8996745D02*
X12874346Y-8896336D01*
X10824740Y-8701620D02*
X10812240Y-8689120D01*
X12838991Y-8860980D02*
X12689084Y-9010887D01*
X13024674Y-9328974D02*
X13024674Y-9304215D01*
X13012174Y-9191715D02*
X13024674Y-9179215D01*
X12665191Y-8669503D02*
X12655248Y-8659560D01*
X12689084Y-8869466D02*
X12671406Y-8869465D01*
X12953896Y-8958208D02*
X12964149Y-8947955D01*
X12942174Y-9191715D02*
X13012174Y-9191715D01*
X10685780Y-8790940D02*
X10685780Y-8628380D01*
X10774740Y-8797620D02*
X10762240Y-8810120D01*
X13112174Y-9241715D02*
X12942174Y-9241715D01*
X12773937Y-9014422D02*
X12773937Y-8996745D01*
X13124674Y-9254215D02*
X13112174Y-9241715D01*
X12111892Y-8697520D02*
X12111892Y-8747520D01*
X12856668Y-8860980D02*
X12838991Y-8860980D01*
X12671406Y-9010887D02*
X12653729Y-8993209D01*
X11042739Y-8569380D02*
X11003140Y-8608979D01*
X13037174Y-9291715D02*
X13112174Y-9291715D01*
X12653728Y-8975531D02*
X12803635Y-8825625D01*
X12000683Y-8760020D02*
X11305100Y-8760020D01*
X12111892Y-8747520D02*
X12099392Y-8760020D01*
X12689084Y-9010887D02*
X12671406Y-9010887D01*
X12161892Y-8697520D02*
X12149392Y-8685020D01*
X10711910Y-8810120D02*
X10704960Y-8810120D01*
X12161892Y-8747520D02*
X12161892Y-8697520D01*
X10708640Y-8605520D02*
X10863840Y-8605520D01*
X12883539Y-9081598D02*
X12865861Y-9063920D01*
X10874740Y-8797620D02*
X10862240Y-8810120D01*
X12942174Y-9241715D02*
X12929674Y-9229215D01*
X12929674Y-9204215D02*
X12942174Y-9191715D01*
X12732924Y-8754914D02*
X12732924Y-8737236D01*
X10762240Y-8810120D02*
X10711910Y-8810120D01*
X12946471Y-8912599D02*
X12928793Y-8912599D01*
X12768280Y-8790270D02*
X12689084Y-8869466D01*
X12803635Y-8807947D02*
X12785958Y-8790270D01*
X12653728Y-8834110D02*
X12732924Y-8754914D01*
X11305100Y-8760020D02*
X11114460Y-8569380D01*
X10953620Y-8810120D02*
X10937240Y-8810120D01*
X11114460Y-8569380D02*
X11042739Y-8569380D01*
X12653728Y-8851788D02*
X12653728Y-8834110D01*
X10924740Y-8797620D02*
X10924740Y-8701620D01*
X12809292Y-9032100D02*
X12791614Y-9032100D01*
X13024674Y-9028986D02*
X12998090Y-9002402D01*
X13112174Y-9291715D02*
X13124674Y-9279215D01*
X12791614Y-9032100D02*
X12773937Y-9014422D01*
X10912240Y-8689120D02*
X10887240Y-8689120D01*
X12865861Y-9063920D02*
X12865861Y-9046243D01*
X12211892Y-8747520D02*
X12199392Y-8760020D01*
X10924740Y-8701620D02*
X10912240Y-8689120D01*
X12199392Y-8760020D02*
X12174392Y-8760020D01*
X12655248Y-8659560D02*
X12387416Y-8659560D01*
X12785958Y-8790270D02*
X12768280Y-8790270D01*
X10812240Y-8689120D02*
X10787240Y-8689120D01*
X12261892Y-8747520D02*
X12261892Y-8672520D01*
X10704960Y-8810120D02*
X10685780Y-8790940D01*
X12211892Y-8672520D02*
X12211892Y-8747520D01*
X12865861Y-9046243D02*
X12953896Y-8958208D01*
X11003140Y-8760600D02*
X10953620Y-8810120D01*
X12732924Y-8737236D02*
X12665191Y-8669503D01*
X12387416Y-8659560D02*
X12286956Y-8760020D01*
X12261892Y-8672520D02*
X12249392Y-8660020D01*
%TO.N,/MCU/SDRAM_ADD3*%
X13890575Y-8561162D02*
X13869377Y-8561162D01*
X13706877Y-8548662D02*
X13694377Y-8561162D01*
X12285540Y-7792280D02*
X9680380Y-7792280D01*
X9634220Y-7838440D02*
X9618240Y-7854420D01*
X9658740Y-7916920D02*
X9658740Y-7941920D01*
X13856877Y-8473662D02*
X13844377Y-8461162D01*
X13644377Y-8461162D02*
X13619377Y-8461162D01*
X9542740Y-8091920D02*
X9555240Y-8104420D01*
X14008439Y-8443299D02*
X13890575Y-8561162D01*
X13769377Y-8561162D02*
X13756877Y-8548662D01*
X13756877Y-8473662D02*
X13744377Y-8461162D01*
X13606877Y-8473662D02*
X13606877Y-8548662D01*
X13656877Y-8473662D02*
X13644377Y-8461162D01*
X9680380Y-7792280D02*
X9634220Y-7838440D01*
X9630740Y-7966920D02*
X9630740Y-7991920D01*
X9658740Y-8016920D02*
X9658740Y-8041920D01*
X9646240Y-7954420D02*
X9643240Y-7954420D01*
X9630740Y-8116920D02*
X9630740Y-8191761D01*
X13656877Y-8548662D02*
X13656877Y-8473662D01*
X9555240Y-7854420D02*
X9542740Y-7866920D01*
X13856877Y-8548662D02*
X13856877Y-8473662D01*
X13794377Y-8561162D02*
X13769377Y-8561162D01*
X13556877Y-8548662D02*
X13556877Y-8473662D01*
X9542740Y-8066920D02*
X9542740Y-8091920D01*
X9643240Y-7954420D02*
X9630740Y-7966920D01*
X9658740Y-8041920D02*
X9646240Y-8054420D01*
X13494377Y-8561162D02*
X13438456Y-8561162D01*
X13438456Y-8561162D02*
X13054422Y-8561162D01*
X13756877Y-8548662D02*
X13756877Y-8473662D01*
X9630740Y-7991920D02*
X9643240Y-8004420D01*
X13606877Y-8548662D02*
X13594377Y-8561162D01*
X9555240Y-8104420D02*
X9618240Y-8104420D01*
X13054422Y-8561162D02*
X12285540Y-7792280D01*
X13806877Y-8548662D02*
X13794377Y-8561162D01*
X13694377Y-8561162D02*
X13669377Y-8561162D01*
X13544377Y-8461162D02*
X13519377Y-8461162D01*
X13506877Y-8473662D02*
X13506877Y-8548662D01*
X9630740Y-8191761D02*
X9630740Y-8232140D01*
X9646240Y-7904420D02*
X9658740Y-7916920D01*
X9555240Y-8054420D02*
X9542740Y-8066920D01*
X13844377Y-8461162D02*
X13819377Y-8461162D01*
X13506877Y-8548662D02*
X13494377Y-8561162D01*
X13556877Y-8473662D02*
X13544377Y-8461162D01*
X13519377Y-8461162D02*
X13506877Y-8473662D01*
X13619377Y-8461162D02*
X13606877Y-8473662D01*
X9658740Y-7941920D02*
X9646240Y-7954420D01*
X13706877Y-8473662D02*
X13706877Y-8548662D01*
X13719377Y-8461162D02*
X13706877Y-8473662D01*
X13669377Y-8561162D02*
X13656877Y-8548662D01*
X9542740Y-7866920D02*
X9542740Y-7891920D01*
X9618240Y-8104420D02*
X9630740Y-8116920D01*
X13869377Y-8561162D02*
X13856877Y-8548662D01*
X9646240Y-8054420D02*
X9555240Y-8054420D01*
X13819377Y-8461162D02*
X13806877Y-8473662D01*
X13594377Y-8561162D02*
X13569377Y-8561162D01*
X9555240Y-7904420D02*
X9646240Y-7904420D01*
X9542740Y-7891920D02*
X9555240Y-7904420D01*
X13744377Y-8461162D02*
X13719377Y-8461162D01*
X9646240Y-8004420D02*
X9658740Y-8016920D01*
X13806877Y-8473662D02*
X13806877Y-8548662D01*
X13569377Y-8561162D02*
X13556877Y-8548662D01*
X9643240Y-8004420D02*
X9646240Y-8004420D01*
X9618240Y-7854420D02*
X9555240Y-7854420D01*
%TO.N,/MCU/SDRAM_ADD2*%
X11925499Y-7854880D02*
X11925499Y-7936880D01*
X11712999Y-7949380D02*
X11687999Y-7949380D01*
X11825499Y-7854880D02*
X11825499Y-7936880D01*
X12175499Y-7936880D02*
X12175499Y-7854880D01*
X13033670Y-8611262D02*
X12264788Y-7842380D01*
X12137999Y-7842380D02*
X12125499Y-7854880D01*
X11887999Y-7949380D02*
X11875499Y-7936880D01*
X11812999Y-7949380D02*
X11787999Y-7949380D01*
X12125499Y-7854880D02*
X12125499Y-7936880D01*
X11837999Y-7842380D02*
X11825499Y-7854880D01*
X11925499Y-7936880D02*
X11912999Y-7949380D01*
X14084300Y-8491220D02*
X13964258Y-8611262D01*
X11962999Y-7842380D02*
X11937999Y-7842380D01*
X11912999Y-7949380D02*
X11887999Y-7949380D01*
X12075499Y-7854880D02*
X12062999Y-7842380D01*
X11775499Y-7854880D02*
X11762999Y-7842380D01*
X12125499Y-7936880D02*
X12112999Y-7949380D01*
X11662999Y-7842380D02*
X11547507Y-7842380D01*
X11875499Y-7854880D02*
X11862999Y-7842380D01*
X12037999Y-7842380D02*
X12025499Y-7854880D01*
X11687999Y-7949380D02*
X11675499Y-7936880D01*
X11875499Y-7936880D02*
X11875499Y-7854880D01*
X11675499Y-7854880D02*
X11662999Y-7842380D01*
X12075499Y-7936880D02*
X12075499Y-7854880D01*
X9710740Y-7942260D02*
X9710740Y-8173720D01*
X12264788Y-7842380D02*
X12237999Y-7842380D01*
X9810620Y-7842380D02*
X9710740Y-7942260D01*
X11725499Y-7936880D02*
X11712999Y-7949380D01*
X11975499Y-7936880D02*
X11975499Y-7854880D01*
X12175499Y-7854880D02*
X12162999Y-7842380D01*
X12225499Y-7854880D02*
X12225499Y-7936880D01*
X12237999Y-7842380D02*
X12225499Y-7854880D01*
X12012999Y-7949380D02*
X11987999Y-7949380D01*
X12087999Y-7949380D02*
X12075499Y-7936880D01*
X11862999Y-7842380D02*
X11837999Y-7842380D01*
X11737999Y-7842380D02*
X11725499Y-7854880D01*
X11787999Y-7949380D02*
X11775499Y-7936880D01*
X12162999Y-7842380D02*
X12137999Y-7842380D01*
X13964258Y-8611262D02*
X13033670Y-8611262D01*
X12212999Y-7949380D02*
X12187999Y-7949380D01*
X12187999Y-7949380D02*
X12175499Y-7936880D01*
X11675499Y-7936880D02*
X11675499Y-7854880D01*
X11775499Y-7936880D02*
X11775499Y-7854880D01*
X11937999Y-7842380D02*
X11925499Y-7854880D01*
X11825499Y-7936880D02*
X11812999Y-7949380D01*
X12225499Y-7936880D02*
X12212999Y-7949380D01*
X11762999Y-7842380D02*
X11737999Y-7842380D01*
X11725499Y-7854880D02*
X11725499Y-7936880D01*
X11987999Y-7949380D02*
X11975499Y-7936880D01*
X11975499Y-7854880D02*
X11962999Y-7842380D01*
X12025499Y-7936880D02*
X12012999Y-7949380D01*
X12025499Y-7854880D02*
X12025499Y-7936880D01*
X12112999Y-7949380D02*
X12087999Y-7949380D01*
X11547507Y-7842380D02*
X9810620Y-7842380D01*
X12062999Y-7842380D02*
X12037999Y-7842380D01*
%TO.N,/MCU/SDRAM_DQ6*%
X11888623Y-8694820D02*
X11863623Y-8694820D01*
X11701123Y-8682320D02*
X11688623Y-8694820D01*
X11651123Y-8682320D02*
X11651123Y-8557320D01*
X11688623Y-8694820D02*
X11663623Y-8694820D01*
X11551123Y-8587320D02*
X11538623Y-8574820D01*
X11801123Y-8587320D02*
X11801123Y-8682320D01*
X11713623Y-8574820D02*
X11701123Y-8587320D01*
X11501123Y-8562320D02*
X11501123Y-8552320D01*
X11388623Y-8574820D02*
X11363623Y-8574820D01*
X11751123Y-8587320D02*
X11738623Y-8574820D01*
X11763623Y-8694820D02*
X11751123Y-8682320D01*
X11613623Y-8544820D02*
X11601123Y-8557320D01*
X11301123Y-8587320D02*
X11288623Y-8574820D01*
X11538623Y-8574820D02*
X11513623Y-8574820D01*
X11738623Y-8574820D02*
X11713623Y-8574820D01*
X11801123Y-8682320D02*
X11788623Y-8694820D01*
X11363623Y-8574820D02*
X11351123Y-8587320D01*
X11663623Y-8694820D02*
X11651123Y-8682320D01*
X11851123Y-8682320D02*
X11851123Y-8587320D01*
X11851123Y-8587320D02*
X11838623Y-8574820D01*
X11813623Y-8574820D02*
X11801123Y-8587320D01*
X11501123Y-8552320D02*
X11488623Y-8539820D01*
X11951123Y-8682320D02*
X11951123Y-8587320D01*
X11963623Y-8694820D02*
X11951123Y-8682320D01*
X11551123Y-8682320D02*
X11551123Y-8587320D01*
X11651123Y-8557320D02*
X11638623Y-8544820D01*
X11588623Y-8694820D02*
X11563623Y-8694820D01*
X11413623Y-8694820D02*
X11401123Y-8682320D01*
X11288623Y-8574820D02*
X11233215Y-8574820D01*
X11513623Y-8574820D02*
X11501123Y-8562320D01*
X11463623Y-8539820D02*
X11451123Y-8552320D01*
X11301123Y-8682320D02*
X11301123Y-8587320D01*
X11638623Y-8544820D02*
X11613623Y-8544820D01*
X11601123Y-8557320D02*
X11601123Y-8682320D01*
X11451123Y-8552320D02*
X11451123Y-8682320D01*
X11351123Y-8587320D02*
X11351123Y-8682320D01*
X11901123Y-8682320D02*
X11888623Y-8694820D01*
X11863623Y-8694820D02*
X11851123Y-8682320D01*
X11438623Y-8694820D02*
X11413623Y-8694820D01*
X11901123Y-8587320D02*
X11901123Y-8682320D01*
X11351123Y-8682320D02*
X11338623Y-8694820D01*
X12001123Y-8682320D02*
X11988623Y-8694820D01*
X11488623Y-8539820D02*
X11463623Y-8539820D01*
X11988623Y-8694820D02*
X11963623Y-8694820D01*
X11233215Y-8574820D02*
X11190752Y-8574820D01*
X11913623Y-8574820D02*
X11901123Y-8587320D01*
X11701123Y-8587320D02*
X11701123Y-8682320D01*
X11338623Y-8694820D02*
X11313623Y-8694820D01*
X11401123Y-8587320D02*
X11388623Y-8574820D01*
X11313623Y-8694820D02*
X11301123Y-8682320D01*
X11401123Y-8682320D02*
X11401123Y-8587320D01*
X11838623Y-8574820D02*
X11813623Y-8574820D01*
X11938623Y-8574820D02*
X11913623Y-8574820D01*
X12013623Y-8574820D02*
X12001123Y-8587320D01*
X11190752Y-8574820D02*
X11104692Y-8488760D01*
X11788623Y-8694820D02*
X11763623Y-8694820D01*
X11451123Y-8682320D02*
X11438623Y-8694820D01*
X11751123Y-8682320D02*
X11751123Y-8587320D01*
X12001123Y-8587320D02*
X12001123Y-8682320D01*
X11563623Y-8694820D02*
X11551123Y-8682320D01*
X11104692Y-8488760D02*
X10835820Y-8488760D01*
X11601123Y-8682320D02*
X11588623Y-8694820D01*
X11951123Y-8587320D02*
X11938623Y-8574820D01*
%TO.N,/IO/SERIAL_TX*%
X14691360Y-9836723D02*
X14691360Y-10105040D01*
X14655237Y-9800599D02*
X14691360Y-9836723D01*
X14691360Y-10105040D02*
X14693900Y-10107580D01*
%TO.N,/IO/SERIAL_RX*%
X14549120Y-9865360D02*
X14480540Y-9796780D01*
X14549120Y-10137140D02*
X14549120Y-9865360D01*
X14546239Y-10140021D02*
X14549120Y-10137140D01*
%TO.N,/DISPLAY/LCD_R5*%
X13633160Y-9134679D02*
X13666901Y-9168420D01*
X14832796Y-10556240D02*
X15270480Y-10556240D01*
X14119255Y-10054830D02*
X14603345Y-10538920D01*
X13666901Y-9168561D02*
X13677900Y-9179560D01*
X13702270Y-10054830D02*
X14119255Y-10054830D01*
X13633019Y-9134679D02*
X13633160Y-9134679D01*
X13543959Y-9379300D02*
X13437955Y-9379300D01*
X13677900Y-9179560D02*
X13677900Y-9245359D01*
X13469620Y-8915400D02*
X13469620Y-8971280D01*
X13469620Y-8971280D02*
X13633019Y-9134679D01*
X14815476Y-10538920D02*
X14832796Y-10556240D01*
X13677900Y-9245359D02*
X13543959Y-9379300D01*
X13525100Y-9877660D02*
X13702270Y-10054830D01*
X13437955Y-9379300D02*
X13153882Y-9663374D01*
X13153882Y-9663374D02*
X13153882Y-9719234D01*
X13312308Y-9877660D02*
X13525100Y-9877660D01*
X13666901Y-9168420D02*
X13666901Y-9168561D01*
X14603345Y-10538920D02*
X14815476Y-10538920D01*
X13153882Y-9719234D02*
X13312308Y-9877660D01*
%TO.N,/DISPLAY/LCD_G5*%
X13924280Y-9624060D02*
X14167043Y-9624060D01*
X13453096Y-9479280D02*
X13779500Y-9479280D01*
X14450706Y-9632336D02*
X14787299Y-9632336D01*
X14367543Y-9715500D02*
X14450706Y-9632336D01*
X14977142Y-10010140D02*
X15275560Y-10010140D01*
X14874800Y-9907798D02*
X14977142Y-10010140D01*
X14258483Y-9715500D02*
X14367543Y-9715500D01*
X14874800Y-9719837D02*
X14874800Y-9907798D01*
X14167043Y-9624060D02*
X14258483Y-9715500D01*
X14787299Y-9632336D02*
X14874800Y-9719837D01*
X13779500Y-9479280D02*
X13924280Y-9624060D01*
%TO.N,/DISPLAY/LCD_HSYNC*%
X14405549Y-9160450D02*
X14405549Y-9025951D01*
X15309860Y-9107180D02*
X15379700Y-9107180D01*
X14491760Y-8939740D02*
X15142420Y-8939740D01*
X15142420Y-8939740D02*
X15309860Y-9107180D01*
X14405549Y-9025951D02*
X14491760Y-8939740D01*
X14344589Y-9221410D02*
X14405549Y-9160450D01*
%TO.N,/DISPLAY/LCD_G0*%
X14076640Y-9092003D02*
X14074140Y-9094503D01*
X15191280Y-10361120D02*
X14524822Y-10361120D01*
X14091663Y-9834220D02*
X14043945Y-9834220D01*
X14330145Y-8446035D02*
X14274814Y-8501366D01*
X14043845Y-9834320D02*
X14005000Y-9834320D01*
X15361920Y-10337800D02*
X15299519Y-10337800D01*
X14076640Y-9091861D02*
X14076640Y-9092003D01*
X14005000Y-9834320D02*
X13949680Y-9779000D01*
X15251601Y-10337800D02*
X15214600Y-10337800D01*
X14074140Y-9364980D02*
X13949680Y-9489440D01*
X13949680Y-9489440D02*
X13949680Y-9566560D01*
X14414500Y-8446035D02*
X14330145Y-8446035D01*
X14043945Y-9834220D02*
X14043845Y-9834320D01*
X14125404Y-9867961D02*
X14091663Y-9834220D01*
X15299519Y-10337800D02*
X15299419Y-10337900D01*
X14074140Y-9094503D02*
X14074140Y-9364980D01*
X14125404Y-9961702D02*
X14125404Y-9867961D01*
X14524822Y-10361120D02*
X14125404Y-9961702D01*
X15299419Y-10337900D02*
X15251701Y-10337900D01*
X14274814Y-8501366D02*
X14274814Y-8893687D01*
X15251701Y-10337900D02*
X15251601Y-10337800D01*
X15214600Y-10337800D02*
X15191280Y-10361120D01*
X14274814Y-8893687D02*
X14076640Y-9091861D01*
%TO.N,/DISPLAY/LCD_R4*%
X13607700Y-9265920D02*
X13529420Y-9344200D01*
X14588806Y-10574020D02*
X14800938Y-10574020D01*
X13609301Y-9192279D02*
X13607700Y-9193880D01*
X13297769Y-9912760D02*
X13510561Y-9912760D01*
X13687731Y-10089930D02*
X14104716Y-10089930D01*
X13607700Y-9193880D02*
X13607700Y-9265920D01*
X13118782Y-9648835D02*
X13118782Y-9733773D01*
X13423417Y-9344200D02*
X13118782Y-9648835D01*
X14841578Y-10614660D02*
X15361920Y-10614660D01*
X13529420Y-9344200D02*
X13423417Y-9344200D01*
X14800938Y-10574020D02*
X14841578Y-10614660D01*
X13118782Y-9733773D02*
X13297769Y-9912760D01*
X14104716Y-10089930D02*
X14588806Y-10574020D01*
X13510561Y-9912760D02*
X13687731Y-10089930D01*
%TO.N,/DISPLAY/LCD_R3*%
X13408878Y-9309100D02*
X13083682Y-9634296D01*
X14696747Y-10731600D02*
X15135850Y-10731600D01*
X13673192Y-10125030D02*
X14090177Y-10125030D01*
X13440060Y-9309100D02*
X13408878Y-9309100D01*
X13283230Y-9947860D02*
X13496023Y-9947860D01*
X13083682Y-9748312D02*
X13283230Y-9947860D01*
X14090177Y-10125030D02*
X14696747Y-10731600D01*
X13488320Y-9260840D02*
X13440060Y-9309100D01*
X15135850Y-10731600D02*
X15135950Y-10731500D01*
X15135950Y-10731500D02*
X15270480Y-10731500D01*
X13083682Y-9634296D02*
X13083682Y-9748312D01*
X13496023Y-9947860D02*
X13673192Y-10125030D01*
%TO.N,/DISPLAY/LCD_R6*%
X15246621Y-10498640D02*
X15246521Y-10498740D01*
X15361920Y-10498740D02*
X15294439Y-10498740D01*
X15016740Y-10396220D02*
X14510283Y-10396220D01*
X14510283Y-10396220D02*
X14067804Y-9953741D01*
X15246521Y-10498740D02*
X15119260Y-10498740D01*
X15294339Y-10498640D02*
X15246621Y-10498640D01*
X15294439Y-10498740D02*
X15294339Y-10498640D01*
X15119260Y-10498740D02*
X15016740Y-10396220D01*
X14067804Y-9953741D02*
X14067804Y-9891820D01*
%TO.N,/DISPLAY/LCD_B5*%
X14370714Y-9445560D02*
X14393214Y-9468060D01*
X15021625Y-9392920D02*
X15278100Y-9392920D01*
X14393214Y-9468060D02*
X14946485Y-9468060D01*
X14231620Y-9268460D02*
X14196060Y-9304020D01*
X14196060Y-9384044D02*
X14257576Y-9445560D01*
X14196060Y-9304020D02*
X14196060Y-9384044D01*
X14257576Y-9445560D02*
X14370714Y-9445560D01*
X14946485Y-9468060D02*
X15021625Y-9392920D01*
X14231620Y-9119428D02*
X14231620Y-9268460D01*
%TO.N,/DISPLAY/LCD_B1*%
X15112386Y-9335114D02*
X15113000Y-9334500D01*
X15424500Y-9432603D02*
X15424500Y-9492900D01*
X15113000Y-9334500D02*
X15326397Y-9334500D01*
X15368902Y-9548498D02*
X15368902Y-9629777D01*
X15326397Y-9334500D02*
X15424500Y-9432603D01*
X15424500Y-9492900D02*
X15368902Y-9548498D01*
%TO.N,/DISPLAY/LCD_R0*%
X14571980Y-9798660D02*
X14632940Y-9859620D01*
X14660880Y-10165080D02*
X15092680Y-10165080D01*
X14632940Y-10137140D02*
X14660880Y-10165080D01*
X14632940Y-9859620D02*
X14632940Y-10137140D01*
%TO.N,/DISPLAY/LCD_R2*%
X15294339Y-10789120D02*
X15294439Y-10789220D01*
X13658653Y-10160130D02*
X14075638Y-10160130D01*
X13430720Y-9236981D02*
X13430720Y-9237619D01*
X14704728Y-10789220D02*
X15246521Y-10789220D01*
X15246621Y-10789120D02*
X15294339Y-10789120D01*
X15246521Y-10789220D02*
X15246621Y-10789120D01*
X13481484Y-9982960D02*
X13658653Y-10160130D01*
X13048582Y-9762851D02*
X13268691Y-9982960D01*
X13431520Y-8983980D02*
X13431520Y-9236181D01*
X15294439Y-10789220D02*
X15359380Y-10789220D01*
X13048582Y-9619757D02*
X13048582Y-9762851D01*
X13430720Y-9237619D02*
X13048582Y-9619757D01*
X14075638Y-10160130D02*
X14704728Y-10789220D01*
X13431520Y-9236181D02*
X13430720Y-9236981D01*
X13268691Y-9982960D02*
X13481484Y-9982960D01*
X13365480Y-8917940D02*
X13431520Y-8983980D01*
%TO.N,/DISPLAY/LCD_R1*%
X13013481Y-9777389D02*
X13762552Y-10526460D01*
X14712730Y-10846720D02*
X15270480Y-10846720D01*
X14690330Y-10824320D02*
X14712730Y-10846720D01*
X13368020Y-9010300D02*
X13368020Y-9250680D01*
X14690189Y-10824320D02*
X14690330Y-10824320D01*
X13013482Y-9605218D02*
X13013481Y-9777389D01*
X13762552Y-10526460D02*
X14392329Y-10526460D01*
X13368020Y-9250680D02*
X13013482Y-9605218D01*
X14392329Y-10526460D02*
X14690189Y-10824320D01*
%TO.N,/DISPLAY/LCD_G1*%
X14086304Y-9799120D02*
X14106202Y-9799120D01*
X14106202Y-9799120D02*
X14160504Y-9853422D01*
X14010304Y-9723120D02*
X14086304Y-9799120D01*
X14160504Y-9947163D02*
X14539361Y-10326020D01*
X15222461Y-10280300D02*
X15275560Y-10280300D01*
X15176741Y-10326020D02*
X15222461Y-10280300D01*
X14160504Y-9853422D02*
X14160504Y-9947163D01*
X14539361Y-10326020D02*
X15176741Y-10326020D01*
%TO.N,/DISPLAY/LCD_VSYNC*%
X15156917Y-8904740D02*
X15259011Y-9006834D01*
X15259011Y-9006834D02*
X15379525Y-9006834D01*
X14346896Y-9033804D02*
X14475960Y-8904740D01*
X14475960Y-8904740D02*
X15156917Y-8904740D01*
X14346896Y-9097774D02*
X14346896Y-9033804D01*
%TO.N,/DISPLAY/LCD_CLK*%
X14714220Y-8974740D02*
X15121577Y-8974740D01*
X14442440Y-9230561D02*
X14442440Y-9039860D01*
X15334017Y-9187180D02*
X15379700Y-9187180D01*
X15121577Y-8974740D02*
X15334017Y-9187180D01*
X14442440Y-9039860D02*
X14507460Y-8974840D01*
X14714120Y-8974840D02*
X14714220Y-8974740D01*
X14284941Y-9388060D02*
X14442440Y-9230561D01*
X14507460Y-8974840D02*
X14714120Y-8974840D01*
%TO.N,/DISPLAY/LCD_DE*%
X15176560Y-8869740D02*
X14671063Y-8869740D01*
X15233701Y-8926881D02*
X15176560Y-8869740D01*
X14554760Y-8397800D02*
X14485620Y-8328660D01*
X14554760Y-8753437D02*
X14554760Y-8397800D01*
X14485620Y-8328660D02*
X13670280Y-8328660D01*
X15382279Y-8926881D02*
X15233701Y-8926881D01*
X13599160Y-8399780D02*
X13568680Y-8399780D01*
X13670280Y-8328660D02*
X13599160Y-8399780D01*
X14671063Y-8869740D02*
X14554760Y-8753437D01*
X13568680Y-8399780D02*
X13535660Y-8366760D01*
%TO.N,/DISPLAY/LCD_G3*%
X14629480Y-9724859D02*
X14640863Y-9736242D01*
X14712068Y-9736242D02*
X14804800Y-9828973D01*
X14975588Y-10107580D02*
X15126620Y-10107580D01*
X15184120Y-10165080D02*
X15275560Y-10165080D01*
X15126620Y-10107580D02*
X15184120Y-10165080D01*
X14804800Y-9828973D02*
X14804800Y-9936792D01*
X14640863Y-9736242D02*
X14712068Y-9736242D01*
X14804800Y-9936792D02*
X14975588Y-10107580D01*
%TO.N,/DISPLAY/LCD_R7*%
X14005560Y-10904220D02*
X14589760Y-10904220D01*
X14589760Y-10904220D02*
X15161297Y-10904220D01*
X14589760Y-10904220D02*
X14589760Y-10904220D01*
%TO.N,/DISPLAY/LCD_G4*%
X14150340Y-9662160D02*
X14238680Y-9750500D01*
X14382040Y-9750500D02*
X14465204Y-9667336D01*
X14839800Y-9922295D02*
X14986065Y-10068560D01*
X14238680Y-9750500D02*
X14382040Y-9750500D01*
X13827540Y-9585740D02*
X13903960Y-9662160D01*
X14839800Y-9734335D02*
X14839800Y-9922295D01*
X14986065Y-10068560D02*
X15361920Y-10068560D01*
X13313060Y-9585740D02*
X13827540Y-9585740D01*
X13903960Y-9662160D02*
X14150340Y-9662160D01*
X14772802Y-9667336D02*
X14839800Y-9734335D01*
X14465204Y-9667336D02*
X14772802Y-9667336D01*
%TO.N,/DISPLAY/LCD_B4*%
X15231783Y-9427920D02*
X15260283Y-9456420D01*
X15036123Y-9427920D02*
X15231783Y-9427920D01*
X14346896Y-9503060D02*
X14960983Y-9503060D01*
X14960983Y-9503060D02*
X15036123Y-9427920D01*
X15260283Y-9456420D02*
X15367000Y-9456420D01*
%TO.N,/DISPLAY/LCD_G6*%
X14333500Y-9595560D02*
X14800020Y-9595560D01*
X14909800Y-9893300D02*
X14969140Y-9952640D01*
X14969140Y-9952640D02*
X15361920Y-9952640D01*
X14276680Y-9652380D02*
X14333500Y-9595560D01*
X14800020Y-9595560D02*
X14909800Y-9705340D01*
X14909800Y-9705340D02*
X14909800Y-9893300D01*
D18*
%TO.N,/MEMORY_EEPROM/EE_SDA*%
X12092835Y-10106555D02*
X11864340Y-9878060D01*
X9605110Y-7495000D02*
X11219720Y-7495000D01*
X9191220Y-7908890D02*
X9605110Y-7495000D01*
X11219720Y-7495000D02*
X11991340Y-6723380D01*
X9622350Y-9878060D02*
X9191220Y-9446930D01*
X11864340Y-9878060D02*
X9622350Y-9878060D01*
X13205335Y-10106555D02*
X12092835Y-10106555D01*
X9191220Y-9446930D02*
X9191220Y-7908890D01*
X11991340Y-6723380D02*
X12110720Y-6723380D01*
X13317220Y-10218440D02*
X13205335Y-10106555D01*
%TO.N,/MEMORY_EEPROM/EE_SCL*%
X9151120Y-7892280D02*
X9151120Y-9463540D01*
X11835860Y-9918160D02*
X12064355Y-10146655D01*
X9151120Y-9463540D02*
X9605740Y-9918160D01*
X13160385Y-10146655D02*
X13237390Y-10223660D01*
X12061630Y-6596380D02*
X11203110Y-7454900D01*
X12064355Y-10146655D02*
X13160385Y-10146655D01*
X9605740Y-9918160D02*
X11835860Y-9918160D01*
X12110720Y-6596380D02*
X12061630Y-6596380D01*
X11203110Y-7454900D02*
X9588500Y-7454900D01*
X9588500Y-7454900D02*
X9151120Y-7892280D01*
D16*
%TO.N,/DISPLAY/LCD_BLK*%
X18796160Y-7218009D02*
X18796160Y-7983220D01*
X18572480Y-8206900D02*
X18572480Y-8587740D01*
X18796160Y-7983220D02*
X18572480Y-8206900D01*
X18572480Y-8587740D02*
X17285970Y-9874250D01*
X17285970Y-9874250D02*
X15299690Y-9874250D01*
%TO.N,/OUTPUT_SPEAKER/~{SD_MODE}*%
X9113520Y-9479114D02*
X9786620Y-10152214D01*
X9309100Y-7487920D02*
X9113520Y-7683500D01*
X9113520Y-7683500D02*
X9113520Y-9479114D01*
X9786620Y-10152214D02*
X9786620Y-10419080D01*
%TO.N,/IO/BUZZER*%
X15316200Y-8806180D02*
X15059660Y-8806180D01*
X15230760Y-6660123D02*
X15230760Y-7492617D01*
X15230760Y-7492617D02*
X15413280Y-7675137D01*
X15413280Y-7675137D02*
X15413280Y-8709100D01*
X15413280Y-8709100D02*
X15316200Y-8806180D01*
%TO.N,/OUTPUT_SPEAKER/I2S2_CLK*%
X12944000Y-10709000D02*
X12900660Y-10665660D01*
X12900660Y-10665660D02*
X12900660Y-10561320D01*
X12631420Y-11483340D02*
X12944000Y-11170760D01*
X12944000Y-11170760D02*
X12944000Y-10709000D01*
%TO.N,/OUTPUT_SPEAKER/I2S2_WS*%
X12690500Y-10477500D02*
X12882880Y-10477500D01*
X12564670Y-10603330D02*
X12690500Y-10477500D01*
X12564670Y-11635030D02*
X12564670Y-10603330D01*
X12565380Y-11635740D02*
X12564670Y-11635030D01*
%TD*%
%TA.AperFunction,Conductor*%
%TO.N,GND*%
G36*
X17784464Y-12313348D02*
G01*
X17789039Y-12318629D01*
X17790160Y-12323780D01*
X17790160Y-13033040D01*
X17788192Y-13039744D01*
X17782911Y-13044319D01*
X17777760Y-13045440D01*
X12890200Y-13045440D01*
X12883496Y-13043471D01*
X12878921Y-13038191D01*
X12877800Y-13033040D01*
X12877800Y-12323780D01*
X12879768Y-12317076D01*
X12885049Y-12312501D01*
X12890200Y-12311380D01*
X17777760Y-12311380D01*
X17784464Y-12313348D01*
G37*
%TD.AperFunction*%
%TD*%
%TA.AperFunction,Conductor*%
%TO.N,VDD*%
G36*
X21012804Y-10852849D02*
G01*
X21017379Y-10858129D01*
X21018500Y-10863280D01*
X21018500Y-11247420D01*
X21016532Y-11254124D01*
X21011251Y-11258699D01*
X21006100Y-11259820D01*
X20594020Y-11259820D01*
X20587316Y-11257851D01*
X20582741Y-11252571D01*
X20581620Y-11247420D01*
X20581620Y-10863280D01*
X20583589Y-10856576D01*
X20588869Y-10852001D01*
X20594020Y-10850880D01*
X21006100Y-10850880D01*
X21012804Y-10852849D01*
G37*
%TD.AperFunction*%
%TD*%
%TA.AperFunction,Conductor*%
%TO.N,+3V3*%
G36*
X20832464Y-7223188D02*
G01*
X20837039Y-7228469D01*
X20838160Y-7233620D01*
X20838160Y-7889540D01*
X20836192Y-7896244D01*
X20830911Y-7900819D01*
X20825760Y-7901940D01*
X19735500Y-7901940D01*
X19728796Y-7899971D01*
X19724221Y-7894691D01*
X19723100Y-7889540D01*
X19723100Y-7233620D01*
X19725069Y-7226916D01*
X19730349Y-7222341D01*
X19735500Y-7221220D01*
X20825760Y-7221220D01*
X20832464Y-7223188D01*
G37*
%TD.AperFunction*%
%TD*%
%TA.AperFunction,Conductor*%
%TO.N,VDD*%
G36*
X19661524Y-7705788D02*
G01*
X19666099Y-7711069D01*
X19667220Y-7716220D01*
X19667220Y-8095280D01*
X19665252Y-8101984D01*
X19659971Y-8106559D01*
X19654820Y-8107680D01*
X19245280Y-8107680D01*
X19238576Y-8105711D01*
X19234001Y-8100431D01*
X19232880Y-8095280D01*
X19232880Y-7716220D01*
X19234849Y-7709516D01*
X19240129Y-7704941D01*
X19245280Y-7703820D01*
X19654820Y-7703820D01*
X19661524Y-7705788D01*
G37*
%TD.AperFunction*%
%TD*%
M02*
