%TF.GenerationSoftware,KiCad,Pcbnew,9.0.1*%
%TF.CreationDate,2025-06-17T13:37:58+07:00*%
%TF.ProjectId,lcd-standard-5R,6c63642d-7374-4616-9e64-6172642d3552,rev?*%
%TF.SameCoordinates,Original*%
%TF.FileFunction,Soldermask,Bot*%
%TF.FilePolarity,Negative*%
%FSLAX45Y45*%
G04 Gerber Fmt 4.5, Leading zero omitted, Abs format (unit mm)*
G04 Created by KiCad (PCBNEW 9.0.1) date 2025-06-17 13:37:58*
%MOMM*%
%LPD*%
G01*
G04 APERTURE LIST*
%ADD10C,0.800000*%
%ADD11C,6.400000*%
%ADD12C,0.990600*%
%ADD13C,1.050000*%
%ADD14C,1.300000*%
%ADD15C,0.650000*%
%ADD16O,2.100000X1.000000*%
%ADD17O,1.800000X1.000000*%
%ADD18C,1.100000*%
G04 APERTURE END LIST*
D10*
%TO.C,H1*%
X7747440Y-5641340D03*
X7817734Y-5471634D03*
X7817734Y-5811046D03*
X7987440Y-5401340D03*
D11*
X7987440Y-5641340D03*
D10*
X7987440Y-5881340D03*
X8157146Y-5471634D03*
X8157146Y-5811046D03*
X8227440Y-5641340D03*
%TD*%
D12*
%TO.C,J11*%
X8008620Y-12453620D03*
X7907020Y-11691620D03*
X8110220Y-11691620D03*
%TD*%
D13*
%TO.C,BT1*%
X19821220Y-6047740D03*
D14*
X19076220Y-6047740D03*
%TD*%
D10*
%TO.C,H2*%
X7747440Y-13401340D03*
X7817734Y-13231634D03*
X7817734Y-13571046D03*
X7987440Y-13161340D03*
D11*
X7987440Y-13401340D03*
D10*
X7987440Y-13641340D03*
X8157146Y-13231634D03*
X8157146Y-13571046D03*
X8227440Y-13401340D03*
%TD*%
%TO.C,H3*%
X20797440Y-5641340D03*
X20867734Y-5471634D03*
X20867734Y-5811046D03*
X21037440Y-5401340D03*
D11*
X21037440Y-5641340D03*
D10*
X21037440Y-5881340D03*
X21207146Y-5471634D03*
X21207146Y-5811046D03*
X21277440Y-5641340D03*
%TD*%
%TO.C,H4*%
X20797440Y-13401340D03*
X20867734Y-13231634D03*
X20867734Y-13571046D03*
X21037440Y-13161340D03*
D11*
X21037440Y-13401340D03*
D10*
X21037440Y-13641340D03*
X21207146Y-13231634D03*
X21207146Y-13571046D03*
X21277440Y-13401340D03*
%TD*%
D15*
%TO.C,J1*%
X20740700Y-12498780D03*
X20740700Y-11920780D03*
D16*
X20688700Y-12641780D03*
D17*
X21108700Y-12641780D03*
D16*
X20688700Y-11777780D03*
D17*
X21108700Y-11777780D03*
%TD*%
D18*
%TO.C,J4*%
X10554380Y-5682780D03*
X9754380Y-5682780D03*
%TD*%
G36*
X17784464Y-12313348D02*
G01*
X17789039Y-12318629D01*
X17790160Y-12323780D01*
X17790160Y-13033040D01*
X17788192Y-13039744D01*
X17782911Y-13044319D01*
X17777760Y-13045440D01*
X12890200Y-13045440D01*
X12883496Y-13043471D01*
X12878921Y-13038191D01*
X12877800Y-13033040D01*
X12877800Y-12323780D01*
X12879768Y-12317076D01*
X12885049Y-12312501D01*
X12890200Y-12311380D01*
X17777760Y-12311380D01*
X17784464Y-12313348D01*
G37*
M02*
