%TF.GenerationSoftware,KiCad,Pcbnew,9.0.1*%
%TF.CreationDate,2025-06-17T13:37:58+07:00*%
%TF.ProjectId,lcd-standard-5R,6c63642d-7374-4616-9e64-6172642d3552,rev?*%
%TF.SameCoordinates,Original*%
%TF.FileFunction,Paste,Top*%
%TF.FilePolarity,Positive*%
%FSLAX45Y45*%
G04 Gerber Fmt 4.5, Leading zero omitted, Abs format (unit mm)*
G04 Created by KiCad (PCBNEW 9.0.1) date 2025-06-17 13:37:58*
%MOMM*%
%LPD*%
G01*
G04 APERTURE LIST*
G04 Aperture macros list*
%AMRoundRect*
0 Rectangle with rounded corners*
0 $1 Rounding radius*
0 $2 $3 $4 $5 $6 $7 $8 $9 X,Y pos of 4 corners*
0 Add a 4 corners polygon primitive as box body*
4,1,4,$2,$3,$4,$5,$6,$7,$8,$9,$2,$3,0*
0 Add four circle primitives for the rounded corners*
1,1,$1+$1,$2,$3*
1,1,$1+$1,$4,$5*
1,1,$1+$1,$6,$7*
1,1,$1+$1,$8,$9*
0 Add four rect primitives between the rounded corners*
20,1,$1+$1,$2,$3,$4,$5,0*
20,1,$1+$1,$4,$5,$6,$7,0*
20,1,$1+$1,$6,$7,$8,$9,0*
20,1,$1+$1,$8,$9,$2,$3,0*%
G04 Aperture macros list end*
%ADD10RoundRect,0.135000X0.185000X-0.135000X0.185000X0.135000X-0.185000X0.135000X-0.185000X-0.135000X0*%
%ADD11RoundRect,0.135000X-0.185000X0.135000X-0.185000X-0.135000X0.185000X-0.135000X0.185000X0.135000X0*%
%ADD12RoundRect,0.140000X-0.140000X-0.170000X0.140000X-0.170000X0.140000X0.170000X-0.140000X0.170000X0*%
%ADD13RoundRect,0.250000X0.475000X-0.250000X0.475000X0.250000X-0.475000X0.250000X-0.475000X-0.250000X0*%
%ADD14RoundRect,0.140000X0.140000X0.170000X-0.140000X0.170000X-0.140000X-0.170000X0.140000X-0.170000X0*%
%ADD15R,0.250000X1.100000*%
%ADD16R,1.700000X1.500000*%
%ADD17RoundRect,0.250000X-0.250000X-0.475000X0.250000X-0.475000X0.250000X0.475000X-0.250000X0.475000X0*%
%ADD18RoundRect,0.140000X0.170000X-0.140000X0.170000X0.140000X-0.170000X0.140000X-0.170000X-0.140000X0*%
%ADD19R,1.050000X0.650000*%
%ADD20RoundRect,0.135000X-0.135000X-0.185000X0.135000X-0.185000X0.135000X0.185000X-0.135000X0.185000X0*%
%ADD21R,0.500000X0.400000*%
%ADD22R,0.500000X0.300000*%
%ADD23RoundRect,0.218750X0.218750X0.381250X-0.218750X0.381250X-0.218750X-0.381250X0.218750X-0.381250X0*%
%ADD24R,2.000000X1.700000*%
%ADD25RoundRect,0.135000X0.135000X0.185000X-0.135000X0.185000X-0.135000X-0.185000X0.135000X-0.185000X0*%
%ADD26RoundRect,0.225000X0.375000X-0.225000X0.375000X0.225000X-0.375000X0.225000X-0.375000X-0.225000X0*%
%ADD27RoundRect,0.079500X0.100500X-0.079500X0.100500X0.079500X-0.100500X0.079500X-0.100500X-0.079500X0*%
%ADD28R,4.500000X2.300000*%
%ADD29RoundRect,0.150000X-0.587500X-0.150000X0.587500X-0.150000X0.587500X0.150000X-0.587500X0.150000X0*%
%ADD30R,0.600000X1.100000*%
%ADD31R,1.500000X0.500000*%
%ADD32R,1.700000X2.000000*%
%ADD33RoundRect,0.140000X-0.170000X0.140000X-0.170000X-0.140000X0.170000X-0.140000X0.170000X0.140000X0*%
%ADD34RoundRect,0.243750X0.243750X0.456250X-0.243750X0.456250X-0.243750X-0.456250X0.243750X-0.456250X0*%
%ADD35RoundRect,0.150000X-0.150000X0.587500X-0.150000X-0.587500X0.150000X-0.587500X0.150000X0.587500X0*%
%ADD36RoundRect,0.225000X-0.250000X0.225000X-0.250000X-0.225000X0.250000X-0.225000X0.250000X0.225000X0*%
%ADD37RoundRect,0.225000X0.250000X-0.225000X0.250000X0.225000X-0.250000X0.225000X-0.250000X-0.225000X0*%
%ADD38RoundRect,0.079500X0.079500X0.100500X-0.079500X0.100500X-0.079500X-0.100500X0.079500X-0.100500X0*%
%ADD39RoundRect,0.250000X0.450000X0.425000X-0.450000X0.425000X-0.450000X-0.425000X0.450000X-0.425000X0*%
%ADD40RoundRect,0.110000X-1.590000X0.440000X-1.590000X-0.440000X1.590000X-0.440000X1.590000X0.440000X0*%
%ADD41RoundRect,0.150000X-0.512500X-0.150000X0.512500X-0.150000X0.512500X0.150000X-0.512500X0.150000X0*%
%ADD42RoundRect,0.150000X-0.825000X-0.150000X0.825000X-0.150000X0.825000X0.150000X-0.825000X0.150000X0*%
%ADD43RoundRect,0.100000X0.637500X0.100000X-0.637500X0.100000X-0.637500X-0.100000X0.637500X-0.100000X0*%
%ADD44RoundRect,0.150000X0.587500X0.150000X-0.587500X0.150000X-0.587500X-0.150000X0.587500X-0.150000X0*%
%ADD45R,0.400000X0.500000*%
%ADD46R,0.300000X0.500000*%
%ADD47RoundRect,0.218750X-0.218750X-0.381250X0.218750X-0.381250X0.218750X0.381250X-0.218750X0.381250X0*%
%ADD48RoundRect,0.140000X0.219203X0.021213X0.021213X0.219203X-0.219203X-0.021213X-0.021213X-0.219203X0*%
%ADD49RoundRect,0.250000X-0.475000X0.250000X-0.475000X-0.250000X0.475000X-0.250000X0.475000X0.250000X0*%
%ADD50RoundRect,0.250000X0.250000X0.475000X-0.250000X0.475000X-0.250000X-0.475000X0.250000X-0.475000X0*%
%ADD51R,2.400000X0.740000*%
%ADD52RoundRect,0.250000X-0.650000X0.325000X-0.650000X-0.325000X0.650000X-0.325000X0.650000X0.325000X0*%
%ADD53R,0.300000X1.200000*%
%ADD54R,1.800000X2.000000*%
%ADD55R,0.950000X0.450000*%
%ADD56R,3.450000X4.350000*%
%ADD57R,0.458000X1.510000*%
%ADD58R,4.500000X1.300000*%
%ADD59R,3.900000X1.800000*%
%ADD60RoundRect,0.125000X0.125000X0.125000X-0.125000X0.125000X-0.125000X-0.125000X0.125000X-0.125000X0*%
%ADD61RoundRect,0.062500X0.350000X0.062500X-0.350000X0.062500X-0.350000X-0.062500X0.350000X-0.062500X0*%
%ADD62RoundRect,0.062500X0.062500X0.350000X-0.062500X0.350000X-0.062500X-0.350000X0.062500X-0.350000X0*%
%ADD63RoundRect,0.375000X-0.625000X-0.375000X0.625000X-0.375000X0.625000X0.375000X-0.625000X0.375000X0*%
%ADD64RoundRect,0.500000X-0.500000X-1.400000X0.500000X-1.400000X0.500000X1.400000X-0.500000X1.400000X0*%
%ADD65R,1.800000X0.700000*%
%ADD66R,2.200000X1.600000*%
%ADD67RoundRect,0.225000X-0.225000X-0.250000X0.225000X-0.250000X0.225000X0.250000X-0.225000X0.250000X0*%
%ADD68RoundRect,0.250000X-0.312500X-0.625000X0.312500X-0.625000X0.312500X0.625000X-0.312500X0.625000X0*%
%ADD69RoundRect,0.225000X0.225000X0.375000X-0.225000X0.375000X-0.225000X-0.375000X0.225000X-0.375000X0*%
%ADD70RoundRect,0.100000X0.100000X-0.225000X0.100000X0.225000X-0.100000X0.225000X-0.100000X-0.225000X0*%
%ADD71RoundRect,0.075000X-0.075000X0.662500X-0.075000X-0.662500X0.075000X-0.662500X0.075000X0.662500X0*%
%ADD72RoundRect,0.075000X-0.662500X0.075000X-0.662500X-0.075000X0.662500X-0.075000X0.662500X0.075000X0*%
%ADD73R,1.240000X0.600000*%
%ADD74R,1.240000X0.300000*%
%ADD75R,1.150000X1.000000*%
%ADD76R,0.700000X1.600000*%
%ADD77R,1.200000X1.500000*%
%ADD78R,1.200000X2.200000*%
%ADD79R,1.600000X1.500000*%
%ADD80RoundRect,0.200000X0.275000X-0.200000X0.275000X0.200000X-0.275000X0.200000X-0.275000X-0.200000X0*%
%ADD81RoundRect,0.150000X0.150000X-0.587500X0.150000X0.587500X-0.150000X0.587500X-0.150000X-0.587500X0*%
G04 APERTURE END LIST*
D10*
%TO.C,R12*%
X10059380Y-7086800D03*
X10059380Y-6984800D03*
%TD*%
D11*
%TO.C,R30*%
X9034240Y-7325160D03*
X9034240Y-7427160D03*
%TD*%
D12*
%TO.C,C44*%
X16665200Y-7226300D03*
X16761200Y-7226300D03*
%TD*%
D13*
%TO.C,C60*%
X8488680Y-10375800D03*
X8488680Y-10185800D03*
%TD*%
D14*
%TO.C,C18*%
X13457180Y-10581640D03*
X13361180Y-10581640D03*
%TD*%
D15*
%TO.C,J10*%
X11711620Y-9940180D03*
X11761620Y-9940180D03*
X11811620Y-9940180D03*
X11861620Y-9940180D03*
X11911620Y-9940180D03*
X11961620Y-9940180D03*
X12011620Y-9940180D03*
X12061620Y-9940180D03*
X12111620Y-9940180D03*
X12161620Y-9940180D03*
D16*
X11546620Y-10330180D03*
X12326620Y-10330180D03*
%TD*%
D17*
%TO.C,C55*%
X9330220Y-10161430D03*
X9520220Y-10161430D03*
%TD*%
D18*
%TO.C,C32*%
X9550740Y-8150680D03*
X9550740Y-8054680D03*
%TD*%
D12*
%TO.C,C34*%
X10990740Y-8140780D03*
X11086740Y-8140780D03*
%TD*%
D11*
%TO.C,R37*%
X16268700Y-5680960D03*
X16268700Y-5782960D03*
%TD*%
D10*
%TO.C,R24*%
X18694400Y-8413780D03*
X18694400Y-8311780D03*
%TD*%
D19*
%TO.C,SW2*%
X12790660Y-5676940D03*
X12375660Y-5676940D03*
X12790660Y-5461940D03*
X12375660Y-5461940D03*
%TD*%
D20*
%TO.C,R28*%
X9683910Y-10512750D03*
X9785910Y-10512750D03*
%TD*%
D21*
%TO.C,RN6*%
X15624480Y-10542047D03*
D22*
X15624480Y-10492047D03*
X15624480Y-10442047D03*
D21*
X15624480Y-10392047D03*
X15524480Y-10392047D03*
D22*
X15524480Y-10442047D03*
X15524480Y-10492047D03*
D21*
X15524480Y-10542047D03*
%TD*%
D23*
%TO.C,FB2*%
X8881950Y-10375800D03*
X8669450Y-10375800D03*
%TD*%
D24*
%TO.C,BZ1*%
X17837440Y-5775960D03*
X17037440Y-5775960D03*
%TD*%
D18*
%TO.C,C51*%
X18811240Y-8413780D03*
X18811240Y-8317780D03*
%TD*%
%TO.C,C36*%
X11630740Y-8140780D03*
X11630740Y-8044780D03*
%TD*%
D19*
%TO.C,SW4*%
X15231793Y-5676940D03*
X14816793Y-5676940D03*
X15231793Y-5461940D03*
X14816793Y-5461940D03*
%TD*%
D25*
%TO.C,R4*%
X21028860Y-12801600D03*
X20926860Y-12801600D03*
%TD*%
D26*
%TO.C,D8*%
X15669260Y-8089800D03*
X15669260Y-7759800D03*
%TD*%
D20*
%TO.C,R32*%
X7996380Y-7205980D03*
X8098380Y-7205980D03*
%TD*%
%TO.C,R39*%
X11447380Y-10665460D03*
X11549380Y-10665460D03*
%TD*%
D27*
%TO.C,R15*%
X13600853Y-7927300D03*
X13600853Y-7858300D03*
%TD*%
D28*
%TO.C,BT1*%
X20291220Y-6047740D03*
X18651220Y-6047740D03*
%TD*%
D11*
%TO.C,R17*%
X12689840Y-6339380D03*
X12689840Y-6441380D03*
%TD*%
D29*
%TO.C,D12*%
X19634660Y-9176340D03*
X19634660Y-9366340D03*
X19822160Y-9271340D03*
%TD*%
D19*
%TO.C,SW1*%
X11570093Y-5676940D03*
X11155093Y-5676940D03*
X11570093Y-5461940D03*
X11155093Y-5461940D03*
%TD*%
D30*
%TO.C,Y2*%
X14187020Y-7630160D03*
X14327020Y-7630160D03*
%TD*%
D31*
%TO.C,J9*%
X8268620Y-8592960D03*
X8268620Y-8692960D03*
X8268620Y-8792960D03*
X8268620Y-8892960D03*
X8268620Y-8992960D03*
X8268620Y-9092960D03*
X8268620Y-9192960D03*
X8268620Y-9292960D03*
X8268620Y-9392960D03*
X8268620Y-9492960D03*
D32*
X8008620Y-8372960D03*
X8008620Y-9712960D03*
%TD*%
D18*
%TO.C,C16*%
X13073380Y-7988300D03*
X13073380Y-7892300D03*
%TD*%
D33*
%TO.C,C11*%
X12636500Y-10406380D03*
X12636500Y-10502380D03*
%TD*%
D11*
%TO.C,R25*%
X19060160Y-8311780D03*
X19060160Y-8413780D03*
%TD*%
D25*
%TO.C,R2*%
X8098380Y-6741160D03*
X7996380Y-6741160D03*
%TD*%
D26*
%TO.C,D6*%
X16131540Y-8089800D03*
X16131540Y-7759800D03*
%TD*%
D14*
%TO.C,C28*%
X14187020Y-7777480D03*
X14091020Y-7777480D03*
%TD*%
D18*
%TO.C,C59*%
X14681200Y-5617440D03*
X14681200Y-5521440D03*
%TD*%
D11*
%TO.C,R41*%
X13309600Y-5518440D03*
X13309600Y-5620440D03*
%TD*%
D29*
%TO.C,D13*%
X19634660Y-9676340D03*
X19634660Y-9866340D03*
X19822160Y-9771340D03*
%TD*%
D34*
%TO.C,D10*%
X8183880Y-7376160D03*
X7996380Y-7376160D03*
%TD*%
D29*
%TO.C,Q4*%
X16573960Y-5680960D03*
X16573960Y-5870960D03*
X16761460Y-5775960D03*
%TD*%
D35*
%TO.C,D3*%
X15014960Y-7589750D03*
X14824960Y-7589750D03*
X14919960Y-7777250D03*
%TD*%
D36*
%TO.C,C56*%
X11239500Y-10087320D03*
X11239500Y-10242320D03*
%TD*%
D37*
%TO.C,C49*%
X18930620Y-8413780D03*
X18930620Y-8258780D03*
%TD*%
D36*
%TO.C,C10*%
X12760960Y-10406380D03*
X12760960Y-10561380D03*
%TD*%
D38*
%TO.C,R14*%
X12378900Y-8890000D03*
X12309900Y-8890000D03*
%TD*%
D39*
%TO.C,C3*%
X20739480Y-7010400D03*
X20469480Y-7010400D03*
%TD*%
D11*
%TO.C,R27*%
X16746220Y-7942180D03*
X16746220Y-8044180D03*
%TD*%
D12*
%TO.C,C25*%
X13216760Y-7647940D03*
X13312760Y-7647940D03*
%TD*%
D10*
%TO.C,R11*%
X10499380Y-7086800D03*
X10499380Y-6984800D03*
%TD*%
D40*
%TO.C,L1*%
X17837440Y-7149820D03*
X17837440Y-7449820D03*
%TD*%
D11*
%TO.C,R19*%
X16024650Y-6602540D03*
X16024650Y-6704540D03*
%TD*%
D41*
%TO.C,U1*%
X18214890Y-11451840D03*
X18214890Y-11546840D03*
X18214890Y-11641840D03*
X18442390Y-11641840D03*
X18442390Y-11546840D03*
X18442390Y-11451840D03*
%TD*%
D18*
%TO.C,C54*%
X18430240Y-8036300D03*
X18430240Y-7940300D03*
%TD*%
D12*
%TO.C,C43*%
X16665200Y-7373620D03*
X16761200Y-7373620D03*
%TD*%
%TO.C,C27*%
X14327020Y-7777480D03*
X14423020Y-7777480D03*
%TD*%
D20*
%TO.C,R29*%
X9683910Y-10638950D03*
X9785910Y-10638950D03*
%TD*%
D42*
%TO.C,U6*%
X11764160Y-6342380D03*
X11764160Y-6469380D03*
X11764160Y-6596380D03*
X11764160Y-6723380D03*
X12259160Y-6723380D03*
X12259160Y-6596380D03*
X12259160Y-6469380D03*
X12259160Y-6342380D03*
%TD*%
D43*
%TO.C,U7*%
X16313650Y-7314100D03*
X16313650Y-7249100D03*
X16313650Y-7184100D03*
X16313650Y-7119100D03*
X16313650Y-7054100D03*
X16313650Y-6989100D03*
X16313650Y-6924100D03*
X16313650Y-6859100D03*
X15741150Y-6859100D03*
X15741150Y-6924100D03*
X15741150Y-6989100D03*
X15741150Y-7054100D03*
X15741150Y-7119100D03*
X15741150Y-7184100D03*
X15741150Y-7249100D03*
X15741150Y-7314100D03*
%TD*%
D12*
%TO.C,C33*%
X10590740Y-8140780D03*
X10686740Y-8140780D03*
%TD*%
D25*
%TO.C,R5*%
X21028860Y-11620500D03*
X20926860Y-11620500D03*
%TD*%
D33*
%TO.C,C37*%
X13238480Y-6723380D03*
X13238480Y-6819380D03*
%TD*%
D44*
%TO.C,Q3*%
X8744680Y-7941060D03*
X8744680Y-7751060D03*
X8557180Y-7846060D03*
%TD*%
D27*
%TO.C,R43*%
X13746480Y-7927300D03*
X13746480Y-7858300D03*
%TD*%
D33*
%TO.C,C15*%
X15025300Y-9533160D03*
X15025300Y-9629160D03*
%TD*%
D21*
%TO.C,RN7*%
X15624480Y-10813180D03*
D22*
X15624480Y-10763180D03*
X15624480Y-10713180D03*
D21*
X15624480Y-10663180D03*
X15524480Y-10663180D03*
D22*
X15524480Y-10713180D03*
X15524480Y-10763180D03*
D21*
X15524480Y-10813180D03*
%TD*%
D10*
%TO.C,R10*%
X10719380Y-7086800D03*
X10719380Y-6984800D03*
%TD*%
D18*
%TO.C,C6*%
X12961620Y-7985760D03*
X12961620Y-7889760D03*
%TD*%
D45*
%TO.C,RN9*%
X16871880Y-8044180D03*
D46*
X16921880Y-8044180D03*
X16971880Y-8044180D03*
D45*
X17021880Y-8044180D03*
X17021880Y-7944180D03*
D46*
X16971880Y-7944180D03*
X16921880Y-7944180D03*
D45*
X16871880Y-7944180D03*
%TD*%
D37*
%TO.C,C52*%
X18062220Y-8040240D03*
X18062220Y-7885240D03*
%TD*%
D47*
%TO.C,FB3*%
X8669450Y-10680800D03*
X8881950Y-10680800D03*
%TD*%
D48*
%TO.C,C17*%
X12525661Y-9556401D03*
X12457779Y-9488519D03*
%TD*%
D12*
%TO.C,C14*%
X14750040Y-10538460D03*
X14846040Y-10538460D03*
%TD*%
%TO.C,C62*%
X9330220Y-10316370D03*
X9426220Y-10316370D03*
%TD*%
D14*
%TO.C,C23*%
X14007180Y-10581640D03*
X13911180Y-10581640D03*
%TD*%
D36*
%TO.C,C12*%
X14587220Y-10581640D03*
X14587220Y-10736640D03*
%TD*%
D27*
%TO.C,R44*%
X13819293Y-7927300D03*
X13819293Y-7858300D03*
%TD*%
D11*
%TO.C,R21*%
X18717260Y-7149820D03*
X18717260Y-7251820D03*
%TD*%
D12*
%TO.C,C5*%
X20511740Y-11577320D03*
X20607740Y-11577320D03*
%TD*%
D11*
%TO.C,R42*%
X14549120Y-5515440D03*
X14549120Y-5617440D03*
%TD*%
D49*
%TO.C,C61*%
X8488680Y-10680800D03*
X8488680Y-10870800D03*
%TD*%
D27*
%TO.C,R16*%
X13673667Y-7927300D03*
X13673667Y-7858300D03*
%TD*%
D50*
%TO.C,C1*%
X19301460Y-7800340D03*
X19111460Y-7800340D03*
%TD*%
D14*
%TO.C,C26*%
X13129260Y-7647940D03*
X13033260Y-7647940D03*
%TD*%
D20*
%TO.C,R8*%
X15036800Y-8706160D03*
X15138800Y-8706160D03*
%TD*%
D26*
%TO.C,D7*%
X15900400Y-8089800D03*
X15900400Y-7759800D03*
%TD*%
D10*
%TO.C,R13*%
X9949380Y-7086800D03*
X9949380Y-6984800D03*
%TD*%
D12*
%TO.C,C45*%
X16665200Y-7078980D03*
X16761200Y-7078980D03*
%TD*%
D51*
%TO.C,J2*%
X8758500Y-11691620D03*
X9148500Y-11691620D03*
X8758500Y-11818620D03*
X9148500Y-11818620D03*
X8758500Y-11945620D03*
X9148500Y-11945620D03*
X8758500Y-12072620D03*
X9148500Y-12072620D03*
X8758500Y-12199620D03*
X9148500Y-12199620D03*
X8758500Y-12326620D03*
X9148500Y-12326620D03*
X8758500Y-12453620D03*
X9148500Y-12453620D03*
%TD*%
D20*
%TO.C,R9*%
X14047180Y-6901180D03*
X14149180Y-6901180D03*
%TD*%
D10*
%TO.C,R34*%
X8920170Y-7897060D03*
X8920170Y-7795060D03*
%TD*%
D21*
%TO.C,RN2*%
X15624480Y-9457513D03*
D22*
X15624480Y-9407513D03*
X15624480Y-9357513D03*
D21*
X15624480Y-9307513D03*
X15524480Y-9307513D03*
D22*
X15524480Y-9357513D03*
X15524480Y-9407513D03*
D21*
X15524480Y-9457513D03*
%TD*%
D12*
%TO.C,C19*%
X15025300Y-8406160D03*
X15121300Y-8406160D03*
%TD*%
%TO.C,C39*%
X10169380Y-7015480D03*
X10265380Y-7015480D03*
%TD*%
%TO.C,C31*%
X11230740Y-9728280D03*
X11326740Y-9728280D03*
%TD*%
D52*
%TO.C,C47*%
X18188940Y-7149820D03*
X18188940Y-7444820D03*
%TD*%
D18*
%TO.C,C9*%
X12476480Y-8529160D03*
X12476480Y-8433160D03*
%TD*%
D53*
%TO.C,J5*%
X18733900Y-8653900D03*
X18783900Y-8653900D03*
X18833900Y-8653900D03*
X18883900Y-8653900D03*
X18933900Y-8653900D03*
X18983900Y-8653900D03*
D54*
X18578900Y-8978900D03*
X19138900Y-8978900D03*
%TD*%
D17*
%TO.C,C4*%
X20511740Y-11402060D03*
X20701740Y-11402060D03*
%TD*%
D18*
%TO.C,C7*%
X12870180Y-7985760D03*
X12870180Y-7889760D03*
%TD*%
D55*
%TO.C,U5*%
X14149180Y-6723380D03*
X14149180Y-6596380D03*
X14149180Y-6469380D03*
X14149180Y-6342380D03*
X13369180Y-6342380D03*
X13369180Y-6469380D03*
X13369180Y-6596380D03*
X13369180Y-6723380D03*
D56*
X13759180Y-6532880D03*
%TD*%
D57*
%TO.C,U4*%
X11630740Y-8369380D03*
X11550740Y-8369380D03*
X11470740Y-8369380D03*
X11390740Y-8369380D03*
X11310740Y-8369380D03*
X11230740Y-8369380D03*
X11150740Y-8369380D03*
X11070740Y-8369380D03*
X10990740Y-8369380D03*
X10910740Y-8369380D03*
X10830740Y-8369380D03*
X10750740Y-8369380D03*
X10670740Y-8369380D03*
X10590740Y-8369380D03*
X10510740Y-8369380D03*
X10430740Y-8369380D03*
X10350740Y-8369380D03*
X10270740Y-8369380D03*
X10190740Y-8369380D03*
X10110740Y-8369380D03*
X10030740Y-8369380D03*
X9950740Y-8369380D03*
X9870740Y-8369380D03*
X9790740Y-8369380D03*
X9710740Y-8369380D03*
X9630740Y-8369380D03*
X9550740Y-8369380D03*
X9550740Y-9519380D03*
X9630740Y-9519380D03*
X9710740Y-9519380D03*
X9790740Y-9519380D03*
X9870740Y-9519380D03*
X9950740Y-9519380D03*
X10030740Y-9519380D03*
X10110740Y-9519380D03*
X10190740Y-9519380D03*
X10270740Y-9519380D03*
X10350740Y-9519380D03*
X10430740Y-9519380D03*
X10510740Y-9519380D03*
X10590740Y-9519380D03*
X10670740Y-9519380D03*
X10750740Y-9519380D03*
X10830740Y-9519380D03*
X10910740Y-9519380D03*
X10990740Y-9519380D03*
X11070740Y-9519380D03*
X11150740Y-9519380D03*
X11230740Y-9519380D03*
X11310740Y-9519380D03*
X11390740Y-9519380D03*
X11470740Y-9519380D03*
X11550740Y-9519380D03*
X11630740Y-9519380D03*
%TD*%
D50*
%TO.C,C48*%
X17473680Y-7528560D03*
X17283680Y-7528560D03*
%TD*%
D58*
%TO.C,J8*%
X20489760Y-9896340D03*
X20489760Y-9646340D03*
X20489760Y-9396340D03*
X20489760Y-9146340D03*
D59*
X21169760Y-10216340D03*
X21169760Y-8826340D03*
%TD*%
D10*
%TO.C,R36*%
X16151860Y-5782960D03*
X16151860Y-5680960D03*
%TD*%
D34*
%TO.C,D11*%
X8183880Y-7846060D03*
X7996380Y-7846060D03*
%TD*%
D17*
%TO.C,C41*%
X16663920Y-7528560D03*
X16853920Y-7528560D03*
%TD*%
D12*
%TO.C,C21*%
X13891260Y-8021320D03*
X13987260Y-8021320D03*
%TD*%
D10*
%TO.C,R23*%
X18595340Y-8413780D03*
X18595340Y-8311780D03*
%TD*%
D48*
%TO.C,C22*%
X12441841Y-9099201D03*
X12373959Y-9031319D03*
%TD*%
D21*
%TO.C,RN4*%
X15624480Y-9999780D03*
D22*
X15624480Y-9949780D03*
X15624480Y-9899780D03*
D21*
X15624480Y-9849780D03*
X15524480Y-9849780D03*
D22*
X15524480Y-9899780D03*
X15524480Y-9949780D03*
D21*
X15524480Y-9999780D03*
%TD*%
D37*
%TO.C,C8*%
X12740640Y-7985760D03*
X12740640Y-7830760D03*
%TD*%
D25*
%TO.C,R6*%
X15127300Y-8509550D03*
X15025300Y-8509550D03*
%TD*%
D11*
%TO.C,R26*%
X19166840Y-8311780D03*
X19166840Y-8413780D03*
%TD*%
D60*
%TO.C,U9*%
X9386220Y-10618750D03*
X9386220Y-10556750D03*
X9324220Y-10618750D03*
X9324220Y-10556750D03*
D61*
X9498970Y-10662750D03*
X9498970Y-10612750D03*
X9498970Y-10562750D03*
X9498970Y-10512750D03*
D62*
X9430220Y-10444000D03*
X9380220Y-10444000D03*
X9330220Y-10444000D03*
X9280220Y-10444000D03*
D61*
X9211470Y-10512750D03*
X9211470Y-10562750D03*
X9211470Y-10612750D03*
X9211470Y-10662750D03*
D62*
X9280220Y-10731500D03*
X9330220Y-10731500D03*
X9380220Y-10731500D03*
X9430220Y-10731500D03*
%TD*%
D63*
%TO.C,U2*%
X19545220Y-7339200D03*
X19545220Y-7569200D03*
D64*
X20175220Y-7569200D03*
D63*
X19545220Y-7799200D03*
%TD*%
D18*
%TO.C,C58*%
X13446760Y-5617440D03*
X13446760Y-5521440D03*
%TD*%
D26*
%TO.C,D9*%
X17837440Y-8040240D03*
X17837440Y-7710240D03*
%TD*%
D14*
%TO.C,C2*%
X19270980Y-7957820D03*
X19174980Y-7957820D03*
%TD*%
%TO.C,C29*%
X13309600Y-7955280D03*
X13213600Y-7955280D03*
%TD*%
D21*
%TO.C,RN5*%
X15624480Y-10270913D03*
D22*
X15624480Y-10220913D03*
X15624480Y-10170913D03*
D21*
X15624480Y-10120913D03*
X15524480Y-10120913D03*
D22*
X15524480Y-10170913D03*
X15524480Y-10220913D03*
D21*
X15524480Y-10270913D03*
%TD*%
D33*
%TO.C,C57*%
X11371580Y-10088880D03*
X11371580Y-10184880D03*
%TD*%
D65*
%TO.C,J7*%
X8216900Y-10465800D03*
X8216900Y-10590800D03*
D66*
X7946900Y-10240800D03*
X7946900Y-10815800D03*
%TD*%
D37*
%TO.C,C53*%
X18228167Y-8040240D03*
X18228167Y-7885240D03*
%TD*%
D67*
%TO.C,C38*%
X10186380Y-7137400D03*
X10341380Y-7137400D03*
%TD*%
D25*
%TO.C,R1*%
X20332700Y-10469880D03*
X20230700Y-10469880D03*
%TD*%
D33*
%TO.C,C20*%
X15025300Y-9033160D03*
X15025300Y-9129160D03*
%TD*%
%TO.C,C40*%
X12464540Y-6342380D03*
X12464540Y-6438380D03*
%TD*%
D20*
%TO.C,R38*%
X11447380Y-10792460D03*
X11549380Y-10792460D03*
%TD*%
D68*
%TO.C,R3*%
X20365490Y-10947400D03*
X20657990Y-10947400D03*
%TD*%
D11*
%TO.C,R20*%
X15882400Y-6602540D03*
X15882400Y-6704540D03*
%TD*%
D18*
%TO.C,C35*%
X11470740Y-8140780D03*
X11470740Y-8044780D03*
%TD*%
D12*
%TO.C,C46*%
X16665200Y-6931660D03*
X16761200Y-6931660D03*
%TD*%
D25*
%TO.C,R40*%
X11549380Y-10929620D03*
X11447380Y-10929620D03*
%TD*%
D69*
%TO.C,D4*%
X9088020Y-11363960D03*
X8758020Y-11363960D03*
%TD*%
D70*
%TO.C,U8*%
X18459220Y-7339820D03*
X18524220Y-7339820D03*
X18589220Y-7339820D03*
X18589220Y-7149820D03*
X18459220Y-7149820D03*
%TD*%
D71*
%TO.C,U3*%
X14634180Y-8214910D03*
X14584180Y-8214910D03*
X14534180Y-8214910D03*
X14484180Y-8214910D03*
X14434180Y-8214910D03*
X14384180Y-8214910D03*
X14334180Y-8214910D03*
X14284180Y-8214910D03*
X14234180Y-8214910D03*
X14184180Y-8214910D03*
X14134180Y-8214910D03*
X14084180Y-8214910D03*
X14034180Y-8214910D03*
X13984180Y-8214910D03*
X13934180Y-8214910D03*
X13884180Y-8214910D03*
X13834180Y-8214910D03*
X13784180Y-8214910D03*
X13734180Y-8214910D03*
X13684180Y-8214910D03*
X13634180Y-8214910D03*
X13584180Y-8214910D03*
X13534180Y-8214910D03*
X13484180Y-8214910D03*
X13434180Y-8214910D03*
X13384180Y-8214910D03*
X13334180Y-8214910D03*
X13284180Y-8214910D03*
X13234180Y-8214910D03*
X13184180Y-8214910D03*
X13134180Y-8214910D03*
X13084180Y-8214910D03*
X13034180Y-8214910D03*
X12984180Y-8214910D03*
X12934180Y-8214910D03*
X12884180Y-8214910D03*
D72*
X12692930Y-8406160D03*
X12692930Y-8456160D03*
X12692930Y-8506160D03*
X12692930Y-8556160D03*
X12692930Y-8606160D03*
X12692930Y-8656160D03*
X12692930Y-8706160D03*
X12692930Y-8756160D03*
X12692930Y-8806160D03*
X12692930Y-8856160D03*
X12692930Y-8906160D03*
X12692930Y-8956160D03*
X12692930Y-9006160D03*
X12692930Y-9056160D03*
X12692930Y-9106160D03*
X12692930Y-9156160D03*
X12692930Y-9206160D03*
X12692930Y-9256160D03*
X12692930Y-9306160D03*
X12692930Y-9356160D03*
X12692930Y-9406160D03*
X12692930Y-9456160D03*
X12692930Y-9506160D03*
X12692930Y-9556160D03*
X12692930Y-9606160D03*
X12692930Y-9656160D03*
X12692930Y-9706160D03*
X12692930Y-9756160D03*
X12692930Y-9806160D03*
X12692930Y-9856160D03*
X12692930Y-9906160D03*
X12692930Y-9956160D03*
X12692930Y-10006160D03*
X12692930Y-10056160D03*
X12692930Y-10106160D03*
X12692930Y-10156160D03*
D71*
X12884180Y-10347410D03*
X12934180Y-10347410D03*
X12984180Y-10347410D03*
X13034180Y-10347410D03*
X13084180Y-10347410D03*
X13134180Y-10347410D03*
X13184180Y-10347410D03*
X13234180Y-10347410D03*
X13284180Y-10347410D03*
X13334180Y-10347410D03*
X13384180Y-10347410D03*
X13434180Y-10347410D03*
X13484180Y-10347410D03*
X13534180Y-10347410D03*
X13584180Y-10347410D03*
X13634180Y-10347410D03*
X13684180Y-10347410D03*
X13734180Y-10347410D03*
X13784180Y-10347410D03*
X13834180Y-10347410D03*
X13884180Y-10347410D03*
X13934180Y-10347410D03*
X13984180Y-10347410D03*
X14034180Y-10347410D03*
X14084180Y-10347410D03*
X14134180Y-10347410D03*
X14184180Y-10347410D03*
X14234180Y-10347410D03*
X14284180Y-10347410D03*
X14334180Y-10347410D03*
X14384180Y-10347410D03*
X14434180Y-10347410D03*
X14484180Y-10347410D03*
X14534180Y-10347410D03*
X14584180Y-10347410D03*
X14634180Y-10347410D03*
D72*
X14825430Y-10156160D03*
X14825430Y-10106160D03*
X14825430Y-10056160D03*
X14825430Y-10006160D03*
X14825430Y-9956160D03*
X14825430Y-9906160D03*
X14825430Y-9856160D03*
X14825430Y-9806160D03*
X14825430Y-9756160D03*
X14825430Y-9706160D03*
X14825430Y-9656160D03*
X14825430Y-9606160D03*
X14825430Y-9556160D03*
X14825430Y-9506160D03*
X14825430Y-9456160D03*
X14825430Y-9406160D03*
X14825430Y-9356160D03*
X14825430Y-9306160D03*
X14825430Y-9256160D03*
X14825430Y-9206160D03*
X14825430Y-9156160D03*
X14825430Y-9106160D03*
X14825430Y-9056160D03*
X14825430Y-9006160D03*
X14825430Y-8956160D03*
X14825430Y-8906160D03*
X14825430Y-8856160D03*
X14825430Y-8806160D03*
X14825430Y-8756160D03*
X14825430Y-8706160D03*
X14825430Y-8656160D03*
X14825430Y-8606160D03*
X14825430Y-8556160D03*
X14825430Y-8506160D03*
X14825430Y-8456160D03*
X14825430Y-8406160D03*
%TD*%
D73*
%TO.C,J1*%
X20628700Y-12529780D03*
X20628700Y-12449780D03*
D74*
X20628700Y-12334780D03*
X20628700Y-12234780D03*
X20628700Y-12184780D03*
X20628700Y-12084780D03*
D73*
X20628700Y-11969780D03*
X20628700Y-11889780D03*
X20628700Y-11889780D03*
X20628700Y-11969780D03*
D74*
X20628700Y-12034780D03*
X20628700Y-12134780D03*
X20628700Y-12284780D03*
X20628700Y-12384780D03*
D73*
X20628700Y-12449780D03*
X20628700Y-12529780D03*
%TD*%
D75*
%TO.C,Y1*%
X13129260Y-7509660D03*
X13304260Y-7509660D03*
X13304260Y-7369660D03*
X13129260Y-7369660D03*
%TD*%
D11*
%TO.C,R18*%
X12576690Y-6339380D03*
X12576690Y-6441380D03*
%TD*%
D14*
%TO.C,C50*%
X17640040Y-8044180D03*
X17544040Y-8044180D03*
%TD*%
D69*
%TO.C,D1*%
X20674490Y-11176000D03*
X20344490Y-11176000D03*
%TD*%
D17*
%TO.C,FB1*%
X17283680Y-7325360D03*
X17473680Y-7325360D03*
%TD*%
D19*
%TO.C,SW3*%
X14011227Y-5676940D03*
X13596227Y-5676940D03*
X14011227Y-5461940D03*
X13596227Y-5461940D03*
%TD*%
D11*
%TO.C,R33*%
X9037010Y-7795060D03*
X9037010Y-7897060D03*
%TD*%
D20*
%TO.C,R35*%
X7996380Y-7670800D03*
X8098380Y-7670800D03*
%TD*%
D18*
%TO.C,C42*%
X15741150Y-6701540D03*
X15741150Y-6605540D03*
%TD*%
D15*
%TO.C,J6*%
X15937440Y-8396340D03*
X15987440Y-8396340D03*
X16037440Y-8396340D03*
X16087440Y-8396340D03*
X16137440Y-8396340D03*
X16187440Y-8396340D03*
X16237440Y-8396340D03*
X16287440Y-8396340D03*
X16337440Y-8396340D03*
X16387440Y-8396340D03*
X16437440Y-8396340D03*
X16487440Y-8396340D03*
X16537440Y-8396340D03*
X16587440Y-8396340D03*
X16637440Y-8396340D03*
X16687440Y-8396340D03*
X16737440Y-8396340D03*
X16787440Y-8396340D03*
X16837440Y-8396340D03*
X16887440Y-8396340D03*
X16937440Y-8396340D03*
X16987440Y-8396340D03*
X17037440Y-8396340D03*
X17087440Y-8396340D03*
X17137440Y-8396340D03*
X17187440Y-8396340D03*
X17237440Y-8396340D03*
X17287440Y-8396340D03*
X17337440Y-8396340D03*
X17387440Y-8396340D03*
X17437440Y-8396340D03*
X17487440Y-8396340D03*
X17537440Y-8396340D03*
X17587440Y-8396340D03*
X17637440Y-8396340D03*
X17687440Y-8396340D03*
X17737440Y-8396340D03*
X17787440Y-8396340D03*
X17837440Y-8396340D03*
X17887440Y-8396340D03*
D16*
X15772440Y-8786340D03*
X18052440Y-8786340D03*
%TD*%
D21*
%TO.C,RN3*%
X15624480Y-9728647D03*
D22*
X15624480Y-9678647D03*
X15624480Y-9628647D03*
D21*
X15624480Y-9578647D03*
X15524480Y-9578647D03*
D22*
X15524480Y-9628647D03*
X15524480Y-9678647D03*
D21*
X15524480Y-9728647D03*
%TD*%
D20*
%TO.C,R7*%
X12872520Y-7780020D03*
X12974520Y-7780020D03*
%TD*%
D18*
%TO.C,C13*%
X14701520Y-7777250D03*
X14701520Y-7681250D03*
%TD*%
D76*
%TO.C,J4*%
X9839380Y-6782780D03*
X9949380Y-6782780D03*
X10059380Y-6782780D03*
X10169380Y-6782780D03*
X10279380Y-6782780D03*
X10389380Y-6782780D03*
X10499380Y-6782780D03*
X10609380Y-6782780D03*
X10719380Y-6782780D03*
D77*
X10834380Y-6682780D03*
D78*
X10834380Y-5722780D03*
D79*
X9374380Y-6682780D03*
D78*
X9284380Y-5722780D03*
%TD*%
D80*
%TO.C,R22*%
X18567400Y-8045240D03*
X18567400Y-7880240D03*
%TD*%
D14*
%TO.C,C30*%
X10718740Y-9728280D03*
X10622740Y-9728280D03*
%TD*%
D45*
%TO.C,RN8*%
X17189380Y-8044180D03*
D46*
X17239380Y-8044180D03*
X17289380Y-8044180D03*
D45*
X17339380Y-8044180D03*
X17339380Y-7944180D03*
D46*
X17289380Y-7944180D03*
X17239380Y-7944180D03*
D45*
X17189380Y-7944180D03*
%TD*%
D21*
%TO.C,RN1*%
X15524480Y-9036380D03*
D22*
X15524480Y-9086380D03*
X15524480Y-9136380D03*
D21*
X15524480Y-9186380D03*
X15624480Y-9186380D03*
D22*
X15624480Y-9136380D03*
X15624480Y-9086380D03*
D21*
X15624480Y-9036380D03*
%TD*%
D37*
%TO.C,C24*%
X12346940Y-8529160D03*
X12346940Y-8374160D03*
%TD*%
D81*
%TO.C,Q1*%
X20416740Y-10733810D03*
X20606740Y-10733810D03*
X20511740Y-10546310D03*
%TD*%
D26*
%TO.C,D5*%
X16362680Y-8089800D03*
X16362680Y-7759800D03*
%TD*%
D34*
%TO.C,D2*%
X8183880Y-6906260D03*
X7996380Y-6906260D03*
%TD*%
D44*
%TO.C,Q2*%
X8741910Y-7471160D03*
X8741910Y-7281160D03*
X8554410Y-7376160D03*
%TD*%
D10*
%TO.C,R31*%
X8919940Y-7427160D03*
X8919940Y-7325160D03*
%TD*%
M02*
