M48
; DRILL file {KiCad 9.0.1} date 2025-04-23T09:24:08+0700
; FORMAT={-:-/ absolute / inch / decimal}
; #@! TF.CreationDate,2025-04-23T09:24:08+07:00
; #@! TF.GenerationSoftware,Kicad,Pcbnew,9.0.1
; #@! TF.FileFunction,MixedPlating,1,4
FMAT,2
INCH
; #@! TA.AperFunction,Plated,PTH,ViaDrill
T1C0.0118
; #@! TA.AperFunction,Plated,PTH,ComponentDrill
T2C0.0197
; #@! TA.AperFunction,Plated,PTH,ComponentDrill
T3C0.0236
; #@! TA.AperFunction,Plated,PTH,ComponentDrill
T4C0.1260
; #@! TA.AperFunction,NonPlated,NPTH,ComponentDrill
T5C0.0256
; #@! TA.AperFunction,NonPlated,NPTH,ComponentDrill
T6C0.0390
; #@! TA.AperFunction,NonPlated,NPTH,ComponentDrill
T7C0.0394
; #@! TA.AperFunction,NonPlated,NPTH,ComponentDrill
T8C0.0413
; #@! TA.AperFunction,NonPlated,NPTH,ComponentDrill
T9C0.0512
%
G90
G05
T1
X3.03Y-2.351
X3.03Y-2.5507
X3.03Y-2.7504
X3.03Y-2.9501
X3.03Y-3.1499
X3.03Y-3.3496
X3.03Y-3.5493
X3.03Y-3.749
X3.03Y-3.9487
X3.03Y-4.1484
X3.03Y-4.3481
X3.03Y-4.5479
X3.03Y-4.7476
X3.03Y-4.9473
X3.03Y-5.147
X3.09Y-4.703
X3.141Y-4.426
X3.216Y-2.654
X3.216Y-2.837
X3.217Y-3.02
X3.232Y-4.653
X3.239Y-2.143
X3.239Y-5.353
X3.241Y-4.213
X3.242Y-4.082
X3.244Y-4.587
X3.324Y-4.653
X3.335Y-4.906
X3.342Y-4.322
X3.343Y-3.968
X3.344Y-4.145
X3.364Y-4.616
X3.376Y-4.754
X3.382Y-5.196
X3.398Y-3.851
X3.435Y-2.564
X3.4371Y-2.143
X3.4371Y-5.353
X3.442Y-2.836
X3.443Y-3.02
X3.443Y-3.438
X3.449Y-4.143
X3.484Y-2.278
X3.51Y-4.385
X3.539Y-4.144
X3.578Y-4.434
X3.588Y-2.884
X3.6352Y-2.143
X3.6352Y-5.353
X3.6676Y-4.1536
X3.6676Y-4.1851
X3.669Y-4.653
X3.669Y-4.703
X3.669Y-4.853
X3.673Y-3.956
X3.693Y-4.277
X3.698Y-2.739
X3.6991Y-4.1536
X3.6991Y-4.1851
X3.707Y-2.296
X3.735Y-4.614
X3.743Y-4.062
X3.752Y-2.861
X3.752Y-3.069
X3.772Y-4.945
X3.79Y-3.999
X3.825Y-3.146
X3.8334Y-2.143
X3.8334Y-5.353
X3.853Y-4.102
X3.858Y-3.741
X3.858Y-5.194
X3.863Y-3.389
X3.886Y-4.189
X3.898Y-4.507
X3.908Y-4.273
X3.961Y-2.765
X3.9776Y-2.8214
X4.004Y-2.889
X4.016Y-3.304
X4.0315Y-2.143
X4.0315Y-5.353
X4.041Y-2.477
X4.047Y-2.765
X4.0475Y-3.304
X4.052Y-2.921
X4.079Y-3.825
X4.079Y-3.304
X4.084Y-3.402
X4.091Y-2.668
X4.11Y-3.741
X4.131Y-4.772
X4.1336Y-2.765
X4.142Y-3.304
X4.142Y-3.64
X4.173Y-3.742
X4.177Y-2.765
X4.2296Y-2.143
X4.2296Y-5.353
X4.249Y-3.957
X4.254Y-2.766
X4.259Y-4.507
X4.263Y-2.616
X4.266Y-3.64
X4.272Y-4.614
X4.281Y-3.115
X4.282Y-3.807
X4.299Y-3.304
X4.3Y-3.64
X4.314Y-2.44
X4.315Y-4.29
X4.317Y-2.292
X4.318Y-3.807
X4.331Y-3.188
X4.351Y-3.145
X4.3625Y-3.3035
X4.38Y-3.971
X4.394Y-3.303
X4.394Y-3.743
X4.415Y-2.9417
X4.415Y-2.987
X4.4155Y-3.0324
X4.421Y-3.902
X4.423Y-3.82
X4.426Y-3.08
X4.426Y-3.642
X4.426Y-4.111
X4.4277Y-2.143
X4.4277Y-5.353
X4.457Y-3.303
X4.457Y-3.756
X4.458Y-3.145
X4.47Y-2.9191
X4.47Y-2.9644
X4.47Y-3.0097
X4.474Y-2.542
X4.477Y-3.902
X4.489Y-3.743
X4.507Y-4.335
X4.512Y-4.008
X4.519Y-3.146
X4.531Y-3.9016
X4.548Y-3.778
X4.582Y-4.773
X4.583Y-3.336
X4.584Y-3.5719
X4.585Y-3.944
X4.586Y-3.112
X4.595Y-3.781
X4.598Y-2.279
X4.598Y-3.628
X4.601Y-2.193
X4.601Y-2.846
X4.607Y-2.641
X4.6258Y-2.143
X4.6258Y-5.353
X4.627Y-4.119
X4.6295Y-3.7805
X4.632Y-3.299
X4.636Y-3.108
X4.661Y-3.7795
X4.661Y-4.011
X4.677Y-3.447
X4.6896Y-4.1064
X4.709Y-3.146
X4.7153Y-3.5143
X4.718Y-4.011
X4.725Y-2.542
X4.7294Y-3.6074
X4.7342Y-3.4228
X4.748Y-4.613
X4.769Y-2.775
X4.77Y-3.7933
X4.771Y-3.746
X4.795Y-3.7234
X4.795Y-3.7706
X4.7988Y-3.2898
X4.8Y-3.96
X4.801Y-3.4916
X4.821Y-2.958
X4.824Y-2.143
X4.824Y-5.353
X4.851Y-3.267
X4.857Y-2.541
X4.857Y-4.003
X4.869Y-2.896
X4.878Y-3.776
X4.88Y-3.32
X4.88Y-3.577
X4.883Y-3.358
X4.883Y-3.614
X4.883Y-3.811
X4.883Y-4.149
X4.898Y-3.048
X4.917Y-2.795
X4.921Y-4.217
X4.928Y-2.866
X4.929Y-3.094
X4.929Y-3.131
X4.935Y-4.504
X4.936Y-2.667
X4.936Y-3.964
X4.954Y-2.194
X4.972Y-4.245
X4.984Y-2.735
X4.997Y-3.01
X4.997Y-3.163
X5.0Y-4.6894
X5.011Y-4.778
X5.0221Y-2.143
X5.0221Y-5.353
X5.031Y-4.245
X5.047Y-3.188
X5.0497Y-4.4304
X5.053Y-4.019
X5.06Y-3.739
X5.072Y-3.615
X5.0724Y-4.3576
X5.0724Y-4.486
X5.075Y-3.9545
X5.086Y-3.086
X5.089Y-2.601
X5.09Y-2.832
X5.0956Y-4.334
X5.0956Y-4.4304
X5.1064Y-3.9519
X5.107Y-4.875
X5.107Y-4.9905
X5.107Y-5.106
X5.112Y-3.856
X5.112Y-4.137
X5.112Y-4.172
X5.118Y-3.012
X5.1199Y-3.5403
X5.123Y-2.429
X5.1379Y-3.951
X5.1425Y-3.6026
X5.163Y-3.015
X5.167Y-3.788
X5.171Y-3.287
X5.174Y-3.6026
X5.2008Y-3.154
X5.206Y-3.009
X5.2106Y-4.9905
X5.2106Y-5.106
X5.2107Y-4.875
X5.211Y-3.3354
X5.2113Y-3.303
X5.2202Y-2.143
X5.2202Y-5.353
X5.228Y-3.8884
X5.24Y-2.192
X5.2464Y-3.6508
X5.2524Y-3.3806
X5.258Y-2.934
X5.258Y-2.9627
X5.258Y-2.9915
X5.258Y-3.0202
X5.258Y-3.049
X5.261Y-4.198
X5.271Y-3.865
X5.2807Y-3.7874
X5.282Y-4.48
X5.283Y-3.756
X5.2846Y-3.3809
X5.2892Y-2.934
X5.2934Y-3.6526
X5.298Y-4.199
X5.3142Y-4.9905
X5.3142Y-5.106
X5.3144Y-4.875
X5.316Y-3.378
X5.317Y-3.306
X5.3204Y-2.934
X5.3481Y-4.0246
X5.3516Y-2.934
X5.366Y-3.292
X5.3828Y-2.934
X5.3875Y-3.9624
X5.3875Y-3.9303
X5.4111Y-2.6079
X5.4111Y-2.6473
X5.4111Y-2.6866
X5.414Y-2.934
X5.414Y-2.9626
X5.414Y-2.9912
X5.414Y-3.0198
X5.414Y-3.0484
X5.414Y-3.077
X5.4178Y-4.9905
X5.4178Y-5.106
X5.4182Y-4.875
X5.4183Y-2.143
X5.4183Y-5.353
X5.4254Y-2.8326
X5.429Y-2.195
X5.429Y-4.603
X5.438Y-4.3415
X5.4504Y-2.6079
X5.4504Y-2.6473
X5.4504Y-2.6866
X5.451Y-3.991
X5.454Y-3.303
X5.475Y-3.5474
X5.477Y-4.198
X5.4883Y-3.3033
X5.4898Y-2.6079
X5.4898Y-2.6473
X5.4898Y-2.6866
X5.49Y-3.335
X5.491Y-3.3701
X5.491Y-3.4016
X5.491Y-3.436
X5.492Y-3.7664
X5.492Y-3.85
X5.4991Y-3.5247
X5.5026Y-4.3641
X5.514Y-4.293
X5.515Y-4.199
X5.5158Y-3.7457
X5.5159Y-3.828
X5.5214Y-4.9905
X5.5214Y-5.106
X5.5219Y-4.875
X5.524Y-3.44
X5.5245Y-3.5021
X5.529Y-3.099
X5.5385Y-3.8944
X5.547Y-3.026
X5.549Y-3.172
X5.5594Y-4.3868
X5.5617Y-3.828
X5.578Y-4.561
X5.5785Y-4.6055
X5.58Y-2.523
X5.595Y-2.435
X5.5974Y-3.4174
X5.6011Y-4.41
X5.603Y-3.5903
X5.607Y-2.767
X5.6164Y-2.143
X5.6164Y-5.353
X5.6207Y-3.8001
X5.624Y-3.6961
X5.6251Y-4.9905
X5.6251Y-5.106
X5.6256Y-4.875
X5.6435Y-3.38
X5.6475Y-3.6305
X5.6484Y-3.5818
X5.6484Y-3.7414
X5.6661Y-3.341
X5.678Y-4.637
X5.679Y-3.027
X5.68Y-2.603
X5.6976Y-3.381
X5.701Y-3.857
X5.701Y-3.924
X5.719Y-4.467
X5.721Y-3.476
X5.728Y-2.185
X5.728Y-4.019
X5.7287Y-4.9905
X5.7287Y-5.106
X5.7293Y-4.875
X5.737Y-3.8577
X5.743Y-4.265
X5.761Y-3.8332
X5.765Y-3.7049
X5.778Y-3.296
X5.783Y-3.467
X5.784Y-3.8577
X5.784Y-3.9227
X5.785Y-3.136
X5.785Y-3.169
X5.8001Y-4.1875
X5.807Y-4.117
X5.8146Y-2.143
X5.8146Y-5.353
X5.8323Y-4.9905
X5.8323Y-5.106
X5.8331Y-4.875
X5.837Y-2.937
X5.845Y-4.117
X5.8935Y-3.6865
X5.894Y-3.4276
X5.8955Y-3.8859
X5.916Y-3.28
X5.917Y-2.194
X5.927Y-3.887
X5.929Y-3.467
X5.9359Y-4.9905
X5.9359Y-5.106
X5.9368Y-4.875
X5.942Y-4.002
X5.944Y-3.556
X5.944Y-3.753
X5.946Y-4.3784
X5.946Y-4.4325
X5.9498Y-3.6752
X5.953Y-3.792
X5.955Y-3.607
X5.9588Y-3.8882
X5.969Y-4.293
X5.977Y-4.3558
X5.978Y-4.401
X5.9911Y-3.8879
X5.9964Y-2.817
X5.997Y-2.316
X6.007Y-3.266
X6.011Y-3.053
X6.012Y-4.156
X6.012Y-4.225
X6.012Y-4.2704
X6.0127Y-2.143
X6.0127Y-5.353
X6.014Y-3.941
X6.014Y-4.002
X6.014Y-4.0474
X6.015Y-3.698
X6.0208Y-3.8009
X6.022Y-2.913
X6.0235Y-3.8875
X6.0395Y-4.9905
X6.0395Y-5.106
X6.0405Y-4.875
X6.0452Y-2.8612
X6.047Y-4.2477
X6.048Y-3.9184
X6.048Y-3.964
X6.048Y-4.0247
X6.048Y-4.07
X6.048Y-4.1334
X6.048Y-4.179
X6.05Y-3.723
X6.0507Y-3.7913
X6.0549Y-3.546
X6.055Y-3.5855
X6.055Y-3.617
X6.056Y-3.5145
X6.075Y-4.3331
X6.0808Y-2.8614
X6.085Y-2.743
X6.1403Y-2.8973
X6.1431Y-4.9905
X6.1431Y-5.106
X6.1442Y-4.875
X6.148Y-2.777
X6.16Y-4.309
X6.164Y-2.638
X6.189Y-3.854
X6.21Y-3.397
X6.2108Y-2.143
X6.2108Y-5.353
X6.215Y-3.054
X6.2467Y-4.9905
X6.2467Y-5.106
X6.2479Y-4.875
X6.2529Y-2.7381
X6.26Y-3.017
X6.274Y-3.459
X6.298Y-3.14
X6.347Y-2.74
X6.3503Y-4.9905
X6.3503Y-5.106
X6.351Y-3.019
X6.3517Y-4.875
X6.353Y-3.351
X6.401Y-3.255
X6.4089Y-2.143
X6.4089Y-5.353
X6.443Y-3.017
X6.448Y-2.556
X6.4539Y-4.9905
X6.4539Y-5.106
X6.4554Y-4.875
X6.476Y-2.746
X6.482Y-3.404
X6.491Y-3.261
X6.5576Y-4.9905
X6.5576Y-5.106
X6.5591Y-4.875
X6.561Y-3.011
X6.593Y-3.1
X6.596Y-3.203
X6.607Y-2.143
X6.607Y-5.353
X6.644Y-2.729
X6.644Y-2.787
X6.644Y-2.845
X6.644Y-2.903
X6.6612Y-4.9905
X6.6612Y-5.106
X6.6628Y-4.875
X6.68Y-2.964
X6.708Y-3.253
X6.764Y-2.963
X6.7648Y-4.9905
X6.7648Y-5.106
X6.7666Y-4.875
X6.805Y-2.839
X6.8052Y-2.143
X6.8052Y-5.353
X6.852Y-3.257
X6.8684Y-4.9905
X6.8684Y-5.106
X6.8703Y-4.875
X6.875Y-3.168
X6.972Y-4.875
X6.972Y-4.9905
X6.972Y-5.106
X6.982Y-2.595
X7.003Y-3.351
X7.0033Y-2.143
X7.0033Y-5.353
X7.082Y-4.298
X7.098Y-2.361
X7.104Y-3.407
X7.111Y-3.066
X7.126Y-4.546
X7.162Y-2.974
X7.171Y-3.458
X7.176Y-3.066
X7.2014Y-2.143
X7.2014Y-5.353
X7.21Y-4.392
X7.256Y-3.095
X7.282Y-2.927
X7.294Y-2.857
X7.306Y-4.546
X7.311Y-3.067
X7.316Y-3.61
X7.347Y-3.407
X7.36Y-3.244
X7.368Y-3.455
X7.369Y-2.885
X7.394Y-4.745
X7.3995Y-2.143
X7.3995Y-5.353
X7.4001Y-2.8417
X7.406Y-3.243
X7.454Y-3.214
X7.473Y-4.157
X7.481Y-5.091
X7.484Y-3.071
X7.489Y-4.426
X7.517Y-3.133
X7.519Y-3.835
X7.534Y-3.461
X7.536Y-3.607
X7.5976Y-2.143
X7.5976Y-5.353
X7.607Y-3.775
X7.625Y-3.116
X7.625Y-3.1475
X7.636Y-3.957
X7.6565Y-3.116
X7.6565Y-3.1475
X7.666Y-2.554
X7.681Y-3.613
X7.681Y-3.809
X7.681Y-3.8844
X7.682Y-3.6875
X7.727Y-2.837
X7.74Y-4.728
X7.753Y-3.32
X7.778Y-2.758
X7.7958Y-2.143
X7.7958Y-5.353
X7.808Y-3.478
X7.848Y-4.424
X7.859Y-2.435
X7.933Y-4.123
X7.954Y-3.695
X7.956Y-3.802
X7.986Y-2.357
X7.988Y-3.546
X7.9939Y-2.143
X7.9939Y-5.353
X8.011Y-2.76
X8.013Y-4.664
X8.013Y-4.691
X8.013Y-4.851
X8.013Y-4.878
X8.034Y-5.12
X8.0556Y-2.9406
X8.0556Y-2.98
X8.0556Y-3.0194
X8.066Y-3.545
X8.067Y-3.748
X8.073Y-4.674
X8.075Y-4.937
X8.095Y-2.9406
X8.095Y-2.98
X8.095Y-3.0194
X8.1344Y-2.9406
X8.1344Y-2.98
X8.1344Y-3.0194
X8.142Y-3.544
X8.145Y-4.558
X8.192Y-2.143
X8.192Y-4.489
X8.192Y-5.353
X8.261Y-4.814
X8.318Y-4.158
X8.397Y-2.351
X8.397Y-2.5507
X8.397Y-2.7504
X8.397Y-2.9501
X8.397Y-3.1499
X8.397Y-3.3496
X8.397Y-3.5493
X8.397Y-3.749
X8.397Y-3.9487
X8.397Y-4.1484
X8.397Y-4.3481
X8.397Y-4.5479
X8.397Y-4.7476
X8.397Y-4.9473
X8.397Y-5.147
T2
X3.0561Y-2.2643
X3.0561Y-5.2328
X3.0838Y-2.1975
X3.0838Y-2.3311
X3.0838Y-5.166
X3.0838Y-5.2996
X3.1506Y-2.1698
X3.1506Y-2.3588
X3.1506Y-5.1383
X3.1506Y-5.3273
X3.2174Y-2.1975
X3.2174Y-2.3311
X3.2174Y-5.166
X3.2174Y-5.2996
X3.2451Y-2.2643
X3.2451Y-5.2328
X8.1821Y-2.2643
X8.1821Y-5.2328
X8.2097Y-2.1975
X8.2097Y-2.3311
X8.2097Y-5.166
X8.2097Y-5.2996
X8.2766Y-2.1698
X8.2766Y-2.3588
X8.2766Y-5.1383
X8.2766Y-5.3273
X8.3434Y-2.1975
X8.3434Y-2.3311
X8.3434Y-5.166
X8.3434Y-5.2996
X8.371Y-2.2643
X8.371Y-5.2328
T4
X3.1506Y-2.2643
X3.1506Y-5.2328
X8.2766Y-2.2643
X8.2766Y-5.2328
T5
X8.1656Y-4.6932
X8.1656Y-4.9208
T6
X3.113Y-4.603
X3.153Y-4.903
X3.193Y-4.603
T7
X3.8403Y-2.2806
X4.1553Y-2.2806
T8
X7.8047Y-2.477
T9
X7.5113Y-2.477
T3
X8.1235Y-4.6369G85X8.1668Y-4.6369
G05
X8.1235Y-4.9771G85X8.1668Y-4.9771
G05
X8.2948Y-4.6369G85X8.3263Y-4.6369
G05
X8.2948Y-4.9771G85X8.3263Y-4.9771
G05
M30
